<svg width="409" height="406" viewBox="0 0 409 406" fill="none" xmlns="http://www.w3.org/2000/svg">
<path d="M288.627 228.673C288.792 231.061 288.903 233.464 288.958 235.881L288.459 235.892C288.486 237.091 288.5 238.294 288.5 239.5C288.5 240.706 288.486 241.909 288.459 243.108L288.958 243.119C288.903 245.536 288.792 247.939 288.627 250.327L288.128 250.292C287.962 252.696 287.74 255.084 287.465 257.454L287.962 257.512C287.683 259.912 287.35 262.294 286.963 264.658L286.469 264.577C286.08 266.953 285.637 269.309 285.14 271.645L285.629 271.749C285.128 274.111 284.572 276.451 283.963 278.77L283.48 278.643C282.869 280.97 282.205 283.274 281.49 285.554L281.967 285.704C281.244 288.006 280.469 290.284 279.643 292.536L279.174 292.364C278.346 294.621 277.466 296.852 276.537 299.055L276.998 299.25C276.06 301.472 275.072 303.665 274.035 305.83L273.584 305.614C272.545 307.781 271.457 309.918 270.321 312.023L270.761 312.261C269.617 314.382 268.424 316.472 267.184 318.528L266.755 318.27C265.515 320.326 264.227 322.35 262.894 324.338L263.31 324.616C261.968 326.617 260.58 328.583 259.147 330.512L258.746 330.213C257.315 332.141 255.839 334.031 254.32 335.882L254.706 336.199C253.178 338.061 251.607 339.884 249.995 341.665L249.624 341.33C248.014 343.109 246.362 344.847 244.669 346.543L245.023 346.896C243.323 348.6 241.582 350.261 239.803 351.878L239.466 351.508C237.691 353.121 235.877 354.689 234.026 356.211L234.344 356.598C232.485 358.126 230.59 359.608 228.658 361.042L228.36 360.64C226.436 362.069 224.475 363.451 222.482 364.782L222.759 365.198C220.759 366.533 218.726 367.819 216.66 369.054L216.403 368.624C214.347 369.853 212.258 371.031 210.139 372.156L210.374 372.597C208.251 373.724 206.098 374.798 203.916 375.817L203.704 375.365C201.536 376.378 199.339 377.337 197.114 378.241L197.303 378.704C195.078 379.608 192.827 380.457 190.55 381.248L190.386 380.776C188.127 381.561 185.843 382.29 183.536 382.96L183.676 383.441C181.372 384.11 179.045 384.722 176.697 385.275L176.582 384.789C174.257 385.336 171.91 385.825 169.544 386.255L169.633 386.747C167.275 387.174 164.898 387.543 162.502 387.851L162.439 387.355C160.072 387.659 157.687 387.904 155.286 388.088L155.325 388.587C152.938 388.77 150.536 388.893 148.119 388.954L148.106 388.454C146.908 388.485 145.706 388.5 144.5 388.5C143.294 388.5 142.092 388.485 140.894 388.454L140.881 388.954C138.464 388.893 136.062 388.77 133.675 388.587L133.714 388.088C131.313 387.904 128.928 387.659 126.561 387.355L126.498 387.851C124.102 387.543 121.725 387.174 119.367 386.747L119.456 386.255C117.09 385.825 114.743 385.336 112.418 384.789L112.303 385.275C109.955 384.722 107.628 384.11 105.324 383.441L105.464 382.96C103.157 382.29 100.873 381.561 98.6141 380.776L98.4499 381.248C96.1732 380.457 93.9218 379.608 91.6973 378.704L91.8855 378.241C89.6614 377.337 87.4642 376.378 85.2956 375.365L85.084 375.818C82.902 374.798 80.749 373.724 78.6264 372.597L78.8608 372.156C76.7419 371.031 74.6533 369.853 72.5968 368.624L72.3404 369.054C70.2744 367.819 68.2406 366.533 66.2408 365.198L66.5184 364.782C64.5245 363.451 62.5644 362.069 60.6397 360.64L60.3417 361.042C58.4104 359.608 56.5148 358.126 54.6563 356.598L54.9739 356.211C53.1229 354.689 51.3089 353.121 49.5336 351.508L49.1974 351.878C47.4179 350.261 45.6771 348.6 43.9766 346.896L44.3306 346.543C42.6384 344.847 40.9864 343.109 39.376 341.33L39.0053 341.665C37.3926 339.884 35.8216 338.061 34.2939 336.199L34.6805 335.882C33.1615 334.031 31.6854 332.141 30.2539 330.213L29.8525 330.511C28.4202 328.583 27.0323 326.617 25.6904 324.616L26.1057 324.338C24.7726 322.35 23.485 320.326 22.2446 318.27L21.8164 318.528C20.5764 316.472 19.3834 314.382 18.2388 312.261L18.6789 312.023C17.5428 309.918 16.4547 307.781 15.4161 305.614L14.9652 305.83C13.9279 303.665 12.9398 301.472 12.0024 299.25L12.4631 299.055C11.5336 296.852 10.6541 294.621 9.82603 292.364L9.35661 292.536C8.5306 290.284 7.75565 288.006 7.03323 285.704L7.51029 285.554C6.79479 283.274 6.13099 280.97 5.52032 278.643L5.03669 278.77C4.42827 276.452 3.87242 274.111 3.37053 271.749L3.85961 271.645C3.36319 269.309 2.91973 266.953 2.53062 264.577L2.0372 264.658C1.65007 262.294 1.31656 259.912 1.03801 257.512L1.53468 257.454C1.25955 255.084 1.0382 252.696 0.871949 250.293L0.373141 250.327C0.207987 247.939 0.0970226 245.536 0.0415139 243.119L0.541382 243.108C0.513846 241.909 0.5 240.706 0.5 239.5C0.5 238.294 0.513846 237.091 0.541381 235.892L0.0415131 235.881C0.0970211 233.464 0.207985 231.061 0.373139 228.673L0.871947 228.708C1.0382 226.304 1.25955 223.916 1.53468 221.546L1.03801 221.488C1.31656 219.088 1.65007 216.706 2.03719 214.342L2.53062 214.423C2.91973 212.047 3.36318 209.691 3.85961 207.355L3.37053 207.251C3.87241 204.889 4.42827 202.549 5.03669 200.23L5.52031 200.357C6.13099 198.03 6.79479 195.726 7.51028 193.446L7.03322 193.296C7.75564 190.994 8.53059 188.716 9.35661 186.464L9.82602 186.636C10.6541 184.379 11.5336 182.148 12.4631 179.945L12.0024 179.75C12.9398 177.528 13.9279 175.335 14.9652 173.17L15.4161 173.386C16.4547 171.219 17.5428 169.082 18.6789 166.977L18.2389 166.739C19.3834 164.618 20.5765 162.528 21.8164 160.472L22.2446 160.73C23.485 158.674 24.7726 156.65 26.1057 154.662L25.6904 154.384C27.0323 152.383 28.4202 150.417 29.8525 148.488L30.2539 148.787C31.6854 146.859 33.1615 144.969 34.6805 143.118L34.2939 142.801C35.8216 140.939 37.3926 139.116 39.0053 137.335L39.376 137.67C40.9864 135.891 42.6385 134.153 44.3306 132.457L43.9767 132.104C45.6771 130.4 47.4179 128.739 49.1974 127.122L49.5336 127.492C51.309 125.879 53.1229 124.311 54.9739 122.789L54.6564 122.402C56.5148 120.874 58.4104 119.392 60.3417 117.958L60.6397 118.36C62.5644 116.931 64.5245 115.549 66.5184 114.218L66.2408 113.802C68.2406 112.467 70.2743 111.181 72.3404 109.946L72.5968 110.376C74.6533 109.147 76.7418 107.969 78.8608 106.844L78.6264 106.403C80.749 105.276 82.902 104.202 85.0839 103.183L85.2956 103.635C87.4642 102.622 89.6614 101.663 91.8855 100.759L91.6973 100.296C93.9218 99.3919 96.1732 98.5434 98.4499 97.752L98.6141 98.2243C100.873 97.4391 103.157 96.7103 105.464 96.0395L105.324 95.5594C107.628 94.8897 109.955 94.2776 112.303 93.7247L112.418 94.2114C114.743 93.664 117.09 93.1748 119.456 92.7453L119.367 92.2534C121.725 91.8256 124.102 91.4569 126.498 91.1489L126.561 91.6448C128.928 91.3405 131.313 91.0957 133.714 90.9117L133.675 90.4132C136.062 90.2303 138.464 90.1074 140.881 90.046L140.894 90.5458C142.092 90.5153 143.294 90.5 144.5 90.5C145.706 90.5 146.908 90.5153 148.106 90.5458L148.119 90.046C150.536 90.1074 152.938 90.2303 155.325 90.4132L155.286 90.9117C157.687 91.0957 160.072 91.3405 162.439 91.6448L162.502 91.1489C164.898 91.4569 167.275 91.8256 169.633 92.2534L169.544 92.7453C171.91 93.1747 174.257 93.664 176.582 94.2114L176.697 93.7247C179.045 94.2776 181.372 94.8897 183.676 95.5594L183.536 96.0395C185.843 96.7103 188.127 97.4391 190.386 98.2243L190.55 97.752C192.827 98.5434 195.078 99.3919 197.303 100.296L197.114 100.759C199.339 101.663 201.536 102.622 203.704 103.635L203.916 103.183C206.098 104.202 208.251 105.276 210.374 106.403L210.139 106.844C212.258 107.969 214.347 109.147 216.403 110.376L216.66 109.946C218.726 111.181 220.759 112.467 222.759 113.802L222.482 114.218C224.475 115.549 226.436 116.931 228.36 118.36L228.658 117.958C230.59 119.392 232.485 120.874 234.344 122.402L234.026 122.789C235.877 124.311 237.691 125.879 239.466 127.492L239.803 127.122C241.582 128.739 243.323 130.4 245.023 132.104L244.669 132.457C246.362 134.153 248.014 135.891 249.624 137.67L249.995 137.335C251.607 139.116 253.178 140.939 254.706 142.801L254.32 143.118C255.839 144.969 257.315 146.859 258.746 148.787L259.148 148.489C260.58 150.417 261.968 152.383 263.31 154.384L262.894 154.662C264.227 156.65 265.515 158.674 266.755 160.73L267.184 160.472C268.424 162.528 269.617 164.618 270.761 166.739L270.321 166.977C271.457 169.082 272.545 171.219 273.584 173.386L274.035 173.17C275.072 175.335 276.06 177.528 276.998 179.75L276.537 179.945C277.466 182.148 278.346 184.379 279.174 186.636L279.643 186.464C280.469 188.716 281.244 190.994 281.967 193.296L281.49 193.446C282.205 195.726 282.869 198.03 283.48 200.357L283.963 200.23C284.572 202.549 285.128 204.889 285.629 207.251L285.14 207.355C285.637 209.691 286.08 212.047 286.469 214.423L286.963 214.342C287.35 216.706 287.683 219.088 287.962 221.488L287.465 221.546C287.74 223.916 287.962 226.304 288.128 228.707L288.627 228.673Z" stroke="#333332" stroke-dasharray="7 7"/>
<path opacity="0.6" d="M440.5 232C440.5 327.837 365.269 405.5 272.5 405.5C179.731 405.5 104.5 327.837 104.5 232C104.5 136.163 179.731 58.5 272.5 58.5C365.269 58.5 440.5 136.163 440.5 232Z" stroke="#333332"/>
<path d="M183 1L190 124" stroke="#333332" stroke-linecap="round"/>
<g opacity="0.6">
<path d="M317.763 56.0265C316.931 55.7853 316.366 55.2742 316.069 54.4933C315.774 53.7041 315.798 52.7185 316.141 51.5365C316.36 50.779 316.662 50.1581 317.046 49.6738C317.438 49.192 317.885 48.8657 318.385 48.695C318.886 48.5242 319.407 48.5173 319.948 48.6741C320.431 48.814 320.829 49.0738 321.143 49.4536C321.46 49.825 321.664 50.3037 321.756 50.8898L320.889 51.0312C320.832 50.6357 320.696 50.2941 320.482 50.0064C320.276 49.7211 320.019 49.5338 319.711 49.4446C319.137 49.2781 318.619 49.4125 318.159 49.8477C317.708 50.2853 317.353 50.9494 317.095 51.8401C316.82 52.789 316.782 53.5585 316.981 54.1486C317.191 54.7327 317.595 55.1116 318.194 55.2853C318.436 55.3552 318.709 55.3937 319.014 55.4008C319.321 55.3996 319.662 55.3586 320.037 55.2779L320.133 56.0229C319.67 56.1236 319.24 56.1749 318.843 56.177C318.448 56.1707 318.088 56.1206 317.763 56.0265ZM323.711 57.7501C323.103 57.574 322.611 57.2781 322.235 56.8624C321.862 56.4384 321.626 55.9143 321.527 55.2901C321.439 54.66 321.511 53.9454 321.742 53.1463C321.957 52.4054 322.259 51.7982 322.649 51.3247C323.041 50.8428 323.493 50.5136 324.005 50.3369C324.518 50.152 325.054 50.1403 325.612 50.3019C326.228 50.4804 326.681 50.7696 326.971 51.1695C327.27 51.5719 327.426 52.0593 327.441 52.632C327.458 53.1964 327.366 53.824 327.166 54.5149L327.064 54.8645L322.207 53.4569L322.43 52.7364L326.345 53.8439C326.429 53.5526 326.482 53.2611 326.504 52.9696C326.533 52.6804 326.513 52.4083 326.442 52.1533C326.383 51.8923 326.267 51.6693 326.095 51.4841C325.934 51.293 325.695 51.1516 325.379 51.06C324.804 50.8935 324.278 51.0296 323.799 51.4683C323.322 51.8987 322.953 52.5633 322.693 53.4623C322.42 54.403 322.411 55.1809 322.666 55.7962C322.932 56.4055 323.393 56.8054 324.051 56.996C324.351 57.0828 324.653 57.1298 324.958 57.1369C325.273 57.1381 325.612 57.1054 325.974 57.039L326.057 57.7803C325.633 57.874 325.219 57.9165 324.815 57.9078C324.42 57.9015 324.052 57.849 323.711 57.7501ZM331.59 59.8845L332.968 55.1272C333.13 54.5695 333.132 54.11 332.975 53.7487C332.821 53.3791 332.54 53.1351 332.132 53.0169C331.832 52.9301 331.523 52.9396 331.203 53.0456C330.884 53.1515 330.588 53.3635 330.315 53.6815C330.042 53.9995 329.825 54.4374 329.664 54.9951L328.506 58.9907L327.582 58.723L329.641 51.6183L330.515 51.8716L329.986 53.7892L329.699 53.706C330.085 53.0598 330.525 52.6282 331.022 52.411C331.526 52.1962 332.036 52.1636 332.552 52.3132C332.968 52.4338 333.304 52.6303 333.559 52.9027C333.822 53.1775 333.986 53.5138 334.052 53.9117C334.117 54.3095 334.075 54.7665 333.925 55.2826L332.514 60.1523L331.59 59.8845Z" fill="black"/>
<path d="M336.035 62.1161C335.561 61.949 335.233 61.6542 335.051 61.2317C334.88 60.8039 334.906 60.2753 335.128 59.646L337.625 52.5592L338.533 52.879L336.096 59.7941C335.943 60.2273 335.909 60.5831 335.995 60.8614C336.089 61.1426 336.275 61.3321 336.553 61.4301C336.667 61.4704 336.792 61.4958 336.926 61.5063C337.063 61.5087 337.218 61.499 337.391 61.4773L337.441 62.1566C337.166 62.2067 336.911 62.227 336.675 62.2175C336.445 62.219 336.232 62.1852 336.035 62.1161ZM335.589 54.7775L335.844 54.0541L339.547 55.3592L339.292 56.0825L335.589 54.7775ZM343.165 62.8233L343.3 62.8708C342.906 63.3383 342.47 63.6351 341.994 63.7613C341.517 63.8874 341.063 63.8742 340.629 63.7215C339.959 63.4853 339.511 63.1021 339.284 62.5719C339.06 62.0336 339.078 61.3966 339.337 60.6609L341.023 55.8792L341.93 56.199L340.275 60.8949C340.085 61.4344 340.06 61.8944 340.202 62.2751C340.343 62.6558 340.623 62.9196 341.04 63.0665C341.35 63.176 341.669 63.1828 341.997 63.087C342.333 62.9941 342.642 62.7952 342.924 62.4902C343.217 62.18 343.456 61.7634 343.64 61.2402L345.032 57.2923L345.939 57.612L344.029 63.0313C343.911 63.3664 343.87 63.6275 343.905 63.8145C343.94 64.0015 344.084 64.1396 344.338 64.2289C344.37 64.2405 344.403 64.252 344.436 64.2635C344.477 64.2779 344.519 64.2882 344.563 64.2945L344.345 64.9897C344.258 64.9772 344.172 64.9607 344.087 64.9401C344.011 64.9223 343.936 64.9005 343.862 64.8745C343.421 64.719 343.142 64.4785 343.027 64.1531C342.921 63.8306 342.966 63.3873 343.165 62.8233ZM345.701 65.3709L348.168 58.37L349.014 58.6682L348.381 60.5816L348.148 60.4995C348.506 59.9272 348.924 59.5232 349.402 59.2874C349.889 59.0545 350.377 59.0245 350.867 59.1974C350.949 59.2262 351.024 59.2617 351.092 59.304C351.162 59.3381 351.23 59.3804 351.295 59.4308L350.895 60.2545C350.727 60.131 350.557 60.039 350.385 59.9785C350.075 59.8691 349.766 59.8706 349.46 59.9833C349.157 60.0877 348.879 60.2886 348.628 60.5858C348.376 60.883 348.172 61.2523 348.017 61.6937L346.608 65.6907L345.701 65.3709ZM357.142 61.5603L351.734 68.1039C351.188 68.7661 350.657 69.2449 350.139 69.5403C349.618 69.8439 349.076 69.8963 348.512 69.6975C348.316 69.6284 348.114 69.5249 347.905 69.387C347.696 69.2491 347.474 69.0699 347.24 68.8493L347.788 68.2708C347.966 68.4438 348.134 68.5809 348.291 68.6823C348.445 68.7918 348.596 68.8725 348.743 68.9244C349.029 69.0252 349.306 69.0217 349.574 68.9139C349.839 68.8143 350.118 68.6231 350.41 68.3403C350.708 68.0685 351.035 67.715 351.391 67.2798L351.33 59.512L352.286 59.8491L352.247 66.7271L351.977 66.632L356.247 61.2449L357.142 61.5603Z" fill="black"/>
<path d="M290.786 41.1482L288.59 41.8269L288.469 41.059L290.805 40.3426L291.544 40.4937L289.785 49.0907L288.932 48.9161L290.589 40.8159L290.786 41.1482ZM287.492 48.6217L287.628 47.9594L291.168 48.6837L291.033 49.346L287.492 48.6217ZM294.816 50.2393C294.213 50.1159 293.751 49.8445 293.43 49.425C293.109 49.0054 292.912 48.4743 292.84 47.8315C292.768 47.1887 292.813 46.4725 292.974 45.6828C293.098 45.08 293.273 44.5054 293.5 43.9591C293.737 43.406 294.025 42.9254 294.365 42.5173C294.705 42.1092 295.094 41.8083 295.532 41.6148C295.978 41.423 296.473 41.3826 297.016 41.4938C297.424 41.5772 297.785 41.7351 298.1 41.9677C298.415 42.2002 298.659 42.4979 298.833 42.8607L298.166 43.2019C298.026 42.9345 297.84 42.7195 297.608 42.557C297.386 42.3878 297.139 42.2754 296.867 42.2198C296.434 42.1312 296.048 42.1805 295.709 42.3677C295.37 42.5548 295.079 42.8315 294.836 43.1975C294.593 43.5636 294.388 43.9817 294.221 44.4518C294.065 44.9151 293.942 45.3854 293.853 45.8626L293.637 45.8183C293.974 45.2946 294.377 44.9436 294.847 44.7655C295.317 44.5874 295.769 44.5427 296.202 44.6313C296.618 44.7164 296.985 44.9109 297.303 45.2148C297.623 45.5103 297.856 45.8852 298.002 46.3397C298.158 46.7874 298.179 47.2914 298.064 47.8518C297.96 48.3613 297.755 48.8193 297.451 49.2259C297.157 49.6257 296.786 49.9258 296.338 50.1261C295.892 50.3179 295.384 50.3556 294.816 50.2393ZM295.015 49.5237C295.295 49.581 295.583 49.5602 295.877 49.4612C296.173 49.3537 296.438 49.1603 296.673 48.8808C296.907 48.6014 297.072 48.224 297.17 47.7485C297.26 47.307 297.261 46.9135 297.172 46.5681C297.084 46.2226 296.924 45.9423 296.694 45.7272C296.472 45.5137 296.209 45.3758 295.903 45.3132C295.614 45.2542 295.318 45.2733 295.015 45.3705C294.714 45.4593 294.443 45.6383 294.202 45.9075C293.97 46.1784 293.805 46.5516 293.708 47.0271C293.616 47.4771 293.622 47.8808 293.726 48.2382C293.829 48.5956 293.995 48.8861 294.224 49.1098C294.454 49.3249 294.718 49.4629 295.015 49.5237ZM301.233 51.5785C300.74 51.4778 300.375 51.2306 300.137 50.8369C299.909 50.4365 299.862 49.9093 299.996 49.2556L301.502 41.894L302.445 42.0868L300.975 49.27C300.883 49.7201 300.898 50.0771 301.021 50.3411C301.153 50.6068 301.363 50.7692 301.651 50.8282C301.77 50.8525 301.897 50.8608 302.031 50.8528C302.167 50.8364 302.32 50.8057 302.488 50.7605L302.63 51.4266C302.365 51.5138 302.115 51.5688 301.88 51.5915C301.652 51.6245 301.436 51.6202 301.233 51.5785ZM299.788 44.3697L299.942 43.6183L303.788 44.4051L303.634 45.1566L299.788 44.3697ZM307.955 52.7944L308.948 47.9419C309.066 47.3645 309.031 46.9063 308.844 46.5673C308.659 46.2197 308.358 46.0034 307.942 45.9183C307.636 45.8557 307.328 45.8901 307.018 46.0213C306.71 46.144 306.433 46.3748 306.187 46.7137C305.942 47.044 305.763 47.4894 305.648 48.0498L304.806 52.1636L303.864 51.9708L306.013 41.4634L306.956 41.6562L305.875 46.8755L305.544 46.8077C305.875 46.1412 306.288 45.6773 306.784 45.416C307.28 45.1548 307.786 45.0771 308.304 45.1831C308.737 45.2716 309.092 45.4415 309.368 45.6925C309.644 45.9436 309.829 46.269 309.925 46.6689C310.021 47.0602 310.015 47.5234 309.906 48.0583L308.897 52.9872L307.955 52.7944Z" fill="black"/>
</g>
</svg>
