<svg width="169" height="51" viewBox="0 0 169 51" fill="none" xmlns="http://www.w3.org/2000/svg">
<path d="M26.7984 5H25.5C14.1782 5 5 14.1782 5 25.5V25.5C5 36.8218 14.1782 46 25.5 46H121.044M66.5484 5H143.5C154.822 5 164 14.1782 164 25.5V26.125C164 37.1017 155.102 46 144.125 46V46M58.8548 5H46.6734M31.9274 5H35.7742H39.621" stroke="#B10B3A" stroke-width="2.5" stroke-linecap="round" stroke-linejoin="round"/>
<path d="M23.8952 1V1C11.2505 1 1 11.2505 1 23.8952V25.5C1 39.031 11.969 50 25.5 50H122.883M65.6452 1H143.5C157.031 1 168 11.969 168 25.5V29.125C168 40.6539 158.654 50 147.125 50V50M57.5645 1H44.7702M29.2823 1H33.3226H37.3629" stroke="#B10B3A" stroke-width="0.9" stroke-linecap="round" stroke-linejoin="round"/>
</svg>
