<svg width="374" height="287" viewBox="0 0 374 287" fill="none" xmlns="http://www.w3.org/2000/svg">
<path opacity="0.6" d="M475 267.5C475 140.198 377.174 37 256.5 37C183.619 37 119.073 74.6412 79.377 132.5" stroke="#333332"/>
<circle cx="116.5" cy="219.5" r="67.1" stroke="#333332" stroke-width="0.8"/>
<path d="M200 1L216 65" stroke="#333332" stroke-linecap="round"/>
<g opacity="0.6">
<path d="M42.3004 200.965C42.066 201.799 41.5596 202.368 40.7812 202.672C39.9944 202.973 39.0087 202.957 37.8239 202.624C37.0646 202.411 36.4413 202.114 35.9539 201.734C35.4688 201.346 35.1389 200.902 34.9641 200.403C34.7892 199.903 34.778 199.383 34.9304 198.84C35.0663 198.356 35.3229 197.956 35.7001 197.639C36.0689 197.319 36.5459 197.111 37.1312 197.015L37.2797 197.88C36.8847 197.94 36.5443 198.078 36.2583 198.295C35.9747 198.504 35.7895 198.762 35.7028 199.071C35.5411 199.647 35.6797 200.163 36.1186 200.619C36.5598 201.067 37.2269 201.417 38.1196 201.667C39.0708 201.935 39.8406 201.966 40.429 201.762C41.0114 201.548 41.3869 201.14 41.5557 200.54C41.6237 200.298 41.66 200.024 41.6646 199.72C41.6608 199.412 41.6171 199.072 41.5333 198.697L42.2775 198.595C42.3819 199.057 42.4368 199.486 42.4421 199.884C42.4391 200.279 42.3919 200.64 42.3004 200.965ZM43.9753 195.003C43.8042 195.612 43.5123 196.107 43.0997 196.486C42.6787 196.863 42.1566 197.103 41.5332 197.207C40.9039 197.3 40.1887 197.234 39.3877 197.009C38.6451 196.801 38.0355 196.503 37.5588 196.117C37.0738 195.729 36.7408 195.28 36.56 194.77C36.3708 194.258 36.3548 193.722 36.5118 193.163C36.6853 192.546 36.9708 192.09 37.3683 191.797C37.7681 191.495 38.2543 191.335 38.8269 191.315C39.391 191.294 40.0194 191.38 40.7119 191.575L41.0624 191.673L39.6946 196.542L38.9722 196.325L40.0477 192.401C39.7557 192.319 39.4638 192.269 39.1721 192.25C38.8826 192.222 38.6107 192.245 38.3563 192.317C38.0958 192.379 37.8737 192.497 37.69 192.67C37.5002 192.833 37.3608 193.073 37.2717 193.39C37.11 193.966 37.2504 194.491 37.693 194.967C38.1272 195.44 38.7949 195.803 39.696 196.056C40.6389 196.321 41.4168 196.324 42.03 196.064C42.6371 195.793 43.0333 195.328 43.2184 194.669C43.3028 194.369 43.3473 194.066 43.3519 193.761C43.3505 193.446 43.3151 193.107 43.2457 192.746L43.9863 192.657C44.0834 193.08 44.1293 193.494 44.124 193.897C44.1209 194.293 44.0714 194.661 43.9753 195.003ZM46.0451 187.107L41.2767 185.767C40.7177 185.61 40.2582 185.612 39.8982 185.772C39.5298 185.929 39.2882 186.212 39.1734 186.621C39.089 186.922 39.1011 187.231 39.2096 187.55C39.3182 187.868 39.5326 188.163 39.8528 188.433C40.173 188.703 40.6127 188.916 41.1717 189.073L45.1767 190.198L44.9165 191.124L37.7952 189.124L38.0413 188.248L39.9632 188.761L39.8823 189.049C39.233 188.668 38.7977 188.231 38.5765 187.736C38.3576 187.234 38.3208 186.724 38.4662 186.207C38.5834 185.789 38.7771 185.452 39.0474 185.195C39.3201 184.93 39.655 184.763 40.0523 184.694C40.4497 184.626 40.907 184.664 41.4243 184.81L46.3053 186.181L46.0451 187.107Z" fill="black"/>
<path d="M48.6879 183.305C48.4229 183.732 48.0645 183.989 47.6128 184.076C47.1583 184.151 46.6475 184.012 46.0805 183.661L39.6958 179.699L40.203 178.881L46.4331 182.747C46.8234 182.989 47.1636 183.099 47.4539 183.075C47.7486 183.043 47.9737 182.903 48.1291 182.652C48.1931 182.549 48.2446 182.433 48.2837 182.304C48.3154 182.171 48.3392 182.018 48.3552 181.844L49.0294 181.941C49.0193 182.22 48.9843 182.474 48.9244 182.702C48.8764 182.927 48.7976 183.128 48.6879 183.305ZM41.4249 182.164L40.7732 181.76L42.8432 178.424L43.4949 178.828L41.4249 182.164ZM50.9103 176.493L50.9857 176.372C51.3575 176.858 51.5539 177.347 51.5747 177.839C51.5956 178.331 51.485 178.773 51.2428 179.163C50.8681 179.767 50.3975 180.122 49.831 180.23C49.2572 180.333 48.6389 180.179 47.9761 179.767L43.6681 177.094L44.1753 176.277L48.406 178.902C48.892 179.204 49.3362 179.326 49.7384 179.27C50.1405 179.213 50.4582 178.997 50.6912 178.622C50.8649 178.342 50.9401 178.032 50.917 177.691C50.8984 177.343 50.7705 176.998 50.5333 176.657C50.2933 176.304 49.9376 175.982 49.4663 175.689L45.9095 173.482L46.4167 172.665L51.2991 175.694C51.601 175.882 51.8471 175.978 52.0373 175.984C52.2274 175.99 52.3934 175.879 52.535 175.65C52.5533 175.621 52.5716 175.591 52.5899 175.562C52.6127 175.525 52.6319 175.486 52.6474 175.445L53.2796 175.806C53.2487 175.889 53.214 175.97 53.1757 176.048C53.1419 176.119 53.1045 176.187 53.0634 176.254C52.8166 176.651 52.522 176.871 52.1794 176.914C51.8415 176.949 51.4184 176.809 50.9103 176.493ZM53.9431 174.565L47.6357 170.651L48.1087 169.889L49.8414 170.918L49.7112 171.128C49.2292 170.655 48.9244 170.16 48.7969 169.642C48.6739 169.117 48.7495 168.634 49.0237 168.192C49.0694 168.118 49.1202 168.053 49.176 167.996C49.2245 167.934 49.2804 167.877 49.3436 167.824L50.062 168.393C49.9054 168.53 49.779 168.676 49.6831 168.831C49.5094 169.11 49.4447 169.412 49.489 169.735C49.5258 170.054 49.6623 170.368 49.8985 170.678C50.1347 170.988 50.4516 171.266 50.8493 171.513L54.4503 173.747L53.9431 174.565ZM52.6794 162.572L57.9085 169.259C58.438 169.934 58.7914 170.556 58.9687 171.125C59.1533 171.699 59.088 172.24 58.7727 172.748C58.6631 172.925 58.5185 173.1 58.339 173.274C58.1595 173.449 57.9368 173.627 57.671 173.809L57.2238 173.149C57.431 173.012 57.6009 172.878 57.7337 172.746C57.8739 172.619 57.9851 172.489 58.0673 172.356C58.2272 172.098 58.2833 171.827 58.2356 171.543C58.1951 171.263 58.0683 170.949 57.8549 170.603C57.6535 170.253 57.3785 169.858 57.0298 169.418L49.4304 167.808L49.9651 166.946L56.674 168.462L56.5232 168.705L52.179 163.378L52.6794 162.572Z" fill="black"/>
<path d="M32.4744 231.516L33.6228 233.506L32.9008 233.795L31.6847 231.676L31.6684 230.922L40.4413 230.732L40.4602 231.603L32.1941 231.782L32.4744 231.516ZM40.492 233.072L39.8161 233.086L39.7379 229.473L40.4138 229.459L40.492 233.072ZM40.4467 225.572C40.46 226.187 40.2977 226.698 39.9597 227.104C39.6218 227.51 39.1474 227.819 38.5365 228.032C37.9256 228.245 37.2173 228.36 36.4115 228.377C35.7963 228.39 35.1972 228.347 34.6142 228.247C34.0224 228.138 33.4898 227.963 33.0165 227.722C32.5432 227.481 32.1637 227.169 31.8779 226.785C31.5921 226.392 31.4431 225.919 31.4311 225.364C31.4221 224.948 31.4961 224.561 31.653 224.202C31.81 223.843 32.0461 223.539 32.3615 223.289L32.842 223.864C32.6122 224.06 32.4438 224.289 32.3367 224.551C32.2209 224.805 32.1659 225.071 32.1719 225.348C32.1815 225.79 32.3151 226.155 32.5728 226.445C32.8304 226.734 33.1646 226.956 33.5754 227.112C33.9862 227.268 34.4393 227.375 34.9347 227.434C35.4212 227.484 35.907 227.499 36.392 227.48L36.3968 227.701C35.8114 227.488 35.3798 227.173 35.102 226.754C34.8242 226.335 34.6806 225.905 34.671 225.463C34.6618 225.038 34.7702 224.637 34.9961 224.26C35.2133 223.882 35.5273 223.572 35.9381 223.329C36.3401 223.078 36.8271 222.946 37.3989 222.933C37.9188 222.922 38.4107 223.02 38.8746 223.227C39.3297 223.425 39.7045 223.72 39.999 224.112C40.2849 224.505 40.4342 224.992 40.4467 225.572ZM39.7048 225.536C39.6986 225.25 39.6146 224.975 39.4528 224.709C39.2824 224.444 39.035 224.229 38.7107 224.062C38.3863 223.896 37.9815 223.818 37.4963 223.828C37.0458 223.838 36.6619 223.925 36.3446 224.087C36.0274 224.25 35.7894 224.468 35.6306 224.74C35.4716 225.004 35.3955 225.291 35.4022 225.603C35.4086 225.898 35.4928 226.182 35.6547 226.456C35.808 226.73 36.0426 226.955 36.3585 227.13C36.6741 227.296 37.0746 227.374 37.5598 227.364C38.019 227.354 38.4114 227.259 38.7369 227.078C39.0624 226.898 39.3089 226.672 39.4764 226.399C39.6352 226.127 39.7113 225.839 39.7048 225.536ZM40.3309 219.018C40.3418 219.52 40.1816 219.931 39.8505 220.25C39.5104 220.561 39.0068 220.724 38.3397 220.738L30.8274 220.901L30.8066 219.939L38.1369 219.78C38.5961 219.77 38.9408 219.676 39.171 219.498C39.401 219.311 39.5129 219.07 39.5065 218.776C39.5039 218.654 39.4838 218.529 39.4463 218.4C39.4002 218.271 39.3365 218.129 39.2551 217.975L39.8731 217.688C40.0169 217.928 40.126 218.16 40.2002 218.383C40.2828 218.598 40.3264 218.81 40.3309 219.018ZM33.6214 222.024L32.8545 222.04L32.7696 218.115L33.5364 218.099L33.6214 222.024ZM40.0272 212.193L35.0754 212.3C34.4862 212.313 34.047 212.448 33.7579 212.706C33.46 212.964 33.3157 213.305 33.3249 213.73C33.3316 214.041 33.4333 214.334 33.6299 214.607C33.8179 214.88 34.1044 215.1 34.4894 215.265C34.8657 215.43 35.3398 215.506 35.9117 215.494L40.1097 215.403L40.1305 216.365L29.408 216.597L29.3872 215.635L34.7162 215.533L34.7235 215.871C34.0002 215.696 33.4563 215.395 33.0917 214.97C32.727 214.544 32.539 214.067 32.5276 213.539C32.518 213.097 32.6051 212.714 32.7888 212.389C32.9725 212.064 33.2487 211.811 33.6175 211.63C33.9777 211.449 34.4307 211.352 34.9766 211.34L40.0064 211.231L40.0272 212.193Z" fill="black"/>
</g>
</svg>
