<svg width="144" height="264" viewBox="0 0 144 264" fill="none" xmlns="http://www.w3.org/2000/svg">
<line x1="5.37188" y1="4.17188" x2="5.37186" y2="259.829" stroke="#333332" stroke-width="0.4"/>
<line x1="35.7145" y1="-6.55671e-09" x2="35.7145" y2="264" stroke="#333332" stroke-width="0.3" stroke-dasharray="6 6"/>
<circle cx="83.2399" cy="115.612" r="58.8477" stroke="#333332" stroke-width="0.3"/>
<circle cx="90.9861" cy="157.327" r="41.5656" stroke="#333332" stroke-width="0.3" stroke-dasharray="2 2"/>
<circle cx="68.9373" cy="128.127" r="41.6156" stroke="#333332" stroke-width="0.2" stroke-dasharray="7 7"/>
<line x1="24.414" y1="20.7556" x2="143.601" y2="220.99" stroke="#333332" stroke-width="0.4"/>
<line x1="0.938218" y1="226.377" x2="117.742" y2="134.603" stroke="#333332" stroke-width="0.2" stroke-dasharray="5 5"/>
<path d="M127.293 77.9215L128.839 77.1481C129.096 74.8279 130.229 68.3313 132.702 60.9063C106.431 47.7582 81.2907 50.201 67.0227 52.3986C56.9785 53.9456 3.56844 64.0003 5.20887 130.515C6.75393 193.163 57.752 207.085 88.6581 204.764C106.534 203.422 122.914 197.03 128.838 193.163L131.156 180.788L129.611 180.015C119.567 186.202 108.749 197.804 88.6581 197.804C27.6162 197.804 26.0705 141.343 26.0705 130.515C26.0705 119.687 23.7527 77.1486 63.1601 62.4534C94.686 50.6972 119.309 67.8669 127.293 77.9215Z" fill="#B10B3A"/>
</svg>
