<svg width="184" height="223" viewBox="0 0 184 223" fill="none" xmlns="http://www.w3.org/2000/svg">
<path d="M175.586 40.0503L177.808 38.9382C178.178 35.6022 179.807 26.2614 183.363 15.5859C145.59 -3.31852 109.443 0.193776 88.9289 3.35345C74.4875 5.57775 -2.30541 20.0344 0.0531897 115.669C2.27467 205.744 75.5996 225.761 120.036 222.425C145.739 220.495 169.289 211.304 177.807 205.744L181.14 187.952L178.918 186.84C164.477 195.736 148.923 212.417 120.036 212.417C32.2704 212.417 30.048 131.238 30.048 115.669C30.048 100.101 26.7155 38.9389 83.3753 17.8102C128.703 0.907223 164.106 25.5938 175.586 40.0503Z" fill="#B10B3A"/>
</svg>
