<svg width="359" height="160" viewBox="0 0 359 160" fill="none" xmlns="http://www.w3.org/2000/svg">
<path d="M358.8 80C358.8 90.9808 353.808 101.457 344.749 111.002C335.689 120.548 322.57 129.154 306.344 136.386C273.892 150.849 229.046 159.8 179.5 159.8C129.954 159.8 85.1077 150.849 52.6558 136.386C36.4295 129.154 23.3107 120.548 14.2511 111.002C5.19247 101.457 0.2 90.9808 0.2 80C0.2 69.0192 5.19247 58.5432 14.2511 48.9981C23.3107 39.4519 36.4295 30.8459 52.6558 23.6141C85.1077 9.15085 129.954 0.2 179.5 0.2C229.046 0.2 273.892 9.15085 306.344 23.6141C322.57 30.8459 335.689 39.4519 344.749 48.9981C353.808 58.5432 358.8 69.0192 358.8 80Z" stroke="#333332" stroke-width="0.4"/>
<path d="M280.659 70.4493C281.246 72.0848 281.645 73.7485 281.847 75.4358L281.649 75.4596C281.749 76.3007 281.8 77.1477 281.8 78C281.8 78.8523 281.749 79.6993 281.649 80.5404L281.847 80.5642C281.645 82.2515 281.246 83.9152 280.659 85.5507L280.47 85.4831C279.911 87.0415 279.179 88.5753 278.283 90.0803L278.455 90.1825C277.608 91.6071 276.615 93.005 275.485 94.3729L275.33 94.2455C274.282 95.5138 273.115 96.7569 271.833 97.9718L271.971 98.1169C270.77 99.2554 269.471 100.369 268.078 101.455L267.955 101.297C266.646 102.317 265.254 103.313 263.782 104.284L263.892 104.451C262.503 105.367 261.044 106.259 259.519 107.127L259.42 106.953C257.967 107.78 256.452 108.584 254.88 109.365L254.969 109.544C253.471 110.288 251.921 111.01 250.322 111.709L250.241 111.526C248.706 112.197 247.124 112.847 245.499 113.475L245.571 113.662C243.999 114.269 242.387 114.856 240.737 115.421L240.672 115.232C239.077 115.778 237.446 116.303 235.781 116.808L235.839 117C234.226 117.489 232.581 117.958 230.905 118.407L230.853 118.214C229.223 118.651 227.565 119.068 225.879 119.465L225.925 119.66C224.278 120.048 222.605 120.417 220.908 120.766L220.868 120.57C219.21 120.911 217.529 121.233 215.826 121.535L215.861 121.732C214.192 122.029 212.501 122.306 210.79 122.565L210.761 122.367C209.084 122.62 207.388 122.855 205.675 123.07L205.7 123.269C204.015 123.481 202.312 123.674 200.594 123.848L200.574 123.649C198.884 123.821 197.179 123.974 195.46 124.108L195.476 124.307C193.78 124.439 192.071 124.553 190.348 124.648L190.337 124.449C188.64 124.542 186.93 124.617 185.208 124.674L185.215 124.874C183.513 124.93 181.8 124.967 180.077 124.986L180.075 124.786C179.219 124.795 178.361 124.8 177.5 124.8C176.639 124.8 175.781 124.795 174.925 124.786L174.923 124.986C173.2 124.967 171.487 124.93 169.785 124.874L169.792 124.674C168.07 124.617 166.36 124.542 164.663 124.449L164.652 124.648C162.929 124.553 161.22 124.439 159.524 124.307L159.54 124.108C157.821 123.974 156.116 123.821 154.426 123.649L154.406 123.848C152.688 123.674 150.985 123.481 149.3 123.269L149.325 123.07C147.612 122.855 145.916 122.62 144.239 122.367L144.21 122.565C142.499 122.306 140.808 122.029 139.139 121.732L139.174 121.535C137.471 121.233 135.79 120.911 134.132 120.57L134.092 120.766C132.395 120.417 130.722 120.048 129.075 119.66L129.121 119.465C127.435 119.068 125.777 118.651 124.147 118.214L124.095 118.407C122.419 117.958 120.774 117.489 119.161 117L119.219 116.808C117.554 116.303 115.923 115.778 114.328 115.232L114.263 115.421C112.613 114.856 111.001 114.269 109.429 113.662L109.501 113.475C107.876 112.847 106.294 112.197 104.759 111.526L104.678 111.709C103.079 111.01 101.529 110.288 100.031 109.544L100.12 109.365C98.5476 108.584 97.0335 107.78 95.5802 106.953L95.4813 107.127C93.9557 106.259 92.4966 105.367 91.1077 104.451L91.2178 104.284C89.7461 103.314 88.3538 102.317 87.0449 101.297L86.922 101.455C85.5289 100.369 84.2296 99.2554 83.029 98.1169L83.1666 97.9718C81.8854 96.7569 80.7178 95.5138 79.6697 94.2455L79.5155 94.3729C78.3852 93.0051 77.3924 91.6071 76.5447 90.1826L76.7165 90.0803C75.821 88.5753 75.0892 87.0416 74.5296 85.4831L74.3414 85.5507C73.7542 83.9152 73.3546 82.2515 73.1529 80.5642L73.3515 80.5404C73.2509 79.6993 73.2 78.8523 73.2 78C73.2 77.1477 73.2509 76.3007 73.3515 75.4596L73.1529 75.4358C73.3546 73.7485 73.7542 72.0848 74.3414 70.4493L74.5296 70.5169C75.0892 68.9585 75.821 67.4247 76.7165 65.9197L76.5447 65.8175C77.3924 64.3929 78.3852 62.995 79.5155 61.6271L79.6697 61.7545C80.7178 60.4862 81.8854 59.2431 83.1666 58.0282L83.029 57.8831C84.2296 56.7446 85.5289 55.6313 86.922 54.5454L87.0449 54.7031C88.3538 53.6828 89.7461 52.6865 91.2178 51.716L91.1077 51.5491C92.4966 50.6332 93.9556 49.7406 95.4813 48.8727L95.5802 49.0466C97.0335 48.2199 98.5476 47.4156 100.12 46.6352L100.031 46.456C101.529 45.7123 103.079 44.9903 104.678 44.2911L104.759 44.4743C106.294 43.8031 107.876 43.1529 109.501 42.5247L109.429 42.3382C111.001 41.7309 112.613 41.1442 114.263 40.5791L114.328 40.7683C115.923 40.2224 117.554 39.6965 119.219 39.1917L119.161 39.0003C120.774 38.5111 122.419 38.0417 124.095 37.5927L124.147 37.7859C125.777 37.3492 127.435 36.9319 129.121 36.5347L129.075 36.3401C130.722 35.952 132.395 35.5832 134.092 35.2341L134.132 35.43C135.79 35.0891 137.471 34.7672 139.174 34.4648L139.139 34.2679C140.808 33.9713 142.499 33.6936 144.21 33.4352L144.239 33.633C145.916 33.3798 147.612 33.1451 149.325 32.9297L149.3 32.7312C150.985 32.5193 152.688 32.3259 154.406 32.1516L154.426 32.3506C156.116 32.1792 157.821 32.0262 159.54 31.8921L159.524 31.6927C161.22 31.5605 162.929 31.4467 164.652 31.3517L164.663 31.5514C166.36 31.4578 168.07 31.3825 169.792 31.326L169.785 31.1261C171.487 31.0703 173.2 31.0328 174.923 31.014L174.925 31.214C175.781 31.2047 176.639 31.2 177.5 31.2C178.361 31.2 179.219 31.2047 180.075 31.214L180.077 31.014C181.8 31.0328 183.513 31.0703 185.215 31.1261L185.208 31.326C186.93 31.3825 188.64 31.4578 190.337 31.5514L190.348 31.3517C192.071 31.4467 193.78 31.5605 195.476 31.6927L195.46 31.8921C197.179 32.0262 198.884 32.1792 200.574 32.3506L200.594 32.1516C202.312 32.3259 204.015 32.5193 205.7 32.7312L205.675 32.9297C207.388 33.1451 209.084 33.3798 210.761 33.633L210.79 33.4352C212.501 33.6936 214.192 33.9713 215.861 34.2679L215.826 34.4648C217.529 34.7672 219.21 35.0891 220.868 35.43L220.908 35.2341C222.605 35.5832 224.278 35.952 225.925 36.3401L225.879 36.5347C227.565 36.9319 229.223 37.3492 230.853 37.7859L230.905 37.5927C232.581 38.0417 234.226 38.5111 235.839 39.0003L235.781 39.1917C237.447 39.6965 239.077 40.2224 240.672 40.7683L240.737 40.5791C242.387 41.1442 243.999 41.7309 245.571 42.3382L245.499 42.5248C247.124 43.1529 248.706 43.8031 250.241 44.4743L250.322 44.2911C251.921 44.9903 253.471 45.7123 254.969 46.456L254.88 46.6352C256.452 47.4156 257.967 48.2199 259.42 49.0466L259.519 48.8727C261.044 49.7406 262.503 50.6332 263.892 51.5491L263.782 51.716C265.254 52.6865 266.646 53.6828 267.955 54.7031L268.078 54.5454C269.471 55.6313 270.77 56.7446 271.971 57.8831L271.833 58.0282C273.115 59.2431 274.282 60.4862 275.33 61.7545L275.484 61.6271C276.615 62.9949 277.608 64.3929 278.455 65.8174L278.283 65.9197C279.179 67.4247 279.911 68.9584 280.47 70.5169L280.659 70.4493Z" stroke="#333332" stroke-width="0.4" stroke-dasharray="5 5"/>
</svg>
