<svg width="36" height="40" viewBox="0 0 36 40" fill="none" xmlns="http://www.w3.org/2000/svg">
<circle cx="18" cy="22" r="17.5" stroke="#333332"/>
<path d="M18.288 20.848C19.056 19.824 19.8027 18.832 20.528 17.872C21.2747 16.8907 22 15.888 22.704 14.864C22.896 14.9067 23.0773 14.9493 23.248 14.992C23.44 15.0133 23.632 15.024 23.824 15.024C24.08 15.024 24.4427 14.9707 24.912 14.864C23.888 16.0373 22.8853 17.2 21.904 18.352C20.944 19.4827 19.984 20.624 19.024 21.776C19.984 23.184 20.976 24.5813 22 25.968C23.0453 27.3333 24.112 28.6987 25.2 30.064C24.9013 30.0213 24.6133 30 24.336 30C24.0587 30 23.8027 30 23.568 30C23.3333 30 23.0773 30 22.8 30C22.5227 30 22.2347 30.0213 21.936 30.064C21.232 29.0187 20.5067 27.9627 19.76 26.896C19.0133 25.808 18.256 24.72 17.488 23.632C16.6987 24.72 15.92 25.808 15.152 26.896C14.4053 27.9627 13.6693 29.0187 12.944 30.064C12.6027 30.0213 12.2507 30 11.888 30C11.504 30 11.1413 30.0213 10.8 30.064C11.824 28.8693 12.8267 27.664 13.808 26.448C14.7893 25.2107 15.76 23.952 16.72 22.672C15.76 21.3707 14.7893 20.08 13.808 18.8C12.848 17.52 11.856 16.208 10.832 14.864C11.1307 14.9067 11.408 14.9493 11.664 14.992C11.9413 15.0133 12.2293 15.024 12.528 15.024C12.8267 15.024 13.104 15.0133 13.36 14.992C13.6373 14.9493 13.9253 14.9067 14.224 14.864C14.8427 15.888 15.4827 16.8907 16.144 17.872C16.8267 18.832 17.5413 19.824 18.288 20.848Z" fill="#333332"/>
</svg>
