<svg width="171" height="50" viewBox="0 0 171 50" fill="none" xmlns="http://www.w3.org/2000/svg">
<path d="M27.3272 3.19092H26.7461C14.8472 3.19092 5.20117 12.8369 5.20117 24.7359V24.7359C5.20117 36.6348 14.8472 46.2808 26.7461 46.2808H122.99M67.6747 3.19092H145.046C156.945 3.19092 166.591 12.8369 166.591 24.7359V26.1071C166.591 37.2487 157.559 46.2808 146.417 46.2808V46.2808M59.8655 3.19092H47.501M32.5333 3.19092H36.4379H40.3425" stroke="#B10B3A" stroke-width="1.8" stroke-linecap="round" stroke-linejoin="round"/>
<path d="M24.1694 1V1C11.3733 1 1 11.3733 1 24.1694V25C1 38.2548 11.7452 49 25 49H124.343M66.4194 1H146C159.255 1 170 11.7452 170 25V27.875C170 39.542 160.542 49 148.875 49V49M58.2419 1H45.2944M29.621 1H33.7097H37.7984" stroke="#B10B3A" stroke-linecap="round" stroke-linejoin="round"/>
</svg>
