<svg width="1371" height="551" viewBox="0 0 1371 551" fill="none" xmlns="http://www.w3.org/2000/svg">
<path d="M63.7537 23.7053C68.1465 22.1583 72.4043 20.5465 76.5272 18.8701C80.74 17.2368 85.0077 15.5468 89.3302 13.8001C89.5018 14.7122 89.6617 15.5911 89.8098 16.4367C90.0246 17.2588 90.2726 18.0692 90.5539 18.8679C90.8351 19.6666 91.1497 20.4536 91.4975 21.2288C91.9119 21.9807 92.3381 22.7658 92.7759 23.5841C88.3127 24.9315 83.9162 26.2555 79.5861 27.556C75.3461 28.8996 71.0296 30.3449 66.6368 31.892L49.4648 37.9396C45.072 39.4866 40.7692 41.0768 36.5563 42.7101C32.3669 44.4099 28.2441 46.0863 24.1878 47.7393C23.7818 46.1616 23.2741 44.5075 22.6646 42.777C22.0552 41.0465 21.4143 39.4392 20.7421 37.9553C24.939 36.7016 29.1908 35.3913 33.4974 34.0243C37.8274 32.7237 42.1889 31.3 46.5817 29.7529L63.7537 23.7053Z" fill="#333332"/>
<path d="M51.8654 51.9922C56.057 50.1299 59.9835 49.2349 63.6447 49.307C67.3059 49.3792 70.6051 50.114 73.5425 51.5115C76.573 52.9449 79.1986 54.9442 81.4194 57.5095C83.7046 60.0462 85.5348 62.8622 86.91 65.9576C88.4858 69.5044 89.4383 72.8648 89.7674 76.0388C90.1897 79.2487 90.1249 81.7098 89.573 83.4221C88.4051 83.4005 87.1871 83.4397 85.9189 83.5398C84.7439 83.6758 83.5187 83.8727 82.2433 84.1304L81.8995 83.3566C82.5373 82.5327 83.1034 81.5476 83.5979 80.4013C84.1569 79.2264 84.5476 77.9332 84.7699 76.5218C85.0853 75.1462 85.1823 73.7132 85.0607 72.2229C85.0036 70.704 84.6312 69.1707 83.9436 67.623C82.6543 64.7211 80.9888 62.4496 78.9471 60.8086C76.9985 59.2034 74.7883 58.1391 72.3165 57.6158C69.8734 57.1569 67.2188 57.178 64.3528 57.6792C61.58 58.2161 58.7104 59.1436 55.744 60.4615C49.1018 63.4125 44.7021 67.0659 42.5449 71.4218C40.4522 75.7491 40.6235 80.6534 43.0588 86.1348C43.6318 87.4245 44.3803 88.6749 45.3044 89.8859C46.293 91.0682 47.364 92.1753 48.5174 93.2072C49.7352 94.2104 51.0069 95.074 52.3323 95.7978C53.6863 96.5861 55.0332 97.1846 56.373 97.5931L56.2977 98.2057C54.6067 98.5709 52.9408 99.0794 51.3 99.7311C48.8928 98.4841 46.4964 96.6532 44.1109 94.2383C41.754 91.888 39.8879 89.1651 38.5127 86.0697C37.2807 83.2968 36.4214 80.3197 35.9346 77.1384C35.541 73.993 35.7778 70.8764 36.6452 67.7885C37.577 64.6719 39.2433 61.731 41.6438 58.9657C44.0731 56.2649 47.4803 53.9404 51.8654 51.9922Z" fill="#333332"/>
<path d="M77.2468 106.625C74.7033 108.146 72.3774 109.825 70.2691 111.662C68.1971 113.559 66.5484 115.614 65.323 117.827C64.1582 120.003 63.5741 122.326 63.5706 124.795C63.5672 127.264 64.3623 129.83 65.956 132.495C67.5498 135.16 69.435 137.074 71.6117 138.239C73.7884 139.404 76.1111 139.988 78.5799 139.992C81.1092 139.959 83.6815 139.448 86.2969 138.459C88.9485 137.531 91.546 136.306 94.0895 134.785C96.633 133.264 98.9408 131.555 101.013 129.658C103.121 127.821 104.758 125.814 105.923 123.638C107.148 121.425 107.762 119.084 107.766 116.615C107.769 114.146 106.974 111.58 105.38 108.915C103.787 106.251 101.901 104.336 99.7247 103.171C97.548 102.006 95.195 101.44 92.6657 101.473C90.1969 101.47 87.6367 101.932 84.9851 102.86C82.3698 103.849 79.7903 105.104 77.2468 106.625ZM72.4657 98.6311C76.5837 96.1681 80.4462 94.7213 84.0531 94.2906C87.7569 93.8843 91.1207 94.2158 94.1447 95.285C97.2292 96.3179 99.9438 97.901 102.289 100.034C104.73 102.192 106.73 104.573 108.287 107.177C109.881 109.841 111.033 112.729 111.742 115.84C112.512 118.915 112.623 122.056 112.074 125.262C111.586 128.432 110.268 131.522 108.122 134.532C106.073 137.567 102.989 140.316 98.8707 142.779C94.7527 145.242 90.8418 146.677 87.138 147.083C83.5311 147.514 80.1854 147.213 77.1009 146.18C74.0769 145.11 71.4228 143.491 69.1386 141.322C66.8544 139.152 64.9154 136.735 63.3217 134.071C61.7642 131.467 60.5519 128.615 59.6849 125.516C58.8541 122.477 58.683 119.373 59.1715 116.203C59.7206 112.996 61.0198 109.876 63.0692 106.841C65.2155 103.831 68.3476 101.094 72.4657 98.6311Z" fill="#333332"/>
<path d="M129.433 173.246C133.5 169.86 135.909 166.522 136.66 163.234C137.466 159.9 136.717 156.851 134.414 154.085C131.254 150.289 127.762 148.467 123.94 148.619C120.164 148.826 116.161 150.69 111.931 154.212L105.017 159.969C102.577 162.001 100.024 164.173 97.3573 166.485C94.7905 168.806 92.5354 171.005 90.5921 173.082C89.662 171.745 88.7003 170.479 87.7069 169.286C86.7136 168.093 85.6434 166.918 84.4964 165.761C86.8912 164.226 89.4398 162.38 92.1421 160.221C94.9437 158.072 97.5647 155.982 100.005 153.95L108.464 146.906C110.905 144.874 113.408 142.697 115.975 140.376C118.641 138.065 121.027 135.802 123.133 133.589C124.126 135.334 125.007 136.667 125.774 137.588C126.136 138.022 126.546 138.461 127.007 138.903C127.567 139.355 128.195 139.889 128.89 140.503C126.586 142.147 124.349 143.872 122.18 145.678L122.315 145.84C125.911 145.417 129.213 145.744 132.222 146.82C135.284 147.851 138.034 149.831 140.473 152.759C141.737 154.278 142.784 155.977 143.615 157.856C144.491 159.79 144.905 161.832 144.859 163.982C144.868 166.087 144.266 168.287 143.054 170.582C141.942 172.885 139.976 175.211 137.156 177.559C134.825 179.5 132.366 181.456 129.782 183.424C127.251 185.348 124.603 187.461 121.837 189.764L116.55 194.166C115.683 194.889 114.815 195.611 113.947 196.333C113.179 197.065 112.438 197.774 111.724 198.46C110.929 197.285 110.035 196.102 109.042 194.909C108.094 193.77 107.114 192.703 106.102 191.709C109.012 189.469 112.004 187.162 115.077 184.787C118.195 182.466 121.326 179.997 124.471 177.378L129.433 173.246Z" fill="#333332"/>
<path d="M170.407 159.206C171.389 158.095 172.626 157.493 174.12 157.401C175.614 157.309 176.917 157.753 178.027 158.734C179.138 159.715 179.739 160.953 179.832 162.447C179.924 163.941 179.48 165.243 178.499 166.354C177.517 167.464 176.28 168.066 174.786 168.158C173.292 168.251 171.989 167.806 170.879 166.825C169.768 165.844 169.167 164.606 169.074 163.112C168.982 161.618 169.426 160.316 170.407 159.206ZM146.219 188.823C148.321 186.443 150.464 183.911 152.648 181.226C154.931 178.535 156.945 175.936 158.689 173.428C159.936 175.001 161.009 176.184 161.909 176.979C162.808 177.773 164.114 178.692 165.828 179.736C163.555 181.776 161.197 184.072 158.756 186.622C156.413 189.167 154.191 191.629 152.089 194.009L144.8 202.258C142.698 204.638 140.505 207.173 138.222 209.864C136.038 212.549 134.144 215.066 132.54 217.415C131.417 216.234 130.274 215.13 129.111 214.102C127.947 213.075 126.711 212.076 125.401 211.107C127.534 209.226 129.772 207.013 132.114 204.468C134.556 201.917 136.828 199.452 138.93 197.072L146.219 188.823Z" fill="#333332"/>
<path d="M158.024 207.212C160.593 203.412 163.45 200.574 166.593 198.696C169.737 196.818 172.925 195.695 176.157 195.325C179.487 194.936 182.773 195.241 186.015 196.241C189.297 197.183 192.341 198.602 195.146 200.5C198.361 202.674 200.949 205.02 202.909 207.538C204.967 210.037 206.215 212.159 206.654 213.904C205.652 214.504 204.639 215.182 203.617 215.939C202.692 216.676 201.757 217.492 200.812 218.386L200.11 217.912C200.215 216.875 200.173 215.74 199.986 214.506C199.838 213.213 199.484 211.909 198.925 210.594C198.465 209.26 197.788 207.993 196.896 206.794C196.043 205.535 194.915 204.432 193.512 203.483C190.882 201.704 188.266 200.66 185.665 200.349C183.162 200.019 180.723 200.287 178.35 201.152C176.034 202.056 173.794 203.48 171.628 205.423C169.56 207.347 167.617 209.653 165.799 212.342C161.727 218.363 159.93 223.792 160.407 228.629C160.923 233.408 163.666 237.478 168.634 240.838C169.803 241.628 171.1 242.292 172.526 242.83C173.99 243.31 175.485 243.682 177.01 243.946C178.574 244.152 180.11 244.211 181.618 244.123C183.184 244.075 184.643 243.869 185.996 243.506L186.257 244.066C185.016 245.271 183.872 246.585 182.825 248.007C180.123 248.224 177.12 247.939 173.818 247.154C170.574 246.409 167.549 245.087 164.743 243.19C162.23 241.49 159.924 239.42 157.827 236.979C155.827 234.519 154.378 231.75 153.478 228.671C152.618 225.534 152.474 222.157 153.046 218.54C153.676 214.963 155.336 211.187 158.024 207.212Z" fill="#333332"/>
<path d="M231.145 278.331C231.296 275.591 231.437 272.09 231.569 267.829C231.701 263.569 231.791 259.027 231.838 254.204C231.976 249.341 232.041 244.373 232.032 239.302C232.115 234.19 232.096 229.342 231.975 224.756C232.714 225.193 233.42 225.617 234.094 226.028C234.858 226.399 235.635 226.737 236.425 227.042C237.149 227.322 237.886 227.568 238.636 227.782C239.411 227.93 240.251 228.103 241.158 228.302C240.48 235.151 239.954 242.096 239.581 249.138C239.298 256.139 239.169 263.427 239.195 271.001C240.696 269.463 242.591 267.395 244.88 264.799C247.168 262.203 249.578 259.39 252.11 256.358C254.642 253.327 257.2 250.23 259.782 247.067C262.365 243.904 264.715 240.953 266.831 238.215C267.889 239.002 268.813 239.547 269.603 239.852C270.129 240.056 270.603 240.201 271.023 240.287C271.469 240.308 271.981 240.355 272.558 240.426C271.764 247.381 271.258 254.372 271.041 261.399C270.85 268.359 270.668 275.589 270.496 283.087C272.165 281.311 274.144 279.125 276.432 276.529C278.812 273.892 281.275 271.137 283.822 268.262C286.395 265.322 288.992 262.316 291.616 259.245C294.305 256.198 296.806 253.344 299.12 250.682C300.309 251.52 301.299 252.091 302.089 252.396C302.945 252.726 303.996 252.943 305.242 253.046C298.414 259.562 291.855 266.069 285.564 272.566C279.34 279.088 273.312 285.687 267.482 292.362C266.809 291.95 265.979 291.554 264.991 291.173C264.53 290.995 264.07 290.817 263.609 290.639C263.148 290.461 262.728 290.375 262.348 290.379C262.898 283.86 263.297 277.243 263.544 270.531C263.791 263.818 263.856 256.695 263.739 249.162C262.187 250.832 260.279 252.932 258.016 255.462C255.779 257.926 253.419 260.608 250.938 263.508C248.457 266.408 245.95 269.373 243.418 272.405C240.912 275.37 238.664 278.057 236.675 280.466C235.936 280.03 235.039 279.608 233.986 279.201C232.933 278.795 231.986 278.505 231.145 278.331Z" fill="#333332"/>
<path d="M308.816 279.348C308.065 282.214 307.579 285.041 307.359 287.829C307.207 290.634 307.468 293.256 308.142 295.694C308.833 298.064 310.042 300.131 311.768 301.897C313.493 303.662 315.858 304.939 318.861 305.726C321.865 306.514 324.551 306.562 326.921 305.87C329.291 305.178 331.359 303.969 333.124 302.244C334.908 300.45 336.387 298.285 337.563 295.748C338.807 293.229 339.805 290.536 340.556 287.669C341.308 284.802 341.76 281.966 341.912 279.161C342.132 276.374 341.896 273.795 341.204 271.425C340.53 268.987 339.33 266.885 337.605 265.12C335.879 263.354 333.515 262.078 330.511 261.29C327.508 260.503 324.821 260.455 322.452 261.147C320.082 261.839 318.005 263.081 316.222 264.875C314.456 266.601 312.951 268.723 311.707 271.242C310.532 273.779 309.568 276.481 308.816 279.348ZM299.806 276.985C301.023 272.344 302.769 268.607 305.043 265.775C307.404 262.892 310.038 260.774 312.946 259.421C315.872 257.999 318.919 257.23 322.087 257.112C325.341 256.944 328.435 257.244 331.37 258.014C334.374 258.801 337.218 260.058 339.902 261.783C342.605 263.44 344.882 265.605 346.734 268.279C348.604 270.885 349.826 274.014 350.401 277.666C351.061 281.268 350.783 285.39 349.566 290.031C348.349 294.673 346.561 298.435 344.2 301.318C341.925 304.15 339.325 306.277 336.399 307.698C333.491 309.051 330.462 309.753 327.313 309.802C324.163 309.852 321.086 309.483 318.083 308.696C315.148 307.926 312.286 306.738 309.497 305.132C306.777 303.543 304.482 301.446 302.612 298.84C300.759 296.166 299.503 293.028 298.842 289.426C298.268 285.774 298.589 281.627 299.806 276.985Z" fill="#333332"/>
<path d="M388.286 280.69C388.023 280.206 387.406 279.688 386.437 279.136C385.537 278.597 384.567 278.225 383.529 278.019C381.868 277.689 380.304 277.774 378.838 278.274C377.372 278.775 376.058 279.593 374.897 280.729C373.75 281.796 372.756 283.182 371.914 284.885C371.086 286.519 370.472 288.34 370.074 290.347L367.806 301.767C366.885 306.405 366.177 309.969 365.682 312.461C365.27 314.897 365.017 316.897 364.922 318.461C363.566 318.048 362.195 317.703 360.811 317.429C359.288 317.126 357.821 316.907 356.409 316.77C357.084 314.458 357.82 311.295 358.617 307.281C359.497 303.211 360.522 298.234 361.69 292.351L362.35 289.029C362.886 286.33 363.47 283.208 364.102 279.665C364.803 276.135 365.503 272.065 366.202 267.456C366.936 267.745 367.635 268.028 368.3 268.304C368.978 268.511 369.698 268.69 370.46 268.841C371.083 268.964 371.747 269.06 372.453 269.129C373.172 269.128 373.927 269.134 374.716 269.146C373.944 271.583 373.379 273.521 373.021 274.961C372.733 276.414 372.458 277.799 372.197 279.114L372.384 279.259C377.952 272.595 383.262 269.764 388.315 270.768C388.937 270.891 389.45 271.029 389.851 271.181C390.322 271.346 390.876 271.636 391.513 272.05C391.002 272.812 390.54 274.052 390.127 275.768C389.728 277.415 389.391 278.931 389.116 280.316L388.286 280.69Z" fill="#333332"/>
<path d="M402.007 275.351C402.36 272.978 402.71 270.391 403.055 267.588C403.47 264.796 403.845 262.034 404.18 259.302C404.515 256.569 404.795 253.971 405.019 251.508C405.322 248.984 405.534 246.84 405.654 245.074C407.557 245.714 409.101 246.122 410.288 246.299C411.474 246.475 413.071 246.534 415.077 246.476C414.678 248.2 414.222 250.308 413.708 252.8C413.275 255.232 412.821 257.805 412.347 260.516C411.872 263.228 411.392 265.975 410.907 268.756C410.492 271.548 410.108 274.131 409.755 276.504L406.921 295.558C406.724 296.884 407.044 297.61 407.882 297.734C408.44 297.817 409.07 297.661 409.77 297.266C410.541 296.881 411.392 296.437 412.323 295.934C413.024 295.538 414.211 294.752 415.884 293.574C417.627 292.406 419.541 291.05 421.626 289.505C423.791 287.901 426.006 286.197 428.272 284.394C430.537 282.591 432.613 280.866 434.499 279.221C435.843 279.777 437.143 280.149 438.399 280.336C439.167 280.45 439.94 280.529 440.718 280.574C441.507 280.548 442.505 280.554 443.712 280.591C438.785 283.496 434.038 286.393 429.471 289.281C424.984 292.109 420.661 295.033 416.502 298.053C419.764 303.461 423.131 308.884 426.603 314.323C430.144 319.772 433.766 325.162 437.467 330.493C436.302 330.177 435.23 329.946 434.253 329.801C433.346 329.666 432.438 329.531 431.531 329.396C430.763 329.281 429.925 329.157 429.018 329.022C428.111 328.887 427.158 328.817 426.16 328.811C424.884 326.838 423.44 324.554 421.828 321.96C420.227 319.296 418.621 316.667 417.009 314.073C415.467 311.49 413.974 309.056 412.53 306.773C411.086 304.489 409.835 302.591 408.775 301.078C408.608 300.767 408.4 300.487 408.152 300.236C407.904 299.985 407.64 299.839 407.361 299.797C406.663 299.693 406.251 300.06 406.127 300.898L405.193 307.18C404.726 310.32 404.304 313.397 403.927 316.408C403.631 319.361 403.434 322.363 403.336 325.417C401.752 325.038 400.192 324.735 398.656 324.506C397.121 324.278 395.54 324.114 393.914 324.015C394.292 322.431 394.698 320.422 395.131 317.989C395.634 315.567 396.123 313 396.597 310.289C397.072 307.577 397.517 304.825 397.932 302.033C398.417 299.252 398.836 296.674 399.189 294.301L402.007 275.351Z" fill="#333332"/>
<path d="M449.017 321.808C449.294 322.547 449.739 323.374 450.353 324.29C451.036 325.214 451.828 326.113 452.73 326.988C453.708 327.801 454.804 328.519 456.015 329.143C457.297 329.775 458.674 330.168 460.148 330.323C461.482 330.464 462.767 330.386 464.004 330.09C465.312 329.802 466.462 329.32 467.456 328.644C468.519 327.976 469.395 327.074 470.082 325.94C470.769 324.807 471.193 323.468 471.356 321.924C471.585 319.748 471.127 318.033 469.982 316.777C468.914 315.458 467.505 314.352 465.754 313.458C464.011 312.494 462.081 311.617 459.965 310.827C457.848 310.037 455.929 309.054 454.208 307.88C452.494 306.635 451.094 305.104 450.008 303.287C448.993 301.477 448.64 299.098 448.95 296.151C449.194 293.835 449.801 291.77 450.772 289.957C451.751 288.073 453.051 286.507 454.673 285.258C456.294 284.01 458.233 283.114 460.49 282.571C462.754 281.958 465.29 281.799 468.097 282.094C470.693 282.368 472.832 282.948 474.512 283.834C476.263 284.728 477.916 285.54 479.471 286.271C478.799 287.265 478.136 288.508 477.482 290C476.829 291.492 476.387 292.652 476.158 293.48L474.895 293.347C474.511 291.603 473.582 289.98 472.108 288.477C470.634 286.974 468.704 286.096 466.318 285.845C465.266 285.735 464.195 285.799 463.105 286.039C462.015 286.279 461.013 286.706 460.097 287.319C459.181 287.932 458.383 288.771 457.703 289.835C457.024 290.898 456.603 292.202 456.44 293.746C456.204 295.992 456.616 297.809 457.676 299.198C458.814 300.524 460.258 301.634 462.009 302.527C463.759 303.421 465.693 304.263 467.809 305.054C469.933 305.774 471.856 306.721 473.577 307.896C475.306 309 476.678 310.457 477.694 312.267C478.78 314.084 479.168 316.466 478.857 319.414C478.643 321.449 477.977 323.401 476.858 325.27C475.809 327.146 474.357 328.803 472.503 330.24C470.726 331.614 468.632 332.635 466.22 333.304C463.816 333.902 461.14 334.046 458.193 333.736C454.964 333.396 452.296 332.796 450.187 331.936C448.078 331.075 446.331 330.146 444.945 329.149C445.463 328.281 446.013 327.097 446.596 325.598C447.257 324.035 447.643 322.728 447.754 321.675L449.017 321.808Z" fill="#333332"/>
<path d="M537.633 340.086C536.983 337.42 536.103 334.028 534.995 329.912C533.887 325.796 532.657 321.423 531.304 316.793C530.027 312.099 528.649 307.326 527.171 302.474C525.769 297.558 524.346 292.923 522.902 288.57C523.736 288.773 524.535 288.975 525.298 289.173C526.137 289.306 526.979 289.405 527.824 289.468C528.598 289.525 529.374 289.548 530.154 289.535C530.938 289.452 531.793 289.375 532.718 289.302C534.054 296.053 535.564 302.853 537.246 309.701C539.005 316.484 540.993 323.496 543.213 330.738C544.204 328.83 545.419 326.303 546.857 323.155C548.295 320.007 549.786 316.616 551.331 312.981C552.876 309.346 554.426 305.64 555.981 301.864C557.537 298.089 558.931 294.584 560.163 291.35C561.403 291.796 562.445 292.051 563.29 292.114C563.853 292.156 564.348 292.158 564.775 292.119C565.208 292.01 565.711 291.906 566.285 291.807C567.54 298.694 569.082 305.531 570.91 312.319C572.744 319.037 574.665 326.008 576.673 333.234C577.756 331.051 579.017 328.385 580.454 325.237C581.968 322.025 583.527 318.674 585.132 315.184C586.742 311.625 588.357 307.995 589.978 304.295C591.669 300.6 593.236 297.144 594.679 293.926C596.06 294.382 597.173 294.642 598.017 294.705C598.932 294.774 600 294.676 601.223 294.414C596.577 302.629 592.184 310.757 588.046 318.799C583.979 326.845 580.122 334.907 576.477 342.985C575.713 342.786 574.803 342.648 573.748 342.569C573.255 342.532 572.763 342.495 572.27 342.459C571.778 342.422 571.35 342.461 570.988 342.575C569.625 336.176 568.09 329.728 566.381 323.232C564.672 316.736 562.67 309.9 560.375 302.723C559.373 304.771 558.156 307.334 556.724 310.411C555.296 313.418 553.815 316.669 552.281 320.163C550.746 323.657 549.207 327.222 547.662 330.857C546.122 334.422 544.749 337.645 543.544 340.527C542.71 340.324 541.73 340.18 540.604 340.096C539.478 340.012 538.488 340.008 537.633 340.086Z" fill="#333332"/>
<path d="M614.435 276.427C614.508 274.946 615.099 273.704 616.207 272.698C617.316 271.693 618.611 271.226 620.091 271.298C621.571 271.371 622.814 271.961 623.819 273.07C624.825 274.179 625.291 275.474 625.219 276.954C625.147 278.434 624.556 279.677 623.447 280.682C622.338 281.688 621.044 282.154 619.564 282.082C618.084 282.01 616.841 281.419 615.835 280.31C614.83 279.201 614.363 277.907 614.435 276.427ZM614.049 314.664C614.204 311.493 614.296 308.177 614.324 304.716C614.426 301.189 614.375 297.901 614.17 294.853C616.127 295.302 617.704 295.556 618.902 295.614C620.1 295.673 621.695 295.574 623.685 295.318C623.185 298.332 622.778 301.597 622.464 305.114C622.225 308.564 622.028 311.875 621.873 315.047L621.335 326.042C621.18 329.213 621.052 332.563 620.95 336.091C620.922 339.551 621.015 342.699 621.23 345.536C619.615 345.316 618.033 345.168 616.483 345.092C614.932 345.016 613.343 345.009 611.715 345.071C612.205 342.269 612.57 339.143 612.809 335.692C613.122 332.175 613.357 328.831 613.512 325.659L614.049 314.664Z" fill="#333332"/>
<path d="M654.497 282.322C654.203 284.995 653.945 287.635 653.723 290.24C653.574 292.777 653.389 295.348 653.167 297.953C653.943 297.977 655.389 298.022 657.505 298.088C659.623 298.082 661.918 298.047 664.391 297.983C664.314 298.192 664.267 298.579 664.249 299.143L664.217 300.201L664.181 301.365C664.166 301.859 664.19 302.212 664.254 302.426C663.339 302.327 662.388 302.263 661.401 302.232C660.415 302.131 659.358 302.063 658.23 302.028L653.046 301.868C652.967 302.148 652.826 303.273 652.624 305.244C652.492 307.216 652.349 309.577 652.193 312.325C652.04 315.003 651.882 317.823 651.72 320.783C651.628 323.745 651.546 326.39 651.474 328.717C651.413 330.692 651.389 332.633 651.4 334.54C651.483 336.448 651.782 338.187 652.298 339.756C652.816 341.255 653.626 342.48 654.726 343.432C655.826 344.384 657.434 344.892 659.55 344.958C660.114 344.975 660.857 344.928 661.778 344.815C662.77 344.704 663.622 344.554 664.334 344.364L664.255 346.903C663.05 347.078 661.702 347.283 660.212 347.52C658.791 347.829 657.41 347.963 656.07 347.921C651.626 347.784 648.38 346.589 646.332 344.337C644.284 342.085 643.325 338.843 643.456 334.612C643.515 332.707 643.613 330.663 643.751 328.479C643.892 326.224 644.037 323.793 644.189 321.185C644.413 318.509 644.609 315.586 644.777 312.414C644.948 309.172 645.095 305.576 645.217 301.626L641.831 301.521C641.267 301.504 640.667 301.52 640.03 301.571C639.395 301.552 638.724 301.566 638.016 301.615C638.1 301.194 638.147 300.807 638.158 300.454C638.242 300.033 638.29 299.611 638.303 299.188C638.314 298.836 638.29 298.482 638.23 298.127C638.241 297.774 638.217 297.421 638.157 297.066C641.324 297.375 643.649 297.553 645.13 297.599C645.103 296.186 645.087 294.421 645.082 292.303C645.147 290.187 645.144 287.998 645.073 285.737L653.968 282.305L654.497 282.322Z" fill="#333332"/>
<path d="M675.371 298.083C675.388 295.683 675.372 293.072 675.322 290.249C675.343 287.427 675.328 284.639 675.278 281.887C675.227 279.134 675.14 276.523 675.017 274.052C674.965 271.511 674.875 269.358 674.747 267.593C676.72 267.96 678.307 268.148 679.506 268.157C680.706 268.166 682.295 268.001 684.273 267.663C684.119 269.426 683.962 271.542 683.803 274.01C683.715 276.48 683.625 279.09 683.534 281.841C683.444 284.522 683.354 287.238 683.263 289.99C683.243 292.742 683.224 295.282 683.207 297.611L683.148 305.655L683.36 305.656C685.358 302.637 687.739 300.325 690.503 298.723C693.267 297.049 696.554 296.226 700.365 296.254C702.341 296.269 704.314 296.566 706.286 297.145C708.328 297.724 710.156 298.725 711.768 300.148C713.381 301.501 714.673 303.38 715.643 305.787C716.685 308.123 717.192 311.126 717.165 314.795C717.143 317.829 717.049 320.969 716.885 324.214C716.72 327.388 716.625 330.775 716.599 334.373L716.548 341.253C716.54 342.382 716.532 343.511 716.523 344.64C716.586 345.699 716.649 346.723 716.713 347.711C715.302 347.56 713.821 347.479 712.269 347.467C710.787 347.456 709.34 347.516 707.928 347.647C708.096 343.979 708.264 340.205 708.434 336.325C708.674 332.445 708.809 328.459 708.839 324.367L708.886 317.91C708.925 312.618 707.931 308.624 705.904 305.927C703.878 303.16 701.065 301.764 697.467 301.737C692.527 301.701 688.882 303.192 686.531 306.209C684.251 309.227 683.091 313.487 683.051 318.991C683.036 320.967 683.019 323.26 683 325.871C683.052 328.483 683.103 331.129 683.154 333.811C683.205 336.423 683.257 338.963 683.31 341.434C683.433 343.904 683.559 345.916 683.689 347.47C682.067 347.317 680.48 347.235 678.928 347.223C677.375 347.212 675.787 347.271 674.163 347.4C674.316 345.778 674.437 343.733 674.526 341.263C674.685 338.795 674.81 336.185 674.9 333.433C674.991 330.682 675.047 327.895 675.067 325.072C675.159 322.25 675.213 319.64 675.231 317.241L675.371 298.083Z" fill="#333332"/>
<path d="M783.963 285.191C783.596 287.856 783.267 290.488 782.975 293.086C782.757 295.618 782.503 298.183 782.211 300.781C782.985 300.826 784.43 300.91 786.543 301.033C788.661 301.085 790.956 301.112 793.43 301.114C793.347 301.321 793.29 301.707 793.257 302.27L793.196 303.327L793.128 304.489C793.1 304.982 793.114 305.337 793.173 305.552C792.261 305.429 791.312 305.338 790.326 305.281C789.343 305.153 788.289 305.057 787.162 304.992L781.984 304.691C781.897 304.969 781.726 306.09 781.471 308.054C781.286 310.023 781.079 312.379 780.849 315.122C780.623 317.795 780.389 320.609 780.147 323.563C779.976 326.522 779.823 329.164 779.688 331.489C779.573 333.461 779.496 335.4 779.456 337.306C779.487 339.217 779.739 340.963 780.213 342.546C780.691 344.058 781.466 345.304 782.541 346.285C783.615 347.267 785.208 347.818 787.322 347.941C787.885 347.974 788.629 347.946 789.553 347.858C790.547 347.775 791.403 347.648 792.12 347.477L791.973 350.013C790.763 350.155 789.41 350.324 787.914 350.52C786.485 350.791 785.101 350.887 783.763 350.809C779.324 350.552 776.112 349.27 774.125 346.964C772.138 344.657 771.268 341.391 771.513 337.164C771.623 335.262 771.777 333.221 771.974 331.041C772.175 328.791 772.386 326.365 772.608 323.762C772.904 321.093 773.179 318.176 773.434 315.01C773.692 311.774 773.936 308.183 774.164 304.238L770.783 304.042C770.219 304.009 769.618 304.01 768.98 304.043C768.346 304.006 767.675 304.003 766.966 304.032C767.061 303.614 767.119 303.228 767.14 302.876C767.234 302.458 767.294 302.037 767.319 301.614C767.339 301.262 767.324 300.908 767.274 300.551C767.295 300.199 767.28 299.845 767.23 299.489C770.388 299.884 772.706 300.124 774.186 300.21C774.197 298.797 774.229 297.032 774.281 294.914C774.403 292.801 774.46 290.613 774.449 288.351L783.435 285.161L783.963 285.191Z" fill="#333332"/>
<path d="M810.231 302.019C810.477 299.633 810.709 297.032 810.928 294.217C811.218 291.409 811.468 288.633 811.68 285.888C811.891 283.143 812.054 280.535 812.166 278.064C812.356 275.53 812.471 273.378 812.512 271.609C814.441 272.162 816.002 272.5 817.196 272.623C818.389 272.746 819.986 272.733 821.988 272.584C821.667 274.325 821.309 276.416 820.916 278.859C820.593 281.308 820.255 283.898 819.903 286.628C819.558 289.289 819.21 291.984 818.858 294.714C818.576 297.452 818.316 299.979 818.077 302.295L817.253 310.297L817.464 310.319C819.74 307.503 822.33 305.429 825.234 304.096C828.145 302.693 831.496 302.187 835.286 302.577C837.251 302.78 839.188 303.263 841.096 304.027C843.073 304.798 844.797 305.969 846.267 307.539C847.744 309.039 848.851 311.033 849.588 313.52C850.403 315.945 850.622 318.983 850.246 322.633C849.935 325.651 849.543 328.768 849.07 331.982C848.605 335.126 848.188 338.488 847.819 342.068L847.114 348.912C846.998 350.035 846.883 351.158 846.767 352.281C846.729 353.342 846.694 354.367 846.663 355.357C845.274 355.072 843.807 354.85 842.263 354.691C840.789 354.539 839.343 354.461 837.924 354.457C838.44 350.821 838.968 347.08 839.506 343.234C840.114 339.395 840.627 335.44 841.047 331.369L841.708 324.946C842.25 319.681 841.641 315.61 839.88 312.734C838.126 309.786 835.459 308.128 831.879 307.76C826.966 307.254 823.195 308.391 820.568 311.171C818.011 313.958 816.451 318.089 815.887 323.564C815.685 325.529 815.45 327.81 815.182 330.408C814.985 333.012 814.784 335.652 814.58 338.326C814.382 340.931 814.192 343.465 814.009 345.929C813.897 348.4 813.831 350.415 813.813 351.974C812.213 351.667 810.641 351.434 809.096 351.275C807.552 351.116 805.965 351.024 804.336 350.998C804.643 349.398 804.958 347.373 805.281 344.924C805.675 342.481 806.047 339.895 806.399 337.165C806.752 334.434 807.072 331.665 807.361 328.857C807.721 326.057 808.023 323.463 808.269 321.077L810.231 302.019Z" fill="#333332"/>
<path d="M894.263 313.802C891.684 313.391 889.395 313.633 887.394 314.528C885.463 315.435 883.761 316.7 882.287 318.323C880.894 319.887 879.712 321.699 878.74 323.759C877.849 325.761 877.184 327.691 876.744 329.55C878.893 329.965 881.112 330.39 883.4 330.827C885.759 331.274 888.053 331.676 890.282 332.032C892.582 332.399 894.922 332.736 897.302 333.045C899.683 333.353 901.993 333.65 904.234 333.936C904.535 332.055 904.677 330.041 904.662 327.895C904.717 325.76 904.401 323.709 903.715 321.741C903.098 319.785 902.048 318.081 900.564 316.63C899.081 315.178 896.98 314.236 894.263 313.802ZM866.265 334.095C867.633 325.524 870.726 319.122 875.546 314.889C880.436 310.667 886.783 309.179 894.587 310.424C898.281 311.013 901.357 312.111 903.816 313.718C906.355 315.267 908.376 317.161 909.876 319.401C911.388 321.572 912.356 324.013 912.781 326.725C913.275 329.448 913.289 332.272 912.822 335.199C912.711 335.896 912.565 336.587 912.384 337.273C912.284 337.9 912.144 338.557 911.963 339.242C908.211 338.572 904.494 337.908 900.812 337.249C897.13 336.59 893.407 335.96 889.644 335.36C887.345 334.993 885.04 334.661 882.729 334.364C880.488 334.078 878.212 333.786 875.901 333.489C875.776 333.826 875.658 334.343 875.547 335.04L875.33 336.399C874.896 339.117 874.874 341.721 875.262 344.213C875.721 346.715 876.577 348.96 877.832 350.947C879.099 352.864 880.763 354.523 882.826 355.924C884.901 357.255 887.401 358.154 890.328 358.621C891.721 358.844 893.178 358.897 894.697 358.782C896.227 358.598 897.739 358.303 899.232 357.898C900.737 357.424 902.154 356.828 903.483 356.111C904.882 355.405 906.118 354.602 907.191 353.701L907.663 354.098L906.219 359.12C903.862 360.459 901.021 361.47 897.696 362.155C894.441 362.85 891.141 362.931 887.796 362.398C884.033 361.797 880.673 360.689 877.715 359.074C874.838 357.4 872.422 355.3 870.467 352.773C868.593 350.187 867.267 347.296 866.491 344.1C865.785 340.914 865.709 337.579 866.265 334.095Z" fill="#333332"/>
<path d="M964.277 344.527C965.091 341.458 965.873 338.234 966.623 334.856C967.46 331.427 968.097 328.202 968.534 325.178C970.353 326.026 971.842 326.604 973.002 326.911C973.548 327.056 974.136 327.176 974.768 327.27C975.487 327.315 976.307 327.386 977.23 327.485C976.302 330.159 975.476 332.86 974.752 335.589L974.956 335.643C980.2 330.463 986.095 328.742 992.643 330.479C994.348 330.932 995.947 331.648 997.439 332.628C998.949 333.539 1000.23 334.61 1001.3 335.841C1002.42 337.089 1003.29 338.488 1003.91 340.038C1004.53 341.519 1004.83 343.021 1004.79 344.543L1005 344.598C1007.5 341.758 1010.38 339.857 1013.63 338.893C1016.96 337.88 1020.47 337.862 1024.15 338.839C1026.4 339.436 1028.4 340.295 1030.15 341.415C1031.9 342.536 1033.28 343.925 1034.3 345.583C1035.39 347.259 1036.04 349.219 1036.25 351.464C1036.52 353.728 1036.28 356.292 1035.52 359.156C1035.21 360.316 1034.84 361.569 1034.41 362.915C1033.98 364.261 1033.49 365.845 1032.93 367.669C1032.39 369.424 1031.78 371.452 1031.1 373.753C1030.43 375.986 1029.7 378.603 1028.91 381.604C1028.42 383.445 1027.95 385.219 1027.5 386.924C1027.11 388.647 1026.72 390.516 1026.34 392.53C1025.62 392.194 1024.89 391.927 1024.14 391.728C1023.39 391.529 1022.67 391.339 1021.99 391.158C1021.24 390.959 1020.49 390.76 1019.74 390.561C1018.99 390.362 1018.22 390.231 1017.44 390.168C1018.09 388.518 1019.21 385.127 1020.79 379.998C1022.44 374.887 1024.49 367.693 1026.95 358.417C1027.41 356.712 1027.63 355.055 1027.62 353.446C1027.67 351.855 1027.44 350.405 1026.91 349.097C1026.38 347.788 1025.51 346.646 1024.31 345.671C1023.13 344.627 1021.51 343.833 1019.47 343.29C1017.01 342.639 1014.81 342.565 1012.85 343.067C1010.89 343.57 1009.26 344.342 1007.96 345.385C1007.22 345.99 1006.58 346.623 1006.04 347.283C1005.56 347.961 1005.02 349.057 1004.4 350.571C1003.86 352.035 1003.19 354.157 1002.38 356.935C1001.59 359.645 1000.55 363.422 999.264 368.264C998.486 371.197 997.806 373.9 997.222 376.374C996.725 378.797 996.165 381.459 995.542 384.36C994.009 383.807 992.527 383.341 991.094 382.961C989.662 382.581 988.143 382.251 986.539 381.972C987.875 378.311 989.127 374.555 990.295 370.703C991.462 366.852 992.544 363.05 993.539 359.299C994.39 356.093 995.016 353.595 995.418 351.803C995.907 349.962 996.218 348.511 996.353 347.452C996.507 346.324 996.537 345.383 996.445 344.629C996.422 343.893 996.314 343.061 996.122 342.134C995.715 340.639 994.811 339.231 993.409 337.91C992.094 336.539 990.584 335.627 988.879 335.175C984.377 333.981 980.68 334.57 977.788 336.941C974.895 339.313 972.743 343.159 971.332 348.479L969.025 357.176C968.211 360.245 967.385 363.494 966.549 366.922C965.798 370.3 965.232 373.399 964.849 376.218C963.317 375.665 961.8 375.19 960.3 374.792C958.799 374.393 957.246 374.055 955.641 373.775C956.706 371.137 957.716 368.156 958.671 364.832C959.712 361.458 960.64 358.236 961.454 355.167L964.277 344.527Z" fill="#333332"/>
<path d="M1080.17 360.067C1077.7 359.222 1075.4 359.07 1073.27 359.611C1071.22 360.175 1069.32 361.131 1067.59 362.478C1065.96 363.782 1064.48 365.366 1063.17 367.23C1061.95 369.05 1060.97 370.839 1060.22 372.596C1062.26 373.371 1064.38 374.168 1066.56 374.989C1068.81 375.832 1071 376.62 1073.13 377.351C1075.34 378.105 1077.59 378.836 1079.88 379.546C1082.17 380.256 1084.4 380.943 1086.56 381.608C1087.17 379.805 1087.66 377.845 1088.01 375.728C1088.43 373.633 1088.47 371.558 1088.13 369.503C1087.85 367.47 1087.11 365.612 1085.89 363.929C1084.68 362.245 1082.77 360.958 1080.17 360.067ZM1049.12 375.286C1051.93 367.074 1056.07 361.294 1061.54 357.945C1067.08 354.619 1073.58 354.236 1081.06 356.794C1084.6 358.005 1087.44 359.612 1089.59 361.615C1091.83 363.574 1093.5 365.785 1094.6 368.249C1095.71 370.645 1096.25 373.216 1096.21 375.96C1096.23 378.727 1095.76 381.513 1094.8 384.317C1094.57 384.985 1094.31 385.641 1094.02 386.286C1093.81 386.887 1093.56 387.51 1093.27 388.154C1089.68 386.854 1086.13 385.565 1082.62 384.288C1079.1 383.01 1075.54 381.755 1071.94 380.521C1069.73 379.767 1067.52 379.047 1065.29 378.36C1063.13 377.696 1060.94 377.02 1058.72 376.333C1058.53 376.644 1058.33 377.133 1058.1 377.801L1057.66 379.103C1056.76 381.707 1056.3 384.269 1056.26 386.79C1056.28 389.335 1056.74 391.692 1057.64 393.864C1058.56 395.969 1059.92 397.888 1061.71 399.62C1063.53 401.286 1065.84 402.599 1068.64 403.558C1069.98 404.015 1071.4 404.316 1072.92 404.462C1074.46 404.541 1076 404.509 1077.54 404.365C1079.1 404.154 1080.6 403.809 1082.03 403.329C1083.53 402.872 1084.89 402.292 1086.1 401.587L1086.5 402.059L1084.22 406.761C1081.66 407.678 1078.69 408.19 1075.3 408.297C1071.97 408.427 1068.71 407.943 1065.5 406.847C1061.9 405.613 1058.78 403.948 1056.14 401.852C1053.59 399.712 1051.57 397.23 1050.07 394.407C1048.66 391.539 1047.85 388.464 1047.63 385.182C1047.48 381.923 1047.97 378.624 1049.12 375.286Z" fill="#333332"/>
<path d="M1102.37 408.498C1102.44 409.284 1102.64 410.201 1102.99 411.248C1103.4 412.321 1103.92 413.401 1104.55 414.486C1105.27 415.532 1106.14 416.519 1107.13 417.446C1108.2 418.399 1109.42 419.149 1110.8 419.695C1112.04 420.189 1113.3 420.46 1114.57 420.508C1115.91 420.583 1117.15 420.428 1118.29 420.044C1119.49 419.687 1120.58 419.054 1121.54 418.147C1122.51 417.24 1123.28 416.065 1123.85 414.622C1124.66 412.588 1124.68 410.812 1123.91 409.295C1123.24 407.737 1122.18 406.293 1120.74 404.961C1119.32 403.563 1117.69 402.199 1115.87 400.868C1114.04 399.538 1112.46 398.075 1111.12 396.481C1109.8 394.821 1108.86 392.97 1108.31 390.927C1107.82 388.911 1108.12 386.525 1109.21 383.77C1110.07 381.605 1111.21 379.78 1112.63 378.295C1114.08 376.744 1115.75 375.585 1117.65 374.819C1119.55 374.053 1121.66 373.712 1123.98 373.797C1126.32 373.815 1128.81 374.345 1131.43 375.385C1133.86 376.347 1135.76 377.481 1137.14 378.787C1138.59 380.119 1139.96 381.346 1141.26 382.469C1140.35 383.245 1139.38 384.263 1138.34 385.525C1137.31 386.786 1136.58 387.784 1136.13 388.519L1134.95 388.051C1135.05 386.269 1134.59 384.455 1133.58 382.611C1132.56 380.767 1130.94 379.403 1128.71 378.519C1127.73 378.129 1126.68 377.903 1125.56 377.841C1124.45 377.779 1123.37 377.92 1122.32 378.264C1121.27 378.608 1120.28 379.201 1119.34 380.042C1118.4 380.884 1117.64 382.026 1117.07 383.469C1116.24 385.569 1116.15 387.43 1116.79 389.053C1117.53 390.636 1118.62 392.093 1120.07 393.425C1121.52 394.757 1123.15 396.089 1124.98 397.419C1126.83 398.685 1128.43 400.114 1129.77 401.709C1131.13 403.237 1132.06 405.01 1132.56 407.026C1133.11 409.069 1132.84 411.468 1131.75 414.223C1131 416.125 1129.83 417.826 1128.25 419.325C1126.74 420.85 1124.89 422.055 1122.72 422.939C1120.64 423.785 1118.35 424.205 1115.84 424.2C1113.37 424.129 1110.75 423.547 1108 422.456C1104.98 421.26 1102.57 419.963 1100.77 418.567C1098.97 417.171 1097.54 415.806 1096.47 414.473C1097.2 413.776 1098.05 412.784 1099.02 411.497C1100.07 410.17 1100.8 409.014 1101.19 408.03L1102.37 408.498Z" fill="#333332"/>
<path d="M1144.66 425.621C1144.69 426.409 1144.86 427.334 1145.16 428.395C1145.52 429.484 1146 430.585 1146.58 431.696C1147.26 432.771 1148.08 433.794 1149.04 434.762C1150.06 435.759 1151.25 436.56 1152.6 437.163C1153.83 437.709 1155.08 438.033 1156.34 438.135C1157.68 438.266 1158.92 438.164 1160.07 437.829C1161.29 437.522 1162.4 436.936 1163.41 436.07C1164.41 435.205 1165.23 434.063 1165.86 432.645C1166.75 430.647 1166.85 428.874 1166.15 427.326C1165.54 425.742 1164.54 424.254 1163.16 422.862C1161.8 421.406 1160.23 419.974 1158.46 418.568C1156.7 417.161 1155.18 415.633 1153.9 413.983C1152.66 412.269 1151.8 410.38 1151.33 408.316C1150.93 406.281 1151.33 403.91 1152.53 401.203C1153.48 399.076 1154.7 397.301 1156.18 395.877C1157.7 394.389 1159.42 393.302 1161.35 392.617C1163.27 391.931 1165.4 391.68 1167.71 391.862C1170.05 391.98 1172.51 392.613 1175.09 393.763C1177.48 394.827 1179.33 396.04 1180.65 397.403C1182.04 398.795 1183.36 400.079 1184.61 401.256C1183.67 401.992 1182.65 402.969 1181.57 404.186C1180.48 405.402 1179.71 406.368 1179.23 407.084L1178.07 406.567C1178.25 404.79 1177.87 402.959 1176.93 401.074C1175.99 399.188 1174.43 397.757 1172.24 396.779C1171.27 396.348 1170.23 396.078 1169.12 395.969C1168.01 395.86 1166.93 395.956 1165.87 396.255C1164.81 396.555 1163.79 397.105 1162.81 397.906C1161.84 398.708 1161.03 399.817 1160.4 401.235C1159.48 403.297 1159.31 405.153 1159.89 406.801C1160.56 408.414 1161.59 409.917 1162.98 411.308C1164.37 412.7 1165.94 414.099 1167.71 415.506C1169.51 416.848 1171.04 418.344 1172.32 419.993C1173.62 421.579 1174.47 423.389 1174.88 425.424C1175.35 427.488 1174.98 429.874 1173.77 432.58C1172.94 434.449 1171.7 436.099 1170.06 437.53C1168.48 438.989 1166.59 440.115 1164.38 440.908C1162.26 441.665 1159.96 441.988 1157.46 441.877C1154.98 441.702 1152.4 441.01 1149.69 439.803C1146.72 438.481 1144.37 437.084 1142.63 435.613C1140.89 434.142 1139.52 432.718 1138.51 431.341C1139.27 430.676 1140.16 429.721 1141.18 428.475C1142.29 427.194 1143.06 426.07 1143.5 425.104L1144.66 425.621Z" fill="#333332"/>
<path d="M1218.81 442.378C1217.55 442.215 1216.13 441.894 1214.56 441.414C1213.04 440.967 1211.48 440.535 1209.88 440.118C1208.3 439.639 1206.68 439.254 1205 438.964C1203.4 438.705 1201.83 438.667 1200.32 438.851C1198.87 439.066 1197.51 439.566 1196.24 440.35C1195.04 441.166 1193.99 442.456 1193.1 444.22C1191.61 447.18 1191.33 449.846 1192.27 452.216C1193.2 454.587 1194.71 456.297 1196.79 457.346C1199.19 458.554 1201.69 458.99 1204.31 458.653C1207 458.348 1209.32 457.583 1211.28 456.36L1218.81 442.378ZM1203.96 413.776C1207.88 413.066 1211.23 412.936 1214 413.389C1216.78 413.841 1219.42 414.704 1221.94 415.976C1224.21 417.12 1226.12 418.516 1227.66 420.163C1229.23 421.747 1230.36 423.503 1231.04 425.431C1231.76 427.295 1232.05 429.3 1231.92 431.446C1231.82 433.528 1231.24 435.609 1230.19 437.688C1228.38 441.278 1226.5 444.837 1224.57 448.364C1222.66 451.828 1220.7 455.544 1218.7 459.513C1218.32 460.269 1217.91 461.088 1217.46 461.97C1217.11 462.82 1216.89 463.656 1216.79 464.476C1216.72 465.233 1216.8 465.944 1217.02 466.607C1217.3 467.302 1217.91 467.889 1218.86 468.366C1219.17 468.525 1219.49 468.684 1219.8 468.843C1220.21 468.97 1220.62 469.019 1221.03 468.989L1219.98 471.068C1219.13 471.033 1218.12 470.84 1216.95 470.488C1215.85 470.169 1214.67 469.691 1213.41 469.055C1211.39 468.037 1210.1 466.754 1209.54 465.206C1209.01 463.594 1209.07 461.922 1209.7 460.188C1206.29 461.311 1203.21 461.852 1200.47 461.81C1197.72 461.768 1194.74 460.936 1191.53 459.314C1189.95 458.519 1188.52 457.519 1187.23 456.315C1185.94 455.111 1184.96 453.703 1184.27 452.091C1183.64 450.511 1183.3 448.837 1183.25 447.069C1183.28 445.271 1183.76 443.458 1184.69 441.631C1186.59 437.851 1189.24 435.511 1192.62 434.608C1196.06 433.738 1200.04 434.006 1204.54 435.412C1208.23 436.562 1211.12 437.425 1213.2 438.001C1215.37 438.546 1217.01 438.82 1218.12 438.825C1219.28 438.861 1220.11 438.643 1220.58 438.171C1221.09 437.637 1221.58 436.897 1222.06 435.952C1222.85 434.377 1223.43 432.77 1223.78 431.13C1224.13 429.491 1224.17 427.929 1223.89 426.445C1223.61 424.96 1222.97 423.569 1221.97 422.272C1220.99 420.911 1219.56 419.753 1217.67 418.799C1215.15 417.527 1212.5 416.902 1209.73 416.923C1207.01 416.975 1204.61 417.739 1202.52 419.215L1201.48 418.69L1203.96 413.776Z" fill="#333332"/>
<path d="M1258.19 506.922C1260.3 503.249 1260.7 500.064 1259.4 497.366C1258.1 494.668 1254.97 491.897 1250.02 489.053C1245.42 486.42 1241.45 485.118 1238.1 485.148C1234.71 485.239 1231.9 487.243 1229.65 491.161C1228.46 493.242 1227.77 495.21 1227.6 497.065C1227.5 498.956 1227.76 500.693 1228.4 502.279C1229.09 503.899 1230.15 505.397 1231.55 506.774C1232.96 508.15 1234.61 509.383 1236.51 510.471C1238.35 511.524 1240.29 512.315 1242.35 512.843C1244.4 513.372 1246.39 513.533 1248.3 513.326C1250.26 513.154 1252.12 512.549 1253.85 511.51C1255.55 510.532 1257 509.003 1258.19 506.922ZM1276.04 464.321C1278.25 460.465 1279.02 457 1278.34 453.927C1277.66 450.854 1275.82 448.457 1272.82 446.737C1269.52 444.841 1266.3 444.499 1263.16 445.71C1260.06 446.861 1257.44 449.303 1255.3 453.037C1253.09 456.893 1252.16 460.427 1252.51 463.64C1252.96 466.827 1254.96 469.438 1258.51 471.475C1260.29 472.493 1261.98 473.016 1263.59 473.045C1265.3 473.048 1266.88 472.696 1268.34 471.989C1269.9 471.257 1271.31 470.23 1272.55 468.911C1273.89 467.565 1275.05 466.035 1276.04 464.321ZM1248.14 448.929C1249.61 446.358 1251.33 444.418 1253.31 443.108C1255.31 441.737 1257.46 440.896 1259.76 440.584C1262.11 440.308 1264.5 440.461 1266.94 441.042C1269.43 441.659 1271.87 442.652 1274.26 444.021C1275.42 444.688 1276.51 445.351 1277.51 446.009C1278.58 446.702 1279.9 447.584 1281.48 448.654C1282.82 449.584 1284.02 450.396 1285.09 451.089C1286.16 451.782 1287.03 452.322 1287.7 452.708C1291.13 454.674 1293.7 455.943 1295.4 456.515C1295.16 456.786 1294.91 457.087 1294.64 457.419C1294.46 457.725 1294.29 458.031 1294.11 458.337C1293.94 458.644 1293.74 458.98 1293.53 459.347C1293.42 459.689 1293.3 460.03 1293.19 460.371C1291.48 459.23 1289.81 458.107 1288.17 457.002C1286.62 455.87 1285.04 454.8 1283.42 453.791L1283.13 453.869C1284.43 455.998 1285.03 458.498 1284.93 461.369C1284.86 464.178 1284.16 466.746 1282.83 469.072C1280.2 473.663 1276.56 476.379 1271.93 477.22C1267.4 478.036 1262.53 476.951 1257.33 473.967C1256.47 473.476 1255.63 472.953 1254.81 472.401C1254.05 471.883 1253.24 471.378 1252.38 470.887C1251.28 470.255 1250.01 470.056 1248.57 470.29C1247.2 470.559 1246.16 471.306 1245.46 472.53C1244.55 474.122 1244.25 475.495 1244.56 476.651C1244.93 477.842 1246.15 479.065 1248.19 480.32C1249.87 481.364 1251.52 482.391 1253.14 483.4C1254.79 484.348 1256.45 485.344 1258.13 486.388C1260.91 488.064 1263.11 489.77 1264.72 491.506C1266.38 493.277 1267.53 495.033 1268.16 496.776C1268.85 498.554 1269.08 500.274 1268.86 501.937C1268.7 503.635 1268.16 505.279 1267.25 506.871C1266.02 509.013 1264.35 510.94 1262.23 512.652C1260.17 514.4 1257.74 515.652 1254.95 516.409C1252.21 517.201 1249.14 517.388 1245.72 516.971C1242.29 516.554 1238.66 515.24 1234.8 513.028C1228.86 509.623 1224.86 505.743 1222.81 501.39C1220.71 497.098 1220.84 492.901 1223.19 488.8C1224.11 487.209 1225.22 485.897 1226.55 484.867C1227.93 483.871 1229.38 483.117 1230.9 482.603C1232.41 482.089 1233.93 481.859 1235.44 481.914C1236.95 481.969 1238.41 482.195 1239.81 482.591L1239.92 482.407C1238.34 480.768 1237.42 479.025 1237.18 477.177C1236.94 475.33 1237.33 473.519 1238.35 471.744C1238.94 470.703 1239.67 469.86 1240.53 469.214C1241.45 468.602 1242.41 468.136 1243.41 467.813C1244.4 467.491 1245.42 467.344 1246.47 467.372C1247.51 467.4 1248.43 467.563 1249.24 467.862L1249.34 467.679C1247.23 464.839 1246.01 461.862 1245.68 458.745C1245.39 455.568 1246.21 452.295 1248.14 448.929Z" fill="#333332"/>
<path d="M1325.78 479.305C1323.59 477.888 1321.4 477.185 1319.21 477.197C1317.07 477.247 1315.01 477.717 1313 478.607C1311.1 479.476 1309.28 480.656 1307.56 482.149C1305.94 483.62 1304.55 485.118 1303.4 486.641C1305.2 487.888 1307.06 489.173 1308.97 490.496C1310.95 491.858 1312.89 493.151 1314.78 494.377C1316.74 495.641 1318.74 496.894 1320.8 498.137C1322.85 499.38 1324.84 500.585 1326.78 501.751C1327.81 500.151 1328.76 498.366 1329.61 496.397C1330.52 494.466 1331.06 492.462 1331.23 490.385C1331.45 488.346 1331.18 486.363 1330.41 484.436C1329.64 482.509 1328.1 480.799 1325.78 479.305ZM1291.98 486.569C1296.69 479.28 1302.1 474.671 1308.22 472.744C1314.4 470.855 1320.81 472.056 1327.44 476.346C1330.59 478.376 1332.96 480.622 1334.56 483.085C1336.26 485.527 1337.34 488.076 1337.81 490.731C1338.31 493.327 1338.22 495.951 1337.51 498.604C1336.86 501.295 1335.73 503.885 1334.13 506.374C1333.74 506.966 1333.33 507.54 1332.89 508.094C1332.54 508.628 1332.15 509.171 1331.71 509.726C1328.55 507.598 1325.41 505.49 1322.31 503.401C1319.21 501.311 1316.06 499.233 1312.86 497.164C1310.9 495.9 1308.93 494.666 1306.93 493.461C1305 492.295 1303.03 491.109 1301.04 489.905C1300.79 490.163 1300.47 490.588 1300.09 491.181L1299.34 492.336C1297.85 494.648 1296.77 497.022 1296.12 499.458C1295.53 501.933 1295.41 504.332 1295.76 506.656C1296.14 508.921 1296.99 511.111 1298.32 513.226C1299.68 515.281 1301.6 517.113 1304.09 518.722C1305.28 519.488 1306.59 520.125 1308.02 520.633C1309.5 521.082 1311 521.422 1312.53 521.655C1314.1 521.828 1315.64 521.855 1317.14 521.736C1318.71 521.655 1320.16 521.419 1321.5 521.028L1321.78 521.582L1318.43 525.593C1315.73 525.867 1312.72 525.645 1309.41 524.929C1306.15 524.251 1303.1 522.993 1300.25 521.155C1297.05 519.086 1294.42 516.716 1292.37 514.045C1290.41 511.352 1289.05 508.455 1288.28 505.354C1287.61 502.231 1287.56 499.051 1288.15 495.814C1288.78 492.614 1290.06 489.533 1291.98 486.569Z" fill="#333332"/>
</svg>
