<svg width="85" height="87" viewBox="0 0 85 87" fill="none" xmlns="http://www.w3.org/2000/svg">
<path d="M79.7691 37.5833C79.9935 38.9644 80.1458 40.3704 80.2218 41.7973L79.7225 41.8239C79.7594 42.5167 79.7781 43.2144 79.7781 43.9167C79.7781 44.6191 79.7594 45.3168 79.7225 46.0096L80.2218 46.0362C80.1458 47.4631 79.9935 48.8691 79.7691 50.2502L79.2756 50.17C79.0498 51.5591 78.7501 52.9226 78.3807 54.2559L78.8626 54.3894C78.4827 55.7605 78.0301 57.1003 77.5094 58.404L77.0451 58.2185C76.525 59.5206 75.936 60.7862 75.2828 62.0106L75.7239 62.246C75.0561 63.4979 74.3219 64.7073 73.5263 65.8692L73.1138 65.5868C72.3237 66.7407 71.4722 67.8472 70.5642 68.9012L70.943 69.2276C70.0192 70.2999 69.0377 71.3187 68.0035 72.2789L67.6633 71.9125C66.6409 72.8616 65.5663 73.7527 64.4445 74.5805L64.7414 74.9828C63.6054 75.8212 62.4216 76.5956 61.1949 77.301L60.9456 76.8675C59.7402 77.5608 58.4929 78.1863 57.2086 78.7393L57.4063 79.1986C56.1146 79.7548 54.7858 80.2386 53.4249 80.6451L53.2818 80.166C51.9558 80.562 50.5987 80.8836 49.2154 81.126L49.3017 81.6185C47.9228 81.8601 46.5181 82.0242 45.092 82.106L45.0634 81.6069C44.3714 81.6466 43.6743 81.6667 42.9725 81.6667C42.2708 81.6667 41.5737 81.6466 40.8817 81.6069L40.8531 82.106C39.427 82.0242 38.0223 81.8601 36.6434 81.6185L36.7297 81.126C35.3464 80.8836 33.9893 80.562 32.6633 80.166L32.5202 80.6451C31.1593 80.2386 29.8305 79.7548 28.5388 79.1986L28.7365 78.7393C27.4522 78.1863 26.2049 77.5608 24.9995 76.8675L24.7502 77.301C23.5235 76.5956 22.3397 75.8212 21.2037 74.9828L21.5006 74.5805C20.3788 73.7527 19.3042 72.8616 18.2818 71.9125L17.9416 72.2789C16.9074 71.3187 15.9259 70.2999 15.0021 69.2276L15.3809 68.9012C14.4729 67.8472 13.6214 66.7407 12.8313 65.5868L12.4188 65.8692C11.6232 64.7073 10.889 63.4979 10.2211 62.246L10.6623 62.0106C10.0091 60.7862 9.42012 59.5206 8.90004 58.2185L8.43571 58.404C7.91496 57.1003 7.46238 55.7605 7.08253 54.3894L7.56439 54.2559C7.19502 52.9226 6.8953 51.5591 6.66954 50.17L6.17601 50.2502C5.95157 48.8691 5.7993 47.4631 5.72329 46.0362L6.22259 46.0096C6.18569 45.3168 6.16699 44.6191 6.16699 43.9167C6.16699 43.2144 6.18569 42.5167 6.22259 41.8239L5.72329 41.7973C5.7993 40.3704 5.95157 38.9644 6.17601 37.5833L6.66954 37.6635C6.8953 36.2744 7.19502 34.9109 7.56439 33.5776L7.08254 33.4441C7.46238 32.073 7.91496 30.7332 8.43571 29.4295L8.90004 29.615C9.42012 28.3129 10.0091 27.0473 10.6623 25.8229L10.2212 25.5875C10.889 24.3356 11.6232 23.1262 12.4188 21.9643L12.8313 22.2467C13.6214 21.0928 14.4729 19.9863 15.3809 18.9322L15.0021 18.6059C15.9259 17.5336 16.9074 16.5148 17.9416 15.5546L18.2818 15.921C19.3042 14.9718 20.3788 14.0808 21.5006 13.253L21.2037 12.8507C22.3397 12.0123 23.5235 11.2379 24.7502 10.5325L24.9995 10.966C26.2049 10.2727 27.4522 9.64716 28.7365 9.09417L28.5388 8.63493C29.8305 8.07871 31.1593 7.59488 32.5202 7.18842L32.6633 7.66751C33.9893 7.27145 35.3463 6.94987 36.7297 6.70747L36.6434 6.21497C38.0223 5.97336 39.427 5.80934 40.8531 5.72744L40.8817 6.22662C41.5737 6.18689 42.2708 6.16675 42.9725 6.16675C43.6743 6.16675 44.3714 6.18689 45.0634 6.22662L45.092 5.72744C46.5181 5.80934 47.9228 5.97336 49.3017 6.21497L49.2154 6.70747C50.5987 6.94987 51.9557 7.27145 53.2818 7.66751L53.4249 7.18842C54.7858 7.59488 56.1146 8.07871 57.4063 8.63493L57.2086 9.09417C58.4929 9.64716 59.7402 10.2727 60.9456 10.966L61.1949 10.5325C62.4216 11.2379 63.6054 12.0123 64.7414 12.8507L64.4445 13.253C65.5663 14.0808 66.6409 14.9718 67.6633 15.921L68.0035 15.5546C69.0377 16.5148 70.0192 17.5336 70.943 18.6059L70.5642 18.9322C71.4722 19.9863 72.3237 21.0928 73.1138 22.2467L73.5263 21.9643C74.3219 23.1262 75.0561 24.3356 75.7239 25.5875L75.2828 25.8229C75.936 27.0473 76.525 28.3129 77.0451 29.615L77.5094 29.4295C78.0301 30.7332 78.4827 32.073 78.8626 33.4441L78.3807 33.5776C78.7501 34.9109 79.0498 36.2744 79.2756 37.6635L79.7691 37.5833Z" stroke="#E89D39" stroke-dasharray="4 4"/>
<path d="M84 43.4444C84 66.9067 65.3992 85.8889 42.5 85.8889C19.6008 85.8889 1 66.9067 1 43.4444C1 19.9822 19.6008 1 42.5 1C65.3992 1 84 19.9822 84 43.4444Z" stroke="#E89D39" stroke-width="2"/>
<path d="M43.4443 26.4443L43.4443 62.3332" stroke="#E89D39" stroke-width="2.5" stroke-linecap="round"/>
<path d="M25.5 44.3889H61.3889" stroke="#E89D39" stroke-width="2.5" stroke-linecap="round"/>
</svg>
