<svg width="1440" height="531" viewBox="0 0 1440 531" fill="none" xmlns="http://www.w3.org/2000/svg">
<ellipse cx="716" cy="1147" rx="2239" ry="1089" fill="#F1EFE9"/>
<path d="M2982.93 1135.99C2982.38 1136 2981.94 1136.45 2981.95 1137C2981.98 1139.5 2982 1142 2982 1144.5C2982 1146.51 2981.99 1148.53 2981.97 1150.54C2981.96 1151.03 2981.96 1151.51 2981.95 1152C2981.94 1152.55 2982.38 1153 2982.93 1153.01C2982.87 1157.34 2982.75 1161.67 2982.57 1165.99C2982.02 1165.97 2981.56 1166.4 2981.53 1166.95C2981.33 1171.93 2981.05 1176.9 2980.71 1181.86C2980.67 1182.41 2981.08 1182.88 2981.64 1182.92C2981.33 1187.23 2980.97 1191.52 2980.56 1195.81C2980.01 1195.76 2979.52 1196.16 2979.47 1196.71C2978.99 1201.66 2978.44 1206.61 2977.82 1211.54C2977.76 1212.09 2978.15 1212.59 2978.69 1212.66C2978.15 1216.94 2977.56 1221.22 2976.91 1225.49C2976.37 1225.41 2975.85 1225.78 2975.77 1226.33C2975.02 1231.25 2974.2 1236.16 2973.31 1241.06C2973.22 1241.6 2973.58 1242.12 2974.12 1242.22C2973.34 1246.47 2972.52 1250.72 2971.64 1254.96C2971.1 1254.85 2970.57 1255.19 2970.46 1255.74C2969.44 1260.59 2968.37 1265.43 2967.22 1270.26C2967.1 1270.8 2967.43 1271.34 2967.97 1271.47C2966.97 1275.66 2965.92 1279.84 2964.82 1284.02C2964.29 1283.88 2963.74 1284.2 2963.6 1284.73C2962.33 1289.55 2960.99 1294.35 2959.59 1299.14C2959.43 1299.67 2959.74 1300.23 2960.27 1300.38C2959.05 1304.53 2957.78 1308.68 2956.46 1312.81C2955.93 1312.65 2955.37 1312.94 2955.2 1313.46C2953.69 1318.17 2952.12 1322.86 2950.49 1327.55C2950.31 1328.07 2950.59 1328.64 2951.11 1328.82C2949.69 1332.88 2948.22 1336.94 2946.7 1340.99C2946.19 1340.79 2945.61 1341.06 2945.42 1341.57C2943.66 1346.24 2941.85 1350.89 2939.97 1355.54C2939.77 1356.05 2940.01 1356.63 2940.52 1356.84C2938.9 1360.84 2937.23 1364.84 2935.52 1368.83C2935.01 1368.61 2934.42 1368.84 2934.2 1369.35C2932.25 1373.88 2930.24 1378.4 2928.17 1382.9C2927.94 1383.4 2928.16 1384 2928.66 1384.23C2926.85 1388.14 2925.01 1392.04 2923.12 1395.93C2922.62 1395.69 2922.03 1395.9 2921.78 1396.39C2919.6 1400.88 2917.36 1405.35 2915.06 1409.82C2914.81 1410.31 2915 1410.91 2915.49 1411.17C2913.51 1415 2911.49 1418.83 2909.42 1422.65C2908.94 1422.38 2908.33 1422.56 2908.07 1423.05C2905.72 1427.38 2903.32 1431.7 2900.86 1436C2900.59 1436.48 2900.76 1437.09 2901.24 1437.37C2899.1 1441.1 2896.93 1444.83 2894.71 1448.55C2894.24 1448.26 2893.63 1448.42 2893.34 1448.89C2890.78 1453.18 2888.17 1457.46 2885.5 1461.72C2885.21 1462.19 2885.35 1462.81 2885.82 1463.1C2883.53 1466.76 2881.19 1470.41 2878.82 1474.06C2878.36 1473.76 2877.74 1473.89 2877.44 1474.35C2874.75 1478.47 2872.02 1482.57 2869.23 1486.67C2868.92 1487.13 2869.04 1487.75 2869.5 1488.06C2867.08 1491.61 2864.62 1495.15 2862.13 1498.69C2861.67 1498.37 2861.05 1498.48 2860.73 1498.93C2857.85 1503 2854.92 1507.07 2851.94 1511.12C2851.62 1511.56 2851.71 1512.19 2852.16 1512.52C2849.58 1516.01 2846.97 1519.5 2844.33 1522.98C2843.89 1522.65 2843.26 1522.73 2842.92 1523.17C2839.95 1527.07 2836.93 1530.96 2833.87 1534.85C2833.53 1535.28 2833.6 1535.91 2834.03 1536.25C2831.37 1539.61 2828.68 1542.97 2825.95 1546.31C2825.53 1545.97 2824.9 1546.03 2824.55 1546.46C2821.39 1550.32 2818.2 1554.17 2814.96 1558C2814.6 1558.43 2814.66 1559.06 2815.08 1559.41C2812.26 1562.75 2809.41 1566.07 2806.52 1569.39C2806.11 1569.03 2805.47 1569.07 2805.11 1569.49C2801.88 1573.19 2798.62 1576.88 2795.31 1580.56C2794.94 1580.97 2794.98 1581.6 2795.39 1581.97C2792.53 1585.14 2789.64 1588.31 2786.72 1591.47C2786.31 1591.1 2785.68 1591.12 2785.3 1591.53C2781.93 1595.17 2778.51 1598.81 2775.06 1602.43C2774.67 1602.83 2774.69 1603.47 2775.09 1603.85C2772.08 1606.99 2769.05 1610.13 2765.98 1613.26C2765.59 1612.88 2764.96 1612.88 2764.57 1613.28C2761.09 1616.82 2757.57 1620.36 2754.02 1623.89C2753.62 1624.28 2753.62 1624.91 2754.01 1625.3C2750.99 1628.29 2747.94 1631.28 2744.86 1634.26C2744.47 1633.86 2743.84 1633.85 2743.44 1634.23C2739.88 1637.67 2736.28 1641.1 2732.65 1644.52C2732.25 1644.89 2732.23 1645.53 2732.61 1645.93C2729.45 1648.89 2726.27 1651.85 2723.06 1654.8C2722.68 1654.39 2722.05 1654.36 2721.64 1654.74C2717.94 1658.13 2714.2 1661.52 2710.42 1664.89C2710.01 1665.26 2709.97 1665.89 2710.34 1666.31C2707.16 1669.14 2703.96 1671.97 2700.73 1674.79C2700.37 1674.37 2699.74 1674.33 2699.32 1674.69C2695.61 1677.93 2691.86 1681.16 2688.09 1684.38C2687.67 1684.74 2687.62 1685.37 2687.97 1685.79C2684.69 1688.58 2681.39 1691.36 2678.06 1694.13C2677.71 1693.71 2677.08 1693.65 2676.65 1694C2672.81 1697.2 2668.93 1700.39 2665.03 1703.56C2664.6 1703.91 2664.53 1704.54 2664.88 1704.97C2661.49 1707.72 2658.08 1710.46 2654.64 1713.2C2654.3 1712.77 2653.67 1712.69 2653.24 1713.04C2649.4 1716.09 2645.54 1719.13 2641.64 1722.15C2641.2 1722.49 2641.13 1723.12 2641.46 1723.56C2638.09 1726.18 2634.69 1728.79 2631.27 1731.4C2630.93 1730.96 2630.3 1730.88 2629.86 1731.21C2625.91 1734.22 2621.92 1737.22 2617.91 1740.21C2617.47 1740.54 2617.38 1741.16 2617.71 1741.61C2614.22 1744.2 2610.71 1746.78 2607.18 1749.36C2606.85 1748.92 2606.23 1748.82 2605.78 1749.14C2601.73 1752.1 2597.65 1755.04 2593.54 1757.98C2593.09 1758.3 2592.98 1758.92 2593.3 1759.37C2589.85 1761.84 2586.37 1764.29 2582.87 1766.74C2582.56 1766.29 2581.93 1766.18 2581.48 1766.5C2580.09 1767.47 2578.7 1768.44 2577.31 1769.4C2574.64 1771.26 2571.96 1773.11 2569.26 1774.96C2568.81 1775.27 2568.69 1775.89 2569.01 1776.35C2565.45 1778.78 2561.87 1781.21 2558.28 1783.63C2557.97 1783.17 2557.35 1783.05 2556.89 1783.36C2552.74 1786.15 2548.56 1788.93 2544.35 1791.7C2543.89 1792.01 2543.77 1792.63 2544.07 1793.09C2540.42 1795.49 2536.75 1797.89 2533.06 1800.28C2532.76 1799.81 2532.14 1799.68 2531.67 1799.98C2527.56 1802.64 2523.41 1805.29 2519.25 1807.94C2518.78 1808.23 2518.64 1808.85 2518.94 1809.32C2515.33 1811.6 2511.7 1813.88 2508.05 1816.16C2507.76 1815.69 2507.14 1815.54 2506.68 1815.83C2502.46 1818.46 2498.22 1821.07 2493.96 1823.68C2493.49 1823.97 2493.34 1824.58 2493.63 1825.05C2489.93 1827.31 2486.21 1829.56 2482.47 1831.81C2482.19 1831.33 2481.57 1831.18 2481.1 1831.46C2476.79 1834.05 2472.45 1836.62 2468.09 1839.19C2467.62 1839.47 2467.46 1840.08 2467.74 1840.56C2464.05 1842.73 2460.35 1844.89 2456.63 1847.04C2456.35 1846.57 2455.74 1846.4 2455.26 1846.68C2451 1849.15 2446.71 1851.6 2442.4 1854.05C2441.92 1854.32 2441.75 1854.93 2442.03 1855.41C2438.29 1857.53 2434.54 1859.65 2430.77 1861.75C2430.5 1861.27 2429.89 1861.1 2429.41 1861.37C2427.11 1862.65 2424.8 1863.93 2422.49 1865.21C2420.43 1866.35 2418.36 1867.49 2416.29 1868.63C2415.8 1868.89 2415.62 1869.5 2415.89 1869.98C2412.07 1872.08 2408.24 1874.16 2404.39 1876.24C2404.13 1875.75 2403.52 1875.57 2403.03 1875.83C2398.63 1878.2 2394.21 1880.56 2389.77 1882.91C2389.29 1883.17 2389.1 1883.78 2389.36 1884.26C2385.6 1886.25 2381.82 1888.24 2378.03 1890.21C2377.77 1889.72 2377.17 1889.53 2376.68 1889.79C2372.29 1892.07 2367.89 1894.34 2363.47 1896.61C2362.97 1896.86 2362.78 1897.46 2363.03 1897.95C2359.19 1899.92 2355.34 1901.87 2351.48 1903.82C2351.23 1903.32 2350.63 1903.13 2350.13 1903.37C2345.67 1905.62 2341.19 1907.86 2336.68 1910.08C2336.19 1910.33 2335.98 1910.93 2336.23 1911.42C2332.32 1913.36 2328.39 1915.28 2324.45 1917.2C2324.21 1916.71 2323.61 1916.5 2323.12 1916.74C2318.66 1918.91 2314.19 1921.06 2309.7 1923.21C2309.2 1923.45 2308.99 1924.05 2309.23 1924.55C2305.38 1926.39 2301.51 1928.22 2297.64 1930.05C2297.4 1929.55 2296.81 1929.33 2296.31 1929.57C2291.82 1931.68 2287.32 1933.78 2282.81 1935.87C2282.31 1936.1 2282.09 1936.69 2282.32 1937.2C2278.4 1939.01 2274.47 1940.81 2270.52 1942.61C2270.29 1942.11 2269.7 1941.89 2269.2 1942.11C2264.65 1944.19 2260.07 1946.25 2255.48 1948.31C2254.98 1948.53 2254.76 1949.13 2254.98 1949.63C2250.99 1951.41 2247 1953.19 2242.98 1954.96C2242.76 1954.45 2242.17 1954.22 2241.66 1954.45C2237.15 1956.43 2232.62 1958.41 2228.08 1960.38C2227.57 1960.6 2227.34 1961.19 2227.56 1961.7C2223.64 1963.4 2219.7 1965.09 2215.76 1966.77C2215.54 1966.27 2214.95 1966.03 2214.44 1966.25C2209.88 1968.19 2205.31 1970.13 2200.71 1972.06C2200.2 1972.27 2199.96 1972.86 2200.18 1973.37C2196.19 1975.04 2192.2 1976.7 2188.19 1978.36C2187.98 1977.85 2187.39 1977.6 2186.88 1977.82C2182.26 1979.73 2177.61 1981.63 2172.96 1983.52C2172.44 1983.73 2172.2 1984.31 2172.41 1984.82C2168.36 1986.47 2164.3 1988.1 2160.23 1989.73C2160.03 1989.22 2159.45 1988.97 2158.93 1989.17C2154.36 1991 2149.76 1992.82 2145.16 1994.64C2144.64 1994.84 2144.39 1995.42 2144.59 1995.93C2140.61 1997.5 2136.62 1999.05 2132.62 2000.61C2132.42 2000.09 2131.84 1999.83 2131.33 2000.03C2126.7 2001.82 2122.06 2003.61 2117.41 2005.38C2116.89 2005.58 2116.63 2006.16 2116.83 2006.67C2112.79 2008.21 2108.74 2009.74 2104.68 2011.26C2104.49 2010.74 2103.91 2010.48 2103.4 2010.68C2100.81 2011.65 2098.22 2012.61 2095.62 2013.58C2093.51 2014.36 2091.41 2015.14 2089.3 2015.92C2088.78 2016.11 2088.52 2016.69 2088.71 2017.2C2084.62 2018.71 2080.51 2020.21 2076.4 2021.71C2076.21 2021.19 2075.64 2020.92 2075.12 2021.11C2070.47 2022.8 2065.81 2024.48 2061.13 2026.15C2060.61 2026.33 2060.34 2026.9 2060.52 2027.42C2056.5 2028.86 2052.46 2030.29 2048.41 2031.72C2048.23 2031.2 2047.66 2030.92 2047.14 2031.1C2042.46 2032.75 2037.77 2034.39 2033.07 2036.01C2032.54 2036.19 2032.27 2036.76 2032.45 2037.28C2028.37 2038.69 2024.28 2040.1 2020.18 2041.49C2020.01 2040.97 2019.44 2040.69 2018.91 2040.87C2017.06 2041.5 2015.21 2042.13 2013.36 2042.76C2010.47 2043.73 2007.58 2044.7 2004.68 2045.67C2004.16 2045.85 2003.88 2046.42 2004.05 2046.94C1999.92 2048.32 1995.78 2049.7 1991.63 2051.07C1991.46 2050.54 1990.89 2050.26 1990.37 2050.43C1985.64 2051.99 1980.9 2053.53 1976.15 2055.08C1975.63 2055.25 1975.34 2055.81 1975.51 2056.33C1971.45 2057.65 1967.37 2058.96 1963.29 2060.26C1963.12 2059.74 1962.56 2059.45 1962.03 2059.62C1957.31 2061.12 1952.58 2062.62 1947.84 2064.11C1947.31 2064.27 1947.02 2064.83 1947.18 2065.36C1943.07 2066.65 1938.95 2067.93 1934.82 2069.21C1934.66 2068.68 1934.1 2068.38 1933.57 2068.55C1928.8 2070.02 1924.02 2071.48 1919.23 2072.94C1918.7 2073.1 1918.4 2073.65 1918.56 2074.18C1914.4 2075.44 1910.24 2076.7 1906.06 2077.95C1905.9 2077.42 1905.35 2077.12 1904.82 2077.27C1903.31 2077.72 1901.81 2078.17 1900.3 2078.62C1896.99 2079.6 1893.67 2080.58 1890.35 2081.56C1889.82 2081.71 1889.52 2082.27 1889.67 2082.8C1885.58 2084 1881.48 2085.19 1877.37 2086.38C1877.21 2085.85 1876.66 2085.55 1876.13 2085.7C1871.38 2087.07 1866.61 2088.44 1861.84 2089.79C1861.3 2089.94 1861 2090.5 1861.15 2091.03C1857.01 2092.2 1852.86 2093.37 1848.71 2094.53C1848.56 2094 1848.01 2093.69 1847.48 2093.83C1842.68 2095.17 1837.87 2096.51 1833.05 2097.83C1832.52 2097.98 1832.21 2098.53 1832.35 2099.06C1828.17 2100.2 1823.98 2101.34 1819.78 2102.48C1819.64 2101.94 1819.09 2101.63 1818.56 2101.77C1813.72 2103.08 1808.86 2104.38 1804 2105.67C1803.47 2105.81 1803.15 2106.36 1803.29 2106.89C1799.12 2108 1794.94 2109.09 1790.75 2110.19C1790.61 2109.65 1790.06 2109.33 1789.53 2109.47C1784.75 2110.72 1779.96 2111.96 1775.16 2113.18C1774.62 2113.32 1774.3 2113.87 1774.44 2114.4C1770.28 2115.47 1766.11 2116.52 1761.94 2117.57C1761.81 2117.04 1761.26 2116.71 1760.73 2116.85C1755.91 2118.06 1751.08 2119.27 1746.23 2120.46C1745.7 2120.6 1745.37 2121.14 1745.5 2121.67C1741.31 2122.71 1737.1 2123.74 1732.89 2124.77C1732.76 2124.23 1732.22 2123.9 1731.68 2124.03C1726.82 2125.21 1721.95 2126.38 1717.07 2127.55C1716.53 2127.68 1716.2 2128.22 1716.33 2128.75C1712.09 2129.76 1707.85 2130.76 1703.6 2131.76C1703.47 2131.22 1702.93 2130.89 1702.4 2131.02C1697.57 2132.15 1692.73 2133.27 1687.89 2134.38C1687.35 2134.51 1687.01 2135.04 1687.14 2135.58C1682.96 2136.54 1678.78 2137.49 1674.59 2138.44C1674.47 2137.9 1673.94 2137.56 1673.4 2137.68C1668.56 2138.77 1663.71 2139.86 1658.85 2140.94C1658.32 2141.05 1657.98 2141.59 1658.09 2142.13C1653.89 2143.06 1649.67 2143.98 1645.45 2144.9C1645.33 2144.36 1644.8 2144.02 1644.26 2144.14C1641.32 2144.78 1638.38 2145.41 1635.44 2146.04C1633.5 2146.46 1631.55 2146.88 1629.6 2147.3C1629.06 2147.41 1628.72 2147.94 1628.83 2148.48C1624.59 2149.39 1620.33 2150.28 1616.08 2151.18C1615.96 2150.64 1615.43 2150.29 1614.89 2150.4C1609.98 2151.43 1605.06 2152.45 1600.13 2153.46C1599.59 2153.57 1599.24 2154.1 1599.35 2154.64C1595.15 2155.5 1590.95 2156.35 1586.74 2157.2C1586.63 2156.66 1586.1 2156.31 1585.56 2156.42C1580.71 2157.4 1575.85 2158.36 1570.98 2159.32C1570.44 2159.43 1570.08 2159.96 1570.19 2160.5C1565.97 2161.33 1561.75 2162.15 1557.52 2162.97C1557.41 2162.43 1556.89 2162.07 1556.35 2162.18C1554.14 2162.6 1551.94 2163.03 1549.73 2163.45C1547.04 2163.97 1544.35 2164.48 1541.66 2164.99C1541.12 2165.09 1540.76 2165.61 1540.86 2166.16C1536.61 2166.96 1532.36 2167.76 1528.09 2168.55C1527.99 2168.01 1527.47 2167.65 1526.93 2167.75C1522.01 2168.66 1517.08 2169.56 1512.14 2170.46C1511.6 2170.56 1511.24 2171.08 1511.34 2171.62C1507.06 2172.4 1502.77 2173.17 1498.47 2173.93C1498.37 2173.39 1497.86 2173.03 1497.31 2173.12C1492.44 2173.99 1487.55 2174.85 1482.66 2175.7C1482.12 2175.79 1481.76 2176.31 1481.85 2176.85C1477.63 2177.59 1473.4 2178.31 1469.16 2179.03C1469.07 2178.49 1468.55 2178.12 1468.01 2178.22C1463.11 2179.05 1458.21 2179.87 1453.3 2180.69C1452.76 2180.78 1452.39 2181.3 1452.48 2181.84C1448.23 2182.55 1443.97 2183.25 1439.7 2183.94C1439.61 2183.4 1439.1 2183.03 1438.55 2183.12C1433.63 2183.92 1428.7 2184.71 1423.76 2185.49C1423.21 2185.58 1422.84 2186.09 1422.93 2186.64C1418.64 2187.32 1414.35 2187.99 1410.06 2188.66C1409.97 2188.11 1409.46 2187.74 1408.92 2187.82C1403.96 2188.59 1399 2189.35 1394.03 2190.1C1393.49 2190.19 1393.11 2190.7 1393.19 2191.24C1388.94 2191.89 1384.69 2192.52 1380.42 2193.15C1380.34 2192.61 1379.84 2192.23 1379.29 2192.31C1376.81 2192.68 1374.33 2193.04 1371.85 2193.4C1369.42 2193.76 1367 2194.11 1364.57 2194.46C1364.03 2194.54 1363.65 2195.04 1363.73 2195.59C1359.47 2196.2 1355.21 2196.81 1350.94 2197.41C1350.87 2196.86 1350.36 2196.48 1349.81 2196.56C1344.89 2197.25 1339.95 2197.94 1335.01 2198.61C1334.47 2198.69 1334.08 2199.19 1334.16 2199.74C1329.88 2200.33 1325.59 2200.91 1321.3 2201.48C1321.22 2200.93 1320.72 2200.55 1320.17 2200.62C1317.64 2200.96 1315.11 2201.29 1312.58 2201.63C1310.15 2201.95 1307.72 2202.26 1305.29 2202.58C1304.74 2202.65 1304.36 2203.15 1304.43 2203.7C1300.12 2204.26 1295.81 2204.81 1291.49 2205.36C1291.42 2204.81 1290.92 2204.42 1290.37 2204.49C1285.43 2205.12 1280.48 2205.73 1275.52 2206.34C1274.97 2206.41 1274.58 2206.91 1274.65 2207.46C1270.39 2207.98 1266.13 2208.49 1261.87 2209C1261.8 2208.46 1261.31 2208.06 1260.76 2208.13C1255.83 2208.72 1250.9 2209.3 1245.96 2209.87C1245.41 2209.93 1245.02 2210.43 1245.08 2210.98C1240.8 2211.47 1236.52 2211.96 1232.23 2212.44C1232.17 2211.9 1231.67 2211.5 1231.12 2211.56C1226.17 2212.12 1221.21 2212.67 1216.25 2213.21C1215.7 2213.27 1215.3 2213.76 1215.36 2214.31C1211.06 2214.78 1206.75 2215.24 1202.44 2215.7C1202.38 2215.15 1201.89 2214.75 1201.34 2214.81C1196.36 2215.33 1191.38 2215.85 1186.39 2216.36C1185.84 2216.42 1185.44 2216.91 1185.5 2217.46C1181.18 2217.9 1176.85 2218.33 1172.52 2218.76C1172.47 2218.21 1171.98 2217.81 1171.43 2217.86C1169.19 2218.08 1166.95 2218.3 1164.71 2218.52C1162.02 2218.78 1159.33 2219.04 1156.64 2219.3C1156.09 2219.35 1155.68 2219.84 1155.74 2220.39C1151.46 2220.79 1147.18 2221.19 1142.9 2221.59C1142.85 2221.04 1142.36 2220.63 1141.81 2220.68C1136.86 2221.14 1131.91 2221.59 1126.95 2222.03C1126.4 2222.07 1125.99 2222.56 1126.04 2223.11C1121.74 2223.49 1117.44 2223.86 1113.13 2224.23C1113.09 2223.68 1112.6 2223.27 1112.05 2223.32C1107.08 2223.74 1102.11 2224.16 1097.12 2224.57C1096.57 2224.61 1096.16 2225.1 1096.21 2225.65C1091.89 2226 1087.57 2226.35 1083.24 2226.69C1083.19 2226.14 1082.71 2225.72 1082.16 2225.77C1077.17 2226.16 1072.17 2226.54 1067.17 2226.92C1066.62 2226.96 1066.2 2227.44 1066.25 2227.99C1061.95 2228.32 1057.65 2228.63 1053.34 2228.94C1053.3 2228.39 1052.82 2227.98 1052.27 2228.02C1049.97 2228.18 1047.68 2228.35 1045.38 2228.51C1042.73 2228.69 1040.08 2228.88 1037.42 2229.06C1036.87 2229.1 1036.46 2229.58 1036.5 2230.13C1032.2 2230.42 1027.91 2230.71 1023.61 2230.99C1023.58 2230.44 1023.1 2230.02 1022.55 2230.06C1017.59 2230.38 1012.62 2230.7 1007.64 2231.01C1007.09 2231.04 1006.67 2231.52 1006.71 2232.07C1002.4 2232.34 998.081 2232.6 993.763 2232.85C993.73 2232.3 993.257 2231.88 992.706 2231.91C987.722 2232.21 982.733 2232.49 977.739 2232.77C977.188 2232.8 976.765 2233.27 976.796 2233.82C972.466 2234.06 968.132 2234.3 963.794 2234.53C963.765 2233.97 963.294 2233.55 962.743 2233.58C957.739 2233.84 952.731 2234.09 947.718 2234.34C947.166 2234.37 946.741 2234.84 946.768 2235.39C942.485 2235.6 938.199 2235.8 933.909 2236C933.884 2235.45 933.416 2235.02 932.864 2235.05C930.615 2235.15 928.365 2235.25 926.114 2235.35C923.405 2235.47 920.694 2235.59 917.983 2235.71C917.431 2235.73 917.003 2236.2 917.026 2236.75C912.725 2236.93 908.42 2237.11 904.112 2237.28C904.091 2236.73 903.625 2236.3 903.074 2236.32C898.099 2236.52 893.121 2236.7 888.137 2236.89C887.585 2236.91 887.154 2237.37 887.174 2237.92C882.855 2238.08 878.533 2238.23 874.207 2238.37C874.188 2237.82 873.726 2237.39 873.174 2237.41C870.773 2237.48 868.37 2237.56 865.967 2237.64C863.374 2237.72 860.78 2237.8 858.184 2237.88C857.632 2237.89 857.198 2238.36 857.215 2238.91C852.878 2239.04 848.538 2239.16 844.194 2239.28C844.18 2238.72 843.72 2238.29 843.168 2238.3C838.177 2238.44 833.182 2238.56 828.182 2238.68C827.63 2238.69 827.193 2239.15 827.206 2239.7C822.915 2239.8 818.621 2239.9 814.324 2239.99C814.312 2239.44 813.856 2239 813.303 2239.01C808.34 2239.11 803.372 2239.2 798.4 2239.29C797.848 2239.3 797.408 2239.75 797.417 2240.31C793.11 2240.38 788.799 2240.45 784.486 2240.51C784.478 2239.96 784.024 2239.52 783.472 2239.52C778.491 2239.59 773.507 2239.66 768.519 2239.71C767.967 2239.72 767.524 2240.17 767.53 2240.72C763.207 2240.77 758.88 2240.81 754.551 2240.84C754.547 2240.29 754.095 2239.85 753.543 2239.85C748.547 2239.89 743.547 2239.92 738.543 2239.95C737.991 2239.95 737.545 2240.4 737.548 2240.95C733.209 2240.97 728.867 2240.98 724.522 2240.99C724.521 2240.44 724.073 2239.99 723.52 2239.99C721.014 2240 718.508 2240 716 2240L713.147 2240C711.591 2240 710.035 2240 708.479 2239.99C707.927 2239.99 707.479 2240.44 707.478 2240.99C703.133 2240.98 698.791 2240.97 694.452 2240.95C694.455 2240.4 694.009 2239.95 693.457 2239.95C688.453 2239.92 683.453 2239.89 678.457 2239.85C677.905 2239.85 677.453 2240.29 677.449 2240.84C673.12 2240.81 668.793 2240.77 664.47 2240.72C664.476 2240.17 664.033 2239.72 663.481 2239.71C661.341 2239.69 659.201 2239.66 657.062 2239.64C654.217 2239.6 651.372 2239.56 648.528 2239.52C647.976 2239.52 647.522 2239.96 647.514 2240.51C643.201 2240.45 638.89 2240.38 634.583 2240.31C634.592 2239.75 634.152 2239.3 633.6 2239.29C631.539 2239.25 629.479 2239.22 627.42 2239.18C624.51 2239.12 621.603 2239.07 618.697 2239.01C618.144 2239 617.688 2239.44 617.676 2239.99C613.379 2239.9 609.085 2239.8 604.794 2239.7C604.807 2239.15 604.37 2238.69 603.818 2238.68C600.61 2238.6 597.403 2238.53 594.199 2238.44C592.409 2238.4 590.62 2238.35 588.832 2238.3C588.28 2238.29 587.82 2238.72 587.805 2239.28C583.462 2239.16 579.122 2239.04 574.785 2238.91C574.802 2238.36 574.368 2237.89 573.816 2237.88C568.814 2237.73 563.818 2237.57 558.826 2237.41C558.274 2237.39 557.812 2237.82 557.793 2238.37C553.467 2238.23 549.145 2238.08 544.825 2237.92C544.845 2237.37 544.414 2236.91 543.862 2236.89C538.879 2236.7 533.9 2236.52 528.926 2236.32C528.374 2236.3 527.909 2236.73 527.887 2237.28C523.579 2237.11 519.275 2236.93 514.974 2236.75C514.997 2236.2 514.569 2235.73 514.017 2235.71C509.052 2235.49 504.092 2235.27 499.136 2235.05C498.584 2235.02 498.116 2235.45 498.091 2236C493.801 2235.8 489.515 2235.6 485.232 2235.39C485.259 2234.84 484.834 2234.37 484.282 2234.34C479.269 2234.09 474.261 2233.84 469.257 2233.58C468.705 2233.55 468.235 2233.97 468.206 2234.53C463.868 2234.3 459.534 2234.06 455.204 2233.82C455.234 2233.27 454.812 2232.8 454.261 2232.77C449.267 2232.49 444.278 2232.21 439.294 2231.91C438.743 2231.88 438.27 2232.3 438.237 2232.85C433.919 2232.6 429.604 2232.34 425.293 2232.07C425.328 2231.52 424.909 2231.04 424.357 2231.01C419.384 2230.7 414.415 2230.38 409.451 2230.06C408.9 2230.02 408.424 2230.44 408.388 2230.99C404.09 2230.71 399.795 2230.42 395.504 2230.13C395.542 2229.58 395.126 2229.1 394.575 2229.06C389.622 2228.72 384.673 2228.37 379.73 2228.02C379.179 2227.98 378.701 2228.39 378.661 2228.94C374.355 2228.63 370.052 2228.32 365.754 2227.99C365.795 2227.44 365.382 2226.96 364.832 2226.92C363.204 2226.8 361.576 2226.68 359.95 2226.55C356.576 2226.29 353.205 2226.03 349.837 2225.77C349.286 2225.72 348.805 2226.14 348.762 2226.69C344.434 2226.35 340.11 2226 335.79 2225.65C335.835 2225.1 335.426 2224.61 334.875 2224.57C329.893 2224.16 324.917 2223.74 319.947 2223.32C319.396 2223.27 318.912 2223.68 318.865 2224.23C314.559 2223.86 310.257 2223.49 305.959 2223.11C306.008 2222.56 305.602 2222.07 305.052 2222.03C300.092 2221.59 295.138 2221.14 290.19 2220.68C289.641 2220.63 289.154 2221.04 289.103 2221.59C284.819 2221.19 280.539 2220.79 276.264 2220.39C276.316 2219.84 275.913 2219.35 275.363 2219.3C273.216 2219.09 271.071 2218.89 268.926 2218.68C266.139 2218.41 263.354 2218.14 260.571 2217.86C260.021 2217.81 259.532 2218.21 259.478 2218.76C255.148 2218.33 250.822 2217.9 246.501 2217.46C246.557 2216.91 246.157 2216.42 245.608 2216.36C240.619 2215.85 235.637 2215.33 230.66 2214.81C230.111 2214.75 229.619 2215.15 229.561 2215.7C225.248 2215.24 220.939 2214.78 216.635 2214.31C216.695 2213.76 216.299 2213.27 215.75 2213.21C210.786 2212.67 205.828 2212.12 200.876 2211.56C200.327 2211.5 199.832 2211.9 199.771 2212.44C195.482 2211.96 191.197 2211.47 186.918 2210.98C186.981 2210.43 186.588 2209.93 186.04 2209.87C181.1 2209.3 176.167 2208.72 171.241 2208.13C170.693 2208.06 170.195 2208.46 170.129 2209C165.865 2208.49 161.606 2207.98 157.351 2207.46C157.418 2206.91 157.029 2206.41 156.48 2206.34C151.524 2205.73 146.574 2205.12 141.631 2204.49C141.083 2204.42 140.583 2204.81 140.513 2205.36C136.194 2204.81 131.88 2204.26 127.571 2203.7C127.642 2203.15 127.256 2202.65 126.708 2202.58C121.741 2201.94 116.78 2201.28 111.827 2200.62C111.279 2200.55 110.776 2200.93 110.703 2201.48C106.41 2200.91 102.123 2200.33 97.8405 2199.74C97.9154 2199.19 97.5326 2198.69 96.9855 2198.61C92.0454 2197.94 87.1121 2197.25 82.1858 2196.56C81.6389 2196.48 81.1332 2196.86 81.0563 2197.41C76.7905 2196.81 72.5299 2196.2 68.2745 2195.59C68.3534 2195.04 67.9741 2194.54 67.4275 2194.46C62.515 2193.75 57.6095 2193.03 52.7111 2192.31C52.1648 2192.23 51.6564 2192.61 51.5757 2193.15C47.3141 2192.52 43.0579 2191.89 38.807 2191.24C38.8898 2190.7 38.5142 2190.19 37.968 2190.1C32.999 2189.35 28.0374 2188.59 23.0833 2187.82C22.5375 2187.74 22.0264 2188.11 21.9418 2188.66C17.6469 2187.99 13.3575 2187.32 9.07385 2186.64C9.16052 2186.09 8.78857 2185.58 8.24316 2185.49C3.30383 2184.71 -1.62793 2183.92 -6.55225 2183.12C-7.09729 2183.03 -7.61108 2183.4 -7.69971 2183.94C-11.9653 2183.25 -16.2252 2182.55 -20.4795 2181.84C-20.3889 2181.3 -20.7572 2180.78 -21.302 2180.69C-26.2109 2179.87 -31.1123 2179.05 -36.006 2178.22C-36.5504 2178.12 -37.0669 2178.49 -37.1594 2179.03C-41.3954 2178.31 -45.6257 2177.59 -49.8501 2176.85C-49.7555 2176.31 -50.1199 2175.79 -50.6641 2175.7C-55.5544 2174.85 -60.4371 2173.99 -65.3119 2173.12C-65.8557 2173.03 -66.3748 2173.39 -66.4713 2173.93C-70.7666 2173.17 -75.0559 2172.4 -79.339 2171.62C-79.2404 2171.08 -79.601 2170.56 -80.1443 2170.46C-85.0803 2169.56 -90.0082 2168.66 -94.9277 2167.75C-95.4707 2167.65 -95.9926 2168.01 -96.0933 2168.55C-100.357 2167.76 -104.614 2166.96 -108.865 2166.16C-108.762 2165.61 -109.119 2165.09 -109.661 2164.99C-114.564 2164.06 -119.459 2163.12 -124.345 2162.18C-124.888 2162.07 -125.412 2162.43 -125.517 2162.97C-129.748 2162.15 -133.973 2161.33 -138.191 2160.5C-138.084 2159.96 -138.437 2159.43 -138.979 2159.32C-143.848 2158.36 -148.709 2157.4 -153.562 2156.42C-154.103 2156.31 -154.63 2156.66 -154.739 2157.2C-158.95 2156.35 -163.154 2155.5 -167.351 2154.64C-167.24 2154.1 -167.589 2153.57 -168.13 2153.46C-173.06 2152.45 -177.981 2151.43 -182.893 2150.4C-183.433 2150.29 -183.963 2150.64 -184.076 2151.18C-188.335 2150.28 -192.587 2149.39 -196.832 2148.48C-196.717 2147.94 -197.062 2147.41 -197.602 2147.3C-202.495 2146.25 -207.38 2145.2 -212.256 2144.14C-212.796 2144.02 -213.328 2144.36 -213.445 2144.9C-217.669 2143.98 -221.885 2143.06 -226.095 2142.13C-225.976 2141.59 -226.316 2141.05 -226.855 2140.94C-231.712 2139.86 -236.56 2138.77 -241.399 2137.68C-241.938 2137.56 -242.473 2137.9 -242.595 2138.44C-246.782 2137.49 -250.963 2136.54 -255.137 2135.58C-255.013 2135.04 -255.349 2134.51 -255.887 2134.38C-260.733 2133.27 -265.569 2132.15 -270.396 2131.02C-270.934 2130.89 -271.472 2131.22 -271.598 2131.76C-275.849 2130.76 -280.092 2129.76 -284.328 2128.75C-284.2 2128.22 -284.531 2127.68 -285.068 2127.55C-289.949 2126.38 -294.821 2125.21 -299.682 2124.03C-300.218 2123.9 -300.759 2124.23 -300.889 2124.77C-305.102 2123.74 -309.307 2122.71 -313.504 2121.67C-313.371 2121.14 -313.698 2120.6 -314.234 2120.46C-319.075 2119.27 -323.906 2118.06 -328.727 2116.85C-329.262 2116.71 -329.806 2117.04 -329.941 2117.57C-334.114 2116.52 -338.28 2115.47 -342.438 2114.4C-342.301 2113.87 -342.624 2113.32 -343.159 2113.18C-347.959 2111.95 -352.749 2110.72 -357.529 2109.47C-358.063 2109.33 -358.609 2109.65 -358.749 2110.19C-362.938 2109.09 -367.119 2107.99 -371.292 2106.89C-371.15 2106.36 -371.468 2105.81 -372.002 2105.67C-376.865 2104.38 -381.718 2103.08 -386.559 2101.77C-387.092 2101.63 -387.641 2101.94 -387.785 2102.48C-391.982 2101.34 -396.171 2100.2 -400.351 2099.06C-400.205 2098.53 -400.519 2097.98 -401.051 2097.83C-405.871 2096.51 -410.679 2095.17 -415.477 2093.83C-416.009 2093.69 -416.561 2094 -416.709 2094.53C-420.864 2093.37 -425.01 2092.2 -429.147 2091.03C-428.996 2090.5 -429.305 2089.94 -429.836 2089.79C-434.611 2088.44 -439.375 2087.07 -444.128 2085.7C-444.659 2085.55 -445.213 2085.85 -445.366 2086.38C-449.478 2085.19 -453.581 2084 -457.675 2082.8C-457.519 2082.27 -457.823 2081.71 -458.353 2081.56C-463.186 2080.14 -468.007 2078.71 -472.817 2077.27C-473.346 2077.12 -473.903 2077.42 -474.061 2077.95C-478.238 2076.7 -482.405 2075.44 -486.563 2074.18C-486.403 2073.65 -486.701 2073.1 -487.23 2072.94C-492.022 2071.48 -496.802 2070.02 -501.57 2068.55C-502.098 2068.38 -502.658 2068.68 -502.821 2069.21C-506.951 2067.93 -511.072 2066.65 -515.183 2065.36C-515.018 2064.83 -515.311 2064.27 -515.838 2064.11C-520.582 2062.62 -525.313 2061.12 -530.032 2059.62C-530.558 2059.45 -531.121 2059.74 -531.289 2060.26C-535.372 2058.96 -539.445 2057.65 -543.509 2056.33C-543.339 2055.81 -543.627 2055.25 -544.152 2055.08C-548.904 2053.53 -553.644 2051.99 -558.37 2050.43C-558.895 2050.26 -559.46 2050.54 -559.633 2051.07C-563.782 2049.7 -567.922 2048.32 -572.051 2046.94C-571.876 2046.42 -572.158 2045.85 -572.682 2045.67C-577.439 2044.08 -582.183 2042.48 -586.914 2040.87C-587.437 2040.69 -588.005 2040.97 -588.183 2041.49C-592.282 2040.1 -596.37 2038.69 -600.449 2037.28C-600.268 2036.76 -600.545 2036.19 -601.067 2036.01C-605.771 2034.39 -610.462 2032.75 -615.139 2031.1C-615.66 2030.92 -616.231 2031.2 -616.414 2031.72C-620.461 2030.29 -624.498 2028.86 -628.525 2027.42C-628.339 2026.9 -628.61 2026.33 -629.13 2026.15C-633.806 2024.48 -638.468 2022.8 -643.117 2021.11C-643.636 2020.92 -644.21 2021.19 -644.398 2021.71C-648.513 2020.21 -652.616 2018.71 -656.709 2017.2C-656.517 2016.69 -656.783 2016.11 -657.301 2015.92C-662.014 2014.18 -666.713 2012.43 -671.397 2010.68C-671.914 2010.48 -672.491 2010.74 -672.685 2011.26C-676.743 2009.74 -680.791 2008.21 -684.828 2006.67C-684.631 2006.16 -684.89 2005.58 -685.406 2005.38C-690.061 2003.61 -694.701 2001.82 -699.326 2000.03C-699.841 1999.83 -700.421 2000.09 -700.62 2000.61C-704.622 1999.05 -708.613 1997.5 -712.593 1995.93C-712.391 1995.42 -712.644 1994.84 -713.158 1994.64C-717.765 1992.82 -722.357 1991 -726.934 1989.17C-727.446 1988.97 -728.028 1989.22 -728.233 1989.73C-732.303 1988.1 -736.36 1986.47 -740.406 1984.82C-740.198 1984.31 -740.444 1983.73 -740.956 1983.52C-745.614 1981.63 -750.256 1979.73 -754.882 1977.82C-755.393 1977.6 -755.977 1977.85 -756.188 1978.36C-760.197 1976.7 -764.193 1975.04 -768.177 1973.37C-767.963 1972.86 -768.203 1972.27 -768.712 1972.06C-773.306 1970.13 -777.883 1968.19 -782.445 1966.25C-782.953 1966.03 -783.54 1966.27 -783.757 1966.77C-787.703 1965.09 -791.637 1963.4 -795.559 1961.7C-795.34 1961.19 -795.572 1960.6 -796.079 1960.38C-800.624 1958.41 -805.153 1956.43 -809.665 1954.45C-810.17 1954.22 -810.76 1954.45 -810.983 1954.96C-814.996 1953.19 -818.995 1951.41 -822.981 1949.63C-822.755 1949.13 -822.981 1948.53 -823.485 1948.31C-828.074 1946.25 -832.645 1944.19 -837.199 1942.11C-837.702 1941.89 -838.295 1942.11 -838.524 1942.61C-842.469 1940.81 -846.401 1939.01 -850.319 1937.2C-850.087 1936.69 -850.306 1936.1 -850.807 1935.87C-855.325 1933.78 -859.825 1931.68 -864.307 1929.57C-864.807 1929.33 -865.402 1929.55 -865.638 1930.05C-869.515 1928.22 -873.379 1926.39 -877.229 1924.55C-876.991 1924.05 -877.201 1923.45 -877.7 1923.21C-882.19 1921.06 -886.662 1918.91 -891.115 1916.74C-891.612 1916.5 -892.21 1916.71 -892.452 1917.2C-896.392 1915.28 -900.318 1913.36 -904.23 1911.42C-903.985 1910.93 -904.188 1910.33 -904.682 1910.08C-909.185 1907.86 -913.669 1905.62 -918.133 1903.37C-918.626 1903.13 -919.227 1903.32 -919.476 1903.82C-923.342 1901.87 -927.194 1899.92 -931.031 1897.95C-930.779 1897.46 -930.974 1896.86 -931.465 1896.61C-935.89 1894.34 -940.294 1892.07 -944.679 1889.79C-945.169 1889.53 -945.773 1889.72 -946.028 1890.21C-949.819 1888.24 -953.596 1886.25 -957.358 1884.26C-957.099 1883.78 -957.286 1883.17 -957.774 1882.91C-962.215 1880.56 -966.635 1878.2 -971.034 1875.83C-971.52 1875.57 -972.127 1875.75 -972.389 1876.24C-976.239 1874.16 -980.073 1872.07 -983.89 1869.98C-983.625 1869.5 -983.802 1868.89 -984.286 1868.63C-988.682 1866.22 -993.057 1863.8 -997.409 1861.37C-997.891 1861.1 -998.5 1861.27 -998.77 1861.75C-1002.54 1859.65 -1006.29 1857.53 -1010.03 1855.41C-1009.75 1854.93 -1009.92 1854.32 -1010.4 1854.05C-1014.71 1851.6 -1019 1849.14 -1023.26 1846.68C-1023.74 1846.4 -1024.35 1846.57 -1024.63 1847.04C-1028.35 1844.89 -1032.05 1842.73 -1035.74 1840.56C-1035.46 1840.08 -1035.62 1839.47 -1036.09 1839.19C-1040.45 1836.62 -1044.79 1834.05 -1049.1 1831.46C-1049.57 1831.18 -1050.19 1831.33 -1050.47 1831.81C-1054.21 1829.56 -1057.93 1827.31 -1061.63 1825.05C-1061.34 1824.58 -1061.49 1823.97 -1061.96 1823.68C-1066.22 1821.07 -1070.46 1818.46 -1074.68 1815.83C-1075.15 1815.54 -1075.76 1815.69 -1076.05 1816.16C-1079.7 1813.88 -1083.33 1811.6 -1086.94 1809.31C-1086.64 1808.85 -1086.78 1808.23 -1087.25 1807.93C-1091.42 1805.29 -1095.56 1802.64 -1099.67 1799.98C-1100.14 1799.68 -1100.76 1799.81 -1101.06 1800.28C-1104.75 1797.89 -1108.42 1795.49 -1112.07 1793.09C-1111.77 1792.63 -1111.89 1792.01 -1112.35 1791.7C-1116.56 1788.93 -1120.74 1786.15 -1124.89 1783.36C-1125.35 1783.05 -1125.97 1783.17 -1126.28 1783.63C-1129.87 1781.21 -1133.45 1778.78 -1137.01 1776.35C-1136.69 1775.89 -1136.81 1775.27 -1137.26 1774.96C-1141.36 1772.15 -1145.44 1769.33 -1149.48 1766.49C-1149.93 1766.18 -1150.56 1766.29 -1150.87 1766.74C-1154.37 1764.29 -1157.85 1761.83 -1161.3 1759.37C-1160.98 1758.92 -1161.09 1758.3 -1161.54 1757.98C-1165.65 1755.04 -1169.73 1752.1 -1173.78 1749.14C-1174.23 1748.82 -1174.85 1748.92 -1175.18 1749.36C-1178.71 1746.78 -1182.22 1744.2 -1185.71 1741.61C-1185.38 1741.16 -1185.47 1740.54 -1185.91 1740.21C-1189.92 1737.22 -1193.91 1734.22 -1197.86 1731.21C-1198.3 1730.88 -1198.93 1730.96 -1199.27 1731.4C-1202.69 1728.79 -1206.09 1726.18 -1209.46 1723.56C-1209.13 1723.12 -1209.2 1722.49 -1209.64 1722.15C-1213.54 1719.12 -1217.4 1716.09 -1221.24 1713.04C-1221.67 1712.69 -1222.3 1712.77 -1222.64 1713.2C-1226.08 1710.46 -1229.49 1707.72 -1232.88 1704.97C-1232.53 1704.54 -1232.6 1703.91 -1233.03 1703.56C-1236.94 1700.39 -1240.81 1697.2 -1244.65 1694C-1245.08 1693.65 -1245.71 1693.71 -1246.06 1694.13C-1249.39 1691.36 -1252.69 1688.58 -1255.97 1685.79C-1255.62 1685.37 -1255.67 1684.73 -1256.09 1684.38C-1259.87 1681.16 -1263.61 1677.93 -1267.32 1674.69C-1267.74 1674.33 -1268.37 1674.37 -1268.73 1674.79C-1271.96 1671.97 -1275.16 1669.14 -1278.34 1666.31C-1277.97 1665.89 -1278.01 1665.26 -1278.42 1664.89C-1282.2 1661.52 -1285.94 1658.13 -1289.64 1654.74C-1290.05 1654.36 -1290.68 1654.39 -1291.06 1654.8C-1294.27 1651.85 -1297.45 1648.89 -1300.61 1645.93C-1300.23 1645.53 -1300.25 1644.89 -1300.65 1644.51C-1304.28 1641.1 -1307.88 1637.67 -1311.44 1634.23C-1311.84 1633.85 -1312.47 1633.86 -1312.86 1634.26C-1315.94 1631.28 -1318.99 1628.29 -1322.01 1625.3C-1321.62 1624.91 -1321.62 1624.27 -1322.02 1623.89C-1325.57 1620.36 -1329.09 1616.82 -1332.57 1613.28C-1332.96 1612.88 -1333.59 1612.88 -1333.98 1613.26C-1337.05 1610.13 -1340.08 1606.99 -1343.09 1603.85C-1342.69 1603.47 -1342.68 1602.83 -1343.06 1602.43C-1346.51 1598.81 -1349.93 1595.17 -1353.3 1591.53C-1353.68 1591.12 -1354.31 1591.1 -1354.72 1591.47C-1357.64 1588.31 -1360.53 1585.14 -1363.39 1581.97C-1362.98 1581.6 -1362.94 1580.97 -1363.31 1580.56C-1366.62 1576.88 -1369.89 1573.19 -1373.11 1569.49C-1373.47 1569.07 -1374.11 1569.03 -1374.52 1569.39C-1377.41 1566.07 -1380.26 1562.75 -1383.08 1559.41C-1382.66 1559.06 -1382.6 1558.43 -1382.96 1558C-1386.2 1554.17 -1389.39 1550.32 -1392.55 1546.46C-1392.9 1546.03 -1393.53 1545.97 -1393.95 1546.31C-1396.68 1542.97 -1399.37 1539.61 -1402.03 1536.25C-1401.6 1535.91 -1401.53 1535.28 -1401.87 1534.85C-1404.93 1530.96 -1407.95 1527.07 -1410.92 1523.17C-1411.26 1522.73 -1411.89 1522.65 -1412.33 1522.98C-1414.97 1519.5 -1417.58 1516.01 -1420.16 1512.52C-1419.71 1512.19 -1419.62 1511.56 -1419.94 1511.12C-1422.92 1507.07 -1425.85 1503 -1428.73 1498.93C-1429.05 1498.48 -1429.68 1498.37 -1430.13 1498.69C-1432.62 1495.15 -1435.08 1491.61 -1437.5 1488.06C-1437.04 1487.75 -1436.92 1487.13 -1437.23 1486.67C-1440.02 1482.57 -1442.75 1478.47 -1445.44 1474.35C-1445.74 1473.89 -1446.36 1473.76 -1446.82 1474.06C-1449.19 1470.41 -1451.53 1466.76 -1453.82 1463.1C-1453.35 1462.81 -1453.21 1462.19 -1453.5 1461.72C-1456.17 1457.46 -1458.78 1453.18 -1461.34 1448.89C-1461.63 1448.42 -1462.24 1448.26 -1462.71 1448.55C-1464.93 1444.83 -1467.1 1441.1 -1469.24 1437.37C-1468.76 1437.09 -1468.59 1436.48 -1468.86 1436C-1471.32 1431.69 -1473.72 1427.38 -1476.07 1423.05C-1476.33 1422.56 -1476.94 1422.38 -1477.42 1422.65C-1479.49 1418.83 -1481.51 1415 -1483.49 1411.17C-1483 1410.91 -1482.81 1410.31 -1483.06 1409.82C-1485.36 1405.35 -1487.6 1400.88 -1489.78 1396.39C-1490.03 1395.9 -1490.62 1395.69 -1491.12 1395.93C-1493.01 1392.04 -1494.86 1388.14 -1496.66 1384.23C-1496.16 1384 -1495.94 1383.4 -1496.17 1382.9C-1498.24 1378.39 -1500.25 1373.88 -1502.2 1369.35C-1502.42 1368.84 -1503.01 1368.61 -1503.52 1368.83C-1505.23 1364.84 -1506.9 1360.84 -1508.53 1356.84C-1508.01 1356.63 -1507.77 1356.05 -1507.97 1355.54C-1509.85 1350.89 -1511.66 1346.24 -1513.42 1341.57C-1513.61 1341.06 -1514.19 1340.79 -1514.7 1340.99C-1516.22 1336.94 -1517.69 1332.88 -1519.11 1328.82C-1518.59 1328.64 -1518.31 1328.07 -1518.49 1327.55C-1520.12 1322.86 -1521.69 1318.17 -1523.2 1313.46C-1523.37 1312.93 -1523.93 1312.65 -1524.46 1312.81C-1525.78 1308.68 -1527.04 1304.53 -1528.27 1300.38C-1527.74 1300.23 -1527.43 1299.67 -1527.59 1299.14C-1528.99 1294.35 -1530.33 1289.55 -1531.6 1284.73C-1531.74 1284.2 -1532.29 1283.88 -1532.82 1284.02C-1533.92 1279.84 -1534.97 1275.66 -1535.97 1271.47C-1535.43 1271.34 -1535.1 1270.8 -1535.22 1270.26C-1536.37 1265.43 -1537.44 1260.59 -1538.46 1255.73C-1538.57 1255.19 -1539.1 1254.85 -1539.64 1254.96C-1540.52 1250.72 -1541.34 1246.47 -1542.12 1242.22C-1541.58 1242.12 -1541.22 1241.6 -1541.31 1241.06C-1542.2 1236.16 -1543.02 1231.25 -1543.77 1226.33C-1543.85 1225.78 -1544.36 1225.41 -1544.91 1225.49C-1545.55 1221.22 -1546.15 1216.94 -1546.69 1212.66C-1546.14 1212.59 -1545.76 1212.09 -1545.82 1211.54C-1546.44 1206.61 -1546.99 1201.66 -1547.47 1196.71C-1547.52 1196.16 -1548.01 1195.76 -1548.56 1195.81C-1548.97 1191.52 -1549.33 1187.22 -1549.63 1182.92C-1549.08 1182.88 -1548.67 1182.41 -1548.71 1181.85C-1549.05 1176.89 -1549.33 1171.93 -1549.53 1166.95C-1549.56 1166.4 -1550.02 1165.97 -1550.57 1165.99C-1550.74 1161.67 -1550.87 1157.34 -1550.93 1153.01C-1550.38 1153 -1549.94 1152.55 -1549.95 1152C-1549.98 1149.5 -1550 1147 -1550 1144.5C-1550 1142 -1549.98 1139.5 -1549.95 1137C-1549.94 1136.45 -1550.38 1136 -1550.93 1135.99C-1550.87 1131.66 -1550.74 1127.33 -1550.57 1123.01C-1550.02 1123.03 -1549.56 1122.6 -1549.53 1122.05C-1549.33 1117.07 -1549.05 1112.1 -1548.71 1107.14C-1548.67 1106.59 -1549.08 1106.12 -1549.63 1106.08C-1549.33 1101.78 -1548.97 1097.48 -1548.56 1093.19C-1548.01 1093.24 -1547.52 1092.84 -1547.47 1092.29C-1546.99 1087.34 -1546.44 1082.39 -1545.82 1077.46C-1545.76 1076.91 -1546.14 1076.41 -1546.69 1076.34C-1546.15 1072.06 -1545.55 1067.78 -1544.91 1063.51C-1544.36 1063.59 -1543.85 1063.22 -1543.77 1062.67C-1543.02 1057.75 -1542.2 1052.84 -1541.31 1047.94C-1541.22 1047.4 -1541.58 1046.88 -1542.12 1046.78C-1541.34 1042.53 -1540.52 1038.28 -1539.64 1034.04C-1539.1 1034.15 -1538.57 1033.81 -1538.46 1033.26C-1537.44 1028.41 -1536.37 1023.57 -1535.22 1018.74C-1535.1 1018.2 -1535.43 1017.66 -1535.97 1017.53C-1534.97 1013.34 -1533.92 1009.16 -1532.82 1004.98C-1532.29 1005.12 -1531.74 1004.8 -1531.6 1004.27C-1530.33 999.454 -1528.99 994.65 -1527.59 989.857C-1527.43 989.327 -1527.74 988.772 -1528.27 988.616C-1527.04 984.466 -1525.78 980.322 -1524.46 976.186C-1523.93 976.354 -1523.37 976.065 -1523.2 975.539C-1521.69 970.834 -1520.12 966.138 -1518.49 961.453C-1518.31 960.931 -1518.59 960.362 -1519.11 960.18C-1517.69 956.116 -1516.22 952.06 -1514.7 948.011C-1514.19 948.205 -1513.61 947.943 -1513.42 947.427C-1511.66 942.761 -1509.85 938.106 -1507.97 933.462C-1507.77 932.95 -1508.01 932.368 -1508.52 932.161C-1506.9 928.157 -1505.23 924.16 -1503.52 920.172C-1503.01 920.39 -1502.42 920.157 -1502.2 919.65C-1500.25 915.122 -1498.24 910.605 -1496.17 906.098C-1495.94 905.596 -1496.16 905.003 -1496.66 904.772C-1494.85 900.863 -1493.01 896.962 -1491.12 893.07C-1490.62 893.311 -1490.03 893.104 -1489.78 892.608C-1487.6 888.122 -1485.36 883.646 -1483.06 879.181C-1482.81 878.691 -1483 878.088 -1483.49 877.835C-1481.51 874 -1479.49 870.173 -1477.42 866.354C-1476.94 866.617 -1476.33 866.437 -1476.07 865.951C-1473.72 861.623 -1471.32 857.305 -1468.86 852.997C-1468.59 852.517 -1468.76 851.907 -1469.24 851.634C-1467.1 847.898 -1464.93 844.171 -1462.71 840.452C-1462.24 840.735 -1461.63 840.58 -1461.34 840.106C-1458.78 835.82 -1456.17 831.544 -1453.5 827.28C-1453.21 826.811 -1453.35 826.195 -1453.82 825.902C-1451.53 822.24 -1449.19 818.587 -1446.82 814.942C-1446.36 815.243 -1445.74 815.113 -1445.44 814.65C-1442.75 810.533 -1440.01 806.426 -1437.23 802.33C-1436.92 801.873 -1437.04 801.251 -1437.49 800.941C-1435.07 797.39 -1432.62 793.847 -1430.13 790.312C-1429.67 790.631 -1429.05 790.523 -1428.73 790.073C-1425.85 785.998 -1422.92 781.933 -1419.94 777.88C-1419.62 777.435 -1419.71 776.81 -1420.16 776.482C-1417.58 772.986 -1414.97 769.498 -1412.32 766.018C-1411.89 766.352 -1411.26 766.267 -1410.92 765.828C-1407.95 761.926 -1404.93 758.035 -1401.87 754.154C-1401.53 753.721 -1401.6 753.092 -1402.03 752.75C-1399.37 749.387 -1396.68 746.032 -1393.95 742.686C-1393.52 743.035 -1392.9 742.971 -1392.55 742.543C-1389.39 738.683 -1386.2 734.834 -1382.96 730.996C-1382.6 730.574 -1382.66 729.944 -1383.08 729.587C-1380.26 726.254 -1377.41 722.928 -1374.52 719.611C-1374.1 719.974 -1373.47 719.93 -1373.11 719.514C-1369.88 715.814 -1366.62 712.123 -1363.31 708.443C-1362.94 708.032 -1362.98 707.4 -1363.39 707.031C-1360.53 703.856 -1357.64 700.688 -1354.72 697.528C-1354.31 697.903 -1353.68 697.878 -1353.3 697.473C-1349.93 693.827 -1346.51 690.192 -1343.06 686.567C-1342.67 686.167 -1342.69 685.534 -1343.09 685.153C-1340.08 682.006 -1337.05 678.868 -1333.98 675.737C-1333.59 676.124 -1332.96 676.118 -1332.57 675.724C-1329.09 672.177 -1325.57 668.64 -1322.02 665.114C-1321.62 664.725 -1321.62 664.092 -1322.01 663.7C-1318.99 660.707 -1315.93 657.721 -1312.86 654.744C-1312.47 655.141 -1311.84 655.152 -1311.44 654.768C-1307.88 651.33 -1304.28 647.902 -1300.65 644.485C-1300.25 644.107 -1300.23 643.474 -1300.61 643.071C-1297.45 640.107 -1294.27 637.151 -1291.06 634.202C-1290.68 634.609 -1290.05 634.637 -1289.64 634.264C-1285.94 630.867 -1282.2 627.481 -1278.42 624.106C-1278.01 623.738 -1277.97 623.106 -1278.34 622.694C-1275.16 619.859 -1271.96 617.031 -1268.73 614.212C-1268.37 614.628 -1267.74 614.671 -1267.32 614.308C-1263.61 611.07 -1259.86 607.841 -1256.09 604.623C-1255.67 604.265 -1255.62 603.634 -1255.97 603.213C-1252.69 600.424 -1249.39 597.643 -1246.06 594.869C-1245.71 595.294 -1245.08 595.352 -1244.65 594.999C-1240.81 591.801 -1236.93 588.613 -1233.03 585.436C-1232.6 585.087 -1232.53 584.457 -1232.88 584.029C-1229.49 581.278 -1226.08 578.536 -1222.64 575.801C-1222.3 576.233 -1221.67 576.305 -1221.24 575.961C-1217.4 572.913 -1213.54 569.875 -1209.64 566.846C-1209.2 566.507 -1209.13 565.879 -1209.46 565.443C-1206.09 562.821 -1202.69 560.207 -1199.26 557.6C-1198.93 558.039 -1198.3 558.124 -1197.86 557.79C-1193.91 554.781 -1189.92 551.782 -1185.91 548.793C-1185.47 548.463 -1185.38 547.837 -1185.7 547.394C-1182.22 544.801 -1178.71 542.216 -1175.18 539.638C-1174.85 540.084 -1174.23 540.182 -1173.78 539.857C-1169.73 536.902 -1165.65 533.958 -1161.54 531.024C-1161.09 530.703 -1160.98 530.079 -1161.3 529.629C-1157.85 527.165 -1154.37 524.708 -1150.87 522.259C-1150.56 522.711 -1149.93 522.821 -1149.48 522.505C-1145.44 519.675 -1141.36 516.854 -1137.26 514.044C-1136.81 513.731 -1136.69 513.109 -1137.01 512.654C-1133.45 510.218 -1129.87 507.79 -1126.28 505.369C-1125.97 505.827 -1125.35 505.949 -1124.89 505.641C-1120.74 502.85 -1116.56 500.068 -1112.35 497.297C-1111.89 496.993 -1111.77 496.373 -1112.07 495.912C-1108.42 493.509 -1104.75 491.113 -1101.06 488.725C-1100.76 489.188 -1100.14 489.321 -1099.67 489.021C-1095.56 486.36 -1091.41 483.708 -1087.25 481.065C-1086.78 480.769 -1086.64 480.151 -1086.94 479.685C-1083.33 477.398 -1079.7 475.118 -1076.05 472.845C-1075.76 473.314 -1075.14 473.457 -1074.68 473.165C-1070.46 470.541 -1066.22 467.927 -1061.96 465.322C-1061.49 465.034 -1061.34 464.419 -1061.63 463.948C-1057.93 461.689 -1054.21 459.438 -1050.47 457.194C-1050.19 457.667 -1049.57 457.821 -1049.1 457.537C-1044.79 454.951 -1040.45 452.375 -1036.09 449.809C-1035.62 449.529 -1035.46 448.916 -1035.74 448.44C-1032.05 446.272 -1028.35 444.111 -1024.63 441.956C-1024.35 442.434 -1023.74 442.598 -1023.26 442.321C-1019 439.855 -1014.71 437.398 -1010.4 434.95C-1009.92 434.677 -1009.75 434.067 -1010.03 433.586C-1006.29 431.466 -1002.54 429.354 -998.769 427.248C-998.5 427.73 -997.891 427.903 -997.409 427.634C-993.056 425.204 -988.682 422.784 -984.286 420.374C-983.802 420.108 -983.625 419.5 -983.89 419.016C-980.073 416.925 -976.239 414.841 -972.389 412.764C-972.127 413.25 -971.52 413.432 -971.034 413.17C-966.635 410.8 -962.215 408.439 -957.774 406.087C-957.285 405.829 -957.099 405.224 -957.358 404.736C-953.596 402.746 -949.819 400.763 -946.028 398.787C-945.773 399.277 -945.169 399.467 -944.679 399.212C-940.294 396.93 -935.889 394.656 -931.465 392.392C-930.973 392.14 -930.779 391.538 -931.03 391.046C-927.194 389.084 -923.342 387.13 -919.475 385.182C-919.227 385.675 -918.626 385.874 -918.133 385.626C-913.669 383.38 -909.185 381.143 -904.682 378.915C-904.187 378.67 -903.985 378.07 -904.23 377.575C-900.318 375.642 -896.392 373.717 -892.452 371.798C-892.21 372.294 -891.612 372.501 -891.115 372.259C-886.662 370.093 -882.19 367.936 -877.699 365.788C-877.201 365.55 -876.99 364.952 -877.229 364.454C-873.379 362.614 -869.515 360.781 -865.638 358.954C-865.402 359.454 -864.807 359.669 -864.307 359.434C-859.825 357.324 -855.325 355.224 -850.807 353.132C-850.305 352.9 -850.087 352.306 -850.319 351.805C-846.401 349.993 -842.469 348.188 -838.523 346.389C-838.295 346.892 -837.702 347.114 -837.199 346.885C-832.645 344.812 -828.074 342.747 -823.485 340.692C-822.981 340.466 -822.755 339.875 -822.981 339.37C-818.995 337.587 -814.996 335.811 -810.983 334.041C-810.76 334.546 -810.17 334.776 -809.665 334.553C-805.153 332.565 -800.624 330.586 -796.079 328.616C-795.572 328.396 -795.34 327.807 -795.559 327.301C-791.637 325.602 -787.703 323.911 -783.757 322.225C-783.54 322.733 -782.953 322.97 -782.445 322.753C-777.883 320.807 -773.306 318.87 -768.712 316.942C-768.203 316.728 -767.963 316.142 -768.177 315.633C-764.193 313.963 -760.197 312.299 -756.188 310.642C-755.977 311.152 -755.393 311.395 -754.882 311.184C-750.256 309.274 -745.614 307.372 -740.956 305.479C-740.444 305.272 -740.198 304.688 -740.406 304.177C-736.36 302.535 -732.303 300.899 -728.233 299.271C-728.028 299.783 -727.446 300.033 -726.933 299.828C-722.357 297.998 -717.765 296.177 -713.158 294.365C-712.644 294.162 -712.391 293.582 -712.593 293.068C-708.613 291.504 -704.622 289.946 -700.62 288.395C-700.42 288.91 -699.841 289.166 -699.326 288.966C-694.701 287.175 -690.061 285.393 -685.406 283.619C-684.89 283.423 -684.631 282.845 -684.828 282.329C-680.791 280.792 -676.743 279.262 -672.685 277.739C-672.491 278.256 -671.914 278.518 -671.397 278.324C-666.713 276.568 -662.014 274.82 -657.301 273.081C-656.782 272.89 -656.517 272.315 -656.708 271.797C-652.616 270.288 -648.512 268.787 -644.398 267.291C-644.21 267.811 -643.636 268.079 -643.117 267.89C-638.468 266.203 -633.806 264.524 -629.13 262.853C-628.61 262.668 -628.339 262.095 -628.525 261.575C-624.498 260.138 -620.461 258.708 -616.414 257.283C-616.231 257.804 -615.66 258.078 -615.139 257.895C-610.462 256.251 -605.771 254.615 -601.067 252.987C-600.545 252.807 -600.268 252.237 -600.449 251.715C-596.37 250.306 -592.282 248.903 -588.183 247.506C-588.005 248.029 -587.437 248.309 -586.914 248.131C-582.183 246.52 -577.439 244.919 -572.682 243.325C-572.158 243.15 -571.876 242.583 -572.051 242.059C-567.922 240.678 -563.782 239.303 -559.633 237.934C-559.46 238.459 -558.894 238.744 -558.37 238.571C-553.643 237.014 -548.904 235.465 -544.152 233.925C-543.627 233.755 -543.339 233.191 -543.509 232.665C-539.445 231.349 -535.371 230.039 -531.289 228.736C-531.121 229.262 -530.558 229.553 -530.032 229.385C-525.313 227.88 -520.582 226.383 -515.838 224.894C-515.311 224.729 -515.018 224.168 -515.183 223.641C-511.071 222.352 -506.951 221.07 -502.821 219.794C-502.658 220.321 -502.098 220.617 -501.57 220.454C-496.802 218.983 -492.022 217.519 -487.23 216.064C-486.701 215.904 -486.403 215.346 -486.563 214.817C-482.405 213.556 -478.237 212.301 -474.061 211.053C-473.903 211.582 -473.346 211.883 -472.817 211.725C-468.007 210.289 -463.186 208.862 -458.353 207.443C-457.823 207.287 -457.519 206.731 -457.675 206.202C-453.58 205.001 -449.478 203.806 -445.366 202.618C-445.213 203.148 -444.659 203.454 -444.128 203.301C-439.375 201.929 -434.611 200.564 -429.836 199.208C-429.305 199.058 -428.996 198.505 -429.147 197.973C-425.01 196.8 -420.863 195.632 -416.709 194.471C-416.56 195.003 -416.009 195.314 -415.477 195.165C-410.679 193.825 -405.871 192.494 -401.051 191.171C-400.518 191.025 -400.205 190.475 -400.351 189.942C-396.171 188.796 -391.982 187.656 -387.785 186.522C-387.641 187.055 -387.092 187.371 -386.559 187.227C-381.717 185.921 -376.865 184.623 -372.002 183.333C-371.468 183.192 -371.15 182.644 -371.291 182.11C-367.118 181.005 -362.937 179.906 -358.748 178.813C-358.609 179.347 -358.063 179.668 -357.529 179.528C-352.749 178.283 -347.959 177.045 -343.158 175.816C-342.623 175.678 -342.301 175.134 -342.438 174.599C-338.28 173.535 -334.114 172.477 -329.941 171.426C-329.806 171.961 -329.262 172.286 -328.727 172.151C-323.906 170.938 -319.075 169.733 -314.234 168.536C-313.698 168.403 -313.371 167.861 -313.504 167.325C-309.306 166.289 -305.102 165.258 -300.889 164.234C-300.759 164.771 -300.218 165.1 -299.681 164.97C-294.82 163.789 -289.949 162.617 -285.068 161.452C-284.531 161.324 -284.199 160.785 -284.328 160.248C-280.092 159.239 -275.848 158.236 -271.598 157.239C-271.472 157.777 -270.934 158.111 -270.396 157.985C-265.569 156.855 -260.733 155.732 -255.887 154.618C-255.349 154.494 -255.013 153.958 -255.137 153.419C-250.963 152.461 -246.782 151.509 -242.595 150.562C-242.473 151.101 -241.938 151.439 -241.399 151.317C-236.56 150.225 -231.712 149.141 -226.855 148.065C-226.316 147.945 -225.976 147.411 -226.095 146.872C-221.885 145.941 -217.669 145.015 -213.445 144.096C-213.328 144.635 -212.795 144.978 -212.256 144.86C-207.38 143.8 -202.495 142.748 -197.602 141.705C-197.061 141.589 -196.717 141.058 -196.832 140.518C-192.587 139.614 -188.335 138.716 -184.076 137.824C-183.963 138.364 -183.433 138.711 -182.893 138.598C-177.981 137.57 -173.06 136.551 -168.13 135.54C-167.589 135.429 -167.24 134.9 -167.351 134.359C-163.154 133.499 -158.95 132.645 -154.739 131.798C-154.63 132.339 -154.103 132.69 -153.562 132.581C-148.709 131.605 -143.848 130.637 -138.979 129.677C-138.437 129.57 -138.084 129.044 -138.191 128.502C-133.973 127.672 -129.748 126.847 -125.517 126.029C-125.412 126.571 -124.887 126.926 -124.345 126.821C-119.459 125.877 -114.564 124.941 -109.661 124.013C-109.119 123.91 -108.762 123.387 -108.865 122.844C-104.614 122.04 -100.356 121.243 -96.093 120.451C-95.9923 120.995 -95.4705 121.353 -94.9275 121.252C-90.0079 120.34 -85.0801 119.437 -80.144 118.541C-79.6007 118.442 -79.2401 117.922 -79.3387 117.378C-75.0557 116.602 -70.7665 115.832 -66.4712 115.068C-66.3746 115.612 -65.8555 115.974 -65.3116 115.877C-60.4369 115.012 -55.5543 114.154 -50.6638 113.303C-50.1198 113.209 -49.7552 112.691 -49.8499 112.147C-45.6255 111.414 -41.3953 110.686 -37.1593 109.965C-37.0668 110.509 -36.5503 110.876 -36.0059 110.783C-31.1122 109.951 -26.2108 109.127 -21.3018 108.31C-20.757 108.22 -20.3888 107.704 -20.4794 107.16C-16.2251 106.453 -11.9651 105.753 -7.69946 105.058C-7.61084 105.603 -7.09705 105.973 -6.55188 105.885C-1.62769 105.084 3.30408 104.292 8.24329 103.507C8.7887 103.42 9.16064 102.908 9.07397 102.363C13.3577 101.683 17.6471 101.01 21.942 100.343C22.0266 100.888 22.5377 101.262 23.0835 101.177C28.0376 100.409 32.9991 99.6483 37.9681 98.8958C38.5142 98.8131 38.8899 98.3034 38.8071 97.7573C43.058 97.1146 47.3141 96.4778 51.5757 95.8469C51.6565 96.3932 52.1648 96.7707 52.7112 96.6899C57.6096 95.9659 62.5151 95.2497 67.4276 94.5414C67.9742 94.4626 68.3534 93.9555 68.2747 93.4089C72.53 92.7963 76.7906 92.1896 81.0564 91.5888C81.1333 92.1358 81.639 92.5168 82.1859 92.4399C87.1123 91.7472 92.0457 91.0625 96.9857 90.3856C97.533 90.3106 97.9158 89.8063 97.8408 89.2591C102.123 88.6734 106.411 88.0936 110.703 87.5198C110.776 88.0672 111.279 88.4518 111.827 88.3787C116.781 87.7177 121.741 87.0645 126.709 86.4194C127.256 86.3483 127.643 85.8466 127.572 85.2989C131.881 84.7403 136.195 84.1877 140.514 83.6411C140.583 84.189 141.083 84.5771 141.631 84.5078C146.574 83.8834 151.524 83.2668 156.481 82.6581C157.029 82.5908 157.418 82.0918 157.351 81.5437C161.606 81.0221 165.865 80.5064 170.13 79.9966C170.195 80.545 170.693 80.9365 171.241 80.871C176.168 80.2831 181.101 79.703 186.04 79.1307C186.588 79.0671 186.982 78.5709 186.918 78.0222C191.198 77.5274 195.482 77.0384 199.771 76.5553C199.832 77.1041 200.327 77.499 200.876 77.4373C205.828 76.8807 210.786 76.3319 215.75 75.791C216.299 75.7312 216.696 75.2376 216.636 74.6886C220.94 74.2206 225.248 73.7586 229.561 73.3024C229.619 73.8517 230.111 74.2499 230.661 74.192C235.637 73.6669 240.62 73.1497 245.608 72.6404C246.158 72.5843 246.557 72.0934 246.501 71.544C250.822 71.1039 255.148 70.6697 259.478 70.2415C259.532 70.7911 260.022 71.1927 260.571 71.1385C265.496 70.6526 270.427 70.1743 275.364 69.7039C275.913 69.6515 276.317 69.1633 276.264 68.6135C280.54 68.2071 284.819 67.8064 289.103 67.4116C289.154 67.9615 289.641 68.3664 290.191 68.3158C295.139 67.8609 300.092 67.4137 305.052 66.9744C305.602 66.9257 306.008 66.4402 305.96 65.8901C310.257 65.5103 314.559 65.1364 318.865 64.7684C318.912 65.3187 319.397 65.7267 319.947 65.6798C324.917 65.2561 329.894 64.8403 334.875 64.4323C335.426 64.3872 335.836 63.9044 335.79 63.354C340.11 63.0012 344.434 62.6543 348.762 62.3133C348.805 62.8639 349.287 63.2752 349.837 63.2319C354.83 62.8397 359.828 62.4553 364.832 62.0789C365.382 62.0374 365.795 61.5574 365.754 61.0066C370.052 60.6842 374.355 60.3676 378.661 60.0569C378.701 60.6077 379.18 61.0222 379.731 60.9825C384.674 60.6269 389.622 60.2791 394.575 59.9389C395.126 59.9011 395.542 59.4238 395.505 58.8728C399.795 58.5791 404.09 58.2913 408.388 58.0092C408.424 58.5603 408.9 58.9779 409.451 58.9418C414.415 58.6172 419.384 58.3004 424.358 57.9913C424.909 57.9571 425.328 57.4825 425.294 56.9313C429.604 56.6644 433.919 56.4033 438.237 56.1481C438.27 56.6995 438.743 57.1201 439.294 57.0876C444.278 56.7942 449.267 56.5086 454.261 56.2309C454.812 56.2002 455.234 55.7283 455.204 55.1769C459.534 54.937 463.868 54.703 468.206 54.4749C468.235 55.0264 468.706 55.4501 469.257 55.4212C474.261 55.1592 479.269 54.9051 484.283 54.6589C484.834 54.6318 485.259 54.1626 485.232 53.611C489.515 53.4016 493.801 53.1979 498.091 53C498.116 53.5517 498.584 53.9785 499.136 53.9531C504.092 53.7256 509.052 53.5058 514.017 53.2937C514.569 53.2701 514.997 52.8037 514.974 52.2519C519.275 52.0691 523.58 51.8922 527.888 51.7211C527.909 52.2729 528.375 52.7025 528.926 52.6807C533.901 52.4842 538.879 52.2954 543.863 52.1144C544.415 52.0943 544.846 51.6307 544.826 51.0788C549.145 50.9229 553.467 50.7728 557.793 50.6285C557.812 51.1805 558.274 51.613 558.826 51.5948C563.818 51.4294 568.815 51.2718 573.816 51.1221C574.368 51.1056 574.802 50.6447 574.785 50.0927C579.122 49.9638 583.462 49.8408 587.806 49.7237C587.82 50.2757 588.28 50.7112 588.832 50.6965C593.823 50.563 598.818 50.4373 603.818 50.3194C604.37 50.3064 604.807 49.8483 604.794 49.2962C609.085 49.1959 613.379 49.1015 617.676 49.0128C617.688 49.5649 618.144 50.0033 618.697 49.992C623.66 49.8906 628.628 49.7969 633.6 49.711C634.152 49.7015 634.592 49.2461 634.583 48.694C638.89 48.6204 643.201 48.5527 647.514 48.4908C647.522 49.043 647.976 49.4843 648.528 49.4764C653.509 49.406 658.493 49.3434 663.481 49.2885C664.033 49.2824 664.476 48.8299 664.47 48.2777C668.793 48.231 673.12 48.1903 677.449 48.1553C677.453 48.7076 677.905 49.1517 678.457 49.1474C683.453 49.1081 688.453 49.0767 693.457 49.0531C694.009 49.0505 694.455 48.6007 694.452 48.0485C698.791 48.029 703.133 48.0153 707.478 48.0076C707.479 48.5598 707.927 49.0068 708.48 49.0059C710.986 49.002 713.492 49 716 49C718.508 49 721.015 49.002 723.521 49.0059C724.073 49.0068 724.521 48.5598 724.522 48.0076C728.867 48.0153 733.209 48.029 737.548 48.0485C737.545 48.6007 737.991 49.0505 738.543 49.0531C743.547 49.0767 748.547 49.1081 753.543 49.1474C754.095 49.1517 754.547 48.7076 754.551 48.1553C758.88 48.1903 763.207 48.231 767.53 48.2777C767.524 48.8299 767.967 49.2824 768.519 49.2885C773.507 49.3434 778.491 49.406 783.472 49.4765C784.024 49.4843 784.478 49.043 784.486 48.4908C788.799 48.5527 793.11 48.6204 797.417 48.694C797.408 49.2461 797.848 49.7015 798.4 49.711C803.372 49.7969 808.34 49.8906 813.303 49.992C813.856 50.0033 814.312 49.5649 814.324 49.0128C818.621 49.1015 822.915 49.196 827.206 49.2962C827.193 49.8483 827.63 50.3064 828.182 50.3194C833.182 50.4373 838.177 50.563 843.168 50.6965C843.72 50.7112 844.18 50.2757 844.195 49.7237C848.538 49.8408 852.878 49.9638 857.215 50.0927C857.198 50.6447 857.632 51.1056 858.184 51.1221C863.186 51.2718 868.182 51.4294 873.174 51.5948C873.726 51.6131 874.188 51.1805 874.207 50.6285C878.533 50.7728 882.855 50.9229 887.175 51.0788C887.155 51.6307 887.586 52.0943 888.138 52.1144C893.121 52.2954 898.1 52.4842 903.074 52.6807C903.626 52.7025 904.091 52.2729 904.113 51.7211C908.421 51.8923 912.725 52.0691 917.026 52.2519C917.003 52.8037 917.431 53.2701 917.983 53.2937C922.948 53.5058 927.908 53.7256 932.864 53.9531C933.416 53.9785 933.884 53.5518 933.909 53C938.199 53.1979 942.485 53.4016 946.768 53.611C946.741 54.1626 947.166 54.6318 947.718 54.6589C952.731 54.9051 957.739 55.1592 962.743 55.4213C963.294 55.4501 963.765 55.0264 963.794 54.4749C968.132 54.703 972.466 54.937 976.796 55.1769C976.766 55.7283 977.188 56.2002 977.739 56.2309C982.733 56.5086 987.722 56.7942 992.706 57.0877C993.257 57.1201 993.73 56.6995 993.763 56.1482C998.081 56.4033 1002.4 56.6644 1006.71 56.9313C1006.67 57.4825 1007.09 57.9571 1007.64 57.9913C1012.62 58.3004 1017.59 58.6172 1022.55 58.9418C1023.1 58.9779 1023.58 58.5603 1023.61 58.0092C1027.91 58.2913 1032.21 58.5791 1036.5 58.8728C1036.46 59.4238 1036.87 59.9011 1037.43 59.939C1042.38 60.2791 1047.33 60.627 1052.27 60.9826C1052.82 61.0222 1053.3 60.6077 1053.34 60.0569C1057.65 60.3676 1061.95 60.6842 1066.25 61.0067C1066.2 61.5574 1066.62 62.0374 1067.17 62.0789C1072.17 62.4553 1077.17 62.8397 1082.16 63.2319C1082.71 63.2752 1083.2 62.8639 1083.24 62.3133C1087.57 62.6543 1091.89 63.0012 1096.21 63.354C1096.16 63.9045 1096.57 64.3872 1097.12 64.4323C1102.11 64.8403 1107.08 65.2562 1112.05 65.6799C1112.6 65.7268 1113.09 65.3187 1113.13 64.7684C1117.44 65.1364 1121.74 65.5103 1126.04 65.8901C1125.99 66.4402 1126.4 66.9257 1126.95 66.9744C1131.91 67.4138 1136.86 67.8609 1141.81 68.3158C1142.36 68.3664 1142.85 67.9615 1142.9 67.4116C1147.18 67.8064 1151.46 68.2071 1155.74 68.6136C1155.68 69.1634 1156.09 69.6515 1156.64 69.7039C1161.57 70.1744 1166.5 70.6526 1171.43 71.1385C1171.98 71.1927 1172.47 70.7912 1172.52 70.2415C1176.85 70.6697 1181.18 71.1039 1185.5 71.5441C1185.44 72.0935 1185.84 72.5844 1186.39 72.6404C1191.38 73.1497 1196.36 73.6669 1201.34 74.192C1201.89 74.25 1202.38 73.8517 1202.44 73.3025C1206.75 73.7586 1211.06 74.2206 1215.36 74.6886C1215.3 75.2376 1215.7 75.7312 1216.25 75.791C1221.21 76.3319 1226.17 76.8807 1231.12 77.4373C1231.67 77.499 1232.17 77.1041 1232.23 76.5553C1236.52 77.0384 1240.8 77.5274 1245.08 78.0223C1245.02 78.5709 1245.41 79.0672 1245.96 79.1307C1250.9 79.703 1255.83 80.2831 1260.76 80.8711C1261.31 80.9365 1261.81 80.545 1261.87 79.9966C1266.13 80.5065 1270.39 81.0222 1274.65 81.5437C1274.58 82.0919 1274.97 82.5908 1275.52 82.6581C1280.48 83.2668 1285.43 83.8834 1290.37 84.5079C1290.92 84.5771 1291.42 84.189 1291.49 83.6411C1295.81 84.1877 1300.12 84.7403 1304.43 85.299C1304.36 85.8467 1304.74 86.3483 1305.29 86.4194C1310.26 87.0646 1315.22 87.7177 1320.17 88.3787C1320.72 88.4518 1321.22 88.0672 1321.3 87.5198C1325.59 88.0936 1329.88 88.6734 1334.16 89.2591C1334.08 89.8063 1334.47 90.3107 1335.01 90.3856C1339.95 91.0625 1344.89 91.7473 1349.81 92.4399C1350.36 92.5168 1350.87 92.1358 1350.94 91.5889C1355.21 92.1897 1359.47 92.7963 1363.73 93.4089C1363.65 93.9555 1364.03 94.4626 1364.57 94.5414C1369.49 95.2497 1374.39 95.9659 1379.29 96.6899C1379.84 96.7707 1380.34 96.3932 1380.42 95.8469C1384.69 96.4778 1388.94 97.1146 1393.19 97.7573C1393.11 98.3034 1393.49 98.8131 1394.03 98.8958C1399 99.6483 1403.96 100.409 1408.92 101.177C1409.46 101.262 1409.97 100.888 1410.06 100.343C1414.35 101.01 1418.64 101.683 1422.93 102.363C1422.84 102.908 1423.21 103.421 1423.76 103.507C1428.7 104.292 1433.63 105.084 1438.55 105.885C1439.1 105.973 1439.61 105.603 1439.7 105.058C1443.97 105.753 1448.23 106.453 1452.48 107.16C1452.39 107.705 1452.76 108.22 1453.3 108.31C1458.21 109.127 1463.11 109.951 1468.01 110.783C1468.55 110.876 1469.07 110.509 1469.16 109.965C1473.4 110.686 1477.63 111.414 1481.85 112.147C1481.76 112.691 1482.12 113.209 1482.66 113.304C1487.55 114.154 1492.44 115.012 1497.31 115.878C1497.86 115.974 1498.37 115.612 1498.47 115.068C1502.77 115.832 1507.06 116.602 1511.34 117.378C1511.24 117.922 1511.6 118.442 1512.14 118.541C1517.08 119.437 1522.01 120.341 1526.93 121.253C1527.47 121.353 1527.99 120.995 1528.09 120.452C1532.36 121.243 1536.61 122.041 1540.86 122.844C1540.76 123.387 1541.12 123.91 1541.66 124.013C1546.56 124.941 1551.46 125.877 1556.35 126.821C1556.89 126.926 1557.41 126.571 1557.52 126.029C1561.75 126.847 1565.97 127.672 1570.19 128.502C1570.08 129.044 1570.44 129.57 1570.98 129.677C1575.85 130.637 1580.71 131.605 1585.56 132.581C1586.1 132.69 1586.63 132.339 1586.74 131.798C1590.95 132.646 1595.15 133.499 1599.35 134.359C1599.24 134.9 1599.59 135.429 1600.13 135.54C1605.06 136.551 1609.98 137.57 1614.89 138.598C1615.43 138.711 1615.96 138.364 1616.08 137.824C1620.34 138.716 1624.59 139.614 1628.83 140.518C1628.72 141.058 1629.06 141.589 1629.6 141.705C1634.5 142.748 1639.38 143.8 1644.26 144.86C1644.8 144.978 1645.33 144.635 1645.45 144.096C1649.67 145.015 1653.89 145.941 1658.1 146.872C1657.98 147.411 1658.32 147.945 1658.86 148.065C1663.71 149.141 1668.56 150.225 1673.4 151.317C1673.94 151.439 1674.47 151.101 1674.59 150.562C1678.78 151.509 1682.96 152.461 1687.14 153.42C1687.01 153.958 1687.35 154.494 1687.89 154.618C1692.73 155.732 1697.57 156.855 1702.4 157.985C1702.93 158.111 1703.47 157.777 1703.6 157.239C1707.85 158.236 1712.09 159.239 1716.33 160.248C1716.2 160.785 1716.53 161.324 1717.07 161.453C1721.95 162.617 1726.82 163.789 1731.68 164.97C1732.22 165.1 1732.76 164.771 1732.89 164.234C1737.1 165.258 1741.31 166.289 1745.5 167.325C1745.37 167.861 1745.7 168.403 1746.23 168.536C1751.08 169.733 1755.91 170.938 1760.73 172.151C1761.26 172.286 1761.81 171.961 1761.94 171.426C1766.11 172.477 1770.28 173.535 1774.44 174.599C1774.3 175.134 1774.62 175.679 1775.16 175.816C1779.96 177.045 1784.75 178.283 1789.53 179.528C1790.06 179.668 1790.61 179.347 1790.75 178.813C1794.94 179.906 1799.12 181.005 1803.29 182.11C1803.15 182.644 1803.47 183.192 1804 183.333C1808.86 184.623 1813.72 185.921 1818.56 187.227C1819.09 187.371 1819.64 187.055 1819.79 186.522C1823.98 187.656 1828.17 188.796 1832.35 189.942C1832.21 190.475 1832.52 191.025 1833.05 191.171C1837.87 192.494 1842.68 193.826 1847.48 195.165C1848.01 195.314 1848.56 195.003 1848.71 194.471C1852.86 195.632 1857.01 196.8 1861.15 197.973C1861 198.505 1861.3 199.058 1861.84 199.208C1866.61 200.564 1871.38 201.929 1876.13 203.301C1876.66 203.454 1877.21 203.148 1877.37 202.618C1881.48 203.806 1885.58 205.001 1889.68 206.202C1889.52 206.732 1889.82 207.287 1890.35 207.443C1895.19 208.862 1900.01 210.289 1904.82 211.725C1905.35 211.883 1905.9 211.582 1906.06 211.053C1910.24 212.301 1914.41 213.556 1918.56 214.817C1918.4 215.346 1918.7 215.904 1919.23 216.064C1924.02 217.519 1928.8 218.983 1933.57 220.454C1934.1 220.617 1934.66 220.321 1934.82 219.794C1938.95 221.07 1943.07 222.352 1947.18 223.641C1947.02 224.168 1947.31 224.729 1947.84 224.895C1952.58 226.383 1957.31 227.88 1962.03 229.385C1962.56 229.553 1963.12 229.262 1963.29 228.736C1967.37 230.04 1971.45 231.349 1975.51 232.665C1975.34 233.191 1975.63 233.755 1976.15 233.925C1980.9 235.465 1985.64 237.014 1990.37 238.571C1990.89 238.744 1991.46 238.459 1991.63 237.934C1995.78 239.303 1999.92 240.678 2004.05 242.059C2003.88 242.583 2004.16 243.15 2004.68 243.325C2009.44 244.919 2014.18 246.52 2018.91 248.131C2019.44 248.309 2020.01 248.029 2020.18 247.506C2024.28 248.903 2028.37 250.306 2032.45 251.716C2032.27 252.238 2032.54 252.807 2033.07 252.988C2037.77 254.615 2042.46 256.251 2047.14 257.895C2047.66 258.078 2048.23 257.805 2048.41 257.283C2052.46 258.708 2056.5 260.138 2060.52 261.575C2060.34 262.095 2060.61 262.668 2061.13 262.853C2065.81 264.524 2070.47 266.203 2075.12 267.89C2075.64 268.079 2076.21 267.811 2076.4 267.292C2080.51 268.787 2084.62 270.288 2088.71 271.797C2088.52 272.315 2088.78 272.89 2089.3 273.081C2094.01 274.82 2098.71 276.568 2103.4 278.324C2103.91 278.518 2104.49 278.256 2104.68 277.739C2108.74 279.262 2112.79 280.792 2116.83 282.329C2116.63 282.845 2116.89 283.423 2117.41 283.619C2122.06 285.393 2126.7 287.175 2131.33 288.966C2131.84 289.166 2132.42 288.91 2132.62 288.395C2136.62 289.946 2140.61 291.504 2144.59 293.068C2144.39 293.582 2144.64 294.163 2145.16 294.365C2149.76 296.177 2154.36 297.998 2158.93 299.828C2159.45 300.033 2160.03 299.784 2160.23 299.271C2164.3 300.899 2168.36 302.535 2172.41 304.177C2172.2 304.688 2172.44 305.272 2172.96 305.479C2177.61 307.372 2182.26 309.274 2186.88 311.184C2187.39 311.395 2187.98 311.152 2188.19 310.642C2192.2 312.299 2196.19 313.963 2200.18 315.633C2199.96 316.142 2200.2 316.729 2200.71 316.942C2205.31 318.87 2209.88 320.807 2214.44 322.753C2214.95 322.97 2215.54 322.733 2215.76 322.225C2219.7 323.911 2223.64 325.602 2227.56 327.301C2227.34 327.807 2227.57 328.396 2228.08 328.616C2232.62 330.586 2237.15 332.565 2241.66 334.553C2242.17 334.776 2242.76 334.546 2242.98 334.041C2247 335.811 2251 337.587 2254.98 339.371C2254.76 339.875 2254.98 340.466 2255.49 340.692C2260.07 342.747 2264.65 344.812 2269.2 346.885C2269.7 347.114 2270.29 346.892 2270.52 346.389C2274.47 348.188 2278.4 349.993 2282.32 351.805C2282.09 352.306 2282.31 352.901 2282.81 353.133C2287.32 355.224 2291.82 357.324 2296.31 359.434C2296.81 359.669 2297.4 359.454 2297.64 358.954C2301.51 360.781 2305.38 362.614 2309.23 364.454C2308.99 364.953 2309.2 365.55 2309.7 365.788C2314.19 367.936 2318.66 370.093 2323.12 372.26C2323.61 372.501 2324.21 372.294 2324.45 371.798C2328.39 373.717 2332.32 375.642 2336.23 377.575C2335.98 378.07 2336.19 378.67 2336.68 378.915C2341.19 381.143 2345.67 383.38 2350.13 385.626C2350.63 385.874 2351.23 385.675 2351.48 385.182C2355.34 387.13 2359.19 389.085 2363.03 391.046C2362.78 391.538 2362.97 392.14 2363.47 392.392C2367.89 394.656 2372.29 396.93 2376.68 399.212C2377.17 399.467 2377.77 399.277 2378.03 398.787C2381.82 400.763 2385.6 402.746 2389.36 404.736C2389.1 405.224 2389.29 405.829 2389.77 406.087C2394.21 408.439 2398.64 410.8 2403.03 413.17C2403.52 413.432 2404.13 413.25 2404.39 412.764C2408.24 414.841 2412.07 416.925 2415.89 419.016C2415.62 419.5 2415.8 420.108 2416.29 420.374C2420.68 422.784 2425.06 425.204 2429.41 427.634C2429.89 427.903 2430.5 427.73 2430.77 427.248C2434.54 429.354 2438.29 431.467 2442.03 433.586C2441.75 434.067 2441.92 434.677 2442.4 434.95C2446.71 437.398 2451 439.855 2455.26 442.322C2455.74 442.598 2456.35 442.435 2456.63 441.957C2460.35 444.111 2464.05 446.272 2467.74 448.44C2467.46 448.916 2467.62 449.529 2468.09 449.809C2472.45 452.375 2476.79 454.951 2481.1 457.537C2481.57 457.821 2482.19 457.667 2482.47 457.194C2486.21 459.438 2489.93 461.689 2493.63 463.948C2493.34 464.419 2493.49 465.034 2493.96 465.322C2498.22 467.927 2502.46 470.541 2506.68 473.165C2507.15 473.457 2507.76 473.314 2508.05 472.845C2511.7 475.118 2515.33 477.398 2518.94 479.685C2518.64 480.151 2518.78 480.769 2519.25 481.065C2523.42 483.708 2527.56 486.36 2531.68 489.022C2532.14 489.321 2532.76 489.188 2533.06 488.725C2536.75 491.113 2540.42 493.509 2544.07 495.912C2543.77 496.373 2543.89 496.993 2544.35 497.297C2548.56 500.069 2552.74 502.85 2556.89 505.641C2557.35 505.949 2557.97 505.827 2558.28 505.369C2561.87 507.79 2565.45 510.218 2569.01 512.654C2568.69 513.109 2568.81 513.732 2569.26 514.044C2573.36 516.855 2577.44 519.675 2581.48 522.505C2581.93 522.822 2582.56 522.711 2582.87 522.259C2586.37 524.708 2589.85 527.165 2593.3 529.629C2592.98 530.079 2593.09 530.703 2593.54 531.024C2597.65 533.958 2601.73 536.902 2605.78 539.857C2606.23 540.182 2606.85 540.084 2607.18 539.638C2610.71 542.216 2614.22 544.801 2617.71 547.394C2617.38 547.837 2617.47 548.464 2617.91 548.793C2621.92 551.782 2625.91 554.781 2629.86 557.79C2630.3 558.124 2630.93 558.039 2631.27 557.6C2634.69 560.207 2638.09 562.821 2641.46 565.443C2641.13 565.879 2641.2 566.507 2641.64 566.846C2645.54 569.875 2649.4 572.913 2653.24 575.962C2653.67 576.305 2654.3 576.233 2654.64 575.801C2658.08 578.536 2661.49 581.279 2664.88 584.029C2664.53 584.458 2664.6 585.088 2665.03 585.436C2668.94 588.613 2672.81 591.801 2676.65 594.999C2677.08 595.352 2677.71 595.294 2678.06 594.87C2681.39 597.643 2684.69 600.424 2687.97 603.213C2687.62 603.634 2687.67 604.265 2688.09 604.623C2691.87 607.841 2695.61 611.07 2699.32 614.308C2699.74 614.671 2700.37 614.628 2700.73 614.212C2703.96 617.032 2707.16 619.859 2710.34 622.694C2709.97 623.106 2710.01 623.738 2710.42 624.106C2714.2 627.481 2717.94 630.867 2721.64 634.264C2722.05 634.637 2722.68 634.61 2723.06 634.203C2726.27 637.151 2729.45 640.107 2732.61 643.072C2732.23 643.474 2732.25 644.107 2732.65 644.485C2736.28 647.903 2739.88 651.331 2743.44 654.769C2743.84 655.152 2744.47 655.141 2744.86 654.744C2747.94 657.722 2750.99 660.707 2754.01 663.7C2753.62 664.092 2753.62 664.725 2754.02 665.114C2757.57 668.64 2761.09 672.177 2764.57 675.724C2764.96 676.118 2765.59 676.124 2765.98 675.738C2769.05 678.868 2772.08 682.007 2775.09 685.153C2774.69 685.534 2774.68 686.167 2775.06 686.567C2778.51 690.192 2781.93 693.828 2785.3 697.474C2785.68 697.879 2786.31 697.903 2786.72 697.528C2789.64 700.688 2792.53 703.856 2795.39 707.031C2794.98 707.4 2794.94 708.033 2795.31 708.443C2798.62 712.123 2801.89 715.814 2805.11 719.515C2805.47 719.931 2806.11 719.974 2806.52 719.611C2809.41 722.928 2812.26 726.254 2815.08 729.587C2814.66 729.944 2814.6 730.575 2814.96 730.997C2818.2 734.835 2821.4 738.684 2824.55 742.543C2824.9 742.971 2825.53 743.035 2825.95 742.686C2828.68 746.032 2831.37 749.387 2834.03 752.75C2833.6 753.092 2833.53 753.721 2833.87 754.154C2836.93 758.035 2839.95 761.927 2842.92 765.829C2843.26 766.268 2843.89 766.352 2844.33 766.018C2846.97 769.498 2849.58 772.986 2852.16 776.482C2851.71 776.809 2851.62 777.435 2851.94 777.88C2854.92 781.934 2857.85 785.998 2860.73 790.073C2861.05 790.524 2861.67 790.631 2862.13 790.312C2864.62 793.847 2867.08 797.39 2869.5 800.941C2869.04 801.251 2868.92 801.873 2869.23 802.33C2872.02 806.426 2874.75 810.533 2877.44 814.651C2877.74 815.113 2878.36 815.243 2878.82 814.942C2881.19 818.587 2883.53 822.24 2885.82 825.902C2885.35 826.195 2885.21 826.812 2885.5 827.28C2888.17 831.545 2890.78 835.82 2893.34 840.107C2893.63 840.581 2894.24 840.735 2894.71 840.452C2896.93 844.171 2899.1 847.898 2901.24 851.634C2900.76 851.907 2900.59 852.518 2900.86 852.997C2903.32 857.305 2905.72 861.623 2908.07 865.952C2908.33 866.437 2908.94 866.617 2909.42 866.354C2911.49 870.173 2913.51 874 2915.49 877.835C2915 878.088 2914.81 878.691 2915.06 879.182C2917.36 883.647 2919.6 888.122 2921.78 892.608C2922.03 893.105 2922.62 893.311 2923.12 893.07C2925.01 896.962 2926.85 900.863 2928.66 904.772C2928.16 905.003 2927.94 905.596 2928.17 906.098C2930.24 910.605 2932.25 915.123 2934.2 919.65C2934.42 920.157 2935.01 920.391 2935.52 920.172C2937.23 924.16 2938.9 928.157 2940.53 932.161C2940.01 932.367 2939.77 932.95 2939.97 933.462C2941.85 938.107 2943.66 942.762 2945.42 947.427C2945.61 947.944 2946.19 948.206 2946.7 948.011C2948.22 952.06 2949.69 956.116 2951.11 960.18C2950.59 960.362 2950.31 960.932 2950.49 961.453C2952.12 966.139 2953.69 970.834 2955.2 975.539C2955.37 976.065 2955.93 976.355 2956.46 976.187C2957.78 980.322 2959.05 984.466 2960.27 988.617C2959.74 988.772 2959.43 989.327 2959.59 989.857C2960.99 994.651 2962.33 999.454 2963.6 1004.27C2963.74 1004.8 2964.29 1005.12 2964.82 1004.98C2965.92 1009.16 2966.97 1013.34 2967.97 1017.53C2967.43 1017.66 2967.1 1018.2 2967.22 1018.74C2968.37 1023.57 2969.44 1028.41 2970.46 1033.27C2970.57 1033.81 2971.1 1034.15 2971.64 1034.04C2972.52 1038.28 2973.34 1042.53 2974.12 1046.78C2973.58 1046.88 2973.22 1047.4 2973.31 1047.94C2974.2 1052.84 2975.02 1057.75 2975.77 1062.67C2975.85 1063.22 2976.37 1063.6 2976.91 1063.51C2977.56 1067.78 2978.15 1072.06 2978.69 1076.34C2978.15 1076.41 2977.76 1076.91 2977.82 1077.46C2978.44 1082.39 2978.99 1087.34 2979.47 1092.29C2979.52 1092.84 2980.01 1093.24 2980.56 1093.19C2980.97 1097.48 2981.33 1101.78 2981.64 1106.08C2981.08 1106.12 2980.67 1106.59 2980.71 1107.15C2981.05 1112.11 2981.33 1117.07 2981.53 1122.05C2981.56 1122.6 2982.02 1123.03 2982.57 1123.01C2982.75 1127.33 2982.87 1131.66 2982.93 1135.99Z" stroke="#333332" stroke-width="2" stroke-linecap="round" stroke-linejoin="round" stroke-dasharray="15 15"/>
<line x1="719.65" y1="530" x2="719.65" y2="1.5299e-08" stroke="#333332" stroke-width="0.7"/>
</svg>
