<svg width="430" height="884" viewBox="0 0 430 884" fill="none" xmlns="http://www.w3.org/2000/svg">
<ellipse cx="215" cy="696.631" rx="1419.25" ry="690.292" fill="#F1EFE9"/>
<path d="M1651.9 686.582C1651.34 686.594 1650.91 687.052 1650.92 687.604C1650.97 690.082 1651 692.562 1651 695.047C1651 697.53 1650.97 700.011 1650.92 702.489C1650.91 703.041 1651.34 703.498 1651.9 703.51C1651.79 707.812 1651.6 712.103 1651.34 716.385C1650.79 716.349 1650.31 716.767 1650.27 717.318C1649.95 722.249 1649.52 727.168 1648.99 732.073C1648.93 732.622 1649.33 733.115 1649.88 733.175C1649.4 737.44 1648.84 741.695 1648.21 745.94C1647.66 745.857 1647.15 746.232 1647.07 746.778C1646.32 751.666 1645.47 756.539 1644.52 761.399C1644.41 761.941 1644.76 762.466 1645.31 762.573C1644.47 766.769 1643.56 770.955 1642.57 775.129C1642.03 775 1641.49 775.331 1641.36 775.868C1640.21 780.667 1638.95 785.45 1637.6 790.219C1637.45 790.75 1637.76 791.303 1638.29 791.454C1637.11 795.575 1635.85 799.685 1634.52 803.784C1633.99 803.612 1633.43 803.898 1633.26 804.422C1631.73 809.092 1630.1 813.747 1628.38 818.385C1628.18 818.903 1628.45 819.479 1628.97 819.671C1627.46 823.697 1625.88 827.711 1624.23 831.713C1623.72 831.501 1623.14 831.743 1622.92 832.253C1621.04 836.781 1619.07 841.293 1617.01 845.789C1616.78 846.292 1617 846.885 1617.5 847.115C1615.71 851 1613.85 854.873 1611.92 858.733C1611.43 858.485 1610.83 858.684 1610.58 859.178C1608.37 863.588 1606.07 867.982 1603.68 872.359C1603.42 872.843 1603.59 873.451 1604.08 873.715C1602.04 877.44 1599.93 881.152 1597.76 884.852C1597.29 884.572 1596.68 884.731 1596.4 885.207C1593.88 889.473 1591.29 893.723 1588.62 897.955C1588.32 898.422 1588.46 899.04 1588.93 899.335C1586.65 902.921 1584.32 906.494 1581.92 910.055C1581.47 909.746 1580.85 909.867 1580.54 910.324C1577.79 914.399 1574.96 918.458 1572.06 922.499C1571.74 922.948 1571.84 923.573 1572.29 923.895C1569.77 927.391 1567.19 930.875 1564.56 934.346C1564.12 934.011 1563.5 934.096 1563.16 934.536C1560.21 938.415 1557.19 942.277 1554.1 946.124C1553.75 946.554 1553.82 947.183 1554.25 947.529C1551.56 950.864 1548.82 954.186 1546.03 957.495C1545.61 957.138 1544.98 957.191 1544.62 957.612C1541.43 961.379 1538.17 965.129 1534.85 968.863C1534.49 969.275 1534.52 969.907 1534.94 970.274C1532.11 973.435 1529.25 976.584 1526.33 979.72C1525.93 979.343 1525.3 979.365 1524.92 979.769C1521.54 983.389 1518.11 986.991 1514.61 990.578C1514.22 990.973 1514.23 991.606 1514.63 991.992C1511.64 995.042 1508.61 998.08 1505.54 1001.11C1505.16 1000.71 1504.52 1000.71 1504.13 1001.09C1500.63 1004.52 1497.08 1007.94 1493.48 1011.34C1493.07 1011.71 1493.05 1012.35 1493.43 1012.75C1490.3 1015.7 1487.12 1018.63 1483.9 1021.55C1483.53 1021.14 1482.89 1021.11 1482.48 1021.48C1478.84 1024.78 1475.14 1028.06 1471.4 1031.32C1470.98 1031.69 1470.94 1032.32 1471.3 1032.74C1468.09 1035.52 1464.85 1038.29 1461.56 1041.05C1461.21 1040.63 1460.58 1040.58 1460.15 1040.93C1456.36 1044.12 1452.51 1047.29 1448.61 1050.44C1448.18 1050.79 1448.11 1051.42 1448.46 1051.85C1445.14 1054.53 1441.78 1057.19 1438.39 1059.85C1438.05 1059.41 1437.42 1059.34 1436.99 1059.68C1433.13 1062.69 1429.22 1065.69 1425.27 1068.68C1424.83 1069.01 1424.74 1069.64 1425.07 1070.08C1421.64 1072.66 1418.17 1075.24 1414.67 1077.8C1414.35 1077.35 1413.72 1077.26 1413.27 1077.58C1409.28 1080.49 1405.25 1083.39 1401.17 1086.27C1400.72 1086.59 1400.62 1087.22 1400.93 1087.67C1397.47 1090.11 1393.98 1092.54 1390.46 1094.96C1390.14 1094.5 1389.52 1094.39 1389.07 1094.7C1384.99 1097.49 1380.87 1100.27 1376.71 1103.03C1376.25 1103.34 1376.12 1103.96 1376.43 1104.42C1372.83 1106.8 1369.2 1109.17 1365.54 1111.53C1365.25 1111.07 1364.63 1110.94 1364.16 1111.23C1360.06 1113.88 1355.92 1116.5 1351.74 1119.12C1351.27 1119.41 1351.13 1120.03 1351.42 1120.5C1347.8 1122.76 1344.14 1125.01 1340.46 1127.25C1340.17 1126.78 1339.56 1126.63 1339.09 1126.91C1334.83 1129.5 1330.54 1132.06 1326.21 1134.62C1325.74 1134.9 1325.58 1135.51 1325.86 1135.99C1322.2 1138.14 1318.52 1140.28 1314.81 1142.41C1314.53 1141.93 1313.92 1141.77 1313.44 1142.04C1309.18 1144.49 1304.89 1146.92 1300.56 1149.33C1300.07 1149.6 1299.9 1150.21 1300.17 1150.69C1296.41 1152.78 1292.63 1154.86 1288.82 1156.93C1288.56 1156.45 1287.95 1156.27 1287.47 1156.53C1283.11 1158.89 1278.72 1161.24 1274.3 1163.58C1273.81 1163.83 1273.62 1164.44 1273.88 1164.93C1270.13 1166.9 1266.36 1168.87 1262.57 1170.82C1262.32 1170.33 1261.72 1170.14 1261.22 1170.39C1256.84 1172.64 1252.42 1174.89 1247.96 1177.11C1247.47 1177.36 1247.27 1177.96 1247.52 1178.45C1243.65 1180.38 1239.77 1182.3 1235.86 1184.21C1235.62 1183.72 1235.02 1183.51 1234.52 1183.75C1230.1 1185.9 1225.66 1188.04 1221.18 1190.17C1220.68 1190.41 1220.47 1191 1220.71 1191.5C1216.87 1193.32 1213 1195.13 1209.11 1196.93C1208.88 1196.43 1208.29 1196.21 1207.79 1196.45C1203.29 1198.53 1198.77 1200.59 1194.22 1202.64C1193.72 1202.87 1193.5 1203.46 1193.72 1203.96C1189.78 1205.74 1185.81 1207.51 1181.82 1209.26C1181.6 1208.76 1181.01 1208.53 1180.5 1208.75C1176.03 1210.71 1171.53 1212.67 1167 1214.61C1166.49 1214.82 1166.26 1215.41 1166.48 1215.92C1162.55 1217.6 1158.61 1219.26 1154.65 1220.92C1154.44 1220.41 1153.86 1220.17 1153.35 1220.38C1148.77 1222.3 1144.17 1224.19 1139.54 1226.08C1139.03 1226.29 1138.78 1226.87 1138.99 1227.38C1135 1229 1130.99 1230.61 1126.96 1232.22C1126.76 1231.7 1126.18 1231.45 1125.66 1231.66C1121.11 1233.46 1116.53 1235.26 1111.94 1237.04C1111.42 1237.24 1111.16 1237.82 1111.36 1238.33C1107.38 1239.87 1103.38 1241.4 1099.36 1242.92C1099.16 1242.41 1098.58 1242.14 1098.07 1242.34C1093.42 1244.09 1088.75 1245.83 1084.06 1247.56C1083.55 1247.75 1083.28 1248.33 1083.47 1248.84C1079.44 1250.33 1075.38 1251.8 1071.32 1253.26C1071.13 1252.74 1070.56 1252.47 1070.04 1252.66C1065.42 1254.31 1060.78 1255.96 1056.13 1257.59C1055.6 1257.77 1055.33 1258.34 1055.51 1258.86C1051.48 1260.27 1047.42 1261.67 1043.36 1263.06C1043.18 1262.54 1042.61 1262.26 1042.09 1262.44C1037.39 1264.04 1032.67 1265.63 1027.92 1267.21C1027.4 1267.38 1027.12 1267.95 1027.29 1268.47C1023.21 1269.83 1019.12 1271.17 1015.01 1272.51C1014.84 1271.98 1014.27 1271.7 1013.75 1271.87C1009.08 1273.38 1004.39 1274.88 999.686 1276.37C999.159 1276.53 998.867 1277.1 999.033 1277.62C994.957 1278.91 990.865 1280.18 986.76 1281.45C986.597 1280.92 986.038 1280.63 985.51 1280.79C980.766 1282.25 976.002 1283.7 971.22 1285.13C970.691 1285.29 970.391 1285.85 970.55 1286.38C966.423 1287.62 962.283 1288.84 958.128 1290.06C957.973 1289.53 957.418 1289.22 956.888 1289.38C952.178 1290.76 947.451 1292.12 942.706 1293.47C942.175 1293.62 941.867 1294.17 942.018 1294.71C937.909 1295.87 933.786 1297.03 929.651 1298.18C929.503 1297.65 928.952 1297.34 928.42 1297.49C923.641 1298.81 918.844 1300.12 914.03 1301.42C913.497 1301.57 913.181 1302.12 913.325 1302.65C909.151 1303.77 904.963 1304.89 900.763 1305.99C900.622 1305.46 900.076 1305.14 899.542 1305.28C894.798 1306.53 890.038 1307.76 885.263 1308.98C884.728 1309.12 884.405 1309.66 884.542 1310.2C880.406 1311.25 876.259 1312.3 872.1 1313.33C871.967 1312.8 871.424 1312.47 870.888 1312.61C866.081 1313.8 861.258 1314.98 856.419 1316.15C855.883 1316.28 855.553 1316.82 855.682 1317.36C851.486 1318.37 847.279 1319.38 843.059 1320.37C842.933 1319.83 842.395 1319.5 841.857 1319.62C837.059 1320.75 832.246 1321.87 827.417 1322.97C826.879 1323.09 826.542 1323.63 826.665 1324.17C822.51 1325.11 818.343 1326.05 814.166 1326.98C814.047 1326.44 813.513 1326.1 812.974 1326.22C808.144 1327.29 803.301 1328.35 798.443 1329.39C797.903 1329.51 797.56 1330.04 797.676 1330.58C793.465 1331.49 789.243 1332.38 785.01 1333.27C784.898 1332.73 784.368 1332.38 783.827 1332.49C778.973 1333.51 774.105 1334.51 769.224 1335.49C768.682 1335.6 768.332 1336.13 768.442 1336.67C764.271 1337.52 760.09 1338.35 755.899 1339.17C755.793 1338.63 755.267 1338.28 754.725 1338.38C749.879 1339.34 745.02 1340.27 740.148 1341.2C739.605 1341.3 739.249 1341.83 739.352 1342.37C735.13 1343.17 730.898 1343.96 726.657 1344.74C726.557 1344.2 726.036 1343.84 725.492 1343.94C720.594 1344.84 715.684 1345.73 710.76 1346.61C710.216 1346.7 709.854 1347.22 709.951 1347.77C705.757 1348.51 701.554 1349.24 697.342 1349.97C697.248 1349.43 696.731 1349.06 696.187 1349.15C691.328 1349.99 686.457 1350.81 681.575 1351.62C681.03 1351.71 680.661 1352.23 680.752 1352.77C676.522 1353.47 672.284 1354.16 668.037 1354.85C667.949 1354.3 667.437 1353.93 666.891 1354.02C661.985 1354.8 657.067 1355.58 652.137 1356.34C651.592 1356.42 651.217 1356.93 651.302 1357.48C647.054 1358.13 642.798 1358.78 638.533 1359.41C638.452 1358.87 637.943 1358.49 637.397 1358.57C632.529 1359.29 627.65 1360 622.76 1360.7C622.214 1360.78 621.834 1361.29 621.912 1361.83C617.678 1362.44 613.435 1363.03 609.185 1363.62C609.11 1363.07 608.605 1362.69 608.058 1362.76C603.147 1363.44 598.225 1364.1 593.292 1364.75C592.744 1364.82 592.359 1365.32 592.431 1365.87C588.155 1366.43 583.871 1366.98 579.579 1367.53C579.51 1366.98 579.01 1366.59 578.462 1366.66C573.564 1367.28 568.656 1367.88 563.738 1368.48C563.189 1368.54 562.798 1369.04 562.865 1369.59C558.628 1370.1 554.384 1370.6 550.133 1371.09C550.07 1370.54 549.574 1370.15 549.025 1370.21C544.111 1370.78 539.187 1371.33 534.254 1371.87C533.705 1371.93 533.309 1372.43 533.369 1372.98C529.094 1373.44 524.812 1373.9 520.523 1374.35C520.466 1373.8 519.974 1373.4 519.425 1373.46C514.472 1373.98 509.51 1374.48 504.539 1374.97C503.989 1375.03 503.588 1375.52 503.642 1376.07C499.405 1376.49 495.161 1376.89 490.911 1377.29C490.859 1376.74 490.372 1376.34 489.822 1376.39C484.907 1376.85 479.984 1377.3 475.052 1377.74C474.502 1377.79 474.095 1378.27 474.144 1378.82C469.872 1379.2 465.594 1379.56 461.309 1379.92C461.263 1379.37 460.78 1378.96 460.229 1379.01C455.28 1379.42 450.322 1379.82 445.355 1380.21C444.804 1380.25 444.393 1380.73 444.436 1381.28C440.146 1381.62 435.849 1381.94 431.546 1382.25C431.506 1381.7 431.027 1381.29 430.476 1381.33C425.564 1381.69 420.643 1382.03 415.714 1382.36C415.162 1382.4 414.746 1382.88 414.783 1383.43C410.516 1383.72 406.242 1383.99 401.963 1384.26C401.929 1383.71 401.454 1383.29 400.903 1383.33C395.958 1383.64 391.005 1383.93 386.044 1384.22C385.493 1384.25 385.072 1384.72 385.103 1385.27C380.805 1385.52 376.5 1385.76 372.19 1385.98C372.161 1385.43 371.691 1385.01 371.14 1385.04C366.189 1385.29 361.23 1385.54 356.265 1385.78C355.713 1385.8 355.287 1386.27 355.313 1386.82C351.051 1387.02 346.784 1387.21 342.511 1387.39C342.488 1386.84 342.022 1386.41 341.47 1386.44C336.531 1386.65 331.585 1386.84 326.632 1387.03C326.08 1387.05 325.65 1387.51 325.67 1388.06C321.38 1388.22 317.084 1388.37 312.784 1388.51C312.766 1387.96 312.304 1387.52 311.752 1387.54C306.785 1387.7 301.811 1387.85 296.831 1387.98C296.279 1388 295.843 1388.46 295.858 1389.01C291.57 1389.13 287.277 1389.23 282.979 1389.33C282.967 1388.78 282.509 1388.34 281.957 1388.35C277.026 1388.46 272.088 1388.56 267.144 1388.64C266.591 1388.65 266.151 1389.11 266.161 1389.66C261.88 1389.73 257.594 1389.8 253.304 1389.85C253.297 1389.3 252.844 1388.86 252.292 1388.86C247.335 1388.92 242.372 1388.97 237.402 1389.01C236.85 1389.01 236.406 1389.47 236.41 1390.02C232.104 1390.05 227.794 1390.07 223.479 1390.08C223.478 1389.53 223.029 1389.08 222.477 1389.08C219.986 1389.09 217.494 1389.09 215 1389.09C212.506 1389.09 210.015 1389.09 207.524 1389.08C206.972 1389.08 206.523 1389.53 206.522 1390.08C202.207 1390.07 197.896 1390.05 193.591 1390.02C193.595 1389.47 193.15 1389.01 192.598 1389.01C187.629 1388.97 182.666 1388.92 177.709 1388.86C177.157 1388.86 176.703 1389.3 176.697 1389.85C172.406 1389.8 168.121 1389.73 163.84 1389.66C163.849 1389.11 163.409 1388.65 162.857 1388.64C157.913 1388.56 152.975 1388.46 148.043 1388.35C147.491 1388.34 147.034 1388.78 147.021 1389.33C142.723 1389.23 138.43 1389.13 134.142 1389.01C134.157 1388.46 133.722 1388 133.17 1387.98C128.189 1387.85 123.215 1387.7 118.248 1387.54C117.696 1387.52 117.234 1387.96 117.217 1388.51C112.916 1388.37 108.621 1388.22 104.33 1388.06C104.351 1387.51 103.92 1387.05 103.368 1387.03C98.4153 1386.84 93.4694 1386.65 88.5305 1386.44C87.9788 1386.41 87.5126 1386.84 87.4893 1387.39C83.2166 1387.21 78.9492 1387.02 74.6874 1386.82C74.7134 1386.27 74.2874 1385.8 73.7356 1385.78C68.77 1385.54 63.8118 1385.29 58.8611 1385.04C58.3096 1385.01 57.8391 1385.43 57.8102 1385.98C53.5001 1385.76 49.1958 1385.52 44.8972 1385.27C44.9288 1384.72 44.5076 1384.25 43.9562 1384.22C38.9956 1383.93 34.0428 1383.64 29.0979 1383.33C28.5468 1383.29 28.0719 1383.71 28.0375 1384.26C23.7582 1384 19.4847 1383.72 15.2173 1383.43C15.2545 1382.88 14.838 1382.4 14.287 1382.36C9.35791 1382.03 4.43701 1381.69 -0.47583 1381.33C-1.02673 1381.29 -1.50574 1381.7 -1.54578 1382.25C-5.84851 1381.94 -10.1449 1381.62 -14.4349 1381.28C-14.3921 1380.73 -14.8036 1380.25 -15.3542 1380.21C-20.321 1379.82 -25.2792 1379.42 -30.2288 1379.01C-30.7792 1378.96 -31.2625 1379.37 -31.3082 1379.92C-35.5931 1379.56 -39.8717 1379.2 -44.1436 1378.82C-44.0948 1378.27 -44.5015 1377.79 -45.0515 1377.74C-49.9836 1377.3 -54.907 1376.85 -59.8213 1376.39C-60.3712 1376.34 -60.8588 1376.74 -60.9103 1377.29C-65.1606 1376.89 -69.4044 1376.49 -73.6414 1376.07C-73.587 1375.52 -73.9884 1375.03 -74.5381 1374.97C-79.5095 1374.48 -84.4716 1373.98 -89.4241 1373.46C-89.9734 1373.4 -90.4652 1373.8 -90.5225 1374.35C-94.8116 1373.9 -99.0936 1373.44 -103.368 1372.98C-103.308 1372.43 -103.704 1371.93 -104.253 1371.87C-109.187 1371.33 -114.111 1370.78 -119.025 1370.21C-119.573 1370.15 -120.069 1370.54 -120.132 1371.09C-124.384 1370.6 -128.628 1370.1 -132.864 1369.59C-132.798 1369.04 -133.189 1368.54 -133.737 1368.48C-138.655 1367.88 -143.564 1367.28 -148.462 1366.66C-149.01 1366.59 -149.51 1366.98 -149.579 1367.53C-153.871 1366.98 -158.155 1366.43 -162.431 1365.87C-162.358 1365.32 -162.744 1364.82 -163.291 1364.75C-168.224 1364.1 -173.146 1363.44 -178.058 1362.76C-178.605 1362.69 -179.109 1363.07 -179.184 1363.62C-183.435 1363.03 -187.677 1362.44 -191.911 1361.83C-191.833 1361.29 -192.213 1360.78 -192.76 1360.7C-197.65 1360 -202.529 1359.29 -207.397 1358.57C-207.943 1358.49 -208.451 1358.87 -208.533 1359.41C-212.797 1358.78 -217.054 1358.13 -221.301 1357.48C-221.217 1356.93 -221.591 1356.42 -222.137 1356.34C-227.066 1355.58 -231.984 1354.8 -236.891 1354.02C-237.436 1353.93 -237.949 1354.3 -238.036 1354.85C-242.284 1354.17 -246.522 1353.47 -250.752 1352.77C-250.661 1352.23 -251.029 1351.71 -251.574 1351.62C-256.457 1350.81 -261.328 1349.99 -266.186 1349.15C-266.731 1349.06 -267.248 1349.43 -267.341 1349.97C-271.553 1349.24 -275.756 1348.51 -279.95 1347.77C-279.853 1347.22 -280.216 1346.7 -280.76 1346.61C-285.683 1345.73 -290.594 1344.84 -295.492 1343.94C-296.035 1343.84 -296.556 1344.2 -296.656 1344.74C-300.898 1343.96 -305.13 1343.17 -309.352 1342.37C-309.249 1341.83 -309.605 1341.3 -310.147 1341.2C-315.02 1340.27 -319.879 1339.34 -324.725 1338.38C-325.267 1338.28 -325.792 1338.63 -325.899 1339.17C-330.089 1338.35 -334.27 1337.52 -338.441 1336.67C-338.332 1336.13 -338.682 1335.6 -339.223 1335.49C-344.105 1334.51 -348.973 1333.51 -353.827 1332.49C-354.367 1332.38 -354.897 1332.73 -355.01 1333.27C-359.242 1332.38 -363.464 1331.49 -367.675 1330.58C-367.559 1330.04 -367.903 1329.51 -368.443 1329.39C-373.3 1328.35 -378.144 1327.29 -382.973 1326.22C-383.512 1326.1 -384.046 1326.44 -384.166 1326.98C-388.343 1326.05 -392.509 1325.11 -396.665 1324.17C-396.542 1323.63 -396.879 1323.09 -397.417 1322.97C-402.245 1321.87 -407.058 1320.75 -411.857 1319.62C-412.394 1319.5 -412.932 1319.83 -413.059 1320.37C-417.278 1319.38 -421.486 1318.37 -425.682 1317.36C-425.552 1316.82 -425.882 1316.28 -426.419 1316.15C-431.258 1314.98 -436.081 1313.8 -440.888 1312.61C-441.424 1312.47 -441.966 1312.8 -442.1 1313.33C-446.259 1312.3 -450.406 1311.25 -454.541 1310.2C-454.404 1309.66 -454.727 1309.12 -455.262 1308.98C-460.038 1307.76 -464.797 1306.53 -469.541 1305.28C-470.075 1305.14 -470.622 1305.46 -470.762 1305.99C-474.962 1304.89 -479.15 1303.77 -483.325 1302.65C-483.181 1302.12 -483.496 1301.57 -484.03 1301.42C-488.843 1300.12 -493.64 1298.81 -498.42 1297.49C-498.952 1297.34 -499.503 1297.65 -499.65 1298.18C-503.786 1297.03 -507.908 1295.87 -512.018 1294.71C-511.867 1294.18 -512.175 1293.62 -512.706 1293.47C-517.451 1292.12 -522.178 1290.76 -526.887 1289.38C-527.417 1289.22 -527.973 1289.53 -528.128 1290.06C-532.282 1288.84 -536.423 1287.62 -540.55 1286.38C-540.391 1285.85 -540.691 1285.29 -541.22 1285.13C-546.002 1283.7 -550.765 1282.25 -555.509 1280.79C-556.037 1280.63 -556.597 1280.92 -556.759 1281.45C-560.865 1280.18 -564.956 1278.91 -569.033 1277.62C-568.866 1277.1 -569.158 1276.53 -569.685 1276.37C-574.391 1274.88 -579.078 1273.38 -583.746 1271.87C-584.271 1271.7 -584.835 1271.98 -585.005 1272.51C-589.116 1271.17 -593.211 1269.83 -597.291 1268.47C-597.117 1267.95 -597.4 1267.38 -597.924 1267.21C-602.666 1265.63 -607.387 1264.04 -612.087 1262.44C-612.61 1262.26 -613.178 1262.54 -613.357 1263.06C-617.424 1261.67 -621.476 1260.27 -625.512 1258.86C-625.329 1258.34 -625.604 1257.77 -626.125 1257.59C-630.784 1255.96 -635.421 1254.31 -640.037 1252.66C-640.557 1252.47 -641.129 1252.74 -641.316 1253.26C-645.384 1251.8 -649.435 1250.33 -653.47 1248.84C-653.28 1248.33 -653.545 1247.75 -654.063 1247.56C-658.754 1245.83 -663.423 1244.09 -668.068 1242.34C-668.585 1242.14 -669.162 1242.41 -669.357 1242.92C-673.376 1241.4 -677.379 1239.87 -681.364 1238.33C-681.164 1237.82 -681.42 1237.24 -681.935 1237.04C-686.534 1235.26 -691.111 1233.46 -695.663 1231.66C-696.177 1231.45 -696.758 1231.7 -696.962 1232.22C-700.989 1230.62 -704.998 1229 -708.989 1227.38C-708.781 1226.87 -709.026 1226.29 -709.538 1226.08C-714.166 1224.19 -718.768 1222.3 -723.345 1220.38C-723.855 1220.17 -724.441 1220.41 -724.654 1220.92C-728.613 1219.26 -732.554 1217.6 -736.476 1215.92C-736.259 1215.41 -736.494 1214.82 -737.001 1214.61C-741.528 1212.67 -746.029 1210.71 -750.504 1208.75C-751.01 1208.53 -751.6 1208.76 -751.822 1209.26C-755.81 1207.51 -759.777 1205.74 -763.724 1203.96C-763.497 1203.46 -763.721 1202.87 -764.224 1202.64C-768.773 1200.59 -773.294 1198.53 -777.787 1196.45C-778.288 1196.22 -778.883 1196.43 -779.115 1196.93C-783 1195.13 -786.865 1193.32 -790.708 1191.5C-790.471 1191 -790.684 1190.41 -791.183 1190.17C-795.658 1188.04 -800.104 1185.9 -804.521 1183.75C-805.017 1183.51 -805.616 1183.72 -805.858 1184.21C-809.767 1182.3 -813.654 1180.39 -817.518 1178.45C-817.27 1177.96 -817.47 1177.36 -817.964 1177.11C-822.415 1174.89 -826.835 1172.64 -831.224 1170.39C-831.716 1170.14 -832.318 1170.33 -832.571 1170.82C-836.364 1168.87 -840.135 1166.9 -843.882 1164.93C-843.624 1164.44 -843.811 1163.84 -844.299 1163.58C-848.721 1161.24 -853.11 1158.89 -857.466 1156.53C-857.952 1156.27 -858.559 1156.45 -858.822 1156.93C-862.63 1154.86 -866.413 1152.78 -870.17 1150.69C-869.901 1150.21 -870.074 1149.6 -870.556 1149.33C-874.885 1146.92 -879.181 1144.49 -883.442 1142.04C-883.921 1141.77 -884.532 1141.93 -884.807 1142.41C-888.517 1140.28 -892.201 1138.14 -895.859 1135.99C-895.578 1135.51 -895.737 1134.9 -896.212 1134.62C-900.541 1132.06 -904.833 1129.5 -909.087 1126.91C-909.559 1126.63 -910.174 1126.78 -910.461 1127.25C-914.142 1125.01 -917.795 1122.76 -921.42 1120.5C-921.127 1120.03 -921.27 1119.41 -921.738 1119.12C-925.917 1116.5 -930.059 1113.88 -934.162 1111.23C-934.627 1110.94 -935.246 1111.07 -935.545 1111.53C-939.202 1109.17 -942.83 1106.8 -946.427 1104.42C-946.121 1103.96 -946.246 1103.34 -946.707 1103.03C-950.867 1100.27 -954.987 1097.49 -959.065 1094.7C-959.521 1094.39 -960.143 1094.5 -960.455 1094.96C-963.979 1092.54 -967.473 1090.11 -970.934 1087.67C-970.616 1087.22 -970.723 1086.59 -971.174 1086.27C-975.251 1083.39 -979.284 1080.5 -983.273 1077.58C-983.72 1077.26 -984.345 1077.35 -984.671 1077.8C-988.173 1075.24 -991.64 1072.66 -995.073 1070.08C-994.741 1069.64 -994.828 1069.01 -995.269 1068.68C-999.222 1065.69 -1003.13 1062.69 -1006.99 1059.68C-1007.42 1059.34 -1008.05 1059.41 -1008.39 1059.85C-1011.78 1057.19 -1015.14 1054.53 -1018.46 1051.85C-1018.11 1051.42 -1018.18 1050.79 -1018.61 1050.44C-1022.51 1047.29 -1026.36 1044.12 -1030.15 1040.93C-1030.58 1040.58 -1031.21 1040.63 -1031.56 1041.05C-1034.85 1038.29 -1038.09 1035.52 -1041.3 1032.74C-1040.93 1032.32 -1040.98 1031.69 -1041.39 1031.32C-1045.14 1028.06 -1048.84 1024.78 -1052.48 1021.48C-1052.89 1021.11 -1053.53 1021.14 -1053.9 1021.55C-1057.12 1018.63 -1060.3 1015.7 -1063.43 1012.75C-1063.05 1012.35 -1063.07 1011.71 -1063.48 1011.34C-1067.08 1007.94 -1070.63 1004.52 -1074.13 1001.09C-1074.52 1000.71 -1075.15 1000.71 -1075.54 1001.11C-1078.61 998.079 -1081.64 995.042 -1084.63 991.991C-1084.23 991.606 -1084.22 990.973 -1084.61 990.578C-1088.11 986.992 -1091.54 983.389 -1094.92 979.77C-1095.3 979.366 -1095.93 979.343 -1096.33 979.719C-1099.25 976.583 -1102.11 973.435 -1104.94 970.274C-1104.52 969.907 -1104.49 969.275 -1104.85 968.863C-1108.17 965.129 -1111.43 961.379 -1114.62 957.612C-1114.98 957.191 -1115.61 957.139 -1116.03 957.495C-1118.82 954.186 -1121.56 950.864 -1124.25 947.529C-1123.82 947.183 -1123.75 946.554 -1124.1 946.124C-1127.19 942.278 -1130.21 938.415 -1133.16 934.536C-1133.5 934.097 -1134.12 934.012 -1134.56 934.346C-1137.19 930.875 -1139.77 927.391 -1142.29 923.894C-1141.84 923.572 -1141.74 922.948 -1142.06 922.499C-1144.96 918.458 -1147.79 914.4 -1150.54 910.325C-1150.85 909.867 -1151.47 909.746 -1151.92 910.055C-1154.32 906.494 -1156.65 902.92 -1158.93 899.335C-1158.46 899.039 -1158.32 898.422 -1158.62 897.956C-1161.29 893.723 -1163.88 889.473 -1166.4 885.207C-1166.68 884.731 -1167.29 884.572 -1167.76 884.852C-1169.93 881.152 -1172.03 877.44 -1174.08 873.715C-1173.59 873.45 -1173.41 872.843 -1173.68 872.359C-1176.07 867.982 -1178.37 863.588 -1180.58 859.178C-1180.83 858.685 -1181.43 858.485 -1181.92 858.732C-1183.85 854.872 -1185.71 851 -1187.5 847.115C-1187 846.885 -1186.78 846.291 -1187.01 845.79C-1189.07 841.294 -1191.04 836.781 -1192.92 832.253C-1193.14 831.744 -1193.72 831.502 -1194.23 831.713C-1195.88 827.711 -1197.46 823.697 -1198.96 819.671C-1198.45 819.478 -1198.18 818.903 -1198.38 818.385C-1200.1 813.747 -1201.73 809.092 -1203.26 804.423C-1203.43 803.898 -1203.99 803.612 -1204.52 803.783C-1205.85 799.685 -1207.11 795.575 -1208.29 791.454C-1207.76 791.302 -1207.45 790.75 -1207.6 790.219C-1208.95 785.451 -1210.21 780.667 -1211.36 775.868C-1211.49 775.332 -1212.03 775.001 -1212.56 775.129C-1213.55 770.955 -1214.47 766.769 -1215.3 762.573C-1214.76 762.466 -1214.41 761.941 -1214.52 761.399C-1215.47 756.54 -1216.32 751.666 -1217.07 746.778C-1217.15 746.233 -1217.66 745.858 -1218.21 745.94C-1218.84 741.696 -1219.4 737.44 -1219.87 733.175C-1219.33 733.115 -1218.93 732.621 -1218.99 732.073C-1219.52 727.168 -1219.95 722.25 -1220.27 717.318C-1220.31 716.768 -1220.79 716.35 -1221.34 716.386C-1221.6 712.104 -1221.79 707.812 -1221.9 703.511C-1221.34 703.498 -1220.91 703.041 -1220.92 702.489C-1220.97 700.011 -1221 697.531 -1221 695.047C-1221 692.563 -1220.97 690.082 -1220.92 687.604C-1220.91 687.052 -1221.34 686.596 -1221.9 686.583C-1221.79 682.282 -1221.6 677.99 -1221.34 673.708C-1220.79 673.743 -1220.31 673.326 -1220.27 672.775C-1219.95 667.844 -1219.52 662.925 -1218.99 658.021C-1218.93 657.472 -1219.33 656.979 -1219.87 656.918C-1219.4 652.653 -1218.84 648.398 -1218.21 644.153C-1217.66 644.236 -1217.15 643.861 -1217.07 643.315C-1216.32 638.427 -1215.47 633.554 -1214.52 628.694C-1214.41 628.153 -1214.76 627.628 -1215.31 627.52C-1214.47 623.324 -1213.55 619.139 -1212.56 614.964C-1212.03 615.092 -1211.49 614.762 -1211.36 614.225C-1210.21 609.427 -1208.95 604.643 -1207.6 599.874C-1207.45 599.343 -1207.76 598.791 -1208.29 598.639C-1207.11 594.518 -1205.85 590.408 -1204.52 586.31C-1203.99 586.481 -1203.43 586.195 -1203.26 585.671C-1201.73 581.001 -1200.1 576.346 -1198.38 571.708C-1198.18 571.19 -1198.45 570.615 -1198.96 570.423C-1197.46 566.396 -1195.88 562.382 -1194.23 558.38C-1193.72 558.591 -1193.14 558.35 -1192.92 557.84C-1191.04 553.312 -1189.07 548.8 -1187.01 544.304C-1186.78 543.802 -1187 543.209 -1187.5 542.978C-1185.71 539.093 -1183.85 535.221 -1181.92 531.361C-1181.43 531.608 -1180.83 531.409 -1180.58 530.915C-1178.37 526.505 -1176.07 522.112 -1173.68 517.734C-1173.42 517.25 -1173.59 516.643 -1174.08 516.378C-1172.03 512.654 -1169.93 508.941 -1167.76 505.241C-1167.29 505.521 -1166.68 505.362 -1166.4 504.886C-1163.88 500.62 -1161.29 496.37 -1158.62 492.138C-1158.32 491.671 -1158.46 491.054 -1158.93 490.759C-1156.65 487.173 -1154.32 483.599 -1151.92 480.039C-1151.47 480.347 -1150.85 480.226 -1150.54 479.769C-1147.79 475.694 -1144.96 471.635 -1142.06 467.594C-1141.74 467.145 -1141.84 466.521 -1142.29 466.199C-1139.77 462.702 -1137.19 459.219 -1134.56 455.748C-1134.12 456.082 -1133.5 455.996 -1133.16 455.557C-1130.21 451.678 -1127.19 447.816 -1124.1 443.97C-1123.75 443.539 -1123.82 442.91 -1124.25 442.564C-1121.56 439.23 -1118.82 435.908 -1116.03 432.599C-1115.61 432.955 -1114.98 432.902 -1114.62 432.481C-1111.43 428.714 -1108.17 424.964 -1104.85 421.23C-1104.49 420.818 -1104.52 420.186 -1104.94 419.819C-1102.11 416.658 -1099.25 413.51 -1096.33 410.374C-1095.93 410.75 -1095.3 410.727 -1094.92 410.324C-1091.54 406.704 -1088.11 403.102 -1084.61 399.515C-1084.22 399.12 -1084.23 398.488 -1084.63 398.102C-1081.64 395.052 -1078.61 392.014 -1075.54 388.988C-1075.15 389.382 -1074.52 389.387 -1074.13 389.001C-1070.63 385.57 -1067.08 382.156 -1063.48 378.757C-1063.07 378.379 -1063.05 377.746 -1063.43 377.344C-1060.3 374.398 -1057.12 371.463 -1053.9 368.541C-1053.53 368.95 -1052.89 368.981 -1052.48 368.611C-1048.84 365.314 -1045.14 362.033 -1041.4 358.768C-1040.98 358.406 -1040.94 357.775 -1041.3 357.358C-1038.09 354.573 -1034.85 351.801 -1031.56 349.04C-1031.21 349.462 -1030.58 349.517 -1030.15 349.163C-1026.36 345.976 -1022.51 342.806 -1018.61 339.652C-1018.18 339.305 -1018.11 338.675 -1018.46 338.246C-1015.14 335.567 -1011.78 332.899 -1008.39 330.244C-1008.05 330.678 -1007.42 330.755 -1006.99 330.416C-1003.13 327.401 -999.222 324.401 -995.269 321.417C-994.829 321.084 -994.741 320.457 -995.073 320.016C-991.64 317.43 -988.173 314.856 -984.671 312.293C-984.345 312.739 -983.72 312.836 -983.274 312.511C-979.285 309.598 -975.251 306.701 -971.174 303.819C-970.723 303.5 -970.616 302.877 -970.934 302.426C-967.473 299.984 -963.979 297.554 -960.455 295.135C-960.143 295.59 -959.521 295.706 -959.065 295.394C-954.987 292.601 -950.868 289.823 -946.707 287.061C-946.247 286.755 -946.122 286.135 -946.427 285.675C-942.83 283.292 -939.202 280.92 -935.545 278.56C-935.246 279.024 -934.627 279.158 -934.163 278.859C-930.059 276.216 -925.918 273.589 -921.738 270.975C-921.27 270.683 -921.128 270.066 -921.42 269.598C-917.795 267.336 -914.142 265.085 -910.461 262.846C-910.174 263.317 -909.559 263.468 -909.087 263.181C-904.833 260.598 -900.541 258.029 -896.213 255.476C-895.737 255.196 -895.579 254.583 -895.859 254.107C-892.201 251.954 -888.517 249.811 -884.807 247.68C-884.532 248.158 -883.921 248.324 -883.442 248.049C-879.181 245.606 -874.886 243.177 -870.556 240.762C-870.074 240.493 -869.901 239.884 -870.17 239.402C-866.413 237.31 -862.63 235.23 -858.822 233.16C-858.559 233.645 -857.952 233.825 -857.467 233.562C-853.111 231.199 -848.721 228.85 -844.299 226.516C-843.811 226.258 -843.624 225.653 -843.882 225.165C-840.135 223.191 -836.364 221.227 -832.571 219.274C-832.319 219.764 -831.716 219.958 -831.225 219.705C-826.836 217.45 -822.415 215.208 -817.965 212.98C-817.471 212.733 -817.271 212.133 -817.518 211.639C-813.654 209.709 -809.767 207.789 -805.858 205.88C-805.616 206.377 -805.018 206.583 -804.521 206.341C-800.104 204.188 -795.658 202.05 -791.183 199.925C-790.684 199.688 -790.472 199.092 -790.708 198.593C-786.865 196.771 -783 194.96 -779.115 193.159C-778.883 193.66 -778.289 193.878 -777.788 193.646C-773.294 191.567 -768.773 189.502 -764.225 187.451C-763.721 187.224 -763.497 186.632 -763.724 186.129C-759.777 184.352 -755.81 182.587 -751.822 180.831C-751.6 181.337 -751.01 181.567 -750.505 181.344C-746.03 179.378 -741.529 177.425 -737.002 175.486C-736.494 175.269 -736.259 174.681 -736.476 174.174C-732.555 172.496 -728.614 170.829 -724.654 169.173C-724.441 169.682 -723.855 169.922 -723.346 169.71C-718.769 167.798 -714.166 165.9 -709.538 164.015C-709.027 163.807 -708.781 163.224 -708.989 162.712C-704.999 161.09 -700.99 159.478 -696.962 157.877C-696.758 158.39 -696.177 158.641 -695.664 158.437C-691.111 156.63 -686.535 154.836 -681.936 153.055C-681.421 152.856 -681.165 152.277 -681.364 151.762C-677.379 150.221 -673.377 148.691 -669.357 147.171C-669.162 147.688 -668.585 147.949 -668.068 147.754C-663.423 146 -658.755 144.26 -654.064 142.533C-653.545 142.342 -653.28 141.768 -653.471 141.249C-649.436 139.767 -645.384 138.294 -641.316 136.832C-641.13 137.352 -640.557 137.622 -640.037 137.435C-635.421 135.779 -630.784 134.135 -626.126 132.505C-625.604 132.323 -625.33 131.752 -625.512 131.231C-621.476 129.821 -617.424 128.421 -613.357 127.031C-613.179 127.553 -612.61 127.832 -612.088 127.654C-607.388 126.05 -602.667 124.46 -597.925 122.883C-597.401 122.708 -597.117 122.142 -597.292 121.618C-593.211 120.264 -589.116 118.919 -585.006 117.584C-584.836 118.109 -584.272 118.397 -583.746 118.227C-579.079 116.714 -574.392 115.213 -569.686 113.726C-569.159 113.56 -568.867 112.998 -569.033 112.471C-564.956 111.185 -560.865 109.909 -556.76 108.642C-556.597 109.17 -556.038 109.466 -555.51 109.303C-550.766 107.842 -546.002 106.394 -541.22 104.959C-540.691 104.8 -540.391 104.243 -540.55 103.714C-536.423 102.478 -532.283 101.251 -528.128 100.035C-527.973 100.565 -527.418 100.869 -526.888 100.714C-522.178 99.3374 -517.451 97.9736 -512.706 96.6225C-512.175 96.4713 -511.867 95.9181 -512.018 95.3869C-507.909 94.2188 -503.786 93.0603 -499.651 91.9115C-499.503 92.4437 -498.952 92.7555 -498.42 92.6079C-493.641 91.2826 -488.844 89.9701 -484.03 88.6707C-483.497 88.5268 -483.181 87.9779 -483.325 87.4447C-479.151 86.3198 -474.963 85.2046 -470.763 84.0993C-470.622 84.6335 -470.076 84.9528 -469.542 84.8125C-464.798 83.5665 -460.038 82.3331 -455.263 81.1123C-454.728 80.9755 -454.405 80.4309 -454.542 79.8958C-450.406 78.8407 -446.259 77.795 -442.1 76.7588C-441.967 77.2948 -441.424 77.6212 -440.888 77.488C-436.081 76.2926 -431.258 75.1099 -426.419 73.94C-425.883 73.8102 -425.553 73.2698 -425.682 72.733C-421.486 71.7204 -417.279 70.7175 -413.059 69.7242C-412.933 70.2618 -412.395 70.5953 -411.857 70.469C-407.059 69.3416 -402.246 68.2268 -397.418 67.1245C-396.879 67.0016 -396.542 66.4655 -396.665 65.9271C-392.51 64.9802 -388.343 64.0427 -384.166 63.1147C-384.047 63.6539 -383.513 63.994 -382.974 63.8745C-378.144 62.8037 -373.301 61.7454 -368.443 60.6998C-367.903 60.5836 -367.56 60.0517 -367.676 59.5118C-363.465 58.6072 -359.243 57.7121 -355.011 56.8266C-354.898 57.3672 -354.368 57.714 -353.827 57.6011C-348.973 56.5876 -344.105 55.5866 -339.224 54.5984C-338.682 54.4888 -338.332 53.9611 -338.442 53.4198C-334.271 52.5772 -330.09 51.7438 -325.899 50.9196C-325.793 51.4616 -325.267 51.8147 -324.725 51.7084C-319.879 50.7574 -315.02 49.8189 -310.148 48.8929C-309.605 48.7898 -309.249 48.2663 -309.352 47.7237C-305.13 46.923 -300.898 46.1317 -296.657 45.3498C-296.557 45.893 -296.036 46.2523 -295.492 46.1524C-290.594 45.2515 -285.684 44.3632 -280.76 43.4875C-280.216 43.3908 -279.854 42.8716 -279.951 42.3278C-275.757 41.5836 -271.554 40.8486 -267.342 40.1228C-267.248 40.6671 -266.731 41.0325 -266.187 40.939C-261.328 40.1037 -256.457 39.2807 -251.575 38.4701C-251.03 38.3797 -250.662 37.8647 -250.752 37.3198C-246.522 36.6193 -242.284 35.9281 -238.037 35.2462C-237.949 35.7915 -237.437 36.1628 -236.891 36.0755C-231.985 35.2897 -227.067 34.5163 -222.137 33.7555C-221.592 33.6713 -221.217 33.1605 -221.302 32.6147C-217.054 31.9608 -212.798 31.3161 -208.533 30.6808C-208.452 31.2271 -207.943 31.6042 -207.397 31.523C-202.529 30.7997 -197.65 30.0886 -192.76 29.3897C-192.214 29.3116 -191.834 28.8051 -191.912 28.2583C-187.678 27.6548 -183.435 27.0604 -179.185 26.4753C-179.11 27.0224 -178.605 27.4051 -178.058 27.33C-173.147 26.6557 -168.225 25.9937 -163.292 25.3441C-162.744 25.272 -162.359 24.7697 -162.431 24.2221C-158.155 23.6606 -153.871 23.1084 -149.579 22.5656C-149.51 23.1135 -149.01 23.5017 -148.462 23.4326C-143.564 22.8149 -138.656 22.2094 -133.738 21.6162C-133.189 21.55 -132.798 21.0519 -132.865 20.5036C-128.628 19.9942 -124.384 19.4938 -120.133 19.0026C-120.07 19.5512 -119.574 19.9448 -119.025 19.8816C-114.111 19.3156 -109.187 18.7618 -104.254 18.2203C-103.705 18.16 -103.309 17.6661 -103.369 17.1171C-99.0942 16.6495 -94.8123 16.191 -90.5232 15.7418C-90.4658 16.2911 -89.974 16.69 -89.4248 16.6326C-84.4722 16.1158 -79.51 15.6112 -74.5386 15.1191C-73.9889 15.0647 -73.5875 14.5751 -73.6418 14.0255C-69.4049 13.6076 -65.1611 13.1987 -60.9108 12.7989C-60.8593 13.3488 -60.3717 13.7528 -59.8219 13.7013C-54.9075 13.2408 -49.9841 12.7924 -45.052 12.3562C-44.502 12.3075 -44.0953 11.8221 -44.144 11.272C-39.8722 10.8956 -35.5938 10.5285 -31.3088 10.1705C-31.2631 10.7209 -30.7798 11.1299 -30.2294 11.0841C-25.2798 10.6724 -20.3215 10.2728 -15.3547 9.88563C-14.8042 9.84271 -14.3926 9.36155 -14.4355 8.81093C-10.1455 8.47798 -5.84912 8.15438 -1.54639 7.83984C-1.5061 8.39058 -1.02722 8.80454 -0.47644 8.76446C4.4364 8.40702 9.35742 8.06162 14.2865 7.72831C14.8375 7.69105 15.2538 7.21425 15.2167 6.66329C19.4841 6.3762 23.7576 6.09816 28.037 5.82924C28.0715 6.38036 28.5463 6.79919 29.0974 6.76474C34.0424 6.45569 38.9951 6.15881 43.9557 5.87415C44.5071 5.84251 44.9283 5.36997 44.8967 4.81867C49.1953 4.57347 53.4996 4.33745 57.8097 4.11065C57.8386 4.6621 58.309 5.08574 58.8605 5.05691C63.8113 4.79808 68.7695 4.55142 73.7351 4.31699C74.2867 4.29095 74.7128 3.82271 74.6869 3.27111C78.9487 3.07136 83.2159 2.88061 87.4886 2.6989C87.5121 3.25061 87.9781 3.67896 88.5299 3.65569C93.4688 3.44732 98.4147 3.25104 103.368 3.06691C103.92 3.0464 104.35 2.58245 104.33 2.03062C108.62 1.87257 112.916 1.72364 117.216 1.58386C117.234 2.13578 117.696 2.56878 118.248 2.55103C123.215 2.39126 128.189 2.2437 133.169 2.10842C133.721 2.09342 134.157 1.63381 134.142 1.0818C138.43 0.966758 142.723 0.86081 147.021 0.763996C147.033 1.31607 147.491 1.75365 148.043 1.7414C152.974 1.63196 157.912 1.53455 162.856 1.44923C163.409 1.4397 163.849 0.984413 163.839 0.432285C168.12 0.359831 172.406 0.296434 176.696 0.242132C176.703 0.794298 177.156 1.23637 177.708 1.22957C182.665 1.16847 187.628 1.11952 192.598 1.08278C193.15 1.07869 193.594 0.62777 193.59 0.0755755C197.896 0.0451596 202.206 0.0239033 206.521 0.0118451C206.522 0.564052 206.971 1.01057 207.523 1.00921C210.014 1.00307 212.506 1 215 1C217.494 1 219.985 1.00307 222.476 1.00921C223.028 1.01057 223.477 0.56405 223.478 0.0118434C227.793 0.0239007 232.104 0.0451562 236.409 0.0755712C236.405 0.627765 236.85 1.07869 237.402 1.08277C242.371 1.11952 247.334 1.16847 252.291 1.22956C252.843 1.23636 253.296 0.79429 253.303 0.242125C257.594 0.296425 261.879 0.359821 266.16 0.432275C266.151 0.984403 266.591 1.43969 267.143 1.44922C272.087 1.53454 277.025 1.63195 281.957 1.74139C282.509 1.75364 282.966 1.31605 282.979 0.763985C287.277 0.860798 291.57 0.966745 295.858 1.08179C295.843 1.63379 296.278 2.09341 296.83 2.1084C301.811 2.24369 306.785 2.39124 311.752 2.55101C312.304 2.56877 312.765 2.13577 312.783 1.58385C317.084 1.72363 321.379 1.87256 325.67 2.0306C325.649 2.58243 326.08 3.04638 326.632 3.06689C331.585 3.25102 336.531 3.4473 341.469 3.65566C342.021 3.67894 342.487 3.25058 342.511 2.69887C346.783 2.88058 351.051 3.07133 355.313 3.27109C355.287 3.82269 355.713 4.29092 356.264 4.31697C361.23 4.5514 366.188 4.79805 371.139 5.05688C371.69 5.08571 372.161 4.66207 372.19 4.11062C376.5 4.33742 380.804 4.57344 385.103 4.81864C385.071 5.36995 385.492 5.84248 386.044 5.87412C391.004 6.15878 395.957 6.45566 400.902 6.76471C401.453 6.79916 401.928 6.38033 401.963 5.8292C406.242 6.09813 410.515 6.37616 414.783 6.66325C414.746 7.21421 415.162 7.69102 415.713 7.72827C420.642 8.06158 425.563 8.40698 430.476 8.76442C431.027 8.80449 431.506 8.39054 431.546 7.83979C435.849 8.15433 440.145 8.47793 444.435 8.81089C444.392 9.3615 444.804 9.84266 445.354 9.88559C450.321 10.2728 455.279 10.6723 460.229 11.0841C460.779 11.1299 461.262 10.7208 461.308 10.1704C465.593 10.5284 469.872 10.8956 474.144 11.2719C474.095 11.822 474.501 12.3075 475.052 12.3561C479.984 12.7923 484.907 13.2407 489.821 13.7012C490.371 13.7527 490.859 13.3488 490.91 12.7989C495.161 13.1987 499.404 13.6075 503.641 14.0254C503.587 14.575 503.988 15.0647 504.538 15.1191C509.51 15.6112 514.472 16.1157 519.424 16.6326C519.973 16.6899 520.465 16.2911 520.522 15.7418C524.812 16.191 529.094 16.6494 533.368 17.1171C533.308 17.666 533.704 18.1599 534.253 18.2202C539.187 18.7617 544.111 19.3155 549.025 19.8815C549.573 19.9447 550.069 19.5512 550.132 19.0025C554.384 19.4937 558.628 19.9941 562.864 20.5035C562.798 21.0518 563.189 21.5499 563.737 21.6161C568.655 22.2093 573.564 22.8148 578.462 23.4325C579.01 23.5016 579.51 23.1135 579.579 22.5655C583.871 23.1084 588.155 23.6605 592.431 24.222C592.358 24.7696 592.744 25.2719 593.291 25.344C598.224 25.9936 603.146 26.6556 608.058 27.3299C608.605 27.405 609.109 27.0224 609.184 26.4752C613.435 27.0603 617.677 27.6547 621.911 28.2583C621.833 28.805 622.213 29.3115 622.76 29.3897C627.65 30.0885 632.529 30.7997 637.396 31.5229C637.943 31.6041 638.452 31.2271 638.533 30.6808C642.797 31.3161 647.053 31.9607 651.301 32.6146C651.217 33.1604 651.591 33.6712 652.137 33.7554C657.066 34.5163 661.984 35.2896 666.891 36.0754C667.436 36.1627 667.949 35.7915 668.036 35.2461C672.284 35.928 676.522 36.6193 680.752 37.3198C680.661 37.8646 681.029 38.3796 681.574 38.47C686.457 39.2806 691.328 40.1036 696.186 40.9389C696.731 41.0324 697.248 40.6671 697.341 40.1227C701.553 40.8485 705.756 41.5835 709.95 42.3277C709.853 42.8715 710.216 43.3907 710.76 43.4874C715.683 44.3631 720.594 45.2514 725.492 46.1523C726.035 46.2522 726.556 45.8929 726.656 45.3497C730.898 46.1316 735.13 46.9229 739.352 47.7236C739.249 48.2662 739.605 48.7897 740.147 48.8928C745.02 49.8188 749.879 50.7573 754.725 51.7083C755.267 51.8146 755.792 51.4615 755.899 50.9195C760.089 51.7437 764.27 52.5771 768.441 53.4197C768.332 53.961 768.682 54.4887 769.223 54.5983C774.105 55.5865 778.973 56.5875 783.827 57.601C784.367 57.7139 784.897 57.3671 785.01 56.8265C789.242 57.712 793.464 58.6071 797.675 59.5117C797.559 60.0516 797.903 60.5835 798.443 60.6997C803.3 61.7453 808.144 62.8036 812.973 63.8744C813.512 63.9939 814.046 63.6538 814.166 63.1146C818.343 64.0427 822.509 64.9801 826.665 65.9269C826.542 66.4654 826.879 67.0015 827.417 67.1244C832.245 68.2266 837.058 69.3415 841.856 70.4689C842.394 70.5952 842.932 70.2617 843.059 69.7241C847.278 70.7174 851.486 71.7203 855.682 72.7329C855.552 73.2697 855.882 73.8101 856.419 73.9399C861.258 75.1098 866.081 76.2924 870.888 77.4879C871.424 77.6211 871.967 77.2947 872.1 76.7587C876.259 77.7949 880.406 78.8406 884.541 79.8957C884.404 80.4307 884.727 80.9754 885.262 81.1122C890.038 82.333 894.798 83.5664 899.541 84.8123C900.075 84.9526 900.622 84.6334 900.762 84.0992C904.962 85.2045 909.15 86.3196 913.325 87.4445C913.181 87.9777 913.496 88.5266 914.03 88.6706C918.843 89.97 923.64 91.2824 928.419 92.6078C928.952 92.7554 929.503 92.4436 929.65 91.9114C933.786 93.0602 937.908 94.2187 942.018 95.3868C941.867 95.918 942.175 96.4712 942.706 96.6224C947.45 97.9735 952.178 99.3373 956.887 100.714C957.417 100.869 957.973 100.565 958.128 100.035C962.282 101.251 966.423 102.477 970.55 103.714C970.391 104.243 970.691 104.8 971.22 104.959C976.002 106.394 980.765 107.842 985.509 109.303C986.037 109.466 986.597 109.17 986.759 108.642C990.865 109.908 994.956 111.185 999.033 112.471C998.866 112.998 999.158 113.559 999.685 113.726C1004.39 115.213 1009.08 116.714 1013.75 118.227C1014.27 118.397 1014.84 118.109 1015.01 117.584C1019.12 118.919 1023.21 120.263 1027.29 121.618C1027.12 122.142 1027.4 122.708 1027.92 122.883C1032.67 124.46 1037.39 126.05 1042.09 127.654C1042.61 127.832 1043.18 127.553 1043.36 127.03C1047.42 128.421 1051.48 129.821 1055.51 131.231C1055.33 131.752 1055.6 132.323 1056.13 132.505C1060.78 134.135 1065.42 135.779 1070.04 137.435C1070.56 137.622 1071.13 137.352 1071.32 136.832C1075.38 138.294 1079.44 139.767 1083.47 141.249C1083.28 141.767 1083.55 142.342 1084.06 142.533C1088.75 144.26 1093.42 146 1098.07 147.753C1098.58 147.949 1099.16 147.688 1099.36 147.171C1103.38 148.691 1107.38 150.221 1111.36 151.761C1111.16 152.276 1111.42 152.856 1111.94 153.055C1116.53 154.836 1121.11 156.63 1125.66 158.437C1126.18 158.641 1126.76 158.39 1126.96 157.876C1130.99 159.478 1135 161.09 1138.99 162.712C1138.78 163.223 1139.03 163.807 1139.54 164.015C1144.17 165.899 1148.77 167.798 1153.35 169.709C1153.86 169.922 1154.44 169.682 1154.65 169.172C1158.61 170.829 1162.55 172.496 1166.48 174.173C1166.26 174.681 1166.49 175.269 1167 175.486C1171.53 177.425 1176.03 179.378 1180.5 181.344C1181.01 181.566 1181.6 181.337 1181.82 180.831C1185.81 182.586 1189.78 184.352 1193.72 186.128C1193.5 186.632 1193.72 187.224 1194.22 187.451C1198.77 189.502 1203.29 191.567 1207.79 193.646C1208.29 193.878 1208.88 193.66 1209.11 193.158C1213 194.959 1216.86 196.771 1220.71 198.592C1220.47 199.091 1220.68 199.688 1221.18 199.925C1225.66 202.049 1230.1 204.188 1234.52 206.341C1235.02 206.583 1235.62 206.376 1235.86 205.88C1239.77 207.789 1243.65 209.708 1247.52 211.638C1247.27 212.132 1247.47 212.733 1247.96 212.98C1252.42 215.208 1256.84 217.449 1261.22 219.705C1261.72 219.958 1262.32 219.764 1262.57 219.273C1266.36 221.226 1270.13 223.19 1273.88 225.164C1273.62 225.653 1273.81 226.258 1274.3 226.516C1278.72 228.85 1283.11 231.199 1287.47 233.562C1287.95 233.825 1288.56 233.645 1288.82 233.16C1292.63 235.229 1296.41 237.31 1300.17 239.401C1299.9 239.884 1300.07 240.493 1300.56 240.762C1304.89 243.176 1309.18 245.606 1313.44 248.049C1313.92 248.324 1314.53 248.158 1314.81 247.679C1318.52 249.811 1322.2 251.953 1325.86 254.107C1325.58 254.582 1325.74 255.195 1326.21 255.476C1330.54 258.029 1334.83 260.597 1339.09 263.181C1339.56 263.467 1340.17 263.317 1340.46 262.845C1344.14 265.085 1347.8 267.335 1351.42 269.597C1351.13 270.066 1351.27 270.682 1351.74 270.975C1355.92 273.588 1360.06 276.216 1364.16 278.858C1364.63 279.158 1365.25 279.023 1365.54 278.559C1369.2 280.919 1372.83 283.291 1376.43 285.674C1376.12 286.134 1376.25 286.755 1376.71 287.06C1380.87 289.823 1384.99 292.601 1389.07 295.394C1389.52 295.706 1390.14 295.59 1390.46 295.134C1393.98 297.553 1397.47 299.983 1400.93 302.425C1400.62 302.876 1400.72 303.5 1401.17 303.819C1405.25 306.701 1409.28 309.598 1413.27 312.511C1413.72 312.836 1414.35 312.739 1414.67 312.293C1418.17 314.855 1421.64 317.43 1425.07 320.016C1424.74 320.457 1424.83 321.084 1425.27 321.416C1429.22 324.401 1433.13 327.4 1436.99 330.415C1437.42 330.755 1438.05 330.678 1438.39 330.243C1441.78 332.899 1445.14 335.566 1448.46 338.245C1448.11 338.675 1448.18 339.304 1448.61 339.652C1452.51 342.806 1456.36 345.976 1460.15 349.162C1460.58 349.517 1461.21 349.462 1461.56 349.039C1464.85 351.8 1468.09 354.573 1471.3 357.357C1470.93 357.774 1470.98 358.406 1471.4 358.768C1475.14 362.033 1478.84 365.314 1482.48 368.611C1482.89 368.981 1483.53 368.95 1483.9 368.54C1487.12 371.462 1490.3 374.397 1493.43 377.344C1493.05 377.746 1493.07 378.378 1493.48 378.757C1497.08 382.155 1500.63 385.57 1504.13 389C1504.52 389.387 1505.15 389.382 1505.54 388.987C1508.61 392.013 1511.64 395.051 1514.63 398.101C1514.23 398.487 1514.22 399.12 1514.61 399.515C1518.11 403.101 1521.54 406.704 1524.92 410.323C1525.3 410.727 1525.93 410.75 1526.33 410.373C1529.25 413.509 1532.11 416.658 1534.94 419.818C1534.52 420.185 1534.49 420.817 1534.85 421.23C1538.17 424.964 1541.43 428.714 1544.62 432.481C1544.98 432.902 1545.61 432.955 1546.03 432.598C1548.82 435.907 1551.56 439.229 1554.25 442.563C1553.82 442.909 1553.75 443.539 1554.1 443.969C1557.19 447.815 1560.21 451.678 1563.16 455.557C1563.5 455.996 1564.12 456.081 1564.56 455.747C1567.19 459.218 1569.77 462.702 1572.29 466.198C1571.84 466.52 1571.74 467.145 1572.06 467.594C1574.96 471.635 1577.79 475.694 1580.54 479.768C1580.85 480.226 1581.47 480.347 1581.92 480.038C1584.32 483.599 1586.65 487.172 1588.93 490.758C1588.46 491.053 1588.32 491.67 1588.62 492.137C1591.29 496.37 1593.88 500.62 1596.4 504.886C1596.68 505.362 1597.29 505.521 1597.76 505.241C1599.93 508.94 1602.04 512.653 1604.08 516.377C1603.59 516.642 1603.41 517.249 1603.68 517.734C1606.07 522.111 1608.37 526.505 1610.58 530.915C1610.83 531.409 1611.43 531.608 1611.92 531.36C1613.85 535.22 1615.71 539.093 1617.5 542.977C1617 543.208 1616.78 543.801 1617.01 544.303C1619.07 548.799 1621.04 553.312 1622.92 557.84C1623.14 558.35 1623.72 558.591 1624.23 558.38C1625.88 562.382 1627.46 566.396 1628.97 570.422C1628.45 570.614 1628.18 571.19 1628.38 571.708C1630.1 576.346 1631.73 581.001 1633.26 585.67C1633.43 586.195 1633.99 586.481 1634.52 586.309C1635.85 590.407 1637.11 594.517 1638.29 598.639C1637.76 598.79 1637.45 599.343 1637.6 599.874C1638.95 604.642 1640.21 609.426 1641.36 614.225C1641.49 614.762 1642.03 615.093 1642.57 614.964C1643.56 619.138 1644.47 623.323 1645.31 627.52C1644.76 627.626 1644.41 628.152 1644.52 628.694C1645.47 633.553 1646.32 638.427 1647.07 643.315C1647.15 643.861 1647.66 644.236 1648.21 644.153C1648.84 648.397 1649.4 652.652 1649.88 656.918C1649.33 656.978 1648.93 657.471 1648.99 658.02C1649.52 662.925 1649.95 667.843 1650.27 672.775C1650.31 673.326 1650.79 673.743 1651.34 673.707C1651.6 677.989 1651.79 682.281 1651.9 686.582Z" stroke="#333332" stroke-width="2" stroke-linecap="round" stroke-linejoin="round" stroke-dasharray="15 15"/>
</svg>
