<svg width="194" height="332" viewBox="0 0 194 332" fill="none" xmlns="http://www.w3.org/2000/svg">
<path d="M168.85 150C168.85 196.308 131.086 233.85 84.5 233.85C37.9139 233.85 0.15 196.308 0.15 150C0.15 103.692 37.9139 66.15 84.5 66.15C131.086 66.15 168.85 103.692 168.85 150Z" stroke="#333332" stroke-width="0.3"/>
<circle cx="201" cy="110" r="109.85" stroke="#333332" stroke-width="0.3" stroke-dasharray="10 10"/>
<path d="M95.8857 233.162C175.546 233.162 251.067 104.301 263.417 76.0162C219.802 233.162 154.397 307.375 95.8857 307.375" stroke="#333332" stroke-width="0.3"/>
<line x1="134.2" y1="220" x2="134.2" y2="320" stroke="#333332" stroke-width="0.4" stroke-dasharray="5 5"/>
<line x1="157.2" y1="205" x2="157.2" y2="305" stroke="#333332" stroke-width="0.4" stroke-dasharray="5 5"/>
<path opacity="0.53" d="M160.925 311V300.248C161.317 300.229 161.719 300.22 162.129 300.22C162.54 300.211 162.974 300.206 163.431 300.206C164.299 300.206 164.999 300.332 165.531 300.584C166.063 300.836 166.451 301.191 166.693 301.648C166.936 302.096 167.057 302.609 167.057 303.188C167.057 303.813 166.922 304.378 166.651 304.882C166.381 305.377 165.984 305.773 165.461 306.072C164.948 306.371 164.309 306.52 163.543 306.52H161.429V305.596H163.263C164.187 305.596 164.864 305.395 165.293 304.994C165.723 304.583 165.937 304.042 165.937 303.37C165.937 302.661 165.746 302.11 165.363 301.718C164.981 301.317 164.313 301.116 163.361 301.116C163.109 301.116 162.839 301.121 162.549 301.13C162.26 301.139 161.994 301.153 161.751 301.172L161.989 300.934V311H160.925Z" fill="#333332"/>
</svg>
