<svg width="439" height="526" viewBox="0 0 439 526" fill="none" xmlns="http://www.w3.org/2000/svg">
<circle cx="-48" cy="233" r="123.85" stroke="#333332" stroke-width="0.3"/>
<circle cx="123.5" cy="174.5" r="161.35" stroke="#333332" stroke-width="0.3" stroke-dasharray="10 10"/>
<g opacity="0.23">
<path d="M17.4454 89.7379L-150.922 403.425" stroke="#333332" stroke-width="0.3" stroke-linecap="round"/>
<path d="M63.4391 114.424L-104.929 428.111" stroke="#333332" stroke-width="0.3" stroke-linecap="round"/>
<path d="M109.433 139.111L-58.9349 452.798" stroke="#333332" stroke-width="0.3" stroke-linecap="round"/>
<path d="M155.426 163.798L-12.9412 477.485" stroke="#333332" stroke-width="0.3" stroke-linecap="round"/>
<path d="M201.42 188.484L33.0524 502.171" stroke="#333332" stroke-width="0.3" stroke-linecap="round"/>
<path d="M197.039 298.962L-116.648 130.595" stroke="#333332" stroke-width="0.3" stroke-linecap="round"/>
<path d="M172.353 344.956L-141.334 176.588" stroke="#333332" stroke-width="0.3" stroke-linecap="round"/>
<path d="M147.666 390.949L-166.021 222.582" stroke="#333332" stroke-width="0.3" stroke-linecap="round"/>
<path d="M122.98 436.943L-190.707 268.576" stroke="#333332" stroke-width="0.3" stroke-linecap="round"/>
<path d="M98.2931 482.937L-215.394 314.569" stroke="#333332" stroke-width="0.3" stroke-linecap="round"/>
<path d="M221.726 252.969L-91.9613 84.6009" stroke="#333332" stroke-width="0.3" stroke-linecap="round"/>
</g>
<path d="M-25.0697 355.452C91.9303 355.452 202.85 166.191 220.989 124.648C156.93 355.452 60.8679 464.452 -25.0697 464.452" stroke="#333332" stroke-width="0.3"/>
<line x1="25.2" y1="336" x2="25.2" y2="484" stroke="#333332" stroke-width="0.4" stroke-dasharray="5 5"/>
<line x1="58.2" y1="313" x2="58.2" y2="461" stroke="#333332" stroke-width="0.4" stroke-dasharray="5 5"/>
<path opacity="0.53" d="M27.785 328.786L28.343 329.794C27.599 330.274 26.891 330.628 26.219 330.856C25.559 331.084 24.905 331.198 24.257 331.198C23.189 331.198 22.259 330.916 21.467 330.352C20.687 329.776 20.075 328.96 19.631 327.904C19.199 326.848 18.983 325.588 18.983 324.124C18.983 322.96 19.115 321.94 19.379 321.064C19.655 320.176 20.033 319.432 20.513 318.832C20.993 318.22 21.557 317.758 22.205 317.446C22.865 317.134 23.579 316.978 24.347 316.978C25.331 316.978 26.195 317.236 26.939 317.752C27.695 318.256 28.259 319.03 28.631 320.074L27.299 320.488C26.987 319.684 26.567 319.108 26.039 318.76C25.523 318.4 24.947 318.22 24.311 318.22C23.111 318.22 22.169 318.736 21.485 319.768C20.801 320.8 20.459 322.252 20.459 324.124C20.459 325.972 20.807 327.4 21.503 328.408C22.211 329.416 23.189 329.92 24.437 329.92C24.965 329.92 25.493 329.83 26.021 329.65C26.561 329.47 27.149 329.182 27.785 328.786Z" fill="#333332"/>
<path opacity="0.53" d="M64.6898 458V444.176C65.1938 444.152 65.7098 444.14 66.2378 444.14C66.7658 444.128 67.3238 444.122 67.9118 444.122C69.0278 444.122 69.9278 444.284 70.6118 444.608C71.2958 444.932 71.7938 445.388 72.1058 445.976C72.4178 446.552 72.5738 447.212 72.5738 447.956C72.5738 448.76 72.3998 449.486 72.0518 450.134C71.7038 450.77 71.1938 451.28 70.5218 451.664C69.8618 452.048 69.0398 452.24 68.0558 452.24H65.3378V451.052H67.6958C68.8838 451.052 69.7538 450.794 70.3058 450.278C70.8578 449.75 71.1338 449.054 71.1338 448.19C71.1338 447.278 70.8878 446.57 70.3958 446.066C69.9038 445.55 69.0458 445.292 67.8218 445.292C67.4978 445.292 67.1498 445.298 66.7778 445.31C66.4058 445.322 66.0638 445.34 65.7518 445.364L66.0578 445.058V458H64.6898Z" fill="#333332"/>
<path d="M-314 407C-314 182.772 -132.228 1 92 1C238.311 1 366.547 78.3939 438 194.476" stroke="#333332"/>
</svg>
