<svg width="430" height="1714" viewBox="0 0 430 1714" fill="none" xmlns="http://www.w3.org/2000/svg">
<path d="M218.5 17C-66 17 -385 374.062 -385 797.209C-385 867.386 -319.532 732.639 -305.66 797.209C-305.66 797.209 -545 1694 216.5 1694C978 1694 793.083 737.826 793.083 737.826C806.956 673.256 818 867.386 818 797.209C818 374.062 503 17 218.5 17Z" fill="#F1EFE9"/>
<path d="M-304.192 797.082L-304.13 797.376L-304.192 797.082ZM-304.192 797.082C-304.48 795.709 -304.792 794.418 -305.126 793.206L-306.572 793.604C-307.334 790.833 -308.21 788.511 -309.186 786.59L-307.848 785.911C-309.296 783.061 -311.005 780.945 -312.981 779.534L-313.853 780.755C-316.008 779.215 -318.415 778.714 -321.004 779.008L-321.173 777.517C-323.66 777.8 -326.221 778.732 -328.79 780.072L-328.096 781.402C-330.165 782.481 -332.297 783.867 -334.468 785.467L-335.358 784.259C-337.34 785.72 -339.344 787.35 -341.349 789.076L-340.37 790.212C-342.237 791.819 -344.114 793.519 -345.985 795.256L-347.006 794.157C-348.858 795.876 -350.703 797.631 -352.522 799.362L-351.488 800.448C-351.617 800.572 -351.746 800.695 -351.875 800.818C-353.598 802.458 -355.301 804.08 -356.972 805.638L-357.995 804.541C-359.913 806.33 -361.78 808.026 -363.579 809.565L-362.604 810.705C-364.685 812.485 -366.684 814.065 -368.574 815.342L-369.414 814.099C-371.825 815.727 -373.911 816.748 -375.648 817.09L-375.358 818.562C-377.981 819.078 -380.179 818.341 -381.811 815.85L-380.557 815.028C-381.451 813.663 -382.22 811.553 -382.746 808.454L-384.225 808.705C-384.579 806.618 -384.817 804.164 -384.928 801.305L-383.429 801.247C-383.476 800.039 -383.5 798.754 -383.5 797.39C-383.5 796.048 -383.497 794.706 -383.491 793.365L-384.991 793.358C-384.978 790.67 -384.954 787.985 -384.917 785.303L-383.417 785.324C-383.38 782.646 -383.331 779.971 -383.27 777.298L-384.77 777.264C-384.709 774.587 -384.635 771.913 -384.55 769.242L-383.051 769.29C-382.966 766.624 -382.868 763.96 -382.759 761.299L-384.258 761.237C-384.148 758.56 -384.026 755.886 -383.892 753.215L-382.394 753.291C-382.26 750.611 -382.113 747.935 -381.955 745.262L-383.452 745.173C-383.294 742.496 -383.123 739.821 -382.94 737.15L-381.444 737.252C-381.262 734.585 -381.067 731.922 -380.861 729.261L-382.357 729.146C-382.151 726.481 -381.932 723.82 -381.703 721.161L-380.208 721.291C-379.978 718.625 -379.735 715.964 -379.481 713.305L-380.974 713.163C-380.719 710.488 -380.451 707.817 -380.172 705.15L-378.68 705.306C-378.401 702.643 -378.111 699.984 -377.809 697.328L-379.299 697.159C-378.996 694.498 -378.682 691.842 -378.356 689.189L-376.867 689.372C-376.542 686.724 -376.205 684.079 -375.856 681.438L-377.343 681.242C-376.992 678.584 -376.63 675.93 -376.256 673.28L-374.771 673.49C-374.396 670.835 -374.01 668.183 -373.612 665.536L-375.096 665.313C-374.697 662.662 -374.288 660.014 -373.866 657.37L-372.385 657.606C-371.964 654.967 -371.532 652.332 -371.089 649.701L-372.568 649.452C-372.124 646.817 -371.669 644.185 -371.202 641.559L-369.725 641.821C-369.257 639.184 -368.777 636.551 -368.286 633.923L-369.761 633.648C-369.268 631.008 -368.763 628.373 -368.248 625.742L-366.776 626.03C-366.261 623.404 -365.735 620.782 -365.198 618.165L-366.667 617.863C-366.129 615.241 -365.58 612.624 -365.02 610.012L-363.553 610.326C-362.994 607.718 -362.424 605.114 -361.842 602.515L-363.306 602.188C-362.72 599.568 -362.123 596.952 -361.515 594.341L-360.054 594.681C-359.446 592.071 -358.827 589.466 -358.197 586.865L-359.655 586.512C-359.024 583.907 -358.382 581.307 -357.729 578.712L-356.275 579.078C-355.623 576.488 -354.96 573.902 -354.287 571.322L-355.739 570.943C-355.064 568.358 -354.379 565.779 -353.684 563.204L-352.236 563.596C-351.535 561.005 -350.824 558.419 -350.103 555.839L-351.547 555.435C-350.824 552.85 -350.091 550.271 -349.346 547.697L-347.905 548.114C-347.162 545.544 -346.409 542.98 -345.645 540.421L-347.082 539.992C-346.317 537.429 -345.541 534.872 -344.754 532.32L-343.321 532.762C-342.534 530.209 -341.738 527.663 -340.93 525.122L-342.36 524.668C-341.546 522.106 -340.722 519.551 -339.887 517.001L-338.462 517.467C-337.628 514.922 -336.785 512.382 -335.931 509.848L-337.352 509.369C-336.497 506.831 -335.631 504.299 -334.755 501.773L-333.338 502.265C-332.464 499.743 -331.579 497.227 -330.684 494.718L-332.097 494.214C-331.198 491.69 -330.288 489.172 -329.367 486.66L-327.959 487.176C-327.036 484.657 -326.104 482.145 -325.161 479.639L-326.565 479.111C-325.621 476.601 -324.666 474.097 -323.702 471.6L-322.303 472.14C-321.34 469.647 -320.367 467.161 -319.385 464.681L-320.779 464.128C-319.795 461.644 -318.801 459.167 -317.798 456.696L-316.408 457.261C-315.399 454.777 -314.38 452.299 -313.351 449.829L-314.736 449.252C-313.703 446.773 -312.661 444.301 -311.609 441.835L-310.23 442.424C-309.18 439.963 -308.12 437.508 -307.05 435.061L-308.425 434.46C-307.354 432.009 -306.273 429.565 -305.183 427.128L-303.813 427.74C-302.724 425.304 -301.624 422.875 -300.516 420.453L-301.879 419.829C-300.76 417.384 -299.631 414.946 -298.492 412.515L-297.134 413.151C-295.997 410.725 -294.851 408.306 -293.696 405.894L-295.048 405.246C-293.891 402.83 -292.724 400.422 -291.548 398.022L-290.201 398.682C-289.027 396.285 -287.844 393.897 -286.652 391.516L-287.993 390.844C-286.793 388.447 -285.583 386.057 -284.364 383.676L-283.029 384.359C-281.806 381.97 -280.575 379.589 -279.334 377.216L-280.663 376.521C-279.42 374.145 -278.168 371.776 -276.907 369.416L-275.584 370.122C-274.326 367.766 -273.058 365.417 -271.781 363.077L-273.098 362.359C-271.819 360.015 -270.532 357.679 -269.236 355.352L-267.925 356.082C-266.618 353.735 -265.302 351.396 -263.977 349.066L-265.281 348.325C-263.953 345.99 -262.617 343.664 -261.272 341.347L-259.974 342.1C-258.631 339.786 -257.28 337.482 -255.92 335.186L-257.21 334.421C-255.848 332.121 -254.477 329.83 -253.097 327.549L-251.813 328.325C-250.429 326.035 -249.037 323.755 -247.636 321.484L-248.913 320.696C-247.501 318.407 -246.08 316.127 -244.651 313.856L-243.381 314.655C-241.955 312.388 -240.52 310.13 -239.076 307.882L-240.339 307.072C-238.893 304.82 -237.439 302.577 -235.977 300.344L-234.722 301.166C-233.262 298.937 -231.794 296.717 -230.318 294.507L-231.566 293.674C-230.07 291.434 -228.566 289.205 -227.054 286.985L-225.814 287.829C-224.304 285.613 -222.786 283.406 -221.26 281.209L-222.492 280.353C-220.963 278.153 -219.427 275.963 -217.882 273.782L-216.658 274.65C-215.116 272.473 -213.567 270.307 -212.009 268.151L-213.225 267.273C-211.654 265.098 -210.075 262.933 -208.488 260.779L-207.28 261.669C-205.687 259.507 -204.086 257.355 -202.478 255.214L-203.677 254.313C-202.066 252.168 -200.447 250.034 -198.82 247.911L-197.629 248.824C-196.006 246.704 -194.374 244.596 -192.736 242.499L-193.918 241.575C-192.272 239.468 -190.618 237.373 -188.958 235.288L-187.785 236.223C-186.108 234.12 -184.425 232.027 -182.734 229.947L-183.898 229.001C-182.204 226.916 -180.503 224.844 -178.795 222.782L-177.64 223.74C-175.935 221.682 -174.222 219.636 -172.502 217.602L-173.648 216.634C-171.925 214.596 -170.195 212.57 -168.459 210.556L-167.323 211.536C-165.566 209.499 -163.803 207.475 -162.033 205.463L-163.159 204.472C-161.383 202.453 -159.599 200.447 -157.809 198.453L-156.693 199.455C-154.906 197.465 -153.113 195.487 -151.312 193.522L-152.418 192.508C-150.615 190.539 -148.804 188.583 -146.987 186.64L-145.891 187.664C-144.059 185.704 -142.221 183.758 -140.375 181.824L-141.461 180.789C-139.602 178.841 -137.737 176.907 -135.865 174.986L-134.791 176.033C-132.923 174.116 -131.048 172.212 -129.168 170.322L-130.231 169.264C-128.346 167.37 -126.456 165.49 -124.559 163.623L-123.506 164.692C-121.598 162.814 -119.684 160.95 -117.763 159.1L-118.804 158.02C-116.863 156.151 -114.916 154.295 -112.963 152.455L-111.935 153.546C-109.986 151.709 -108.031 149.886 -106.07 148.078L-107.086 146.976C-105.121 145.164 -103.151 143.366 -101.174 141.583L-100.169 142.697C-98.1839 140.906 -96.1927 139.13 -94.1959 137.369L-95.188 136.244C-93.1657 134.461 -91.1376 132.692 -89.1038 130.939L-88.1245 132.076C-86.0951 130.326 -84.06 128.593 -82.0195 126.874L-82.9857 125.727C-80.9408 124.005 -78.8904 122.298 -76.8346 120.607L-75.8817 121.766C-73.818 120.068 -71.7488 118.387 -69.6745 116.721L-70.6137 115.551C-68.5103 113.862 -66.4016 112.19 -64.2876 110.534L-63.3625 111.714C-61.2534 110.062 -59.1391 108.426 -57.0198 106.807L-57.9305 105.615C-55.8065 103.992 -53.6774 102.385 -51.5435 100.796L-50.6474 101.999C-48.5035 100.402 -46.3548 98.8218 -44.2014 97.259L-45.0825 96.045C-42.899 94.4604 -40.7108 92.8935 -38.5179 91.3442L-37.6524 92.5693C-35.4647 91.0238 -33.2725 89.4959 -31.0758 87.986L-31.9255 86.7498C-29.7235 85.2362 -27.517 83.7405 -25.3063 82.2628L-24.4727 83.5099C-22.247 82.0222 -20.0171 80.5529 -17.7829 79.1021L-18.5999 77.8441C-16.3381 76.3753 -14.0721 74.9255 -11.802 73.4947L-11.0022 74.7637C-8.73792 73.3365 -6.4696 71.9285 -4.19751 70.5396L-4.97983 69.2598C-2.70184 67.8673 -0.419983 66.4941 1.86554 65.1402L2.63 66.4308C4.93906 65.063 7.2518 63.7151 9.56805 62.3873L8.82202 61.086C11.1596 59.7459 13.5008 58.4262 15.8454 57.1269L16.5724 58.439C18.9106 57.1433 21.2522 55.8681 23.5969 54.6135L22.8892 53.2909C25.2404 52.0329 27.5948 50.7955 29.9522 49.579L30.6401 50.9119C33.0332 49.677 35.4293 48.4637 37.8282 47.2721L37.1609 45.9287C39.5707 44.7317 41.9834 43.5566 44.3987 42.4035L45.045 43.7572C47.4532 42.6075 49.8641 41.4798 52.2773 40.3743L51.6526 39.0106C54.0845 37.8966 56.5189 36.805 58.9555 35.736L59.5582 37.1096C62.0231 36.0283 64.4902 34.9702 66.9594 33.9355L66.3797 32.5521C68.8565 31.5142 71.3355 30.4998 73.8164 29.509L74.3727 30.9021C76.8457 29.9145 79.3204 28.9505 81.7968 28.0104L81.2643 26.6081C83.7787 25.6535 86.2947 24.7234 88.8122 23.818L89.3199 25.2295C91.8459 24.3209 94.3734 23.4373 96.902 22.5788L96.4198 21.1585C98.9569 20.2971 101.495 19.4609 104.035 18.6501L104.491 20.079C107.026 19.2696 109.562 18.4855 112.099 17.7271L111.669 16.29C114.256 15.5167 116.843 14.77 119.431 14.05L119.833 15.4951C122.411 14.7777 124.99 14.0869 127.569 13.423L127.195 11.9704C129.783 11.3041 132.372 10.6648 134.961 10.0526L135.306 11.5123C137.911 10.8962 140.517 10.3078 143.121 9.74722L142.806 8.28079C145.436 7.71468 148.067 7.17686 150.696 6.66756L150.982 8.1402C153.601 7.63288 156.22 7.154 158.838 6.70376L158.583 5.22546C161.219 4.77212 163.855 4.34768 166.489 3.95239L166.711 5.43579C169.364 5.03771 172.015 4.66933 174.665 4.33087L174.475 2.84295C177.136 2.50309 179.795 2.19327 182.453 1.91371L182.61 3.40548C185.257 3.12709 187.902 2.87886 190.544 2.66101L190.421 1.16608C193.1 0.945257 195.777 0.755512 198.452 0.597088L198.54 2.09446C201.208 1.93644 203.874 1.80972 206.536 1.71455L206.483 0.215503C209.157 0.119908 211.829 0.0559938 214.499 0.0240062L214.516 1.5239C215.845 1.50798 217.173 1.5 218.5 1.5C219.825 1.5 221.151 1.50795 222.477 1.52382L222.495 0.0239308C225.159 0.0558115 227.826 0.119505 230.494 0.214769L230.441 1.71381C233.098 1.80866 235.757 1.93494 238.419 2.09241L238.507 0.595029C241.176 0.752929 243.846 0.942053 246.519 1.16216L246.395 2.6571C249.033 2.87437 251.673 3.12196 254.314 3.39965L254.471 1.90788C257.123 2.18674 259.776 2.49582 262.431 2.83487L262.241 4.32278C264.885 4.66044 267.53 5.02796 270.175 5.42511L270.398 3.94173C273.027 4.33637 275.657 4.76014 278.287 5.21281L278.033 6.69109C280.645 7.14066 283.258 7.61887 285.872 8.12549L286.157 6.65291C288.781 7.16152 291.405 7.69864 294.029 8.26403L293.713 9.73038C296.312 10.2904 298.911 10.8784 301.511 11.494L301.856 10.0343C304.44 10.6462 307.023 11.2852 309.605 11.9512L309.23 13.4037C311.803 14.0672 314.376 14.7576 316.948 15.4748L317.351 14.0299C319.932 14.7496 322.512 15.4961 325.092 16.2692L324.661 17.706C327.193 18.4646 329.723 19.2489 332.252 20.0587L332.71 18.6301C335.243 19.4411 337.775 20.2776 340.306 21.1393L339.822 22.5592C342.344 23.418 344.865 24.302 347.384 25.2109L347.893 23.8C350.404 24.706 352.914 25.6368 355.421 26.5921L354.887 27.9939C357.357 28.9348 359.826 29.8997 362.292 30.8882L362.85 29.4959C365.324 30.4876 367.796 31.503 370.266 32.542L369.684 33.9247C372.146 34.9604 374.606 36.0196 377.063 37.1022L377.668 35.7295C380.098 36.7999 382.525 37.893 384.95 39.0087L384.323 40.3714C386.729 41.4784 389.133 42.6078 391.534 43.7592L392.182 42.4067C394.591 43.5616 396.996 44.7385 399.398 45.9374L398.728 47.2795C401.119 48.4729 403.507 49.6881 405.892 50.925L406.582 49.5934C408.932 50.8122 411.279 52.0519 413.622 53.3123L412.912 54.6334C415.249 55.8903 417.582 57.1679 419.913 58.4661L420.643 57.1557C422.979 58.4575 425.312 59.7798 427.641 61.1226L426.892 62.4221C429.2 63.7523 431.503 65.1027 433.803 66.473L434.571 65.1843C436.848 66.5411 439.122 67.9173 441.391 69.3128L440.606 70.5906C442.869 71.9825 445.129 73.3936 447.384 74.8239L448.187 73.5572C450.449 74.9911 452.706 76.4442 454.958 77.9163L454.138 79.172C456.362 80.6256 458.582 82.0978 460.798 83.5884L461.635 82.3438C463.837 83.825 466.034 85.3242 468.227 86.8415L467.373 88.075C469.561 89.5885 471.743 91.1199 473.921 92.6692L474.791 91.4469C476.974 92.9998 479.153 94.5706 481.326 96.1591L480.441 97.3701C482.584 98.936 484.722 100.519 486.855 102.119L487.755 100.919C489.879 102.513 491.998 104.123 494.112 105.75L493.197 106.939C495.306 108.562 497.41 110.202 499.509 111.859L500.438 110.681C502.542 112.341 504.64 114.018 506.733 115.712L505.79 116.878C507.852 118.547 509.91 120.231 511.962 121.932L512.919 120.777C514.964 122.472 517.004 124.183 519.038 125.909L518.067 127.053C520.097 128.776 522.121 130.514 524.139 132.267L525.123 131.135C527.146 132.892 529.163 134.665 531.174 136.453L530.177 137.574C532.161 139.338 534.14 141.117 536.113 142.911L537.122 141.802C539.087 143.589 541.047 145.391 543 147.207L541.979 148.305C543.928 150.118 545.871 151.945 547.809 153.787L548.842 152.7C550.783 154.545 552.718 156.404 554.647 158.278L553.602 159.354C555.509 161.207 557.41 163.074 559.305 164.955L560.362 163.89C562.247 165.762 564.125 167.646 565.998 169.545L564.93 170.598C566.798 172.493 568.661 174.401 570.516 176.322L571.595 175.28C573.455 177.205 575.307 179.144 577.154 181.096L576.064 182.127C577.895 184.063 579.72 186.012 581.538 187.975L582.638 186.955C584.442 188.903 586.24 190.864 588.031 192.837L586.92 193.845C588.708 195.814 590.489 197.796 592.263 199.791L593.384 198.794C595.161 200.792 596.931 202.803 598.695 204.826L597.564 205.812C599.32 207.827 601.068 209.853 602.81 211.893L603.951 210.918C605.674 212.936 607.391 214.966 609.1 217.008L607.95 217.971C609.657 220.009 611.356 222.058 613.048 224.12L614.207 223.168C615.902 225.233 617.59 227.31 619.271 229.399L618.102 230.339C619.78 232.424 621.45 234.52 623.112 236.628L624.29 235.699C625.936 237.785 627.574 239.882 629.205 241.991L628.018 242.909C629.643 245.009 631.261 247.121 632.871 249.244L634.066 248.338C635.679 250.464 637.284 252.602 638.882 254.75L637.678 255.645C639.273 257.79 640.86 259.946 642.44 262.112L643.652 261.228C645.223 263.383 646.787 265.549 648.343 267.726L647.123 268.598C648.666 270.757 650.202 272.926 651.73 275.106L652.958 274.245C654.489 276.428 656.011 278.622 657.526 280.825L656.29 281.675C657.802 283.875 659.306 286.085 660.802 288.305L662.046 287.466C663.543 289.687 665.031 291.918 666.512 294.159L665.26 294.986C666.722 297.198 668.176 299.42 669.621 301.652L670.88 300.837C672.328 303.072 673.768 305.317 675.2 307.572L673.934 308.376C675.363 310.627 676.784 312.887 678.196 315.157L679.47 314.364C680.885 316.637 682.291 318.92 683.689 321.212L682.409 321.993C683.794 324.265 685.172 326.545 686.54 328.835L687.828 328.065C689.193 330.349 690.55 332.642 691.898 334.944L690.604 335.702C691.95 338 693.287 340.306 694.616 342.622L695.917 341.875C697.248 344.194 698.571 346.522 699.885 348.859L698.577 349.594C699.887 351.924 701.188 354.263 702.48 356.609L703.794 355.886C705.076 358.215 706.349 360.552 707.614 362.897L706.294 363.609C707.556 365.95 708.81 368.3 710.055 370.657L711.381 369.957C712.628 372.319 713.866 374.689 715.095 377.067L713.762 377.755C714.989 380.129 716.207 382.511 717.416 384.902L718.754 384.225C719.958 386.605 721.153 388.994 722.339 391.39L720.995 392.055C722.173 394.437 723.342 396.826 724.503 399.223L725.853 398.569C727.015 400.97 728.168 403.379 729.312 405.795L727.956 406.436C729.098 408.848 730.23 411.268 731.353 413.695L732.715 413.065C733.84 415.496 734.955 417.935 736.062 420.38L734.695 420.999C735.789 423.418 736.874 425.846 737.95 428.28L739.322 427.673C740.399 430.11 741.466 432.554 742.524 435.005L741.147 435.599C742.203 438.046 743.25 440.5 744.287 442.961L745.669 442.379C746.708 444.844 747.737 447.316 748.756 449.795L747.369 450.365C748.384 452.834 749.389 455.309 750.385 457.791L751.777 457.232C752.768 459.702 753.749 462.178 754.72 464.661L753.323 465.208C754.293 467.687 755.253 470.172 756.203 472.664L757.605 472.13C758.557 474.626 759.499 477.128 760.431 479.637L759.024 480.159C759.955 482.664 760.875 485.175 761.786 487.692L763.196 487.182C764.104 489.691 765.001 492.206 765.888 494.727L764.473 495.225C765.356 497.733 766.228 500.247 767.091 502.767L768.51 502.281C769.374 504.805 770.228 507.335 771.071 509.871L769.648 510.344C770.49 512.876 771.322 515.414 772.144 517.958L773.572 517.497C774.395 520.044 775.208 522.598 776.01 525.157L774.579 525.606C775.374 528.143 776.16 530.686 776.935 533.234L778.37 532.798C779.145 535.347 779.91 537.902 780.664 540.462L779.226 540.886C779.979 543.442 780.722 546.003 781.454 548.57L782.897 548.159C783.63 550.73 784.353 553.306 785.066 555.888L783.62 556.287C784.331 558.863 785.031 561.445 785.721 564.032L787.171 563.646C787.856 566.217 788.531 568.793 789.195 571.374L787.743 571.748C788.406 574.325 789.059 576.907 789.701 579.494L791.157 579.133C791.8 581.724 792.432 584.321 793.054 586.922L791.595 587.271C792.216 589.868 792.825 592.47 793.424 595.076L794.886 594.741C795.485 597.347 796.073 599.957 796.65 602.573L795.185 602.896C795.758 605.491 796.319 608.091 796.87 610.695L798.338 610.385C798.889 612.993 799.43 615.606 799.96 618.224L798.49 618.521C799.019 621.135 799.537 623.752 800.043 626.375L801.516 626.09C802.024 628.717 802.521 631.348 803.006 633.983L801.531 634.255C802.014 636.878 802.486 639.505 802.947 642.137L804.425 641.878C804.884 644.5 805.332 647.127 805.769 649.757L804.29 650.003C804.726 652.629 805.151 655.26 805.565 657.894L807.047 657.661C807.462 660.3 807.865 662.943 808.257 665.59L806.773 665.81C807.165 668.452 807.545 671.099 807.913 673.749L809.399 673.542C809.767 676.187 810.123 678.835 810.468 681.487L808.981 681.68C809.324 684.316 809.655 686.956 809.976 689.599L811.465 689.418C811.786 692.066 812.095 694.717 812.393 697.372L810.902 697.539C811.199 700.19 811.485 702.844 811.76 705.501L813.252 705.347C813.526 708.01 813.79 710.675 814.041 713.344L812.548 713.485C812.797 716.137 813.036 718.793 813.263 721.453L814.757 721.325C814.983 723.978 815.198 726.634 815.401 729.293L813.905 729.407C814.108 732.062 814.299 734.72 814.478 737.381L815.975 737.28C816.154 739.946 816.322 742.614 816.478 745.286L814.981 745.374C815.136 748.041 815.28 750.712 815.412 753.386L816.911 753.312C817.042 755.977 817.162 758.645 817.27 761.316L815.771 761.376C815.879 764.031 815.974 766.689 816.058 769.35L817.557 769.303C817.641 771.968 817.714 774.636 817.774 777.307L816.274 777.341C816.334 780.008 816.382 782.677 816.418 785.349L817.918 785.328C817.955 788.005 817.979 790.684 817.991 793.366L816.491 793.372C816.497 794.711 816.5 796.05 816.5 797.39C816.5 797.977 816.499 798.546 816.498 799.096C816.496 799.917 816.492 800.698 816.486 801.44L817.986 801.451C817.962 804.786 817.905 807.343 817.816 809.212L816.318 809.141C816.302 809.471 816.286 809.776 816.269 810.057L816.262 810.058C815.916 808.166 815.522 805.512 815.083 802.302L816.569 802.099C816.255 799.803 815.918 797.221 815.558 794.425L814.07 794.616C813.866 793.026 813.654 791.368 813.435 789.656C813.318 788.735 813.198 787.799 813.077 786.849L814.565 786.659C814.247 784.173 813.915 781.594 813.57 778.961L812.083 779.156C811.751 776.621 811.408 774.036 811.053 771.438L812.539 771.234C812.188 768.665 811.826 766.08 811.453 763.513L809.968 763.729C809.591 761.13 809.202 758.551 808.803 756.027L810.285 755.793C809.867 753.148 809.438 750.562 808.997 748.073L807.52 748.335C807.048 745.669 806.564 743.119 806.068 740.733L807.537 740.428C806.952 737.613 806.348 735.013 805.726 732.713L804.278 733.105C803.455 730.058 802.605 727.567 801.731 725.824L803.072 725.152C802.622 724.255 802.126 723.458 801.568 722.847C801.019 722.247 800.29 721.696 799.368 721.567C798.387 721.429 797.525 721.811 796.847 722.4C796.196 722.965 795.639 723.777 795.142 724.738L796.474 725.427C795.657 727.006 794.827 729.41 793.985 732.76L792.53 732.395C792.226 733.608 791.921 734.938 791.615 736.391L791.563 736.638L-304.192 797.082ZM-306.312 800.981C-306.652 802.905 -307.114 805.583 -307.67 808.965L-306.19 809.209C-306.559 811.459 -306.971 814.022 -307.417 816.885L-308.899 816.654C-309.276 819.077 -309.677 821.714 -310.098 824.556L-308.614 824.776C-308.982 827.263 -309.365 829.907 -309.759 832.703L-311.245 832.493C-311.604 835.045 -311.974 837.722 -312.35 840.521L-310.863 840.721C-311.197 843.198 -311.535 845.771 -311.878 848.436L-313.365 848.245C-313.708 850.913 -314.055 853.673 -314.404 856.523L-312.915 856.705C-313.221 859.205 -313.528 861.774 -313.836 864.41L-315.326 864.235C-315.624 866.791 -315.923 869.41 -316.222 872.089L-314.731 872.255C-315.029 874.932 -315.326 877.669 -315.621 880.465L-317.113 880.308C-317.384 882.871 -317.653 885.484 -317.921 888.144L-316.428 888.294C-316.685 890.852 -316.939 893.453 -317.191 896.098L-318.684 895.956C-318.936 898.603 -319.186 901.293 -319.431 904.025L-317.937 904.16C-318.178 906.841 -318.416 909.564 -318.649 912.325L-320.144 912.199C-320.359 914.741 -320.57 917.316 -320.777 919.923L-319.282 920.042C-319.489 922.647 -319.692 925.284 -319.891 927.952L-321.386 927.84C-321.585 930.511 -321.779 933.213 -321.968 935.945L-320.471 936.048C-320.656 938.718 -320.836 941.417 -321.01 944.143L-322.507 944.047C-322.671 946.618 -322.831 949.214 -322.985 951.834L-321.487 951.922C-321.642 954.539 -321.79 957.18 -321.934 959.845L-323.431 959.764C-323.575 962.431 -323.712 965.122 -323.844 967.835L-322.346 967.908C-322.477 970.611 -322.602 973.337 -322.721 976.085L-324.219 976.02C-324.33 978.6 -324.436 981.199 -324.536 983.817L-323.037 983.874C-323.136 986.49 -323.23 989.123 -323.317 991.775L-324.816 991.726C-324.903 994.38 -324.984 997.052 -325.058 999.742L-323.559 999.783C-323.633 1002.47 -323.7 1005.17 -323.761 1007.9L-325.26 1007.86C-325.319 1010.51 -325.371 1013.18 -325.416 1015.86L-323.916 1015.88C-323.96 1018.49 -323.997 1021.12 -324.027 1023.75L-325.527 1023.74C-325.557 1026.38 -325.58 1029.03 -325.596 1031.7L-324.096 1031.7C-324.112 1034.37 -324.121 1037.05 -324.122 1039.74L-325.622 1039.74C-325.623 1042.43 -325.617 1045.13 -325.602 1047.85L-324.102 1047.85C-324.089 1050.48 -324.068 1053.12 -324.039 1055.77L-325.539 1055.79C-325.51 1058.42 -325.474 1061.05 -325.431 1063.7L-323.931 1063.67C-323.888 1066.32 -323.836 1068.97 -323.777 1071.64L-325.277 1071.67C-325.217 1074.34 -325.15 1077.02 -325.075 1079.7L-323.575 1079.66C-323.5 1082.35 -323.416 1085.04 -323.324 1087.74L-324.824 1087.79C-324.734 1090.43 -324.636 1093.08 -324.53 1095.73L-323.031 1095.67C-322.926 1098.3 -322.812 1100.94 -322.69 1103.58L-324.189 1103.65C-324.067 1106.3 -323.937 1108.96 -323.798 1111.62L-322.3 1111.54C-322.161 1114.2 -322.014 1116.87 -321.858 1119.54L-323.355 1119.63C-323.199 1122.3 -323.034 1124.99 -322.859 1127.68L-321.362 1127.58C-321.191 1130.22 -321.011 1132.88 -320.821 1135.53L-322.317 1135.64C-322.13 1138.27 -321.934 1140.91 -321.728 1143.55L-320.233 1143.44C-320.027 1146.08 -319.813 1148.72 -319.59 1151.37L-321.084 1151.5C-320.861 1154.15 -320.628 1156.81 -320.385 1159.47L-318.891 1159.34C-318.649 1162 -318.397 1164.66 -318.136 1167.33L-319.629 1167.47C-319.368 1170.13 -319.098 1172.79 -318.819 1175.46L-317.327 1175.3C-317.051 1177.92 -316.766 1180.55 -316.471 1183.18L-317.962 1183.35C-317.667 1185.99 -317.362 1188.62 -317.047 1191.27L-315.557 1191.09C-315.243 1193.73 -314.918 1196.37 -314.584 1199.01L-316.072 1199.2C-315.737 1201.85 -315.391 1204.49 -315.036 1207.15L-313.549 1206.95C-313.194 1209.59 -312.828 1212.24 -312.452 1214.9L-313.938 1215.11C-313.565 1217.73 -313.183 1220.36 -312.79 1222.99L-311.306 1222.76C-310.914 1225.38 -310.512 1228.01 -310.099 1230.63L-311.581 1230.86C-311.167 1233.49 -310.743 1236.12 -310.308 1238.74L-308.828 1238.5C-308.393 1241.12 -307.948 1243.75 -307.491 1246.37L-308.969 1246.63C-308.512 1249.26 -308.044 1251.89 -307.564 1254.52L-306.088 1254.25C-305.611 1256.87 -305.123 1259.48 -304.623 1262.1L-306.096 1262.38C-305.598 1264.99 -305.089 1267.6 -304.568 1270.21L-303.097 1269.91C-302.577 1272.52 -302.045 1275.12 -301.502 1277.72L-302.97 1278.03C-302.426 1280.63 -301.87 1283.24 -301.303 1285.84L-299.837 1285.52C-299.27 1288.12 -298.692 1290.72 -298.101 1293.32L-299.564 1293.65C-298.972 1296.25 -298.369 1298.85 -297.753 1301.45L-296.293 1301.1C-295.68 1303.69 -295.055 1306.27 -294.418 1308.85L-295.874 1309.21C-295.236 1311.79 -294.586 1314.37 -293.923 1316.95L-292.47 1316.58C-291.808 1319.15 -291.134 1321.72 -290.447 1324.29L-291.896 1324.68C-291.208 1327.25 -290.507 1329.82 -289.793 1332.39L-288.348 1331.99C-287.635 1334.55 -286.91 1337.11 -286.171 1339.66L-287.612 1340.08C-286.872 1342.64 -286.12 1345.19 -285.353 1347.74L-283.917 1347.31C-283.152 1349.86 -282.374 1352.4 -281.583 1354.94L-283.015 1355.39C-282.222 1357.93 -281.416 1360.47 -280.596 1363L-279.169 1362.54C-278.351 1365.07 -277.519 1367.59 -276.673 1370.11L-278.095 1370.59C-277.248 1373.11 -276.386 1375.63 -275.511 1378.15L-274.094 1377.65C-273.221 1380.16 -272.333 1382.67 -271.432 1385.16L-272.843 1385.67C-271.938 1388.18 -271.018 1390.68 -270.084 1393.18L-268.68 1392.65C-267.748 1395.14 -266.801 1397.63 -265.84 1400.11L-267.238 1400.65C-266.275 1403.13 -265.297 1405.61 -264.305 1408.08L-262.913 1407.52C-261.922 1409.99 -260.917 1412.45 -259.897 1414.9L-261.281 1415.47C-260.259 1417.93 -259.221 1420.38 -258.168 1422.83L-256.791 1422.23C-255.739 1424.67 -254.673 1427.1 -253.591 1429.53L-254.961 1430.14C-253.874 1432.57 -252.771 1435 -251.653 1437.42L-250.292 1436.79C-249.177 1439.2 -248.046 1441.61 -246.899 1444.01L-248.252 1444.65C-247.102 1447.06 -245.937 1449.45 -244.755 1451.84L-243.411 1451.17C-242.233 1453.55 -241.038 1455.92 -239.827 1458.28L-241.162 1458.97C-239.948 1461.34 -238.718 1463.7 -237.471 1466.04L-236.146 1465.34C-234.9 1467.69 -233.638 1470.03 -232.36 1472.35L-233.674 1473.08C-232.391 1475.41 -231.092 1477.74 -229.775 1480.05L-228.471 1479.31C-227.158 1481.62 -225.828 1483.92 -224.482 1486.21L-225.774 1486.97C-224.424 1489.27 -223.056 1491.55 -221.671 1493.82L-220.39 1493.04C-219.009 1495.31 -217.61 1497.57 -216.195 1499.81L-217.463 1500.61C-216.043 1502.86 -214.606 1505.1 -213.151 1507.33L-211.895 1506.51C-210.444 1508.74 -208.976 1510.95 -207.49 1513.15L-208.733 1513.99C-207.242 1516.19 -205.734 1518.38 -204.207 1520.57L-202.978 1519.71C-201.456 1521.88 -199.916 1524.04 -198.358 1526.19L-199.573 1527.07C-198.01 1529.23 -196.429 1531.37 -194.829 1533.51L-193.629 1532.6C-192.034 1534.73 -190.421 1536.84 -188.79 1538.94L-189.974 1539.86C-188.343 1541.96 -186.693 1544.04 -185.025 1546.11L-183.857 1545.17C-182.196 1547.24 -180.516 1549.28 -178.817 1551.32L-179.969 1552.28C-178.265 1554.32 -176.542 1556.35 -174.8 1558.36L-173.665 1557.38C-171.929 1559.39 -170.174 1561.38 -168.399 1563.36L-169.516 1564.36C-167.735 1566.35 -165.936 1568.32 -164.117 1570.28L-163.018 1569.25C-161.21 1571.2 -159.383 1573.13 -157.536 1575.04L-158.616 1576.08C-156.778 1577.99 -154.922 1579.88 -153.045 1581.75L-151.985 1580.69C-150.116 1582.56 -148.227 1584.42 -146.318 1586.25L-147.359 1587.33C-145.444 1589.18 -143.509 1591.01 -141.555 1592.82L-140.534 1591.72C-138.587 1593.53 -136.62 1595.32 -134.633 1597.1L-135.632 1598.21C-133.638 1600 -131.624 1601.76 -129.59 1603.51L-128.612 1602.37C-126.611 1604.09 -124.59 1605.8 -122.55 1607.49L-123.507 1608.64C-121.473 1610.32 -119.42 1611.99 -117.347 1613.64L-116.413 1612.47C-114.347 1614.11 -112.262 1615.74 -110.157 1617.35L-111.069 1618.54C-108.957 1620.16 -106.824 1621.76 -104.672 1623.35L-103.783 1622.14C-101.638 1623.72 -99.4735 1625.28 -97.2888 1626.82L-98.1544 1628.05C-95.9618 1629.59 -93.7489 1631.13 -91.5156 1632.64L-90.6738 1631.4C-88.511 1632.87 -86.3291 1634.32 -84.1277 1635.75L-84.9462 1637.01C-82.7396 1638.44 -80.5136 1639.86 -78.2681 1641.27L-77.4734 1639.99C-75.2359 1641.39 -72.9789 1642.77 -70.7023 1644.13L-71.4728 1645.42C-69.1881 1646.79 -66.8836 1648.14 -64.5594 1649.47L-63.8132 1648.17C-61.4971 1649.5 -59.1612 1650.81 -56.8053 1652.1L-57.5268 1653.42C-55.1711 1654.71 -52.7955 1655.98 -50.3999 1657.24L-49.7032 1655.91C-47.4022 1657.12 -45.0826 1658.31 -42.7443 1659.48L-43.4169 1660.82C-41.0706 1662 -38.7055 1663.16 -36.3215 1664.3L-35.6732 1662.95C-33.2974 1664.09 -30.9026 1665.21 -28.489 1666.31L-29.1128 1667.68C-26.6909 1668.79 -24.2499 1669.88 -21.7898 1670.95L-21.1906 1669.57C-18.7387 1670.64 -16.2677 1671.69 -13.7773 1672.72L-14.3519 1674.11C-11.8534 1675.15 -9.33551 1676.16 -6.79819 1677.16L-6.24835 1675.77C-3.84216 1676.72 -1.41833 1677.65 1.02319 1678.56L0.496979 1679.97C2.94345 1680.88 5.40762 1681.78 7.88959 1682.67L8.39224 1681.25C10.8664 1682.13 13.3583 1683 15.8681 1683.84L15.389 1685.26C17.9067 1686.11 20.4424 1686.94 22.9961 1687.76L23.4516 1686.33C25.9974 1687.14 28.5612 1687.93 31.1432 1688.71L30.7113 1690.15C33.3012 1690.93 35.9092 1691.69 38.5356 1692.43L38.9441 1690.99C41.4787 1691.7 44.0304 1692.4 46.5995 1693.09L46.2136 1694.54C48.7189 1695.21 51.2405 1695.86 53.7785 1696.49L54.1424 1695.04C56.6731 1695.67 59.2203 1696.29 61.7839 1696.89L61.4419 1698.35C64.0128 1698.95 66.6002 1699.53 69.2042 1700.1L69.5245 1698.64C72.1213 1699.21 74.7348 1699.76 77.3649 1700.29L77.0662 1701.76C79.7035 1702.3 82.3575 1702.82 85.0284 1703.32L85.3057 1701.84C87.9694 1702.35 90.65 1702.83 93.3474 1703.3L93.0915 1704.78C95.6684 1705.22 98.2607 1705.65 100.868 1706.07L101.104 1704.59C103.653 1704.99 106.216 1705.38 108.795 1705.76L108.579 1707.24C111.163 1707.62 113.763 1707.98 116.378 1708.33L116.575 1706.84C119.183 1707.19 121.806 1707.52 124.445 1707.83L124.267 1709.32C126.912 1709.63 129.572 1709.93 132.247 1710.22L132.406 1708.73C135.074 1709.01 137.758 1709.28 140.457 1709.53L140.318 1711.02C143.023 1711.28 145.744 1711.51 148.48 1711.74L148.601 1710.24C151.253 1710.46 153.921 1710.66 156.603 1710.84L156.5 1712.34C159.066 1712.51 161.645 1712.68 164.238 1712.82L164.324 1711.33C166.911 1711.47 169.511 1711.61 172.125 1711.73L172.056 1713.23C174.675 1713.35 177.308 1713.46 179.954 1713.55L180.006 1712.05C182.647 1712.14 185.301 1712.22 187.969 1712.28L187.933 1713.78C190.606 1713.85 193.292 1713.9 195.992 1713.93L196.012 1712.43C198.707 1712.47 201.415 1712.49 204.138 1712.5L204.134 1714C206.861 1714 209.602 1714 212.357 1713.97L212.345 1712.47C213.72 1712.46 215.098 1712.45 216.48 1712.43C217.856 1712.41 219.229 1712.39 220.598 1712.36L220.627 1713.86C223.372 1713.81 226.104 1713.74 228.823 1713.66L228.778 1712.16C231.492 1712.08 234.193 1711.99 236.881 1711.88L236.943 1713.38C239.637 1713.26 242.318 1713.14 244.987 1713L244.909 1711.5C247.572 1711.36 250.222 1711.21 252.86 1711.04L252.956 1712.54C255.599 1712.37 258.231 1712.18 260.849 1711.99L260.736 1710.49C263.349 1710.29 265.95 1710.08 268.538 1709.86L268.668 1711.35C271.262 1711.13 273.843 1710.89 276.412 1710.63L276.265 1709.14C278.93 1708.88 281.582 1708.6 284.22 1708.3L284.386 1709.79C287.105 1709.49 289.809 1709.17 292.5 1708.84L292.315 1707.35C294.999 1707.02 297.669 1706.67 300.325 1706.3L300.529 1707.79C303.192 1707.42 305.841 1707.04 308.475 1706.65L308.252 1705.16C310.881 1704.77 313.495 1704.36 316.096 1703.93L316.339 1705.41C318.946 1704.98 321.539 1704.54 324.119 1704.08L323.857 1702.61C326.43 1702.15 328.99 1701.68 331.536 1701.19L331.818 1702.66C334.396 1702.17 336.961 1701.66 339.512 1701.14L339.21 1699.67C341.883 1699.12 344.54 1698.56 347.182 1697.97L347.504 1699.44C350.153 1698.86 352.787 1698.26 355.405 1697.64L355.062 1696.18C357.673 1695.57 360.27 1694.94 362.851 1694.29L363.216 1695.74C365.804 1695.09 368.378 1694.43 370.936 1693.75L370.551 1692.3C373.102 1691.62 375.639 1690.92 378.161 1690.21L378.568 1691.66C381.097 1690.94 383.611 1690.22 386.11 1689.47L385.682 1688.03C388.198 1687.28 390.698 1686.52 393.184 1685.74L393.634 1687.17C396.232 1686.35 398.813 1685.52 401.378 1684.67L400.906 1683.24C403.464 1682.4 406.006 1681.53 408.532 1680.65L409.026 1682.07C411.56 1681.18 414.077 1680.28 416.578 1679.36L416.062 1677.95C418.555 1677.04 421.033 1676.11 423.496 1675.16L424.034 1676.56C426.504 1675.61 428.958 1674.64 431.396 1673.66L430.835 1672.27C433.266 1671.29 435.68 1670.29 438.08 1669.28L438.663 1670.66C441.124 1669.62 443.569 1668.57 445.997 1667.5L445.392 1666.12C447.858 1665.04 450.308 1663.93 452.741 1662.81L453.369 1664.17C455.81 1663.04 458.233 1661.9 460.641 1660.74L459.99 1659.39C462.389 1658.24 464.772 1657.06 467.139 1655.87L467.812 1657.21C470.186 1656.02 472.544 1654.81 474.885 1653.59L474.189 1652.26C476.523 1651.04 478.84 1649.8 481.141 1648.55L481.859 1649.87C484.179 1648.6 486.484 1647.32 488.771 1646.03L488.032 1644.72C490.372 1643.39 492.695 1642.05 495.001 1640.69L495.762 1641.99C498.076 1640.62 500.372 1639.24 502.651 1637.85L501.867 1636.57C504.139 1635.18 506.394 1633.77 508.633 1632.34L509.438 1633.61C511.683 1632.18 513.912 1630.74 516.123 1629.28L515.297 1628.03C517.502 1626.57 519.69 1625.1 521.861 1623.61L522.709 1624.85C524.887 1623.36 527.049 1621.85 529.194 1620.33L528.326 1619.11C530.511 1617.56 532.679 1615.99 534.83 1614.41L535.718 1615.62C537.876 1614.03 540.017 1612.43 542.141 1610.81L541.232 1609.62C543.35 1608 545.45 1606.37 547.534 1604.73L548.463 1605.91C550.553 1604.26 552.627 1602.6 554.683 1600.92L553.735 1599.75C555.785 1598.08 557.819 1596.39 559.836 1594.69L560.804 1595.84C562.827 1594.13 564.834 1592.4 566.825 1590.67L565.839 1589.54C567.848 1587.78 569.841 1586.01 571.817 1584.23L572.822 1585.34C574.806 1583.55 576.773 1581.75 578.724 1579.93L577.701 1578.83C579.646 1577.02 581.574 1575.19 583.485 1573.35L584.526 1574.43C586.443 1572.58 588.344 1570.72 590.229 1568.85L589.171 1567.79C591.05 1565.92 592.913 1564.03 594.76 1562.14L595.834 1563.18C597.686 1561.28 599.522 1559.37 601.342 1557.44L600.251 1556.41C602.078 1554.47 603.889 1552.53 605.683 1550.56L606.79 1551.58C608.59 1549.61 610.374 1547.63 612.141 1545.64L611.019 1544.64C612.782 1542.65 614.529 1540.65 616.26 1538.64L617.397 1539.62C619.133 1537.6 620.853 1535.57 622.557 1533.53L621.406 1532.57C623.105 1530.53 624.789 1528.48 626.457 1526.42L627.623 1527.36C629.296 1525.29 630.954 1523.21 632.596 1521.12L631.417 1520.2C633.057 1518.11 634.683 1516.01 636.293 1513.9L637.486 1514.8C639.1 1512.69 640.7 1510.56 642.283 1508.42L641.078 1507.53C642.657 1505.39 644.222 1503.25 645.771 1501.09L646.99 1501.96C648.543 1499.8 650.081 1497.63 651.605 1495.45L650.375 1494.59C651.894 1492.41 653.399 1490.22 654.889 1488.02L656.13 1488.86C657.624 1486.66 659.103 1484.45 660.567 1482.22L659.314 1481.4C660.773 1479.18 662.218 1476.95 663.648 1474.72L664.912 1475.53C666.346 1473.28 667.765 1471.03 669.17 1468.77L667.896 1467.98C669.297 1465.73 670.684 1463.46 672.057 1461.19L673.341 1461.96C674.718 1459.68 676.08 1457.39 677.428 1455.1L676.134 1454.34C677.479 1452.05 678.809 1449.75 680.126 1447.44L681.429 1448.18C682.748 1445.87 684.054 1443.55 685.345 1441.22L684.033 1440.49C685.32 1438.17 686.593 1435.84 687.852 1433.5L689.172 1434.21C690.434 1431.87 691.683 1429.52 692.918 1427.16L691.589 1426.47C692.821 1424.11 694.04 1421.75 695.245 1419.38L696.582 1420.07C697.79 1417.69 698.985 1415.31 700.167 1412.92L698.822 1412.26C700.001 1409.88 701.167 1407.49 702.32 1405.09L703.672 1405.74C704.826 1403.34 705.968 1400.94 707.096 1398.52L705.737 1397.89C706.862 1395.48 707.975 1393.07 709.074 1390.65L710.439 1391.27C711.541 1388.85 712.63 1386.42 713.706 1383.99L712.334 1383.38C713.408 1380.95 714.47 1378.51 715.519 1376.07L716.897 1376.66C717.948 1374.22 718.987 1371.77 720.013 1369.31L718.629 1368.73C719.653 1366.28 720.665 1363.82 721.665 1361.36L723.055 1361.92C724.056 1359.45 725.046 1356.98 726.023 1354.5L724.628 1353.95C725.603 1351.48 726.567 1349 727.518 1346.52L728.919 1347.06C729.872 1344.57 730.813 1342.08 731.743 1339.58L730.337 1339.06C730.91 1337.52 731.478 1335.98 732.042 1334.44C732.392 1333.49 732.74 1332.53 733.086 1331.58L734.496 1332.09C735.402 1329.58 736.297 1327.08 737.18 1324.56L735.765 1324.07C736.646 1321.56 737.516 1319.05 738.374 1316.54L739.794 1317.02C740.655 1314.5 741.504 1311.98 742.342 1309.45L740.919 1308.98C741.757 1306.45 742.584 1303.92 743.399 1301.39L744.827 1301.85C745.644 1299.31 746.45 1296.77 747.245 1294.23L745.813 1293.78C746.606 1291.24 747.389 1288.7 748.161 1286.16L749.596 1286.59C750.369 1284.05 751.131 1281.5 751.882 1278.95L750.443 1278.52C751.193 1275.98 751.932 1273.43 752.661 1270.88L754.104 1271.29C754.836 1268.73 755.557 1266.16 756.268 1263.6L754.822 1263.19C755.534 1260.62 756.235 1258.05 756.927 1255.48L758.375 1255.87C759.067 1253.29 759.749 1250.72 760.42 1248.14L758.968 1247.76C759.638 1245.19 760.298 1242.61 760.948 1240.03L762.403 1240.4C763.053 1237.82 763.694 1235.24 764.324 1232.66L762.867 1232.3C763.497 1229.73 764.116 1227.15 764.726 1224.57L766.186 1224.92C766.8 1222.32 767.404 1219.72 767.999 1217.13L766.537 1216.79C767.133 1214.19 767.719 1211.58 768.296 1208.98L769.76 1209.3C770.337 1206.7 770.905 1204.09 771.463 1201.49L769.996 1201.17C770.553 1198.57 771.1 1195.97 771.638 1193.37L773.107 1193.67C773.645 1191.07 774.174 1188.47 774.694 1185.87L773.223 1185.57C773.742 1182.97 774.251 1180.38 774.752 1177.78L776.225 1178.07C776.732 1175.44 777.229 1172.81 777.718 1170.19L776.243 1169.91C776.733 1167.28 777.213 1164.65 777.683 1162.03L779.16 1162.29C779.631 1159.66 780.094 1157.03 780.547 1154.41L779.069 1154.15C779.521 1151.53 779.965 1148.91 780.4 1146.3L781.879 1146.54C782.314 1143.92 782.741 1141.31 783.158 1138.7L781.677 1138.46C782.094 1135.85 782.503 1133.24 782.903 1130.64L784.385 1130.86C784.794 1128.2 785.194 1125.54 785.585 1122.89L784.101 1122.67C784.492 1120.02 784.873 1117.37 785.246 1114.73L786.732 1114.94C787.105 1112.29 787.47 1109.65 787.826 1107.02L786.34 1106.82C786.696 1104.18 787.043 1101.55 787.382 1098.93L788.87 1099.12C789.209 1096.5 789.54 1093.88 789.863 1091.26L788.375 1091.08C788.701 1088.43 789.019 1085.8 789.329 1083.16L790.819 1083.34C791.134 1080.66 791.441 1077.99 791.74 1075.32L790.249 1075.15C790.547 1072.49 790.837 1069.83 791.119 1067.18L792.61 1067.34C792.893 1064.69 793.167 1062.04 793.432 1059.41L791.94 1059.26C792.206 1056.62 792.464 1053.99 792.714 1051.37L794.207 1051.51C794.457 1048.89 794.7 1046.28 794.934 1043.67L793.441 1043.53C793.684 1040.83 793.918 1038.14 794.145 1035.46L795.64 1035.59C795.868 1032.9 796.087 1030.23 796.299 1027.56L794.803 1027.44C795.015 1024.78 795.218 1022.12 795.415 1019.47L796.91 1019.58C797.107 1016.94 797.295 1014.3 797.477 1011.67L795.98 1011.57C796.161 1008.94 796.335 1006.32 796.502 1003.72L797.999 1003.82C798.171 1001.12 798.336 998.44 798.493 995.77L796.995 995.682C797.154 992.98 797.306 990.289 797.45 987.612L798.947 987.692C799.091 985.012 799.228 982.345 799.358 979.691L797.859 979.618C797.989 976.966 798.111 974.327 798.226 971.701L799.725 971.767C799.84 969.139 799.948 966.525 800.05 963.925L798.551 963.866C798.656 961.166 798.755 958.481 798.846 955.812L800.345 955.863C800.438 953.145 800.524 950.443 800.602 947.757L799.103 947.713C799.181 945.03 799.253 942.364 799.318 939.715L800.817 939.752C800.882 937.1 800.94 934.466 800.992 931.85L799.492 931.82C799.544 929.206 799.589 926.61 799.628 924.033L801.128 924.055C801.169 921.305 801.204 918.576 801.231 915.868L799.732 915.853C799.759 913.135 799.781 910.439 799.795 907.766L801.295 907.774C801.31 905.098 801.318 902.444 801.32 899.814L799.82 899.813C799.822 897.185 799.818 894.58 799.808 891.998L801.308 891.992C801.298 889.298 801.282 886.629 801.259 883.987L799.759 884C799.736 881.248 799.706 878.525 799.67 875.831L801.17 875.811C801.134 873.116 801.092 870.45 801.045 867.815L799.545 867.842C799.497 865.209 799.444 862.606 799.386 860.036L800.886 860.002C800.825 857.314 800.758 854.661 800.687 852.043L799.187 852.084C799.111 849.309 799.029 846.573 798.942 843.878L800.442 843.83C800.354 841.132 800.262 838.476 800.165 835.862L798.666 835.918C798.569 833.306 798.468 830.736 798.362 828.21L799.861 828.147C799.744 825.368 799.623 822.64 799.498 819.967L797.999 820.037C797.87 817.275 797.736 814.571 797.598 811.927L799.096 811.849C798.958 809.201 798.817 806.614 798.673 804.087L797.176 804.172C797.019 801.431 796.86 798.761 796.698 796.166L798.195 796.073C798.019 793.257 797.841 790.529 797.662 787.891L796.166 787.993C795.986 785.358 795.806 782.813 795.626 780.36L797.122 780.251C796.91 777.364 796.699 774.606 796.49 771.982L794.994 772.101C794.774 769.336 794.557 766.72 794.345 764.257L795.839 764.128C795.589 761.217 795.346 758.52 795.115 756.045L793.622 756.185C793.357 753.354 793.109 750.816 792.883 748.582L794.375 748.431C794.027 745.003 793.732 742.291 793.512 740.342L792.021 740.51C791.886 739.314 791.779 738.407 791.706 737.8C791.67 737.496 791.642 737.267 791.623 737.115L791.602 736.944L791.597 736.901L791.595 736.891L-306.312 800.981Z" stroke="#F1EFE9" stroke-width="3" stroke-dasharray="8 8"/>
<path d="M-4.79894 98.3294C-5.78979 96.3256 -6.80419 94.3895 -7.84214 92.5212C-8.86439 90.6077 -9.91701 88.6713 -11 86.7119C-10.5707 86.5797 -10.1568 86.4549 -9.75828 86.3375C-9.37474 86.1897 -8.99871 86.0268 -8.63019 85.8487C-8.26166 85.6706 -7.90065 85.4773 -7.54713 85.2688C-7.20864 85.03 -6.85478 84.7837 -6.48557 84.53C-5.58685 86.5784 -4.70314 88.5965 -3.83444 90.5842C-2.95004 92.5267 -2.01241 94.4999 -1.02156 96.5038C0.870077 100.329 2.52935 103.647 3.95627 106.455C5.36817 109.234 6.63745 111.724 7.76411 113.926C9.94455 112.872 12.0253 111.847 14.0065 110.852C15.9727 109.827 18.0323 108.605 20.1855 107.189C20.3021 107.809 20.4506 108.302 20.6307 108.666C20.7959 109 21.0753 109.373 21.4691 109.785C20.0264 110.407 18.5987 111.059 17.186 111.742C15.7733 112.425 14.3606 113.107 12.948 113.79C11.4739 114.503 10.0458 115.193 8.66386 115.861C7.3126 116.514 5.91494 117.227 4.47087 118C3.6322 116.073 2.76315 114.123 1.86374 112.15C0.995045 110.163 0.0652676 108.167 -0.925589 106.163L-4.79894 98.3294Z" fill="#FBFAF7"/>
<path d="M34.2273 90.673C33.7699 91.0813 33.2047 91.4974 32.5317 91.9214C31.8903 92.3324 31.2396 92.7654 30.5798 93.2206C29.9068 93.6445 29.2535 94.1153 28.62 94.6328C28.018 95.1374 27.512 95.6939 27.102 96.3023C26.7236 96.8978 26.4792 97.5478 26.369 98.2523C26.2904 98.9439 26.4353 99.7263 26.8037 100.6C27.4221 102.066 28.3152 102.997 29.4828 103.395C30.6504 103.792 31.7548 103.776 32.796 103.347C33.9949 102.853 34.9451 102.076 35.6468 101.018C36.3801 99.9466 36.8307 98.8637 36.9986 97.7692L34.2273 90.673ZM19.025 87.1645C19.9974 85.5186 21.0041 84.2613 22.045 83.3927C23.086 82.5241 24.2375 81.8296 25.4995 81.3092C26.6352 80.8409 27.7487 80.5832 28.84 80.536C29.918 80.4577 30.9199 80.5938 31.8456 80.9445C32.7582 81.2639 33.588 81.7823 34.335 82.4996C35.0688 83.1856 35.6529 84.0433 36.0871 85.0727C36.8371 86.8506 37.5556 88.6415 38.2425 90.4455C38.9163 92.2182 39.6676 94.0872 40.4966 96.0522C40.6545 96.4266 40.8255 96.8321 41.0097 97.2687C41.2123 97.6612 41.4491 98.003 41.7201 98.2941C41.9778 98.554 42.2632 98.7475 42.5762 98.8748C42.9207 98.9891 43.3295 98.9487 43.8028 98.7535C43.9605 98.6885 44.1183 98.6234 44.276 98.5584C44.4522 98.4492 44.5994 98.3152 44.7176 98.1566L45.1519 99.1859C44.8706 99.485 44.4815 99.7919 43.9847 100.107C43.5194 100.408 42.9712 100.689 42.3402 100.949C41.3306 101.366 40.4524 101.435 39.7055 101.157C38.9455 100.848 38.3471 100.307 37.9103 99.5354C37.2482 101.127 36.4769 102.415 35.5964 103.401C34.7159 104.386 33.4711 105.211 31.862 105.874C31.0733 106.199 30.2543 106.409 29.405 106.503C28.5557 106.597 27.7261 106.518 26.9161 106.266C26.1377 106.001 25.4144 105.603 24.7463 105.073C24.0966 104.499 23.581 103.759 23.1994 102.855C22.4099 100.983 22.3818 99.2922 23.1149 97.7816C23.8795 96.2579 25.2306 94.8952 27.1682 93.6935C28.7534 92.7103 29.9798 91.93 30.8473 91.3526C31.7333 90.731 32.351 90.22 32.7006 89.8195C33.0817 89.406 33.2604 89.0394 33.2366 88.7197C33.1997 88.3687 33.0826 87.9593 32.8852 87.4914C32.5562 86.7116 32.1458 86.0021 31.6539 85.3627C31.1619 84.7233 30.599 84.2231 29.9652 83.8619C29.3314 83.5008 28.6174 83.3009 27.8233 83.2621C27.016 83.1922 26.1392 83.3524 25.1927 83.7426C23.9307 84.263 22.866 85.0315 21.9986 86.0483C21.1628 87.0521 20.6872 88.1636 20.5719 89.3829L20.0514 89.5975L19.025 87.1645Z" fill="#FBFAF7"/>
<path d="M63.4755 79.8311C62.9625 78.3616 62.317 77.1339 61.5389 76.148C60.782 75.1192 59.9627 74.3262 59.0811 73.769C58.2318 73.2007 57.3364 72.8627 56.3947 72.755C55.4742 72.6043 54.5939 72.6723 53.7538 72.9589C52.752 73.3007 51.8496 73.8232 51.0463 74.5263C50.2642 75.1864 49.6844 76.0635 49.3069 77.1576C48.9183 78.2197 48.7537 79.5093 48.8132 81.0264C48.8938 82.5005 49.2798 84.2279 49.9712 86.2086C52.2128 92.6299 55.6924 95.0357 60.4101 93.4259C61.4119 93.0842 62.2436 92.5144 62.9053 91.7165C63.5559 90.8868 64.0153 89.872 64.2835 88.6722C64.5841 87.4613 64.6723 86.1084 64.5482 84.6134C64.4241 83.1184 64.0666 81.5243 63.4755 79.8311ZM67.791 78.5195C68.4379 80.3724 68.7381 82.1648 68.6917 83.8968C68.6777 85.6176 68.365 87.208 67.7536 88.668C67.1634 90.0849 66.2956 91.3284 65.1503 92.3985C64.0262 93.4256 62.6886 94.2037 61.1376 94.7329C59.5866 95.2622 58.0694 95.4223 56.5862 95.2134C55.1241 94.9614 53.9082 94.4825 52.9385 93.7766C52.0986 95.0999 51.3395 96.3957 50.6612 97.664L49.7888 97.9617C49.5858 97.1729 49.3108 96.2299 48.964 95.1327C48.6494 94.0244 48.2964 92.8578 47.905 91.6328C47.5024 90.3759 47.078 89.1085 46.6319 87.8306C46.2182 86.5417 45.8217 85.3541 45.4425 84.2679L42.4148 75.5944C42.0356 74.5082 41.6068 73.3317 41.1285 72.0648C40.6824 70.7869 40.2257 69.5306 39.7585 68.2957C39.2912 67.0608 38.8301 65.8953 38.3752 64.7992C37.9414 63.6601 37.5528 62.7023 37.2094 61.9257C38.1699 61.7767 38.9249 61.6085 39.4742 61.421C39.8296 61.2998 40.1957 61.157 40.5723 60.9927C40.9377 60.7965 41.3355 60.5893 41.7656 60.3711C41.8917 61.0431 42.1678 62.0929 42.5938 63.5207C43.0087 64.9164 43.5011 66.4824 44.071 68.2185C44.6297 69.9227 45.2108 71.6908 45.8141 73.5228C46.4063 75.3229 46.9428 76.9632 47.4234 78.4438L47.5204 78.4107C48.0168 76.3107 48.7881 74.6354 49.8341 73.3846C50.8802 72.1339 52.2757 71.2109 54.0206 70.6155C55.7009 70.0422 57.2665 69.8655 58.7174 70.0855C60.1572 70.2735 61.4595 70.7408 62.6242 71.4875C63.7889 72.2342 64.8049 73.2282 65.6722 74.4696C66.5606 75.668 67.2669 77.018 67.791 78.5195Z" fill="#FBFAF7"/>
<path d="M76.8982 76.5903C77.2818 77.9581 77.7671 79.2455 78.3539 80.4524C78.9737 81.6502 79.7216 82.6727 80.5978 83.5197C81.4647 84.3341 82.4745 84.899 83.6272 85.2142C84.7798 85.5295 86.0808 85.4884 87.5302 85.0911C88.9796 84.6937 90.1162 84.0664 90.9399 83.2093C91.7637 82.3522 92.3351 81.3538 92.654 80.2142C92.9637 79.0421 93.0557 77.7894 92.9301 76.4561C92.8373 75.1137 92.5991 73.7586 92.2155 72.3908C91.8318 71.023 91.3301 69.7402 90.7103 68.5423C90.1235 67.3354 89.3965 66.3248 88.5296 65.5103C87.6535 64.6633 86.6391 64.0822 85.4865 63.7669C84.3338 63.4516 83.0328 63.4927 81.5834 63.8901C80.1341 64.2874 78.9975 64.9147 78.1737 65.7718C77.3499 66.629 76.7831 67.6436 76.4734 68.8158C76.1545 69.9553 76.0414 71.1963 76.1342 72.5386C76.2598 73.872 76.5145 75.2225 76.8982 76.5903ZM72.55 77.7824C71.9289 75.5679 71.7495 73.6005 72.0119 71.8802C72.2981 70.1183 72.8852 68.6071 73.7732 67.3466C74.6521 66.0535 75.7404 65.0011 77.0381 64.1893C78.3596 63.336 79.7285 62.7152 81.145 62.3269C82.5943 61.9295 84.0912 61.7646 85.6355 61.8322C87.1707 61.8672 88.6518 62.2152 90.0788 62.8761C91.4966 63.5045 92.7706 64.5054 93.9008 65.879C95.0548 67.2109 95.9424 68.9842 96.5636 71.1987C97.1848 73.4132 97.3522 75.4015 97.066 77.1634C96.8036 78.8836 96.233 80.3903 95.3541 81.6834C94.4661 82.944 93.3687 83.9638 92.0619 84.743C90.755 85.5221 89.3769 86.1104 87.9276 86.5077C86.5111 86.8961 85.0234 87.0935 83.4644 87.1001C81.9384 87.0976 80.4664 86.7822 79.0486 86.1539C77.6216 85.493 76.3311 84.4965 75.1771 83.1646C74.0469 81.791 73.1712 79.997 72.55 77.7824Z" fill="#FBFAF7"/>
<path d="M112.461 59.5487C112.249 59.3874 111.875 59.2794 111.337 59.2245C110.833 59.1624 110.33 59.1863 109.83 59.2964C109.029 59.4726 108.352 59.8118 107.8 60.3142C107.248 60.8165 106.825 61.4288 106.533 62.151C106.232 62.8403 106.062 63.6394 106.022 64.5485C105.974 65.4246 106.057 66.341 106.273 67.2977L107.498 72.7409C107.995 74.9512 108.377 76.6501 108.645 77.8377C108.938 78.985 109.216 79.9105 109.48 80.6143C108.798 80.6951 108.123 80.8089 107.455 80.9557C106.721 81.1172 106.028 81.3043 105.376 81.5171C105.223 80.3735 104.932 78.8449 104.501 76.9316C104.096 74.9779 103.579 72.599 102.948 69.7949L102.591 68.2114C102.302 66.9249 101.951 65.444 101.539 63.7689C101.16 62.0865 100.676 60.1676 100.086 58.0124C100.468 57.9976 100.833 57.9865 101.181 57.9791C101.522 57.9387 101.876 57.8781 102.243 57.7974C102.544 57.7313 102.857 57.6451 103.183 57.5387C103.502 57.3993 103.838 57.2562 104.19 57.1095C104.324 58.3265 104.452 59.285 104.574 59.9851C104.73 60.6779 104.879 61.3377 105.02 61.9645L105.131 61.9919C106.298 57.9961 108.099 55.7302 110.535 55.1943C110.835 55.1283 111.089 55.0897 111.297 55.0787C111.538 55.0603 111.84 55.0804 112.204 55.1389C112.126 55.5715 112.163 56.2038 112.315 57.0359C112.46 57.8349 112.607 58.5644 112.755 59.2242L112.461 59.5487Z" fill="#FBFAF7"/>
<path d="M127.549 53.5772C126.305 53.7984 125.296 54.2695 124.524 54.9904C123.786 55.7053 123.21 56.546 122.795 57.5125C122.408 58.4397 122.156 59.4458 122.041 60.5308C121.953 61.5765 121.958 62.5544 122.054 63.4645C123.103 63.3124 124.185 63.1543 125.302 62.9902C126.452 62.8202 127.565 62.6396 128.641 62.4482C129.752 62.2509 130.876 62.034 132.014 61.7974C133.151 61.5609 134.256 61.3303 135.326 61.1057C135.163 60.2076 134.906 59.2746 134.557 58.3066C134.241 57.3326 133.769 56.4551 133.14 55.674C132.546 54.8869 131.793 54.2823 130.883 53.8604C129.973 53.4384 128.862 53.344 127.549 53.5772ZM117.987 67.1744C117.243 63.0831 117.635 59.6999 119.163 57.0247C120.725 54.3436 123.39 52.6681 127.158 51.9985C128.941 51.6816 130.524 51.6923 131.905 52.0306C133.314 52.3296 134.54 52.867 135.584 53.6429C136.622 54.3856 137.455 55.3364 138.083 56.4954C138.744 57.6484 139.201 58.9234 139.455 60.3204C139.516 60.653 139.56 60.9886 139.586 61.3273C139.641 61.6266 139.681 61.9456 139.708 62.2842C137.885 62.5738 136.079 62.8604 134.29 63.1441C132.501 63.4277 130.698 63.7309 128.881 64.0538C127.771 64.2511 126.664 64.465 125.559 64.6956C124.489 64.9202 123.402 65.1478 122.297 65.3784C122.294 65.5507 122.322 65.8031 122.383 66.1357L122.501 66.7844C122.737 68.0816 123.142 69.2628 123.718 70.328C124.328 71.3872 125.078 72.2668 125.969 72.9668C126.855 73.6336 127.881 74.1208 129.048 74.4284C130.21 74.7027 131.497 74.7143 132.91 74.4632C133.583 74.3436 134.257 74.1379 134.934 73.846C135.604 73.5209 136.248 73.1489 136.867 72.7299C137.479 72.2777 138.032 71.7846 138.525 71.2505C139.052 70.7105 139.489 70.1521 139.836 69.5755L140.115 69.6803L140.257 72.1789C139.393 73.1566 138.255 74.0627 136.844 74.8972C135.466 75.7258 133.97 76.2835 132.355 76.5705C130.538 76.8934 128.825 76.9233 127.214 76.6601C125.631 76.3577 124.19 75.7896 122.892 74.9558C121.622 74.0827 120.554 72.9848 119.689 71.6621C118.857 70.3335 118.29 68.8376 117.987 67.1744Z" fill="#FBFAF7"/>
<path d="M168.977 47.9614C167.718 48.0833 166.675 48.4729 165.847 49.1303C165.053 49.7845 164.41 50.5768 163.918 51.5073C163.457 52.4008 163.125 53.3838 162.922 54.4561C162.75 55.4915 162.675 56.4666 162.697 57.3813C163.755 57.3128 164.847 57.2411 165.973 57.166C167.133 57.0877 168.257 56.9959 169.346 56.8905C170.469 56.7818 171.607 56.6547 172.76 56.5091C173.914 56.3635 175.033 56.2212 176.118 56.0821C176.028 55.174 175.848 54.2236 175.578 53.231C175.342 52.2352 174.943 51.323 174.38 50.4946C173.851 49.6629 173.15 49.0007 172.277 48.5079C171.404 48.0152 170.304 47.833 168.977 47.9614ZM158.343 60.757C157.933 56.6199 158.598 53.2787 160.338 50.7332C162.112 48.1845 164.905 46.7257 168.715 46.3568C170.518 46.1823 172.094 46.3184 173.444 46.765C174.824 47.1747 176.003 47.8077 176.981 48.6638C177.955 49.4864 178.708 50.5001 179.24 51.7051C179.805 52.9068 180.158 54.214 180.298 55.6266C180.331 55.963 180.347 56.301 180.347 56.6406C180.377 56.9433 180.391 57.2645 180.391 57.6042C178.55 57.7484 176.727 57.8909 174.92 58.0318C173.114 58.1727 171.292 58.3321 169.455 58.5099C168.332 58.6186 167.211 58.7441 166.092 58.8864C165.006 59.0254 163.904 59.1661 162.785 59.3084C162.767 59.4798 162.775 59.7337 162.809 60.0701L162.874 60.726C163.004 62.0377 163.312 63.2473 163.8 64.3547C164.321 65.4587 164.998 66.395 165.83 67.1634C166.658 67.8982 167.641 68.4652 168.78 68.8643C169.915 69.2298 171.198 69.3434 172.626 69.2051C173.307 69.1393 173.996 68.9877 174.694 68.7503C175.388 68.4794 176.061 68.1596 176.711 67.791C177.358 67.3888 177.949 66.9411 178.484 66.4478C179.053 65.9513 179.534 65.4294 179.926 64.882L180.197 65.0087L180.135 67.5105C179.194 68.4165 177.987 69.2296 176.513 69.9495C175.072 70.6662 173.536 71.1036 171.903 71.2617C170.066 71.4395 168.355 71.3335 166.771 70.9435C165.217 70.5166 163.827 69.8361 162.601 68.9021C161.406 67.9312 160.431 66.7522 159.675 65.3652C158.954 63.9748 158.509 62.4388 158.343 60.757Z" fill="#FBFAF7"/>
<path d="M189.979 38.4499C189.952 39.7379 189.94 41.008 189.945 42.2602C189.981 43.4768 190.002 44.7112 190.007 45.9635C190.382 45.9421 191.082 45.9022 192.105 45.8438C193.127 45.7517 194.233 45.6379 195.424 45.5023C195.396 45.6054 195.389 45.792 195.405 46.0619L195.467 47.1247C195.481 47.3609 195.508 47.5286 195.548 47.6279C195.102 47.6194 194.641 47.6288 194.163 47.6561C193.683 47.6496 193.17 47.6619 192.624 47.693L190.116 47.836C190.09 47.973 190.07 48.5157 190.057 49.4643C190.078 50.411 190.11 51.5432 190.152 52.861C190.193 54.1451 190.237 55.4966 190.286 56.9156C190.369 58.3327 190.442 59.5979 190.507 60.7113C190.562 61.6561 190.634 62.5829 190.721 63.492C190.842 64.399 191.061 65.2159 191.377 65.9426C191.692 66.6356 192.135 67.1858 192.706 67.5933C193.278 68.0008 194.076 68.1754 195.1 68.117C195.373 68.1014 195.729 68.0472 196.169 67.9545C196.642 67.8597 197.047 67.752 197.382 67.6314L197.453 68.846C196.879 68.9803 196.238 69.1354 195.529 69.3112C194.856 69.5188 194.196 69.6411 193.547 69.6781C191.397 69.8007 189.78 69.3682 188.695 68.3806C187.61 67.393 187.009 65.8871 186.891 63.8627C186.837 62.9517 186.797 61.9723 186.77 60.9244C186.742 59.8428 186.708 58.6768 186.669 57.4265C186.663 56.1405 186.632 54.7374 186.578 53.2171C186.521 51.6632 186.438 49.9415 186.328 48.052L184.69 48.1454C184.417 48.161 184.128 48.1944 183.822 48.2457C183.515 48.2632 183.192 48.2985 182.853 48.3517C182.875 48.1473 182.881 47.9608 182.871 47.7921C182.894 47.5877 182.899 47.3843 182.887 47.1819C182.877 47.0132 182.85 46.8454 182.806 46.6787C182.797 46.51 182.77 46.3423 182.726 46.1755C184.267 46.1892 185.397 46.1756 186.113 46.1347C186.04 45.4619 185.956 44.6203 185.863 43.6101C185.804 42.5979 185.709 41.5539 185.578 40.4781L189.723 38.4645L189.979 38.4499Z" fill="#FBFAF7"/>
<path d="M243.363 66.7383C243.051 67.0033 242.55 67.2988 241.86 67.6249C241.205 67.9177 240.397 68.191 239.435 68.4447C238.508 68.6652 237.462 68.8667 236.296 69.0493C235.13 69.2319 233.915 69.3122 232.651 69.2902C229.951 69.2433 227.462 68.8283 225.186 68.0451C222.909 67.2282 220.948 66.028 219.301 64.4445C217.688 62.8617 216.423 60.9469 215.505 58.7001C214.623 56.4201 214.207 53.844 214.258 50.9718C214.309 48.0996 214.816 45.5564 215.778 43.3422C216.775 41.0949 218.125 39.2085 219.827 37.6832C221.564 36.1586 223.618 35.0112 225.991 34.2412C228.364 33.4711 230.969 33.1108 233.805 33.16C236.061 33.1992 238.108 33.4713 239.945 33.9764C241.817 34.4484 243.465 35.0178 244.889 35.6847C244.607 36.1531 244.374 36.7912 244.188 37.5992C244.003 38.4072 243.854 39.0807 243.742 39.6196L243.433 39.7156C243.098 39.3042 242.628 38.8397 242.022 38.3221C241.415 37.8046 240.706 37.3022 239.895 36.8149C239.083 36.3275 238.167 35.9229 237.147 35.601C236.127 35.2453 235.003 35.0568 233.772 35.0354C231.756 35.0004 229.87 35.2887 228.116 35.9005C226.395 36.5129 224.874 37.4836 223.551 38.8126C222.263 40.1085 221.242 41.7808 220.487 43.8296C219.734 45.8446 219.332 48.2544 219.282 51.059C219.232 53.8636 219.548 56.3028 220.229 58.3765C220.911 60.4164 221.872 62.1231 223.112 63.4967C224.388 64.8371 225.874 65.8431 227.572 66.5148C229.303 67.1871 231.178 67.5408 233.194 67.5758C234.424 67.5971 235.555 67.4647 236.586 67.1784C237.651 66.8927 238.614 66.5545 239.476 66.1638C240.372 65.74 241.166 65.2974 241.858 64.8362C242.585 64.3418 243.191 63.9129 243.676 63.5496L243.878 63.7559L243.363 66.7383Z" fill="#FBFAF7"/>
<path d="M253.261 57.5058C253.148 58.9209 253.158 60.2947 253.292 61.6272C253.459 62.9624 253.808 64.1762 254.338 65.2685C254.871 66.327 255.624 67.1994 256.598 67.8856C257.572 68.5718 258.809 68.9734 260.308 69.0903C261.808 69.2073 263.093 69.0024 264.164 68.4757C265.234 67.9491 266.117 67.2043 266.811 66.2414C267.508 65.2448 268.028 64.0988 268.371 62.8035C268.749 61.5108 268.994 60.1569 269.107 58.7419C269.22 57.3269 269.192 55.9518 269.024 54.6165C268.891 53.284 268.558 52.0884 268.025 51.0298C267.495 49.9376 266.743 49.0483 265.769 48.3621C264.795 47.6759 263.558 47.2744 262.059 47.1574C260.559 47.0404 259.274 47.2453 258.204 47.772C257.133 48.2987 256.249 49.0603 255.552 50.0569C254.858 51.0198 254.323 52.1476 253.945 53.4403C253.602 54.7356 253.373 56.0908 253.261 57.5058ZM248.762 57.1549C248.945 54.864 249.458 52.9546 250.3 51.427C251.178 49.8683 252.253 48.6469 253.524 47.7629C254.797 46.8452 256.184 46.2245 257.684 45.9008C259.221 45.5461 260.723 45.4259 262.188 45.5402C263.687 45.6572 265.151 46.0087 266.579 46.5946C268.009 47.1469 269.28 47.975 270.392 49.0787C271.507 50.1488 272.358 51.5204 272.944 53.1934C273.568 54.8353 273.788 56.8018 273.605 59.0928C273.422 61.3838 272.891 63.3086 272.013 64.8673C271.171 66.395 270.113 67.6177 268.839 68.5354C267.569 69.4194 266.185 70.0064 264.687 70.2964C263.189 70.5864 261.691 70.6729 260.191 70.5559C258.726 70.4416 257.26 70.1238 255.793 69.6026C254.36 69.084 253.086 68.2896 251.971 67.2196C250.859 66.1158 249.991 64.7429 249.368 63.1009C248.781 61.4279 248.579 59.4459 248.762 57.1549Z" fill="#FBFAF7"/>
<path d="M296.862 59.8006C297.208 57.2891 296.978 55.331 296.171 53.9261C295.369 52.4878 294.104 51.6522 292.377 51.4194C290.006 51.0998 288.162 51.5846 286.846 52.8739C285.564 54.1677 284.742 56.1206 284.382 58.7325L283.793 63.002C283.586 64.5088 283.383 66.1017 283.186 67.7806C283.028 69.4305 282.941 70.9366 282.925 72.2989C282.156 72.1269 281.398 71.9907 280.653 71.8903C279.908 71.7898 279.141 71.7206 278.353 71.6826C278.707 70.366 279.014 68.8895 279.274 67.2533C279.573 65.5881 279.826 64.0021 280.034 62.4952L280.754 57.2714C280.962 55.7645 281.145 54.1861 281.304 52.5361C281.501 50.8573 281.614 49.2865 281.643 47.8237C282.568 48.119 283.319 48.3054 283.895 48.383C284.166 48.4196 284.456 48.4416 284.765 48.4492C285.113 48.4279 285.512 48.4134 285.962 48.4058C285.675 49.7316 285.44 51.0642 285.255 52.4036L285.357 52.4173C286.503 51.1052 287.791 50.1531 289.218 49.561C290.649 48.9354 292.28 48.7458 294.109 48.9923C295.057 49.1202 295.987 49.3819 296.898 49.7776C297.844 50.1779 298.66 50.7654 299.346 51.5401C300.038 52.2814 300.542 53.2532 300.859 54.4557C301.215 55.6292 301.273 57.0866 301.032 58.8279C300.834 60.2678 300.595 61.7533 300.314 63.2846C300.039 64.7823 299.783 66.3851 299.548 68.0929L299.098 71.3578C299.024 71.8935 298.95 72.4293 298.876 72.9651C298.841 73.4719 298.808 73.9621 298.777 74.4354C298.109 74.2771 297.402 74.1478 296.657 74.0474C295.945 73.9515 295.247 73.8914 294.56 73.8671C294.868 72.1349 295.183 70.3525 295.504 68.5199C295.86 66.6919 296.172 64.8068 296.439 62.8646L296.862 59.8006Z" fill="#FBFAF7"/>
<path d="M307.188 71.098C307.294 71.4613 307.477 71.8732 307.737 72.3339C308.032 72.8008 308.38 73.2604 308.781 73.7126C309.222 74.1379 309.724 74.5226 310.284 74.8668C310.879 75.2172 311.529 75.4575 312.235 75.5878C312.873 75.7056 313.497 75.7176 314.106 75.6237C314.748 75.536 315.322 75.3498 315.828 75.065C316.368 74.7863 316.825 74.3895 317.201 73.8743C317.576 73.3592 317.833 72.7361 317.971 72.0053C318.165 70.9754 318.01 70.1389 317.506 69.4957C317.041 68.8255 316.404 68.2436 315.593 67.7501C314.788 67.2234 313.89 66.7311 312.898 66.273C311.907 65.815 311.018 65.2728 310.232 64.6464C309.453 63.9868 308.836 63.2025 308.382 62.2936C307.961 61.3908 307.882 60.2418 308.146 58.8464C308.353 57.7501 308.726 56.7876 309.265 55.9588C309.81 55.0968 310.498 54.3987 311.329 53.8646C312.161 53.3304 313.131 52.9767 314.242 52.8035C315.359 52.5971 316.59 52.618 317.934 52.8661C319.177 53.0955 320.187 53.4539 320.965 53.9412C321.776 54.4347 322.543 54.8856 323.265 55.2941C322.902 55.7428 322.534 56.3109 322.161 56.9983C321.788 57.6858 321.53 58.2227 321.387 58.6089L320.783 58.4973C320.664 57.6503 320.278 56.8399 319.625 56.0661C318.971 55.2922 318.073 54.7998 316.93 54.5889C316.426 54.4959 315.907 54.4859 315.371 54.559C314.836 54.6321 314.335 54.7975 313.869 55.0553C313.403 55.3131 312.986 55.6829 312.616 56.1649C312.247 56.6468 311.994 57.2532 311.856 57.9841C311.655 59.0472 311.784 59.9305 312.242 60.6339C312.74 61.3103 313.395 61.8952 314.206 62.3887C315.017 62.8822 315.918 63.358 316.909 63.816C317.907 64.2408 318.799 64.7664 319.585 65.3928C320.377 65.9859 320.983 66.7339 321.404 67.6367C321.858 68.5456 321.954 69.6978 321.69 71.0931C321.508 72.0565 321.111 72.963 320.499 73.8126C319.92 74.6684 319.155 75.4039 318.204 76.0191C317.293 76.6074 316.242 77.0151 315.052 77.2423C313.868 77.4363 312.57 77.403 311.159 77.1425C309.613 76.8572 308.348 76.4689 307.362 75.9777C306.377 75.4864 305.569 74.9763 304.939 74.4474C305.222 74.0527 305.533 73.5086 305.873 72.8149C306.253 72.0942 306.489 71.4847 306.584 70.9864L307.188 71.098Z" fill="#FBFAF7"/>
<path d="M337.55 50.4682C337.165 51.699 336.801 52.9171 336.457 54.1224C336.154 55.3021 335.831 56.4946 335.487 57.6999C335.854 57.7813 336.538 57.933 337.538 58.1551C338.547 58.3442 339.642 58.5353 340.824 58.7285C340.768 58.82 340.71 58.9977 340.651 59.2615L340.415 60.3002C340.362 60.531 340.342 60.6996 340.352 60.8059C339.926 60.6767 339.48 60.5603 339.013 60.4566C338.553 60.32 338.057 60.1925 337.523 60.0741L335.072 59.53C335.008 59.6545 334.839 60.171 334.562 61.0795C334.319 61.9954 334.035 63.0927 333.71 64.3713C333.392 65.6169 333.059 66.9285 332.711 68.3061C332.397 69.6911 332.116 70.9276 331.869 72.0158C331.659 72.9391 331.47 73.8496 331.301 74.7474C331.166 75.6525 331.149 76.4974 331.251 77.2821C331.361 78.0338 331.634 78.6832 332.07 79.2303C332.506 79.7774 333.225 80.162 334.225 80.3841C334.492 80.4433 334.85 80.4881 335.298 80.5183C335.78 80.556 336.199 80.5624 336.555 80.5375L336.286 81.7246C335.696 81.6977 335.036 81.6725 334.306 81.6489C333.601 81.6658 332.932 81.6038 332.299 81.4632C330.197 80.9968 328.763 80.1415 327.994 78.8972C327.226 77.6529 327.066 76.0415 327.515 74.063C327.717 73.1727 327.951 72.2201 328.217 71.2052C328.49 70.1574 328.781 69.0272 329.092 67.8145C329.443 66.5763 329.804 65.2189 330.174 63.7424C330.552 62.233 330.95 60.5549 331.369 58.7083L329.768 58.353C329.502 58.2938 329.214 58.2473 328.907 58.2137C328.607 58.1471 328.286 58.0932 327.945 58.0522C328.023 57.8617 328.081 57.6841 328.118 57.5192C328.197 57.3288 328.258 57.1346 328.303 56.9368C328.341 56.7719 328.361 56.6033 328.366 56.431C328.403 56.2661 328.424 56.0976 328.428 55.9253C329.906 56.3573 330.996 56.6511 331.696 56.8065C331.813 56.1396 331.966 55.3078 332.158 54.3112C332.382 53.3219 332.581 52.2923 332.754 51.2223L337.299 50.4127L337.55 50.4682Z" fill="#FBFAF7"/>
<path d="M356.119 73.8899C355.505 73.9367 354.8 73.9245 354.005 73.8534C353.243 73.7911 352.461 73.7407 351.657 73.7023C350.862 73.6312 350.054 73.609 349.233 73.6359C348.444 73.6715 347.7 73.8062 346.999 74.0401C346.332 74.2827 345.737 74.6495 345.214 75.1406C344.724 75.6404 344.355 76.3473 344.107 77.2612C343.69 78.7952 343.821 80.0722 344.499 81.0923C345.178 82.1123 346.062 82.767 347.151 83.0563C348.406 83.3895 349.638 83.3492 350.847 82.9356C352.09 82.5307 353.116 81.9459 353.926 81.181L356.119 73.8899ZM346.255 61.9271C348.042 61.2119 349.616 60.825 350.977 60.7665C352.338 60.708 353.679 60.854 354.999 61.2047C356.188 61.5204 357.229 61.9892 358.121 62.6112C359.023 63.2006 359.732 63.9138 360.248 64.7507C360.773 65.5549 361.109 66.4666 361.257 67.4857C361.414 68.4721 361.346 69.5039 361.053 70.581C360.548 72.4414 360.009 74.293 359.438 76.1359C358.875 77.9462 358.314 79.8794 357.756 81.9357C357.649 82.3273 357.534 82.7517 357.41 83.2086C357.328 83.6417 357.304 84.0552 357.338 84.4493C357.382 84.8108 357.488 85.1365 357.657 85.4263C357.859 85.7249 358.207 85.94 358.703 86.0715C358.868 86.1153 359.033 86.1591 359.198 86.203C359.405 86.2229 359.604 86.2059 359.796 86.1518L359.503 87.2289C359.096 87.2956 358.598 87.3034 358.01 87.2523C357.455 87.21 356.848 87.1011 356.188 86.9258C355.131 86.6452 354.393 86.1693 353.974 85.4981C353.563 84.7942 353.424 84.0048 353.556 83.1298C352.048 83.9892 350.641 84.5429 349.335 84.7909C348.028 85.0389 346.533 84.9394 344.85 84.4923C344.024 84.2731 343.247 83.9441 342.516 83.5052C341.786 83.0663 341.178 82.5025 340.693 81.8137C340.241 81.1336 339.914 80.382 339.713 79.5587C339.554 78.7116 339.603 77.8148 339.86 76.8682C340.392 74.9099 341.415 73.5544 342.929 72.8017C344.476 72.0577 346.388 71.7956 348.664 72.0152C350.527 72.1949 351.98 72.3183 353.024 72.3855C354.109 72.4288 354.914 72.3976 355.438 72.2918C355.996 72.1949 356.364 72.0127 356.542 71.7452C356.73 71.4451 356.891 71.0503 357.024 70.5607C357.245 69.7447 357.359 68.9351 357.365 68.1318C357.371 67.3285 357.234 66.5924 356.956 65.9236C356.678 65.2548 356.236 64.6651 355.632 64.1546C355.036 63.6115 354.243 63.2084 353.252 62.9454C351.932 62.5947 350.614 62.5597 349.299 62.8403C348.017 63.1297 346.953 63.7222 346.108 64.6176L345.564 64.4729L346.255 61.9271Z" fill="#FBFAF7"/>
<path d="M385.251 81.1578C386.06 78.7527 386.199 76.7861 385.668 75.2582C385.149 73.6982 384.062 72.6461 382.407 72.1021C380.137 71.3554 378.234 71.4955 376.7 72.5224C375.198 73.56 374.026 75.3294 373.185 77.8307L371.809 81.9194C371.323 83.3625 370.827 84.8911 370.32 86.5051C369.856 88.0978 369.49 89.5622 369.22 90.8982C368.496 90.5887 367.777 90.3167 367.063 90.082C366.35 89.8473 365.609 89.6394 364.841 89.4581C365.435 88.2287 366.013 86.8337 366.574 85.273C367.178 83.691 367.723 82.1784 368.209 80.7353L369.892 75.7327C370.377 74.2896 370.852 72.7718 371.316 71.1791C371.823 69.565 372.227 68.0418 372.529 66.6096C373.383 67.0686 374.086 67.3888 374.638 67.5701C374.897 67.6555 375.178 67.7301 375.481 67.7941C375.827 67.8366 376.222 67.8951 376.665 67.9697C376.136 69.2204 375.656 70.4871 375.224 71.7698L375.321 71.8018C376.693 70.7216 378.136 70.0207 379.649 69.6992C381.173 69.3456 382.811 69.4568 384.563 70.0328C385.471 70.3315 386.336 70.7585 387.158 71.3137C388.012 71.8796 388.704 72.6059 389.235 73.4926C389.776 74.3473 390.09 75.3944 390.177 76.6341C390.307 77.8523 390.092 79.2952 389.531 80.9628C389.067 82.3417 388.555 83.7581 387.993 85.2119C387.443 86.6336 386.893 88.1622 386.342 89.7977L385.29 92.9243C385.118 93.4374 384.945 93.9505 384.772 94.4636C384.643 94.9553 384.519 95.431 384.4 95.8906C383.773 95.6131 383.103 95.357 382.389 95.1223C381.708 94.8983 381.032 94.7117 380.362 94.5625C380.988 92.9163 381.63 91.222 382.288 89.4796C382.979 87.7478 383.637 85.952 384.263 84.092L385.251 81.1578Z" fill="#FBFAF7"/>
<path d="M407.439 71.5818C406.873 72.7421 406.329 73.8928 405.807 75.0338C405.33 76.1557 404.83 77.2871 404.308 78.4281C404.658 78.5628 405.312 78.8137 406.267 79.1809C407.236 79.5167 408.29 79.8672 409.43 80.2326C409.361 80.3149 409.277 80.482 409.178 80.734L408.788 81.7263C408.701 81.9468 408.655 82.1105 408.65 82.2172C408.248 82.0266 407.824 81.8456 407.378 81.6742C406.944 81.4713 406.473 81.272 405.963 81.0761L403.621 80.1765C403.539 80.2902 403.294 80.7759 402.883 81.6334C402.505 82.5032 402.058 83.5463 401.543 84.7626C401.041 85.9474 400.514 87.1952 399.962 88.506C399.442 89.8291 398.978 91.0104 398.569 92.0499C398.222 92.9319 397.898 93.8043 397.595 94.6671C397.325 95.5421 397.181 96.3751 397.163 97.1661C397.158 97.9255 397.33 98.6079 397.679 99.2133C398.028 99.8187 398.68 100.305 399.636 100.672C399.891 100.77 400.238 100.867 400.677 100.963C401.148 101.072 401.561 101.14 401.917 101.168L401.471 102.302C400.892 102.188 400.244 102.066 399.525 101.935C398.826 101.847 398.173 101.688 397.568 101.455C395.561 100.684 394.271 99.6263 393.699 98.2825C393.127 96.9388 393.212 95.3219 393.955 93.4318C394.289 92.5813 394.664 91.6739 395.08 90.7096C395.508 89.7138 395.967 88.6392 396.457 87.4859C396.991 86.3133 397.553 85.0244 398.142 83.6191C398.743 82.1823 399.391 80.5818 400.084 78.8178L398.555 78.2302C398.3 78.1323 398.023 78.044 397.724 77.9653C397.437 77.8552 397.128 77.7546 396.797 77.6637C396.903 77.487 396.987 77.3198 397.049 77.1623C397.155 76.9855 397.245 76.8027 397.32 76.6136C397.382 76.4561 397.428 76.2925 397.458 76.1228C397.52 75.9653 397.565 75.8016 397.596 75.6319C398.992 76.2772 400.025 76.7284 400.694 76.9855C400.91 76.3432 401.188 75.5434 401.527 74.5862C401.899 73.6411 402.251 72.6523 402.583 71.6198L407.2 71.49L407.439 71.5818Z" fill="#FBFAF7"/>
<path d="M418.685 73.8931C418.967 73.2403 419.444 72.7802 420.117 72.5127C420.79 72.2453 421.456 72.2508 422.117 72.5292C422.777 72.8076 423.242 73.2794 423.513 73.9446C423.783 74.6097 423.778 75.2687 423.496 75.9216C423.215 76.5744 422.737 77.0345 422.065 77.302C421.392 77.5694 420.725 77.5639 420.065 77.2855C419.405 77.0071 418.939 76.5353 418.669 75.8701C418.398 75.205 418.404 74.546 418.685 73.8931ZM412.084 91.0051C412.688 89.6062 413.286 88.1319 413.881 86.5821C414.52 85.0145 415.049 83.5292 415.468 82.1261C416.282 82.6528 416.956 83.0288 417.49 83.2542C418.025 83.4796 418.766 83.7001 419.713 83.9159C418.979 85.1864 418.246 86.5855 417.512 88.1134C416.824 89.6234 416.178 91.0778 415.574 92.4767L413.483 97.3263C412.879 98.7252 412.258 100.208 411.619 101.776C411.025 103.326 410.538 104.756 410.159 106.065C409.462 105.698 408.768 105.369 408.077 105.077C407.385 104.786 406.664 104.518 405.914 104.276C406.608 103.098 407.299 101.755 407.987 100.245C408.72 98.7169 409.389 97.2536 409.992 95.8547L412.084 91.0051Z" fill="#FBFAF7"/>
<path d="M435.656 103.852C435.044 103.784 434.354 103.641 433.587 103.423C432.851 103.219 432.092 103.024 431.31 102.836C430.543 102.618 429.754 102.446 428.942 102.319C428.161 102.207 427.404 102.201 426.672 102.3C425.97 102.413 425.315 102.663 424.708 103.048C424.132 103.447 423.635 104.072 423.217 104.924C422.515 106.352 422.4 107.631 422.871 108.759C423.343 109.887 424.086 110.695 425.101 111.182C426.27 111.744 427.487 111.934 428.754 111.753C430.052 111.587 431.171 111.204 432.112 110.604L435.656 103.852ZM428.252 90.2653C430.143 89.8961 431.763 89.8097 433.11 90.0059C434.458 90.2022 435.747 90.5956 436.977 91.1862C438.084 91.7178 439.016 92.3722 439.774 93.1496C440.547 93.8965 441.107 94.729 441.454 95.6471C441.816 96.5347 441.973 97.4928 441.924 98.5211C441.889 99.5191 441.626 100.52 441.133 101.523C440.282 103.256 439.4 104.974 438.487 106.677C437.589 108.35 436.67 110.144 435.729 112.059C435.55 112.424 435.356 112.819 435.147 113.245C434.983 113.655 434.881 114.056 434.84 114.45C434.813 114.813 434.855 115.153 434.966 115.469C435.108 115.8 435.409 116.076 435.87 116.297C436.024 116.371 436.178 116.445 436.331 116.519C436.531 116.577 436.73 116.597 436.928 116.58L436.436 117.583C436.023 117.573 435.532 117.488 434.965 117.328C434.428 117.183 433.852 116.963 433.237 116.667C432.253 116.195 431.619 115.59 431.336 114.852C431.067 114.085 431.08 113.283 431.376 112.449C429.732 113.012 428.244 113.293 426.914 113.293C425.584 113.293 424.135 112.917 422.567 112.164C421.798 111.794 421.097 111.326 420.464 110.759C419.83 110.192 419.341 109.525 418.996 108.758C418.681 108.006 418.504 107.207 418.463 106.361C418.469 105.499 418.688 104.628 419.121 103.746C420.017 101.922 421.28 100.782 422.911 100.325C424.572 99.8825 426.499 99.9815 428.693 100.622C430.488 101.145 431.891 101.537 432.904 101.798C433.961 102.043 434.758 102.162 435.293 102.156C435.858 102.165 436.255 102.055 436.481 101.825C436.723 101.566 436.956 101.208 437.18 100.752C437.553 99.9917 437.819 99.2178 437.978 98.43C438.137 97.6422 438.144 96.894 437.998 96.1852C437.852 95.4765 437.531 94.8151 437.035 94.201C436.553 93.5565 435.851 93.0128 434.929 92.5699C433.699 91.9793 432.411 91.6992 431.066 91.7296C429.752 91.7748 428.595 92.1583 427.594 92.8801L427.087 92.6365L428.252 90.2653Z" fill="#FBFAF7"/>
</svg>
