<svg width="800" height="1801" viewBox="0 0 800 1801" fill="none" xmlns="http://www.w3.org/2000/svg">
<path d="M403.089 17.4097C-36.3134 17.4097 -529 392.533 -529 837.085C-529 910.812 -427.887 769.248 -406.461 837.085C-406.461 837.085 -776.116 1779.24 400 1779.24C1576.12 1779.24 1290.52 774.698 1290.52 774.698C1311.94 706.861 1329 910.812 1329 837.085C1329 392.533 842.491 17.4097 403.089 17.4097Z" fill="#F1EFE9"/>
<path d="M-405.028 837.422L-404.897 837.844L-405.028 837.422ZM-405.028 837.422C-405.462 836.017 -405.929 834.694 -406.429 833.448L-407.821 834.006C-408.904 831.308 -410.135 829.011 -411.5 827.078L-410.274 826.213C-412.059 823.684 -414.082 821.711 -416.321 820.248L-417.142 821.503C-419.401 820.027 -421.869 819.132 -424.507 818.725L-424.279 817.243C-426.951 816.831 -429.752 816.893 -432.635 817.322L-432.414 818.806C-434.902 819.176 -437.487 819.836 -440.144 820.73L-440.622 819.308C-443.084 820.136 -445.596 821.155 -448.137 822.319L-447.513 823.683C-449.86 824.758 -452.244 825.963 -454.65 827.264L-455.364 825.944C-457.669 827.191 -459.992 828.522 -462.317 829.907L-461.549 831.196C-463.807 832.54 -466.072 833.939 -468.332 835.363L-469.131 834.094C-471.382 835.512 -473.627 836.954 -475.852 838.392L-475.038 839.652C-475.975 840.258 -476.909 840.863 -477.84 841.466C-479.142 842.309 -480.436 843.148 -481.722 843.977L-482.535 842.716C-484.808 844.182 -487.048 845.613 -489.243 846.981L-488.45 848.254C-490.771 849.699 -493.045 851.075 -495.257 852.345L-496.004 851.044C-498.412 852.427 -500.735 853.677 -502.955 854.75L-502.303 856.101C-504.885 857.349 -507.343 858.368 -509.648 859.086L-510.094 857.654C-512.859 858.516 -515.291 858.895 -517.373 858.74L-517.484 860.236C-520.245 860.031 -522.594 858.984 -524.436 856.867L-523.304 855.883C-524.56 854.44 -525.614 852.338 -526.352 849.371L-527.808 849.733C-528.352 847.546 -528.717 844.976 -528.888 841.984L-527.391 841.899C-527.463 840.637 -527.5 839.293 -527.5 837.865C-527.5 836.53 -527.496 835.195 -527.487 833.862L-528.987 833.852C-528.97 831.179 -528.936 828.508 -528.885 825.84L-527.385 825.868C-527.334 823.207 -527.267 820.547 -527.182 817.89L-528.681 817.843C-528.597 815.18 -528.495 812.519 -528.377 809.861L-526.878 809.928C-526.76 807.276 -526.626 804.628 -526.475 801.982L-527.972 801.896C-527.821 799.24 -527.652 796.587 -527.467 793.937L-525.971 794.041C-525.786 791.383 -525.584 788.727 -525.365 786.074L-526.86 785.951C-526.641 783.292 -526.405 780.636 -526.153 777.983L-524.66 778.125C-524.408 775.478 -524.14 772.834 -523.856 770.193L-525.347 770.033C-525.062 767.386 -524.761 764.742 -524.443 762.101L-522.954 762.28C-522.637 759.645 -522.304 757.013 -521.955 754.385L-523.442 754.187C-523.091 751.543 -522.723 748.902 -522.34 746.264L-520.855 746.479C-520.472 743.847 -520.073 741.217 -519.658 738.591L-521.14 738.357C-520.724 735.725 -520.292 733.096 -519.844 730.47L-518.366 730.722C-517.919 728.103 -517.456 725.487 -516.978 722.874L-518.453 722.604C-517.974 719.985 -517.478 717.37 -516.967 714.758L-515.495 715.046C-514.985 712.438 -514.459 709.833 -513.917 707.231L-515.385 706.925C-514.842 704.316 -514.283 701.711 -513.709 699.11L-512.244 699.433C-511.671 696.837 -511.083 694.245 -510.479 691.657L-511.94 691.316C-511.334 688.722 -510.714 686.131 -510.078 683.545L-508.621 683.903C-507.987 681.322 -507.337 678.745 -506.672 676.171L-508.124 675.796C-507.458 673.218 -506.777 670.643 -506.08 668.072L-504.633 668.464C-503.938 665.9 -503.228 663.339 -502.503 660.782L-503.947 660.373C-503.22 657.811 -502.479 655.253 -501.723 652.698L-500.285 653.124C-499.531 650.575 -498.762 648.031 -497.978 645.49L-499.411 645.048C-498.626 642.502 -497.826 639.96 -497.011 637.422L-495.583 637.881C-494.77 635.349 -493.943 632.822 -493.102 630.299L-494.525 629.825C-493.683 627.3 -492.826 624.78 -491.956 622.265L-490.538 622.755C-489.669 620.245 -488.786 617.739 -487.889 615.237L-489.301 614.731C-488.402 612.224 -487.488 609.721 -486.561 607.223L-485.155 607.745C-484.23 605.252 -483.29 602.764 -482.337 600.28L-483.737 599.742C-482.782 597.253 -481.813 594.768 -480.83 592.288L-479.435 592.841C-478.457 590.374 -477.465 587.911 -476.46 585.453L-477.848 584.885C-476.841 582.422 -475.821 579.964 -474.786 577.51L-473.404 578.093C-472.372 575.644 -471.326 573.201 -470.267 570.761L-471.643 570.164C-470.582 567.72 -469.507 565.281 -468.419 562.846L-467.05 563.458C-465.964 561.028 -464.865 558.604 -463.753 556.184L-465.116 555.557C-464.005 553.139 -462.881 550.726 -461.744 548.318L-460.387 548.958C-459.254 546.558 -458.108 544.163 -456.948 541.773L-458.298 541.118C-457.137 538.723 -455.963 536.333 -454.776 533.948L-453.433 534.617C-452.248 532.236 -451.051 529.861 -449.841 527.491L-451.177 526.809C-449.965 524.434 -448.74 522.064 -447.503 519.7L-446.174 520.395C-444.941 518.039 -443.696 515.688 -442.439 513.343L-443.761 512.634C-442.505 510.291 -441.236 507.954 -439.956 505.622L-438.641 506.343C-437.363 504.015 -436.073 501.693 -434.771 499.375L-436.079 498.64C-434.774 496.318 -433.458 494.002 -432.129 491.691L-430.829 492.438C-429.503 490.131 -428.165 487.83 -426.815 485.534L-428.108 484.773C-426.756 482.474 -425.393 480.179 -424.017 477.89L-422.732 478.663C-421.366 476.39 -419.988 474.122 -418.599 471.859L-419.877 471.074C-418.486 468.808 -417.083 466.547 -415.668 464.291L-414.398 465.088C-412.986 462.837 -411.563 460.591 -410.128 458.35L-411.391 457.541C-409.954 455.297 -408.506 453.058 -407.047 450.825L-405.791 451.646C-404.334 449.417 -402.866 447.193 -401.387 444.976L-402.635 444.143C-401.159 441.93 -399.672 439.723 -398.175 437.521L-396.934 438.364C-395.442 436.17 -393.938 433.981 -392.424 431.798L-393.656 430.943C-392.139 428.757 -390.612 426.576 -389.074 424.401L-387.849 425.267C-386.313 423.095 -384.767 420.93 -383.211 418.77L-384.428 417.893C-382.868 415.73 -381.299 413.572 -379.718 411.421L-378.509 412.309C-376.935 410.165 -375.35 408.027 -373.754 405.895L-374.955 404.996C-373.363 402.868 -371.761 400.746 -370.148 398.63L-368.955 399.539C-367.345 397.426 -365.725 395.32 -364.095 393.219L-365.28 392.3C-363.648 390.196 -362.005 388.098 -360.353 386.007L-359.176 386.936C-357.526 384.848 -355.867 382.766 -354.198 380.69L-355.367 379.75C-353.695 377.671 -352.013 375.598 -350.322 373.531L-349.161 374.481C-347.48 372.427 -345.79 370.38 -344.09 368.338L-345.243 367.378C-343.541 365.335 -341.83 363.297 -340.109 361.266L-338.964 362.235C-337.247 360.207 -335.519 358.185 -333.783 356.17L-334.919 355.191C-333.18 353.172 -331.432 351.16 -329.674 349.154L-328.546 350.143C-326.791 348.141 -325.027 346.144 -323.254 344.155L-324.374 343.157C-322.603 341.169 -320.822 339.187 -319.032 337.212L-317.921 338.219C-316.138 336.251 -314.346 334.29 -312.546 332.336L-313.65 331.319C-311.847 329.362 -310.035 327.411 -308.214 325.467L-307.12 326.492C-305.302 324.551 -303.476 322.616 -301.641 320.688L-302.728 319.654C-300.89 317.723 -299.044 315.799 -297.19 313.881L-296.111 314.924C-294.26 313.009 -292.4 311.102 -290.532 309.201L-291.602 308.15C-289.738 306.253 -287.866 304.364 -285.986 302.481L-284.924 303.541C-283.047 301.661 -281.161 299.788 -279.268 297.921L-280.321 296.853C-278.424 294.984 -276.52 293.122 -274.608 291.266L-273.563 292.343C-271.653 290.49 -269.736 288.645 -267.811 286.806L-268.846 285.721C-266.918 283.88 -264.982 282.045 -263.038 280.218L-262.011 281.311C-260.074 279.49 -258.128 277.676 -256.176 275.868L-257.195 274.767C-255.242 272.96 -253.281 271.16 -251.314 269.367L-250.303 270.476C-248.338 268.685 -246.366 266.902 -244.386 265.126L-245.388 264.009C-243.405 262.23 -241.415 260.459 -239.417 258.695L-238.424 259.819C-236.43 258.057 -234.428 256.302 -232.419 254.555L-233.403 253.423C-231.392 251.674 -229.373 249.931 -227.347 248.197L-226.371 249.336C-224.353 247.608 -222.328 245.887 -220.295 244.173L-221.262 243.026C-219.227 241.31 -217.185 239.601 -215.136 237.9L-214.178 239.054C-212.132 237.355 -210.079 235.664 -208.019 233.979L-208.969 232.818C-206.906 231.132 -204.837 229.453 -202.761 227.781L-201.82 228.95C-199.747 227.281 -197.667 225.619 -195.581 223.965L-196.513 222.79C-194.425 221.135 -192.332 219.488 -190.231 217.849L-189.308 219.031C-187.212 217.395 -185.11 215.767 -183.002 214.146L-183.916 212.957C-181.804 211.334 -179.686 209.718 -177.562 208.111L-176.657 209.307C-174.536 207.702 -172.408 206.104 -170.275 204.514L-171.171 203.312C-169.035 201.72 -166.892 200.135 -164.743 198.559L-163.856 199.769C-161.71 198.194 -159.559 196.628 -157.401 195.07L-158.279 193.854C-156.12 192.294 -153.955 190.743 -151.785 189.2L-150.915 190.422C-148.748 188.881 -146.574 187.347 -144.395 185.822L-145.255 184.593C-143.073 183.065 -140.884 181.546 -138.691 180.035L-137.84 181.27C-135.649 179.76 -133.453 178.259 -131.251 176.766L-132.093 175.525C-129.888 174.029 -127.677 172.542 -125.461 171.063L-124.629 172.311C-122.416 170.834 -120.197 169.365 -117.974 167.904L-118.797 166.651C-116.57 165.188 -114.338 163.733 -112.1 162.287L-111.286 163.547C-109.051 162.103 -106.812 160.667 -104.567 159.239L-105.372 157.974C-103.124 156.544 -100.87 155.123 -98.6122 153.71L-97.8166 154.982C-95.5615 153.571 -93.3014 152.169 -91.0363 150.775L-91.8225 149.497C-89.5543 148.101 -87.2812 146.714 -85.0031 145.335L-84.2264 146.618C-81.9491 145.24 -79.6669 143.87 -77.3799 142.508L-78.1472 141.22C-75.8571 139.856 -73.5622 138.502 -71.2627 137.156L-70.5049 138.45C-68.2085 137.106 -65.9075 135.771 -63.6019 134.444L-64.3501 133.144C-62.0413 131.815 -59.728 130.495 -57.4102 129.184L-56.6716 130.49C-54.357 129.18 -52.0379 127.88 -49.7145 126.588L-50.4434 125.277C-48.1145 123.982 -45.7813 122.696 -43.4437 121.419L-42.7245 122.736C-40.3877 121.459 -38.0466 120.191 -35.7013 118.932L-36.4107 117.611C-34.0621 116.35 -31.7094 115.099 -29.3526 113.856L-28.653 115.183C-26.2995 113.942 -23.9419 112.71 -21.5803 111.488L-22.27 110.156C-19.9051 108.931 -17.5362 107.716 -15.1634 106.51L-14.4837 107.847C-12.1143 106.642 -9.74097 105.447 -7.36389 104.261L-8.03363 102.919C-5.6463 101.728 -3.25507 100.546 -0.860229 99.3729L-0.200562 100.72C2.19116 99.549 4.58661 98.3871 6.9856 97.2347L6.33612 95.8826C8.73853 94.7285 11.1445 93.5838 13.5541 92.4485L14.1934 93.8055C16.5995 92.6718 19.0092 91.5475 21.4221 90.4328L20.793 89.0711C23.2095 87.9547 25.6293 86.8479 28.0524 85.7506L28.6712 87.117C31.0955 86.0192 33.523 84.931 35.9538 83.8524L35.3454 82.4813C37.7846 81.399 40.2271 80.3263 42.6726 79.2634L43.2706 80.6391C45.7126 79.5777 48.1578 78.526 50.606 77.4841L50.0186 76.1039C52.4703 75.0606 54.925 74.027 57.3828 73.0033L57.9595 74.3879C60.4136 73.3657 62.8707 72.3533 65.3305 71.3509L64.7644 69.9618C67.228 68.9578 69.6943 67.9637 72.1634 66.9796L72.7188 68.373C75.196 67.3857 77.676 66.4084 80.1585 65.4413L79.614 64.0436C82.1002 63.075 84.5891 62.1166 87.0805 61.1683L87.6141 62.5702C90.1018 61.6234 92.592 60.6867 95.0848 59.7603L94.5622 58.3542C97.0586 57.4264 99.5573 56.5089 102.058 55.6016L102.57 57.0117C105.067 56.1058 107.567 55.2102 110.069 54.325L109.569 52.9109C112.083 52.0215 114.599 51.1425 117.117 50.274L117.606 51.692C120.126 50.8227 122.649 49.964 125.173 49.1158L124.696 47.6939C127.224 46.8445 129.754 46.0057 132.287 45.1775L132.753 46.6032C135.282 45.7763 137.812 44.9601 140.344 44.1545L139.89 42.7251C142.426 41.9183 144.964 41.1223 147.503 40.337L147.947 41.7701C150.485 40.9853 153.025 40.2112 155.567 39.448L155.135 38.0114C157.695 37.2429 160.256 36.4854 162.818 35.739L163.238 37.1791C165.796 36.4339 168.356 35.6996 170.918 34.9765L170.51 33.5329C173.075 32.8086 175.642 32.0955 178.21 31.3935L178.606 32.8404C181.17 32.1395 183.736 31.4498 186.302 30.7712L185.919 29.3211C188.49 28.6415 191.061 27.9731 193.634 27.3161L194.006 28.7694C196.589 28.1098 199.173 27.4615 201.758 26.8248L201.399 25.3683C203.992 24.7296 206.587 24.1023 209.182 23.4867L209.528 24.9462C212.119 24.3315 214.711 23.7284 217.303 23.137L216.97 21.6745C219.567 21.0821 222.164 20.5013 224.762 19.9322L225.083 21.3975C227.677 20.8293 230.272 20.2728 232.867 19.7281L232.559 18.2601C235.167 17.7127 237.776 17.177 240.386 16.6533L240.681 18.124C243.297 17.599 245.913 17.086 248.529 16.585L248.247 15.1118C250.868 14.61 253.49 14.1203 256.111 13.6427L256.38 15.1184C258.997 14.6416 261.615 14.1769 264.232 13.7245L263.977 12.2464C266.599 11.7931 269.221 11.3521 271.843 10.9233L272.085 12.4036C274.706 11.9751 277.326 11.5588 279.947 11.1548L279.718 9.67236C282.361 9.265 285.004 8.87017 287.646 8.48793L287.861 9.97248C290.499 9.5909 293.136 9.2219 295.773 8.86553L295.573 7.37904C298.214 7.02204 300.856 6.67769 303.497 6.34607L303.684 7.83438C306.32 7.50334 308.956 7.18501 311.592 6.87943L311.419 5.38941C314.059 5.08329 316.699 4.78996 319.338 4.50947L319.496 6.00107C322.149 5.7191 324.801 5.45013 327.453 5.19425L327.309 3.70119C329.967 3.44461 332.625 3.20116 335.282 2.97091L335.412 4.46531C338.064 4.23547 340.715 4.01881 343.365 3.81538L343.25 2.31978C345.905 2.11598 348.559 1.92543 351.212 1.74821L351.312 3.24488C353.96 3.06799 356.606 2.9044 359.252 2.75419L359.167 1.2566C361.831 1.1053 364.495 0.967533 367.157 0.843373L367.227 2.34174C369.89 2.2175 372.552 2.10691 375.213 2.01004L375.159 0.511031C377.824 0.413973 380.489 0.33066 383.151 0.26116L383.191 1.76065C385.848 1.69129 388.504 1.63571 391.158 1.59399L391.134 0.0941726C393.794 0.0523698 396.451 0.0244496 399.107 0.0104809L399.115 1.51046C400.44 1.50349 401.765 1.5 403.089 1.5C404.409 1.5 405.729 1.50347 407.049 1.51039L407.057 0.0104085C409.705 0.0242907 412.355 0.0520479 415.006 0.0936118L414.983 1.59343C417.629 1.63491 420.276 1.69017 422.925 1.75915L422.964 0.259655C425.619 0.328764 428.274 0.411611 430.931 0.508128L430.877 2.00714C433.529 2.10347 436.182 2.21345 438.836 2.337L438.906 0.838621C441.559 0.962137 444.214 1.09919 446.87 1.24973L446.785 2.74732C449.423 2.89684 452.062 3.05967 454.702 3.23575L454.802 1.73908C457.446 1.9155 460.092 2.10519 462.739 2.30809L462.624 3.8037C465.266 4.00623 467.908 4.22194 470.551 4.45077L470.681 2.95636C473.329 3.18561 475.978 3.428 478.627 3.68347L478.483 5.17655C481.126 5.4314 483.77 5.69928 486.414 5.98013L486.572 4.48853C489.204 4.76803 491.835 5.06035 494.468 5.36543L494.295 6.85546C496.922 7.15999 499.55 7.47725 502.178 7.80719L502.365 6.31887C504.998 6.6494 507.631 6.99262 510.264 7.34846L510.063 8.83495C512.692 9.19016 515.321 9.55798 517.949 9.93833L518.164 8.4538C520.797 8.83482 523.431 9.22841 526.064 9.63449L525.836 11.117C528.449 11.52 531.062 11.9353 533.675 12.3629L533.917 10.8826C536.531 11.3103 539.146 11.7504 541.759 12.2026L541.503 13.6806C544.113 14.132 546.722 14.5956 549.33 15.0714L549.599 13.5957C552.212 14.0722 554.825 14.5609 557.437 15.0616L557.154 16.5348C559.762 17.0346 562.369 17.5465 564.976 18.0704L565.271 16.5998C567.873 17.1227 570.474 17.6575 573.074 18.2042L572.765 19.6721C575.353 20.216 577.939 20.7717 580.525 21.339L580.846 19.8739C583.436 20.4422 586.025 21.0222 588.614 21.6138L588.279 23.0761C590.863 23.6668 593.446 24.2691 596.028 24.883L596.375 23.4236C598.962 24.0385 601.547 24.6649 604.131 25.3029L603.771 26.7592C606.348 27.3954 608.924 28.043 611.498 28.7021L611.87 27.249C614.435 27.9056 616.999 28.5736 619.561 29.2528L619.177 30.7027C621.735 31.3808 624.292 32.0701 626.847 32.7706L627.244 31.324C629.803 32.0256 632.361 32.7384 634.918 33.4623L634.509 34.9056C637.061 35.6284 639.612 36.3623 642.162 37.1072L642.582 35.6674C645.135 36.4136 647.687 37.1707 650.237 37.9389L649.804 39.3751C652.338 40.1384 654.87 40.9126 657.4 41.6976L657.844 40.265C660.376 41.0503 662.905 41.8465 665.432 42.6533L664.976 44.0823C667.499 44.8879 670.021 45.7043 672.54 46.5314L673.008 45.1062C675.531 45.9345 678.052 46.7735 680.572 47.6232L680.092 49.0445C682.607 49.8929 685.12 50.7518 687.631 51.6213L688.122 50.2039C690.631 51.0729 693.139 51.9524 695.643 52.8424L695.141 54.2558C697.634 55.1417 700.125 56.0379 702.613 56.9445L703.127 55.5351C705.619 56.443 708.108 57.3613 710.595 58.2898L710.071 59.6951C712.554 60.6222 715.035 61.5596 717.513 62.5073L718.049 61.1062C720.53 62.0552 723.01 63.0145 725.486 63.9839L724.939 65.3807C727.412 66.3487 729.882 67.3268 732.349 68.315L732.907 66.9225C735.367 67.9079 737.824 68.9032 740.279 69.9085L739.71 71.2966C742.16 72.3003 744.608 73.3139 747.052 74.3375L747.632 72.9538C750.08 73.9789 752.525 75.0138 754.966 76.0585L754.376 77.4376C756.815 78.4808 759.25 79.5339 761.682 80.5967L762.282 79.2222C764.718 80.2865 767.15 81.3607 769.579 82.4445L768.968 83.8143C771.389 84.8945 773.806 85.9844 776.221 87.084L776.842 85.7189C779.255 86.818 781.665 87.9266 784.072 89.0448L783.439 90.4051C785.842 91.5217 788.242 92.6479 790.638 93.7834L791.28 92.428C793.679 93.5652 796.075 94.7119 798.467 95.868L797.814 97.2185C800.203 98.3729 802.588 99.5368 804.969 100.71L805.632 99.3644C808.016 100.539 810.396 101.723 812.773 102.917L812.1 104.257C814.466 105.446 816.829 106.643 819.188 107.85L819.871 106.515C822.233 107.723 824.591 108.941 826.946 110.168L826.252 111.498C828.603 112.723 830.95 113.957 833.292 115.201L833.996 113.876C836.342 115.121 838.683 116.375 841.021 117.638L840.307 118.958C842.642 120.219 844.972 121.489 847.297 122.769L848.02 121.455C850.346 122.734 852.668 124.023 854.986 125.321L854.253 126.629C856.565 127.924 858.873 129.227 861.176 130.54L861.919 129.236C864.225 130.55 866.527 131.873 868.824 133.205L868.072 134.503C870.366 135.832 872.656 137.171 874.94 138.518L875.702 137.226C877.99 138.575 880.273 139.933 882.552 141.299L881.78 142.586C884.055 143.95 886.325 145.323 888.591 146.705L889.372 145.424C891.638 146.806 893.899 148.197 896.155 149.596L895.365 150.871C897.618 152.268 899.866 153.674 902.109 155.088L902.909 153.819C905.155 155.235 907.396 156.66 909.631 158.093L908.822 159.356C911.055 160.787 913.282 162.226 915.504 163.674L916.323 162.417C918.548 163.867 920.768 165.325 922.983 166.791L922.154 168.042C924.366 169.506 926.571 170.978 928.772 172.459L929.609 171.215C931.812 172.697 934.01 174.188 936.202 175.687L935.355 176.925C937.545 178.422 939.728 179.927 941.906 181.44L942.762 180.208C944.942 181.723 947.117 183.247 949.287 184.778L948.422 186.003C950.588 187.533 952.748 189.07 954.903 190.615L955.777 189.396C957.935 190.943 960.087 192.499 962.232 194.062L961.349 195.275C963.493 196.837 965.631 198.407 967.764 199.985L968.656 198.779C970.791 200.359 972.92 201.948 975.043 203.543L974.142 204.742C976.261 206.336 978.375 207.938 980.483 209.547L981.393 208.355C983.503 209.966 985.607 211.586 987.705 213.213L986.786 214.398C988.88 216.023 990.969 217.655 993.051 219.295L993.979 218.117C996.065 219.761 998.145 221.412 1000.22 223.071L999.281 224.242C1001.35 225.9 1003.42 227.565 1005.48 229.239L1006.42 228.074C1008.49 229.75 1010.54 231.433 1012.59 233.123L1011.63 234.28C1013.68 235.968 1015.72 237.664 1017.75 239.367L1018.71 238.217C1020.75 239.923 1022.77 241.636 1024.79 243.356L1023.82 244.498C1025.84 246.216 1027.85 247.941 1029.85 249.674L1030.84 248.539C1032.85 250.278 1034.85 252.025 1036.85 253.779L1035.86 254.906C1037.85 256.657 1039.84 258.416 1041.82 260.181L1042.82 259.062C1044.8 260.83 1046.77 262.606 1048.74 264.389L1047.73 265.5C1049.7 267.281 1051.66 269.068 1053.61 270.863L1054.62 269.759C1056.57 271.556 1058.52 273.36 1060.46 275.172L1059.43 276.268C1061.37 278.079 1063.3 279.898 1065.22 281.724L1066.26 280.636C1068.18 282.467 1070.1 284.305 1072.02 286.151L1070.97 287.23C1072.88 289.073 1074.79 290.922 1076.68 292.778L1077.73 291.707C1079.63 293.566 1081.51 295.433 1083.39 297.306L1082.34 298.368C1084.21 300.239 1086.08 302.116 1087.94 304L1089.01 302.945C1090.88 304.832 1092.73 306.726 1094.58 308.627L1093.51 309.673C1095.36 311.577 1097.2 313.489 1099.04 315.407L1100.12 314.37C1101.96 316.291 1103.79 318.219 1105.61 320.153L1104.52 321.181C1106.33 323.113 1108.14 325.051 1109.95 326.996L1111.05 325.977C1112.85 327.925 1114.65 329.879 1116.43 331.841L1115.32 332.851C1117.11 334.809 1118.88 336.773 1120.65 338.745L1121.76 337.744C1123.54 339.723 1125.3 341.709 1127.06 343.701L1125.93 344.693C1127.69 346.685 1129.44 348.685 1131.17 350.69L1132.31 349.708C1134.05 351.717 1135.78 353.732 1137.5 355.754L1136.36 356.726C1138.08 358.745 1139.79 360.769 1141.49 362.801L1142.64 361.838C1144.34 363.872 1146.04 365.913 1147.72 367.96L1146.56 368.913C1148.25 370.958 1149.92 373.01 1151.59 375.068L1152.75 374.125C1154.43 376.194 1156.09 378.269 1157.75 380.351L1156.57 381.284C1158.22 383.363 1159.86 385.447 1161.5 387.538L1162.68 386.615C1164.31 388.709 1165.94 390.809 1167.55 392.915L1166.36 393.828C1167.98 395.931 1169.58 398.04 1171.17 400.155L1172.37 399.253C1173.97 401.371 1175.55 403.496 1177.13 405.626L1175.92 406.518C1177.5 408.653 1179.07 410.794 1180.62 412.941L1181.84 412.06C1183.4 414.213 1184.95 416.372 1186.49 418.537L1185.27 419.407C1186.81 421.568 1188.34 423.736 1189.86 425.909L1191.09 425.05C1192.61 427.226 1194.12 429.409 1195.62 431.597L1194.38 432.445C1195.88 434.63 1197.36 436.82 1198.84 439.016L1200.08 438.18C1201.56 440.384 1203.03 442.594 1204.49 444.81L1203.24 445.635C1204.7 447.853 1206.15 450.078 1207.59 452.308L1208.85 451.494C1210.29 453.728 1211.72 455.967 1213.14 458.213L1211.88 459.014C1213.29 461.255 1214.7 463.502 1216.09 465.754L1217.37 464.965C1218.76 467.221 1220.15 469.483 1221.52 471.75L1220.24 472.527C1221.61 474.791 1222.97 477.06 1224.32 479.335L1225.61 478.57C1226.97 480.859 1228.32 483.153 1229.65 485.454L1228.36 486.206C1229.69 488.502 1231.01 490.804 1232.32 493.11L1233.62 492.37C1234.93 494.681 1236.23 496.997 1237.52 499.319L1236.21 500.046C1237.49 502.363 1238.77 504.686 1240.03 507.013L1241.35 506.299C1242.61 508.631 1243.86 510.968 1245.1 513.31L1243.77 514.012C1245.01 516.357 1246.24 518.708 1247.46 521.064L1248.79 520.376C1250.01 522.739 1251.22 525.107 1252.42 527.481L1251.08 528.155C1252.27 530.524 1253.45 532.898 1254.62 535.277L1255.96 534.616C1257.13 537 1258.29 539.388 1259.44 541.782L1258.08 542.429C1259.23 544.818 1260.36 547.211 1261.47 549.61L1262.83 548.977C1263.95 551.384 1265.06 553.796 1266.16 556.213L1264.79 556.832C1265.89 559.25 1266.97 561.672 1268.04 564.099L1269.41 563.494C1270.48 565.926 1271.54 568.362 1272.59 570.804L1271.21 571.394C1272.25 573.831 1273.28 576.272 1274.3 578.718L1275.69 578.142C1276.7 580.593 1277.71 583.048 1278.7 585.508L1277.31 586.069C1278.3 588.525 1279.28 590.986 1280.24 593.451L1281.64 592.905C1282.61 595.381 1283.56 597.862 1284.5 600.347L1283.1 600.878C1284.04 603.359 1284.96 605.843 1285.87 608.332L1287.28 607.817C1288.19 610.311 1289.09 612.81 1289.98 615.313L1288.56 615.813C1289.45 618.31 1290.32 620.812 1291.17 623.319L1292.59 622.835C1293.45 625.346 1294.29 627.862 1295.12 630.382L1293.69 630.851C1294.52 633.369 1295.34 635.892 1296.14 638.419L1297.57 637.966C1298.37 640.499 1299.15 643.036 1299.93 645.577L1298.49 646.013C1299.26 648.548 1300.02 651.088 1300.76 653.632L1302.2 653.212C1302.94 655.761 1303.67 658.314 1304.39 660.871L1302.94 661.275C1303.65 663.826 1304.35 666.382 1305.04 668.941L1306.49 668.554C1307.17 671.119 1307.84 673.688 1308.49 676.261L1307.04 676.631C1307.69 679.198 1308.33 681.769 1308.96 684.344L1310.41 683.991C1311.04 686.571 1311.65 689.155 1312.24 691.743L1310.78 692.079C1311.38 694.661 1311.95 697.247 1312.52 699.837L1313.98 699.518C1314.55 702.113 1315.1 704.712 1315.63 707.315L1314.16 707.616C1314.69 710.211 1315.21 712.809 1315.71 715.411L1317.18 715.127C1317.69 717.732 1318.17 720.34 1318.64 722.951L1317.17 723.218C1317.64 725.823 1318.09 728.432 1318.53 731.045L1320.01 730.796C1320.45 733.414 1320.88 736.036 1321.28 738.661L1319.8 738.892C1320.21 741.511 1320.6 744.133 1320.98 746.758L1322.46 746.546C1322.84 749.176 1323.2 751.81 1323.54 754.446L1322.06 754.641C1322.4 757.262 1322.73 759.885 1323.04 762.512L1324.53 762.336C1324.84 764.969 1325.13 767.605 1325.41 770.244L1323.92 770.402C1324.2 773.035 1324.47 775.672 1324.71 778.31L1326.21 778.171C1326.45 780.816 1326.68 783.464 1326.9 786.115L1325.4 786.236C1325.62 788.881 1325.82 791.529 1326 794.179L1327.5 794.076C1327.68 796.718 1327.84 799.363 1327.99 802.01L1326.49 802.094C1326.64 804.732 1326.77 807.373 1326.89 810.016L1328.39 809.95C1328.5 812.6 1328.6 815.252 1328.69 817.906L1327.19 817.953C1327.27 820.602 1327.34 823.253 1327.39 825.907L1328.89 825.878C1328.94 828.538 1328.97 831.201 1328.99 833.865L1327.49 833.875C1327.5 835.204 1327.5 836.534 1327.5 837.865C1327.5 839.453 1327.49 840.913 1327.48 842.251L1328.98 842.268C1328.94 845.967 1328.84 848.746 1328.68 850.716L1327.73 850.642C1327.7 850.549 1327.68 850.454 1327.65 850.357L1326.2 850.734C1325.66 848.653 1325.05 845.804 1324.37 842.396L1325.84 842.102C1325.35 839.626 1324.82 836.852 1324.25 833.856L1322.78 834.134C1322.51 832.715 1322.23 831.246 1321.95 829.738C1321.71 828.451 1321.46 827.135 1321.21 825.796L1322.68 825.518C1322.18 822.829 1321.65 820.043 1321.1 817.205L1319.63 817.49C1319.1 814.754 1318.55 811.97 1317.98 809.176L1319.45 808.878C1318.89 806.107 1318.31 803.325 1317.72 800.571L1316.25 800.888C1315.64 798.09 1315.02 795.321 1314.38 792.621L1315.84 792.275C1315.16 789.441 1314.47 786.681 1313.76 784.04L1312.31 784.429C1311.54 781.544 1310.74 778.806 1309.93 776.276L1311.35 775.815C1310.39 772.832 1309.4 770.111 1308.37 767.76L1306.99 768.362C1305.57 765.106 1304.09 762.616 1302.58 761.168L1303.61 760.083C1302.32 758.847 1300.75 758.028 1298.96 758.287C1297.23 758.538 1295.74 759.746 1294.44 761.5L1295.65 762.392C1294.42 764.049 1293.18 766.525 1291.92 769.938L1290.51 769.418C1290.03 770.703 1289.56 772.112 1289.08 773.651L1288.97 774.004L-405.028 837.422ZM-407.418 841.443C-407.917 843.36 -408.595 846.029 -409.414 849.402L-407.956 849.756C-408.484 851.929 -409.07 854.396 -409.704 857.144L-411.165 856.807C-411.733 859.265 -412.338 861.947 -412.974 864.844L-411.509 865.166C-412.037 867.572 -412.586 870.126 -413.153 872.824L-414.621 872.516C-415.171 875.138 -415.738 877.895 -416.316 880.782L-414.845 881.077C-415.327 883.483 -415.818 885.98 -416.314 888.565L-417.787 888.282C-418.285 890.871 -418.788 893.548 -419.295 896.31L-417.82 896.581C-418.299 899.191 -418.782 901.877 -419.266 904.636L-420.744 904.377C-421.181 906.869 -421.619 909.42 -422.057 912.03L-420.578 912.279C-421.015 914.885 -421.452 917.55 -421.888 920.271L-423.369 920.034C-423.8 922.73 -424.23 925.481 -424.657 928.286L-423.174 928.511C-423.555 931.012 -423.933 933.555 -424.308 936.141L-425.793 935.925C-426.168 938.514 -426.54 941.145 -426.908 943.816L-425.422 944.021C-425.79 946.688 -426.153 949.397 -426.51 952.144L-427.998 951.95C-428.343 954.601 -428.683 957.288 -429.018 960.011L-427.529 960.194C-427.843 962.75 -428.152 965.336 -428.455 967.954L-429.945 967.781C-430.249 970.402 -430.546 973.053 -430.838 975.734L-429.346 975.896C-429.637 978.574 -429.921 981.281 -430.198 984.017L-431.691 983.866C-431.962 986.543 -432.226 989.249 -432.483 991.981L-430.989 992.121C-431.231 994.697 -431.466 997.296 -431.694 999.919L-433.188 999.789C-433.416 1002.42 -433.637 1005.06 -433.85 1007.74L-432.355 1007.86C-432.567 1010.52 -432.772 1013.21 -432.968 1015.93L-434.464 1015.82C-434.661 1018.53 -434.849 1021.27 -435.027 1024.03L-433.531 1024.13C-433.7 1026.73 -433.86 1029.36 -434.013 1032L-435.51 1031.92C-435.661 1034.54 -435.804 1037.18 -435.938 1039.83L-434.44 1039.91C-434.573 1042.56 -434.698 1045.23 -434.813 1047.92L-436.312 1047.85C-436.428 1050.54 -436.534 1053.25 -436.63 1055.97L-435.131 1056.03C-435.227 1058.73 -435.313 1061.45 -435.388 1064.18L-436.888 1064.14C-436.96 1066.75 -437.023 1069.38 -437.077 1072.02L-435.577 1072.05C-435.631 1074.69 -435.675 1077.34 -435.709 1080L-437.208 1079.98C-437.242 1082.65 -437.266 1085.33 -437.28 1088.02L-435.78 1088.03C-435.793 1090.72 -435.796 1093.42 -435.788 1096.13L-437.288 1096.14C-437.28 1098.84 -437.262 1101.55 -437.232 1104.28L-435.732 1104.27C-435.704 1106.89 -435.665 1109.52 -435.615 1112.16L-437.115 1112.19C-437.066 1114.83 -437.006 1117.49 -436.934 1120.16L-435.435 1120.12C-435.364 1122.78 -435.282 1125.45 -435.189 1128.13L-436.688 1128.18C-436.594 1130.87 -436.49 1133.56 -436.373 1136.27L-434.874 1136.2C-434.758 1138.9 -434.63 1141.61 -434.49 1144.33L-435.988 1144.41C-435.852 1147.04 -435.705 1149.69 -435.547 1152.34L-434.049 1152.25C-433.891 1154.89 -433.722 1157.53 -433.541 1160.19L-435.037 1160.29C-434.856 1162.95 -434.662 1165.61 -434.457 1168.28L-432.961 1168.17C-432.756 1170.84 -432.538 1173.51 -432.309 1176.19L-433.803 1176.32C-433.573 1179 -433.33 1181.7 -433.075 1184.39L-431.581 1184.25C-431.33 1186.91 -431.066 1189.57 -430.789 1192.24L-432.281 1192.39C-432.008 1195.02 -431.723 1197.66 -431.425 1200.31L-429.934 1200.14C-429.637 1202.78 -429.327 1205.42 -429.004 1208.07L-430.493 1208.25C-430.169 1210.91 -429.832 1213.56 -429.482 1216.23L-427.995 1216.03C-427.646 1218.69 -427.284 1221.35 -426.908 1224.02L-428.393 1224.23C-428.016 1226.9 -427.626 1229.57 -427.222 1232.25L-425.739 1232.03C-425.345 1234.64 -424.937 1237.26 -424.516 1239.89L-425.997 1240.12C-425.576 1242.75 -425.141 1245.37 -424.693 1248L-423.214 1247.75C-422.767 1250.38 -422.306 1253 -421.831 1255.63L-423.307 1255.9C-422.831 1258.53 -422.341 1261.17 -421.836 1263.81L-420.363 1263.53C-419.86 1266.16 -419.342 1268.8 -418.81 1271.44L-420.281 1271.74C-419.75 1274.37 -419.205 1277 -418.646 1279.64L-417.179 1279.32C-416.629 1281.91 -416.064 1284.51 -415.486 1287.1L-416.95 1287.43C-416.37 1290.03 -415.776 1292.62 -415.167 1295.23L-413.706 1294.88C-413.098 1297.48 -412.476 1300.07 -411.839 1302.67L-413.295 1303.03C-412.657 1305.63 -412.003 1308.23 -411.334 1310.84L-409.881 1310.46C-409.214 1313.06 -408.531 1315.66 -407.833 1318.26L-409.282 1318.65C-408.587 1321.23 -407.878 1323.82 -407.153 1326.4L-405.708 1325.99C-404.992 1328.55 -404.26 1331.1 -403.513 1333.65L-404.953 1334.07C-404.204 1336.63 -403.44 1339.19 -402.661 1341.74L-401.226 1341.31C-400.448 1343.86 -399.654 1346.41 -398.845 1348.96L-400.274 1349.41C-399.463 1351.96 -398.636 1354.52 -397.793 1357.07L-396.368 1356.6C-395.527 1359.14 -394.669 1361.69 -393.795 1364.23L-395.214 1364.72C-394.345 1367.25 -393.461 1369.77 -392.56 1372.3L-391.147 1371.79C-390.255 1374.29 -389.347 1376.79 -388.423 1379.28L-389.83 1379.8C-388.904 1382.3 -387.961 1384.8 -387.002 1387.29L-385.602 1386.75C-384.645 1389.24 -383.671 1391.73 -382.681 1394.21L-384.074 1394.77C-383.082 1397.26 -382.073 1399.75 -381.046 1402.23L-379.66 1401.66C-378.636 1404.13 -377.595 1406.61 -376.537 1409.08L-377.916 1409.67C-376.865 1412.13 -375.797 1414.58 -374.711 1417.03L-373.34 1416.42C-372.266 1418.85 -371.175 1421.27 -370.067 1423.68L-371.431 1424.31C-370.32 1426.73 -369.192 1429.15 -368.047 1431.56L-366.692 1430.92C-365.55 1433.33 -364.39 1435.73 -363.214 1438.13L-364.56 1438.79C-363.381 1441.2 -362.183 1443.6 -360.968 1446L-359.63 1445.32C-358.418 1447.71 -357.188 1450.1 -355.94 1452.48L-357.269 1453.18C-356.028 1455.55 -354.769 1457.91 -353.492 1460.27L-352.173 1459.56C-350.913 1461.89 -349.637 1464.21 -348.342 1466.53L-349.652 1467.26C-348.354 1469.58 -347.039 1471.9 -345.705 1474.21L-344.406 1473.46C-343.076 1475.77 -341.728 1478.07 -340.362 1480.37L-341.652 1481.14C-340.282 1483.44 -338.895 1485.73 -337.489 1488.03L-336.211 1487.24C-334.808 1489.53 -333.388 1491.81 -331.949 1494.08L-333.217 1494.88C-331.779 1497.15 -330.324 1499.42 -328.85 1501.67L-327.594 1500.85C-326.151 1503.06 -324.691 1505.27 -323.212 1507.46L-324.457 1508.3C-322.974 1510.5 -321.474 1512.7 -319.955 1514.89L-318.722 1514.04C-317.207 1516.22 -315.674 1518.4 -314.123 1520.57L-315.343 1521.44C-313.788 1523.62 -312.214 1525.79 -310.621 1527.96L-309.413 1527.07C-307.824 1529.22 -306.217 1531.38 -304.591 1533.52L-305.786 1534.43C-304.156 1536.57 -302.507 1538.72 -300.839 1540.85L-299.657 1539.93C-298.03 1542.01 -296.384 1544.09 -294.721 1546.15L-295.889 1547.09C-294.231 1549.16 -292.554 1551.21 -290.859 1553.26L-289.703 1552.3C-288.013 1554.34 -286.304 1556.38 -284.576 1558.4L-285.718 1559.38C-283.986 1561.41 -282.235 1563.43 -280.466 1565.45L-279.338 1564.46C-277.573 1566.47 -275.79 1568.47 -273.988 1570.47L-275.101 1571.47C-273.294 1573.47 -271.468 1575.47 -269.623 1577.45L-268.525 1576.43C-266.7 1578.39 -264.856 1580.35 -262.994 1582.29L-264.078 1583.33C-262.258 1585.23 -260.421 1587.12 -258.565 1589.01L-257.496 1587.96C-255.646 1589.84 -253.777 1591.71 -251.89 1593.57L-252.944 1594.64C-251.052 1596.51 -249.141 1598.37 -247.213 1600.22L-246.174 1599.14C-244.25 1600.98 -242.308 1602.82 -240.347 1604.65L-241.371 1605.75C-239.405 1607.58 -237.42 1609.41 -235.417 1611.22L-234.41 1610.11C-232.412 1611.93 -230.395 1613.73 -228.359 1615.52L-229.351 1616.65C-227.349 1618.41 -225.328 1620.17 -223.289 1621.92L-222.313 1620.78C-220.325 1622.48 -218.319 1624.18 -216.295 1625.86L-217.255 1627.02C-215.226 1628.71 -213.179 1630.39 -211.115 1632.06L-210.17 1630.9C-208.111 1632.57 -206.034 1634.23 -203.939 1635.88L-204.867 1637.06C-202.767 1638.71 -200.648 1640.36 -198.512 1642L-197.599 1640.81C-195.468 1642.44 -193.319 1644.07 -191.151 1645.68L-192.047 1646.88C-189.874 1648.5 -187.683 1650.11 -185.473 1651.71L-184.594 1650.5C-182.431 1652.06 -180.251 1653.62 -178.054 1655.17L-178.917 1656.39C-176.778 1657.9 -174.623 1659.4 -172.45 1660.88L-171.603 1659.65C-169.435 1661.13 -167.251 1662.61 -165.05 1664.07L-165.882 1665.32C-163.675 1666.79 -161.452 1668.25 -159.211 1669.7L-158.395 1668.44C-156.16 1669.89 -153.908 1671.33 -151.638 1672.76L-152.437 1674.03C-150.162 1675.46 -147.869 1676.89 -145.559 1678.3L-144.776 1677.02C-142.472 1678.43 -140.15 1679.83 -137.81 1681.22L-138.577 1682.51C-136.232 1683.91 -133.87 1685.29 -131.489 1686.67L-130.739 1685.37C-128.491 1686.67 -126.226 1687.96 -123.946 1689.24L-124.681 1690.55C-122.399 1691.83 -120.101 1693.1 -117.787 1694.37L-117.068 1693.05C-114.759 1694.31 -112.434 1695.57 -110.093 1696.81L-110.797 1698.13C-108.451 1699.38 -106.089 1700.62 -103.71 1701.85L-103.022 1700.51C-100.649 1701.74 -98.2595 1702.95 -95.8538 1704.16L-96.5263 1705.5C-94.1154 1706.71 -91.6883 1707.91 -89.2447 1709.1L-88.5878 1707.75C-86.1494 1708.94 -83.6945 1710.12 -81.2232 1711.29L-81.8644 1712.64C-79.4064 1713.8 -76.9322 1714.96 -74.4416 1716.1L-73.8159 1714.74C-71.4636 1715.82 -69.0966 1716.89 -66.7149 1717.95L-67.3259 1719.32C-64.9393 1720.39 -62.5379 1721.44 -60.1216 1722.49L-59.5252 1721.11C-57.114 1722.16 -54.6878 1723.19 -52.2468 1724.22L-52.8285 1725.6C-50.3826 1726.63 -47.9218 1727.65 -45.4459 1728.66L-44.8787 1727.27C-42.4077 1728.28 -39.9218 1729.28 -37.4207 1730.28L-37.9733 1731.67C-35.4673 1732.66 -32.9463 1733.65 -30.4101 1734.62L-29.872 1733.22C-27.3406 1734.19 -24.7941 1735.16 -22.2323 1736.11L-22.756 1737.52C-20.1894 1738.47 -17.6076 1739.42 -15.0104 1740.36L-14.5011 1738.95C-12.0392 1739.84 -9.5636 1740.72 -7.07397 1741.59L-7.56958 1743C-5.11591 1743.86 -2.6488 1744.71 -0.168152 1745.56L0.314026 1744.14C2.79016 1744.98 5.27985 1745.81 7.78314 1746.63L7.31427 1748.06C9.82202 1748.88 12.3434 1749.7 14.8784 1750.51L15.334 1749.08C17.8646 1749.88 20.4089 1750.68 22.967 1751.47L22.5245 1752.91C25.087 1753.7 27.6631 1754.48 30.2531 1755.25L30.6824 1753.82C33.2679 1754.59 35.8674 1755.35 38.4807 1756.11L38.0645 1757.55C40.6821 1758.3 43.3137 1759.05 45.9591 1759.79L46.3623 1758.34C49.0034 1759.08 51.6585 1759.81 54.3276 1760.53L53.9374 1761.98C56.4579 1762.66 58.9908 1763.33 61.5363 1763.99L61.9144 1762.54C64.4219 1763.19 66.9416 1763.84 69.4735 1764.47L69.1073 1765.93C71.6431 1766.57 74.1912 1767.2 76.7516 1767.82L77.106 1766.36C79.6625 1766.98 82.2313 1767.6 84.8124 1768.2L84.4698 1769.66C87.0548 1770.27 89.6522 1770.87 92.2619 1771.46L92.5929 1770C95.1988 1770.59 97.8171 1771.17 100.448 1771.74L100.129 1773.21C102.763 1773.78 105.41 1774.35 108.07 1774.9L108.378 1773.44C111.034 1773.99 113.702 1774.54 116.383 1775.08L116.086 1776.55C118.771 1777.09 121.469 1777.63 124.178 1778.15L124.463 1776.68C127.13 1777.19 129.809 1777.7 132.5 1778.2L132.226 1779.68C134.762 1780.15 137.309 1780.61 139.867 1781.07L140.13 1779.59C142.685 1780.05 145.25 1780.49 147.826 1780.93L147.573 1782.41C150.153 1782.85 152.744 1783.29 155.346 1783.72L155.589 1782.24C158.187 1782.66 160.797 1783.08 163.417 1783.49L163.185 1784.97C165.809 1785.39 168.444 1785.79 171.09 1786.19L171.313 1784.7C173.955 1785.1 176.609 1785.49 179.275 1785.87L179.062 1787.35C181.731 1787.74 184.41 1788.11 187.101 1788.48L187.304 1786.99C189.991 1787.36 192.69 1787.71 195.4 1788.07L195.208 1789.55C197.921 1789.9 200.646 1790.25 203.382 1790.58L203.564 1789.09C206.297 1789.43 209.041 1789.76 211.797 1790.08L211.624 1791.57C214.211 1791.87 216.809 1792.16 219.417 1792.45L219.581 1790.96C222.151 1791.24 224.73 1791.51 227.32 1791.78L227.165 1793.28C229.757 1793.54 232.359 1793.81 234.971 1794.06L235.117 1792.57C237.726 1792.83 240.345 1793.07 242.973 1793.32L242.836 1794.81C245.468 1795.05 248.109 1795.29 250.76 1795.51L250.889 1794.02C253.537 1794.25 256.196 1794.47 258.864 1794.68L258.744 1796.18C261.415 1796.39 264.096 1796.6 266.787 1796.8L266.898 1795.3C269.587 1795.5 272.285 1795.7 274.993 1795.88L274.89 1797.38C277.601 1797.57 280.322 1797.75 283.053 1797.92L283.148 1796.42C285.876 1796.59 288.614 1796.76 291.362 1796.92L291.276 1798.41C294.027 1798.57 296.789 1798.72 299.56 1798.87L299.638 1797.37C302.276 1797.51 304.924 1797.64 307.581 1797.76L307.511 1799.26C310.09 1799.38 312.679 1799.49 315.276 1799.6L315.339 1798.1C317.933 1798.21 320.537 1798.31 323.149 1798.41L323.094 1799.91C325.709 1800 328.332 1800.09 330.964 1800.18L331.012 1798.68C333.641 1798.76 336.28 1798.84 338.927 1798.91L338.887 1800.41C341.536 1800.48 344.195 1800.54 346.862 1800.6L346.895 1799.1C349.56 1799.16 352.233 1799.21 354.916 1799.26L354.89 1800.76C357.575 1800.8 360.269 1800.84 362.971 1800.87L362.99 1799.37C365.69 1799.41 368.399 1799.43 371.117 1799.45L371.106 1800.95C373.826 1800.97 376.555 1800.99 379.294 1800.99L379.297 1799.49C380.756 1799.5 382.218 1799.5 383.681 1799.5C384.963 1799.5 386.246 1799.5 387.531 1799.5L387.535 1801C390.291 1800.99 393.056 1800.98 395.83 1800.96L395.819 1799.46C397.206 1799.45 398.595 1799.44 399.986 1799.43C401.369 1799.41 402.749 1799.4 404.127 1799.38L404.144 1800.88C406.903 1800.85 409.653 1800.81 412.395 1800.77L412.37 1799.27C415.11 1799.22 417.841 1799.17 420.564 1799.11L420.596 1800.61C423.321 1800.56 426.039 1800.49 428.747 1800.42L428.708 1798.92C431.415 1798.85 434.113 1798.77 436.803 1798.69L436.849 1800.19C439.542 1800.1 442.226 1800.01 444.902 1799.92L444.848 1798.42C447.521 1798.32 450.187 1798.22 452.844 1798.11L452.906 1799.61C455.565 1799.5 458.217 1799.38 460.86 1799.26L460.791 1797.76C463.431 1797.64 466.064 1797.51 468.688 1797.37L468.766 1798.87C471.393 1798.74 474.011 1798.59 476.622 1798.45L476.538 1796.95C479.146 1796.8 481.746 1796.65 484.338 1796.49L484.43 1797.98C487.025 1797.82 489.612 1797.66 492.19 1797.48L492.09 1795.99C494.725 1795.81 497.351 1795.63 499.969 1795.44L500.077 1796.93C502.83 1796.73 505.573 1796.53 508.307 1796.31L508.191 1794.82C510.922 1794.61 513.644 1794.39 516.357 1794.16L516.482 1795.65C519.198 1795.42 521.905 1795.19 524.602 1794.95L524.468 1793.45C527.162 1793.21 529.848 1792.96 532.524 1792.71L532.667 1794.2C535.346 1793.95 538.016 1793.68 540.676 1793.41L540.525 1791.92C541.61 1791.81 542.693 1791.7 543.774 1791.59C545.343 1791.43 546.909 1791.26 548.471 1791.09L548.631 1792.58C551.274 1792.3 553.908 1792.01 556.532 1791.71L556.363 1790.22C558.985 1789.92 561.597 1789.62 564.201 1789.31L564.378 1790.8C566.985 1790.49 569.582 1790.17 572.17 1789.85L571.984 1788.36C574.569 1788.03 577.146 1787.7 579.713 1787.37L579.909 1788.85C582.479 1788.51 585.041 1788.17 587.593 1787.82L587.388 1786.33C590.115 1785.96 592.831 1785.57 595.537 1785.18L595.751 1786.67C598.468 1786.28 601.175 1785.88 603.871 1785.47L603.647 1783.99C606.34 1783.58 609.023 1783.16 611.696 1782.74L611.93 1784.22C614.606 1783.8 617.271 1783.37 619.927 1782.93L619.683 1781.45C622.336 1781.02 624.978 1780.57 627.61 1780.12L627.864 1781.6C630.5 1781.15 633.125 1780.69 635.741 1780.22L635.477 1778.74C638.089 1778.28 640.691 1777.8 643.283 1777.32L643.557 1778.8C646.152 1778.32 648.738 1777.83 651.313 1777.33L651.029 1775.86C653.601 1775.36 656.163 1774.86 658.715 1774.35L659.009 1775.82C661.565 1775.31 664.11 1774.79 666.646 1774.27L666.342 1772.8C668.94 1772.26 671.528 1771.71 674.105 1771.16L674.42 1772.63C677.11 1772.05 679.789 1771.46 682.456 1770.87L682.13 1769.41C683.829 1769.03 685.522 1768.65 687.211 1768.26C688.172 1768.04 689.131 1767.82 690.088 1767.6L690.425 1769.07C693.07 1768.46 695.704 1767.84 698.327 1767.21L697.979 1765.75C699.774 1765.33 701.563 1764.89 703.347 1764.46C704.167 1764.26 704.985 1764.06 705.803 1763.86L706.162 1765.31C708.762 1764.67 711.352 1764.02 713.93 1763.37L713.56 1761.91C716.135 1761.26 718.698 1760.59 721.251 1759.92L721.633 1761.37C724.189 1760.7 726.734 1760.02 729.269 1759.33L728.876 1757.88C730.38 1757.47 731.881 1757.06 733.378 1756.65C734.399 1756.37 735.418 1756.08 736.435 1755.8L736.839 1757.24C739.352 1756.54 741.854 1755.83 744.344 1755.11L743.929 1753.67C746.494 1752.93 749.047 1752.18 751.589 1751.43L752.017 1752.86C754.647 1752.08 757.265 1751.29 759.871 1750.49L759.431 1749.06C762.032 1748.26 764.622 1747.45 767.199 1746.64L767.651 1748.07C770.232 1747.25 772.801 1746.43 775.358 1745.6L774.894 1744.17C777.447 1743.34 779.988 1742.5 782.516 1741.65L782.993 1743.08C785.526 1742.23 788.046 1741.37 790.555 1740.51L790.066 1739.09C792.571 1738.22 795.063 1737.35 797.544 1736.47L798.046 1737.89C800.53 1737 803.003 1736.12 805.464 1735.22L804.951 1733.81C807.407 1732.91 809.852 1732.01 812.286 1731.1L812.812 1732.5C815.277 1731.58 817.731 1730.65 820.173 1729.71L819.634 1728.31C822.189 1727.32 824.731 1726.33 827.26 1725.33L827.812 1726.72C830.345 1725.72 832.866 1724.71 835.373 1723.69L834.807 1722.3C837.31 1721.28 839.8 1720.26 842.276 1719.22L842.855 1720.6C845.336 1719.57 847.804 1718.52 850.258 1717.47L849.667 1716.09C852.117 1715.04 854.555 1713.98 856.979 1712.91L857.584 1714.28C860.013 1713.21 862.429 1712.13 864.833 1711.04L864.214 1709.68C866.613 1708.59 868.999 1707.5 871.372 1706.4L872.004 1707.76C874.381 1706.65 876.746 1705.54 879.098 1704.42L878.454 1703.07C880.858 1701.92 883.248 1700.77 885.625 1699.61L886.284 1700.96C888.738 1699.76 891.178 1698.55 893.604 1697.33L892.932 1695.99C895.353 1694.78 897.76 1693.56 900.154 1692.32L900.84 1693.66C903.238 1692.42 905.623 1691.18 907.993 1689.93L907.293 1688.6C909.659 1687.36 912.011 1686.1 914.349 1684.83L915.063 1686.15C917.406 1684.88 919.734 1683.61 922.05 1682.32L921.322 1681.01C923.633 1679.73 925.93 1678.44 928.213 1677.14L928.955 1678.45C931.243 1677.14 933.517 1675.83 935.778 1674.52L935.023 1673.22C937.294 1671.9 939.552 1670.57 941.796 1669.23L942.565 1670.51C944.907 1669.12 947.235 1667.71 949.549 1666.29L948.766 1665.01C951.074 1663.6 953.368 1662.18 955.647 1660.75L956.445 1662.02C958.729 1660.58 960.998 1659.14 963.253 1657.69L962.442 1656.43C964.692 1654.98 966.928 1653.53 969.149 1652.06L969.974 1653.32C972.2 1651.85 974.412 1650.37 976.609 1648.89L975.77 1647.65C977.962 1646.17 980.14 1644.68 982.304 1643.18L983.157 1644.42C985.326 1642.92 987.48 1641.41 989.62 1639.89L988.753 1638.67C990.909 1637.14 993.05 1635.61 995.177 1634.06L996.058 1635.28C998.259 1633.68 1000.44 1632.08 1002.62 1630.46L1001.72 1629.26C1003.89 1627.65 1006.04 1626.03 1008.17 1624.41L1009.08 1625.6C1011.22 1623.97 1013.35 1622.33 1015.46 1620.69L1014.54 1619.5C1016.64 1617.86 1018.73 1616.21 1020.81 1614.55L1021.75 1615.72C1023.83 1614.06 1025.89 1612.39 1027.94 1610.71L1026.99 1609.55C1029.04 1607.88 1031.07 1606.2 1033.09 1604.51L1034.05 1605.66C1036.07 1603.96 1038.08 1602.26 1040.07 1600.56L1039.09 1599.42C1041.13 1597.67 1043.15 1595.92 1045.15 1594.16L1046.14 1595.29C1048.17 1593.5 1050.19 1591.71 1052.19 1589.91L1051.19 1588.79C1053.19 1587 1055.17 1585.19 1057.14 1583.38L1058.15 1584.48C1060.13 1582.67 1062.08 1580.84 1064.02 1579.01L1063 1577.92C1064.08 1576.9 1065.15 1575.88 1066.22 1574.85C1067.07 1574.04 1067.92 1573.23 1068.76 1572.41L1069.8 1573.49C1071.71 1571.65 1073.61 1569.79 1075.49 1567.93L1074.44 1566.86C1076.31 1565.01 1078.17 1563.14 1080.02 1561.27L1081.09 1562.33C1082.96 1560.44 1084.81 1558.54 1086.65 1556.63L1085.57 1555.59C1087.44 1553.65 1089.3 1551.7 1091.14 1549.74L1092.23 1550.77C1094.08 1548.81 1095.91 1546.84 1097.72 1544.87L1096.62 1543.85C1098.43 1541.88 1100.23 1539.9 1102.01 1537.92L1103.12 1538.92C1104.91 1536.93 1106.68 1534.94 1108.43 1532.94L1107.3 1531.95C1109.05 1529.95 1110.79 1527.95 1112.51 1525.94L1113.65 1526.91C1115.37 1524.9 1117.08 1522.88 1118.77 1520.85L1117.62 1519.89C1119.32 1517.86 1121 1515.82 1122.67 1513.77L1123.83 1514.72C1125.54 1512.63 1127.23 1510.53 1128.91 1508.43L1127.73 1507.49C1129.4 1505.39 1131.06 1503.29 1132.7 1501.17L1133.89 1502.09C1135.53 1499.98 1137.16 1497.86 1138.78 1495.73L1137.58 1494.82C1138.33 1493.83 1139.08 1492.84 1139.82 1491.85C1140.67 1490.71 1141.52 1489.57 1142.37 1488.43L1143.57 1489.33C1145.16 1487.19 1146.73 1485.04 1148.28 1482.89L1147.06 1482.01C1148.62 1479.87 1150.15 1477.71 1151.67 1475.56L1152.9 1476.42C1154.43 1474.25 1155.95 1472.07 1157.45 1469.88L1156.22 1469.03C1157.74 1466.82 1159.25 1464.6 1160.75 1462.37L1161.99 1463.21C1163.49 1460.98 1164.97 1458.74 1166.44 1456.5L1165.19 1455.68C1166.65 1453.45 1168.1 1451.2 1169.54 1448.96L1170.8 1449.77C1172.24 1447.52 1173.66 1445.26 1175.07 1443L1173.8 1442.21C1175.2 1439.96 1176.59 1437.7 1177.97 1435.44L1179.25 1436.22C1180.63 1433.95 1181.99 1431.68 1183.34 1429.4L1182.05 1428.64C1183.41 1426.34 1184.76 1424.04 1186.09 1421.74L1187.39 1422.49C1188.73 1420.16 1190.07 1417.83 1191.38 1415.49L1190.08 1414.75C1191.39 1412.42 1192.69 1410.09 1193.98 1407.75L1195.29 1408.47C1196.58 1406.12 1197.85 1403.77 1199.11 1401.42L1197.79 1400.71C1199.05 1398.37 1200.29 1396.02 1201.52 1393.66L1202.85 1394.36C1204.08 1392 1205.29 1389.64 1206.49 1387.27L1205.16 1386.59C1206.36 1384.23 1207.54 1381.87 1208.71 1379.51L1210.06 1380.17C1211.25 1377.76 1212.43 1375.35 1213.59 1372.94L1212.24 1372.28C1213.41 1369.87 1214.56 1367.45 1215.69 1365.03L1217.05 1365.67C1218.19 1363.24 1219.32 1360.81 1220.43 1358.38L1219.06 1357.76C1220.17 1355.33 1221.26 1352.9 1222.35 1350.47L1223.72 1351.08C1224.8 1348.65 1225.87 1346.21 1226.92 1343.77L1225.55 1343.18C1226.6 1340.74 1227.64 1338.31 1228.66 1335.87L1230.05 1336.45C1231.08 1334 1232.1 1331.54 1233.11 1329.08L1231.72 1328.51C1232.74 1326.02 1233.74 1323.53 1234.73 1321.04L1236.13 1321.6C1237.12 1319.1 1238.1 1316.61 1239.06 1314.11L1237.66 1313.57C1238.63 1311.08 1239.57 1308.59 1240.51 1306.09L1241.92 1306.62C1242.85 1304.12 1243.78 1301.62 1244.69 1299.13L1243.28 1298.61C1244.19 1296.12 1245.09 1293.62 1245.97 1291.13L1247.38 1291.63C1248.27 1289.13 1249.14 1286.63 1250 1284.13L1248.58 1283.64C1249.09 1282.16 1249.59 1280.68 1250.09 1279.2C1250.45 1278.14 1250.81 1277.07 1251.16 1276.01L1252.59 1276.48C1253.44 1273.93 1254.27 1271.38 1255.1 1268.83L1253.67 1268.37C1254.49 1265.82 1255.3 1263.28 1256.1 1260.73L1257.53 1261.18C1258.33 1258.63 1259.11 1256.09 1259.88 1253.54L1258.45 1253.1C1259.22 1250.56 1259.98 1248.02 1260.72 1245.48L1262.16 1245.9C1262.91 1243.36 1263.64 1240.81 1264.36 1238.27L1262.92 1237.86C1263.65 1235.28 1264.37 1232.7 1265.08 1230.13L1266.53 1230.53C1267.24 1227.93 1267.94 1225.33 1268.63 1222.74L1267.18 1222.35C1267.63 1220.67 1268.07 1218.99 1268.5 1217.31C1268.74 1216.4 1268.97 1215.5 1269.2 1214.59L1270.66 1214.96C1271.32 1212.37 1271.97 1209.78 1272.61 1207.2L1271.15 1206.84C1271.79 1204.26 1272.41 1201.68 1273.03 1199.11L1274.49 1199.45C1275.1 1196.88 1275.7 1194.3 1276.29 1191.73L1274.83 1191.39C1275.43 1188.78 1276.02 1186.18 1276.59 1183.57L1278.06 1183.9C1278.64 1181.26 1279.21 1178.63 1279.77 1176L1278.3 1175.68C1278.66 1173.98 1279.02 1172.28 1279.37 1170.59C1279.56 1169.66 1279.75 1168.74 1279.94 1167.82L1281.41 1168.12C1281.94 1165.5 1282.46 1162.89 1282.98 1160.27L1281.5 1159.99C1282.01 1157.38 1282.51 1154.78 1283 1152.18L1284.47 1152.45C1284.96 1149.85 1285.44 1147.26 1285.9 1144.66L1284.43 1144.4C1284.9 1141.76 1285.36 1139.12 1285.81 1136.49L1287.29 1136.74C1287.75 1134.07 1288.2 1131.41 1288.63 1128.76L1287.15 1128.52C1287.58 1125.86 1288 1123.22 1288.41 1120.58L1289.9 1120.81C1290.31 1118.17 1290.71 1115.54 1291.1 1112.91L1289.61 1112.69C1290 1110.07 1290.38 1107.45 1290.74 1104.84L1292.23 1105.05C1292.6 1102.43 1292.95 1099.83 1293.3 1097.23L1291.81 1097.03C1292.17 1094.34 1292.51 1091.66 1292.85 1088.99L1294.34 1089.18C1294.67 1086.49 1295 1083.81 1295.32 1081.14L1293.83 1080.97C1294.14 1078.3 1294.44 1075.65 1294.74 1073L1296.23 1073.17C1296.52 1070.51 1296.8 1067.87 1297.07 1065.24L1295.58 1065.09C1295.85 1062.46 1296.12 1059.84 1296.37 1057.23L1297.86 1057.38C1298.12 1054.72 1298.36 1052.07 1298.6 1049.43L1297.1 1049.3C1297.35 1046.59 1297.58 1043.89 1297.8 1041.2L1299.29 1041.32C1299.51 1038.63 1299.72 1035.94 1299.92 1033.28L1298.43 1033.16C1298.63 1030.5 1298.82 1027.84 1299 1025.2L1300.49 1025.31C1300.68 1022.66 1300.85 1020.03 1301.01 1017.41L1299.51 1017.32C1299.6 1015.88 1299.68 1014.44 1299.77 1013C1299.83 1011.82 1299.9 1010.65 1299.96 1009.47L1301.46 1009.56C1301.61 1006.81 1301.75 1004.08 1301.88 1001.37L1300.38 1001.3C1300.51 998.591 1300.63 995.897 1300.74 993.22L1302.24 993.281C1302.35 990.6 1302.45 987.935 1302.54 985.287L1301.04 985.236C1301.09 983.631 1301.14 982.032 1301.19 980.439C1301.22 979.407 1301.25 978.379 1301.28 977.353L1302.78 977.394C1302.85 974.76 1302.92 972.145 1302.97 969.546L1301.47 969.515C1301.53 966.756 1301.58 964.016 1301.62 961.298L1303.12 961.32C1303.16 958.598 1303.18 955.897 1303.2 953.218L1301.7 953.207C1301.72 950.531 1301.74 947.876 1301.74 945.244L1303.24 945.245C1303.24 942.61 1303.24 939.996 1303.22 937.405L1301.72 937.413C1301.71 934.724 1301.68 932.059 1301.65 929.42L1303.15 929.402C1303.12 926.637 1303.07 923.9 1303.02 921.192L1301.52 921.22C1301.47 918.515 1301.41 915.838 1301.35 913.19L1302.85 913.152C1302.78 910.501 1302.7 907.879 1302.62 905.287L1301.12 905.335C1301.04 902.699 1300.95 900.093 1300.85 897.52L1302.35 897.462C1302.24 894.659 1302.12 891.894 1302 889.168L1300.5 889.236C1300.38 886.513 1300.24 883.829 1300.11 881.185L1301.6 881.107C1301.47 878.459 1301.32 875.852 1301.17 873.285L1299.67 873.373C1299.52 870.703 1299.35 868.077 1299.18 865.496L1300.68 865.398C1300.5 862.581 1300.3 859.819 1300.11 857.112L1298.61 857.221C1298.41 854.518 1298.21 851.871 1298 849.281L1299.5 849.161C1299.29 846.568 1299.08 844.032 1298.86 841.555L1297.37 841.685C1297.12 838.817 1296.87 836.028 1296.61 833.322L1298.1 833.18C1297.84 830.431 1297.58 827.766 1297.32 825.188L1295.82 825.341C1295.56 822.758 1295.29 820.262 1295.03 817.856L1296.52 817.692C1296.19 814.718 1295.87 811.881 1295.54 809.185L1294.05 809.363C1293.73 806.672 1293.42 804.122 1293.11 801.719L1294.6 801.528C1294.22 798.55 1293.85 795.796 1293.5 793.276L1292.01 793.482C1291.63 790.737 1291.27 788.269 1290.95 786.091L1292.43 785.868C1291.91 782.427 1291.48 779.705 1291.15 777.748L1289.67 777.995C1289.47 776.796 1289.31 775.887 1289.21 775.279C1289.15 774.975 1289.11 774.746 1289.08 774.593L1289.05 774.423L1289.04 774.381L1289.04 774.37L-407.418 841.443Z" stroke="#F1EFE9" stroke-width="3" stroke-dasharray="8 8"/>
<path d="M6.12942 151.244C4.35107 148.207 2.53047 145.272 0.667597 142.441C-1.1671 139.541 -3.0563 136.606 -5 133.636C-4.22958 133.436 -3.48672 133.246 -2.77141 133.068C-2.08306 132.844 -1.40817 132.598 -0.746757 132.328C-0.0853442 132.058 0.562596 131.765 1.19706 131.449C1.80459 131.087 2.43967 130.713 3.10231 130.329C4.71531 133.434 6.30136 136.492 7.86047 139.505C9.44774 142.449 11.1306 145.44 12.9089 148.477C16.3039 154.275 19.2819 159.303 21.8429 163.56C24.3769 167.771 26.655 171.545 28.6771 174.882C32.5904 173.285 36.325 171.732 39.8807 170.224C43.4094 168.669 47.106 166.819 50.9704 164.671C51.1798 165.612 51.4462 166.359 51.7695 166.911C52.0659 167.417 52.5675 167.982 53.2742 168.606C50.6849 169.549 48.1225 170.537 45.5871 171.572C43.0517 172.607 40.5163 173.642 37.9808 174.677C35.3352 175.756 32.7722 176.803 30.2919 177.815C27.8667 178.805 25.3583 179.886 22.7665 181.057C21.2613 178.137 19.7016 175.181 18.0873 172.191C16.5282 169.179 14.8595 166.154 13.0811 163.117L6.12942 151.244Z" fill="#FBFAF7"/>
<path d="M76.1722 139.64C75.3513 140.258 74.3369 140.889 73.129 141.532C71.9777 142.155 70.8099 142.811 69.6258 143.501C68.4179 144.143 67.2454 144.857 66.1084 145.641C65.0279 146.406 64.1198 147.249 63.384 148.172C62.7048 149.074 62.2663 150.059 62.0685 151.127C61.9273 152.175 62.1874 153.361 62.8486 154.685C63.9585 156.907 65.5613 158.319 67.6569 158.921C69.7525 159.523 71.7347 159.499 73.6033 158.849C75.755 158.099 77.4604 156.923 78.7198 155.319C80.0359 153.695 80.8446 152.054 81.146 150.395L76.1722 139.64ZM48.8877 134.322C50.6328 131.827 52.4396 129.922 54.3079 128.605C56.1762 127.289 58.2429 126.236 60.5078 125.447C62.5462 124.738 64.5447 124.347 66.5032 124.276C68.4381 124.157 70.2362 124.363 71.8976 124.895C73.5354 125.379 75.0247 126.164 76.3654 127.252C77.6825 128.291 78.7307 129.591 79.51 131.151C80.8561 133.846 82.1456 136.561 83.3785 139.295C84.5877 141.982 85.9362 144.814 87.424 147.793C87.7074 148.36 88.0144 148.974 88.345 149.636C88.7086 150.231 89.1336 150.749 89.6198 151.19C90.0825 151.584 90.5947 151.878 91.1563 152.071C91.7746 152.244 92.5085 152.182 93.3578 151.887C93.641 151.788 93.9241 151.69 94.2072 151.591C94.5233 151.425 94.7875 151.222 94.9998 150.982L95.7791 152.542C95.2743 152.995 94.5761 153.46 93.6843 153.937C92.8492 154.395 91.8653 154.821 90.7329 155.215C88.9209 155.846 87.3447 155.951 86.0042 155.529C84.6401 155.061 83.5662 154.242 82.7823 153.072C81.594 155.483 80.2096 157.436 78.6293 158.93C77.049 160.424 74.8149 161.673 71.9271 162.679C70.5115 163.172 69.0415 163.489 67.5172 163.632C65.993 163.774 64.504 163.654 63.0503 163.272C61.6532 162.871 60.3551 162.268 59.1561 161.465C57.9901 160.595 57.0646 159.474 56.3798 158.103C54.9628 155.266 54.9122 152.703 56.228 150.414C57.6004 148.104 60.0253 146.039 63.5027 144.218C66.3479 142.727 68.549 141.545 70.1059 140.67C71.6959 139.727 72.8047 138.953 73.4321 138.346C74.1161 137.719 74.4368 137.164 74.3942 136.679C74.3279 136.147 74.1176 135.527 73.7634 134.817C73.173 133.636 72.4363 132.56 71.5534 131.591C70.6705 130.622 69.6603 129.864 68.5227 129.316C67.3851 128.769 66.1037 128.466 64.6785 128.407C63.2296 128.301 61.6559 128.544 59.9572 129.136C57.6922 129.924 55.7813 131.089 54.2246 132.63C52.7244 134.151 51.8709 135.836 51.664 137.684L50.7297 138.009L48.8877 134.322Z" fill="#FBFAF7"/>
<path d="M128.666 123.207C127.745 120.98 126.586 119.119 125.19 117.625C123.831 116.066 122.361 114.864 120.779 114.019C119.255 113.158 117.647 112.646 115.957 112.482C114.305 112.254 112.725 112.357 111.217 112.791C109.42 113.309 107.8 114.101 106.358 115.167C104.955 116.167 103.914 117.497 103.236 119.155C102.539 120.765 102.244 122.719 102.35 125.019C102.495 127.253 103.188 129.871 104.429 132.873C108.452 142.605 114.697 146.252 123.164 143.812C124.962 143.294 126.455 142.43 127.642 141.221C128.81 139.964 129.634 138.425 130.116 136.607C130.655 134.772 130.814 132.721 130.591 130.455C130.368 128.189 129.726 125.773 128.666 123.207ZM136.411 121.219C137.572 124.028 138.111 126.744 138.028 129.369C138.002 131.977 137.441 134.388 136.344 136.601C135.284 138.748 133.727 140.633 131.672 142.255C129.654 143.811 127.253 144.991 124.47 145.793C121.686 146.595 118.963 146.838 116.301 146.521C113.677 146.139 111.495 145.413 109.754 144.343C108.247 146.349 106.885 148.313 105.667 150.235L104.101 150.687C103.737 149.491 103.243 148.062 102.621 146.399C102.056 144.719 101.423 142.951 100.72 141.094C99.9977 139.189 99.2361 137.268 98.4355 135.331C97.6929 133.378 96.9813 131.578 96.3008 129.932L90.8667 116.786C90.1862 115.139 89.4167 113.356 88.5581 111.436C87.7575 109.499 86.9379 107.595 86.0993 105.724C85.2607 103.852 84.4331 102.085 83.6166 100.424C82.8381 98.6977 82.1406 97.246 81.5243 96.0689C83.2482 95.8431 84.6031 95.5882 85.5891 95.3041C86.227 95.1203 86.8839 94.9039 87.5598 94.655C88.2157 94.3576 88.9296 94.0435 89.7015 93.7127C89.9279 94.7312 90.4234 96.3225 91.188 98.4864C91.9327 100.602 92.8164 102.975 93.8392 105.607C94.842 108.19 95.8849 110.869 96.9677 113.646C98.0306 116.374 98.9934 118.86 99.8561 121.104L100.03 121.054C100.921 117.871 102.305 115.332 104.183 113.437C106.06 111.541 108.565 110.142 111.696 109.24C114.712 108.371 117.522 108.103 120.126 108.436C122.71 108.721 125.047 109.43 127.138 110.561C129.228 111.693 131.052 113.2 132.608 115.081C134.203 116.897 135.47 118.943 136.411 121.219Z" fill="#FBFAF7"/>
<path d="M152.756 118.295C153.445 120.368 154.316 122.32 155.369 124.149C156.481 125.964 157.824 127.514 159.396 128.798C160.952 130.032 162.764 130.888 164.833 131.366C166.902 131.844 169.237 131.782 171.838 131.179C174.439 130.577 176.479 129.626 177.958 128.327C179.436 127.028 180.462 125.515 181.034 123.788C181.59 122.011 181.755 120.113 181.53 118.092C181.363 116.057 180.936 114.003 180.247 111.93C179.558 109.857 178.658 107.913 177.546 106.097C176.492 104.268 175.188 102.736 173.632 101.502C172.059 100.218 170.239 99.3374 168.17 98.8596C166.101 98.3818 163.766 98.444 161.165 99.0463C158.564 99.6485 156.524 100.599 155.045 101.898C153.567 103.197 152.55 104.735 151.994 106.512C151.421 108.239 151.218 110.12 151.385 112.154C151.61 114.175 152.068 116.222 152.756 118.295ZM144.952 120.102C143.837 116.746 143.515 113.764 143.986 111.156C144.5 108.486 145.554 106.196 147.148 104.285C148.725 102.325 150.678 100.73 153.007 99.4998C155.379 98.2065 157.836 97.2656 160.378 96.677C162.979 96.0747 165.666 95.8248 168.438 95.9273C171.193 95.9803 173.851 96.5077 176.412 97.5094C178.957 98.4618 181.243 99.9789 183.272 102.061C185.343 104.079 186.936 106.767 188.051 110.123C189.166 113.48 189.466 116.493 188.953 119.164C188.482 121.771 187.457 124.055 185.88 126.015C184.286 127.925 182.317 129.471 179.971 130.652C177.626 131.833 175.153 132.724 172.551 133.326C170.009 133.915 167.339 134.214 164.541 134.224C161.802 134.221 159.16 133.743 156.616 132.79C154.055 131.788 151.738 130.278 149.667 128.259C147.639 126.178 146.067 123.459 144.952 120.102Z" fill="#FBFAF7"/>
<path d="M216.582 92.4662C216.203 92.2219 215.531 92.0581 214.566 91.975C213.661 91.8807 212.759 91.9171 211.861 92.0839C210.423 92.3509 209.209 92.8651 208.218 93.6265C207.227 94.3879 206.468 95.3159 205.943 96.4105C205.404 97.4551 205.098 98.6664 205.026 100.044C204.94 101.372 205.09 102.761 205.476 104.211L207.675 112.461C208.568 115.811 209.254 118.386 209.734 120.186C210.26 121.925 210.759 123.327 211.232 124.394C210.008 124.517 208.797 124.689 207.599 124.912C206.282 125.156 205.037 125.44 203.866 125.762C203.593 124.029 203.07 121.712 202.297 118.812C201.57 115.851 200.641 112.246 199.508 107.996L198.869 105.596C198.349 103.646 197.72 101.401 196.98 98.8626C196.3 96.3127 195.431 93.4044 194.372 90.1378C195.057 90.1154 195.713 90.0986 196.338 90.0873C196.951 90.0261 197.586 89.9343 198.245 89.8119C198.784 89.7118 199.346 89.5811 199.932 89.4198C200.504 89.2086 201.106 88.9918 201.738 88.7694C201.978 90.6139 202.208 92.0667 202.428 93.1278C202.708 94.1778 202.975 95.1778 203.228 96.1278L203.427 96.1694C205.522 90.113 208.755 86.6788 213.126 85.8667C213.665 85.7665 214.121 85.7081 214.494 85.6913C214.926 85.6635 215.469 85.6939 216.121 85.7826C215.981 86.4383 216.048 87.3966 216.321 88.6578C216.581 89.8689 216.844 90.9744 217.111 91.9744L216.582 92.4662Z" fill="#FBFAF7"/>
<path d="M243.663 83.4156C241.429 83.7509 239.619 84.4649 238.234 85.5575C236.909 86.6411 235.874 87.9153 235.13 89.3802C234.435 90.7855 233.984 92.3104 233.777 93.9548C233.619 95.5397 233.627 97.0219 233.799 98.4012C235.682 98.1707 237.625 97.9311 239.629 97.6824C241.692 97.4248 243.691 97.1509 245.623 96.8609C247.615 96.5619 249.633 96.2331 251.675 95.8746C253.717 95.516 255.699 95.1666 257.62 94.8262C257.327 93.465 256.867 92.0508 256.24 90.5837C255.672 89.1075 254.825 87.7775 253.697 86.5936C252.63 85.4006 251.28 84.4844 249.646 83.8448C248.012 83.2053 246.018 83.0622 243.663 83.4156ZM226.501 104.024C225.166 97.8232 225.87 92.6954 228.612 88.6408C231.415 84.5772 236.198 82.0379 242.961 81.0229C246.161 80.5426 249.001 80.5588 251.48 81.0715C254.009 81.5247 256.21 82.3393 258.084 83.5153C259.947 84.6409 261.441 86.0819 262.568 87.8385C263.754 89.5861 264.575 91.5185 265.031 93.6359C265.14 94.1401 265.218 94.6487 265.266 95.1619C265.364 95.6157 265.437 96.0991 265.485 96.6124C262.214 97.0513 258.972 97.4857 255.761 97.9156C252.55 98.3454 249.314 98.8051 246.053 99.2944C244.061 99.5935 242.073 99.9177 240.091 100.267C238.17 100.608 236.218 100.953 234.237 101.302C234.231 101.563 234.282 101.946 234.39 102.45L234.602 103.433C235.025 105.399 235.754 107.189 236.787 108.804C237.88 110.409 239.227 111.742 240.827 112.803C242.416 113.814 244.258 114.552 246.353 115.019C248.437 115.434 250.747 115.452 253.283 115.071C254.491 114.89 255.702 114.578 256.916 114.136C258.119 113.643 259.275 113.079 260.385 112.444C261.484 111.759 262.476 111.011 263.362 110.202C264.308 109.384 265.092 108.537 265.714 107.663L266.216 107.822L266.47 111.609C264.919 113.091 262.877 114.464 260.344 115.729C257.872 116.985 255.187 117.83 252.288 118.265C249.027 118.755 245.952 118.8 243.061 118.401C240.219 117.943 237.634 117.082 235.305 115.818C233.025 114.495 231.109 112.831 229.555 110.826C228.062 108.812 227.044 106.545 226.501 104.024Z" fill="#FBFAF7"/>
<path d="M318.015 74.9042C315.756 75.0889 313.884 75.6794 312.398 76.6758C310.973 77.6672 309.819 78.8681 308.937 80.2784C308.109 81.6327 307.513 83.1225 307.149 84.7477C306.84 86.317 306.705 87.7949 306.744 89.1813C308.643 89.0775 310.603 88.9688 312.624 88.8551C314.706 88.7363 316.724 88.5971 318.678 88.4374C320.693 88.2727 322.735 88.08 324.805 87.8593C326.875 87.6386 328.884 87.4229 330.832 87.2122C330.671 85.8358 330.348 84.3954 329.863 82.891C329.44 81.3816 328.723 79.9991 327.712 78.7436C326.763 77.483 325.505 76.4793 323.938 75.7325C322.371 74.9856 320.397 74.7095 318.015 74.9042ZM298.93 94.2977C298.195 88.0274 299.388 82.9632 302.511 79.1052C305.695 75.2422 310.707 73.0312 317.545 72.4722C320.781 72.2076 323.611 72.4139 326.032 73.0908C328.509 73.7118 330.625 74.6711 332.38 75.9688C334.129 77.2154 335.481 78.7519 336.434 80.5782C337.449 82.3995 338.083 84.3808 338.334 86.5219C338.393 87.0316 338.423 87.5439 338.421 88.0587C338.475 88.5175 338.501 89.0043 338.5 89.5191C335.197 89.7376 331.924 89.9537 328.682 90.1672C325.44 90.3808 322.17 90.6223 318.873 90.8919C316.858 91.0566 314.846 91.2468 312.837 91.4625C310.889 91.6732 308.911 91.8863 306.902 92.102C306.871 92.3619 306.885 92.7468 306.945 93.2565L307.061 94.2506C307.295 96.2388 307.849 98.0721 308.724 99.7504C309.659 101.424 310.874 102.843 312.367 104.007C313.853 105.121 315.619 105.98 317.662 106.585C319.7 107.139 322.001 107.312 324.565 107.102C325.786 107.002 327.023 106.772 328.276 106.413C329.522 106.002 330.729 105.517 331.896 104.959C333.058 104.349 334.118 103.67 335.079 102.923C336.1 102.17 336.963 101.379 337.667 100.55L338.152 100.742L338.042 104.534C336.353 105.907 334.186 107.139 331.54 108.23C328.955 109.316 326.197 109.979 323.266 110.219C319.969 110.488 316.899 110.328 314.056 109.737C311.267 109.09 308.773 108.058 306.573 106.643C304.428 105.171 302.677 103.384 301.321 101.282C300.026 99.1747 299.229 96.8466 298.93 94.2977Z" fill="#FBFAF7"/>
<path d="M355.709 60.4881C355.66 62.4402 355.639 64.3652 355.647 66.2632C355.713 68.1071 355.75 69.978 355.759 71.876C356.432 71.8436 357.688 71.7831 359.525 71.6946C361.359 71.555 363.345 71.3825 365.481 71.177C365.431 71.3333 365.419 71.6161 365.448 72.0252L365.559 73.636C365.584 73.9939 365.632 74.2482 365.704 74.3986C364.904 74.3858 364.075 74.4001 363.218 74.4414C362.357 74.4315 361.436 74.4502 360.456 74.4974L355.955 74.7141C355.907 74.9216 355.872 75.7443 355.849 77.182C355.886 78.6168 355.943 80.3328 356.02 82.3302C356.093 84.2763 356.173 86.3248 356.26 88.4755C356.408 90.6233 356.541 92.5409 356.657 94.2284C356.756 95.6603 356.884 97.0651 357.041 98.4428C357.259 99.8177 357.651 101.056 358.219 102.157C358.783 103.207 359.578 104.041 360.604 104.659C361.63 105.277 363.062 105.541 364.899 105.453C365.389 105.429 366.029 105.347 366.818 105.206C367.668 105.063 368.395 104.9 368.996 104.717L369.124 106.558C368.093 106.761 366.942 106.996 365.67 107.263C364.462 107.577 363.277 107.763 362.113 107.819C358.254 108.005 355.351 107.349 353.404 105.852C351.457 104.356 350.378 102.073 350.166 99.0048C350.071 97.624 349.999 96.1396 349.95 94.5514C349.899 92.912 349.838 91.1448 349.769 89.2498C349.757 87.3007 349.702 85.1741 349.604 82.8699C349.503 80.5147 349.354 77.9052 349.156 75.0415L346.216 75.1831C345.726 75.2066 345.207 75.2573 344.659 75.335C344.108 75.3615 343.528 75.4151 342.919 75.4957C342.959 75.1859 342.97 74.9032 342.953 74.6475C342.993 74.3378 343.002 74.0295 342.981 73.7226C342.963 73.4669 342.915 73.2127 342.836 72.96C342.818 72.7043 342.77 72.4501 342.691 72.1974C345.458 72.2181 347.485 72.1974 348.771 72.1355C348.639 71.1157 348.489 69.8402 348.322 68.3091C348.216 66.7749 348.045 65.1926 347.81 63.5621L355.25 60.5102L355.709 60.4881Z" fill="#FBFAF7"/>
<path d="M451.521 103.363C450.96 103.765 450.061 104.213 448.823 104.707C447.648 105.151 446.197 105.565 444.471 105.949C442.807 106.284 440.929 106.589 438.837 106.866C436.745 107.142 434.564 107.264 432.295 107.231C427.449 107.16 422.982 106.531 418.896 105.344C414.811 104.106 411.29 102.287 408.334 99.8866C405.439 97.4876 403.169 94.5854 401.522 91.1801C399.938 87.7244 399.192 83.82 399.284 79.4667C399.375 75.1135 400.285 71.259 402.012 67.9031C403.802 64.4969 406.224 61.6379 409.28 59.3261C412.396 57.0153 416.084 55.2763 420.342 54.1092C424.601 52.9421 429.276 52.3959 434.367 52.4705C438.416 52.5299 442.089 52.9424 445.386 53.708C448.746 54.4232 451.704 55.2863 454.259 56.2971C453.754 57.0069 453.334 57.9742 453.002 59.1988C452.669 60.4235 452.402 61.4442 452.201 62.2609L451.646 62.4064C451.045 61.7829 450.201 61.0789 449.113 60.2945C448.025 59.5101 446.753 58.7486 445.295 58.01C443.838 57.2714 442.194 56.6581 440.364 56.1702C438.534 55.6311 436.515 55.3453 434.307 55.313C430.688 55.2599 427.304 55.6969 424.155 56.6241C421.067 57.5522 418.337 59.0235 415.963 61.0379C413.651 63.002 411.818 65.5366 410.464 68.6418C409.111 71.6958 408.39 75.3482 408.301 79.599C408.211 83.8498 408.778 87.5467 410 90.6896C411.224 93.7814 412.949 96.3682 415.176 98.45C417.465 100.482 420.132 102.006 423.179 103.024C426.287 104.043 429.651 104.579 433.27 104.632C435.478 104.665 437.507 104.464 439.357 104.03C441.268 103.597 442.997 103.085 444.544 102.492C446.153 101.85 447.578 101.179 448.82 100.48C450.124 99.731 451.212 99.0809 452.082 98.5302L452.444 98.8429L451.521 103.363Z" fill="#FBFAF7"/>
<path d="M469.284 89.3701C469.082 91.5147 469.1 93.5969 469.34 95.6166C469.641 97.6403 470.267 99.4799 471.219 101.135C472.175 102.74 473.527 104.062 475.275 105.102C477.023 106.142 479.242 106.751 481.934 106.928C484.625 107.105 486.931 106.795 488.853 105.996C490.774 105.198 492.358 104.069 493.604 102.61C494.854 101.1 495.788 99.3627 496.404 97.3994C497.081 95.4401 497.522 93.3882 497.724 91.2435C497.927 89.0988 497.878 87.0146 497.577 84.9909C497.337 82.9712 496.739 81.1592 495.782 79.5548C494.831 77.8993 493.482 76.5515 491.734 75.5115C489.986 74.4715 487.766 73.8628 485.075 73.6856C482.384 73.5083 480.077 73.8188 478.156 74.6171C476.234 75.4153 474.648 76.5697 473.397 78.0802C472.152 79.5396 471.19 81.2489 470.513 83.2081C469.896 85.1714 469.487 87.2254 469.284 89.3701ZM461.211 88.8382C461.539 85.3659 462.459 82.4721 463.97 80.1567C465.547 77.7942 467.476 75.9431 469.757 74.6033C472.042 73.2124 474.531 72.2716 477.224 71.7811C479.982 71.2434 482.677 71.0613 485.307 71.2345C487.998 71.4118 490.624 71.9445 493.187 72.8326C495.754 73.6697 498.036 74.9247 500.031 76.5976C502.032 78.2195 503.559 80.2982 504.612 82.8339C505.73 85.3225 506.126 88.303 505.797 91.7753C505.469 95.2477 504.517 98.165 502.939 100.527C501.428 102.843 499.53 104.696 497.245 106.087C494.964 107.427 492.48 108.316 489.792 108.756C487.104 109.195 484.415 109.327 481.724 109.149C479.094 108.976 476.462 108.494 473.829 107.704C471.257 106.918 468.97 105.714 466.97 104.093C464.974 102.42 463.417 100.339 462.298 97.8502C461.245 95.3146 460.883 92.3106 461.211 88.8382Z" fill="#FBFAF7"/>
<path d="M547.538 92.8481C548.16 89.0416 547.747 86.0738 546.299 83.9445C544.859 81.7645 542.589 80.498 539.489 80.1451C535.233 79.6608 531.925 80.3956 529.562 82.3497C527.261 84.3106 525.787 87.2705 525.14 91.2292L524.084 97.7002C523.711 99.9841 523.347 102.398 522.994 104.943C522.709 107.444 522.553 109.726 522.526 111.791C521.144 111.53 519.785 111.324 518.447 111.172C517.11 111.019 515.734 110.915 514.319 110.857C514.955 108.861 515.506 106.624 515.973 104.144C516.509 101.62 516.963 99.216 517.336 96.9321L518.629 89.0147C519.002 86.7308 519.33 84.3385 519.615 81.8378C519.969 79.2932 520.172 76.9125 520.224 74.6955C521.885 75.143 523.232 75.4256 524.265 75.5432C524.751 75.5985 525.272 75.632 525.828 75.6435C526.452 75.6112 527.168 75.5893 527.975 75.5777C527.461 77.5871 527.038 79.6068 526.707 81.6369L526.889 81.6577C528.947 79.669 531.257 78.226 533.819 77.3285C536.388 76.3803 539.314 76.093 542.597 76.4666C544.299 76.6604 545.968 77.0571 547.604 77.6569C549.3 78.2636 550.765 79.154 551.997 80.3282C553.238 81.4517 554.143 82.9246 554.712 84.7471C555.351 86.5257 555.454 88.7346 555.023 91.3738C554.667 93.5561 554.237 95.8077 553.735 98.1285C553.24 100.399 552.781 102.828 552.359 105.416L551.551 110.365C551.418 111.177 551.286 111.989 551.153 112.801C551.089 113.569 551.03 114.312 550.975 115.029C549.776 114.789 548.507 114.593 547.17 114.441C545.893 114.296 544.639 114.205 543.407 114.168C543.959 111.542 544.524 108.841 545.102 106.063C545.74 103.293 546.299 100.436 546.78 97.492L547.538 92.8481Z" fill="#FBFAF7"/>
<path d="M566.072 109.971C566.261 110.521 566.589 111.146 567.057 111.844C567.585 112.552 568.21 113.248 568.93 113.934C569.722 114.578 570.622 115.161 571.629 115.683C572.696 116.214 573.862 116.578 575.129 116.776C576.275 116.954 577.394 116.973 578.487 116.83C579.64 116.697 580.67 116.415 581.578 115.983C582.547 115.561 583.368 114.96 584.041 114.179C584.715 113.398 585.176 112.454 585.424 111.346C585.773 109.785 585.495 108.517 584.589 107.542C583.755 106.527 582.611 105.645 581.155 104.897C579.711 104.098 578.099 103.352 576.32 102.658C574.54 101.964 572.945 101.142 571.535 100.193C570.136 99.1929 569.028 98.0042 568.213 96.6265C567.458 95.2583 567.317 93.5167 567.79 91.4019C568.161 89.7403 568.831 88.2814 569.798 87.0253C570.777 85.7189 572.012 84.6608 573.504 83.8512C574.996 83.0415 576.738 82.5055 578.732 82.243C580.736 81.9302 582.945 81.9618 585.357 82.3378C587.589 82.6856 589.402 83.2288 590.797 83.9674C592.253 84.7153 593.629 85.3988 594.926 86.0178C594.274 86.6979 593.614 87.5589 592.944 88.6008C592.274 89.6428 591.811 90.4565 591.556 91.0419L590.47 90.8727C590.258 89.589 589.565 88.3608 588.392 87.1879C587.219 86.015 585.607 85.2687 583.556 84.9491C582.652 84.8081 581.719 84.7929 580.758 84.9037C579.797 85.0145 578.898 85.2652 578.062 85.6559C577.226 86.0466 576.476 86.6072 575.814 87.3376C575.151 88.0681 574.696 88.9872 574.448 90.0949C574.088 91.7062 574.319 93.0449 575.142 94.1111C576.036 95.1363 577.211 96.0228 578.666 96.7708C580.121 97.5187 581.739 98.2398 583.518 98.934C585.309 99.5779 586.91 100.374 588.32 101.324C589.742 102.223 590.83 103.356 591.585 104.725C592.401 106.102 592.572 107.849 592.099 109.963C591.772 111.424 591.059 112.798 589.96 114.085C588.921 115.382 587.549 116.497 585.842 117.43C584.207 118.321 582.322 118.939 580.185 119.283C578.06 119.577 575.731 119.527 573.198 119.132C570.423 118.7 568.152 118.111 566.384 117.367C564.616 116.622 563.166 115.849 562.034 115.047C562.543 114.449 563.102 113.624 563.711 112.573C564.392 111.481 564.817 110.557 564.986 109.802L566.072 109.971Z" fill="#FBFAF7"/>
<path d="M620.563 78.7035C619.873 80.5691 619.219 82.4152 618.602 84.242C618.059 86.03 617.478 87.8374 616.861 89.6641C617.52 89.7875 618.747 90.0175 620.543 90.3541C622.352 90.6407 624.318 90.9304 626.44 91.2231C626.34 91.3618 626.236 91.6311 626.128 92.0309L625.705 93.6053C625.611 93.9551 625.574 94.2106 625.593 94.3718C624.828 94.1759 624.027 93.9995 623.189 93.8424C622.364 93.6354 621.473 93.4421 620.515 93.2626L616.116 92.4379C616.002 92.6266 615.697 93.4095 615.201 94.7864C614.765 96.1746 614.255 97.8377 613.671 99.7756C613.101 101.664 612.503 103.651 611.879 105.739C611.315 107.838 610.811 109.713 610.367 111.362C609.991 112.761 609.651 114.141 609.348 115.502C609.105 116.874 609.075 118.154 609.259 119.344C609.455 120.483 609.945 121.467 610.728 122.297C611.511 123.126 612.801 123.709 614.597 124.045C615.075 124.135 615.717 124.203 616.523 124.249C617.387 124.306 618.139 124.316 618.778 124.278L618.295 126.077C617.237 126.036 616.052 125.998 614.741 125.962C613.477 125.988 612.276 125.894 611.139 125.681C607.367 124.974 604.792 123.678 603.413 121.792C602.034 119.906 601.747 117.463 602.553 114.465C602.916 113.115 603.336 111.672 603.812 110.133C604.302 108.545 604.826 106.832 605.383 104.994C606.013 103.118 606.661 101.06 607.325 98.8225C608.003 96.5347 608.718 93.9914 609.471 91.1926L606.598 90.654C606.119 90.5643 605.603 90.4939 605.051 90.4429C604.512 90.3419 603.937 90.2603 603.325 90.1981C603.465 89.9095 603.569 89.6402 603.636 89.3903C603.777 89.1017 603.887 88.8074 603.968 88.5075C604.035 88.2576 604.072 88.0021 604.08 87.741C604.147 87.4911 604.184 87.2356 604.191 86.9745C606.845 87.6293 608.8 88.0745 610.057 88.3101C610.266 87.2994 610.542 86.0387 610.886 84.5281C611.289 83.0287 611.645 81.4682 611.956 79.8464L620.114 78.6194L620.563 78.7035Z" fill="#FBFAF7"/>
<path d="M653.89 114.202C652.788 114.273 651.523 114.255 650.097 114.147C648.729 114.053 647.325 113.976 645.882 113.918C644.456 113.81 643.006 113.777 641.531 113.817C640.117 113.871 638.78 114.076 637.523 114.43C636.325 114.798 635.256 115.354 634.318 116.098C633.439 116.856 632.777 117.927 632.331 119.312C631.583 121.637 631.818 123.573 633.036 125.119C634.254 126.665 635.84 127.657 637.796 128.095C640.047 128.6 642.258 128.539 644.429 127.912C646.66 127.299 648.501 126.412 649.954 125.253L653.89 114.202ZM636.187 96.071C639.395 94.987 642.22 94.4007 644.662 94.312C647.105 94.2233 649.511 94.4447 651.881 94.9763C654.014 95.4546 655.882 96.1652 657.484 97.108C659.103 98.0013 660.375 99.0822 661.301 100.351C662.243 101.57 662.846 102.951 663.112 104.496C663.393 105.991 663.271 107.555 662.746 109.187C661.839 112.007 660.872 114.813 659.847 117.607C658.837 120.35 657.831 123.28 656.828 126.397C656.637 126.991 656.43 127.634 656.207 128.326C656.06 128.983 656.017 129.609 656.079 130.207C656.157 130.755 656.347 131.248 656.651 131.687C657.013 132.14 657.639 132.466 658.528 132.665C658.824 132.732 659.12 132.798 659.416 132.865C659.788 132.895 660.145 132.869 660.489 132.787L659.964 134.419C659.233 134.521 658.34 134.533 657.285 134.455C656.289 134.391 655.199 134.226 654.014 133.96C652.118 133.535 650.793 132.814 650.041 131.796C649.304 130.729 649.054 129.533 649.29 128.207C646.584 129.509 644.058 130.349 641.714 130.724C639.37 131.1 636.687 130.949 633.665 130.272C632.184 129.94 630.788 129.441 629.477 128.776C628.166 128.11 627.076 127.256 626.204 126.212C625.393 125.181 624.806 124.042 624.445 122.794C624.16 121.51 624.247 120.151 624.709 118.716C625.664 115.748 627.5 113.694 630.218 112.553C632.994 111.426 636.426 111.028 640.511 111.361C643.854 111.633 646.462 111.82 648.335 111.922C650.283 111.988 651.728 111.941 652.669 111.78C653.669 111.633 654.329 111.357 654.65 110.952C654.987 110.497 655.275 109.899 655.514 109.157C655.912 107.92 656.116 106.693 656.127 105.475C656.137 104.258 655.892 103.142 655.393 102.128C654.893 101.115 654.101 100.221 653.016 99.4472C651.946 98.624 650.523 98.0131 648.745 97.6144C646.375 97.0829 644.01 97.0299 641.65 97.4552C639.349 97.8939 637.44 98.7917 635.924 100.149L634.946 99.9296L636.187 96.071Z" fill="#FBFAF7"/>
<path d="M706.175 125.218C707.627 121.573 707.877 118.592 706.925 116.276C705.992 113.912 704.041 112.317 701.072 111.493C696.997 110.361 693.582 110.573 690.828 112.13C688.133 113.702 686.03 116.384 684.519 120.175L682.05 126.372C681.179 128.559 680.288 130.876 679.378 133.323C678.546 135.736 677.888 137.956 677.404 139.981C676.104 139.512 674.813 139.099 673.533 138.744C672.252 138.388 670.923 138.073 669.545 137.798C670.611 135.935 671.647 133.821 672.654 131.455C673.739 129.057 674.717 126.765 675.588 124.578L678.609 116.995C679.481 114.808 680.333 112.508 681.165 110.094C682.075 107.647 682.801 105.339 683.343 103.168C684.876 103.864 686.137 104.349 687.127 104.624C687.593 104.753 688.097 104.866 688.64 104.963C689.261 105.028 689.97 105.116 690.765 105.229C689.816 107.125 688.954 109.045 688.179 110.989L688.354 111.038C690.817 109.4 693.406 108.338 696.122 107.851C698.857 107.315 701.796 107.483 704.94 108.356C706.57 108.809 708.122 109.456 709.598 110.298C711.131 111.156 712.373 112.256 713.325 113.6C714.296 114.896 714.86 116.483 715.016 118.362C715.251 120.208 714.864 122.395 713.857 124.922C713.024 127.012 712.104 129.159 711.097 131.362C710.109 133.517 709.122 135.834 708.134 138.313L706.246 143.052C705.936 143.829 705.626 144.607 705.316 145.385C705.084 146.13 704.862 146.851 704.649 147.547C703.523 147.127 702.32 146.739 701.039 146.383C699.817 146.044 698.604 145.761 697.401 145.535C698.524 143.04 699.677 140.472 700.858 137.831C702.098 135.206 703.279 132.484 704.403 129.665L706.175 125.218Z" fill="#FBFAF7"/>
<path d="M745.997 110.704C744.981 112.463 744.005 114.207 743.069 115.936C742.212 117.636 741.315 119.351 740.378 121.081C741.007 121.285 742.179 121.665 743.895 122.222C745.633 122.731 747.525 123.262 749.571 123.816C749.447 123.94 749.296 124.194 749.118 124.576L748.418 126.08C748.263 126.414 748.18 126.662 748.171 126.824C747.449 126.535 746.689 126.26 745.888 126.001C745.11 125.693 744.263 125.391 743.348 125.094L739.145 123.731C738.999 123.903 738.557 124.639 737.821 125.939C737.141 127.257 736.34 128.838 735.416 130.681C734.514 132.477 733.568 134.368 732.578 136.355C731.645 138.36 730.812 140.151 730.078 141.726C729.456 143.063 728.873 144.386 728.331 145.693C727.845 147.019 727.587 148.282 727.555 149.481C727.546 150.632 727.855 151.666 728.481 152.584C729.107 153.501 730.278 154.238 731.993 154.795C732.451 154.943 733.073 155.09 733.861 155.236C734.706 155.4 735.448 155.503 736.086 155.546L735.287 157.264C734.248 157.092 733.083 156.907 731.794 156.708C730.539 156.576 729.368 156.334 728.282 155.981C724.679 154.812 722.364 153.21 721.337 151.173C720.311 149.136 720.464 146.686 721.797 143.821C722.397 142.532 723.07 141.156 723.816 139.695C724.585 138.186 725.408 136.557 726.288 134.809C727.247 133.032 728.254 131.078 729.312 128.948C730.391 126.771 731.553 124.345 732.797 121.671L730.052 120.781C729.595 120.632 729.098 120.498 728.561 120.379C728.046 120.212 727.492 120.06 726.898 119.922C727.088 119.654 727.239 119.401 727.35 119.162C727.54 118.894 727.702 118.617 727.836 118.331C727.947 118.092 728.029 117.844 728.083 117.587C728.194 117.348 728.277 117.1 728.331 116.843C730.838 117.821 732.691 118.505 733.892 118.894C734.279 117.921 734.778 116.709 735.387 115.258C736.054 113.825 736.685 112.327 737.282 110.762L745.568 110.565L745.997 110.704Z" fill="#FBFAF7"/>
<path d="M766.182 114.207C766.687 113.218 767.544 112.52 768.751 112.115C769.959 111.71 771.155 111.718 772.34 112.14C773.525 112.562 774.361 113.277 774.846 114.285C775.332 115.293 775.322 116.292 774.816 117.282C774.311 118.271 773.454 118.969 772.247 119.374C771.039 119.779 769.843 119.771 768.658 119.349C767.473 118.927 766.638 118.212 766.152 117.204C765.667 116.196 765.677 115.197 766.182 114.207ZM754.335 140.143C755.418 138.023 756.492 135.788 757.559 133.439C758.706 131.063 759.656 128.812 760.408 126.686C761.868 127.484 763.078 128.054 764.037 128.395C764.996 128.737 766.326 129.071 768.027 129.398C766.71 131.324 765.393 133.444 764.077 135.76C762.841 138.049 761.682 140.253 760.599 142.373L756.844 149.723C755.761 151.844 754.646 154.092 753.499 156.468C752.433 158.817 751.559 160.984 750.879 162.969C749.629 162.412 748.383 161.913 747.142 161.471C745.9 161.029 744.606 160.624 743.26 160.256C744.505 158.472 745.746 156.436 746.981 154.147C748.298 151.831 749.497 149.613 750.58 147.493L754.335 140.143Z" fill="#FBFAF7"/>
<path d="M796.641 159.615C795.542 159.511 794.304 159.294 792.928 158.963C791.606 158.655 790.244 158.359 788.841 158.075C787.464 157.744 786.048 157.483 784.591 157.291C783.189 157.121 781.831 157.111 780.516 157.261C779.256 157.434 778.081 157.812 776.992 158.395C775.957 159 775.065 159.948 774.314 161.238C773.055 163.404 772.848 165.342 773.695 167.052C774.542 168.762 775.876 169.986 777.697 170.725C779.794 171.575 781.979 171.863 784.253 171.589C786.582 171.338 788.59 170.757 790.279 169.848L796.641 159.615ZM783.351 139.022C786.746 138.462 789.652 138.331 792.071 138.629C794.49 138.926 796.803 139.522 799.01 140.417C800.997 141.223 802.671 142.215 804.032 143.393C805.419 144.525 806.424 145.787 807.047 147.178C807.697 148.524 807.978 149.976 807.889 151.534C807.828 153.047 807.355 154.564 806.47 156.084C804.943 158.71 803.36 161.314 801.721 163.896C800.11 166.431 798.46 169.15 796.771 172.053C796.45 172.606 796.101 173.205 795.726 173.85C795.433 174.471 795.249 175.08 795.175 175.677C795.128 176.227 795.203 176.742 795.402 177.221C795.656 177.722 796.197 178.141 797.025 178.477C797.301 178.589 797.576 178.7 797.852 178.812C798.21 178.901 798.567 178.931 798.924 178.905L798.039 180.426C797.298 180.41 796.418 180.281 795.4 180.039C794.436 179.819 793.403 179.485 792.299 179.038C790.533 178.321 789.396 177.405 788.886 176.287C788.404 175.123 788.428 173.909 788.959 172.644C786.008 173.497 783.338 173.923 780.951 173.923C778.564 173.923 775.963 173.353 773.149 172.212C771.769 171.652 770.511 170.943 769.374 170.083C768.237 169.223 767.359 168.212 766.739 167.05C766.175 165.91 765.856 164.699 765.783 163.417C765.793 162.111 766.186 160.79 766.964 159.453C768.572 156.689 770.839 154.96 773.765 154.268C776.747 153.598 780.206 153.748 784.144 154.718C787.365 155.512 789.884 156.106 791.7 156.501C793.599 156.872 795.028 157.053 795.988 157.044C797.004 157.057 797.715 156.89 798.121 156.542C798.555 156.149 798.973 155.606 799.375 154.915C800.045 153.763 800.523 152.59 800.808 151.396C801.094 150.202 801.105 149.068 800.844 147.994C800.582 146.92 800.005 145.917 799.115 144.987C798.25 144.01 796.991 143.186 795.335 142.515C793.128 141.619 790.817 141.195 788.403 141.241C786.044 141.309 783.967 141.891 782.171 142.985L781.26 142.615L783.351 139.022Z" fill="#FBFAF7"/>
</svg>
