<svg width="1440" height="1584" viewBox="0 0 1440 1584" fill="none" xmlns="http://www.w3.org/2000/svg">
<path d="M720 16C-39.9438 16 -656 518.56 -656 1138.5C-656 1241.31 -506.235 1043.9 -474.5 1138.5C-474.5 1138.5 -2 1558 720 1558C1442 1558 2039 1051.5 2039 1051.5C2070.74 956.9 2096 1241.31 2096 1138.5C2096 518.56 1479.94 16 720 16Z" fill="#F1EFE9"/>
<path d="M2100.19 1135.68C2097.44 1135.06 2093.29 1131.78 2088.02 1126.37L2089.46 1124.98C2086.42 1121.86 2082.98 1118.01 2079.21 1113.52L2077.68 1114.81C2074.65 1111.2 2071.4 1107.2 2067.98 1102.85L2069.55 1101.62C2066.56 1097.82 2063.42 1093.75 2060.17 1089.46L2058.57 1090.67C2055.58 1086.73 2052.5 1082.6 2049.32 1078.32L2050.93 1077.13C2047.96 1073.11 2044.91 1068.96 2041.81 1064.69L2040.19 1065.87C2037.22 1061.79 2034.2 1057.61 2031.14 1053.35L2032.76 1052.18C2029.8 1048.07 2026.8 1043.88 2023.77 1039.63L2022.14 1040.79C2019.19 1036.64 2016.2 1032.44 2013.19 1028.2L2014.82 1027.04C2013.09 1024.6 2011.34 1022.14 2009.6 1019.66C2008.37 1017.93 2007.14 1016.2 2005.91 1014.46L2004.28 1015.61C2001.33 1011.43 1998.36 1007.23 1995.38 1003.02L1997.02 1001.87C1994.05 997.668 1991.08 993.46 1988.11 989.259L1986.48 990.414C1983.5 986.199 1980.53 981.993 1977.56 977.81L1979.19 976.653C1976.2 972.429 1973.22 968.228 1970.25 964.066L1968.62 965.226C1965.61 960.997 1962.62 956.808 1959.66 952.678L1961.29 951.512C1958.25 947.277 1955.24 943.102 1952.27 939.005L1950.65 940.178C1947.58 935.94 1944.55 931.786 1941.58 927.736L1943.19 926.552C1940.07 922.298 1937 918.158 1934 914.155L1932.4 915.354C1929.21 911.088 1926.09 906.98 1923.08 903.056L1924.66 901.837C1921.35 897.529 1918.14 893.441 1915.07 889.612L1913.51 890.863C1910.03 886.525 1906.73 882.522 1903.62 878.908L1905.14 877.605C1901.39 873.241 1897.91 869.423 1894.76 866.254L1893.34 867.663C1888.31 862.599 1884.17 859.256 1881.12 858.034L1881.86 856.178C1880.14 855.487 1878.23 855.18 1876.53 856.039C1874.8 856.915 1873.93 858.671 1873.54 860.602C1873.04 863.06 1872.53 865.513 1872.02 867.96L1873.98 868.372C1872.94 873.275 1871.88 878.157 1870.79 883.015L1868.84 882.576C1867.74 887.425 1866.62 892.252 1865.47 897.056L1867.41 897.523C1866.24 902.386 1865.04 907.225 1863.81 912.041L1861.88 911.545C1860.64 916.386 1859.37 921.203 1858.06 925.996L1859.99 926.521C1858.69 931.324 1857.35 936.103 1855.98 940.858L1854.06 940.305C1852.68 945.105 1851.26 949.881 1849.81 954.633L1851.73 955.217C1850.27 959.999 1848.77 964.757 1847.25 969.491L1845.34 968.877C1843.82 973.6 1842.26 978.299 1840.67 982.972L1842.57 983.616C1840.95 988.361 1839.3 993.08 1837.62 997.774L1835.74 997.098C1834.05 1001.79 1832.34 1006.45 1830.58 1011.09L1832.46 1011.8C1830.7 1016.45 1828.9 1021.08 1827.07 1025.69L1825.21 1024.95C1823.37 1029.59 1821.49 1034.21 1819.57 1038.8L1821.42 1039.57C1819.49 1044.17 1817.54 1048.75 1815.54 1053.3L1813.71 1052.49C1811.71 1057.05 1809.68 1061.58 1807.61 1066.08L1809.43 1066.92C1807.34 1071.46 1805.21 1075.97 1803.05 1080.46L1801.25 1079.59C1799.09 1084.07 1796.9 1088.52 1794.67 1092.94L1796.45 1093.84C1794.2 1098.3 1791.92 1102.72 1789.59 1107.13L1787.82 1106.19C1785.5 1110.59 1783.13 1114.97 1780.73 1119.31L1782.48 1120.28C1780.08 1124.64 1777.63 1128.96 1775.15 1133.26L1773.41 1132.26C1770.92 1136.58 1768.39 1140.86 1765.82 1145.12L1767.54 1146.15C1764.96 1150.42 1762.35 1154.66 1759.69 1158.87L1758 1157.8C1755.35 1162.01 1752.66 1166.18 1749.94 1170.33L1751.61 1171.42C1748.87 1175.59 1746.09 1179.73 1743.27 1183.83L1741.62 1182.7C1738.81 1186.8 1735.96 1190.87 1733.07 1194.91L1734.7 1196.07C1731.8 1200.12 1728.86 1204.14 1725.88 1208.13L1724.28 1206.94C1721.31 1210.92 1718.3 1214.87 1715.25 1218.79L1716.82 1220.02C1713.77 1223.95 1710.67 1227.86 1707.53 1231.73L1705.98 1230.47C1702.85 1234.33 1699.69 1238.15 1696.49 1241.95L1698.02 1243.24C1694.81 1247.04 1691.56 1250.82 1688.27 1254.57L1686.77 1253.25C1683.49 1256.98 1680.17 1260.68 1676.82 1264.35L1678.29 1265.7C1674.94 1269.37 1671.55 1273.01 1668.11 1276.62L1666.66 1275.24C1663.24 1278.84 1659.78 1282.41 1656.27 1285.95L1657.7 1287.36C1654.2 1290.89 1650.66 1294.39 1647.09 1297.87L1645.7 1296.43C1642.14 1299.89 1638.55 1303.31 1634.91 1306.71L1636.28 1308.17C1632.64 1311.57 1628.95 1314.94 1625.23 1318.29L1623.9 1316.8C1620.22 1320.11 1616.5 1323.38 1612.75 1326.63L1614.05 1328.14C1610.29 1331.39 1606.49 1334.62 1602.65 1337.81L1601.38 1336.27C1597.55 1339.45 1593.69 1342.6 1589.8 1345.72L1591.05 1347.28C1587.18 1350.37 1583.28 1353.44 1579.33 1356.48L1578.11 1354.89C1574.18 1357.92 1570.21 1360.92 1566.2 1363.89L1567.39 1365.5C1563.4 1368.46 1559.37 1371.39 1555.3 1374.3L1554.14 1372.67C1550.11 1375.54 1546.06 1378.38 1541.96 1381.19L1543.09 1382.84C1538.99 1385.66 1534.84 1388.45 1530.66 1391.21L1529.56 1389.55C1525.43 1392.28 1521.27 1394.98 1517.06 1397.65L1518.14 1399.34C1513.96 1402 1509.74 1404.63 1505.49 1407.23L1504.45 1405.53C1500.21 1408.13 1495.93 1410.7 1491.61 1413.24L1492.63 1414.97C1488.36 1417.48 1484.07 1419.97 1479.73 1422.43L1478.74 1420.69C1474.44 1423.13 1470.11 1425.54 1465.74 1427.93L1466.7 1429.69C1462.32 1432.08 1457.9 1434.45 1453.46 1436.79L1452.52 1435.02C1448.16 1437.31 1443.76 1439.58 1439.33 1441.82L1440.23 1443.61C1435.81 1445.85 1431.36 1448.06 1426.87 1450.24L1425.99 1448.45C1421.51 1450.63 1417 1452.78 1412.45 1454.91L1413.3 1456.72C1408.83 1458.82 1404.32 1460.89 1399.79 1462.94L1398.97 1461.11C1394.46 1463.14 1389.92 1465.15 1385.35 1467.13L1386.14 1468.97C1381.56 1470.95 1376.95 1472.91 1372.31 1474.85L1371.54 1473C1366.98 1474.9 1362.4 1476.78 1357.79 1478.62L1358.53 1480.48C1353.94 1482.32 1349.31 1484.14 1344.66 1485.93L1343.94 1484.07C1339.29 1485.86 1334.62 1487.62 1329.91 1489.37L1330.6 1491.24C1325.96 1492.96 1321.28 1494.65 1316.58 1496.33L1315.91 1494.44C1311.26 1496.09 1306.59 1497.72 1301.88 1499.33L1302.53 1501.22C1297.81 1502.83 1293.07 1504.42 1288.29 1505.98L1287.67 1504.08C1282.96 1505.63 1278.21 1507.15 1273.44 1508.65L1274.03 1510.56C1269.33 1512.03 1264.6 1513.49 1259.84 1514.92L1259.27 1513.01C1254.51 1514.44 1249.73 1515.85 1244.93 1517.24L1245.48 1519.16C1240.68 1520.55 1235.84 1521.92 1230.98 1523.26L1230.45 1521.33C1225.72 1522.64 1220.96 1523.93 1216.18 1525.19L1216.69 1527.13C1211.9 1528.4 1207.08 1529.64 1202.24 1530.87L1201.75 1528.93C1196.91 1530.16 1192.05 1531.36 1187.15 1532.55L1187.62 1534.49C1182.82 1535.65 1177.99 1536.79 1173.13 1537.92L1172.68 1535.97C1167.88 1537.08 1163.05 1538.17 1158.2 1539.24L1158.63 1541.19C1153.77 1542.27 1148.88 1543.32 1143.97 1544.35L1143.55 1542.39C1138.67 1543.42 1133.77 1544.43 1128.83 1545.42L1129.23 1547.38C1124.41 1548.34 1119.56 1549.29 1114.69 1550.22L1114.32 1548.25C1109.46 1549.18 1104.57 1550.08 1099.66 1550.97L1100.02 1552.94C1095.1 1553.83 1090.16 1554.7 1085.19 1555.55L1084.85 1553.58C1079.98 1554.42 1075.08 1555.24 1070.15 1556.04L1070.47 1558.01C1065.61 1558.81 1060.72 1559.58 1055.81 1560.33L1055.5 1558.36C1050.6 1559.11 1045.67 1559.85 1040.71 1560.57L1041 1562.55C1036.04 1563.27 1031.06 1563.97 1026.06 1564.65L1025.79 1562.67C1020.91 1563.34 1016.02 1563.99 1011.1 1564.62L1011.36 1566.6C1006.46 1567.23 1001.54 1567.85 996.595 1568.44L996.355 1566.46C991.417 1567.05 986.457 1567.63 981.475 1568.19L981.699 1570.18C976.716 1570.74 971.712 1571.29 966.685 1571.82L966.476 1569.83C961.6 1570.34 956.704 1570.84 951.786 1571.32L951.981 1573.31C947.059 1573.79 942.116 1574.25 937.153 1574.7L936.973 1572.71C932.014 1573.16 927.035 1573.59 922.035 1574.01L922.201 1576C917.208 1576.41 912.195 1576.81 907.161 1577.2L907.009 1575.2C902.119 1575.57 897.208 1575.93 892.278 1576.27L892.417 1578.27C887.482 1578.61 882.529 1578.94 877.555 1579.25L877.43 1577.25C872.461 1577.57 867.472 1577.86 862.464 1578.14L862.576 1580.14C857.565 1580.42 852.535 1580.69 847.485 1580.94L847.386 1578.94C842.489 1579.18 837.574 1579.41 832.64 1579.63L832.727 1581.62C827.789 1581.84 822.832 1582.04 817.857 1582.22L817.783 1580.23C812.812 1580.41 807.822 1580.58 802.814 1580.74L802.876 1582.74C797.864 1582.89 792.833 1583.04 787.784 1583.16L787.734 1581.16C782.812 1581.29 777.872 1581.4 772.915 1581.49L772.954 1583.49C768.02 1583.59 763.068 1583.67 758.099 1583.74L758.071 1581.74C753.106 1581.81 748.122 1581.87 743.122 1581.91L743.138 1583.91C738.134 1583.95 733.112 1583.98 728.073 1583.99L728.067 1581.99C725.549 1582 723.027 1582 720.5 1582C719.097 1582 717.696 1582 716.297 1582C715.145 1582 713.994 1581.99 712.845 1581.99L712.839 1583.99C707.744 1583.98 702.669 1583.95 697.615 1583.91L697.631 1581.91C692.581 1581.87 687.552 1581.82 682.544 1581.75L682.517 1583.75C677.506 1583.68 672.515 1583.6 667.545 1583.51L667.583 1581.51C662.553 1581.41 657.545 1581.31 652.558 1581.18L652.509 1583.18C647.409 1583.06 642.332 1582.92 637.277 1582.77L637.337 1580.77C632.286 1580.62 627.257 1580.45 622.25 1580.27L622.178 1582.27C617.167 1582.08 612.179 1581.89 607.212 1581.68L607.297 1579.68C602.269 1579.47 597.264 1579.24 592.281 1579L592.184 1581C587.09 1580.75 582.019 1580.49 576.972 1580.21L577.081 1578.22C572.038 1577.94 567.018 1577.65 562.022 1577.34L561.9 1579.34C556.899 1579.03 551.922 1578.71 546.967 1578.37L547.103 1576.38C542.064 1576.03 537.048 1575.67 532.057 1575.3L531.907 1577.3C526.829 1576.91 521.775 1576.52 516.746 1576.11L516.909 1574.11C511.885 1573.7 506.885 1573.27 501.91 1572.83L501.732 1574.82C496.752 1574.38 491.796 1573.91 486.865 1573.44L487.058 1571.45C481.995 1570.96 476.959 1570.45 471.949 1569.93L471.741 1571.92C466.69 1571.39 461.665 1570.85 456.666 1570.29L456.889 1568.3C451.895 1567.74 446.927 1567.16 441.985 1566.57L441.746 1568.55C436.766 1567.95 431.812 1567.34 426.884 1566.7L427.139 1564.72C422.08 1564.07 417.048 1563.4 412.043 1562.71L411.771 1564.7C406.761 1564.01 401.778 1563.3 396.823 1562.58L397.112 1560.6C392.162 1559.88 387.239 1559.14 382.344 1558.38L382.037 1560.36C377.017 1559.58 372.025 1558.78 367.061 1557.96L367.386 1555.99C362.38 1555.17 357.403 1554.33 352.455 1553.47L352.112 1555.44C347.158 1554.57 342.232 1553.69 337.335 1552.79L337.697 1550.83C332.749 1549.92 327.83 1548.99 322.941 1548.04L322.56 1550C317.558 1549.03 312.585 1548.04 307.643 1547.03L308.044 1545.07C303.109 1544.06 298.204 1543.03 293.328 1541.98L292.907 1543.94C288.011 1542.88 283.145 1541.81 278.309 1540.71L278.751 1538.76C273.777 1537.63 268.835 1536.48 263.924 1535.31L263.461 1537.26C258.543 1536.09 253.658 1534.9 248.803 1533.68L249.289 1531.74C244.442 1530.53 239.626 1529.29 234.843 1528.04L234.335 1529.97C229.399 1528.68 224.496 1527.36 219.627 1526.02L220.158 1524.09C215.286 1522.75 210.449 1521.39 205.644 1520L205.089 1521.92C200.276 1520.53 195.497 1519.12 190.75 1517.69L191.328 1515.77C186.459 1514.3 181.625 1512.81 176.824 1511.29L176.221 1513.2C171.396 1511.67 166.606 1510.12 161.85 1508.55L162.479 1506.65C157.731 1505.08 153.018 1503.48 148.339 1501.86L147.685 1503.75C142.87 1502.09 138.09 1500.39 133.346 1498.68L134.026 1496.8C129.281 1495.08 124.572 1493.34 119.898 1491.57L119.191 1493.44C114.502 1491.67 109.849 1489.87 105.232 1488.05L105.967 1486.19C101.235 1484.32 96.5417 1482.42 91.8854 1480.5L91.1227 1482.35C86.457 1480.43 81.8286 1478.48 77.2373 1476.5L78.0285 1474.66C73.4164 1472.67 68.8419 1470.66 64.3048 1468.62L63.4848 1470.45C58.8491 1468.36 54.2522 1466.25 49.6938 1464.11L50.5433 1462.3C45.9948 1460.17 41.4848 1458.01 37.013 1455.82L36.1337 1457.61C31.5948 1455.39 27.0953 1453.14 22.6346 1450.86L23.5442 1449.08C19.043 1446.78 14.5817 1444.46 10.1599 1442.1L9.2196 1443.87C4.78754 1441.51 0.394958 1439.12 -3.95844 1436.7L-2.9873 1434.95C-7.41278 1432.49 -11.7976 1430 -16.142 1427.49L-17.1446 1429.22C-21.5122 1426.69 -25.8392 1424.13 -30.1259 1421.54L-29.0917 1419.83C-33.3896 1417.23 -37.6468 1414.6 -41.8636 1411.95L-42.9294 1413.64C-47.2172 1410.94 -51.4634 1408.21 -55.6684 1405.45L-54.5706 1403.78C-58.765 1401.02 -62.9182 1398.24 -67.0306 1395.42L-68.1603 1397.07C-72.332 1394.22 -76.4619 1391.33 -80.5504 1388.41L-79.3885 1386.78C-83.4861 1383.86 -87.5419 1380.9 -91.5562 1377.92L-92.75 1379.52C-96.7858 1376.52 -100.78 1373.48 -104.732 1370.42L-103.507 1368.84C-107.493 1365.75 -111.437 1362.62 -115.339 1359.47L-116.596 1361.02C-120.509 1357.86 -124.379 1354.67 -128.208 1351.44L-126.919 1349.91C-130.768 1346.67 -134.574 1343.39 -138.339 1340.08L-139.659 1341.59C-143.446 1338.26 -147.19 1334.9 -150.893 1331.51L-149.542 1330.04C-153.243 1326.65 -156.901 1323.23 -160.519 1319.77L-161.9 1321.22C-165.548 1317.74 -169.154 1314.22 -172.719 1310.67L-171.308 1309.26C-174.863 1305.72 -178.377 1302.15 -181.849 1298.54L-183.289 1299.93C-186.786 1296.3 -190.241 1292.64 -193.654 1288.95L-192.186 1287.59C-195.593 1283.91 -198.959 1280.19 -202.284 1276.44L-203.781 1277.77C-207.118 1274 -210.414 1270.21 -213.67 1266.38L-212.147 1265.08C-215.398 1261.26 -218.608 1257.4 -221.779 1253.52L-223.329 1254.78C-226.508 1250.88 -229.647 1246.95 -232.746 1242.99L-231.17 1241.76C-234.259 1237.81 -237.308 1233.83 -240.317 1229.82L-241.917 1231.02C-244.935 1226.99 -247.913 1222.94 -250.853 1218.85L-249.229 1217.68C-252.155 1213.61 -255.042 1209.51 -257.891 1205.38L-259.537 1206.52C-262.389 1202.38 -265.203 1198.21 -267.98 1194.01L-266.311 1192.91C-269.078 1188.73 -271.806 1184.51 -274.498 1180.26L-276.187 1181.33C-278.872 1177.1 -281.52 1172.83 -284.131 1168.53L-282.422 1167.49C-285.027 1163.21 -287.595 1158.89 -290.127 1154.54L-291.855 1155.54C-294.379 1151.21 -296.866 1146.85 -299.318 1142.45L-297.572 1141.48C-300.013 1137.1 -302.418 1132.7 -304.789 1128.26L-306.552 1129.21C-308.922 1124.78 -311.257 1120.31 -313.558 1115.82L-311.778 1114.91C-314.056 1110.46 -316.301 1105.98 -318.512 1101.48L-320.308 1102.36C-322.524 1097.84 -324.707 1093.3 -326.856 1088.72L-325.046 1087.87C-327.171 1083.35 -329.264 1078.8 -331.324 1074.22L-333.148 1075.04C-335.207 1070.47 -337.235 1065.86 -339.231 1061.23L-337.394 1060.44C-339.379 1055.83 -341.332 1051.2 -343.254 1046.54L-345.103 1047.3C-347.01 1042.68 -348.887 1038.03 -350.734 1033.35L-348.873 1032.61C-350.716 1027.94 -352.529 1023.25 -354.312 1018.52L-356.184 1019.23C-357.951 1014.55 -359.69 1009.84 -361.4 1005.1L-359.519 1004.42C-361.218 999.718 -362.889 994.986 -364.532 990.228L-366.423 990.88C-368.065 986.123 -369.68 981.34 -371.267 976.532L-369.367 975.905C-370.929 971.172 -372.464 966.413 -373.972 961.63L-375.88 962.231C-377.391 957.439 -378.875 952.622 -380.333 947.781L-378.418 947.204C-379.146 944.788 -379.867 942.365 -380.581 939.936C-381.592 936.501 -383.617 934.111 -386.652 933.047L-387.314 934.934C-390.756 933.728 -395.702 934.736 -401.865 937.535L-402.692 935.714C-406.784 937.573 -411.35 940.176 -416.303 943.387L-415.215 945.065C-419.092 947.578 -423.236 950.485 -427.608 953.731L-428.8 952.125C-432.673 955 -436.72 958.135 -440.915 961.492L-439.665 963.053C-443.473 966.101 -447.407 969.335 -451.447 972.726L-452.733 971.194C-456.515 974.369 -460.389 977.681 -464.338 981.106L-463.028 982.617C-466.777 985.868 -470.595 989.222 -474.469 992.659L-475.796 991.163C-479.535 994.48 -483.325 997.874 -487.153 1001.33L-485.813 1002.81C-489.54 1006.17 -493.303 1009.59 -497.093 1013.05L-498.441 1011.57C-502.167 1014.97 -505.917 1018.4 -509.682 1021.86L-508.329 1023.33C-512.054 1026.75 -515.793 1030.2 -519.536 1033.65L-520.891 1032.18C-523.027 1034.15 -525.165 1036.12 -527.301 1038.09C-528.896 1039.56 -530.49 1041.03 -532.082 1042.5L-530.726 1043.97C-534.465 1047.41 -538.197 1050.85 -541.911 1054.27L-543.265 1052.79C-547.028 1056.25 -550.773 1059.69 -554.487 1063.08L-553.139 1064.56C-556.932 1068.02 -560.695 1071.44 -564.416 1074.8L-565.756 1073.32C-569.584 1076.77 -573.366 1080.17 -577.09 1083.48L-575.761 1084.97C-579.641 1088.42 -583.46 1091.78 -587.201 1095.03L-588.512 1093.52C-592.453 1096.94 -596.307 1100.24 -600.058 1103.4L-598.771 1104.93C-602.812 1108.32 -606.735 1111.55 -610.518 1114.57L-611.767 1113.01C-615.93 1116.34 -619.919 1119.42 -623.706 1122.21L-622.519 1123.82C-627.037 1127.15 -631.277 1130.07 -635.192 1132.53L-636.255 1130.84C-641.265 1133.98 -645.659 1136.29 -649.358 1137.68L-648.656 1139.55C-655.297 1142.04 -660.038 1141.78 -662.367 1138.01L-660.666 1136.95C-661.464 1135.66 -662 1133.61 -662 1130.5C-662 1127.99 -661.99 1125.48 -661.97 1122.98L-663.97 1122.96C-663.93 1117.94 -663.85 1112.93 -663.73 1107.92L-661.73 1107.97C-661.61 1102.98 -661.451 1097.99 -661.252 1093.01L-663.25 1092.93C-663.051 1087.95 -662.812 1082.96 -662.534 1077.99L-660.537 1078.1C-660.257 1073.11 -659.938 1068.13 -659.58 1063.16L-661.575 1063.01C-661.214 1058.01 -660.814 1053.02 -660.374 1048.04L-658.382 1048.21C-657.943 1043.24 -657.464 1038.27 -656.947 1033.32L-658.936 1033.11C-658.417 1028.14 -657.859 1023.19 -657.262 1018.24L-655.277 1018.48C-654.677 1013.52 -654.039 1008.56 -653.361 1003.62L-655.343 1003.35C-654.663 998.382 -653.943 993.429 -653.185 988.485L-651.208 988.789C-650.451 983.856 -649.655 978.933 -648.821 974.02L-650.792 973.685C-649.956 968.762 -649.081 963.848 -648.167 958.945L-646.201 959.312C-645.285 954.397 -644.33 949.493 -643.337 944.599L-645.297 944.201C-644.301 939.296 -643.267 934.401 -642.194 929.518L-640.24 929.947C-639.17 925.074 -638.061 920.211 -636.914 915.36L-638.861 914.9C-637.711 910.036 -636.523 905.184 -635.297 900.343L-633.358 900.834C-632.132 895.992 -630.869 891.162 -629.567 886.343L-631.498 885.821C-630.193 880.992 -628.851 876.175 -627.471 871.369L-625.549 871.921C-624.172 867.126 -622.758 862.342 -621.306 857.57L-623.22 856.988C-621.765 852.205 -620.273 847.434 -618.743 842.675L-616.839 843.287C-615.312 838.536 -613.749 833.798 -612.148 829.071L-614.043 828.43C-612.439 823.694 -610.798 818.97 -609.121 814.259L-607.237 814.93C-605.564 810.229 -603.854 805.54 -602.107 800.865L-603.981 800.165C-602.232 795.482 -600.447 790.813 -598.626 786.157L-596.764 786.885C-594.947 782.24 -593.095 777.608 -591.207 772.99L-593.059 772.233C-591.167 767.605 -589.24 762.991 -587.277 758.39L-585.437 759.174C-583.479 754.583 -581.485 750.004 -579.455 745.44L-581.283 744.627C-579.254 740.063 -577.19 735.513 -575.092 730.976L-573.276 731.816C-571.183 727.291 -569.055 722.779 -566.893 718.282L-568.696 717.416C-566.529 712.91 -564.328 708.418 -562.093 703.94L-560.304 704.833C-558.073 700.364 -555.808 695.91 -553.51 691.47L-555.286 690.55C-552.992 686.119 -550.665 681.702 -548.304 677.3L-546.541 678.246C-544.185 673.852 -541.796 669.474 -539.373 665.11L-541.122 664.139C-538.695 659.767 -536.234 655.409 -533.741 651.067L-532.007 652.063C-529.521 647.732 -527.002 643.417 -524.451 639.117L-526.171 638.097C-523.626 633.807 -521.049 629.533 -518.439 625.274L-516.734 626.318C-514.13 622.067 -511.493 617.831 -508.826 613.611L-510.516 612.542C-507.843 608.314 -505.139 604.101 -502.402 599.904L-500.727 600.996C-498.002 596.816 -495.245 592.651 -492.458 588.503L-494.118 587.387C-491.337 583.248 -488.525 579.124 -485.683 575.016L-484.038 576.154C-481.201 572.054 -478.333 567.97 -475.435 563.902L-477.064 562.741C-474.16 558.666 -471.227 554.606 -468.263 550.563L-466.65 551.746C-463.702 547.724 -460.723 543.718 -457.716 539.729L-459.313 538.525C-456.311 534.543 -453.28 530.578 -450.219 526.629L-448.638 527.854C-445.583 523.912 -442.499 519.987 -439.386 516.079L-440.951 514.833C-437.832 510.917 -434.685 507.018 -431.509 503.137L-429.961 504.403C-426.805 500.546 -423.621 496.706 -420.409 492.882L-421.94 491.596C-418.733 487.778 -415.497 483.977 -412.234 480.193L-410.72 481.499C-407.462 477.722 -404.177 473.962 -400.864 470.219L-402.362 468.893C-399.043 465.144 -395.697 461.412 -392.324 457.697L-390.844 459.041C-387.495 455.354 -384.12 451.684 -380.718 448.031L-382.182 446.668C-378.784 443.019 -375.359 439.388 -371.908 435.774L-370.461 437.155C-367.016 433.547 -363.544 429.957 -360.047 426.384L-361.476 424.985C-357.972 421.406 -354.443 417.845 -350.887 414.303L-349.476 415.719C-345.949 412.205 -342.397 408.708 -338.819 405.229L-340.213 403.795C-336.639 400.319 -333.039 396.861 -329.414 393.421L-328.037 394.872C-324.419 391.437 -320.775 388.021 -317.106 384.622L-318.466 383.155C-314.791 379.751 -311.092 376.365 -307.369 372.998L-306.027 374.481C-302.335 371.142 -298.619 367.821 -294.878 364.519L-296.202 363.019C-292.465 359.719 -288.704 356.438 -284.92 353.174L-283.614 354.689C-279.835 351.431 -276.033 348.191 -272.207 344.97L-273.496 343.44C-269.664 340.213 -265.809 337.006 -261.931 333.817L-260.661 335.362C-256.815 332.199 -252.947 329.055 -249.056 325.93L-250.309 324.371C-246.422 321.249 -242.513 318.146 -238.582 315.062L-237.347 316.636C-233.422 313.556 -229.475 310.495 -225.505 307.454L-226.722 305.866C-222.746 302.82 -218.749 299.792 -214.73 296.784L-213.531 298.385C-209.543 295.4 -205.534 292.434 -201.503 289.487L-202.684 287.873C-198.661 284.932 -194.616 282.009 -190.551 279.106L-189.389 280.733C-185.329 277.834 -181.249 274.954 -177.148 272.094L-178.292 270.453C-174.185 267.588 -170.057 264.743 -165.909 261.917L-164.783 263.569C-160.663 260.763 -156.523 257.975 -152.363 255.207L-153.471 253.542C-149.323 250.782 -145.155 248.042 -140.967 245.32L-139.877 246.997C-135.696 244.28 -131.494 241.582 -127.274 238.904L-128.345 237.215C-124.118 234.533 -119.872 231.87 -115.606 229.227L-114.553 230.927C-110.31 228.299 -106.049 225.69 -101.769 223.101L-102.804 221.39C-98.5424 218.812 -94.2623 216.254 -89.9636 213.715L-88.9467 215.438C-84.6541 212.903 -80.343 210.388 -76.0134 207.892L-77.0121 206.159C-72.6766 203.661 -68.3226 201.182 -63.9505 198.723L-62.97 200.466C-58.6141 198.016 -54.24 195.586 -49.848 193.176L-50.8102 191.422C-46.4462 189.027 -42.0646 186.652 -37.6655 184.297L-36.7216 186.061C-32.3286 183.709 -27.9182 181.377 -23.4906 179.065L-24.4163 177.292C-19.9827 174.977 -15.5317 172.682 -11.0638 170.407L-10.1564 172.19C-5.6947 169.918 -1.21594 167.667 3.2796 165.436L2.3905 163.644C6.84692 161.432 11.3199 159.241 15.8091 157.069L16.68 158.87C21.1632 156.701 25.6627 154.553 30.1783 152.424L29.3257 150.615C33.8474 148.484 38.3853 146.373 42.939 144.283L43.7734 146.1C48.3211 144.013 52.8848 141.946 57.4641 139.899L56.6481 138.073C61.1994 136.039 65.7664 134.025 70.3486 132.032L71.1464 133.866C75.7101 131.88 80.2892 129.915 84.8833 127.971L84.1037 126.129C88.7039 124.182 93.3191 122.255 97.9492 120.349L98.7106 122.198C103.335 120.294 107.974 118.411 112.627 116.549L111.884 114.692C116.524 112.835 121.178 110.999 125.847 109.184L126.572 111.048C131.207 109.246 135.856 107.464 140.52 105.702L139.813 103.831C144.482 102.068 149.166 100.325 153.863 98.6026L154.552 100.48C159.243 98.7604 163.948 97.0612 168.667 95.3828L167.997 93.4985C172.719 91.8191 177.455 90.1606 182.204 88.5231L182.856 90.4139C187.553 88.7942 192.264 87.1951 196.988 85.6168L196.354 83.7198C201.084 82.1395 205.827 80.5799 210.583 79.0412L211.199 80.9441C215.949 79.4073 220.711 77.8915 225.487 76.3966L224.89 74.4879C229.671 72.9912 234.466 71.5155 239.273 70.061L239.852 71.9753C244.62 70.5325 249.401 69.1107 254.193 67.7098L253.632 65.7901C258.414 64.3924 263.208 63.0156 268.014 61.6597L268.557 63.5846C273.358 62.2305 278.17 60.8974 282.994 59.5854L282.469 57.6555C287.299 56.3418 292.14 55.0493 296.994 53.7781L297.501 55.7129C302.337 54.4461 307.185 53.2005 312.045 51.9762L311.556 50.0368C316.382 48.821 321.219 47.6262 326.067 46.4525L326.538 48.3963C331.38 47.2241 336.233 46.0729 341.098 44.943L340.645 42.9948C345.515 41.8635 350.396 40.7534 355.288 39.6646L355.723 41.6169C360.609 40.5295 365.505 39.4634 370.413 38.4188L369.996 36.4626C374.872 35.4247 379.759 34.408 384.656 33.4125L385.054 35.3724C389.93 34.3812 394.817 33.411 399.714 32.4622L399.333 30.4987C404.236 29.5487 409.148 28.62 414.071 27.7127L414.434 29.6796C419.35 28.7734 424.277 27.8886 429.213 27.0254L428.869 25.0553C433.802 24.1926 438.744 23.3514 443.697 22.5318L444.023 24.505C448.926 23.6936 453.838 22.9035 458.759 22.1346L458.45 20.1586C463.378 19.3888 468.314 18.6403 473.26 17.9133L473.551 19.8921C478.491 19.1659 483.44 18.4613 488.397 17.7781L488.125 15.7969C493.088 15.1129 498.061 14.4506 503.043 13.8099L503.298 15.7936C508.242 15.1578 513.194 14.5434 518.155 13.9506L517.918 11.9647C522.862 11.3738 527.815 10.8043 532.777 10.2563L532.996 12.2442C537.952 11.6968 542.915 11.1708 547.887 10.6665L547.686 8.67667C552.663 8.1717 557.649 7.68832 562.644 7.22665L562.828 9.21815C567.816 8.75703 572.812 8.31759 577.816 7.89995L577.65 5.90688C582.607 5.49314 587.573 5.10078 592.545 4.72991L592.694 6.72437C597.658 6.35417 602.629 6.0054 607.608 5.67818L607.476 3.68249C612.461 3.35488 617.453 3.04885 622.453 2.76451L622.566 4.76128C627.56 4.47727 632.56 4.21492 637.568 3.97435L637.472 1.97665C642.472 1.73649 647.479 1.518 652.492 1.3213L652.571 3.31976C657.536 3.12499 662.507 2.95161 667.485 2.79973L667.425 0.800661C672.409 0.648605 677.4 0.518078 682.397 0.40919L682.441 2.40872C687.432 2.29996 692.431 2.21281 697.435 2.14739L697.409 0.147557C702.42 0.0820591 707.437 0.0383109 712.46 0.0164229L712.469 2.0164C714.978 2.00547 717.488 2 720 2C722.512 2 725.022 2.00547 727.531 2.01641L727.54 0.0164242C732.563 0.0383131 737.58 0.0820623 742.591 0.147561L742.565 2.14739C747.57 2.21281 752.568 2.29996 757.56 2.40872L757.603 0.409198C762.601 0.518087 767.592 0.648615 772.576 0.800672L772.515 2.79974C777.493 2.95162 782.465 3.125 787.43 3.31978L787.508 1.32132C792.522 1.51801 797.528 1.7365 802.528 1.97667L802.432 3.97436C807.44 4.21493 812.441 4.47728 817.434 4.76129L817.548 2.76452C822.547 3.04887 827.539 3.3549 832.524 3.68251L832.393 5.67821C837.372 6.00543 842.343 6.3542 847.307 6.7244L847.455 4.72994C852.428 5.10081 857.393 5.49317 862.35 5.9069L862.184 7.89997C867.188 8.31762 872.184 8.75706 877.173 9.21819L877.357 7.22668C882.351 7.68835 887.337 8.17173 892.315 8.67671L892.113 10.6665C897.085 11.1709 902.049 11.6968 907.004 12.2442L907.224 10.2563C912.185 10.8043 917.138 11.3738 922.082 11.9647L921.845 13.9506C926.806 14.5435 931.759 15.1578 936.703 15.7936L936.958 13.81C941.939 14.4506 946.912 15.113 951.876 15.7969L951.603 17.7782C956.561 18.4613 961.51 19.166 966.449 19.8921L966.74 17.9134C971.686 18.6404 976.623 19.3888 981.55 20.1586L981.241 22.1346C986.162 22.9035 991.075 23.6937 995.977 24.5051L996.304 22.5319C1001.26 23.3515 1006.2 24.1927 1011.13 25.0553L1010.79 27.0254C1015.72 27.8887 1020.65 28.7734 1025.57 29.6796L1025.93 27.7128C1030.85 28.62 1035.76 29.5487 1040.67 30.4988L1040.29 32.4622C1045.18 33.4111 1050.07 34.3812 1054.95 35.3725L1055.34 33.4126C1060.24 34.408 1065.13 35.4248 1070 36.4627L1069.59 38.4189C1074.49 39.4635 1079.39 40.5295 1084.28 41.6169L1084.71 39.6647C1089.6 40.7534 1094.48 41.8636 1099.36 42.9949L1098.9 44.943C1103.77 46.073 1108.62 47.2242 1113.46 48.3964L1113.93 46.4526C1118.78 47.6263 1123.62 48.8211 1128.44 50.0368L1127.96 51.9762C1132.81 53.2006 1137.66 54.4462 1142.5 55.7129L1143.01 53.7782C1147.86 55.0494 1152.7 56.3419 1157.53 57.6555L1157.01 59.5854C1161.83 60.8974 1166.64 62.2306 1171.44 63.5847L1171.99 61.6598C1176.79 63.0156 1181.59 64.3925 1186.37 65.7902L1185.81 67.7099C1190.6 69.1107 1195.38 70.5326 1200.15 71.9753L1200.73 70.0611C1205.53 71.5156 1210.33 72.9913 1215.11 74.488L1214.51 76.3967C1219.29 77.8916 1224.05 79.4074 1228.8 80.9441L1229.42 79.0413C1234.17 80.58 1238.92 82.1395 1243.65 83.7199L1243.01 85.6168C1247.74 87.1952 1252.45 88.7943 1257.14 90.414L1257.8 88.5232C1262.55 90.1607 1267.28 91.8192 1272 93.4986L1271.33 95.3829C1276.05 97.0613 1280.76 98.7605 1285.45 100.48L1286.14 98.6027C1290.83 100.325 1295.52 102.068 1300.19 103.831L1299.48 105.702C1304.14 107.464 1308.79 109.246 1313.43 111.048L1314.15 109.184C1318.82 110.999 1323.48 112.836 1328.12 114.692L1327.37 116.549C1332.03 118.411 1336.67 120.295 1341.29 122.198L1342.05 120.349C1346.68 122.255 1351.3 124.182 1355.9 126.129L1355.12 127.971C1359.71 129.915 1364.29 131.88 1368.85 133.866L1369.65 132.032C1374.23 134.025 1378.8 136.039 1383.35 138.073L1382.54 139.899C1387.12 141.946 1391.68 144.013 1396.23 146.101L1397.06 144.283C1401.61 146.373 1406.15 148.484 1410.67 150.615L1409.82 152.424C1414.34 154.553 1418.84 156.701 1423.32 158.87L1424.19 157.069C1428.68 159.241 1433.15 161.433 1437.61 163.644L1436.72 165.436C1441.22 167.667 1445.7 169.918 1450.16 172.19L1451.06 170.407C1455.53 172.682 1459.98 174.977 1464.42 177.292L1463.49 179.065C1467.92 181.377 1472.33 183.709 1476.72 186.061L1477.67 184.298C1482.06 186.653 1486.45 189.028 1490.81 191.422L1489.85 193.176C1494.24 195.586 1498.61 198.016 1502.97 200.466L1503.95 198.723C1508.32 201.182 1512.68 203.661 1517.01 206.16L1516.01 207.893C1520.34 210.388 1524.65 212.903 1528.95 215.438L1529.96 213.716C1534.26 216.254 1538.54 218.812 1542.8 221.39L1541.77 223.101C1546.05 225.69 1550.31 228.299 1554.55 230.927L1555.61 229.227C1559.87 231.87 1564.12 234.533 1568.35 237.215L1567.27 238.904C1571.49 241.582 1575.7 244.28 1579.88 246.998L1580.97 245.321C1585.16 248.042 1589.32 250.783 1593.47 253.542L1592.36 255.208C1596.52 257.976 1600.66 260.763 1604.78 263.57L1605.91 261.917C1610.06 264.743 1614.19 267.589 1618.29 270.454L1617.15 272.094C1621.25 274.955 1625.33 277.835 1629.39 280.734L1630.55 279.106C1634.62 282.009 1638.66 284.932 1642.68 287.873L1641.5 289.488C1645.53 292.435 1649.54 295.401 1653.53 298.385L1654.73 296.784C1658.75 299.792 1662.75 302.82 1666.72 305.866L1665.51 307.454C1669.48 310.496 1673.42 313.556 1677.35 316.636L1678.58 315.062C1682.51 318.147 1686.42 321.25 1690.31 324.371L1689.06 325.93C1692.95 329.056 1696.82 332.2 1700.66 335.362L1701.93 333.817C1705.81 337.006 1709.66 340.214 1713.5 343.44L1712.21 344.97C1716.03 348.191 1719.84 351.431 1723.61 354.689L1724.92 353.175C1728.7 356.438 1732.47 359.72 1736.2 363.02L1734.88 364.519C1738.62 367.822 1742.34 371.143 1746.03 374.482L1747.37 372.998C1751.09 376.366 1754.79 379.751 1758.47 383.155L1757.11 384.622C1760.78 388.021 1764.42 391.438 1768.04 394.872L1769.41 393.422C1773.04 396.862 1776.64 400.32 1780.21 403.796L1778.82 405.23C1782.4 408.709 1785.95 412.205 1789.48 415.72L1790.89 414.303C1794.44 417.846 1797.97 421.407 1801.48 424.985L1800.05 426.384C1803.54 429.957 1807.02 433.547 1810.46 437.155L1811.91 435.774C1815.36 439.388 1818.78 443.02 1822.18 446.669L1820.72 448.032C1824.12 451.684 1827.5 455.354 1830.84 459.042L1832.32 457.697C1835.7 461.412 1839.04 465.144 1842.36 468.894L1840.86 470.219C1844.18 473.962 1847.46 477.723 1850.72 481.5L1852.23 480.194C1855.5 483.978 1858.73 487.778 1861.94 491.596L1860.41 492.883C1863.62 496.706 1866.81 500.546 1869.96 504.404L1871.51 503.137C1874.69 507.019 1877.83 510.918 1880.95 514.833L1879.39 516.079C1882.5 519.988 1885.58 523.913 1888.64 527.855L1890.22 526.63C1893.28 530.578 1896.31 534.544 1899.31 538.526L1897.72 539.729C1900.72 543.719 1903.7 547.724 1906.65 551.746L1908.26 550.564C1911.23 554.607 1914.16 558.666 1917.06 562.742L1915.44 563.902C1918.33 567.97 1921.2 572.055 1924.04 576.155L1925.68 575.017C1928.53 579.125 1931.34 583.248 1934.12 587.388L1932.46 588.503C1935.25 592.652 1938 596.817 1940.73 600.997L1942.4 599.905C1945.14 604.102 1947.84 608.314 1950.52 612.543L1948.83 613.611C1951.49 617.832 1954.13 622.068 1956.73 626.319L1958.44 625.274C1961.05 629.533 1963.63 633.808 1966.17 638.098L1964.45 639.118C1967 643.418 1969.52 647.733 1972.01 652.063L1973.74 651.067C1976.23 655.41 1978.69 659.767 1981.12 664.14L1979.37 665.11C1981.8 669.474 1984.19 673.853 1986.54 678.246L1988.3 677.301C1990.67 681.703 1992.99 686.12 1995.29 690.551L1993.51 691.47C1995.81 695.91 1998.07 700.365 2000.3 704.834L2002.09 703.941C2004.33 708.418 2006.53 712.91 2008.7 717.416L2006.89 718.283C2009.06 722.78 2011.18 727.291 2013.28 731.816L2015.09 730.977C2017.19 735.513 2019.25 740.064 2021.28 744.628L2019.46 745.44C2021.48 750.005 2023.48 754.583 2025.44 759.175L2027.28 758.39C2029.24 762.991 2031.17 767.606 2033.06 772.234L2031.21 772.99C2033.1 777.609 2034.95 782.241 2036.76 786.886L2038.63 786.157C2040.45 790.814 2042.23 795.483 2043.98 800.165L2042.11 800.865C2043.85 805.541 2045.56 810.229 2047.24 814.931L2049.12 814.26C2050.8 818.971 2052.44 823.694 2054.04 828.43L2052.15 829.072C2053.75 833.798 2055.31 838.537 2056.84 843.288L2058.74 842.676C2060.27 847.435 2061.76 852.206 2063.22 856.989L2061.31 857.571C2062.76 862.342 2064.17 867.126 2065.55 871.922L2067.47 871.37C2068.85 876.175 2070.19 880.993 2071.5 885.822L2069.57 886.343C2070.87 891.162 2072.13 895.993 2073.36 900.834L2075.3 900.343C2076.52 905.185 2077.71 910.037 2078.86 914.901L2076.91 915.361C2078.06 920.212 2079.17 925.074 2080.24 929.948L2082.19 929.518C2083.27 934.402 2084.3 939.297 2085.3 944.202L2083.34 944.599C2084.33 949.493 2085.28 954.398 2086.2 959.312L2088.17 958.946C2089.08 963.849 2089.96 968.762 2090.79 973.685L2088.82 974.02C2089.66 978.933 2090.45 983.856 2091.21 988.789L2093.19 988.486C2093.94 993.429 2094.66 998.382 2095.34 1003.35L2093.36 1003.62C2094.04 1008.56 2094.68 1013.52 2095.28 1018.48L2097.26 1018.24C2097.86 1023.19 2098.42 1028.14 2098.94 1033.11L2096.95 1033.32C2097.46 1038.27 2097.94 1043.24 2098.38 1048.21L2100.37 1048.04C2100.81 1053.02 2101.21 1058.01 2101.57 1063.01L2099.58 1063.16C2099.94 1068.13 2100.26 1073.11 2100.54 1078.1L2102.53 1077.99C2102.81 1082.97 2103.05 1087.95 2103.25 1092.93L2101.25 1093.01C2101.45 1097.99 2101.61 1102.98 2101.73 1107.97L2103.73 1107.92C2103.85 1112.93 2103.93 1117.94 2103.97 1122.96L2101.97 1122.98C2101.99 1125.48 2102 1127.99 2102 1130.5C2102 1132.47 2101.66 1133.34 2101.43 1133.65C2101.35 1133.75 2101.31 1133.76 2101.27 1133.77C2101.25 1133.78 2101.22 1133.78 2101.17 1133.79C2101.06 1133.8 2100.89 1133.79 2100.63 1133.73L2100.19 1135.68Z" stroke="#F1EFE9" stroke-width="4" stroke-dasharray="15 15"/>
<path d="M2.95714 266.547C-0.231773 260.027 -3.49646 253.728 -6.83694 247.65C-10.1269 241.424 -13.5146 235.124 -17 228.749C-15.6185 228.319 -14.2864 227.913 -13.0037 227.531C-11.7694 227.051 -10.5592 226.52 -9.37314 225.941C-8.1871 225.361 -7.02522 224.733 -5.8875 224.054C-4.7981 223.277 -3.65928 222.476 -2.47104 221.651C0.421368 228.315 3.26545 234.881 6.06122 241.348C8.90751 247.668 11.9251 254.087 15.114 260.607C21.202 273.053 26.5421 283.846 31.1344 292.984C35.6784 302.024 39.7633 310.125 43.3893 317.288C50.4067 313.859 57.1034 310.526 63.4795 307.289C69.8072 303.952 76.4359 299.979 83.3654 295.37C83.7409 297.389 84.2186 298.992 84.7984 300.177C85.3299 301.264 86.2293 302.476 87.4965 303.815C82.8534 305.839 78.2586 307.962 73.7121 310.183C69.1656 312.404 64.6192 314.626 60.0727 316.847C55.3285 319.165 50.7326 321.411 46.285 323.584C41.9362 325.708 37.438 328.028 32.7905 330.544C30.0914 324.275 27.2945 317.931 24.3999 311.512C21.6041 305.045 18.6118 298.552 15.4229 292.032L2.95714 266.547Z" fill="#FBFAF7"/>
<path d="M128.557 241.637C127.085 242.965 125.266 244.319 123.1 245.698C121.035 247.035 118.941 248.444 116.818 249.925C114.652 251.304 112.55 252.836 110.511 254.52C108.573 256.161 106.945 257.972 105.625 259.952C104.407 261.889 103.621 264.004 103.266 266.296C103.013 268.546 103.48 271.091 104.665 273.933C106.656 278.702 109.53 281.734 113.287 283.027C117.045 284.319 120.6 284.267 123.95 282.871C127.809 281.262 130.867 278.737 133.125 275.294C135.485 271.808 136.935 268.285 137.476 264.724L128.557 241.637ZM79.6307 230.222C82.7601 224.867 85.9999 220.777 89.3502 217.951C92.7005 215.124 96.4063 212.865 100.468 211.172C104.123 209.648 107.707 208.81 111.219 208.656C114.688 208.402 117.913 208.845 120.892 209.985C123.829 211.025 126.499 212.711 128.903 215.045C131.265 217.277 133.145 220.067 134.542 223.416C136.956 229.201 139.268 235.027 141.479 240.897C143.648 246.664 146.066 252.745 148.734 259.138C149.242 260.356 149.792 261.675 150.385 263.096C151.037 264.373 151.799 265.485 152.671 266.432C153.501 267.277 154.419 267.907 155.426 268.321C156.535 268.693 157.851 268.561 159.374 267.926C159.882 267.715 160.389 267.503 160.897 267.292C161.464 266.936 161.938 266.5 162.318 265.984L163.716 269.333C162.811 270.306 161.559 271.305 159.959 272.329C158.462 273.31 156.698 274.224 154.667 275.071C151.418 276.425 148.591 276.65 146.188 275.746C143.742 274.74 141.816 272.982 140.41 270.47C138.279 275.647 135.797 279.839 132.963 283.045C130.129 286.252 126.123 288.934 120.945 291.093C118.406 292.151 115.77 292.833 113.037 293.138C110.304 293.443 107.634 293.186 105.027 292.367C102.522 291.505 100.194 290.212 98.0439 288.487C95.953 286.618 94.2935 284.213 93.0654 281.27C90.5246 275.181 90.4339 269.679 92.7933 264.764C95.2543 259.807 99.6026 255.374 105.838 251.464C110.94 248.265 114.887 245.726 117.679 243.848C120.53 241.825 122.518 240.163 123.643 238.86C124.87 237.515 125.445 236.322 125.369 235.282C125.25 234.14 124.873 232.808 124.237 231.286C123.179 228.749 121.858 226.44 120.275 224.36C118.691 222.28 116.88 220.652 114.84 219.477C112.8 218.302 110.502 217.652 107.947 217.526C105.348 217.298 102.526 217.819 99.4804 219.089C95.4189 220.782 91.9923 223.282 89.2008 226.59C86.5107 229.856 84.9802 233.472 84.6092 237.439L82.9338 238.138L79.6307 230.222Z" fill="#FBFAF7"/>
<path d="M222.688 206.363C221.037 201.582 218.959 197.588 216.455 194.38C214.019 191.033 211.382 188.453 208.545 186.64C205.812 184.791 202.93 183.692 199.899 183.341C196.937 182.851 194.104 183.072 191.4 184.005C188.176 185.117 185.271 186.816 182.686 189.104C180.169 191.252 178.303 194.105 177.088 197.665C175.837 201.121 175.308 205.316 175.499 210.252C175.759 215.048 177.001 220.668 179.226 227.112C186.44 248.003 197.639 255.83 212.822 250.593C216.046 249.481 218.723 247.627 220.852 245.032C222.946 242.332 224.425 239.031 225.288 235.127C226.255 231.188 226.539 226.786 226.14 221.922C225.741 217.058 224.59 211.872 222.688 206.363ZM236.576 202.096C238.658 208.124 239.624 213.956 239.475 219.59C239.43 225.189 238.424 230.364 236.456 235.113C234.556 239.723 231.764 243.769 228.078 247.251C224.46 250.592 220.155 253.124 215.163 254.846C210.172 256.567 205.289 257.088 200.515 256.409C195.81 255.589 191.897 254.031 188.776 251.734C186.073 256.04 183.63 260.255 181.447 264.382L178.639 265.35C177.986 262.784 177.101 259.716 175.984 256.146C174.972 252.54 173.836 248.745 172.576 244.759C171.28 240.67 169.915 236.547 168.479 232.389C167.148 228.196 165.872 224.332 164.651 220.798L154.907 192.579C153.687 189.045 152.307 185.217 150.767 181.096C149.331 176.938 147.862 172.851 146.358 168.833C144.854 164.815 143.37 161.023 141.906 157.457C140.51 153.751 139.26 150.635 138.154 148.108C141.246 147.624 143.675 147.076 145.443 146.467C146.587 146.072 147.765 145.608 148.977 145.073C150.153 144.435 151.433 143.761 152.818 143.051C153.223 145.237 154.112 148.653 155.483 153.298C156.818 157.839 158.403 162.934 160.237 168.582C162.035 174.127 163.905 179.879 165.847 185.839C167.753 191.696 169.48 197.032 171.027 201.849L171.339 201.742C172.936 194.91 175.418 189.459 178.785 185.39C182.152 181.321 186.643 178.318 192.258 176.381C197.666 174.515 202.705 173.94 207.374 174.656C212.008 175.268 216.199 176.788 219.948 179.218C223.696 181.647 226.966 184.881 229.757 188.92C232.616 192.819 234.89 197.211 236.576 202.096Z" fill="#FBFAF7"/>
<path d="M265.886 195.819C267.121 200.269 268.683 204.458 270.571 208.384C272.566 212.281 274.973 215.608 277.793 218.364C280.583 221.013 283.833 222.851 287.542 223.877C291.252 224.903 295.439 224.769 300.104 223.476C304.768 222.183 308.426 220.143 311.077 217.354C313.729 214.565 315.567 211.317 316.594 207.61C317.591 203.796 317.887 199.72 317.482 195.382C317.184 191.015 316.417 186.606 315.183 182.156C313.948 177.706 312.333 173.533 310.338 169.635C308.45 165.709 306.11 162.421 303.32 159.771C300.5 157.015 297.236 155.125 293.526 154.099C289.817 153.073 285.63 153.207 280.965 154.5C276.3 155.792 272.643 157.833 269.991 160.622C267.34 163.41 265.516 166.712 264.519 170.525C263.493 174.233 263.129 178.27 263.427 182.637C263.832 186.975 264.652 191.369 265.886 195.819ZM251.892 199.698C249.893 192.493 249.316 186.092 250.161 180.495C251.082 174.763 252.971 169.846 255.829 165.745C258.658 161.538 262.16 158.114 266.336 155.473C270.59 152.697 274.995 150.677 279.554 149.414C284.218 148.121 289.036 147.584 294.006 147.804C298.947 147.918 303.713 149.05 308.306 151.201C312.869 153.245 316.969 156.502 320.607 160.97C324.321 165.304 327.177 171.073 329.176 178.278C331.175 185.483 331.714 191.951 330.793 197.684C329.949 203.281 328.112 208.183 325.284 212.39C322.426 216.491 318.894 219.809 314.688 222.344C310.482 224.878 306.047 226.792 301.383 228.085C296.824 229.349 292.036 229.991 287.019 230.012C282.107 230.004 277.37 228.978 272.807 226.934C268.215 224.784 264.061 221.542 260.347 217.208C256.71 212.74 253.892 206.903 251.892 199.698Z" fill="#FBFAF7"/>
<path d="M380.338 140.375C379.658 139.85 378.453 139.499 376.722 139.32C375.099 139.118 373.483 139.196 371.872 139.554C369.294 140.127 367.117 141.231 365.339 142.866C363.562 144.5 362.202 146.492 361.26 148.842C360.294 151.084 359.746 153.684 359.615 156.642C359.461 159.492 359.73 162.474 360.423 165.586L364.366 183.295C365.967 190.486 367.197 196.014 368.058 199.878C369.001 203.61 369.897 206.621 370.745 208.911C368.549 209.174 366.378 209.544 364.23 210.022C361.867 210.547 359.636 211.156 357.536 211.848C357.046 208.128 356.108 203.155 354.722 196.93C353.42 190.573 351.753 182.834 349.722 173.711L348.575 168.559C347.643 164.373 346.514 159.555 345.188 154.105C343.969 148.632 342.411 142.389 340.511 135.377C341.74 135.329 342.916 135.293 344.037 135.268C345.135 135.137 346.275 134.94 347.456 134.677C348.423 134.462 349.431 134.182 350.481 133.836C351.507 133.382 352.587 132.917 353.72 132.439C354.151 136.399 354.563 139.517 354.958 141.795C355.459 144.049 355.937 146.196 356.391 148.235L356.749 148.324C360.505 135.324 366.302 127.952 374.141 126.208C375.108 125.993 375.925 125.868 376.593 125.832C377.369 125.772 378.342 125.838 379.511 126.028C379.261 127.435 379.381 129.493 379.871 132.2C380.337 134.799 380.809 137.173 381.287 139.319L380.338 140.375Z" fill="#FBFAF7"/>
<path d="M428.899 120.947C424.893 121.667 421.648 123.199 419.163 125.545C416.787 127.871 414.932 130.606 413.597 133.75C412.351 136.767 411.543 140.04 411.172 143.57C410.889 146.973 410.903 150.154 411.212 153.115C414.588 152.62 418.072 152.106 421.665 151.572C425.366 151.019 428.949 150.431 432.414 149.809C435.987 149.167 439.604 148.461 443.266 147.691C446.928 146.922 450.482 146.171 453.928 145.441C453.402 142.519 452.577 139.483 451.451 136.334C450.434 133.165 448.915 130.31 446.893 127.769C444.979 125.208 442.558 123.241 439.628 121.868C436.699 120.495 433.122 120.188 428.899 120.947ZM398.125 165.185C395.731 151.874 396.993 140.867 401.91 132.163C406.936 123.44 415.513 117.989 427.64 115.811C433.379 114.78 438.471 114.815 442.917 115.915C447.451 116.888 451.398 118.637 454.759 121.161C458.099 123.577 460.779 126.671 462.799 130.441C464.927 134.192 466.399 138.341 467.217 142.886C467.411 143.968 467.552 145.06 467.638 146.162C467.813 147.136 467.944 148.173 468.031 149.275C462.164 150.217 456.352 151.15 450.593 152.072C444.835 152.995 439.032 153.982 433.185 155.032C429.612 155.674 426.049 156.37 422.495 157.12C419.049 157.851 415.55 158.592 411.996 159.342C411.985 159.902 412.077 160.724 412.272 161.806L412.651 163.916C413.41 168.137 414.716 171.98 416.569 175.445C418.53 178.891 420.945 181.753 423.814 184.03C426.663 186.2 429.966 187.785 433.723 188.786C437.46 189.678 441.603 189.716 446.151 188.899C448.316 188.51 450.487 187.84 452.664 186.891C454.821 185.833 456.895 184.623 458.885 183.26C460.856 181.788 462.635 180.184 464.223 178.446C465.919 176.689 467.325 174.873 468.441 172.997L469.34 173.338L469.796 181.467C467.015 184.648 463.354 187.596 458.812 190.311C454.379 193.007 449.563 194.821 444.366 195.755C438.519 196.805 433.003 196.902 427.819 196.046C422.724 195.063 418.088 193.214 413.912 190.501C409.824 187.661 406.387 184.089 403.601 179.786C400.923 175.463 399.098 170.596 398.125 165.185Z" fill="#FBFAF7"/>
<path d="M562.227 102.676C558.176 103.073 554.818 104.34 552.154 106.479C549.599 108.608 547.53 111.185 545.947 114.213C544.463 117.12 543.395 120.318 542.742 123.807C542.187 127.175 541.945 130.347 542.016 133.324C545.421 133.101 548.935 132.867 552.559 132.623C556.293 132.368 559.911 132.07 563.415 131.727C567.028 131.373 570.691 130.959 574.403 130.486C578.115 130.012 581.717 129.549 585.21 129.097C584.921 126.142 584.341 123.05 583.472 119.821C582.713 116.581 581.427 113.613 579.616 110.918C577.914 108.212 575.657 106.058 572.847 104.454C570.037 102.851 566.497 102.259 562.227 102.676ZM528.003 144.306C526.685 130.846 528.825 119.976 534.425 111.694C540.135 103.402 549.121 98.6559 561.384 97.4559C567.187 96.8881 572.26 97.3307 576.603 98.7839C581.045 100.117 584.839 102.176 587.986 104.962C591.122 107.638 593.545 110.936 595.256 114.856C597.076 118.766 598.211 123.019 598.661 127.615C598.769 128.709 598.821 129.809 598.819 130.914C598.915 131.899 598.962 132.944 598.96 134.049C593.037 134.518 587.168 134.982 581.355 135.44C575.541 135.898 569.678 136.417 563.765 136.995C560.152 137.349 556.544 137.757 552.942 138.22C549.449 138.673 545.901 139.13 542.299 139.593C542.243 140.151 542.268 140.977 542.376 142.071L542.585 144.205C543.003 148.473 543.996 152.408 545.565 156.011C547.243 159.603 549.421 162.649 552.098 165.149C554.764 167.54 557.929 169.385 561.594 170.683C565.247 171.872 569.374 172.242 573.972 171.792C576.162 171.578 578.38 171.084 580.625 170.312C582.86 169.431 585.025 168.39 587.118 167.191C589.201 165.883 591.103 164.426 592.825 162.821C594.656 161.206 596.203 159.508 597.466 157.727L598.335 158.139L598.138 166.279C595.11 169.226 591.224 171.871 586.479 174.214C581.844 176.546 576.899 177.969 571.643 178.483C565.731 179.061 560.225 178.716 555.126 177.448C550.127 176.059 545.654 173.845 541.708 170.806C537.862 167.647 534.722 163.811 532.291 159.299C529.968 154.775 528.539 149.778 528.003 144.306Z" fill="#FBFAF7"/>
<path d="M629.819 71.731C629.731 75.9213 629.694 80.0536 629.708 84.1278C629.827 88.0858 629.893 92.102 629.908 96.1762C631.116 96.1065 633.367 95.9768 636.662 95.7868C639.951 95.4871 643.511 95.1167 647.342 94.6756C647.252 95.0113 647.232 95.6182 647.282 96.4963L647.482 99.9541C647.526 100.723 647.613 101.268 647.742 101.591C646.307 101.564 644.821 101.594 643.284 101.683C641.74 101.662 640.089 101.702 638.332 101.803L630.259 102.268C630.175 102.714 630.111 104.48 630.069 107.566C630.137 110.646 630.239 114.33 630.376 118.617C630.507 122.795 630.651 127.192 630.807 131.808C631.073 136.419 631.31 140.535 631.519 144.158C631.697 147.231 631.926 150.247 632.207 153.204C632.597 156.155 633.302 158.813 634.32 161.177C635.331 163.432 636.757 165.222 638.597 166.548C640.436 167.874 643.004 168.442 646.299 168.252C647.177 168.201 648.324 168.025 649.739 167.723C651.264 167.415 652.566 167.064 653.646 166.672L653.874 170.623C652.026 171.06 649.961 171.565 647.68 172.137C645.515 172.812 643.389 173.21 641.302 173.331C634.383 173.729 629.177 172.322 625.686 169.109C622.195 165.896 620.259 160.997 619.879 154.41C619.708 151.447 619.579 148.26 619.493 144.851C619.4 141.332 619.291 137.538 619.167 133.471C619.146 129.287 619.047 124.722 618.872 119.776C618.691 114.72 618.423 109.118 618.068 102.971L612.796 103.275C611.917 103.326 610.987 103.434 610.005 103.601C609.016 103.658 607.976 103.773 606.884 103.946C606.956 103.281 606.976 102.674 606.944 102.125C607.016 101.461 607.033 100.799 606.995 100.14C606.963 99.5913 606.877 99.0456 606.735 98.5031C606.704 97.9542 606.617 97.4085 606.475 96.866C611.437 96.9104 615.071 96.8662 617.377 96.7332C617.141 94.5441 616.873 91.8062 616.573 88.5194C616.383 85.2262 616.077 81.8297 615.654 78.3297L628.996 71.7785L629.819 71.731Z" fill="#FBFAF7"/>
<path d="M801.627 163.766C800.621 164.628 799.009 165.59 796.79 166.651C794.682 167.603 792.081 168.492 788.986 169.318C786.002 170.035 782.635 170.691 778.883 171.285C775.132 171.879 771.221 172.14 767.151 172.069C758.461 171.916 750.453 170.566 743.125 168.018C735.8 165.36 729.487 161.455 724.186 156.304C718.995 151.154 714.923 144.924 711.971 137.614C709.13 130.196 707.792 121.815 707.956 112.47C708.12 103.126 709.751 94.8516 712.849 87.648C716.058 80.3363 720.402 74.1992 725.881 69.2367C731.47 64.2762 738.082 60.5433 745.718 58.0381C753.354 55.5328 761.738 54.3603 770.867 54.5206C778.127 54.648 784.713 55.5334 790.626 57.1768C796.651 58.7122 801.955 60.5648 806.538 62.7347C805.631 64.2584 804.879 66.3346 804.283 68.9634C803.687 71.5922 803.208 73.7833 802.847 75.5364L801.851 75.8489C800.775 74.5103 799.261 72.9992 797.31 71.3154C795.359 69.6316 793.077 67.9969 790.464 66.4115C787.851 64.826 784.903 63.5096 781.621 62.4623C778.34 61.305 774.72 60.6916 770.76 60.6221C764.27 60.5081 758.202 61.4464 752.555 63.4367C747.019 65.4289 742.122 68.5871 737.865 72.9112C733.719 77.1273 730.433 82.5681 728.005 89.2337C725.579 95.7893 724.286 103.629 724.126 112.754C723.965 121.879 724.981 129.815 727.174 136.561C729.368 143.198 732.461 148.751 736.453 153.22C740.558 157.581 745.342 160.854 750.805 163.039C756.378 165.226 762.41 166.377 768.9 166.491C772.86 166.56 776.498 166.129 779.815 165.198C783.243 164.268 786.343 163.168 789.116 161.897C792.001 160.518 794.557 159.078 796.784 157.578C799.123 155.969 801.073 154.574 802.634 153.392L803.283 154.063L801.627 163.766Z" fill="#FBFAF7"/>
<path d="M833.48 133.729C833.117 138.332 833.15 142.802 833.581 147.137C834.121 151.482 835.244 155.43 836.949 158.984C838.664 162.428 841.088 165.266 844.223 167.499C847.357 169.731 851.337 171.038 856.163 171.418C860.989 171.799 865.124 171.132 868.57 169.419C872.016 167.705 874.856 165.282 877.09 162.149C879.332 158.907 881.006 155.179 882.111 150.964C883.326 146.759 884.115 142.354 884.479 137.75C884.842 133.147 884.754 128.673 884.214 124.329C883.784 119.993 882.711 116.103 880.997 112.659C879.291 109.106 876.871 106.213 873.736 103.98C870.602 101.748 866.622 100.441 861.796 100.061C856.971 99.68 852.835 100.347 849.389 102.06C845.943 103.774 843.099 106.252 840.856 109.494C838.623 112.627 836.898 116.296 835.683 120.502C834.578 124.716 833.844 129.125 833.48 133.729ZM819.004 132.587C819.592 125.133 821.241 118.922 823.951 113.951C826.779 108.88 830.238 104.907 834.328 102.031C838.426 99.0448 842.889 97.0255 847.717 95.9724C852.664 94.8183 857.496 94.4272 862.212 94.7991C867.037 95.1797 871.747 96.3232 876.342 98.2296C880.946 100.026 885.037 102.72 888.616 106.312C892.204 109.793 894.941 114.255 896.829 119.698C898.835 125.04 899.544 131.438 898.956 138.892C898.367 146.346 896.659 152.608 893.831 157.679C891.121 162.649 887.717 166.627 883.619 169.613C879.529 172.489 875.074 174.399 870.255 175.342C865.435 176.286 860.612 176.567 855.786 176.187C851.071 175.815 846.352 174.781 841.63 173.085C837.018 171.398 832.918 168.813 829.33 165.332C825.751 161.741 822.959 157.274 820.953 151.932C819.065 146.489 818.415 140.041 819.004 132.587Z" fill="#FBFAF7"/>
<path d="M973.804 141.195C974.919 133.024 974.178 126.653 971.582 122.082C969 117.403 964.93 114.684 959.37 113.927C951.74 112.887 945.806 114.464 941.57 118.659C937.443 122.868 934.8 129.222 933.641 137.72L931.746 151.61C931.077 156.513 930.426 161.695 929.792 167.157C929.281 172.525 929.002 177.425 928.952 181.857C926.475 181.298 924.037 180.855 921.639 180.528C919.241 180.201 916.773 179.976 914.236 179.852C915.376 175.569 916.364 170.765 917.202 165.442C918.163 160.024 918.977 154.864 919.646 149.961L921.965 132.966C922.633 128.063 923.223 122.928 923.733 117.56C924.367 112.098 924.731 106.987 924.825 102.228C927.803 103.189 930.218 103.796 932.071 104.048C932.943 104.167 933.877 104.239 934.873 104.263C935.993 104.194 937.276 104.147 938.723 104.122C937.802 108.435 937.044 112.771 936.449 117.129L936.776 117.173C940.468 112.905 944.61 109.807 949.203 107.88C953.811 105.845 959.058 105.228 964.944 106.03C967.996 106.446 970.989 107.298 973.922 108.585C976.965 109.888 979.591 111.799 981.801 114.32C984.025 116.731 985.648 119.893 986.669 123.805C987.814 127.623 988 132.365 987.227 138.03C986.588 142.715 985.817 147.548 984.916 152.53C984.029 157.402 983.207 162.617 982.449 168.173L981 178.795C980.762 180.538 980.524 182.282 980.287 184.025C980.173 185.674 980.066 187.268 979.967 188.808C977.817 188.293 975.542 187.873 973.144 187.546C970.855 187.234 968.606 187.038 966.396 186.959C967.387 181.324 968.4 175.525 969.435 169.563C970.579 163.615 971.583 157.482 972.445 151.163L973.804 141.195Z" fill="#FBFAF7"/>
<path d="M1007.04 177.95C1007.38 179.132 1007.97 180.472 1008.81 181.971C1009.75 183.49 1010.87 184.985 1012.16 186.457C1013.58 187.84 1015.2 189.092 1017 190.212C1018.92 191.352 1021.01 192.134 1023.28 192.558C1025.33 192.941 1027.34 192.98 1029.3 192.674C1031.37 192.389 1033.22 191.783 1034.84 190.857C1036.58 189.95 1038.05 188.659 1039.26 186.983C1040.47 185.307 1041.3 183.28 1041.74 180.902C1042.37 177.551 1041.87 174.83 1040.24 172.737C1038.75 170.557 1036.7 168.664 1034.09 167.058C1031.5 165.344 1028.61 163.743 1025.42 162.252C1022.22 160.762 1019.36 158.998 1016.83 156.96C1014.33 154.814 1012.34 152.263 1010.88 149.305C1009.52 146.368 1009.27 142.63 1010.12 138.09C1010.79 134.523 1011.99 131.392 1013.72 128.696C1015.48 125.891 1017.69 123.62 1020.37 121.882C1023.04 120.144 1026.17 118.993 1029.74 118.43C1033.33 117.758 1037.3 117.826 1041.62 118.633C1045.62 119.38 1048.87 120.546 1051.38 122.131C1053.99 123.737 1056.45 125.204 1058.78 126.533C1057.61 127.993 1056.43 129.841 1055.23 132.078C1054.02 134.314 1053.19 136.061 1052.74 137.318L1050.79 136.954C1050.41 134.199 1049.17 131.562 1047.06 129.044C1044.96 126.527 1042.07 124.925 1038.39 124.239C1036.77 123.936 1035.1 123.904 1033.37 124.141C1031.65 124.379 1030.04 124.917 1028.54 125.756C1027.04 126.595 1025.7 127.798 1024.51 129.366C1023.32 130.934 1022.5 132.907 1022.06 135.285C1021.41 138.743 1021.83 141.617 1023.3 143.906C1024.91 146.106 1027.01 148.009 1029.62 149.615C1032.23 151.221 1035.13 152.768 1038.32 154.259C1041.53 155.641 1044.41 157.351 1046.93 159.389C1049.48 161.318 1051.44 163.752 1052.79 166.689C1054.25 169.646 1054.56 173.395 1053.71 177.934C1053.12 181.069 1051.85 184.018 1049.88 186.782C1048.01 189.566 1045.55 191.959 1042.49 193.961C1039.56 195.875 1036.18 197.201 1032.35 197.941C1028.54 198.572 1024.36 198.463 1019.82 197.616C1014.84 196.688 1010.77 195.424 1007.6 193.826C1004.43 192.228 1001.83 190.568 999.799 188.847C1000.71 187.563 1001.71 185.793 1002.81 183.536C1004.03 181.191 1004.79 179.208 1005.09 177.587L1007.04 177.95Z" fill="#FBFAF7"/>
<path d="M1104.75 110.832C1103.51 114.837 1102.34 118.799 1101.24 122.721C1100.26 126.559 1099.22 130.439 1098.11 134.36C1099.29 134.625 1101.5 135.119 1104.72 135.841C1107.96 136.456 1111.48 137.078 1115.29 137.706C1115.11 138.004 1114.92 138.582 1114.73 139.441L1113.97 142.82C1113.8 143.571 1113.74 144.119 1113.77 144.465C1112.4 144.045 1110.96 143.666 1109.46 143.329C1107.98 142.885 1106.38 142.47 1104.67 142.084L1096.78 140.314C1096.57 140.719 1096.03 142.4 1095.14 145.355C1094.35 148.335 1093.44 151.905 1092.39 156.065C1091.37 160.118 1090.3 164.385 1089.18 168.867C1088.17 173.373 1087.26 177.396 1086.47 180.936C1085.79 183.94 1085.18 186.903 1084.64 189.823C1084.21 192.768 1084.15 195.517 1084.48 198.07C1084.83 200.516 1085.71 202.628 1087.12 204.408C1088.52 206.188 1090.83 207.44 1094.05 208.162C1094.91 208.355 1096.06 208.5 1097.51 208.599C1099.06 208.722 1100.41 208.742 1101.55 208.661L1100.68 212.524C1098.79 212.436 1096.66 212.354 1094.31 212.277C1092.04 212.332 1089.89 212.131 1087.85 211.673C1081.09 210.156 1076.47 207.373 1074 203.325C1071.53 199.276 1071.01 194.034 1072.46 187.597C1073.11 184.7 1073.86 181.601 1074.71 178.299C1075.59 174.89 1076.53 171.213 1077.53 167.268C1078.66 163.239 1079.82 158.823 1081.01 154.019C1082.23 149.108 1083.51 143.649 1084.86 137.641L1079.71 136.485C1078.85 136.292 1077.93 136.141 1076.94 136.032C1075.97 135.815 1074.94 135.64 1073.84 135.506C1074.09 134.887 1074.28 134.309 1074.4 133.772C1074.65 133.153 1074.85 132.521 1074.99 131.877C1075.11 131.341 1075.18 130.792 1075.19 130.232C1075.31 129.695 1075.38 129.147 1075.39 128.586C1080.15 129.992 1083.66 130.948 1085.91 131.454C1086.29 129.284 1086.78 126.578 1087.4 123.335C1088.12 120.117 1088.76 116.767 1089.32 113.285L1103.95 110.651L1104.75 110.832Z" fill="#FBFAF7"/>
<path d="M1164.51 187.033C1162.54 187.186 1160.27 187.146 1157.71 186.915C1155.26 186.712 1152.74 186.548 1150.15 186.423C1147.6 186.192 1145 186.12 1142.35 186.207C1139.81 186.323 1137.42 186.761 1135.16 187.522C1133.02 188.311 1131.1 189.505 1129.42 191.103C1127.84 192.729 1126.65 195.029 1125.85 198.002C1124.51 202.993 1124.93 207.148 1127.12 210.466C1129.3 213.785 1132.15 215.915 1135.65 216.856C1139.69 217.94 1143.66 217.809 1147.55 216.463C1151.55 215.146 1154.85 213.243 1157.46 210.755L1164.51 187.033ZM1132.77 148.113C1138.52 145.786 1143.59 144.527 1147.97 144.337C1152.35 144.147 1156.66 144.622 1160.91 145.763C1164.74 146.79 1168.09 148.315 1170.96 150.339C1173.86 152.256 1176.14 154.577 1177.8 157.299C1179.49 159.916 1180.57 162.882 1181.05 166.198C1181.55 169.407 1181.34 172.764 1180.39 176.268C1178.77 182.321 1177.03 188.345 1175.19 194.341C1173.38 200.231 1171.58 206.52 1169.78 213.21C1169.44 214.484 1169.07 215.865 1168.67 217.352C1168.4 218.761 1168.33 220.106 1168.44 221.388C1168.58 222.564 1168.92 223.624 1169.46 224.567C1170.11 225.538 1171.24 226.238 1172.83 226.666C1173.36 226.808 1173.89 226.951 1174.42 227.094C1175.09 227.159 1175.73 227.103 1176.35 226.927L1175.41 230.431C1174.09 230.649 1172.49 230.674 1170.6 230.508C1168.81 230.37 1166.86 230.016 1164.73 229.445C1161.33 228.533 1158.96 226.984 1157.61 224.8C1156.29 222.51 1155.84 219.942 1156.26 217.095C1151.41 219.891 1146.88 221.693 1142.68 222.5C1138.48 223.307 1133.66 222.983 1128.25 221.528C1125.59 220.815 1123.09 219.744 1120.74 218.316C1118.39 216.889 1116.43 215.054 1114.87 212.813C1113.41 210.601 1112.36 208.155 1111.71 205.477C1111.2 202.721 1111.36 199.803 1112.19 196.723C1113.9 190.352 1117.19 185.942 1122.06 183.493C1127.04 181.073 1133.2 180.22 1140.52 180.934C1146.52 181.519 1151.19 181.92 1154.55 182.139C1158.05 182.28 1160.64 182.178 1162.32 181.834C1164.12 181.519 1165.3 180.926 1165.88 180.056C1166.48 179.08 1167 177.795 1167.43 176.202C1168.14 173.547 1168.5 170.913 1168.52 168.3C1168.54 165.686 1168.1 163.292 1167.21 161.116C1166.31 158.94 1164.89 157.021 1162.95 155.36C1161.03 153.593 1158.48 152.282 1155.29 151.426C1151.04 150.285 1146.8 150.171 1142.56 151.084C1138.44 152.026 1135.02 153.953 1132.3 156.866L1130.54 156.396L1132.77 148.113Z" fill="#FBFAF7"/>
<path d="M1258.27 210.679C1260.87 202.854 1261.32 196.456 1259.61 191.485C1257.94 186.41 1254.44 182.987 1249.12 181.217C1241.81 178.788 1235.69 179.243 1230.75 182.584C1225.92 185.96 1222.15 191.717 1219.44 199.855L1215.01 213.157C1213.45 217.852 1211.85 222.825 1210.22 228.077C1208.73 233.258 1207.55 238.023 1206.68 242.37C1204.35 241.363 1202.03 240.477 1199.74 239.714C1197.44 238.95 1195.06 238.274 1192.59 237.684C1194.5 233.684 1196.35 229.146 1198.16 224.068C1200.11 218.921 1201.86 214 1203.42 209.305L1208.84 193.029C1210.4 188.334 1211.93 183.396 1213.42 178.214C1215.05 172.963 1216.36 168.007 1217.33 163.347C1220.08 164.841 1222.34 165.883 1224.11 166.473C1224.95 166.75 1225.85 166.993 1226.83 167.201C1227.94 167.339 1229.21 167.53 1230.64 167.772C1228.94 171.842 1227.39 175.963 1226 180.136L1226.31 180.24C1230.73 176.726 1235.37 174.445 1240.24 173.399C1245.15 172.249 1250.42 172.611 1256.06 174.485C1258.98 175.457 1261.76 176.846 1264.41 178.652C1267.16 180.493 1269.38 182.856 1271.09 185.741C1272.83 188.522 1273.84 191.928 1274.12 195.962C1274.54 199.925 1273.85 204.62 1272.05 210.045C1270.55 214.531 1268.9 219.139 1267.1 223.869C1265.33 228.495 1263.55 233.468 1261.78 238.789L1258.4 248.961C1257.84 250.631 1257.29 252.3 1256.73 253.969C1256.31 255.569 1255.91 257.117 1255.53 258.612C1253.51 257.709 1251.36 256.876 1249.06 256.112C1246.87 255.384 1244.69 254.776 1242.54 254.291C1244.55 248.935 1246.62 243.423 1248.74 237.754C1250.96 232.12 1253.08 226.277 1255.09 220.226L1258.27 210.679Z" fill="#FBFAF7"/>
<path d="M1329.68 179.524C1327.86 183.299 1326.11 187.043 1324.43 190.755C1322.89 194.405 1321.28 198.086 1319.6 201.799C1320.73 202.237 1322.83 203.053 1325.91 204.248C1329.03 205.34 1332.42 206.481 1336.09 207.669C1335.86 207.937 1335.59 208.481 1335.28 209.301L1334.02 212.529C1333.74 213.247 1333.59 213.779 1333.58 214.126C1332.28 213.506 1330.92 212.917 1329.48 212.36C1328.09 211.7 1326.57 211.051 1324.93 210.414L1317.39 207.487C1317.13 207.857 1316.34 209.437 1315.02 212.227C1313.8 215.057 1312.36 218.45 1310.7 222.407C1309.09 226.262 1307.39 230.322 1305.62 234.587C1303.94 238.891 1302.45 242.734 1301.13 246.116C1300.02 248.986 1298.97 251.824 1298 254.631C1297.13 257.478 1296.67 260.188 1296.61 262.762C1296.59 265.232 1297.15 267.453 1298.27 269.422C1299.39 271.392 1301.49 272.974 1304.57 274.169C1305.39 274.487 1306.5 274.803 1307.92 275.116C1309.43 275.468 1310.76 275.69 1311.91 275.781L1310.47 279.47C1308.61 279.101 1306.52 278.703 1304.21 278.276C1301.96 277.992 1299.86 277.472 1297.91 276.715C1291.45 274.206 1287.3 270.766 1285.46 266.394C1283.62 262.022 1283.89 256.762 1286.28 250.612C1287.36 247.845 1288.57 244.893 1289.9 241.756C1291.28 238.516 1292.76 235.02 1294.34 231.268C1296.06 227.453 1297.86 223.259 1299.76 218.687C1301.69 214.012 1303.78 208.805 1306.01 203.066L1301.09 201.155C1300.27 200.836 1299.37 200.549 1298.41 200.293C1297.49 199.934 1296.49 199.607 1295.43 199.312C1295.77 198.736 1296.04 198.193 1296.24 197.68C1296.58 197.105 1296.87 196.51 1297.11 195.895C1297.31 195.383 1297.46 194.85 1297.56 194.298C1297.75 193.786 1297.9 193.253 1298 192.701C1302.49 194.801 1305.82 196.269 1307.97 197.105C1308.67 195.015 1309.56 192.413 1310.65 189.299C1311.85 186.224 1312.98 183.007 1314.05 179.648L1328.91 179.225L1329.68 179.524Z" fill="#FBFAF7"/>
<path d="M1365.87 187.044C1366.78 184.92 1368.32 183.423 1370.48 182.553C1372.65 181.683 1374.79 181.701 1376.92 182.607C1379.04 183.512 1380.54 185.047 1381.41 187.211C1382.28 189.376 1382.26 191.52 1381.36 193.644C1380.45 195.767 1378.91 197.264 1376.75 198.135C1374.58 199.005 1372.44 198.987 1370.31 198.081C1368.19 197.175 1366.69 195.64 1365.82 193.476C1364.95 191.312 1364.97 189.168 1365.87 187.044ZM1344.63 242.717C1346.57 238.166 1348.5 233.369 1350.41 228.327C1352.47 223.227 1354.17 218.395 1355.52 213.83C1358.14 215.543 1360.31 216.767 1362.03 217.5C1363.75 218.233 1366.13 218.951 1369.18 219.653C1366.82 223.786 1364.46 228.338 1362.1 233.309C1359.88 238.222 1357.8 242.954 1355.86 247.505L1349.13 263.283C1347.19 267.834 1345.19 272.66 1343.13 277.76C1341.22 282.802 1339.65 287.454 1338.43 291.715C1336.19 290.521 1333.96 289.449 1331.73 288.5C1329.5 287.551 1327.18 286.682 1324.77 285.892C1327 282.062 1329.23 277.691 1331.44 272.778C1333.8 267.807 1335.95 263.046 1337.9 258.495L1344.63 242.717Z" fill="#FBFAF7"/>
<path d="M1420.49 284.516C1418.52 284.292 1416.3 283.826 1413.83 283.117C1411.46 282.456 1409.02 281.82 1406.51 281.21C1404.04 280.5 1401.5 279.94 1398.88 279.527C1396.37 279.163 1393.93 279.141 1391.58 279.464C1389.32 279.834 1387.21 280.645 1385.26 281.897C1383.4 283.197 1381.8 285.231 1380.46 288.001C1378.2 292.649 1377.83 296.809 1379.35 300.48C1380.86 304.15 1383.26 306.778 1386.52 308.363C1390.28 310.189 1394.2 310.808 1398.28 310.22C1402.45 309.68 1406.06 308.434 1409.08 306.481L1420.49 284.516ZM1396.66 240.31C1402.75 239.109 1407.96 238.828 1412.3 239.466C1416.64 240.105 1420.78 241.385 1424.74 243.307C1428.3 245.036 1431.31 247.165 1433.75 249.694C1436.23 252.124 1438.04 254.833 1439.15 257.82C1440.32 260.708 1440.82 263.825 1440.66 267.17C1440.55 270.417 1439.7 273.673 1438.12 276.936C1435.38 282.574 1432.54 288.164 1429.6 293.705C1426.71 299.148 1423.75 304.984 1420.73 311.215C1420.15 312.402 1419.52 313.688 1418.85 315.073C1418.33 316.407 1418 317.714 1417.86 318.994C1417.78 320.175 1417.91 321.28 1418.27 322.308C1418.73 323.385 1419.7 324.284 1421.18 325.004C1421.68 325.244 1422.17 325.484 1422.66 325.725C1423.31 325.914 1423.95 325.98 1424.59 325.924L1423 329.188C1421.67 329.154 1420.09 328.877 1418.27 328.357C1416.54 327.885 1414.69 327.169 1412.71 326.208C1409.54 324.671 1407.5 322.703 1406.59 320.304C1405.72 317.806 1405.77 315.199 1406.72 312.483C1401.43 314.314 1396.64 315.23 1392.36 315.23C1388.08 315.23 1383.41 314.005 1378.37 311.555C1375.89 310.354 1373.64 308.831 1371.6 306.986C1369.56 305.141 1367.98 302.971 1366.87 300.476C1365.86 298.028 1365.29 295.429 1365.16 292.676C1365.18 289.873 1365.88 287.037 1367.28 284.169C1370.16 278.235 1374.22 274.524 1379.47 273.038C1384.82 271.599 1391.02 271.921 1398.08 274.004C1403.86 275.708 1408.38 276.984 1411.63 277.831C1415.04 278.628 1417.6 279.017 1419.32 278.997C1421.14 279.025 1422.42 278.666 1423.15 277.92C1423.92 277.075 1424.67 275.911 1425.4 274.427C1426.6 271.955 1427.45 269.437 1427.96 266.874C1428.48 264.311 1428.5 261.876 1428.03 259.57C1427.56 257.265 1426.53 255.113 1424.93 253.115C1423.38 251.018 1421.12 249.249 1418.15 247.808C1414.19 245.887 1410.05 244.975 1405.72 245.074C1401.49 245.221 1397.77 246.469 1394.54 248.817L1392.91 248.025L1396.66 240.31Z" fill="#FBFAF7"/>
</svg>
