<svg width="489" height="1714" viewBox="0 0 489 1714" fill="none" xmlns="http://www.w3.org/2000/svg">
<path d="M246.5 17C-38 17 -357 374.062 -357 797.209C-357 867.386 -291.532 732.639 -277.66 797.209C-277.66 797.209 -517 1694 244.5 1694C1006 1694 821.083 737.826 821.083 737.826C834.956 673.256 846 867.386 846 797.209C846 374.062 531 17 246.5 17Z" fill="#F1EFE9"/>
<path d="M-276.192 797.082L-276.13 797.376L-276.192 797.082ZM-276.192 797.082C-276.48 795.709 -276.792 794.418 -277.126 793.206L-278.572 793.604C-279.334 790.833 -280.21 788.511 -281.186 786.59L-279.848 785.911C-281.296 783.061 -283.005 780.945 -284.981 779.534L-285.853 780.755C-288.008 779.215 -290.415 778.714 -293.004 779.008L-293.173 777.517C-295.66 777.8 -298.221 778.732 -300.79 780.072L-300.096 781.402C-302.165 782.481 -304.297 783.867 -306.468 785.467L-307.358 784.259C-309.34 785.72 -311.344 787.35 -313.349 789.076L-312.37 790.212C-314.237 791.819 -316.114 793.519 -317.985 795.256L-319.006 794.157C-320.858 795.876 -322.703 797.631 -324.522 799.362L-323.488 800.448C-323.617 800.572 -323.746 800.695 -323.875 800.818C-325.598 802.458 -327.301 804.08 -328.972 805.638L-329.995 804.541C-331.913 806.33 -333.78 808.026 -335.579 809.565L-334.604 810.705C-336.685 812.485 -338.684 814.065 -340.574 815.342L-341.414 814.099C-343.825 815.727 -345.911 816.748 -347.648 817.09L-347.358 818.562C-349.981 819.078 -352.179 818.341 -353.811 815.85L-352.557 815.028C-353.451 813.663 -354.22 811.553 -354.746 808.454L-356.225 808.705C-356.579 806.618 -356.817 804.164 -356.928 801.305L-355.429 801.247C-355.476 800.039 -355.5 798.754 -355.5 797.39C-355.5 796.048 -355.497 794.706 -355.491 793.365L-356.991 793.358C-356.978 790.67 -356.954 787.985 -356.917 785.303L-355.417 785.324C-355.38 782.646 -355.331 779.971 -355.27 777.298L-356.77 777.264C-356.709 774.587 -356.635 771.913 -356.55 769.242L-355.051 769.29C-354.966 766.624 -354.868 763.96 -354.759 761.299L-356.258 761.237C-356.148 758.56 -356.026 755.886 -355.892 753.215L-354.394 753.291C-354.26 750.611 -354.113 747.935 -353.955 745.262L-355.452 745.173C-355.294 742.496 -355.123 739.821 -354.94 737.15L-353.444 737.252C-353.262 734.585 -353.067 731.922 -352.861 729.261L-354.357 729.146C-354.151 726.481 -353.932 723.82 -353.703 721.161L-352.208 721.291C-351.978 718.625 -351.735 715.964 -351.481 713.305L-352.974 713.163C-352.719 710.488 -352.451 707.817 -352.172 705.15L-350.68 705.306C-350.401 702.643 -350.111 699.984 -349.809 697.328L-351.299 697.159C-350.996 694.498 -350.682 691.842 -350.356 689.189L-348.867 689.372C-348.542 686.724 -348.205 684.079 -347.856 681.438L-349.343 681.242C-348.992 678.584 -348.63 675.93 -348.256 673.28L-346.771 673.49C-346.396 670.835 -346.01 668.183 -345.612 665.536L-347.096 665.313C-346.697 662.662 -346.288 660.014 -345.866 657.37L-344.385 657.606C-343.964 654.967 -343.532 652.332 -343.089 649.701L-344.568 649.452C-344.124 646.817 -343.669 644.185 -343.202 641.559L-341.725 641.821C-341.257 639.184 -340.777 636.551 -340.286 633.923L-341.761 633.648C-341.268 631.008 -340.763 628.373 -340.248 625.742L-338.776 626.03C-338.261 623.404 -337.735 620.782 -337.198 618.165L-338.667 617.863C-338.129 615.241 -337.58 612.624 -337.02 610.012L-335.553 610.326C-334.994 607.718 -334.424 605.114 -333.842 602.515L-335.306 602.188C-334.72 599.568 -334.123 596.952 -333.515 594.341L-332.054 594.681C-331.446 592.071 -330.827 589.466 -330.197 586.865L-331.655 586.512C-331.024 583.907 -330.382 581.307 -329.729 578.712L-328.275 579.078C-327.623 576.488 -326.96 573.902 -326.287 571.322L-327.739 570.943C-327.064 568.358 -326.379 565.779 -325.684 563.204L-324.236 563.596C-323.535 561.005 -322.824 558.419 -322.103 555.839L-323.547 555.435C-322.824 552.85 -322.091 550.271 -321.346 547.697L-319.905 548.114C-319.162 545.544 -318.409 542.98 -317.645 540.421L-319.082 539.992C-318.317 537.429 -317.541 534.872 -316.754 532.32L-315.321 532.762C-314.534 530.209 -313.738 527.663 -312.93 525.122L-314.36 524.668C-313.546 522.106 -312.722 519.551 -311.887 517.001L-310.462 517.467C-309.628 514.922 -308.785 512.382 -307.931 509.848L-309.352 509.369C-308.497 506.831 -307.631 504.299 -306.755 501.773L-305.338 502.265C-304.464 499.743 -303.579 497.227 -302.684 494.718L-304.097 494.214C-303.198 491.69 -302.288 489.172 -301.367 486.66L-299.959 487.176C-299.036 484.657 -298.104 482.145 -297.161 479.639L-298.565 479.111C-297.621 476.601 -296.666 474.097 -295.702 471.6L-294.303 472.14C-293.34 469.647 -292.367 467.161 -291.385 464.681L-292.779 464.128C-291.795 461.644 -290.801 459.167 -289.798 456.696L-288.408 457.261C-287.399 454.777 -286.38 452.299 -285.351 449.829L-286.736 449.252C-285.703 446.773 -284.661 444.301 -283.609 441.835L-282.23 442.424C-281.18 439.963 -280.12 437.508 -279.05 435.061L-280.425 434.46C-279.354 432.009 -278.273 429.565 -277.183 427.128L-275.813 427.74C-274.724 425.304 -273.624 422.875 -272.516 420.453L-273.879 419.829C-272.76 417.384 -271.631 414.946 -270.492 412.515L-269.134 413.151C-267.997 410.725 -266.851 408.306 -265.696 405.894L-267.048 405.246C-265.891 402.83 -264.724 400.422 -263.548 398.022L-262.201 398.682C-261.027 396.285 -259.844 393.897 -258.652 391.516L-259.993 390.844C-258.793 388.447 -257.583 386.057 -256.364 383.676L-255.029 384.359C-253.806 381.97 -252.575 379.589 -251.334 377.216L-252.663 376.521C-251.42 374.145 -250.168 371.776 -248.907 369.416L-247.584 370.122C-246.326 367.766 -245.058 365.417 -243.781 363.077L-245.098 362.359C-243.819 360.015 -242.532 357.679 -241.236 355.352L-239.925 356.082C-238.618 353.735 -237.302 351.396 -235.977 349.066L-237.281 348.325C-235.953 345.99 -234.617 343.664 -233.272 341.347L-231.974 342.1C-230.631 339.786 -229.28 337.482 -227.92 335.186L-229.21 334.421C-227.848 332.121 -226.477 329.83 -225.097 327.549L-223.813 328.325C-222.429 326.035 -221.037 323.755 -219.636 321.484L-220.913 320.696C-219.501 318.407 -218.08 316.127 -216.651 313.856L-215.381 314.655C-213.955 312.388 -212.52 310.13 -211.076 307.882L-212.339 307.072C-210.893 304.82 -209.439 302.577 -207.977 300.344L-206.722 301.166C-205.262 298.937 -203.794 296.717 -202.318 294.507L-203.566 293.674C-202.07 291.434 -200.566 289.205 -199.054 286.985L-197.814 287.829C-196.304 285.613 -194.786 283.406 -193.26 281.209L-194.492 280.353C-192.963 278.153 -191.427 275.963 -189.882 273.782L-188.658 274.65C-187.116 272.473 -185.567 270.307 -184.009 268.151L-185.225 267.273C-183.654 265.098 -182.075 262.933 -180.488 260.779L-179.28 261.669C-177.687 259.507 -176.086 257.355 -174.478 255.214L-175.677 254.313C-174.066 252.168 -172.447 250.034 -170.82 247.911L-169.629 248.824C-168.006 246.704 -166.374 244.596 -164.736 242.499L-165.918 241.575C-164.272 239.468 -162.618 237.373 -160.958 235.288L-159.785 236.223C-158.108 234.12 -156.425 232.027 -154.734 229.947L-155.898 229.001C-154.204 226.916 -152.503 224.844 -150.795 222.782L-149.64 223.74C-147.935 221.682 -146.222 219.636 -144.502 217.602L-145.648 216.634C-143.925 214.596 -142.195 212.57 -140.459 210.556L-139.323 211.536C-137.566 209.499 -135.803 207.475 -134.033 205.463L-135.159 204.472C-133.383 202.453 -131.599 200.447 -129.809 198.453L-128.693 199.455C-126.906 197.465 -125.113 195.487 -123.312 193.522L-124.418 192.508C-122.615 190.539 -120.804 188.583 -118.987 186.64L-117.891 187.664C-116.059 185.704 -114.221 183.758 -112.375 181.824L-113.461 180.789C-111.602 178.841 -109.737 176.907 -107.865 174.986L-106.791 176.033C-104.923 174.116 -103.048 172.212 -101.168 170.322L-102.231 169.264C-100.346 167.37 -98.4556 165.49 -96.5586 163.623L-95.5065 164.692C-93.5982 162.814 -91.6837 160.95 -89.7631 159.1L-90.8037 158.02C-88.8632 156.151 -86.9163 154.295 -84.9634 152.455L-83.9345 153.546C-81.9855 151.709 -80.0305 149.886 -78.0696 148.078L-79.0865 146.976C-77.1215 145.164 -75.1506 143.366 -73.1739 141.583L-72.1693 142.697C-70.1839 140.906 -68.1927 139.13 -66.1959 137.369L-67.188 136.244C-65.1657 134.461 -63.1376 132.692 -61.1038 130.939L-60.1245 132.076C-58.0951 130.326 -56.06 128.593 -54.0195 126.874L-54.9857 125.727C-52.9408 124.005 -50.8904 122.298 -48.8346 120.607L-47.8817 121.766C-45.818 120.068 -43.7488 118.387 -41.6745 116.721L-42.6137 115.551C-40.5103 113.862 -38.4016 112.19 -36.2876 110.534L-35.3625 111.714C-33.2534 110.062 -31.1391 108.426 -29.0198 106.807L-29.9305 105.615C-27.8065 103.992 -25.6774 102.385 -23.5435 100.796L-22.6474 101.999C-20.5035 100.402 -18.3548 98.8218 -16.2014 97.259L-17.0825 96.045C-14.899 94.4604 -12.7108 92.8935 -10.5179 91.3442L-9.65237 92.5693C-7.46472 91.0238 -5.27246 89.4959 -3.07581 87.986L-3.92551 86.7498C-1.72351 85.2362 0.482971 83.7405 2.6937 82.2628L3.52725 83.5099C5.75296 82.0222 7.98294 80.5529 10.2171 79.1021L9.40012 77.8441C11.6619 76.3753 13.9279 74.9255 16.198 73.4947L16.9978 74.7637C19.2621 73.3365 21.5304 71.9285 23.8025 70.5396L23.0202 69.2598C25.2982 67.8673 27.58 66.4941 29.8655 65.1402L30.63 66.4308C32.9391 65.063 35.2518 63.7151 37.5681 62.3873L36.822 61.086C39.1596 59.7459 41.5008 58.4262 43.8454 57.1269L44.5724 58.439C46.9106 57.1433 49.2522 55.8681 51.5969 54.6135L50.8892 53.2909C53.2404 52.0329 55.5948 50.7955 57.9522 49.579L58.6401 50.9119C61.0332 49.677 63.4293 48.4637 65.8282 47.2721L65.1609 45.9287C67.5707 44.7317 69.9834 43.5566 72.3987 42.4035L73.045 43.7572C75.4532 42.6075 77.8641 41.4798 80.2773 40.3743L79.6526 39.0106C82.0845 37.8966 84.5189 36.805 86.9555 35.736L87.5582 37.1096C90.0231 36.0283 92.4902 34.9702 94.9594 33.9355L94.3797 32.5521C96.8565 31.5142 99.3355 30.4998 101.816 29.509L102.373 30.9021C104.846 29.9145 107.32 28.9505 109.797 28.0104L109.264 26.6081C111.779 25.6535 114.295 24.7234 116.812 23.818L117.32 25.2295C119.846 24.3209 122.373 23.4373 124.902 22.5788L124.42 21.1585C126.957 20.2971 129.495 19.4609 132.035 18.6501L132.491 20.079C135.026 19.2696 137.562 18.4855 140.099 17.7271L139.669 16.29C142.256 15.5167 144.843 14.77 147.431 14.05L147.833 15.4951C150.411 14.7777 152.99 14.0869 155.569 13.423L155.195 11.9704C157.783 11.3041 160.372 10.6648 162.961 10.0526L163.306 11.5123C165.911 10.8962 168.517 10.3078 171.121 9.74722L170.806 8.28079C173.436 7.71468 176.067 7.17686 178.696 6.66756L178.982 8.1402C181.601 7.63288 184.22 7.154 186.838 6.70376L186.583 5.22546C189.219 4.77212 191.855 4.34768 194.489 3.95239L194.711 5.43579C197.364 5.03771 200.015 4.66933 202.665 4.33087L202.475 2.84295C205.136 2.50309 207.795 2.19327 210.453 1.91371L210.61 3.40548C213.257 3.12709 215.902 2.87886 218.544 2.66101L218.421 1.16608C221.1 0.945257 223.777 0.755512 226.452 0.597088L226.54 2.09446C229.208 1.93644 231.874 1.80972 234.536 1.71455L234.483 0.215503C237.157 0.119908 239.829 0.0559938 242.499 0.0240062L242.516 1.5239C243.845 1.50798 245.173 1.5 246.5 1.5C247.825 1.5 249.151 1.50795 250.477 1.52382L250.495 0.0239308C253.159 0.0558115 255.826 0.119505 258.494 0.214769L258.441 1.71381C261.098 1.80866 263.757 1.93494 266.419 2.09241L266.507 0.595029C269.176 0.752929 271.846 0.942053 274.519 1.16216L274.395 2.6571C277.033 2.87437 279.673 3.12196 282.314 3.39965L282.471 1.90788C285.123 2.18674 287.776 2.49582 290.431 2.83487L290.241 4.32278C292.885 4.66044 295.53 5.02796 298.175 5.42511L298.398 3.94173C301.027 4.33637 303.657 4.76014 306.287 5.21281L306.033 6.69109C308.645 7.14066 311.258 7.61887 313.872 8.12549L314.157 6.65291C316.781 7.16152 319.405 7.69864 322.029 8.26403L321.713 9.73038C324.312 10.2904 326.911 10.8784 329.511 11.494L329.856 10.0343C332.44 10.6462 335.023 11.2852 337.605 11.9512L337.23 13.4037C339.803 14.0672 342.376 14.7576 344.948 15.4748L345.351 14.0299C347.932 14.7496 350.512 15.4961 353.092 16.2692L352.661 17.706C355.193 18.4646 357.723 19.2489 360.252 20.0587L360.71 18.6301C363.243 19.4411 365.775 20.2776 368.306 21.1393L367.822 22.5592C370.344 23.418 372.865 24.302 375.384 25.2109L375.893 23.8C378.404 24.706 380.914 25.6368 383.421 26.5921L382.887 27.9939C385.357 28.9348 387.826 29.8997 390.292 30.8882L390.85 29.4959C393.324 30.4876 395.796 31.503 398.266 32.542L397.684 33.9247C400.146 34.9604 402.606 36.0196 405.063 37.1022L405.668 35.7295C408.098 36.7999 410.525 37.893 412.95 39.0087L412.323 40.3714C414.729 41.4784 417.133 42.6078 419.534 43.7592L420.182 42.4067C422.591 43.5616 424.996 44.7385 427.398 45.9374L426.728 47.2795C429.119 48.4729 431.507 49.6881 433.892 50.925L434.582 49.5934C436.932 50.8122 439.279 52.0519 441.622 53.3123L440.912 54.6334C443.249 55.8903 445.582 57.1679 447.913 58.4661L448.643 57.1557C450.979 58.4575 453.312 59.7798 455.641 61.1226L454.892 62.4221C457.2 63.7523 459.503 65.1027 461.803 66.473L462.571 65.1843C464.848 66.5411 467.122 67.9173 469.391 69.3128L468.606 70.5906C470.869 71.9825 473.129 73.3936 475.384 74.8239L476.187 73.5572C478.449 74.9911 480.706 76.4442 482.958 77.9163L482.138 79.172C484.362 80.6256 486.582 82.0978 488.798 83.5884L489.635 82.3438C491.837 83.825 494.034 85.3242 496.227 86.8415L495.373 88.075C497.561 89.5885 499.743 91.1199 501.921 92.6692L502.791 91.4469C504.974 92.9998 507.153 94.5706 509.326 96.1591L508.441 97.3701C510.584 98.936 512.722 100.519 514.855 102.119L515.755 100.919C517.879 102.513 519.998 104.123 522.112 105.75L521.197 106.939C523.306 108.562 525.41 110.202 527.509 111.859L528.438 110.681C530.542 112.341 532.64 114.018 534.733 115.712L533.79 116.878C535.852 118.547 537.91 120.231 539.962 121.932L540.919 120.777C542.964 122.472 545.004 124.183 547.038 125.909L546.067 127.053C548.097 128.776 550.121 130.514 552.139 132.267L553.123 131.135C555.146 132.892 557.163 134.665 559.174 136.453L558.177 137.574C560.161 139.338 562.14 141.117 564.113 142.911L565.122 141.802C567.087 143.589 569.047 145.391 571 147.207L569.979 148.305C571.928 150.118 573.871 151.945 575.809 153.787L576.842 152.7C578.783 154.545 580.718 156.404 582.647 158.278L581.602 159.354C583.509 161.207 585.41 163.074 587.305 164.955L588.362 163.89C590.247 165.762 592.125 167.646 593.998 169.545L592.93 170.598C594.798 172.493 596.661 174.401 598.516 176.322L599.595 175.28C601.455 177.205 603.307 179.144 605.154 181.096L604.064 182.127C605.895 184.063 607.72 186.012 609.538 187.975L610.638 186.955C612.442 188.903 614.24 190.864 616.031 192.837L614.92 193.845C616.708 195.814 618.489 197.796 620.263 199.791L621.384 198.794C623.161 200.792 624.931 202.803 626.695 204.826L625.564 205.812C627.32 207.827 629.068 209.853 630.81 211.893L631.951 210.918C633.674 212.936 635.391 214.966 637.1 217.008L635.95 217.971C637.657 220.009 639.356 222.058 641.048 224.12L642.207 223.168C643.902 225.233 645.59 227.31 647.271 229.399L646.102 230.339C647.78 232.424 649.45 234.52 651.112 236.628L652.29 235.699C653.936 237.785 655.574 239.882 657.205 241.991L656.018 242.909C657.643 245.009 659.261 247.121 660.871 249.244L662.066 248.338C663.679 250.464 665.284 252.602 666.882 254.75L665.678 255.645C667.273 257.79 668.86 259.946 670.44 262.112L671.652 261.228C673.223 263.383 674.787 265.549 676.343 267.726L675.123 268.598C676.666 270.757 678.202 272.926 679.73 275.106L680.958 274.245C682.489 276.428 684.011 278.622 685.526 280.825L684.29 281.675C685.802 283.875 687.306 286.085 688.802 288.305L690.046 287.466C691.543 289.687 693.031 291.918 694.512 294.159L693.26 294.986C694.722 297.198 696.176 299.42 697.621 301.652L698.88 300.837C700.328 303.072 701.768 305.317 703.2 307.572L701.934 308.376C703.363 310.627 704.784 312.887 706.196 315.157L707.47 314.364C708.885 316.637 710.291 318.92 711.689 321.212L710.409 321.993C711.794 324.265 713.172 326.545 714.54 328.835L715.828 328.065C717.193 330.349 718.55 332.642 719.898 334.944L718.604 335.702C719.95 338 721.287 340.306 722.616 342.622L723.917 341.875C725.248 344.194 726.571 346.522 727.885 348.859L726.577 349.594C727.887 351.924 729.188 354.263 730.48 356.609L731.794 355.886C733.076 358.215 734.349 360.552 735.614 362.897L734.294 363.609C735.556 365.95 736.81 368.3 738.055 370.657L739.381 369.957C740.628 372.319 741.866 374.689 743.095 377.067L741.762 377.755C742.989 380.129 744.207 382.511 745.416 384.902L746.754 384.225C747.958 386.605 749.153 388.994 750.339 391.39L748.995 392.055C750.173 394.437 751.342 396.826 752.503 399.223L753.853 398.569C755.015 400.97 756.168 403.379 757.312 405.795L755.956 406.436C757.098 408.848 758.23 411.268 759.353 413.695L760.715 413.065C761.84 415.496 762.955 417.935 764.062 420.38L762.695 420.999C763.789 423.418 764.874 425.846 765.95 428.28L767.322 427.673C768.399 430.11 769.466 432.554 770.524 435.005L769.147 435.599C770.203 438.046 771.25 440.5 772.287 442.961L773.669 442.379C774.708 444.844 775.737 447.316 776.756 449.795L775.369 450.365C776.384 452.834 777.389 455.309 778.385 457.791L779.777 457.232C780.768 459.702 781.749 462.178 782.72 464.661L781.323 465.208C782.293 467.687 783.253 470.172 784.203 472.664L785.605 472.13C786.557 474.626 787.499 477.128 788.431 479.637L787.024 480.159C787.955 482.664 788.875 485.175 789.786 487.692L791.196 487.182C792.104 489.691 793.001 492.206 793.888 494.727L792.473 495.225C793.356 497.733 794.228 500.247 795.091 502.767L796.51 502.281C797.374 504.805 798.228 507.335 799.071 509.871L797.648 510.344C798.49 512.876 799.322 515.414 800.144 517.958L801.572 517.497C802.395 520.044 803.208 522.598 804.01 525.157L802.579 525.606C803.374 528.143 804.16 530.686 804.935 533.234L806.37 532.798C807.145 535.347 807.91 537.902 808.664 540.462L807.226 540.886C807.979 543.442 808.722 546.003 809.454 548.57L810.897 548.159C811.63 550.73 812.353 553.306 813.066 555.888L811.62 556.287C812.331 558.863 813.031 561.445 813.721 564.032L815.171 563.646C815.856 566.217 816.531 568.793 817.195 571.374L815.743 571.748C816.406 574.325 817.059 576.907 817.701 579.494L819.157 579.133C819.8 581.724 820.432 584.321 821.054 586.922L819.595 587.271C820.216 589.868 820.825 592.47 821.424 595.076L822.886 594.741C823.485 597.347 824.073 599.957 824.65 602.573L823.185 602.896C823.758 605.491 824.319 608.091 824.87 610.695L826.338 610.385C826.889 612.993 827.43 615.606 827.96 618.224L826.49 618.521C827.019 621.135 827.537 623.752 828.043 626.375L829.516 626.09C830.024 628.717 830.521 631.348 831.006 633.983L829.531 634.255C830.014 636.878 830.486 639.505 830.947 642.137L832.425 641.878C832.884 644.5 833.332 647.127 833.769 649.757L832.29 650.003C832.726 652.629 833.151 655.26 833.565 657.894L835.047 657.661C835.462 660.3 835.865 662.943 836.257 665.59L834.773 665.81C835.165 668.452 835.545 671.099 835.913 673.749L837.399 673.542C837.767 676.187 838.123 678.835 838.468 681.487L836.981 681.68C837.324 684.316 837.655 686.956 837.976 689.599L839.465 689.418C839.786 692.066 840.095 694.717 840.393 697.372L838.902 697.539C839.199 700.19 839.485 702.844 839.76 705.501L841.252 705.347C841.526 708.01 841.79 710.675 842.041 713.344L840.548 713.485C840.797 716.137 841.036 718.793 841.263 721.453L842.757 721.325C842.983 723.978 843.198 726.634 843.401 729.293L841.905 729.407C842.108 732.062 842.299 734.72 842.478 737.381L843.975 737.28C844.154 739.946 844.322 742.614 844.478 745.286L842.981 745.374C843.136 748.041 843.28 750.712 843.412 753.386L844.911 753.312C845.042 755.977 845.162 758.645 845.27 761.316L843.771 761.376C843.879 764.031 843.974 766.689 844.058 769.35L845.557 769.303C845.641 771.968 845.714 774.636 845.774 777.307L844.274 777.341C844.334 780.008 844.382 782.677 844.418 785.349L845.918 785.328C845.955 788.005 845.979 790.684 845.991 793.366L844.491 793.372C844.497 794.711 844.5 796.05 844.5 797.39C844.5 797.977 844.499 798.546 844.498 799.096C844.496 799.917 844.492 800.698 844.486 801.44L845.986 801.451C845.962 804.786 845.905 807.343 845.816 809.212L844.318 809.141C844.302 809.471 844.286 809.776 844.269 810.057L844.262 810.058C843.916 808.166 843.522 805.512 843.083 802.302L844.569 802.099C844.255 799.803 843.918 797.221 843.558 794.425L842.07 794.616C841.866 793.026 841.654 791.368 841.435 789.656C841.318 788.735 841.198 787.799 841.077 786.849L842.565 786.659C842.247 784.173 841.915 781.594 841.57 778.961L840.083 779.156C839.751 776.621 839.408 774.036 839.053 771.438L840.539 771.234C840.188 768.665 839.826 766.08 839.453 763.513L837.968 763.729C837.591 761.13 837.202 758.551 836.803 756.027L838.285 755.793C837.867 753.148 837.438 750.562 836.997 748.073L835.52 748.335C835.048 745.669 834.564 743.119 834.068 740.733L835.537 740.428C834.952 737.613 834.348 735.013 833.726 732.713L832.278 733.105C831.455 730.058 830.605 727.567 829.731 725.824L831.072 725.152C830.622 724.255 830.126 723.458 829.568 722.847C829.019 722.247 828.29 721.696 827.368 721.567C826.387 721.429 825.525 721.811 824.847 722.4C824.196 722.965 823.639 723.777 823.142 724.738L824.474 725.427C823.657 727.006 822.827 729.41 821.985 732.76L820.53 732.395C820.226 733.608 819.921 734.938 819.615 736.391L819.563 736.638L-276.192 797.082ZM-278.312 800.981C-278.652 802.905 -279.114 805.583 -279.67 808.965L-278.19 809.209C-278.559 811.459 -278.971 814.022 -279.417 816.885L-280.899 816.654C-281.276 819.077 -281.677 821.714 -282.098 824.556L-280.614 824.776C-280.982 827.263 -281.365 829.907 -281.759 832.703L-283.245 832.493C-283.604 835.045 -283.974 837.722 -284.35 840.521L-282.863 840.721C-283.197 843.198 -283.535 845.771 -283.878 848.436L-285.365 848.245C-285.708 850.913 -286.055 853.673 -286.404 856.523L-284.915 856.705C-285.221 859.205 -285.528 861.774 -285.836 864.41L-287.326 864.235C-287.624 866.791 -287.923 869.41 -288.222 872.089L-286.731 872.255C-287.029 874.932 -287.326 877.669 -287.621 880.465L-289.113 880.308C-289.384 882.871 -289.653 885.484 -289.921 888.144L-288.428 888.294C-288.685 890.852 -288.939 893.453 -289.191 896.098L-290.684 895.956C-290.936 898.603 -291.186 901.293 -291.431 904.025L-289.937 904.16C-290.178 906.841 -290.416 909.564 -290.649 912.325L-292.144 912.199C-292.359 914.741 -292.57 917.316 -292.777 919.923L-291.282 920.042C-291.489 922.647 -291.692 925.284 -291.891 927.952L-293.386 927.84C-293.585 930.511 -293.779 933.213 -293.968 935.945L-292.471 936.048C-292.656 938.718 -292.836 941.417 -293.01 944.143L-294.507 944.047C-294.671 946.618 -294.831 949.214 -294.985 951.834L-293.487 951.922C-293.642 954.539 -293.79 957.18 -293.934 959.845L-295.431 959.764C-295.575 962.431 -295.712 965.122 -295.844 967.835L-294.346 967.908C-294.477 970.611 -294.602 973.337 -294.721 976.085L-296.219 976.02C-296.33 978.6 -296.436 981.199 -296.536 983.817L-295.037 983.874C-295.136 986.49 -295.23 989.123 -295.317 991.775L-296.816 991.726C-296.903 994.38 -296.984 997.052 -297.058 999.742L-295.559 999.783C-295.633 1002.47 -295.7 1005.17 -295.761 1007.9L-297.26 1007.86C-297.319 1010.51 -297.371 1013.18 -297.416 1015.86L-295.916 1015.88C-295.96 1018.49 -295.997 1021.12 -296.027 1023.75L-297.527 1023.74C-297.557 1026.38 -297.58 1029.03 -297.596 1031.7L-296.096 1031.7C-296.112 1034.37 -296.121 1037.05 -296.122 1039.74L-297.622 1039.74C-297.623 1042.43 -297.617 1045.13 -297.602 1047.85L-296.102 1047.85C-296.089 1050.48 -296.068 1053.12 -296.039 1055.77L-297.539 1055.79C-297.51 1058.42 -297.474 1061.05 -297.431 1063.7L-295.931 1063.67C-295.888 1066.32 -295.836 1068.97 -295.777 1071.64L-297.277 1071.67C-297.217 1074.34 -297.15 1077.02 -297.075 1079.7L-295.575 1079.66C-295.5 1082.35 -295.416 1085.04 -295.324 1087.74L-296.824 1087.79C-296.734 1090.43 -296.636 1093.08 -296.53 1095.73L-295.031 1095.67C-294.926 1098.3 -294.812 1100.94 -294.69 1103.58L-296.189 1103.65C-296.067 1106.3 -295.937 1108.96 -295.798 1111.62L-294.3 1111.54C-294.161 1114.2 -294.014 1116.87 -293.858 1119.54L-295.355 1119.63C-295.199 1122.3 -295.034 1124.99 -294.859 1127.68L-293.362 1127.58C-293.191 1130.22 -293.011 1132.88 -292.821 1135.53L-294.317 1135.64C-294.13 1138.27 -293.934 1140.91 -293.728 1143.55L-292.233 1143.44C-292.027 1146.08 -291.813 1148.72 -291.59 1151.37L-293.084 1151.5C-292.861 1154.15 -292.628 1156.81 -292.385 1159.47L-290.891 1159.34C-290.649 1162 -290.397 1164.66 -290.136 1167.33L-291.629 1167.47C-291.368 1170.13 -291.098 1172.79 -290.819 1175.46L-289.327 1175.3C-289.051 1177.92 -288.766 1180.55 -288.471 1183.18L-289.962 1183.35C-289.667 1185.99 -289.362 1188.62 -289.047 1191.27L-287.557 1191.09C-287.243 1193.73 -286.918 1196.37 -286.584 1199.01L-288.072 1199.2C-287.737 1201.85 -287.391 1204.49 -287.036 1207.15L-285.549 1206.95C-285.194 1209.59 -284.828 1212.24 -284.452 1214.9L-285.938 1215.11C-285.565 1217.73 -285.183 1220.36 -284.79 1222.99L-283.306 1222.76C-282.914 1225.38 -282.512 1228.01 -282.099 1230.63L-283.581 1230.86C-283.167 1233.49 -282.743 1236.12 -282.308 1238.74L-280.828 1238.5C-280.393 1241.12 -279.948 1243.75 -279.491 1246.37L-280.969 1246.63C-280.512 1249.26 -280.044 1251.89 -279.564 1254.52L-278.088 1254.25C-277.611 1256.87 -277.123 1259.48 -276.623 1262.1L-278.096 1262.38C-277.598 1264.99 -277.089 1267.6 -276.568 1270.21L-275.097 1269.91C-274.577 1272.52 -274.045 1275.12 -273.502 1277.72L-274.97 1278.03C-274.426 1280.63 -273.87 1283.24 -273.303 1285.84L-271.837 1285.52C-271.27 1288.12 -270.692 1290.72 -270.101 1293.32L-271.564 1293.65C-270.972 1296.25 -270.369 1298.85 -269.753 1301.45L-268.293 1301.1C-267.68 1303.69 -267.055 1306.27 -266.418 1308.85L-267.874 1309.21C-267.236 1311.79 -266.586 1314.37 -265.923 1316.95L-264.47 1316.58C-263.808 1319.15 -263.134 1321.72 -262.447 1324.29L-263.896 1324.68C-263.208 1327.25 -262.507 1329.82 -261.793 1332.39L-260.348 1331.99C-259.635 1334.55 -258.91 1337.11 -258.171 1339.66L-259.612 1340.08C-258.872 1342.64 -258.12 1345.19 -257.353 1347.74L-255.917 1347.31C-255.152 1349.86 -254.374 1352.4 -253.583 1354.94L-255.015 1355.39C-254.222 1357.93 -253.416 1360.47 -252.596 1363L-251.169 1362.54C-250.351 1365.07 -249.519 1367.59 -248.673 1370.11L-250.095 1370.59C-249.248 1373.11 -248.386 1375.63 -247.511 1378.15L-246.094 1377.65C-245.221 1380.16 -244.333 1382.67 -243.432 1385.16L-244.843 1385.67C-243.938 1388.18 -243.018 1390.68 -242.084 1393.18L-240.68 1392.65C-239.748 1395.14 -238.801 1397.63 -237.84 1400.11L-239.238 1400.65C-238.275 1403.13 -237.297 1405.61 -236.305 1408.08L-234.913 1407.52C-233.922 1409.99 -232.917 1412.45 -231.897 1414.9L-233.281 1415.47C-232.259 1417.93 -231.221 1420.38 -230.168 1422.83L-228.791 1422.23C-227.739 1424.67 -226.673 1427.1 -225.591 1429.53L-226.961 1430.14C-225.874 1432.57 -224.771 1435 -223.653 1437.42L-222.292 1436.79C-221.177 1439.2 -220.046 1441.61 -218.899 1444.01L-220.252 1444.65C-219.102 1447.06 -217.937 1449.45 -216.755 1451.84L-215.411 1451.17C-214.233 1453.55 -213.038 1455.92 -211.827 1458.28L-213.162 1458.97C-211.948 1461.34 -210.718 1463.7 -209.471 1466.04L-208.146 1465.34C-206.9 1467.69 -205.638 1470.03 -204.36 1472.35L-205.674 1473.08C-204.391 1475.41 -203.092 1477.74 -201.775 1480.05L-200.471 1479.31C-199.158 1481.62 -197.828 1483.92 -196.482 1486.21L-197.774 1486.97C-196.424 1489.27 -195.056 1491.55 -193.671 1493.82L-192.39 1493.04C-191.009 1495.31 -189.61 1497.57 -188.195 1499.81L-189.463 1500.61C-188.043 1502.86 -186.606 1505.1 -185.151 1507.33L-183.895 1506.51C-182.444 1508.74 -180.976 1510.95 -179.49 1513.15L-180.733 1513.99C-179.242 1516.19 -177.734 1518.38 -176.207 1520.57L-174.978 1519.71C-173.456 1521.88 -171.916 1524.04 -170.358 1526.19L-171.573 1527.07C-170.01 1529.23 -168.429 1531.37 -166.829 1533.51L-165.629 1532.6C-164.034 1534.73 -162.421 1536.84 -160.79 1538.94L-161.974 1539.86C-160.343 1541.96 -158.693 1544.04 -157.025 1546.11L-155.857 1545.17C-154.196 1547.24 -152.516 1549.28 -150.817 1551.32L-151.969 1552.28C-150.265 1554.32 -148.542 1556.35 -146.8 1558.36L-145.665 1557.38C-143.929 1559.39 -142.174 1561.38 -140.399 1563.36L-141.516 1564.36C-139.735 1566.35 -137.936 1568.32 -136.117 1570.28L-135.018 1569.25C-133.21 1571.2 -131.383 1573.13 -129.536 1575.04L-130.616 1576.08C-128.778 1577.99 -126.922 1579.88 -125.045 1581.75L-123.985 1580.69C-122.116 1582.56 -120.227 1584.42 -118.318 1586.25L-119.359 1587.33C-117.444 1589.18 -115.509 1591.01 -113.555 1592.82L-112.534 1591.72C-110.587 1593.53 -108.62 1595.32 -106.633 1597.1L-107.632 1598.21C-105.638 1600 -103.624 1601.76 -101.59 1603.51L-100.612 1602.37C-98.6108 1604.09 -96.5904 1605.8 -94.5503 1607.49L-95.5066 1608.64C-93.473 1610.32 -91.4198 1611.99 -89.3469 1613.64L-88.4126 1612.47C-86.3471 1614.11 -84.262 1615.74 -82.1571 1617.35L-83.069 1618.54C-80.9565 1620.16 -78.8242 1621.76 -76.6718 1623.35L-75.7829 1622.14C-73.6382 1623.72 -71.4735 1625.28 -69.2888 1626.82L-70.1544 1628.05C-67.9618 1629.59 -65.7489 1631.13 -63.5156 1632.64L-62.6738 1631.4C-60.511 1632.87 -58.3291 1634.32 -56.1277 1635.75L-56.9462 1637.01C-54.7396 1638.44 -52.5136 1639.86 -50.2681 1641.27L-49.4734 1639.99C-47.2359 1641.39 -44.9789 1642.77 -42.7023 1644.13L-43.4728 1645.42C-41.1881 1646.79 -38.8836 1648.14 -36.5594 1649.47L-35.8132 1648.17C-33.4971 1649.5 -31.1612 1650.81 -28.8053 1652.1L-29.5268 1653.42C-27.1711 1654.71 -24.7955 1655.98 -22.3999 1657.24L-21.7032 1655.91C-19.4022 1657.12 -17.0826 1658.31 -14.7443 1659.48L-15.4169 1660.82C-13.0706 1662 -10.7055 1663.16 -8.3215 1664.3L-7.67322 1662.95C-5.29736 1664.09 -2.90265 1665.21 -0.488953 1666.31L-1.11276 1667.68C1.30914 1668.79 3.75006 1669.88 6.21017 1670.95L6.80945 1669.57C9.26132 1670.64 11.7323 1671.69 14.2227 1672.72L13.6481 1674.11C16.1466 1675.15 18.6645 1676.16 21.2018 1677.16L21.7516 1675.77C24.1578 1676.72 26.5817 1677.65 29.0232 1678.56L28.497 1679.97C30.9435 1680.88 33.4076 1681.78 35.8896 1682.67L36.3922 1681.25C38.8664 1682.13 41.3583 1683 43.8681 1683.84L43.389 1685.26C45.9067 1686.11 48.4424 1686.94 50.9961 1687.76L51.4516 1686.33C53.9974 1687.14 56.5612 1687.93 59.1432 1688.71L58.7113 1690.15C61.3012 1690.93 63.9092 1691.69 66.5356 1692.43L66.9441 1690.99C69.4787 1691.7 72.0304 1692.4 74.5995 1693.09L74.2136 1694.54C76.7189 1695.21 79.2405 1695.86 81.7785 1696.49L82.1424 1695.04C84.6731 1695.67 87.2203 1696.29 89.7839 1696.89L89.4419 1698.35C92.0128 1698.95 94.6002 1699.53 97.2042 1700.1L97.5245 1698.64C100.121 1699.21 102.735 1699.76 105.365 1700.29L105.066 1701.76C107.704 1702.3 110.358 1702.82 113.028 1703.32L113.306 1701.84C115.969 1702.35 118.65 1702.83 121.347 1703.3L121.091 1704.78C123.668 1705.22 126.261 1705.65 128.868 1706.07L129.104 1704.59C131.653 1704.99 134.216 1705.38 136.795 1705.76L136.579 1707.24C139.163 1707.62 141.763 1707.98 144.378 1708.33L144.575 1706.84C147.183 1707.19 149.806 1707.52 152.445 1707.83L152.267 1709.32C154.912 1709.63 157.572 1709.93 160.247 1710.22L160.406 1708.73C163.074 1709.01 165.758 1709.28 168.457 1709.53L168.318 1711.02C171.023 1711.28 173.744 1711.51 176.48 1711.74L176.601 1710.24C179.253 1710.46 181.921 1710.66 184.603 1710.84L184.5 1712.34C187.066 1712.51 189.645 1712.68 192.238 1712.82L192.324 1711.33C194.911 1711.47 197.511 1711.61 200.125 1711.73L200.056 1713.23C202.675 1713.35 205.308 1713.46 207.954 1713.55L208.006 1712.05C210.647 1712.14 213.301 1712.22 215.969 1712.28L215.933 1713.78C218.606 1713.85 221.292 1713.9 223.992 1713.93L224.012 1712.43C226.707 1712.47 229.415 1712.49 232.138 1712.5L232.134 1714C234.861 1714 237.602 1714 240.357 1713.97L240.345 1712.47C241.72 1712.46 243.098 1712.45 244.48 1712.43C245.856 1712.41 247.229 1712.39 248.598 1712.36L248.627 1713.86C251.372 1713.81 254.104 1713.74 256.823 1713.66L256.778 1712.16C259.492 1712.08 262.193 1711.99 264.881 1711.88L264.943 1713.38C267.637 1713.26 270.318 1713.14 272.987 1713L272.909 1711.5C275.572 1711.36 278.222 1711.21 280.86 1711.04L280.956 1712.54C283.599 1712.37 286.231 1712.18 288.849 1711.99L288.736 1710.49C291.349 1710.29 293.95 1710.08 296.538 1709.86L296.668 1711.35C299.262 1711.13 301.843 1710.89 304.412 1710.63L304.265 1709.14C306.93 1708.88 309.582 1708.6 312.22 1708.3L312.386 1709.79C315.105 1709.49 317.809 1709.17 320.5 1708.84L320.315 1707.35C322.999 1707.02 325.669 1706.67 328.325 1706.3L328.529 1707.79C331.192 1707.42 333.841 1707.04 336.475 1706.65L336.252 1705.16C338.881 1704.77 341.495 1704.36 344.096 1703.93L344.339 1705.41C346.946 1704.98 349.539 1704.54 352.119 1704.08L351.857 1702.61C354.43 1702.15 356.99 1701.68 359.536 1701.19L359.818 1702.66C362.396 1702.17 364.961 1701.66 367.512 1701.14L367.21 1699.67C369.883 1699.12 372.54 1698.56 375.182 1697.97L375.504 1699.44C378.153 1698.86 380.787 1698.26 383.405 1697.64L383.062 1696.18C385.673 1695.57 388.27 1694.94 390.851 1694.29L391.216 1695.74C393.804 1695.09 396.378 1694.43 398.936 1693.75L398.551 1692.3C401.102 1691.62 403.639 1690.92 406.161 1690.21L406.568 1691.66C409.097 1690.94 411.611 1690.22 414.11 1689.47L413.682 1688.03C416.198 1687.28 418.698 1686.52 421.184 1685.74L421.634 1687.17C424.232 1686.35 426.813 1685.52 429.378 1684.67L428.906 1683.24C431.464 1682.4 434.006 1681.53 436.532 1680.65L437.026 1682.07C439.56 1681.18 442.077 1680.28 444.578 1679.36L444.062 1677.95C446.555 1677.04 449.033 1676.11 451.496 1675.16L452.034 1676.56C454.504 1675.61 456.958 1674.64 459.396 1673.66L458.835 1672.27C461.266 1671.29 463.68 1670.29 466.08 1669.28L466.663 1670.66C469.124 1669.62 471.569 1668.57 473.997 1667.5L473.392 1666.12C475.858 1665.04 478.308 1663.93 480.741 1662.81L481.369 1664.17C483.81 1663.04 486.233 1661.9 488.641 1660.74L487.99 1659.39C490.389 1658.24 492.772 1657.06 495.139 1655.87L495.812 1657.21C498.186 1656.02 500.544 1654.81 502.885 1653.59L502.189 1652.26C504.523 1651.04 506.84 1649.8 509.141 1648.55L509.859 1649.87C512.179 1648.6 514.484 1647.32 516.771 1646.03L516.032 1644.72C518.372 1643.39 520.695 1642.05 523.001 1640.69L523.762 1641.99C526.076 1640.62 528.372 1639.24 530.651 1637.85L529.867 1636.57C532.139 1635.18 534.394 1633.77 536.633 1632.34L537.438 1633.61C539.683 1632.18 541.912 1630.74 544.123 1629.28L543.297 1628.03C545.502 1626.57 547.69 1625.1 549.861 1623.61L550.709 1624.85C552.887 1623.36 555.049 1621.85 557.194 1620.33L556.326 1619.11C558.511 1617.56 560.679 1615.99 562.83 1614.41L563.718 1615.62C565.876 1614.03 568.017 1612.43 570.141 1610.81L569.232 1609.62C571.35 1608 573.45 1606.37 575.534 1604.73L576.463 1605.91C578.553 1604.26 580.627 1602.6 582.683 1600.92L581.735 1599.75C583.785 1598.08 585.819 1596.39 587.836 1594.69L588.804 1595.84C590.827 1594.13 592.834 1592.4 594.825 1590.67L593.839 1589.54C595.848 1587.78 597.841 1586.01 599.817 1584.23L600.822 1585.34C602.806 1583.55 604.773 1581.75 606.724 1579.93L605.701 1578.83C607.646 1577.02 609.574 1575.19 611.485 1573.35L612.526 1574.43C614.443 1572.58 616.344 1570.72 618.229 1568.85L617.171 1567.79C619.05 1565.92 620.913 1564.03 622.76 1562.14L623.834 1563.18C625.686 1561.28 627.522 1559.37 629.342 1557.44L628.251 1556.41C630.078 1554.47 631.889 1552.53 633.683 1550.56L634.79 1551.58C636.59 1549.61 638.374 1547.63 640.141 1545.64L639.019 1544.64C640.782 1542.65 642.529 1540.65 644.26 1538.64L645.397 1539.62C647.133 1537.6 648.853 1535.57 650.557 1533.53L649.406 1532.57C651.105 1530.53 652.789 1528.48 654.457 1526.42L655.623 1527.36C657.296 1525.29 658.954 1523.21 660.596 1521.12L659.417 1520.2C661.057 1518.11 662.683 1516.01 664.293 1513.9L665.486 1514.8C667.1 1512.69 668.7 1510.56 670.283 1508.42L669.078 1507.53C670.657 1505.39 672.222 1503.25 673.771 1501.09L674.99 1501.96C676.543 1499.8 678.081 1497.63 679.605 1495.45L678.375 1494.59C679.894 1492.41 681.399 1490.22 682.889 1488.02L684.13 1488.86C685.624 1486.66 687.103 1484.45 688.567 1482.22L687.314 1481.4C688.773 1479.18 690.218 1476.95 691.648 1474.72L692.912 1475.53C694.346 1473.28 695.765 1471.03 697.17 1468.77L695.896 1467.98C697.297 1465.73 698.684 1463.46 700.057 1461.19L701.341 1461.96C702.718 1459.68 704.08 1457.39 705.428 1455.1L704.134 1454.34C705.479 1452.05 706.809 1449.75 708.126 1447.44L709.429 1448.18C710.748 1445.87 712.054 1443.55 713.345 1441.22L712.033 1440.49C713.32 1438.17 714.593 1435.84 715.852 1433.5L717.172 1434.21C718.434 1431.87 719.683 1429.52 720.918 1427.16L719.589 1426.47C720.821 1424.11 722.04 1421.75 723.245 1419.38L724.582 1420.07C725.79 1417.69 726.985 1415.31 728.167 1412.92L726.822 1412.26C728.001 1409.88 729.167 1407.49 730.32 1405.09L731.672 1405.74C732.826 1403.34 733.968 1400.94 735.096 1398.52L733.737 1397.89C734.862 1395.48 735.975 1393.07 737.074 1390.65L738.439 1391.27C739.541 1388.85 740.63 1386.42 741.706 1383.99L740.334 1383.38C741.408 1380.95 742.47 1378.51 743.519 1376.07L744.897 1376.66C745.948 1374.22 746.987 1371.77 748.013 1369.31L746.629 1368.73C747.653 1366.28 748.665 1363.82 749.665 1361.36L751.055 1361.92C752.056 1359.45 753.046 1356.98 754.023 1354.5L752.628 1353.95C753.603 1351.48 754.567 1349 755.518 1346.52L756.919 1347.06C757.872 1344.57 758.813 1342.08 759.743 1339.58L758.337 1339.06C758.91 1337.52 759.478 1335.98 760.042 1334.44C760.392 1333.49 760.74 1332.53 761.086 1331.58L762.496 1332.09C763.402 1329.58 764.297 1327.08 765.18 1324.56L763.765 1324.07C764.646 1321.56 765.516 1319.05 766.374 1316.54L767.794 1317.02C768.655 1314.5 769.504 1311.98 770.342 1309.45L768.919 1308.98C769.757 1306.45 770.584 1303.92 771.399 1301.39L772.827 1301.85C773.644 1299.31 774.45 1296.77 775.245 1294.23L773.813 1293.78C774.606 1291.24 775.389 1288.7 776.161 1286.16L777.596 1286.59C778.369 1284.05 779.131 1281.5 779.882 1278.95L778.443 1278.52C779.193 1275.98 779.932 1273.43 780.661 1270.88L782.104 1271.29C782.836 1268.73 783.557 1266.16 784.268 1263.6L782.822 1263.19C783.534 1260.62 784.235 1258.05 784.927 1255.48L786.375 1255.87C787.067 1253.29 787.749 1250.72 788.42 1248.14L786.968 1247.76C787.638 1245.19 788.298 1242.61 788.948 1240.03L790.403 1240.4C791.053 1237.82 791.694 1235.24 792.324 1232.66L790.867 1232.3C791.497 1229.73 792.116 1227.15 792.726 1224.57L794.186 1224.92C794.8 1222.32 795.404 1219.72 795.999 1217.13L794.537 1216.79C795.133 1214.19 795.719 1211.58 796.296 1208.98L797.76 1209.3C798.337 1206.7 798.905 1204.09 799.463 1201.49L797.996 1201.17C798.553 1198.57 799.1 1195.97 799.638 1193.37L801.107 1193.67C801.645 1191.07 802.174 1188.47 802.694 1185.87L801.223 1185.57C801.742 1182.97 802.251 1180.38 802.752 1177.78L804.225 1178.07C804.732 1175.44 805.229 1172.81 805.718 1170.19L804.243 1169.91C804.733 1167.28 805.213 1164.65 805.683 1162.03L807.16 1162.29C807.631 1159.66 808.094 1157.03 808.547 1154.41L807.069 1154.15C807.521 1151.53 807.965 1148.91 808.4 1146.3L809.879 1146.54C810.314 1143.92 810.741 1141.31 811.158 1138.7L809.677 1138.46C810.094 1135.85 810.503 1133.24 810.903 1130.64L812.385 1130.86C812.794 1128.2 813.194 1125.54 813.585 1122.89L812.101 1122.67C812.492 1120.02 812.873 1117.37 813.246 1114.73L814.732 1114.94C815.105 1112.29 815.47 1109.65 815.826 1107.02L814.34 1106.82C814.696 1104.18 815.043 1101.55 815.382 1098.93L816.87 1099.12C817.209 1096.5 817.54 1093.88 817.863 1091.26L816.375 1091.08C816.701 1088.43 817.019 1085.8 817.329 1083.16L818.819 1083.34C819.134 1080.66 819.441 1077.99 819.74 1075.32L818.249 1075.15C818.547 1072.49 818.837 1069.83 819.119 1067.18L820.61 1067.34C820.893 1064.69 821.167 1062.04 821.432 1059.41L819.94 1059.26C820.206 1056.62 820.464 1053.99 820.714 1051.37L822.207 1051.51C822.457 1048.89 822.7 1046.28 822.934 1043.67L821.441 1043.53C821.684 1040.83 821.918 1038.14 822.145 1035.46L823.64 1035.59C823.868 1032.9 824.087 1030.23 824.299 1027.56L822.803 1027.44C823.015 1024.78 823.218 1022.12 823.415 1019.47L824.91 1019.58C825.107 1016.94 825.295 1014.3 825.477 1011.67L823.98 1011.57C824.161 1008.94 824.335 1006.32 824.502 1003.72L825.999 1003.82C826.171 1001.12 826.336 998.44 826.493 995.77L824.995 995.682C825.154 992.98 825.306 990.289 825.45 987.612L826.947 987.692C827.091 985.012 827.228 982.345 827.358 979.691L825.859 979.618C825.989 976.966 826.111 974.327 826.226 971.701L827.725 971.767C827.84 969.139 827.948 966.525 828.05 963.925L826.551 963.866C826.656 961.166 826.755 958.481 826.846 955.812L828.345 955.863C828.438 953.145 828.524 950.443 828.602 947.757L827.103 947.713C827.181 945.03 827.253 942.364 827.318 939.715L828.817 939.752C828.882 937.1 828.94 934.466 828.992 931.85L827.492 931.82C827.544 929.206 827.589 926.61 827.628 924.033L829.128 924.055C829.169 921.305 829.204 918.576 829.231 915.868L827.732 915.853C827.759 913.135 827.781 910.439 827.795 907.766L829.295 907.774C829.31 905.098 829.318 902.444 829.32 899.814L827.82 899.813C827.822 897.185 827.818 894.58 827.808 891.998L829.308 891.992C829.298 889.298 829.282 886.629 829.259 883.987L827.759 884C827.736 881.248 827.706 878.525 827.67 875.831L829.17 875.811C829.134 873.116 829.092 870.45 829.045 867.815L827.545 867.842C827.497 865.209 827.444 862.606 827.386 860.036L828.886 860.002C828.825 857.314 828.758 854.661 828.687 852.043L827.187 852.084C827.111 849.309 827.029 846.573 826.942 843.878L828.442 843.83C828.354 841.132 828.262 838.476 828.165 835.862L826.666 835.918C826.569 833.306 826.468 830.736 826.362 828.21L827.861 828.147C827.744 825.368 827.623 822.64 827.498 819.967L825.999 820.037C825.87 817.275 825.736 814.571 825.598 811.927L827.096 811.849C826.958 809.201 826.817 806.614 826.673 804.087L825.176 804.172C825.019 801.431 824.86 798.761 824.698 796.166L826.195 796.073C826.019 793.257 825.841 790.529 825.662 787.891L824.166 787.993C823.986 785.358 823.806 782.813 823.626 780.36L825.122 780.251C824.91 777.364 824.699 774.606 824.49 771.982L822.994 772.101C822.774 769.336 822.557 766.72 822.345 764.257L823.839 764.128C823.589 761.217 823.346 758.52 823.115 756.045L821.622 756.185C821.357 753.354 821.109 750.816 820.883 748.582L822.375 748.431C822.027 745.003 821.732 742.291 821.512 740.342L820.021 740.51C819.886 739.314 819.779 738.407 819.706 737.8C819.67 737.496 819.642 737.267 819.623 737.115L819.602 736.944L819.597 736.901L819.595 736.891L-278.312 800.981Z" stroke="#F1EFE9" stroke-width="3" stroke-dasharray="8 8"/>
<path d="M23.2011 98.3294C22.2102 96.3255 21.1958 94.3895 20.1579 92.5212C19.1356 90.6077 18.083 88.6713 17 86.7119C17.4293 86.5797 17.8432 86.4549 18.2417 86.3375C18.6253 86.1897 19.0013 86.0268 19.3698 85.8487C19.7383 85.6706 20.0994 85.4773 20.4529 85.2688C20.7914 85.03 21.1452 84.7837 21.5144 84.53C22.4132 86.5784 23.2969 88.5965 24.1656 90.5842C25.05 92.5267 25.9876 94.4999 26.9784 96.5038C28.8701 100.329 30.5294 103.647 31.9563 106.455C33.3682 109.234 34.6375 111.724 35.7641 113.926C37.9445 112.872 40.0253 111.847 42.0065 110.852C43.9727 109.827 46.0323 108.605 48.1855 107.189C48.3021 107.809 48.4506 108.302 48.6307 108.666C48.7959 109 49.0753 109.373 49.4691 109.785C48.0264 110.407 46.5987 111.059 45.186 111.742C43.7733 112.425 42.3606 113.107 40.948 113.79C39.4739 114.503 38.0458 115.193 36.6639 115.861C35.3126 116.514 33.9149 117.227 32.4709 118C31.6322 116.073 30.7632 114.123 29.8637 112.15C28.995 110.163 28.0653 108.167 27.0744 106.163L23.2011 98.3294Z" fill="#FBFAF7"/>
<path d="M62.2273 90.673C61.7699 91.0813 61.2047 91.4974 60.5317 91.9214C59.8903 92.3324 59.2396 92.7654 58.5798 93.2206C57.9068 93.6445 57.2535 94.1153 56.62 94.6328C56.018 95.1374 55.512 95.6939 55.102 96.3023C54.7236 96.8978 54.4792 97.5478 54.369 98.2523C54.2904 98.9439 54.4353 99.7263 54.8037 100.6C55.4221 102.066 56.3152 102.997 57.4828 103.395C58.6504 103.792 59.7548 103.776 60.796 103.347C61.9949 102.853 62.9451 102.076 63.6468 101.018C64.3801 99.9466 64.8307 98.8637 64.9986 97.7692L62.2273 90.673ZM47.025 87.1645C47.9974 85.5186 49.0041 84.2613 50.045 83.3927C51.086 82.5241 52.2375 81.8296 53.4995 81.3092C54.6352 80.8409 55.7487 80.5832 56.84 80.536C57.918 80.4577 58.9199 80.5938 59.8456 80.9445C60.7582 81.2639 61.588 81.7823 62.335 82.4996C63.0688 83.1856 63.6529 84.0433 64.0871 85.0727C64.8371 86.8506 65.5556 88.6415 66.2425 90.4455C66.9163 92.2182 67.6676 94.0872 68.4966 96.0523C68.6545 96.4266 68.8255 96.8321 69.0097 97.2687C69.2123 97.6612 69.4491 98.003 69.7201 98.2941C69.9778 98.554 70.2632 98.7475 70.5762 98.8748C70.9207 98.9891 71.3295 98.9487 71.8028 98.7535C71.9605 98.6885 72.1183 98.6234 72.276 98.5584C72.4522 98.4492 72.5994 98.3152 72.7176 98.1566L73.1519 99.1859C72.8706 99.485 72.4815 99.7919 71.9847 100.107C71.5194 100.408 70.9712 100.689 70.3402 100.949C69.3306 101.366 68.4524 101.435 67.7055 101.157C66.9455 100.848 66.3471 100.307 65.9103 99.5354C65.2482 101.127 64.4769 102.415 63.5964 103.401C62.7159 104.386 61.4711 105.211 59.862 105.874C59.0733 106.199 58.2543 106.409 57.405 106.503C56.5557 106.597 55.726 106.518 54.9161 106.266C54.1377 106.001 53.4144 105.603 52.7463 105.073C52.0966 104.499 51.581 103.759 51.1994 102.855C50.4099 100.983 50.3818 99.2922 51.1149 97.7816C51.8795 96.2579 53.2306 94.8952 55.1682 93.6935C56.7534 92.7103 57.9798 91.93 58.8473 91.3526C59.7333 90.731 60.351 90.22 60.7006 89.8195C61.0817 89.406 61.2604 89.0394 61.2366 88.7197C61.1997 88.3687 61.0826 87.9593 60.8852 87.4914C60.5562 86.7116 60.1458 86.0021 59.6539 85.3627C59.1619 84.7233 58.599 84.2231 57.9652 83.8619C57.3314 83.5008 56.6174 83.3009 55.8233 83.2621C55.016 83.1922 54.1392 83.3524 53.1927 83.7426C51.9307 84.263 50.866 85.0315 49.9986 86.0483C49.1628 87.052 48.6872 88.1636 48.5719 89.3829L48.0514 89.5975L47.025 87.1645Z" fill="#FBFAF7"/>
<path d="M91.4755 79.8311C90.9625 78.3616 90.317 77.1339 89.5389 76.148C88.782 75.1192 87.9627 74.3262 87.0811 73.769C86.2318 73.2007 85.3364 72.8627 84.3947 72.755C83.4742 72.6043 82.5939 72.6723 81.7538 72.9589C80.752 73.3007 79.8496 73.8232 79.0463 74.5263C78.2642 75.1864 77.6844 76.0635 77.3069 77.1576C76.9183 78.2197 76.7537 79.5093 76.8132 81.0264C76.8938 82.5005 77.2798 84.2279 77.9712 86.2086C80.2128 92.6299 83.6924 95.0357 88.4101 93.4259C89.4119 93.0842 90.2436 92.5144 90.9053 91.7165C91.5559 90.8868 92.0153 89.872 92.2835 88.6722C92.5841 87.4613 92.6723 86.1084 92.5482 84.6134C92.4241 83.1184 92.0666 81.5243 91.4755 79.8311ZM95.791 78.5195C96.4379 80.3724 96.7381 82.1648 96.6917 83.8968C96.6777 85.6176 96.365 87.208 95.7536 88.668C95.1634 90.0849 94.2956 91.3284 93.1503 92.3985C92.0262 93.4256 90.6886 94.2037 89.1376 94.7329C87.5866 95.2622 86.0694 95.4223 84.5862 95.2134C83.1241 94.9614 81.9082 94.4825 80.9385 93.7766C80.0986 95.0999 79.3395 96.3957 78.6612 97.664L77.7888 97.9617C77.5858 97.1729 77.3108 96.2299 76.964 95.1327C76.6494 94.0244 76.2964 92.8578 75.905 91.6328C75.5024 90.3759 75.078 89.1085 74.6319 87.8306C74.2182 86.5417 73.8217 85.3541 73.4425 84.2679L70.4148 75.5944C70.0356 74.5082 69.6068 73.3317 69.1285 72.0648C68.6824 70.7869 68.2257 69.5306 67.7585 68.2957C67.2912 67.0608 66.8301 65.8953 66.3752 64.7992C65.9414 63.6601 65.5528 62.7023 65.2094 61.9257C66.1699 61.7767 66.9249 61.6085 67.4742 61.421C67.8296 61.2998 68.1957 61.157 68.5723 60.9927C68.9377 60.7965 69.3355 60.5893 69.7656 60.3711C69.8917 61.0431 70.1678 62.0929 70.5938 63.5207C71.0087 64.9164 71.5011 66.4824 72.071 68.2185C72.6297 69.9227 73.2108 71.6908 73.8141 73.5228C74.4063 75.3229 74.9428 76.9632 75.4234 78.4438L75.5204 78.4107C76.0168 76.3107 76.7881 74.6354 77.8341 73.3846C78.8802 72.1339 80.2757 71.2109 82.0206 70.6155C83.7009 70.0422 85.2665 69.8655 86.7174 70.0855C88.1572 70.2735 89.4595 70.7408 90.6242 71.4875C91.7889 72.2342 92.8049 73.2282 93.6722 74.4696C94.5606 75.6681 95.2669 77.018 95.791 78.5195Z" fill="#FBFAF7"/>
<path d="M104.898 76.5903C105.282 77.9581 105.767 79.2455 106.354 80.4524C106.974 81.6502 107.722 82.6727 108.598 83.5197C109.465 84.3341 110.475 84.899 111.627 85.2142C112.78 85.5295 114.081 85.4884 115.53 85.0911C116.98 84.6937 118.116 84.0664 118.94 83.2093C119.764 82.3522 120.335 81.3538 120.654 80.2142C120.964 79.0421 121.056 77.7894 120.93 76.4561C120.837 75.1137 120.599 73.7586 120.215 72.3908C119.832 71.023 119.33 69.7402 118.71 68.5423C118.123 67.3354 117.397 66.3248 116.53 65.5103C115.653 64.6633 114.639 64.0822 113.486 63.7669C112.334 63.4516 111.033 63.4927 109.583 63.8901C108.134 64.2874 106.997 64.9147 106.174 65.7718C105.35 66.629 104.783 67.6436 104.473 68.8157C104.154 69.9553 104.041 71.1963 104.134 72.5386C104.26 73.872 104.515 75.2225 104.898 76.5903ZM100.55 77.7824C99.9289 75.5679 99.7495 73.6005 100.012 71.8802C100.298 70.1183 100.885 68.6071 101.773 67.3466C102.652 66.0535 103.74 65.0011 105.038 64.1893C106.36 63.336 107.729 62.7152 109.145 62.3269C110.594 61.9295 112.091 61.7646 113.636 61.8322C115.171 61.8672 116.652 62.2152 118.079 62.8761C119.497 63.5045 120.771 64.5054 121.901 65.879C123.055 67.2109 123.942 68.9842 124.564 71.1987C125.185 73.4132 125.352 75.4015 125.066 77.1634C124.804 78.8836 124.233 80.3903 123.354 81.6834C122.466 82.944 121.369 83.9638 120.062 84.743C118.755 85.5221 117.377 86.1104 115.928 86.5077C114.511 86.8961 113.023 87.0935 111.464 87.1001C109.938 87.0976 108.466 86.7822 107.049 86.1539C105.622 85.493 104.331 84.4965 103.177 83.1646C102.047 81.791 101.171 79.997 100.55 77.7824Z" fill="#FBFAF7"/>
<path d="M140.461 59.5487C140.249 59.3874 139.875 59.2794 139.337 59.2245C138.833 59.1624 138.33 59.1863 137.83 59.2964C137.029 59.4726 136.352 59.8118 135.8 60.3142C135.248 60.8165 134.825 61.4288 134.533 62.151C134.233 62.8403 134.062 63.6394 134.022 64.5485C133.974 65.4246 134.057 66.341 134.273 67.2977L135.498 72.7409C135.995 74.9512 136.377 76.6501 136.645 77.8377C136.938 78.985 137.216 79.9105 137.48 80.6142C136.798 80.6951 136.123 80.8089 135.455 80.9557C134.721 81.1172 134.028 81.3043 133.376 81.5171C133.223 80.3735 132.932 78.8449 132.501 76.9316C132.096 74.9779 131.579 72.599 130.948 69.7949L130.591 68.2114C130.302 66.9249 129.951 65.444 129.539 63.7689C129.16 62.0865 128.676 60.1676 128.086 58.0124C128.468 57.9976 128.833 57.9865 129.181 57.9791C129.522 57.9387 129.876 57.8781 130.243 57.7974C130.544 57.7313 130.857 57.6451 131.183 57.5387C131.502 57.3993 131.838 57.2562 132.19 57.1095C132.324 58.3265 132.452 59.285 132.574 59.9851C132.73 60.6779 132.879 61.3377 133.02 61.9645L133.131 61.9919C134.298 57.9961 136.099 55.7302 138.535 55.1943C138.835 55.1283 139.089 55.0897 139.297 55.0787C139.538 55.0603 139.84 55.0804 140.204 55.1389C140.126 55.5715 140.163 56.2038 140.315 57.0359C140.46 57.8349 140.607 58.5644 140.755 59.2242L140.461 59.5487Z" fill="#FBFAF7"/>
<path d="M155.549 53.5772C154.305 53.7984 153.296 54.2695 152.524 54.9904C151.786 55.7053 151.21 56.546 150.795 57.5125C150.408 58.4397 150.156 59.4458 150.041 60.5308C149.953 61.5765 149.958 62.5544 150.054 63.4645C151.103 63.3124 152.185 63.1543 153.302 62.9902C154.452 62.8202 155.565 62.6396 156.641 62.4482C157.752 62.2509 158.876 62.034 160.014 61.7974C161.151 61.5609 162.256 61.3303 163.326 61.1057C163.163 60.2076 162.906 59.2746 162.557 58.3066C162.241 57.3326 161.769 56.4551 161.14 55.674C160.546 54.8869 159.793 54.2823 158.883 53.8604C157.973 53.4384 156.862 53.344 155.549 53.5772ZM145.987 67.1744C145.243 63.0831 145.635 59.6999 147.163 57.0247C148.725 54.3436 151.39 52.6681 155.158 51.9985C156.941 51.6816 158.524 51.6923 159.905 52.0306C161.314 52.3296 162.54 52.867 163.584 53.6429C164.622 54.3856 165.455 55.3364 166.083 56.4954C166.744 57.6484 167.201 58.9234 167.455 60.3204C167.516 60.653 167.56 60.9886 167.586 61.3273C167.641 61.6266 167.681 61.9456 167.708 62.2842C165.885 62.5738 164.079 62.8604 162.29 63.1441C160.501 63.4277 158.698 63.7309 156.881 64.0538C155.771 64.2511 154.664 64.4651 153.559 64.6956C152.489 64.9202 151.402 65.1478 150.297 65.3784C150.294 65.5507 150.322 65.8031 150.383 66.1357L150.501 66.7844C150.737 68.0816 151.142 69.2628 151.718 70.328C152.328 71.3872 153.078 72.2668 153.969 72.9668C154.855 73.6336 155.881 74.1208 157.048 74.4284C158.21 74.7027 159.497 74.7143 160.91 74.4632C161.583 74.3436 162.257 74.1379 162.934 73.846C163.604 73.5209 164.248 73.1489 164.867 72.7299C165.479 72.2777 166.032 71.7846 166.525 71.2505C167.052 70.7105 167.489 70.1521 167.836 69.5755L168.115 69.6803L168.257 72.1789C167.393 73.1566 166.255 74.0627 164.844 74.8972C163.466 75.7258 161.97 76.2835 160.355 76.5705C158.538 76.8934 156.825 76.9233 155.214 76.6601C153.631 76.3577 152.19 75.7896 150.892 74.9558C149.622 74.0827 148.554 72.9848 147.689 71.6621C146.857 70.3335 146.29 68.8376 145.987 67.1744Z" fill="#FBFAF7"/>
<path d="M196.977 47.9614C195.718 48.0833 194.675 48.4729 193.847 49.1303C193.053 49.7845 192.41 50.5768 191.918 51.5073C191.457 52.4008 191.125 53.3838 190.922 54.4561C190.75 55.4915 190.675 56.4666 190.697 57.3813C191.755 57.3128 192.847 57.2411 193.973 57.166C195.133 57.0877 196.257 56.9959 197.346 56.8905C198.469 56.7818 199.607 56.6547 200.76 56.5091C201.914 56.3635 203.033 56.2212 204.118 56.0821C204.028 55.174 203.848 54.2236 203.578 53.231C203.342 52.2352 202.943 51.323 202.38 50.4946C201.851 49.6629 201.15 49.0007 200.277 48.5079C199.404 48.0152 198.304 47.833 196.977 47.9614ZM186.343 60.757C185.933 56.6199 186.598 53.2787 188.338 50.7332C190.112 48.1845 192.905 46.7257 196.715 46.3568C198.518 46.1823 200.094 46.3184 201.444 46.765C202.824 47.1747 204.003 47.8077 204.981 48.6638C205.955 49.4864 206.708 50.5001 207.24 51.7051C207.805 52.9068 208.158 54.214 208.298 55.6266C208.331 55.963 208.347 56.301 208.347 56.6406C208.377 56.9433 208.391 57.2645 208.391 57.6042C206.55 57.7484 204.727 57.8909 202.92 58.0318C201.114 58.1727 199.292 58.3321 197.455 58.5099C196.332 58.6186 195.211 58.7441 194.092 58.8864C193.006 59.0254 191.904 59.1661 190.785 59.3084C190.767 59.4798 190.775 59.7337 190.809 60.0701L190.874 60.726C191.004 62.0377 191.312 63.2473 191.8 64.3547C192.321 65.4587 192.998 66.395 193.83 67.1634C194.658 67.8982 195.641 68.4652 196.78 68.8643C197.915 69.2298 199.198 69.3434 200.626 69.2051C201.307 69.1393 201.996 68.9877 202.694 68.7503C203.388 68.4794 204.061 68.1596 204.711 67.791C205.358 67.3888 205.949 66.9411 206.484 66.4478C207.053 65.9513 207.534 65.4294 207.926 64.882L208.197 65.0087L208.135 67.5105C207.194 68.4165 205.987 69.2296 204.513 69.9495C203.072 70.6662 201.536 71.1036 199.903 71.2617C198.066 71.4395 196.355 71.3334 194.771 70.9435C193.217 70.5166 191.827 69.8361 190.601 68.9021C189.406 67.9312 188.431 66.7522 187.675 65.3652C186.954 63.9748 186.509 62.4388 186.343 60.757Z" fill="#FBFAF7"/>
<path d="M217.979 38.4499C217.952 39.7379 217.94 41.008 217.945 42.2602C217.981 43.4768 218.002 44.7112 218.007 45.9635C218.382 45.9421 219.082 45.9022 220.105 45.8438C221.127 45.7517 222.233 45.6379 223.424 45.5023C223.396 45.6054 223.389 45.792 223.405 46.0619L223.467 47.1247C223.481 47.3609 223.508 47.5286 223.548 47.6279C223.102 47.6194 222.641 47.6288 222.163 47.6561C221.683 47.6496 221.17 47.6619 220.624 47.693L218.116 47.836C218.09 47.973 218.07 48.5157 218.057 49.4643C218.078 50.411 218.11 51.5432 218.152 52.861C218.193 54.1451 218.237 55.4966 218.286 56.9156C218.369 58.3327 218.442 59.5979 218.507 60.7113C218.562 61.6561 218.634 62.5829 218.721 63.492C218.842 64.399 219.061 65.2159 219.377 65.9426C219.692 66.6356 220.135 67.1858 220.706 67.5933C221.278 68.0008 222.076 68.1754 223.1 68.117C223.373 68.1014 223.729 68.0472 224.169 67.9545C224.642 67.8597 225.047 67.752 225.382 67.6314L225.453 68.846C224.879 68.9803 224.238 69.1354 223.529 69.3112C222.856 69.5188 222.196 69.6411 221.547 69.6781C219.397 69.8006 217.78 69.3682 216.695 68.3806C215.61 67.393 215.009 65.8871 214.891 63.8627C214.837 62.9517 214.797 61.9723 214.77 60.9244C214.742 59.8428 214.708 58.6768 214.669 57.4265C214.663 56.1405 214.632 54.7374 214.578 53.2171C214.521 51.6632 214.438 49.9415 214.328 48.052L212.69 48.1454C212.417 48.161 212.128 48.1944 211.822 48.2457C211.515 48.2632 211.192 48.2985 210.853 48.3517C210.875 48.1473 210.881 47.9608 210.871 47.7921C210.894 47.5877 210.899 47.3843 210.887 47.1819C210.877 47.0132 210.85 46.8454 210.806 46.6787C210.797 46.51 210.77 46.3423 210.726 46.1755C212.267 46.1892 213.397 46.1756 214.113 46.1347C214.04 45.4619 213.956 44.6203 213.863 43.6101C213.804 42.5979 213.709 41.5539 213.578 40.4781L217.723 38.4645L217.979 38.4499Z" fill="#FBFAF7"/>
<path d="M271.363 66.7383C271.051 67.0033 270.55 67.2988 269.86 67.6249C269.205 67.9177 268.397 68.191 267.435 68.4447C266.508 68.6652 265.462 68.8667 264.296 69.0493C263.13 69.2319 261.915 69.3122 260.651 69.2902C257.951 69.2433 255.462 68.8283 253.186 68.0451C250.909 67.2282 248.948 66.028 247.301 64.4445C245.688 62.8617 244.423 60.9469 243.505 58.7001C242.623 56.4201 242.207 53.844 242.258 50.9718C242.309 48.0996 242.816 45.5564 243.778 43.3422C244.775 41.0949 246.125 39.2085 247.827 37.6832C249.564 36.1586 251.618 35.0112 253.991 34.2412C256.364 33.4711 258.969 33.1108 261.805 33.16C264.061 33.1992 266.108 33.4713 267.945 33.9764C269.817 34.4484 271.465 35.0178 272.889 35.6847C272.607 36.1531 272.374 36.7912 272.188 37.5992C272.003 38.4072 271.854 39.0807 271.742 39.6196L271.433 39.7156C271.098 39.3042 270.628 38.8397 270.022 38.3221C269.415 37.8046 268.706 37.3022 267.895 36.8149C267.083 36.3275 266.167 35.9229 265.147 35.601C264.127 35.2453 263.003 35.0568 261.772 35.0354C259.756 35.0004 257.87 35.2887 256.116 35.9005C254.395 36.5129 252.874 37.4836 251.551 38.8126C250.263 40.1085 249.242 41.7808 248.487 43.8296C247.734 45.8446 247.332 48.2544 247.282 51.059C247.232 53.8636 247.548 56.3028 248.229 58.3765C248.911 60.4164 249.872 62.1231 251.112 63.4967C252.388 64.8371 253.874 65.8431 255.572 66.5148C257.303 67.1871 259.178 67.5408 261.194 67.5758C262.424 67.5971 263.555 67.4647 264.586 67.1784C265.651 66.8926 266.614 66.5545 267.476 66.1638C268.372 65.74 269.166 65.2974 269.858 64.8362C270.585 64.3418 271.191 63.9129 271.676 63.5496L271.878 63.7559L271.363 66.7383Z" fill="#FBFAF7"/>
<path d="M281.261 57.5058C281.148 58.9209 281.158 60.2947 281.292 61.6272C281.459 62.9624 281.808 64.1762 282.338 65.2685C282.871 66.327 283.624 67.1994 284.598 67.8856C285.572 68.5718 286.809 68.9734 288.308 69.0903C289.808 69.2073 291.093 69.0024 292.164 68.4757C293.234 67.9491 294.117 67.2043 294.811 66.2414C295.508 65.2448 296.028 64.0988 296.371 62.8035C296.749 61.5108 296.994 60.1569 297.107 58.7419C297.22 57.3269 297.192 55.9518 297.024 54.6165C296.891 53.284 296.558 52.0884 296.025 51.0298C295.495 49.9376 294.743 49.0483 293.769 48.3621C292.795 47.6759 291.558 47.2744 290.059 47.1574C288.559 47.0404 287.274 47.2453 286.204 47.772C285.133 48.2987 284.249 49.0603 283.552 50.0569C282.858 51.0198 282.323 52.1476 281.945 53.4403C281.602 54.7356 281.373 56.0908 281.261 57.5058ZM276.762 57.1549C276.945 54.864 277.458 52.9546 278.3 51.427C279.178 49.8683 280.253 48.6469 281.524 47.7629C282.797 46.8452 284.184 46.2245 285.684 45.9008C287.221 45.5461 288.723 45.4259 290.188 45.5402C291.687 45.6572 293.151 46.0087 294.579 46.5946C296.009 47.1469 297.28 47.975 298.392 49.0787C299.507 50.1488 300.358 51.5204 300.944 53.1934C301.568 54.8353 301.788 56.8018 301.605 59.0928C301.422 61.3838 300.891 63.3086 300.013 64.8673C299.171 66.395 298.113 67.6177 296.839 68.5354C295.569 69.4194 294.185 70.0064 292.687 70.2964C291.189 70.5864 289.691 70.6729 288.191 70.5559C286.726 70.4416 285.26 70.1238 283.793 69.6026C282.36 69.084 281.086 68.2896 279.971 67.2196C278.859 66.1158 277.991 64.7429 277.368 63.1009C276.781 61.4279 276.579 59.4459 276.762 57.1549Z" fill="#FBFAF7"/>
<path d="M324.862 59.8006C325.208 57.2891 324.978 55.331 324.171 53.9261C323.369 52.4878 322.104 51.6522 320.377 51.4194C318.006 51.0998 316.162 51.5846 314.846 52.8739C313.564 54.1677 312.742 56.1206 312.382 58.7325L311.793 63.002C311.586 64.5088 311.383 66.1017 311.186 67.7806C311.028 69.4305 310.941 70.9366 310.925 72.2989C310.156 72.1269 309.398 71.9907 308.653 71.8903C307.908 71.7898 307.141 71.7206 306.353 71.6826C306.707 70.366 307.014 68.8895 307.274 67.2533C307.573 65.5881 307.826 64.0021 308.034 62.4952L308.754 57.2714C308.962 55.7645 309.145 54.1861 309.304 52.5361C309.501 50.8573 309.614 49.2865 309.643 47.8237C310.568 48.119 311.319 48.3054 311.895 48.383C312.166 48.4196 312.456 48.4416 312.765 48.4492C313.113 48.4279 313.512 48.4134 313.962 48.4058C313.675 49.7316 313.44 51.0642 313.255 52.4036L313.357 52.4173C314.503 51.1052 315.791 50.1531 317.218 49.561C318.649 48.9354 320.28 48.7458 322.109 48.9923C323.057 49.1202 323.987 49.3819 324.898 49.7776C325.844 50.1779 326.66 50.7654 327.346 51.5401C328.038 52.2814 328.542 53.2532 328.859 54.4557C329.215 55.6292 329.273 57.0866 329.032 58.8279C328.834 60.2678 328.595 61.7533 328.314 63.2846C328.039 64.7823 327.783 66.3851 327.548 68.0929L327.098 71.3578C327.024 71.8935 326.95 72.4293 326.876 72.9651C326.841 73.4719 326.808 73.9621 326.777 74.4354C326.109 74.2771 325.402 74.1478 324.657 74.0474C323.945 73.9515 323.247 73.8914 322.56 73.8671C322.868 72.1349 323.183 70.3525 323.504 68.5199C323.86 66.6919 324.172 64.8068 324.439 62.8646L324.862 59.8006Z" fill="#FBFAF7"/>
<path d="M335.188 71.098C335.294 71.4613 335.477 71.8732 335.737 72.3339C336.032 72.8008 336.38 73.2604 336.781 73.7126C337.222 74.1379 337.724 74.5226 338.284 74.8668C338.879 75.2172 339.529 75.4575 340.235 75.5878C340.873 75.7056 341.497 75.7176 342.106 75.6237C342.748 75.536 343.322 75.3498 343.828 75.065C344.368 74.7863 344.825 74.3895 345.201 73.8743C345.576 73.3592 345.833 72.7361 345.971 72.0053C346.165 70.9754 346.01 70.1389 345.506 69.4957C345.041 68.8255 344.404 68.2436 343.593 67.7501C342.788 67.2234 341.89 66.7311 340.898 66.273C339.907 65.815 339.018 65.2728 338.232 64.6464C337.453 63.9868 336.836 63.2025 336.382 62.2936C335.961 61.3908 335.882 60.2418 336.146 58.8464C336.353 57.7501 336.726 56.7876 337.265 55.9588C337.81 55.0968 338.498 54.3987 339.329 53.8646C340.161 53.3304 341.131 52.9767 342.242 52.8035C343.359 52.5971 344.59 52.618 345.934 52.8661C347.177 53.0955 348.187 53.4539 348.965 53.9412C349.776 54.4347 350.543 54.8856 351.265 55.2941C350.902 55.7428 350.534 56.3109 350.161 56.9983C349.788 57.6858 349.53 58.2227 349.387 58.6089L348.783 58.4973C348.664 57.6503 348.278 56.8399 347.625 56.0661C346.971 55.2922 346.073 54.7998 344.93 54.5889C344.426 54.4959 343.907 54.4859 343.371 54.559C342.836 54.6321 342.335 54.7975 341.869 55.0553C341.403 55.3131 340.986 55.6829 340.616 56.1649C340.247 56.6468 339.994 57.2532 339.856 57.9841C339.655 59.0472 339.784 59.9305 340.242 60.6339C340.74 61.3103 341.395 61.8952 342.206 62.3887C343.017 62.8822 343.918 63.358 344.909 63.816C345.907 64.2408 346.799 64.7664 347.585 65.3928C348.377 65.9859 348.983 66.7339 349.404 67.6367C349.858 68.5456 349.954 69.6978 349.69 71.0931C349.508 72.0565 349.111 72.963 348.499 73.8126C347.92 74.6684 347.155 75.4039 346.204 76.0191C345.293 76.6074 344.242 77.0151 343.052 77.2423C341.868 77.4363 340.57 77.403 339.159 77.1425C337.613 76.8572 336.348 76.4689 335.362 75.9777C334.377 75.4864 333.569 74.9763 332.939 74.4474C333.222 74.0527 333.533 73.5086 333.873 72.8149C334.253 72.0942 334.489 71.4847 334.584 70.9864L335.188 71.098Z" fill="#FBFAF7"/>
<path d="M365.55 50.4682C365.165 51.699 364.801 52.9171 364.457 54.1224C364.154 55.3021 363.831 56.4946 363.487 57.6999C363.854 57.7813 364.538 57.933 365.538 58.1551C366.547 58.3442 367.642 58.5353 368.824 58.7285C368.768 58.82 368.71 58.9977 368.651 59.2615L368.415 60.3002C368.362 60.531 368.342 60.6996 368.352 60.8059C367.926 60.6767 367.48 60.5603 367.013 60.4566C366.553 60.32 366.057 60.1925 365.523 60.0741L363.072 59.53C363.008 59.6545 362.839 60.171 362.562 61.0795C362.319 61.9954 362.035 63.0927 361.71 64.3713C361.392 65.6169 361.059 66.9285 360.711 68.3061C360.397 69.6911 360.116 70.9276 359.869 72.0158C359.659 72.9391 359.47 73.8496 359.301 74.7474C359.166 75.6525 359.149 76.4974 359.251 77.2821C359.361 78.0338 359.634 78.6832 360.07 79.2303C360.506 79.7774 361.225 80.162 362.225 80.3841C362.492 80.4433 362.85 80.4881 363.298 80.5183C363.78 80.556 364.199 80.5624 364.555 80.5375L364.286 81.7246C363.696 81.6977 363.036 81.6725 362.306 81.6489C361.601 81.6658 360.932 81.6038 360.299 81.4632C358.197 80.9968 356.763 80.1415 355.994 78.8972C355.226 77.6529 355.066 76.0415 355.515 74.063C355.717 73.1727 355.951 72.2201 356.217 71.2052C356.49 70.1574 356.781 69.0272 357.092 67.8145C357.443 66.5763 357.804 65.2189 358.174 63.7424C358.552 62.233 358.95 60.5549 359.369 58.7083L357.768 58.353C357.502 58.2938 357.214 58.2473 356.907 58.2137C356.607 58.1471 356.286 58.0932 355.945 58.0522C356.023 57.8617 356.081 57.6841 356.118 57.5192C356.197 57.3288 356.258 57.1346 356.303 56.9368C356.341 56.7719 356.361 56.6033 356.366 56.431C356.403 56.2661 356.424 56.0976 356.428 55.9253C357.906 56.3573 358.996 56.6511 359.696 56.8065C359.813 56.1396 359.966 55.3078 360.158 54.3112C360.382 53.3219 360.581 52.2923 360.754 51.2223L365.299 50.4127L365.55 50.4682Z" fill="#FBFAF7"/>
<path d="M384.119 73.8899C383.505 73.9367 382.8 73.9245 382.005 73.8534C381.243 73.7911 380.461 73.7407 379.657 73.7023C378.862 73.6312 378.054 73.609 377.233 73.6359C376.444 73.6715 375.7 73.8062 374.999 74.0401C374.332 74.2827 373.737 74.6495 373.214 75.1406C372.724 75.6404 372.355 76.3473 372.107 77.2612C371.69 78.7952 371.821 80.0722 372.499 81.0923C373.178 82.1123 374.062 82.767 375.151 83.0563C376.406 83.3895 377.638 83.3492 378.847 82.9356C380.09 82.5307 381.116 81.9459 381.926 81.181L384.119 73.8899ZM374.255 61.9271C376.042 61.2119 377.616 60.825 378.977 60.7665C380.338 60.708 381.679 60.8541 382.999 61.2047C384.188 61.5204 385.229 61.9892 386.121 62.6112C387.023 63.2006 387.732 63.9138 388.248 64.7507C388.773 65.5549 389.109 66.4666 389.257 67.4857C389.414 68.4721 389.346 69.5039 389.053 70.581C388.548 72.4414 388.009 74.293 387.438 76.1359C386.875 77.9462 386.314 79.8794 385.756 81.9357C385.649 82.3273 385.534 82.7517 385.41 83.2086C385.328 83.6417 385.304 84.0552 385.338 84.4493C385.382 84.8108 385.488 85.1365 385.657 85.4263C385.859 85.7249 386.207 85.94 386.703 86.0715C386.868 86.1153 387.033 86.1591 387.198 86.203C387.405 86.2229 387.604 86.2059 387.796 86.1518L387.503 87.2289C387.096 87.2956 386.598 87.3034 386.01 87.2523C385.455 87.21 384.848 87.1011 384.188 86.9258C383.131 86.6452 382.393 86.1693 381.974 85.4981C381.563 84.7942 381.424 84.0048 381.556 83.1298C380.048 83.9892 378.641 84.5429 377.335 84.7909C376.028 85.0389 374.533 84.9394 372.85 84.4923C372.024 84.2731 371.247 83.9441 370.516 83.5052C369.786 83.0663 369.178 82.5025 368.693 81.8137C368.241 81.1336 367.914 80.382 367.713 79.5587C367.554 78.7116 367.603 77.8148 367.86 76.8682C368.392 74.9099 369.415 73.5544 370.929 72.8017C372.476 72.0577 374.388 71.7956 376.664 72.0152C378.527 72.1949 379.98 72.3183 381.024 72.3855C382.109 72.4288 382.914 72.3976 383.438 72.2918C383.996 72.1949 384.364 72.0127 384.542 71.7452C384.73 71.4451 384.891 71.0503 385.024 70.5607C385.245 69.7447 385.359 68.9351 385.365 68.1318C385.371 67.3285 385.234 66.5924 384.956 65.9236C384.678 65.2548 384.236 64.6651 383.632 64.1546C383.036 63.6115 382.243 63.2084 381.252 62.9454C379.932 62.5947 378.614 62.5597 377.299 62.8403C376.017 63.1297 374.953 63.7222 374.108 64.6176L373.564 64.4729L374.255 61.9271Z" fill="#FBFAF7"/>
<path d="M413.251 81.1578C414.06 78.7527 414.199 76.7861 413.668 75.2582C413.149 73.6982 412.062 72.6461 410.407 72.1021C408.137 71.3554 406.234 71.4955 404.7 72.5224C403.198 73.56 402.026 75.3294 401.185 77.8307L399.809 81.9194C399.323 83.3625 398.827 84.8911 398.32 86.5051C397.856 88.0978 397.49 89.5622 397.22 90.8982C396.496 90.5887 395.777 90.3167 395.063 90.082C394.35 89.8473 393.609 89.6394 392.841 89.4581C393.435 88.2287 394.013 86.8337 394.574 85.273C395.178 83.691 395.723 82.1784 396.209 80.7353L397.892 75.7327C398.377 74.2896 398.852 72.7718 399.316 71.1791C399.823 69.565 400.227 68.0418 400.529 66.6096C401.383 67.0686 402.086 67.3888 402.638 67.5701C402.897 67.6555 403.178 67.7301 403.481 67.7941C403.827 67.8366 404.222 67.8951 404.665 67.9697C404.136 69.2204 403.656 70.4871 403.224 71.7698L403.321 71.8018C404.693 70.7216 406.136 70.0207 407.649 69.6992C409.173 69.3456 410.811 69.4568 412.563 70.0328C413.471 70.3315 414.336 70.7585 415.158 71.3137C416.012 71.8796 416.704 72.6059 417.235 73.4926C417.776 74.3473 418.09 75.3944 418.177 76.6341C418.307 77.8523 418.092 79.2952 417.531 80.9628C417.067 82.3417 416.555 83.7581 415.993 85.2119C415.443 86.6336 414.893 88.1622 414.342 89.7977L413.29 92.9243C413.118 93.4374 412.945 93.9505 412.772 94.4636C412.643 94.9553 412.519 95.431 412.4 95.8906C411.773 95.6131 411.103 95.357 410.389 95.1223C409.708 94.8983 409.032 94.7117 408.362 94.5625C408.988 92.9163 409.63 91.222 410.288 89.4796C410.979 87.7478 411.637 85.9519 412.263 84.092L413.251 81.1578Z" fill="#FBFAF7"/>
<path d="M435.439 71.5818C434.873 72.7421 434.329 73.8928 433.807 75.0338C433.33 76.1557 432.83 77.2871 432.308 78.4281C432.658 78.5628 433.312 78.8137 434.267 79.1809C435.236 79.5167 436.29 79.8672 437.43 80.2326C437.361 80.3149 437.277 80.482 437.178 80.734L436.788 81.7263C436.701 81.9468 436.655 82.1105 436.65 82.2172C436.248 82.0266 435.824 81.8456 435.378 81.6742C434.944 81.4713 434.473 81.272 433.963 81.0761L431.621 80.1765C431.539 80.2902 431.294 80.7759 430.883 81.6334C430.505 82.5032 430.058 83.5463 429.543 84.7626C429.041 85.9474 428.514 87.1952 427.962 88.506C427.442 89.8291 426.978 91.0104 426.569 92.0499C426.222 92.9319 425.898 93.8043 425.595 94.6671C425.325 95.5421 425.181 96.3751 425.163 97.1661C425.158 97.9255 425.33 98.6079 425.679 99.2133C426.028 99.8187 426.68 100.305 427.636 100.672C427.891 100.77 428.238 100.867 428.677 100.963C429.148 101.072 429.561 101.14 429.917 101.168L429.471 102.302C428.892 102.188 428.244 102.066 427.525 101.935C426.826 101.847 426.174 101.687 425.568 101.455C423.561 100.684 422.271 99.6263 421.699 98.2825C421.127 96.9388 421.212 95.3219 421.955 93.4318C422.289 92.5813 422.664 91.6739 423.08 90.7096C423.508 89.7138 423.967 88.6392 424.457 87.4859C424.991 86.3133 425.553 85.0244 426.142 83.6191C426.743 82.1823 427.391 80.5818 428.084 78.8178L426.555 78.2302C426.3 78.1323 426.023 78.044 425.724 77.9653C425.437 77.8552 425.128 77.7546 424.797 77.6637C424.903 77.487 424.987 77.3198 425.049 77.1623C425.155 76.9855 425.245 76.8026 425.32 76.6136C425.382 76.4561 425.428 76.2925 425.458 76.1228C425.519 75.9653 425.565 75.8016 425.596 75.6319C426.992 76.2772 428.025 76.7284 428.694 76.9855C428.91 76.3432 429.188 75.5434 429.527 74.5861C429.899 73.6411 430.251 72.6523 430.583 71.6198L435.2 71.49L435.439 71.5818Z" fill="#FBFAF7"/>
<path d="M446.685 73.8931C446.967 73.2403 447.444 72.7802 448.117 72.5127C448.79 72.2453 449.456 72.2508 450.117 72.5292C450.777 72.8076 451.242 73.2794 451.513 73.9446C451.783 74.6097 451.778 75.2687 451.496 75.9216C451.215 76.5744 450.737 77.0345 450.065 77.302C449.392 77.5694 448.725 77.5639 448.065 77.2855C447.405 77.0071 446.939 76.5353 446.669 75.8701C446.398 75.205 446.404 74.546 446.685 73.8931ZM440.084 91.0051C440.688 89.6062 441.286 88.1319 441.881 86.5821C442.52 85.0145 443.049 83.5292 443.468 82.1261C444.282 82.6528 444.956 83.0288 445.49 83.2542C446.025 83.4796 446.766 83.7001 447.713 83.9159C446.979 85.1864 446.246 86.5855 445.512 88.1134C444.824 89.6234 444.178 91.0778 443.574 92.4767L441.483 97.3263C440.879 98.7252 440.258 100.208 439.619 101.776C439.025 103.326 438.538 104.756 438.159 106.065C437.462 105.698 436.768 105.369 436.077 105.077C435.385 104.786 434.664 104.518 433.914 104.276C434.608 103.098 435.299 101.755 435.987 100.245C436.72 98.717 437.389 97.2536 437.992 95.8547L440.084 91.0051Z" fill="#FBFAF7"/>
<path d="M463.656 103.852C463.044 103.784 462.354 103.641 461.587 103.423C460.851 103.219 460.092 103.024 459.31 102.836C458.543 102.618 457.754 102.446 456.942 102.319C456.161 102.207 455.404 102.201 454.672 102.3C453.97 102.413 453.315 102.663 452.708 103.048C452.132 103.447 451.635 104.072 451.217 104.924C450.515 106.352 450.4 107.631 450.871 108.759C451.343 109.887 452.086 110.695 453.101 111.182C454.27 111.744 455.487 111.934 456.754 111.753C458.052 111.587 459.171 111.204 460.112 110.604L463.656 103.852ZM456.252 90.2653C458.143 89.8961 459.763 89.8097 461.11 90.0059C462.458 90.2022 463.747 90.5956 464.977 91.1862C466.084 91.7178 467.016 92.3722 467.774 93.1496C468.547 93.8965 469.107 94.729 469.454 95.6471C469.816 96.5347 469.973 97.4928 469.924 98.5211C469.889 99.5191 469.626 100.52 469.133 101.523C468.282 103.256 467.4 104.974 466.487 106.677C465.589 108.35 464.67 110.144 463.729 112.059C463.55 112.424 463.356 112.819 463.147 113.245C462.983 113.655 462.881 114.056 462.84 114.45C462.813 114.813 462.855 115.153 462.966 115.469C463.108 115.8 463.409 116.076 463.87 116.297C464.024 116.371 464.178 116.445 464.331 116.519C464.531 116.577 464.73 116.597 464.928 116.58L464.436 117.583C464.023 117.573 463.532 117.488 462.965 117.328C462.428 117.183 461.852 116.963 461.237 116.667C460.253 116.195 459.619 115.59 459.336 114.852C459.067 114.085 459.08 113.283 459.376 112.449C457.732 113.012 456.244 113.293 454.914 113.293C453.584 113.293 452.135 112.917 450.567 112.164C449.798 111.794 449.097 111.326 448.464 110.759C447.83 110.192 447.341 109.525 446.996 108.758C446.681 108.006 446.504 107.207 446.463 106.361C446.469 105.499 446.688 104.628 447.121 103.746C448.017 101.922 449.28 100.782 450.911 100.325C452.572 99.8825 454.499 99.9815 456.693 100.622C458.488 101.145 459.891 101.537 460.904 101.798C461.961 102.043 462.758 102.162 463.293 102.156C463.858 102.165 464.255 102.055 464.481 101.825C464.723 101.566 464.956 101.208 465.18 100.752C465.553 99.9917 465.819 99.2178 465.978 98.43C466.137 97.6422 466.144 96.894 465.998 96.1852C465.852 95.4765 465.531 94.8151 465.035 94.201C464.553 93.5565 463.851 93.0128 462.929 92.5699C461.699 91.9793 460.411 91.6992 459.066 91.7296C457.752 91.7748 456.595 92.1583 455.594 92.8801L455.087 92.6365L456.252 90.2653Z" fill="#FBFAF7"/>
</svg>
