<svg width="600" height="1597" viewBox="0 0 600 1597" fill="none" xmlns="http://www.w3.org/2000/svg">
<path d="M302.962 16C-47.2826 16 -440 348.577 -440 742.706C-440 808.071 -359.403 682.564 -342.325 742.706C-342.325 742.706 -636.974 1578 300.5 1578C1237.97 1578 1010.33 687.396 1010.33 687.396C1027.4 627.253 1041 808.071 1041 742.706C1041 348.577 653.207 16 302.962 16Z" fill="#F1EFE9"/>
<path d="M-340.773 742.941L-340.871 743.326L-340.871 743.327L-340.871 743.329L-340.874 743.339L-340.884 743.379L-340.925 743.544C-340.961 743.691 -341.016 743.911 -341.087 744.204C-341.229 744.79 -341.439 745.665 -341.707 746.818L-343.168 746.478C-343.609 748.367 -344.206 750.998 -344.924 754.32L-343.458 754.637C-343.951 756.917 -344.501 759.525 -345.096 762.445L-346.566 762.145C-347.045 764.495 -347.553 767.045 -348.084 769.788L-346.611 770.073C-347.101 772.603 -347.61 775.297 -348.134 778.148L-349.61 777.877C-350.059 780.322 -350.519 782.883 -350.986 785.555L-349.509 785.814C-349.95 788.335 -350.398 790.957 -350.851 793.674L-352.33 793.428C-352.765 796.04 -353.204 798.741 -353.645 801.528L-352.163 801.762C-352.554 804.232 -352.945 806.77 -353.337 809.372L-354.82 809.149C-355.212 811.756 -355.604 814.428 -355.994 817.163L-354.509 817.374C-354.882 819.991 -355.254 822.665 -355.622 825.395L-357.108 825.195C-357.448 827.713 -357.785 830.279 -358.118 832.89L-356.63 833.08C-356.963 835.688 -357.292 838.343 -357.616 841.042L-359.105 840.863C-359.428 843.551 -359.746 846.284 -360.059 849.06L-358.568 849.227C-358.852 851.748 -359.13 854.305 -359.403 856.895L-360.895 856.738C-361.168 859.332 -361.436 861.96 -361.697 864.621L-360.205 864.768C-360.465 867.426 -360.72 870.117 -360.967 872.84L-362.461 872.704C-362.701 875.345 -362.933 878.017 -363.159 880.717L-361.664 880.842C-361.878 883.41 -362.085 886.004 -362.285 888.624L-363.781 888.509C-363.981 891.133 -364.174 893.781 -364.358 896.455L-362.861 896.558C-363.046 899.228 -363.222 901.922 -363.389 904.641L-364.886 904.549C-365.049 907.193 -365.203 909.861 -365.349 912.55L-363.851 912.631C-363.991 915.219 -364.123 917.827 -364.246 920.454L-365.744 920.384C-365.867 923.015 -365.982 925.666 -366.087 928.335L-364.588 928.394C-364.693 931.06 -364.789 933.744 -364.874 936.446L-366.374 936.399C-366.459 939.074 -366.534 941.767 -366.599 944.477L-365.1 944.514C-365.162 947.108 -365.216 949.719 -365.259 952.344L-366.759 952.319C-366.802 954.948 -366.836 957.593 -366.86 960.251L-365.36 960.265C-365.384 962.919 -365.397 965.588 -365.4 968.271L-366.9 968.27C-366.903 970.957 -366.895 973.657 -366.876 976.371L-365.376 976.361C-365.358 978.984 -365.329 981.619 -365.29 984.266L-366.79 984.288C-366.751 986.911 -366.701 989.545 -366.641 992.191L-365.141 992.156C-365.081 994.798 -365.009 997.45 -364.927 1000.11L-366.426 1000.16C-366.343 1002.83 -366.249 1005.5 -366.143 1008.19L-364.644 1008.13C-364.539 1010.81 -364.422 1013.49 -364.293 1016.19L-365.791 1016.26C-365.666 1018.87 -365.53 1021.49 -365.381 1024.13L-363.884 1024.04C-363.736 1026.67 -363.576 1029.31 -363.405 1031.95L-364.902 1032.05C-364.73 1034.69 -364.546 1037.35 -364.35 1040.01L-362.854 1039.9C-362.658 1042.56 -362.45 1045.23 -362.229 1047.9L-363.724 1048.03C-363.504 1050.68 -363.272 1053.35 -363.028 1056.02L-361.534 1055.88C-361.294 1058.49 -361.042 1061.11 -360.778 1063.74L-362.27 1063.89C-362.005 1066.52 -361.727 1069.15 -361.436 1071.79L-359.945 1071.63C-359.655 1074.26 -359.352 1076.9 -359.035 1079.55L-360.525 1079.73C-360.208 1082.38 -359.877 1085.03 -359.533 1087.69L-358.046 1087.5C-357.705 1090.14 -357.35 1092.78 -356.982 1095.42L-358.468 1095.63C-358.104 1098.24 -357.727 1100.85 -357.337 1103.47L-355.853 1103.25C-355.464 1105.86 -355.06 1108.48 -354.643 1111.1L-356.124 1111.33C-355.706 1113.95 -355.274 1116.58 -354.828 1119.21L-353.349 1118.96C-352.904 1121.58 -352.444 1124.21 -351.969 1126.84L-353.446 1127.11C-352.973 1129.73 -352.485 1132.35 -351.983 1134.98L-350.509 1134.7C-350.014 1137.28 -349.505 1139.87 -348.981 1142.46L-350.452 1142.76C-349.927 1145.36 -349.387 1147.95 -348.833 1150.55L-347.366 1150.24C-346.812 1152.83 -346.244 1155.42 -345.661 1158.02L-347.124 1158.34C-346.539 1160.94 -345.939 1163.54 -345.324 1166.14L-343.864 1165.8C-343.251 1168.39 -342.622 1170.98 -341.978 1173.57L-343.433 1173.93C-342.796 1176.5 -342.143 1179.06 -341.474 1181.62L-340.022 1181.24C-339.355 1183.8 -338.672 1186.36 -337.973 1188.91L-339.42 1189.31C-338.72 1191.87 -338.004 1194.43 -337.271 1196.99L-335.829 1196.58C-335.098 1199.13 -334.351 1201.68 -333.588 1204.23L-335.025 1204.66C-334.26 1207.22 -333.478 1209.77 -332.68 1212.33L-331.248 1211.88C-330.46 1214.4 -329.655 1216.92 -328.834 1219.43L-330.26 1219.9C-329.438 1222.41 -328.599 1224.93 -327.744 1227.44L-326.324 1226.96C-325.471 1229.47 -324.6 1231.97 -323.713 1234.47L-325.127 1234.97C-324.237 1237.48 -323.331 1239.98 -322.406 1242.48L-320.999 1241.96C-320.078 1244.46 -319.139 1246.95 -318.182 1249.43L-319.582 1249.97C-318.629 1252.45 -317.658 1254.92 -316.67 1257.39L-315.277 1256.83C-314.296 1259.29 -313.298 1261.73 -312.282 1264.18L-313.667 1264.75C-312.648 1267.2 -311.611 1269.64 -310.557 1272.08L-309.18 1271.49C-308.128 1273.92 -307.058 1276.35 -305.97 1278.77L-307.338 1279.39C-306.247 1281.82 -305.138 1284.24 -304.01 1286.66L-302.65 1286.03C-301.528 1288.44 -300.387 1290.84 -299.228 1293.23L-300.578 1293.89C-299.427 1296.27 -298.258 1298.64 -297.069 1301.01L-295.729 1300.33C-294.544 1302.7 -293.34 1305.05 -292.118 1307.4L-293.448 1308.09C-292.222 1310.45 -290.978 1312.8 -289.714 1315.14L-288.394 1314.43C-287.133 1316.76 -285.854 1319.09 -284.555 1321.41L-285.865 1322.15C-284.562 1324.48 -283.241 1326.8 -281.899 1329.11L-280.601 1328.36C-279.279 1330.64 -277.938 1332.92 -276.577 1335.18L-277.863 1335.96C-276.503 1338.22 -275.123 1340.48 -273.724 1342.73L-272.45 1341.94C-271.055 1344.19 -269.64 1346.42 -268.206 1348.65L-269.467 1349.47C-268.028 1351.7 -266.57 1353.93 -265.092 1356.15L-263.843 1355.32C-262.369 1357.53 -260.875 1359.73 -259.361 1361.93L-260.596 1362.78C-259.085 1364.97 -257.555 1367.15 -256.004 1369.33L-254.783 1368.46C-253.257 1370.59 -251.712 1372.72 -250.147 1374.84L-251.353 1375.73C-249.783 1377.86 -248.193 1379.98 -246.583 1382.09L-245.391 1381.18C-243.786 1383.28 -242.16 1385.37 -240.514 1387.46L-241.691 1388.39C-240.041 1390.48 -238.369 1392.56 -236.677 1394.63L-235.516 1393.68C-233.829 1395.74 -232.122 1397.8 -230.394 1399.84L-231.54 1400.81C-229.835 1402.83 -228.11 1404.83 -226.364 1406.83L-225.235 1405.84C-223.508 1407.82 -221.762 1409.78 -219.995 1411.74L-221.108 1412.74C-219.335 1414.71 -217.542 1416.66 -215.729 1418.6L-214.633 1417.57C-212.826 1419.51 -210.998 1421.43 -209.149 1423.34L-210.228 1424.39C-208.373 1426.31 -206.498 1428.21 -204.602 1430.11L-203.541 1429.05C-201.651 1430.94 -199.74 1432.82 -197.808 1434.69L-198.851 1435.77C-196.969 1437.59 -195.067 1439.4 -193.145 1441.2L-192.12 1440.11C-190.208 1441.9 -188.275 1443.67 -186.322 1445.44L-187.329 1446.55C-185.37 1448.33 -183.391 1450.09 -181.392 1451.84L-180.404 1450.71C-178.41 1452.46 -176.397 1454.19 -174.362 1455.92L-175.332 1457.06C-173.291 1458.79 -171.23 1460.51 -169.148 1462.21L-168.198 1461.05C-166.124 1462.75 -164.03 1464.43 -161.914 1466.11L-162.845 1467.28C-160.802 1468.9 -158.74 1470.5 -156.659 1472.1L-155.747 1470.91C-153.672 1472.49 -151.577 1474.07 -149.463 1475.64L-150.355 1476.84C-148.234 1478.41 -146.093 1479.97 -143.933 1481.52L-143.06 1480.3C-140.906 1481.84 -138.732 1483.37 -136.538 1484.89L-137.391 1486.12C-135.19 1487.64 -132.97 1489.15 -130.729 1490.65L-129.895 1489.4C-127.661 1490.89 -125.406 1492.38 -123.131 1493.84L-123.945 1495.1C-121.753 1496.52 -119.543 1497.92 -117.314 1499.31L-116.52 1498.04C-114.312 1499.42 -112.085 1500.78 -109.839 1502.14L-110.614 1503.42C-108.362 1504.78 -106.091 1506.13 -103.8 1507.46L-103.045 1506.16C-100.762 1507.49 -98.4591 1508.81 -96.1373 1510.12L-96.8727 1511.43C-94.5443 1512.73 -92.1967 1514.03 -89.8298 1515.32L-89.1142 1514C-86.7539 1515.28 -84.3743 1516.55 -81.9752 1517.8L-82.671 1519.13C-80.3174 1520.37 -77.9453 1521.59 -75.5543 1522.79L-74.8779 1521.46C-72.5705 1522.62 -70.2455 1523.78 -67.9027 1524.92L-68.5603 1526.27C-66.2113 1527.41 -63.8445 1528.55 -61.46 1529.67L-60.8214 1528.31C-58.4431 1529.43 -56.0469 1530.54 -53.6328 1531.63L-54.2526 1533C-51.8322 1534.1 -49.3938 1535.18 -46.9374 1536.26L-46.3365 1534.88C-43.8864 1535.95 -41.4182 1537.01 -38.9318 1538.06L-39.5138 1539.44C-37.021 1540.49 -34.51 1541.53 -31.9807 1542.55L-31.4176 1541.16C-28.9835 1542.15 -26.5323 1543.12 -24.064 1544.08L-24.6089 1545.48C-22.1978 1546.42 -19.7704 1547.35 -17.3265 1548.27L-16.7993 1546.86C-14.3614 1547.78 -11.907 1548.68 -9.4361 1549.57L-9.94568 1550.99C-7.4689 1551.88 -4.97562 1552.76 -2.4657 1553.63L-1.97369 1552.22C0.530396 1553.09 3.05109 1553.94 5.58853 1554.79L5.11407 1556.21C7.65735 1557.06 10.2173 1557.9 12.7942 1558.72L13.2512 1557.29C15.8223 1558.12 18.4101 1558.93 21.015 1559.73L20.5753 1561.16C23.1288 1561.94 25.6984 1562.71 28.2844 1563.47L28.7072 1562.03C31.1725 1562.76 33.6528 1563.47 36.1481 1564.17L35.7414 1565.62C38.242 1566.32 40.7576 1567.02 43.2882 1567.7L43.679 1566.25C46.2043 1566.93 48.7446 1567.6 51.3001 1568.26L50.9253 1569.71C53.4861 1570.38 56.062 1571.03 58.6531 1571.66L59.0121 1570.21C61.598 1570.85 64.1991 1571.47 66.8155 1572.09L66.4721 1573.55C69.0938 1574.16 71.7308 1574.77 74.3831 1575.36L74.7109 1573.9C77.3581 1574.49 80.0206 1575.07 82.6987 1575.64L82.3864 1577.11C84.9625 1577.66 87.5527 1578.2 90.1573 1578.72L90.4549 1577.25C92.9739 1577.76 95.5063 1578.26 98.0522 1578.75L97.7689 1580.23C100.32 1580.72 102.884 1581.2 105.462 1581.67L105.731 1580.19C108.304 1580.66 110.891 1581.12 113.491 1581.57L113.236 1583.05C115.841 1583.5 118.459 1583.94 121.092 1584.37L121.333 1582.89C123.961 1583.32 126.603 1583.73 129.258 1584.14L129.031 1585.63C131.69 1586.03 134.364 1586.43 137.052 1586.82L137.266 1585.33C139.949 1585.72 142.646 1586.1 145.357 1586.46L145.156 1587.95C147.827 1588.31 150.51 1588.66 153.208 1589L153.395 1587.51C155.934 1587.83 158.485 1588.14 161.048 1588.44L160.873 1589.93C163.44 1590.24 166.02 1590.53 168.611 1590.81L168.774 1589.32C171.361 1589.6 173.961 1589.88 176.572 1590.14L176.422 1591.63C179.037 1591.9 181.665 1592.15 184.305 1592.4L184.444 1590.9C187.08 1591.15 189.729 1591.38 192.39 1591.61L192.263 1593.1C194.927 1593.33 197.604 1593.55 200.294 1593.75L200.409 1592.26C203.094 1592.46 205.792 1592.66 208.503 1592.85L208.399 1594.35C211.113 1594.53 213.84 1594.71 216.579 1594.88L216.671 1593.38C219.359 1593.55 222.06 1593.7 224.773 1593.85L224.692 1595.35C227.249 1595.48 229.816 1595.61 232.395 1595.73L232.465 1594.24C235.04 1594.36 237.625 1594.47 240.221 1594.57L240.162 1596.07C242.762 1596.17 245.372 1596.27 247.994 1596.36L248.043 1594.86C249.695 1594.91 251.352 1594.96 253.013 1595.01C253.984 1595.04 254.956 1595.06 255.93 1595.09L255.891 1596.59C258.534 1596.66 261.188 1596.72 263.853 1596.77L263.882 1595.27C266.544 1595.32 269.216 1595.37 271.9 1595.4L271.881 1596.9C274.568 1596.93 277.266 1596.96 279.975 1596.98L279.984 1595.48C282.689 1595.49 285.406 1595.5 288.134 1595.5L288.135 1597C290.866 1597 293.608 1596.99 296.361 1596.97L296.351 1595.47C297.726 1595.46 299.104 1595.45 300.485 1595.43C301.862 1595.42 303.236 1595.4 304.608 1595.39L304.628 1596.89C307.375 1596.85 310.111 1596.8 312.837 1596.75L312.807 1595.25C315.529 1595.19 318.242 1595.13 320.944 1595.05L320.984 1596.55C323.69 1596.48 326.385 1596.4 329.07 1596.31L329.019 1594.81C331.7 1594.72 334.371 1594.62 337.032 1594.51L337.094 1596.01C339.758 1595.9 342.412 1595.78 345.056 1595.65L344.984 1594.15C347.625 1594.03 350.255 1593.89 352.876 1593.75L352.958 1595.24C355.582 1595.1 358.195 1594.95 360.799 1594.78L360.706 1593.29C363.306 1593.13 365.896 1592.95 368.475 1592.78L368.579 1594.27C371.163 1594.09 373.736 1593.9 376.299 1593.71L376.185 1592.21C378.884 1592 381.573 1591.79 384.25 1591.56L384.376 1593.06C387.105 1592.83 389.822 1592.58 392.527 1592.33L392.389 1590.84C395.091 1590.59 397.781 1590.33 400.459 1590.06L400.609 1591.55C403.292 1591.29 405.963 1591.01 408.623 1590.72L408.461 1589.23C411.117 1588.94 413.762 1588.64 416.395 1588.33L416.569 1589.82C419.206 1589.51 421.832 1589.19 424.447 1588.87L424.26 1587.38C426.871 1587.05 429.47 1586.72 432.059 1586.37L432.257 1587.86C434.849 1587.51 437.43 1587.16 440 1586.79L439.789 1585.31C442.355 1584.94 444.91 1584.57 447.453 1584.19L447.676 1585.67C450.341 1585.27 452.994 1584.86 455.635 1584.44L455.399 1582.95C458.095 1582.52 460.779 1582.08 463.45 1581.63L463.7 1583.11C466.376 1582.66 469.039 1582.2 471.69 1581.72L471.426 1580.25C474.073 1579.78 476.706 1579.29 479.327 1578.8L479.604 1580.28C482.229 1579.78 484.843 1579.28 487.443 1578.77L487.153 1577.29C489.749 1576.78 492.332 1576.26 494.904 1575.73L495.208 1577.19C497.784 1576.66 500.347 1576.12 502.898 1575.56L502.58 1574.1C503.493 1573.9 504.405 1573.7 505.315 1573.5C506.943 1573.14 508.565 1572.78 510.183 1572.41L510.515 1573.87C513.069 1573.29 515.61 1572.7 518.139 1572.1L517.793 1570.64C520.454 1570.01 523.101 1569.37 525.734 1568.72L526.096 1570.17C528.734 1569.52 531.359 1568.85 533.97 1568.17L533.593 1566.72C536.199 1566.05 538.791 1565.36 541.37 1564.66L541.761 1566.11C544.345 1565.41 546.914 1564.7 549.471 1563.98L549.064 1562.54C551.615 1561.82 554.153 1561.09 556.677 1560.35L557.099 1561.79C559.628 1561.05 562.144 1560.3 564.646 1559.54L564.209 1558.1C566.706 1557.34 569.19 1556.57 571.66 1555.79L572.113 1557.22C574.617 1556.43 577.108 1555.63 579.585 1554.81L579.117 1553.39C581.708 1552.54 584.283 1551.67 586.844 1550.8L587.328 1552.22C589.894 1551.35 592.445 1550.46 594.982 1549.56L594.481 1548.15C597.012 1547.25 599.529 1546.34 602.03 1545.43L602.547 1546.83C605.054 1545.91 607.546 1544.98 610.024 1544.04L609.491 1542.64C611.963 1541.7 614.421 1540.75 616.864 1539.78L617.413 1541.18C619.862 1540.21 622.296 1539.24 624.715 1538.25L624.149 1536.86C626.563 1535.88 628.963 1534.89 631.348 1533.88L631.931 1535.26C634.409 1534.22 636.871 1533.16 639.319 1532.1L638.719 1530.72C641.202 1529.64 643.669 1528.55 646.12 1527.44L646.736 1528.81C649.193 1527.7 651.634 1526.58 654.059 1525.45L653.426 1524.09C655.845 1522.96 658.249 1521.82 660.637 1520.67L661.288 1522.02C663.682 1520.87 666.061 1519.71 668.424 1518.53L667.756 1517.19C670.113 1516.01 672.455 1514.83 674.782 1513.64L675.467 1514.97C677.799 1513.77 680.116 1512.56 682.418 1511.34L681.716 1510.02C684.07 1508.77 686.409 1507.51 688.732 1506.24L689.451 1507.56C691.828 1506.26 694.188 1504.95 696.532 1503.63L695.795 1502.32C698.133 1501 700.455 1499.67 702.76 1498.33L703.515 1499.62C705.826 1498.28 708.12 1496.92 710.399 1495.55L709.627 1494.27C711.899 1492.9 714.156 1491.53 716.396 1490.14L717.185 1491.42C719.431 1490.03 721.66 1488.63 723.874 1487.22L723.067 1485.95C725.275 1484.54 727.467 1483.13 729.643 1481.7L730.466 1482.95C732.712 1481.48 734.94 1479.99 737.151 1478.49L736.311 1477.25C738.539 1475.74 740.751 1474.22 742.945 1472.69L743.803 1473.92C746.004 1472.39 748.187 1470.84 750.354 1469.29L749.478 1468.07C751.639 1466.52 753.783 1464.95 755.91 1463.38L756.802 1464.59C758.935 1463.01 761.051 1461.42 763.151 1459.82L762.242 1458.63C764.336 1457.03 766.413 1455.43 768.474 1453.81L769.399 1454.99C771.478 1453.36 773.54 1451.72 775.585 1450.07L774.643 1448.91C776.738 1447.22 778.815 1445.52 780.875 1443.8L781.833 1444.96C783.899 1443.24 785.947 1441.52 787.978 1439.78L787.003 1438.64C789.029 1436.91 791.037 1435.17 793.028 1433.41L794.019 1434.54C796.016 1432.78 797.996 1431.02 799.958 1429.24L798.952 1428.13C800.909 1426.35 802.85 1424.57 804.774 1422.78L805.796 1423.88C807.725 1422.08 809.637 1420.28 811.533 1418.46L810.495 1417.38C812.428 1415.53 814.343 1413.67 816.242 1411.79L817.295 1412.86C819.206 1410.98 821.1 1409.09 822.977 1407.18L821.909 1406.13C823.781 1404.23 825.635 1402.32 827.473 1400.41L828.556 1401.45C830.398 1399.52 832.224 1397.59 834.032 1395.65L832.935 1394.63C834.739 1392.69 836.526 1390.75 838.296 1388.8L839.407 1389.81C841.182 1387.85 842.94 1385.88 844.681 1383.91L843.556 1382.91C845.317 1380.91 847.062 1378.91 848.789 1376.89L849.928 1377.87C851.672 1375.83 853.4 1373.79 855.11 1371.74L853.957 1370.78C855.663 1368.73 857.352 1366.67 859.024 1364.61L860.189 1365.55C861.865 1363.49 863.525 1361.41 865.167 1359.32L863.989 1358.39C865.627 1356.31 867.249 1354.23 868.854 1352.13L870.045 1353.04C871.655 1350.94 873.247 1348.83 874.824 1346.72L873.621 1345.82C875.21 1343.69 876.782 1341.55 878.339 1339.4L879.553 1340.28C881.124 1338.11 882.677 1335.93 884.214 1333.75L882.988 1332.89C884.521 1330.71 886.037 1328.53 887.537 1326.33L888.775 1327.18C890.279 1324.98 891.766 1322.78 893.237 1320.57L891.989 1319.74C893.456 1317.53 894.907 1315.32 896.342 1313.1L897.602 1313.92C899.04 1311.69 900.463 1309.46 901.869 1307.23L900.599 1306.43C902.016 1304.17 903.417 1301.91 904.802 1299.65L906.082 1300.43C907.477 1298.15 908.855 1295.86 910.218 1293.57L908.928 1292.8C910.287 1290.51 911.63 1288.22 912.958 1285.92L914.257 1286.67C915.587 1284.36 916.902 1282.05 918.201 1279.74L916.892 1279C918.188 1276.69 919.468 1274.38 920.733 1272.05L922.05 1272.77C923.317 1270.45 924.569 1268.12 925.806 1265.78L924.48 1265.08C925.728 1262.72 926.959 1260.36 928.175 1257.99L929.509 1258.68C930.731 1256.3 931.938 1253.92 933.129 1251.53L931.786 1250.86C932.975 1248.48 934.148 1246.1 935.305 1243.71L936.655 1244.36C937.815 1241.97 938.96 1239.57 940.09 1237.17L938.733 1236.53C939.86 1234.13 940.973 1231.73 942.07 1229.33L943.435 1229.95C944.535 1227.54 945.621 1225.13 946.692 1222.71L945.32 1222.11C946.403 1219.66 947.471 1217.22 948.523 1214.77L949.901 1215.36C950.956 1212.9 951.996 1210.45 953.022 1207.98L951.637 1207.41C952.66 1204.95 953.669 1202.49 954.663 1200.03L956.054 1200.6C957.05 1198.13 958.031 1195.66 958.998 1193.19L957.602 1192.65C958.567 1190.18 959.518 1187.72 960.454 1185.25L961.857 1185.78C962.8 1183.29 963.729 1180.81 964.644 1178.32L963.236 1177.8C964.159 1175.29 965.067 1172.78 965.96 1170.27L967.373 1170.77C968.269 1168.25 969.15 1165.74 970.018 1163.22L968.599 1162.73C969.465 1160.22 970.317 1157.7 971.155 1155.19L972.578 1155.66C973.417 1153.14 974.243 1150.62 975.055 1148.1L973.628 1147.64C974.438 1145.12 975.236 1142.61 976.019 1140.09L977.452 1140.54C978.247 1137.98 979.028 1135.43 979.796 1132.88L978.36 1132.45C979.13 1129.89 979.886 1127.33 980.63 1124.77L982.07 1125.19C982.815 1122.62 983.546 1120.06 984.264 1117.5L982.819 1117.09C983.536 1114.53 984.24 1111.98 984.93 1109.42L986.378 1109.81C987.07 1107.25 987.749 1104.7 988.415 1102.14L986.963 1101.76C987.63 1099.2 988.285 1096.64 988.927 1094.08L990.382 1094.44C991.036 1091.84 991.677 1089.23 992.305 1086.63L990.847 1086.28C991.474 1083.68 992.088 1081.09 992.689 1078.49L994.15 1078.83C994.753 1076.23 995.342 1073.64 995.919 1071.05L994.455 1070.72C995.032 1068.14 995.595 1065.55 996.147 1062.97L997.614 1063.29C998.167 1060.7 998.707 1058.12 999.235 1055.54L997.766 1055.24C998.304 1052.62 998.83 1049.99 999.344 1047.38L1000.82 1047.66C1001.33 1045.03 1001.84 1042.4 1002.33 1039.77L1000.86 1039.5C1001.35 1036.87 1001.83 1034.26 1002.3 1031.64L1003.77 1031.91C1004.24 1029.29 1004.7 1026.68 1005.14 1024.07L1003.66 1023.82C1004.11 1021.22 1004.54 1018.62 1004.96 1016.03L1006.44 1016.27C1006.87 1013.64 1007.29 1011 1007.69 1008.38L1006.21 1008.15C1006.62 1005.49 1007.02 1002.84 1007.41 1000.19L1008.89 1000.41C1009.28 997.758 1009.66 995.114 1010.02 992.479L1008.54 992.273C1008.9 989.641 1009.26 987.016 1009.6 984.4L1011.08 984.594C1011.43 981.974 1011.76 979.362 1012.08 976.758L1010.59 976.574C1010.92 973.932 1011.23 971.298 1011.53 968.672L1013.02 968.845C1013.34 966.157 1013.63 963.479 1013.92 960.811L1012.43 960.65C1012.72 957.985 1013 955.33 1013.26 952.686L1014.75 952.836C1015.02 950.188 1015.28 947.551 1015.52 944.924L1014.03 944.784C1014.27 942.161 1014.51 939.549 1014.73 936.948L1016.22 937.076C1016.45 934.409 1016.67 931.754 1016.88 929.111L1015.39 928.993C1015.6 926.293 1015.8 923.605 1015.99 920.931L1017.49 921.038C1017.68 918.36 1017.86 915.696 1018.03 913.046L1016.54 912.949C1016.71 910.302 1016.87 907.669 1017.02 905.05L1018.52 905.137C1018.67 902.515 1018.81 899.907 1018.94 897.315L1017.45 897.239C1017.58 894.528 1017.71 891.833 1017.83 889.155L1019.33 889.221C1019.45 886.512 1019.56 883.82 1019.65 881.146L1018.16 881.091C1018.25 878.42 1018.34 875.768 1018.42 873.134L1019.92 873.18C1020 870.543 1020.07 867.924 1020.13 865.325L1018.63 865.29C1018.7 862.625 1018.75 859.98 1018.8 857.356L1020.3 857.382C1020.34 854.641 1020.38 851.924 1020.41 849.23L1018.91 849.215C1018.93 846.524 1018.95 843.858 1018.96 841.215L1020.46 841.22C1020.47 838.575 1020.47 835.953 1020.46 833.357L1018.96 833.362C1018.95 830.716 1018.94 828.096 1018.91 825.503L1020.41 825.488C1020.38 822.723 1020.35 819.988 1020.3 817.285L1018.8 817.31C1018.78 815.929 1018.75 814.557 1018.73 813.193C1018.7 811.89 1018.67 810.595 1018.64 809.307L1020.14 809.272C1020.08 806.634 1020.01 804.028 1019.94 801.456L1018.44 801.501C1018.36 798.813 1018.27 796.162 1018.17 793.549L1019.67 793.494C1019.57 790.724 1019.46 787.996 1019.34 785.312L1017.85 785.378C1017.77 783.54 1017.68 781.724 1017.6 779.928C1017.56 779.104 1017.52 778.285 1017.48 777.47L1018.97 777.395C1018.84 774.8 1018.71 772.251 1018.56 769.749L1017.07 769.834C1016.91 766.998 1016.74 764.221 1016.56 761.507L1018.06 761.411C1017.88 758.691 1017.7 756.033 1017.52 753.439L1016.02 753.546C1015.84 750.956 1015.65 748.43 1015.45 745.97L1016.95 745.853C1016.72 742.969 1016.49 740.177 1016.26 737.478L1014.76 737.608C1014.53 734.9 1014.29 732.287 1014.06 729.772L1015.55 729.632C1015.29 726.875 1015.03 724.235 1014.77 721.718L1013.28 721.871C1012.99 719.026 1012.7 716.338 1012.42 713.811L1013.91 713.645C1013.59 710.829 1013.29 708.215 1012.99 705.809L1011.51 705.99C1011.15 703.075 1010.82 700.468 1010.51 698.183L1012 697.986C1011.55 694.602 1011.17 691.924 1010.88 690L1009.4 690.221C1009.22 689.044 1009.08 688.152 1008.99 687.554C1008.94 687.256 1008.91 687.031 1008.88 686.881L1008.85 686.713L1008.85 686.672L1008.85 686.662L-340.773 742.941ZM-340.773 742.941L-340.88 742.558C-341.289 741.084 -341.736 739.71 -342.219 738.431L-343.622 738.962C-344.736 736.013 -346.037 733.627 -347.501 731.738L-346.315 730.819C-348.343 728.201 -350.702 726.416 -353.338 725.376L-353.889 726.772C-356.368 725.793 -359.085 725.561 -361.976 725.911L-362.156 724.421C-364.84 724.746 -367.623 725.536 -370.453 726.65L-369.904 728.046C-372.321 728.997 -374.811 730.208 -377.344 731.602L-378.067 730.288C-380.43 731.589 -382.822 733.043 -385.219 734.589L-384.406 735.85C-386.675 737.313 -388.957 738.865 -391.235 740.456L-392.094 739.227C-394.352 740.805 -396.604 742.419 -398.827 744.02L-397.95 745.237C-398.375 745.543 -398.798 745.848 -399.221 746.153C-401.051 747.472 -402.865 748.779 -404.65 750.046L-405.518 748.823C-407.831 750.464 -410.089 752.033 -412.273 753.472L-411.447 754.724C-413.89 756.334 -416.247 757.788 -418.489 759.006L-419.205 757.687C-421.859 759.128 -424.286 760.196 -426.452 760.793L-426.053 762.239C-429.154 763.092 -431.858 763.074 -434.039 761.844L-433.302 760.538C-434.825 759.679 -436.186 757.971 -437.14 754.855L-438.574 755.294C-439.236 753.133 -439.679 750.452 -439.879 747.184L-438.382 747.093C-438.46 745.815 -438.5 744.438 -438.5 742.959C-438.5 741.622 -438.496 740.285 -438.487 738.95L-439.987 738.94C-439.97 736.261 -439.935 733.586 -439.883 730.913L-438.383 730.942C-438.332 728.276 -438.263 725.613 -438.177 722.952L-439.676 722.904C-439.59 720.237 -439.487 717.573 -439.366 714.913L-437.868 714.98C-437.748 712.326 -437.611 709.675 -437.458 707.027L-438.955 706.94C-438.801 704.269 -438.629 701.602 -438.44 698.937L-436.944 699.043C-436.755 696.381 -436.55 693.723 -436.327 691.067L-437.822 690.942C-437.599 688.281 -437.36 685.622 -437.104 682.968L-435.61 683.112C-435.355 680.463 -435.083 677.818 -434.794 675.177L-436.285 675.014C-435.995 672.364 -435.689 669.717 -435.366 667.074L-433.877 667.256C-433.554 664.607 -433.214 661.961 -432.857 659.319L-434.344 659.118C-433.986 656.47 -433.612 653.825 -433.222 651.185L-431.738 651.404C-431.349 648.769 -430.944 646.139 -430.522 643.512L-432.003 643.274C-431.58 640.641 -431.141 638.012 -430.686 635.387L-429.208 635.643C-428.753 633.019 -428.283 630.398 -427.796 627.782L-429.27 627.508C-428.781 624.88 -428.276 622.257 -427.755 619.637L-426.284 619.93C-425.764 617.317 -425.229 614.708 -424.677 612.103L-426.145 611.793C-425.592 609.182 -425.023 606.575 -424.439 603.973L-422.976 604.302C-422.393 601.706 -421.794 599.114 -421.18 596.527L-422.64 596.181C-422.023 593.581 -421.391 590.987 -420.743 588.396L-419.288 588.76C-418.641 586.175 -417.979 583.595 -417.302 581.019L-418.753 580.638C-418.074 578.056 -417.38 575.479 -416.67 572.907L-415.224 573.305C-414.517 570.739 -413.794 568.177 -413.056 565.62L-414.497 565.204C-413.757 562.64 -413.002 560.082 -412.232 557.528L-410.796 557.96C-410.027 555.409 -409.243 552.863 -408.444 550.322L-409.875 549.872C-409.075 547.326 -408.26 544.784 -407.429 542.247L-406.004 542.714C-405.176 540.183 -404.333 537.657 -403.475 535.136L-404.895 534.653C-404.036 532.127 -403.162 529.605 -402.274 527.09L-400.86 527.589C-399.973 525.078 -399.072 522.572 -398.157 520.071L-399.565 519.555C-398.648 517.049 -397.716 514.547 -396.77 512.051L-395.367 512.583C-394.423 510.093 -393.465 507.608 -392.493 505.128L-393.89 504.581C-392.915 502.096 -391.927 499.617 -390.925 497.143L-389.535 497.706C-388.535 495.238 -387.521 492.775 -386.494 490.318L-387.878 489.739C-386.848 487.277 -385.804 484.821 -384.747 482.37L-383.37 482.964C-382.315 480.519 -381.247 478.079 -380.165 475.646L-381.536 475.036C-380.452 472.597 -379.354 470.164 -378.243 467.738L-376.879 468.362C-375.771 465.94 -374.649 463.524 -373.514 461.114L-374.871 460.475C-373.733 458.06 -372.583 455.652 -371.42 453.25L-370.07 453.904C-368.909 451.507 -367.735 449.117 -366.548 446.733L-367.891 446.064C-366.702 443.675 -365.5 441.292 -364.285 438.916L-362.949 439.598C-361.737 437.227 -360.512 434.861 -359.274 432.502L-360.602 431.805C-359.362 429.441 -358.109 427.084 -356.844 424.733L-355.523 425.444C-354.261 423.099 -352.986 420.761 -351.7 418.429L-353.013 417.704C-351.723 415.368 -350.422 413.038 -349.108 410.715L-347.802 411.454C-346.491 409.135 -345.167 406.824 -343.832 404.519L-345.129 403.767C-343.791 401.457 -342.441 399.154 -341.079 396.858L-339.789 397.624C-338.429 395.333 -337.058 393.049 -335.675 390.771L-336.957 389.993C-335.572 387.712 -334.175 385.439 -332.767 383.172L-331.493 383.964C-330.087 381.701 -328.67 379.446 -327.241 377.198L-328.507 376.393C-327.075 374.141 -325.632 371.895 -324.177 369.657L-322.92 370.474C-321.468 368.24 -320.005 366.013 -318.53 363.794L-319.78 362.964C-318.303 360.741 -316.815 358.525 -315.317 356.317L-314.075 357.159C-312.58 354.955 -311.073 352.759 -309.555 350.57L-310.787 349.715C-309.267 347.522 -307.735 345.336 -306.193 343.158L-304.968 344.025C-303.429 341.85 -301.878 339.684 -300.317 337.525L-301.533 336.646C-299.969 334.483 -298.394 332.327 -296.809 330.179L-295.602 331.07C-294.02 328.927 -292.428 326.791 -290.825 324.663L-292.023 323.761C-290.417 321.629 -288.801 319.505 -287.175 317.389L-285.985 318.303C-284.362 316.191 -282.728 314.086 -281.084 311.99L-282.265 311.064C-280.618 308.964 -278.961 306.871 -277.294 304.787L-276.122 305.724C-274.458 303.643 -272.784 301.57 -271.1 299.505L-272.263 298.557C-270.575 296.489 -268.879 294.429 -267.172 292.376L-266.019 293.335C-264.315 291.287 -262.601 289.247 -260.878 287.215L-262.023 286.244C-260.297 284.209 -258.561 282.181 -256.816 280.162L-255.681 281.143C-253.939 279.128 -252.187 277.121 -250.427 275.122L-251.552 274.13C-249.787 272.127 -248.013 270.132 -246.23 268.146L-245.113 269.148C-243.333 267.165 -241.543 265.191 -239.745 263.225L-240.851 262.212C-239.049 260.243 -237.238 258.282 -235.419 256.331L-234.321 257.353C-232.505 255.405 -230.679 253.465 -228.845 251.534L-229.932 250.501C-228.094 248.566 -226.247 246.64 -224.391 244.723L-223.313 245.766C-221.459 243.85 -219.596 241.944 -217.725 240.046L-218.793 238.993C-216.918 237.091 -215.035 235.199 -213.144 233.317L-212.085 234.38C-210.197 232.5 -208.3 230.629 -206.395 228.768L-207.444 227.695C-205.535 225.83 -203.619 223.975 -201.694 222.129L-200.656 223.211C-198.732 221.366 -196.8 219.53 -194.86 217.703L-195.888 216.611C-193.943 214.78 -191.991 212.958 -190.03 211.146L-189.012 212.247C-187.055 210.438 -185.09 208.639 -183.117 206.849L-184.125 205.738C-182.148 203.945 -180.165 202.161 -178.173 200.387L-177.175 201.507C-175.187 199.736 -173.19 197.975 -171.187 196.223L-172.174 195.094C-170.162 193.334 -168.142 191.585 -166.115 189.845L-165.138 190.984C-163.115 189.247 -161.084 187.521 -159.046 185.804L-160.012 184.657C-157.97 182.937 -155.921 181.227 -153.865 179.528L-152.91 180.684C-150.857 178.987 -148.798 177.301 -146.731 175.624L-147.676 174.459C-145.602 172.777 -143.522 171.105 -141.434 169.443L-140.5 170.617C-138.412 168.955 -136.318 167.303 -134.217 165.662L-135.14 164.48C-133.035 162.836 -130.924 161.203 -128.805 159.579L-127.893 160.77C-125.779 159.15 -123.658 157.54 -121.53 155.941L-122.431 154.742C-120.3 153.14 -118.163 151.549 -116.019 149.968L-115.129 151.175C-112.98 149.591 -110.824 148.017 -108.663 146.454L-109.541 145.239C-107.376 143.673 -105.204 142.118 -103.026 140.574L-102.158 141.797C-99.9838 140.256 -97.8034 138.726 -95.6171 137.206L-96.4732 135.974C-94.2831 134.452 -92.087 132.941 -89.8852 131.441L-89.0406 132.681C-86.838 131.181 -84.6295 129.691 -82.4153 128.213L-83.2481 126.966C-81.0234 125.48 -78.7929 124.007 -76.5569 122.544L-75.736 123.8C-73.5039 122.34 -71.2663 120.892 -69.0233 119.455L-69.8324 118.192C-67.5854 116.752 -65.3329 115.325 -63.0752 113.908L-62.2781 115.179C-60.0244 113.765 -57.7655 112.363 -55.5014 110.973L-56.2864 109.694C-54.0061 108.294 -51.7206 106.905 -49.43 105.529L-48.6573 106.814C-46.3695 105.439 -44.0767 104.076 -41.779 102.725L-42.5393 101.432C-40.2374 100.079 -37.9307 98.7374 -35.6191 97.408L-34.8713 98.7083C-32.564 97.3814 -30.2519 96.0666 -27.9352 94.764L-28.6703 93.4565C-26.343 92.1479 -24.011 90.8515 -21.6746 89.5676L-20.9522 90.8822C-18.6107 89.5955 -16.2648 88.3213 -13.9144 87.0596L-14.6239 85.738C-12.2693 84.474 -9.91019 83.2226 -7.54694 81.9838L-6.85056 83.3124C-4.49167 82.0759 -2.12854 80.8521 0.238617 79.6411L-0.44458 78.3057C1.927 77.0924 4.30264 75.8918 6.68225 74.7041L7.35214 76.0462C9.74417 74.8523 12.1402 73.6714 14.54 72.5037L13.8837 71.1549C16.2889 69.9845 18.698 68.8272 21.1108 67.6832L21.7534 69.0386C24.1617 67.8967 26.5735 66.7681 28.9889 65.6528L28.3601 64.291C30.7801 63.1736 33.2036 62.0695 35.6305 60.9789L36.2454 62.3471C38.6779 61.2539 41.1139 60.1742 43.553 59.1082L42.9524 57.7338C45.4058 56.6615 47.8625 55.6031 50.3224 54.5584L50.9087 55.9391C53.3637 54.8965 55.8219 53.8678 58.283 52.853L57.7112 51.4663C60.1771 50.4495 62.646 49.4467 65.1177 48.4579L65.6748 49.8506C68.1444 48.8627 70.6168 47.8888 73.0919 46.9291L72.5496 45.5306C75.0485 44.5616 77.55 43.6071 80.0542 42.6671L80.5814 44.0714C83.0804 43.1333 85.582 42.2097 88.0859 41.3007L87.5741 39.8907C90.0831 38.9798 92.5946 38.0836 95.1082 37.202L95.6046 38.6175C98.113 37.7378 100.624 36.8727 103.136 36.0225L102.656 34.6016C105.192 33.7435 107.73 32.9004 110.27 32.0725L110.735 33.4986C113.274 32.6707 115.816 31.858 118.36 31.0605L117.911 29.6292C120.46 28.8301 123.01 28.0463 125.563 27.2779L125.995 28.7142C128.542 27.9474 131.09 27.196 133.64 26.4601L133.224 25.019C135.791 24.2782 138.359 23.5531 140.928 22.8438L141.327 24.2897C143.904 23.5783 146.482 22.8828 149.061 22.2033L148.679 20.7528C151.264 20.0718 153.85 19.4068 156.437 18.758L156.802 20.2129C159.383 19.5655 161.965 18.9343 164.548 18.3192L164.2 16.86C166.794 16.2424 169.388 15.6412 171.983 15.0563L172.313 16.5196C174.922 15.9315 177.532 15.3601 180.142 14.8054L179.83 13.3382C182.446 12.7822 185.063 12.243 187.68 11.7208L187.973 13.1918C190.584 12.6707 193.195 12.1665 195.806 11.6793L195.531 10.2048C198.149 9.71642 200.766 9.24507 203.383 8.79086L203.64 10.2688C206.275 9.81145 208.91 9.37153 211.545 8.94914L211.307 7.46805C213.949 7.04448 216.591 6.63847 219.233 6.25015L219.451 7.7342C222.086 7.34683 224.72 6.97711 227.354 6.62515L227.156 5.13837C229.796 4.78554 232.436 4.45051 235.075 4.13339L235.254 5.62268C237.905 5.3041 240.555 5.00365 243.204 4.72145L243.045 3.22989C245.707 2.94638 248.367 2.68123 251.027 2.43456L251.165 3.92815C253.818 3.68212 256.469 3.45453 259.119 3.2455L259.001 1.75015C261.658 1.54057 264.313 1.3496 266.967 1.17735L267.064 2.6742C269.725 2.50149 272.384 2.34766 275.042 2.21281L274.966 0.71474C277.639 0.579094 280.311 0.462614 282.98 0.365421L283.035 1.86443C285.697 1.7675 288.358 1.6898 291.016 1.63146L290.983 0.131824C293.648 0.0733264 296.312 0.0342371 298.973 0.0146774L298.984 1.51464C300.31 1.50488 301.637 1.5 302.962 1.5C304.284 1.5 305.607 1.50486 306.93 1.51456L306.941 0.0145985C309.595 0.0340573 312.251 0.0729492 314.909 0.131154L314.876 1.63079C317.527 1.68884 320.18 1.76615 322.834 1.8626L322.888 0.363585C325.55 0.460295 328.213 0.576197 330.878 0.711172L330.802 2.20925C333.452 2.34348 336.104 2.49662 338.756 2.66855L338.853 1.1717C341.5 1.34325 344.149 1.53346 346.798 1.74221L346.68 3.23758C349.323 3.44579 351.966 3.6725 354.611 3.91759L354.749 2.42399C357.401 2.66971 360.053 2.93386 362.706 3.21631L362.547 4.70788C365.189 4.98911 367.831 5.28854 370.474 5.60605L370.653 4.11676C373.285 4.43295 375.918 4.76702 378.551 5.11886L378.352 6.60564C380.978 6.95661 383.605 7.3253 386.232 7.71161L386.451 6.22758C389.084 6.61484 391.718 7.01976 394.352 7.44222L394.114 8.92329C396.741 9.34465 399.368 9.78351 401.995 10.2398L402.252 8.76188C404.862 9.21523 407.472 9.6857 410.082 10.1732L409.807 11.6477C412.411 12.134 415.014 12.6373 417.617 13.1574L417.911 11.6865C420.52 12.2079 423.129 12.7461 425.737 13.3012L425.424 14.7683C428.026 15.3221 430.628 15.8926 433.228 16.4797L433.559 15.0166C436.147 15.6009 438.734 16.2016 441.32 16.8187L440.972 18.2777C443.547 18.8922 446.121 19.5229 448.695 20.1697L449.06 18.7149C451.639 19.3632 454.217 20.0276 456.794 20.7081L456.411 22.1584C458.982 22.8373 461.551 23.5323 464.119 24.2432L464.52 22.7976C467.081 23.5067 469.642 24.2316 472.201 24.9723L471.784 26.4131C474.326 27.1489 476.866 27.9001 479.405 28.6668L479.839 27.2309C482.383 27.9992 484.925 28.783 487.466 29.5821L487.016 31.013C489.551 31.8104 492.084 32.6231 494.615 33.451L495.081 32.0254C497.613 32.8535 500.143 33.6969 502.671 34.5553L502.189 35.9757C504.693 36.8263 507.196 37.6918 509.696 38.572L510.194 37.1571C512.699 38.0391 515.202 38.9359 517.703 39.8474L517.189 41.2567C519.685 42.1662 522.177 43.0904 524.667 44.0291L525.197 42.6255C527.692 43.5662 530.185 44.5214 532.674 45.491L532.13 46.8888C534.597 47.8495 537.061 48.8244 539.522 49.8135L540.081 48.4217C542.544 49.4115 545.005 50.4155 547.462 51.4334L546.887 52.8192C549.34 53.8351 551.789 54.8651 554.235 55.9089L554.823 54.5292C557.274 55.5751 559.721 56.6349 562.165 57.7085L561.562 59.0818C563.992 60.1493 566.419 61.2305 568.843 62.3252L569.46 60.9582C571.878 62.0506 574.292 63.1564 576.703 64.2755L576.071 65.6361C578.477 66.7531 580.88 67.8835 583.279 69.0272L583.924 67.6732C586.327 68.8191 588.727 69.9782 591.122 71.1506L590.463 72.4979C592.853 73.6676 595.239 74.8505 597.621 76.0464L598.294 74.7058C600.664 75.8958 603.03 77.0986 605.392 78.3143L604.705 79.648C607.063 80.8614 609.416 82.0875 611.765 83.3264L612.465 81.9996C614.818 83.2408 617.167 84.4947 619.511 85.7612L618.798 87.0809C621.138 88.3451 623.474 89.6218 625.805 90.9111L626.531 89.5985C628.857 90.8851 631.178 92.1841 633.495 93.4954L632.756 94.8008C635.063 96.1062 637.364 97.4239 639.661 98.7537L640.413 97.4556C642.714 98.7879 645.01 100.132 647.301 101.489L646.537 102.78C648.824 104.134 651.106 105.5 653.382 106.878L654.159 105.595C656.438 106.974 658.713 108.366 660.982 109.769L660.193 111.045C662.446 112.439 664.693 113.844 666.936 115.261L667.737 113.993C669.984 115.413 672.225 116.844 674.461 118.287L673.647 119.547C675.879 120.987 678.105 122.439 680.325 123.902L681.151 122.65C683.375 124.116 685.594 125.593 687.807 127.082L686.97 128.326C689.172 129.808 691.369 131.301 693.559 132.804L694.408 131.568C696.598 133.071 698.782 134.586 700.96 136.112L700.1 137.341C702.274 138.864 704.442 140.398 706.604 141.943L707.476 140.723C709.642 142.271 711.802 143.83 713.956 145.399L713.072 146.612C715.221 148.178 717.364 149.755 719.5 151.344L720.395 150.14C722.526 151.725 724.651 153.32 726.77 154.926L725.864 156.121C727.978 157.724 730.087 159.338 732.188 160.962L733.105 159.775C735.211 161.403 737.309 163.04 739.401 164.688L738.473 165.867C740.561 167.512 742.642 169.167 744.717 170.833L745.656 169.664C747.73 171.33 749.798 173.006 751.858 174.692L750.908 175.853C752.961 177.533 755.007 179.224 757.046 180.925L758.007 179.773C760.049 181.476 762.085 183.19 764.113 184.914L763.141 186.057C765.166 187.778 767.183 189.509 769.193 191.249L770.175 190.116C772.188 191.859 774.194 193.613 776.192 195.377L775.2 196.501C777.189 198.257 779.171 200.022 781.145 201.798L782.148 200.682C784.126 202.46 786.095 204.248 788.057 206.045L787.044 207.151C789.003 208.945 790.953 210.749 792.896 212.562L793.92 211.466C795.866 213.282 797.804 215.108 799.735 216.944L798.701 218.031C800.626 219.861 802.544 221.701 804.453 223.551L805.496 222.473C807.406 224.324 809.308 226.183 811.201 228.052L810.148 229.119C812.038 230.985 813.92 232.859 815.793 234.743L816.856 233.685C818.733 235.572 820.601 237.468 822.461 239.374L821.388 240.421C823.244 242.323 825.092 244.234 826.931 246.154L828.014 245.116C829.854 247.037 831.686 248.967 833.509 250.906L832.416 251.933C834.235 253.868 836.045 255.811 837.846 257.763L838.948 256.746C840.753 258.702 842.548 260.666 844.334 262.639L843.222 263.646C845.006 265.616 846.78 267.594 848.545 269.581L849.666 268.584C851.434 270.574 853.192 272.573 854.942 274.58L853.811 275.565C855.555 277.567 857.291 279.578 859.017 281.597L860.157 280.622C861.886 282.644 863.606 284.675 865.316 286.714L864.166 287.678C865.873 289.713 867.571 291.757 869.258 293.809L870.417 292.856C872.108 294.912 873.788 296.975 875.46 299.047L874.292 299.989C875.96 302.057 877.618 304.132 879.265 306.216L880.442 305.286C882.093 307.373 883.733 309.468 885.364 311.571L884.178 312.49C885.806 314.59 887.423 316.697 889.03 318.812L890.224 317.905C891.834 320.023 893.434 322.15 895.024 324.285L893.821 325.181C895.407 327.311 896.983 329.45 898.549 331.596L899.761 330.712C901.329 332.862 902.887 335.02 904.434 337.185L903.214 338.057C904.758 340.218 906.292 342.387 907.815 344.563L909.044 343.703C910.57 345.884 912.085 348.072 913.589 350.267L912.352 351.115C913.853 353.306 915.344 355.505 916.823 357.711L918.069 356.875C919.551 359.085 921.022 361.303 922.483 363.528L921.229 364.351C922.686 366.572 924.132 368.8 925.568 371.035L926.83 370.225C928.267 372.464 929.694 374.711 931.109 376.965L929.839 377.763C931.251 380.012 932.652 382.269 934.041 384.532L935.32 383.748C936.712 386.016 938.092 388.291 939.461 390.572L938.174 391.344C939.541 393.622 940.895 395.907 942.238 398.199L943.532 397.44C944.878 399.737 946.212 402.04 947.533 404.35L946.231 405.095C947.551 407.4 948.858 409.712 950.153 412.031L951.462 411.3C952.76 413.623 954.045 415.953 955.319 418.29L954.001 419.007C955.272 421.339 956.531 423.678 957.777 426.023L959.102 425.319C960.35 427.67 961.587 430.026 962.811 432.39L961.479 433.079C962.701 435.438 963.91 437.803 965.106 440.174L966.445 439.498C967.644 441.874 968.83 444.256 970.004 446.645L968.657 447.306C969.828 449.69 970.986 452.08 972.132 454.476L973.485 453.829C974.633 456.23 975.767 458.637 976.889 461.05L975.529 461.682C976.648 464.091 977.755 466.505 978.848 468.925L980.215 468.308C981.31 470.733 982.393 473.164 983.462 475.602L982.088 476.204C983.155 478.636 984.208 481.074 985.248 483.518L986.628 482.93C987.67 485.379 988.699 487.834 989.714 490.294L988.327 490.866C989.34 493.321 990.339 495.781 991.324 498.246L992.717 497.69C993.705 500.161 994.678 502.637 995.638 505.119L994.239 505.66C995.197 508.137 996.141 510.619 997.071 513.107L998.476 512.581C999.408 515.074 1000.33 517.573 1001.23 520.076L999.819 520.586C1000.72 523.083 1001.61 525.586 1002.48 528.094L1003.9 527.601C1004.77 530.113 1005.63 532.63 1006.48 535.153L1005.06 535.63C1005.9 538.147 1006.73 540.669 1007.55 543.196L1008.97 542.735C1009.79 545.268 1010.59 547.806 1011.38 550.349L1009.95 550.793C1010.73 553.33 1011.51 555.872 1012.26 558.419L1013.7 557.992C1014.46 560.541 1015.2 563.095 1015.93 565.654L1014.49 566.064C1015.21 568.616 1015.92 571.173 1016.62 573.735L1018.07 573.341C1018.77 575.909 1019.45 578.481 1020.12 581.057L1018.66 581.434C1019.33 584.005 1019.98 586.58 1020.62 589.16L1022.07 588.801C1022.71 591.386 1023.33 593.975 1023.94 596.569L1022.48 596.911C1023.08 599.492 1023.67 602.078 1024.24 604.668L1025.71 604.344C1026.28 606.94 1026.84 609.541 1027.39 612.146L1025.92 612.452C1026.46 615.051 1026.99 617.654 1027.5 620.261L1028.97 619.973C1029.48 622.586 1029.98 625.203 1030.46 627.825L1028.98 628.095C1029.46 630.705 1029.93 633.319 1030.37 635.936L1031.85 635.684C1032.3 638.302 1032.73 640.925 1033.14 643.551L1031.66 643.785C1032.08 646.405 1032.48 649.03 1032.86 651.657L1034.34 651.441C1034.73 654.075 1035.09 656.713 1035.44 659.355L1033.96 659.552C1034.31 662.188 1034.64 664.827 1034.96 667.47L1036.45 667.29C1036.77 669.926 1037.07 672.564 1037.35 675.207L1035.86 675.367C1036.14 678.002 1036.41 680.64 1036.66 683.281L1038.16 683.139C1038.41 685.786 1038.64 688.437 1038.86 691.092L1037.37 691.215C1037.58 693.863 1037.79 696.514 1037.97 699.169L1039.47 699.064C1039.65 701.721 1039.82 704.381 1039.97 707.044L1038.48 707.129C1038.63 709.77 1038.76 712.414 1038.88 715.06L1040.38 714.994C1040.5 717.647 1040.6 720.303 1040.68 722.962L1039.18 723.01C1039.27 725.662 1039.33 728.318 1039.39 730.977L1040.89 730.948C1040.94 733.613 1040.97 736.281 1040.99 738.951L1039.49 738.961C1039.5 740.293 1039.5 741.626 1039.5 742.959C1039.5 744.55 1039.49 745.996 1039.48 747.305L1040.98 747.322C1040.93 751.253 1040.82 753.963 1040.64 755.633C1040.59 755.466 1040.54 755.278 1040.48 755.069C1040.25 754.177 1039.99 753.016 1039.71 751.615L1038.24 751.912C1037.78 749.635 1037.27 746.785 1036.7 743.531L1038.18 743.276C1037.74 740.721 1037.27 737.916 1036.76 734.939L1035.29 735.189C1034.83 732.512 1034.36 729.699 1033.86 726.812L1035.34 726.557C1034.87 723.822 1034.38 721.018 1033.87 718.197L1032.39 718.464C1031.89 715.684 1031.37 712.888 1030.83 710.125L1032.3 709.838C1031.75 707.007 1031.18 704.209 1030.59 701.495L1029.12 701.812C1028.5 698.939 1027.86 696.164 1027.2 693.549L1028.65 693.182C1027.91 690.216 1027.13 687.443 1026.33 684.956L1024.9 685.415C1023.87 682.214 1022.81 679.514 1021.71 677.514L1023.03 676.793C1022 674.917 1020.78 673.307 1019.28 672.586C1018.47 672.198 1017.58 672.067 1016.67 672.296C1015.78 672.518 1015.01 673.044 1014.33 673.736L1015.4 674.785C1014.16 676.057 1012.89 678.474 1011.6 682.26L-340.773 742.941Z" stroke="#F1EFE9" stroke-width="3" stroke-dasharray="8 8"/>
<path d="M27.5956 127.627C26.3819 125.246 25.1394 122.945 23.868 120.725C22.6159 118.451 21.3265 116.151 20 113.822C20.5258 113.665 21.0328 113.517 21.521 113.377C21.9908 113.202 22.4514 113.008 22.9028 112.797C23.3542 112.585 23.7964 112.355 24.2294 112.108C24.644 111.824 25.0774 111.531 25.5297 111.23C26.6305 113.664 27.713 116.062 28.777 118.424C29.8603 120.732 31.0088 123.076 32.2225 125.457C34.5395 130.003 36.572 133.945 38.3198 137.282C40.0492 140.584 41.604 143.543 42.984 146.159C45.6548 144.906 48.2035 143.689 50.6302 142.507C53.0386 141.288 55.5614 139.837 58.1988 138.154C58.3417 138.891 58.5235 139.476 58.7442 139.909C58.9465 140.306 59.2887 140.749 59.7711 141.238C58.0039 141.977 56.2551 142.752 54.5248 143.564C52.7944 144.375 51.064 145.186 49.3336 145.998C47.528 146.844 45.7788 147.664 44.0861 148.458C42.4309 149.234 40.719 150.081 38.9501 151C37.9228 148.71 36.8584 146.393 35.7567 144.049C34.6926 141.687 33.5537 139.316 32.3401 136.935L27.5956 127.627Z" fill="#FBFAF7"/>
<path d="M75.3985 118.529C74.8383 119.014 74.146 119.509 73.3216 120.012C72.5359 120.501 71.7389 121.015 70.9307 121.556C70.1064 122.06 69.3062 122.619 68.5302 123.234C67.7928 123.834 67.173 124.495 66.6708 125.218C66.2073 125.926 65.908 126.698 65.773 127.535C65.6767 128.357 65.8541 129.287 66.3054 130.324C67.0629 132.066 68.1568 133.173 69.587 133.646C71.0172 134.118 72.37 134.099 73.6453 133.589C75.1138 133.001 76.2777 132.079 77.1373 130.821C78.0354 129.548 78.5874 128.262 78.793 126.961L75.3985 118.529ZM56.7774 114.36C57.9684 112.404 59.2015 110.911 60.4766 109.878C61.7517 108.846 63.1621 108.021 64.7079 107.403C66.099 106.846 67.463 106.54 68.7996 106.484C70.1201 106.391 71.3473 106.553 72.4812 106.969C73.599 107.349 74.6154 107.965 75.5304 108.817C76.4293 109.632 77.1447 110.651 77.6766 111.875C78.5952 113.987 79.4753 116.115 80.3167 118.259C81.142 120.365 82.0623 122.586 83.0777 124.921C83.2711 125.366 83.4806 125.847 83.7063 126.366C83.9544 126.833 84.2444 127.239 84.5763 127.585C84.8921 127.894 85.2416 128.124 85.6249 128.275C86.0469 128.411 86.5477 128.363 87.1274 128.131C87.3206 128.053 87.5139 127.976 87.7071 127.899C87.9229 127.769 88.1032 127.61 88.248 127.421L88.7799 128.644C88.4354 129 87.9588 129.364 87.3502 129.738C86.7803 130.097 86.1088 130.431 85.3359 130.74C84.0993 131.235 83.0235 131.317 82.1087 130.987C81.1778 130.619 80.4448 129.977 79.9098 129.06C79.0988 130.95 78.154 132.481 77.0754 133.652C75.9969 134.824 74.4722 135.803 72.5013 136.592C71.5352 136.978 70.532 137.227 69.4917 137.339C68.4514 137.45 67.4352 137.356 66.4431 137.057C65.4896 136.742 64.6037 136.27 63.7854 135.64C62.9896 134.957 62.358 134.079 61.8906 133.004C60.9235 130.78 60.889 128.771 61.787 126.976C62.7236 125.165 64.3786 123.546 66.7519 122.118C68.6936 120.95 70.1958 120.023 71.2584 119.337C72.3436 118.598 73.1003 117.991 73.5285 117.515C73.9953 117.024 74.2142 116.588 74.1851 116.208C74.1398 115.791 73.9963 115.305 73.7546 114.749C73.3516 113.822 72.8489 112.979 72.2463 112.219C71.6438 111.459 70.9543 110.865 70.1779 110.436C69.4015 110.007 68.527 109.769 67.5543 109.723C66.5654 109.64 65.4914 109.83 64.3321 110.294C62.7863 110.912 61.4822 111.826 60.4197 113.034C59.3959 114.227 58.8134 115.547 58.6722 116.996L58.0345 117.251L56.7774 114.36Z" fill="#FBFAF7"/>
<path d="M111.224 105.646C110.596 103.9 109.805 102.441 108.852 101.27C107.925 100.048 106.922 99.1053 105.842 98.4431C104.801 97.7679 103.705 97.3663 102.551 97.2383C101.424 97.0592 100.345 97.14 99.3163 97.4806C98.0893 97.8867 96.9838 98.5075 95.9999 99.343C95.0419 100.127 94.3318 101.17 93.8694 102.47C93.3934 103.732 93.1918 105.264 93.2646 107.067C93.3633 108.818 93.8362 110.871 94.6831 113.224C97.4287 120.854 101.691 123.713 107.47 121.8C108.697 121.394 109.715 120.717 110.526 119.769C111.323 118.783 111.886 117.577 112.214 116.152C112.582 114.713 112.69 113.105 112.538 111.329C112.386 109.552 111.948 107.658 111.224 105.646ZM116.51 104.088C117.303 106.29 117.67 108.419 117.614 110.477C117.596 112.522 117.213 114.412 116.465 116.147C115.742 117.83 114.679 119.308 113.276 120.579C111.899 121.8 110.261 122.724 108.361 123.353C106.461 123.982 104.602 124.172 102.786 123.924C100.995 123.625 99.5054 123.056 98.3177 122.217C97.2889 123.789 96.3591 125.329 95.5283 126.836L94.4596 127.19C94.2109 126.253 93.8742 125.132 93.4493 123.828C93.064 122.511 92.6316 121.125 92.1522 119.67C91.659 118.176 91.1392 116.67 90.5928 115.152C90.086 113.62 89.6004 112.209 89.1359 110.918L85.4273 100.612C84.9628 99.3215 84.4376 97.9235 83.8517 96.4182C83.3053 94.8998 82.7459 93.4069 82.1736 91.9396C81.6013 90.4722 81.0365 89.0873 80.4792 87.7849C79.9479 86.4314 79.4719 85.2933 79.0512 84.3705C80.2278 84.1935 81.1525 83.9936 81.8254 83.7709C82.2608 83.6268 82.7091 83.4571 83.1704 83.262C83.618 83.0288 84.1053 82.7826 84.6321 82.5233C84.7865 83.3218 85.1247 84.5693 85.6466 86.2657C86.1548 87.9242 86.7579 89.7849 87.456 91.8479C88.1404 93.8729 88.8521 95.9738 89.5911 98.1507C90.3165 100.29 90.9736 102.239 91.5623 103.998L91.6811 103.959C92.2892 101.463 93.2339 99.4726 94.5152 97.9865C95.7965 96.5003 97.5058 95.4035 99.6431 94.6961C101.701 94.0148 103.619 93.8049 105.396 94.0663C107.16 94.2897 108.755 94.845 110.182 95.7322C111.608 96.6194 112.853 97.8006 113.915 99.2757C115.003 100.7 115.868 102.304 116.51 104.088Z" fill="#FBFAF7"/>
<path d="M127.666 101.796C128.136 103.421 128.73 104.951 129.449 106.385C130.208 107.808 131.124 109.023 132.197 110.029C133.259 110.997 134.496 111.668 135.908 112.043C137.32 112.417 138.913 112.369 140.689 111.896C142.464 111.424 143.856 110.679 144.865 109.66C145.874 108.642 146.574 107.456 146.965 106.102C147.344 104.709 147.457 103.22 147.303 101.636C147.189 100.041 146.898 98.4308 146.428 96.8056C145.958 95.1803 145.343 93.656 144.584 92.2326C143.865 90.7986 142.975 89.5977 141.913 88.6299C140.84 87.6235 139.597 86.9329 138.185 86.5583C136.774 86.1837 135.18 86.2325 133.405 86.7047C131.629 87.1768 130.237 87.9222 129.228 88.9407C128.219 89.9591 127.525 91.1648 127.145 92.5575C126.755 93.9116 126.616 95.3862 126.73 96.9812C126.884 98.5655 127.196 100.17 127.666 101.796ZM122.34 103.212C121.579 100.581 121.359 98.2429 121.681 96.1988C122.031 94.1053 122.75 92.3096 123.838 90.8118C124.914 89.2753 126.248 88.0248 127.837 87.0603C129.456 86.0463 131.133 85.3087 132.868 84.8472C134.643 84.375 136.476 84.1791 138.368 84.2594C140.248 84.3011 142.063 84.7145 143.81 85.4998C145.547 86.2465 147.108 87.4358 148.492 89.0679C149.906 90.6506 150.993 92.7576 151.754 95.389C152.515 98.0204 152.72 100.383 152.369 102.476C152.048 104.521 151.349 106.311 150.272 107.847C149.184 109.345 147.84 110.557 146.24 111.483C144.639 112.409 142.951 113.108 141.175 113.58C139.44 114.041 137.618 114.276 135.709 114.284C133.839 114.281 132.036 113.906 130.3 113.159C128.552 112.374 126.971 111.19 125.558 109.607C124.173 107.975 123.101 105.843 122.34 103.212Z" fill="#FBFAF7"/>
<path d="M171.226 81.546C170.967 81.3545 170.508 81.2261 169.85 81.1609C169.232 81.087 168.617 81.1155 168.003 81.2463C167.023 81.4557 166.194 81.8588 165.517 82.4557C164.841 83.0526 164.323 83.7801 163.965 84.6383C163.597 85.4572 163.388 86.4068 163.339 87.4871C163.28 88.5281 163.382 89.617 163.646 90.7538L165.147 97.2216C165.756 99.8479 166.224 101.867 166.552 103.278C166.911 104.641 167.252 105.741 167.575 106.577C166.739 106.673 165.912 106.808 165.095 106.983C164.196 107.175 163.347 107.397 162.547 107.65C162.361 106.291 162.004 104.475 161.476 102.201C160.981 99.8796 160.346 97.0529 159.573 93.721L159.137 91.8395C158.782 90.3107 158.352 88.5511 157.848 86.5607C157.384 84.5616 156.791 82.2815 156.068 79.7206C156.536 79.703 156.983 79.6899 157.41 79.681C157.828 79.633 158.261 79.561 158.711 79.4651C159.079 79.3866 159.462 79.2841 159.862 79.1577C160.253 78.9921 160.664 78.8221 161.095 78.6478C161.259 80.0938 161.416 81.2328 161.566 82.0647C161.757 82.8879 161.939 83.6718 162.112 84.4166L162.248 84.4493C163.677 79.7012 165.884 77.0088 168.867 76.3721C169.235 76.2936 169.546 76.2478 169.8 76.2347C170.096 76.2128 170.466 76.2367 170.911 76.3062C170.816 76.8202 170.861 77.5716 171.048 78.5603C171.225 79.5098 171.405 80.3765 171.587 81.1605L171.226 81.546Z" fill="#FBFAF7"/>
<path d="M189.708 74.4505C188.183 74.7134 186.948 75.2731 186.002 76.1298C185.098 76.9793 184.392 77.9782 183.884 79.1266C183.41 80.2284 183.102 81.4239 182.961 82.7131C182.853 83.9556 182.858 85.1176 182.976 86.1989C184.261 86.0182 185.587 85.8304 186.955 85.6355C188.363 85.4334 189.727 85.2188 191.045 84.9914C192.405 84.757 193.782 84.4992 195.176 84.2181C196.57 83.937 197.922 83.6631 199.234 83.3962C199.034 82.3291 198.72 81.2204 198.291 80.0702C197.904 78.9129 197.326 77.8702 196.556 76.942C195.828 76.0067 194.906 75.2884 193.791 74.787C192.676 74.2856 191.315 74.1734 189.708 74.4505ZM177.995 90.6073C177.084 85.7458 177.564 81.7257 179.436 78.547C181.349 75.3612 184.613 73.3704 189.229 72.5747C191.413 72.1981 193.351 72.2108 195.043 72.6128C196.769 72.9681 198.271 73.6067 199.55 74.5287C200.821 75.4111 201.841 76.5409 202.61 77.918C203.42 79.288 203.98 80.8031 204.291 82.4631C204.366 82.8583 204.419 83.2571 204.452 83.6594C204.519 84.0152 204.568 84.3942 204.601 84.7965C202.368 85.1407 200.156 85.4812 197.965 85.8182C195.773 86.1552 193.565 86.5156 191.339 86.8992C189.979 87.1337 188.623 87.3879 187.27 87.6619C185.959 87.9287 184.627 88.1991 183.275 88.4731C183.27 88.6778 183.305 88.9778 183.38 89.3731L183.524 90.1438C183.813 91.6852 184.31 93.0888 185.015 94.3544C185.761 95.613 186.681 96.6582 187.772 97.49C188.857 98.2822 190.114 98.8611 191.544 99.2267C192.966 99.5527 194.543 99.5665 196.274 99.2681C197.098 99.126 197.924 98.8815 198.753 98.5347C199.574 98.1484 200.363 97.7063 201.12 97.2085C201.871 96.6712 202.548 96.0852 203.152 95.4506C203.798 94.8089 204.333 94.1455 204.757 93.4603L205.1 93.5848L205.273 96.5538C204.215 97.7155 202.821 98.7921 201.093 99.7838C199.405 100.768 197.573 101.431 195.594 101.772C193.369 102.156 191.27 102.191 189.297 101.878C187.358 101.519 185.593 100.844 184.004 99.8533C182.448 98.8159 181.14 97.5114 180.08 95.9397C179.06 94.361 178.366 92.5835 177.995 90.6073Z" fill="#FBFAF7"/>
<path d="M240.452 67.7777C238.91 67.9225 237.632 68.3855 236.618 69.1666C235.646 69.9439 234.858 70.8853 234.256 71.991C233.691 73.0527 233.285 74.2207 233.036 75.4949C232.825 76.7252 232.733 77.8838 232.76 78.9707C234.056 78.8894 235.393 78.8041 236.773 78.715C238.193 78.6219 239.571 78.5127 240.904 78.3875C242.279 78.2584 243.673 78.1073 245.086 77.9343C246.499 77.7613 247.87 77.5922 249.199 77.427C249.089 76.3479 248.869 75.2187 248.538 74.0392C248.249 72.8559 247.76 71.7721 247.07 70.7877C246.422 69.7995 245.564 69.0126 244.494 68.4271C243.425 67.8416 242.077 67.6251 240.452 67.7777ZM227.427 82.9819C226.925 78.066 227.739 74.0958 229.871 71.0712C232.044 68.0427 235.464 66.3093 240.131 65.8711C242.34 65.6637 244.271 65.8253 245.924 66.3561C247.614 66.8429 249.058 67.595 250.256 68.6123C251.449 69.5897 252.372 70.7943 253.023 72.2261C253.716 73.6539 254.148 75.2072 254.319 76.8858C254.36 77.2854 254.38 77.687 254.379 78.0906C254.416 78.4503 254.433 78.832 254.433 79.2355C252.178 79.4069 249.945 79.5763 247.732 79.7437C245.519 79.9111 243.288 80.1005 241.038 80.3118C239.662 80.4409 238.289 80.59 236.918 80.7591C235.589 80.9243 234.238 81.0914 232.867 81.2605C232.846 81.4643 232.856 81.766 232.897 82.1656L232.976 82.945C233.135 84.5037 233.513 85.9409 234.111 87.2567C234.749 88.5686 235.578 89.6811 236.597 90.5942C237.612 91.4673 238.816 92.141 240.211 92.6153C241.602 93.0496 243.172 93.1845 244.922 93.0202C245.756 92.9419 246.6 92.7618 247.454 92.4798C248.305 92.1578 249.129 91.7779 249.926 91.3399C250.718 90.862 251.442 90.33 252.098 89.7439C252.795 89.1539 253.383 88.5337 253.864 87.8834L254.195 88.0339L254.12 91.0066C252.967 92.0832 251.488 93.0492 249.682 93.9047C247.918 94.7563 246.036 95.2761 244.036 95.4639C241.786 95.6752 239.69 95.5492 237.75 95.0858C235.847 94.5785 234.144 93.77 232.643 92.6602C231.179 91.5065 229.984 90.1055 229.058 88.4574C228.174 86.8054 227.631 84.9802 227.427 82.9819Z" fill="#FBFAF7"/>
<path d="M266.178 56.4758C266.144 58.0062 266.13 59.5153 266.135 61.0033C266.18 62.4489 266.206 63.9157 266.211 65.4037C266.671 65.3782 267.528 65.3308 268.782 65.2615C270.034 65.152 271.388 65.0167 272.847 64.8556C272.812 64.9782 272.805 65.1999 272.824 65.5206L272.9 66.7835C272.917 67.0641 272.95 67.2634 272.999 67.3814C272.453 67.3713 271.887 67.3825 271.302 67.4149C270.714 67.4071 270.086 67.4218 269.417 67.4588L266.345 67.6287C266.313 67.7914 266.289 68.4363 266.273 69.5635C266.298 70.6883 266.337 72.0337 266.389 73.5995C266.439 75.1253 266.494 76.7313 266.553 78.4174C266.655 80.1012 266.745 81.6046 266.825 82.9276C266.892 84.0501 266.979 85.1515 267.086 86.2316C267.235 87.3094 267.503 88.2801 267.89 89.1436C268.275 89.967 268.818 90.6208 269.518 91.105C270.218 91.5892 271.195 91.7966 272.449 91.7272C272.784 91.7087 273.22 91.6444 273.759 91.5341C274.339 91.4216 274.835 91.2936 275.246 91.1502L275.333 92.5935C274.629 92.7531 273.843 92.9373 272.975 93.1462C272.151 93.3929 271.342 93.5382 270.548 93.5822C267.914 93.7278 265.933 93.2139 264.604 92.0405C263.276 90.867 262.539 89.0776 262.394 86.6721C262.329 85.5897 262.28 84.4259 262.247 83.1808C262.212 81.8956 262.171 80.5101 262.123 79.0244C262.115 77.4964 262.078 75.8291 262.011 74.0227C261.942 72.1762 261.84 70.1304 261.705 67.8854L259.698 67.9963C259.364 68.0148 259.01 68.0545 258.636 68.1154C258.26 68.1362 257.864 68.1783 257.448 68.2415C257.476 67.9986 257.483 67.777 257.471 67.5765C257.499 67.3336 257.505 67.0919 257.491 66.8514C257.479 66.6509 257.446 66.4516 257.392 66.2535C257.38 66.053 257.347 65.8538 257.293 65.6556C259.181 65.6718 260.564 65.6557 261.442 65.6071C261.352 64.8076 261.25 63.8077 261.136 62.6072C261.064 61.4045 260.947 60.164 260.786 58.8857L265.864 56.4931L266.178 56.4758Z" fill="#FBFAF7"/>
<path d="M331.567 90.0891C331.184 90.4039 330.571 90.7551 329.726 91.1425C328.924 91.4904 327.934 91.8152 326.756 92.1166C325.62 92.3786 324.339 92.6181 322.911 92.835C321.483 93.052 319.995 93.1474 318.446 93.1213C315.138 93.0656 312.09 92.5725 309.301 91.6419C306.513 90.6711 304.111 89.245 302.093 87.3635C300.117 85.4827 298.568 83.2074 297.444 80.5377C296.363 77.8285 295.854 74.7675 295.916 71.3547C295.979 67.9418 296.599 64.9199 297.778 62.289C299 59.6186 300.653 57.3772 302.738 55.5648C304.865 53.7531 307.382 52.3898 310.288 51.4748C313.195 50.5598 316.385 50.1316 319.86 50.1901C322.623 50.2367 325.13 50.56 327.38 51.1602C329.673 51.721 331.692 52.3976 333.436 53.1901C333.091 53.7466 332.805 54.5049 332.578 55.465C332.351 56.4251 332.169 57.2253 332.031 57.8656L331.652 57.9797C331.243 57.4908 330.666 56.9389 329.924 56.324C329.181 55.709 328.313 55.112 327.318 54.5329C326.324 53.9539 325.202 53.4731 323.953 53.0906C322.704 52.6679 321.326 52.4439 319.819 52.4185C317.349 52.3769 315.04 52.7196 312.89 53.4465C310.783 54.1741 308.92 55.3275 307.299 56.9068C305.722 58.4466 304.471 60.4337 303.547 62.8681C302.623 65.2624 302.131 68.1258 302.07 71.4583C302.009 74.7909 302.396 77.6892 303.23 80.1532C304.065 82.5771 305.243 84.6051 306.762 86.2373C308.324 87.83 310.145 89.0254 312.224 89.8235C314.345 90.6223 316.641 91.0426 319.111 91.0842C320.618 91.1096 322.003 90.9521 323.266 90.6119C324.57 90.2724 325.75 89.8706 326.805 89.4064C327.903 88.9028 328.876 88.377 329.724 87.8289C330.614 87.2415 331.356 86.7319 331.95 86.3001L332.197 86.5452L331.567 90.0891Z" fill="#FBFAF7"/>
<path d="M343.69 79.1187C343.552 80.8001 343.565 82.4325 343.728 84.0159C343.934 85.6024 344.361 87.0446 345.011 88.3425C345.663 89.6004 346.586 90.637 347.779 91.4523C348.972 92.2677 350.487 92.7448 352.323 92.8838C354.16 93.0228 355.734 92.7794 357.045 92.1535C358.357 91.5277 359.438 90.6427 360.288 89.4986C361.141 88.3144 361.778 86.9527 362.199 85.4136C362.661 83.8775 362.962 82.2688 363.1 80.5875C363.238 78.9061 363.205 77.2721 362.999 75.6855C362.836 74.1021 362.427 72.6815 361.775 71.4237C361.126 70.1258 360.205 69.0692 359.012 68.2538C357.819 67.4385 356.304 66.9613 354.467 66.8223C352.631 66.6834 351.057 66.9268 349.745 67.5526C348.433 68.1785 347.351 69.0835 346.498 70.2676C345.647 71.4118 344.991 72.7518 344.529 74.2879C344.108 75.827 343.829 77.4373 343.69 79.1187ZM338.18 78.7018C338.404 75.9795 339.032 73.7108 340.063 71.8956C341.14 70.0435 342.456 68.5922 344.013 67.5418C345.572 66.4514 347.271 65.7139 349.109 65.3292C350.992 64.9078 352.83 64.7649 354.625 64.9007C356.462 65.0397 358.255 65.4574 360.003 66.1536C361.755 66.8099 363.313 67.7938 364.675 69.1053C366.04 70.3768 367.082 72.0065 367.801 73.9945C368.564 75.9455 368.834 78.2821 368.61 81.0044C368.386 83.7266 367.736 86.0138 366.659 87.8659C365.628 89.6811 364.333 91.134 362.773 92.2244C361.216 93.2748 359.521 93.9723 357.686 94.3169C355.852 94.6614 354.017 94.7642 352.18 94.6253C350.385 94.4894 348.589 94.1118 346.792 93.4925C345.037 92.8762 343.476 91.9324 342.111 90.6609C340.749 89.3493 339.686 87.718 338.922 85.767C338.204 83.7791 337.957 81.424 338.18 78.7018Z" fill="#FBFAF7"/>
<path d="M397.097 81.8454C397.521 78.8612 397.239 76.5345 396.251 74.8652C395.269 73.1561 393.719 72.1632 391.604 71.8865C388.699 71.5068 386.441 72.0829 384.829 73.6148C383.258 75.1522 382.252 77.4727 381.811 80.5762L381.09 85.6494C380.835 87.4399 380.587 89.3326 380.346 91.3275C380.152 93.288 380.045 95.0776 380.027 96.6963C379.084 96.492 378.156 96.3301 377.243 96.2108C376.33 96.0915 375.391 96.0092 374.426 95.964C374.86 94.3996 375.236 92.6452 375.554 90.701C375.92 88.7223 376.23 86.8378 376.485 85.0472L377.367 78.8401C377.622 77.0496 377.846 75.1741 378.04 73.2135C378.281 71.2186 378.42 69.3522 378.456 67.6141C379.589 67.9649 380.508 68.1865 381.214 68.2787C381.546 68.3221 381.901 68.3483 382.28 68.3573C382.706 68.332 383.195 68.3148 383.745 68.3057C383.395 69.881 383.106 71.4645 382.88 73.056L383.004 73.0723C384.409 71.5133 385.986 70.3819 387.734 69.6783C389.488 68.935 391.485 68.7097 393.725 69.0027C394.887 69.1545 396.026 69.4656 397.142 69.9358C398.3 70.4114 399.299 71.1095 400.141 72.0301C400.987 72.9108 401.605 74.0656 401.993 75.4944C402.429 76.8888 402.5 78.6205 402.206 80.6896C401.963 82.4005 401.669 84.1657 401.326 85.9852C400.989 87.7649 400.676 89.6693 400.387 91.6986L399.836 95.578C399.745 96.2147 399.655 96.8513 399.564 97.4879C399.521 98.0902 399.48 98.6726 399.443 99.235C398.624 99.047 397.759 98.8933 396.846 98.7739C395.975 98.66 395.119 98.5886 394.278 98.5597C394.655 96.5015 395.04 94.3836 395.434 92.206C395.87 90.0339 396.252 87.7939 396.58 85.4861L397.097 81.8454Z" fill="#FBFAF7"/>
<path d="M409.746 95.2694C409.875 95.701 410.099 96.1905 410.419 96.7379C410.779 97.2927 411.205 97.8388 411.697 98.3762C412.237 98.8815 412.851 99.3386 413.538 99.7476C414.267 100.164 415.063 100.45 415.927 100.604C416.709 100.744 417.473 100.759 418.219 100.647C419.006 100.543 419.709 100.321 420.329 99.9831C420.99 99.652 421.55 99.1804 422.01 98.5683C422.47 97.9562 422.784 97.2159 422.953 96.3474C423.192 95.1237 423.002 94.1297 422.384 93.3654C421.815 92.5691 421.034 91.8777 420.04 91.2913C419.055 90.6655 417.955 90.0804 416.74 89.5362C415.526 88.9919 414.437 88.3476 413.474 87.6034C412.52 86.8196 411.764 85.8877 411.208 84.8076C410.692 83.7349 410.596 82.3696 410.919 80.7117C411.172 79.409 411.629 78.2652 412.289 77.2805C412.957 76.2562 413.8 75.4267 414.818 74.792C415.836 74.1573 417.026 73.737 418.386 73.5312C419.754 73.286 421.262 73.3108 422.908 73.6056C424.431 73.8782 425.668 74.3041 426.621 74.8831C427.614 75.4695 428.553 76.0053 429.438 76.4906C428.994 77.0238 428.543 77.6988 428.086 78.5157C427.629 79.3325 427.313 79.9704 427.138 80.4294L426.397 80.2968C426.253 79.2904 425.78 78.3274 424.979 77.4079C424.178 76.4884 423.078 75.9033 421.679 75.6527C421.061 75.5422 420.425 75.5303 419.769 75.6172C419.113 75.704 418.5 75.9006 417.929 76.2069C417.358 76.5132 416.847 76.9527 416.395 77.5253C415.942 78.098 415.632 78.8185 415.463 79.687C415.217 80.9502 415.375 81.9997 415.936 82.8356C416.546 83.6393 417.348 84.3344 418.341 84.9207C419.335 85.5071 420.439 86.0724 421.653 86.6167C422.875 87.1215 423.968 87.746 424.93 88.4903C425.9 89.1951 426.643 90.0838 427.159 91.1565C427.715 92.2366 427.832 93.6056 427.509 95.2635C427.286 96.4083 426.8 97.4855 426.049 98.495C425.34 99.5119 424.404 100.386 423.239 101.117C422.123 101.816 420.836 102.3 419.378 102.57C417.928 102.801 416.338 102.761 414.609 102.452C412.716 102.113 411.166 101.651 409.959 101.068C408.752 100.484 407.763 99.8777 406.991 99.2493C407.338 98.7803 407.719 98.1337 408.135 97.3095C408.6 96.4531 408.89 95.7289 409.005 95.1368L409.746 95.2694Z" fill="#FBFAF7"/>
<path d="M446.935 70.7563C446.464 72.2189 446.018 73.6662 445.597 75.0984C445.226 76.5001 444.83 77.9171 444.409 79.3493C444.858 79.446 445.696 79.6263 446.922 79.8902C448.156 80.1149 449.498 80.342 450.946 80.5715C450.878 80.6802 450.807 80.8913 450.734 81.2048L450.445 82.439C450.38 82.7133 450.355 82.9136 450.368 83.04C449.846 82.8864 449.299 82.7481 448.728 82.6249C448.165 82.4626 447.556 82.3111 446.903 82.1704L443.9 81.5239C443.822 81.6718 443.614 82.2855 443.276 83.365C442.978 84.4533 442.63 85.7572 442.232 87.2765C441.842 88.7566 441.435 90.3151 441.009 91.952C440.623 93.5976 440.279 95.0669 439.977 96.36C439.72 97.4571 439.488 98.539 439.281 99.6057C439.116 100.681 439.095 101.685 439.22 102.618C439.354 103.511 439.689 104.282 440.223 104.932C440.758 105.583 441.638 106.04 442.863 106.303C443.19 106.374 443.628 106.427 444.178 106.463C444.768 106.508 445.281 106.515 445.717 106.486L445.387 107.896C444.665 107.864 443.857 107.834 442.962 107.806C442.099 107.826 441.28 107.753 440.503 107.586C437.93 107.032 436.172 106.015 435.231 104.537C434.289 103.058 434.094 101.143 434.644 98.7925C434.892 97.7346 435.178 96.6027 435.503 95.3968C435.838 94.1518 436.195 92.8088 436.575 91.3678C437.005 89.8965 437.447 88.2836 437.901 86.5292C438.363 84.7356 438.852 82.7417 439.365 80.5475L437.404 80.1253C437.077 80.055 436.726 79.9998 436.349 79.9598C435.981 79.8806 435.588 79.8167 435.17 79.7679C435.266 79.5416 435.337 79.3305 435.383 79.1346C435.479 78.9083 435.554 78.6776 435.61 78.4425C435.655 78.2466 435.681 78.0463 435.686 77.8416C435.732 77.6457 435.757 77.4453 435.762 77.2406C437.573 77.754 438.907 78.103 439.765 78.2877C439.908 77.4953 440.096 76.507 440.331 75.3227C440.606 74.1472 440.849 72.9238 441.061 71.6524L446.629 70.6904L446.935 70.7563Z" fill="#FBFAF7"/>
<path d="M469.681 98.5868C468.928 98.6424 468.065 98.6279 467.092 98.5435C466.158 98.4694 465.2 98.4096 464.215 98.3639C463.242 98.2794 462.252 98.2531 461.246 98.285C460.28 98.3273 459.368 98.4874 458.51 98.7652C457.692 99.0535 456.963 99.4894 456.323 100.073C455.723 100.667 455.271 101.507 454.967 102.593C454.456 104.415 454.617 105.933 455.448 107.145C456.279 108.357 457.362 109.135 458.696 109.479C460.233 109.875 461.742 109.827 463.224 109.335C464.746 108.854 466.003 108.159 466.994 107.25L469.681 98.5868ZM457.599 84.3722C459.788 83.5223 461.716 83.0627 463.383 82.9931C465.05 82.9236 466.692 83.0972 468.309 83.5139C469.765 83.8889 471.04 84.446 472.133 85.1851C473.238 85.8855 474.106 86.7328 474.738 87.7273C475.381 88.6829 475.793 89.7662 475.974 90.9771C476.166 92.1492 476.083 93.3752 475.724 94.655C475.105 96.8657 474.446 99.0659 473.746 101.256C473.057 103.407 472.37 105.704 471.686 108.147C471.555 108.612 471.414 109.117 471.262 109.66C471.161 110.174 471.132 110.666 471.174 111.134C471.227 111.563 471.357 111.95 471.564 112.295C471.812 112.65 472.239 112.905 472.845 113.061C473.048 113.113 473.25 113.166 473.452 113.218C473.706 113.241 473.95 113.221 474.184 113.157L473.826 114.437C473.327 114.516 472.717 114.525 471.997 114.465C471.318 114.414 470.574 114.285 469.765 114.077C468.471 113.743 467.567 113.178 467.053 112.38C466.55 111.544 466.38 110.606 466.541 109.566C464.694 110.587 462.971 111.245 461.371 111.54C459.771 111.835 457.939 111.716 455.877 111.185C454.866 110.925 453.913 110.534 453.019 110.012C452.125 109.491 451.38 108.821 450.786 108.002C450.231 107.194 449.831 106.301 449.585 105.323C449.39 104.316 449.45 103.25 449.765 102.126C450.417 99.7988 451.67 98.1881 453.524 97.2938C455.42 96.4098 457.761 96.0983 460.55 96.3592C462.831 96.5727 464.611 96.7194 465.889 96.7992C467.219 96.8507 468.205 96.8136 468.847 96.6879C469.529 96.5727 469.98 96.3562 470.199 96.0384C470.429 95.6818 470.626 95.2127 470.789 94.6309C471.06 93.6614 471.2 92.6993 471.207 91.7448C471.214 90.7903 471.047 89.9157 470.706 89.121C470.365 88.3263 469.824 87.6256 469.084 87.019C468.354 86.3736 467.382 85.8947 466.169 85.5821C464.552 85.1654 462.938 85.1239 461.327 85.4573C459.756 85.8012 458.454 86.5051 457.419 87.5691L456.751 87.3972L457.599 84.3722Z" fill="#FBFAF7"/>
<path d="M505.364 107.223C506.355 104.365 506.525 102.028 505.876 100.213C505.239 98.359 503.907 97.1089 501.881 96.4625C499.1 95.5752 496.77 95.7417 494.89 96.9619C493.05 98.1948 491.615 100.297 490.584 103.269L488.899 108.128C488.304 109.842 487.697 111.659 487.076 113.577C486.507 115.469 486.058 117.209 485.728 118.797C484.841 118.429 483.96 118.106 483.086 117.827C482.212 117.548 481.305 117.301 480.365 117.086C481.092 115.625 481.799 113.967 482.487 112.113C483.227 110.233 483.894 108.436 484.489 106.721L486.551 100.776C487.146 99.0618 487.727 97.2582 488.295 95.3657C488.916 93.4478 489.412 91.638 489.781 89.9361C490.828 90.4815 491.689 90.862 492.364 91.0775C492.682 91.1789 493.026 91.2675 493.397 91.3435C493.821 91.3941 494.304 91.4636 494.847 91.5522C494.199 93.0384 493.611 94.5435 493.082 96.0677L493.201 96.1057C494.882 94.8221 496.649 93.9893 498.503 93.6072C500.369 93.1871 502.375 93.3192 504.521 94.0037C505.633 94.3586 506.693 94.866 507.7 95.5257C508.746 96.1981 509.594 97.0611 510.244 98.1148C510.906 99.1303 511.291 100.375 511.398 101.848C511.558 103.295 511.294 105.01 510.607 106.991C510.039 108.63 509.411 110.313 508.723 112.04C508.049 113.729 507.375 115.546 506.701 117.489L505.412 121.204C505.201 121.814 504.989 122.424 504.778 123.033C504.62 123.617 504.468 124.183 504.322 124.729C503.554 124.399 502.733 124.095 501.859 123.816C501.025 123.55 500.197 123.328 499.376 123.151C500.143 121.195 500.929 119.181 501.735 117.111C502.582 115.053 503.388 112.919 504.154 110.709L505.364 107.223Z" fill="#FBFAF7"/>
<path d="M532.542 95.8442C531.849 97.2229 531.182 98.5902 530.543 99.9461C529.958 101.279 529.346 102.623 528.707 103.979C529.136 104.139 529.936 104.437 531.107 104.874C532.293 105.273 533.584 105.689 534.981 106.123C534.896 106.221 534.793 106.42 534.672 106.719L534.194 107.898C534.088 108.16 534.032 108.355 534.025 108.482C533.533 108.255 533.014 108.04 532.467 107.836C531.936 107.595 531.358 107.358 530.734 107.126L527.865 106.057C527.766 106.192 527.464 106.769 526.962 107.788C526.498 108.821 525.951 110.061 525.32 111.506C524.705 112.914 524.059 114.397 523.384 115.954C522.747 117.526 522.178 118.93 521.677 120.165C521.253 121.213 520.855 122.25 520.485 123.275C520.153 124.315 519.977 125.305 519.956 126.244C519.949 127.147 520.16 127.958 520.587 128.677C521.014 129.396 521.814 129.974 522.984 130.41C523.297 130.527 523.722 130.642 524.259 130.756C524.836 130.885 525.342 130.966 525.778 130.999L525.232 132.347C524.523 132.212 523.728 132.066 522.848 131.911C521.992 131.807 521.193 131.617 520.451 131.341C517.993 130.424 516.413 129.168 515.712 127.571C515.011 125.974 515.116 124.053 516.026 121.807C516.435 120.797 516.895 119.718 517.404 118.573C517.928 117.389 518.49 116.112 519.091 114.742C519.745 113.349 520.433 111.817 521.154 110.147C521.891 108.44 522.684 106.538 523.533 104.442L521.66 103.744C521.348 103.628 521.008 103.523 520.642 103.429C520.291 103.298 519.912 103.179 519.507 103.071C519.637 102.861 519.74 102.662 519.815 102.475C519.945 102.265 520.056 102.048 520.147 101.823C520.223 101.636 520.279 101.442 520.316 101.24C520.392 101.053 520.448 100.858 520.485 100.657C522.196 101.424 523.461 101.96 524.28 102.265C524.545 101.502 524.885 100.552 525.301 99.4141C525.756 98.2912 526.187 97.1163 526.594 95.8894L532.249 95.7351L532.542 95.8442Z" fill="#FBFAF7"/>
<path d="M546.318 98.5907C546.663 97.815 547.247 97.2682 548.071 96.9504C548.895 96.6327 549.712 96.6392 550.521 96.97C551.329 97.3008 551.899 97.8614 552.231 98.6518C552.562 99.4422 552.555 100.225 552.21 101.001C551.865 101.777 551.281 102.323 550.457 102.641C549.633 102.959 548.816 102.952 548.007 102.622C547.199 102.291 546.629 101.73 546.297 100.94C545.966 100.149 545.973 99.3664 546.318 98.5907ZM538.232 118.924C538.971 117.261 539.705 115.51 540.432 113.668C541.215 111.805 541.863 110.041 542.377 108.373C543.373 108.999 544.199 109.446 544.854 109.714C545.508 109.982 546.416 110.244 547.577 110.5C546.678 112.01 545.779 113.672 544.881 115.488C544.038 117.282 543.246 119.01 542.507 120.672L539.945 126.435C539.206 128.097 538.445 129.859 537.662 131.722C536.934 133.564 536.338 135.263 535.874 136.819C535.021 136.383 534.17 135.991 533.323 135.645C532.476 135.298 531.593 134.981 530.674 134.692C531.524 133.293 532.37 131.697 533.213 129.903C534.112 128.087 534.931 126.348 535.67 124.686L538.232 118.924Z" fill="#FBFAF7"/>
<path d="M567.105 134.189C566.355 134.108 565.511 133.938 564.571 133.679C563.669 133.437 562.74 133.205 561.782 132.982C560.842 132.723 559.876 132.518 558.881 132.368C557.925 132.234 556.998 132.227 556.1 132.344C555.24 132.48 554.439 132.776 553.695 133.233C552.989 133.708 552.38 134.451 551.868 135.462C551.008 137.16 550.867 138.679 551.445 140.02C552.023 141.36 552.933 142.32 554.176 142.899C555.607 143.566 557.099 143.792 558.651 143.577C560.24 143.38 561.611 142.925 562.763 142.212L567.105 134.189ZM558.035 118.045C560.352 117.606 562.336 117.503 563.987 117.736C565.637 117.97 567.216 118.437 568.722 119.139C570.078 119.771 571.221 120.548 572.149 121.472C573.096 122.359 573.782 123.349 574.207 124.439C574.651 125.494 574.842 126.633 574.782 127.855C574.74 129.04 574.417 130.229 573.814 131.421C572.771 133.48 571.691 135.522 570.573 137.546C569.473 139.533 568.347 141.665 567.194 143.941C566.975 144.374 566.737 144.844 566.481 145.35C566.281 145.837 566.155 146.314 566.105 146.782C566.073 147.213 566.124 147.617 566.26 147.992C566.433 148.385 566.802 148.714 567.367 148.977C567.555 149.064 567.744 149.152 567.932 149.24C568.176 149.309 568.42 149.333 568.663 149.313L568.06 150.505C567.554 150.492 566.953 150.391 566.258 150.201C565.601 150.029 564.895 149.767 564.142 149.416C562.937 148.855 562.16 148.136 561.813 147.26C561.484 146.348 561.5 145.396 561.863 144.404C559.848 145.073 558.027 145.407 556.397 145.407C554.768 145.407 552.993 144.96 551.072 144.065C550.131 143.626 549.272 143.07 548.496 142.396C547.72 141.722 547.121 140.93 546.698 140.018C546.313 139.125 546.095 138.175 546.046 137.17C546.052 136.146 546.321 135.11 546.851 134.063C547.949 131.896 549.496 130.54 551.493 129.998C553.528 129.472 555.889 129.59 558.576 130.35C560.775 130.973 562.494 131.439 563.733 131.748C565.029 132.039 566.004 132.181 566.66 132.174C567.353 132.184 567.838 132.053 568.116 131.781C568.412 131.472 568.697 131.047 568.971 130.505C569.429 129.602 569.755 128.682 569.949 127.746C570.144 126.81 570.152 125.921 569.973 125.079C569.795 124.237 569.401 123.451 568.793 122.721C568.204 121.955 567.344 121.309 566.214 120.783C564.708 120.081 563.13 119.748 561.483 119.785C559.873 119.838 558.455 120.294 557.23 121.152L556.608 120.862L558.035 118.045Z" fill="#FBFAF7"/>
</svg>
