<svg width="1100" height="1370" viewBox="0 0 1100 1370" fill="none" xmlns="http://www.w3.org/2000/svg">
<path d="M583 13.8311C-176.944 13.8311 -793 448.273 -793 984.184C-793 1073.06 -643.235 902.406 -611.5 984.184C-611.5 984.184 -139 1346.82 583 1346.82C1305 1346.82 1902 908.977 1902 908.977C1933.74 827.199 1959 1073.06 1959 984.184C1959 448.273 1342.94 13.8311 583 13.8311Z" fill="#F1EFE9"/>
<path d="M1962.51 981.582C1959.59 980.698 1955.31 977.605 1949.97 972.753L1951.31 971.272C1948.05 968.31 1944.36 964.667 1940.31 960.442L1938.87 961.825C1935.59 958.407 1932.09 954.62 1928.4 950.52L1929.89 949.182C1926.62 945.55 1923.19 941.671 1919.64 937.581L1918.13 938.893C1914.86 935.134 1911.49 931.201 1908.03 927.123L1909.55 925.828C1906.31 922.003 1902.98 918.049 1899.59 913.991L1898.05 915.274C1894.81 911.394 1891.51 907.42 1888.16 903.373L1889.7 902.099C1886.47 898.182 1883.18 894.198 1879.87 890.165L1878.33 891.435C1875.08 887.486 1871.81 883.491 1868.52 879.468L1870.07 878.202C1866.82 874.229 1863.55 870.229 1860.27 866.22L1858.72 867.485C1858.31 866.974 1857.89 866.463 1857.47 865.953C1854.63 862.468 1851.78 858.979 1848.93 855.496L1850.48 854.23C1847.2 850.221 1843.92 846.22 1840.67 842.246L1839.12 843.515C1835.82 839.494 1832.54 835.501 1829.28 831.554L1830.82 830.281C1827.5 826.25 1824.2 822.266 1820.94 818.349L1819.4 819.629C1816.04 815.592 1812.72 811.627 1809.46 807.756L1810.99 806.467C1807.58 802.42 1804.23 798.475 1800.95 794.656L1799.43 795.958C1795.96 791.912 1792.57 788.008 1789.28 784.276L1790.78 782.954C1787.22 778.904 1783.77 775.054 1780.46 771.442L1778.98 772.793C1775.24 768.704 1771.67 764.924 1768.33 761.508L1769.76 760.109C1765.69 755.958 1761.93 752.325 1758.53 749.313L1757.2 750.81C1752 746.204 1747.7 743.106 1744.51 741.878L1745.23 740.012C1743.45 739.323 1741.54 738.983 1739.84 739.634C1738 740.338 1737 741.954 1736.55 743.84C1735.98 746.265 1735.4 748.684 1734.81 751.097L1736.76 751.572C1735.57 756.408 1734.35 761.219 1733.09 766.003L1731.15 765.493C1729.89 770.266 1728.59 775.013 1727.25 779.735L1729.17 780.282C1727.81 785.079 1726.41 789.85 1724.96 794.594L1723.05 794.011C1721.6 798.746 1720.12 803.455 1718.59 808.138L1720.49 808.758C1718.95 813.477 1717.37 818.169 1715.74 822.834L1713.86 822.177C1712.22 826.861 1710.55 831.518 1708.83 836.148L1710.71 836.844C1708.99 841.486 1707.22 846.101 1705.41 850.688L1703.55 849.955C1701.73 854.571 1699.87 859.16 1697.96 863.72L1699.8 864.493C1697.89 869.069 1695.93 873.616 1693.92 878.135L1692.09 877.325C1690.09 881.847 1688.04 886.34 1685.94 890.805L1687.75 891.655C1685.65 896.15 1683.49 900.615 1681.29 905.052L1679.5 904.164C1677.3 908.588 1675.06 912.984 1672.78 917.351L1674.55 918.278C1672.25 922.677 1669.9 927.046 1667.51 931.387L1665.76 930.42C1663.37 934.748 1660.94 939.045 1658.46 943.313L1660.19 944.318C1657.7 948.604 1655.16 952.859 1652.58 957.085L1650.87 956.042C1648.29 960.259 1645.67 964.445 1643 968.602L1644.68 969.683C1642 973.851 1639.28 977.99 1636.51 982.098L1634.85 980.98C1632.09 985.072 1629.28 989.134 1626.43 993.166L1628.06 994.322C1625.2 998.366 1622.29 1002.38 1619.33 1006.36L1617.72 1005.17C1614.78 1009.13 1611.8 1013.06 1608.77 1016.96L1610.34 1018.19C1607.3 1022.1 1604.22 1025.98 1601.09 1029.82L1599.53 1028.56C1596.42 1032.39 1593.25 1036.18 1590.04 1039.95L1591.56 1041.25C1588.36 1045.01 1585.11 1048.74 1581.81 1052.44L1580.32 1051.11C1577.03 1054.8 1573.69 1058.46 1570.31 1062.08L1571.77 1063.45C1568.41 1067.06 1565 1070.64 1561.54 1074.19L1560.11 1072.79C1556.67 1076.33 1553.18 1079.83 1549.65 1083.3L1551.05 1084.73C1547.53 1088.2 1543.95 1091.64 1540.33 1095.05L1538.96 1093.59C1535.38 1096.96 1531.76 1100.31 1528.09 1103.62L1529.43 1105.11C1525.75 1108.43 1522.03 1111.72 1518.26 1114.99L1516.95 1113.47C1513.24 1116.69 1509.48 1119.87 1505.68 1123.03L1506.96 1124.57C1503.15 1127.72 1499.31 1130.85 1495.42 1133.95L1494.17 1132.39C1490.31 1135.46 1486.41 1138.51 1482.46 1141.53L1483.68 1143.12C1479.77 1146.11 1475.82 1149.07 1471.82 1152L1470.64 1150.39C1466.65 1153.31 1462.63 1156.21 1458.56 1159.08L1459.71 1160.71C1455.69 1163.55 1451.62 1166.36 1447.51 1169.14L1446.39 1167.48C1442.32 1170.24 1438.2 1172.97 1434.05 1175.67L1435.14 1177.35C1430.98 1180.06 1426.77 1182.74 1422.53 1185.39L1421.47 1183.7C1417.32 1186.29 1413.13 1188.85 1408.91 1191.39L1409.94 1193.11C1405.7 1195.65 1401.43 1198.17 1397.11 1200.67L1396.11 1198.93C1391.84 1201.4 1387.52 1203.84 1383.17 1206.26L1384.14 1208.01C1379.85 1210.39 1375.52 1212.75 1371.15 1215.08L1370.21 1213.32C1365.85 1215.64 1361.45 1217.95 1357.01 1220.22L1357.93 1222C1353.54 1224.25 1349.12 1226.48 1344.66 1228.68L1343.77 1226.89C1339.37 1229.06 1334.94 1231.2 1330.47 1233.33L1331.32 1235.13C1326.84 1237.26 1322.32 1239.36 1317.77 1241.44L1316.94 1239.62C1312.48 1241.66 1307.98 1243.67 1303.44 1245.66L1304.25 1247.49C1299.74 1249.47 1295.2 1251.42 1290.63 1253.35L1289.85 1251.51C1285.28 1253.44 1280.68 1255.34 1276.04 1257.22L1276.79 1259.08C1272.25 1260.92 1267.66 1262.74 1263.05 1264.54L1262.32 1262.68C1257.75 1264.46 1253.14 1266.23 1248.49 1267.97L1249.2 1269.84C1244.54 1271.58 1239.86 1273.31 1235.14 1275L1234.46 1273.12C1229.85 1274.78 1225.21 1276.42 1220.54 1278.04L1221.19 1279.93C1216.55 1281.54 1211.87 1283.13 1207.15 1284.69L1206.52 1282.8C1201.82 1284.36 1197.08 1285.9 1192.32 1287.42L1192.92 1289.33C1188.24 1290.83 1183.53 1292.3 1178.78 1293.76L1178.2 1291.84C1173.51 1293.28 1168.79 1294.7 1164.04 1296.1L1164.6 1298.01C1159.85 1299.41 1155.06 1300.79 1150.24 1302.15L1149.7 1300.23C1144.96 1301.57 1140.18 1302.89 1135.38 1304.19L1135.9 1306.12C1131.17 1307.4 1126.41 1308.66 1121.62 1309.9L1121.12 1307.97C1116.34 1309.21 1111.53 1310.43 1106.69 1311.64L1107.17 1313.58C1102.35 1314.78 1097.5 1315.96 1092.63 1317.12L1092.16 1315.17C1087.42 1316.3 1082.64 1317.41 1077.84 1318.51L1078.28 1320.46C1073.47 1321.55 1068.64 1322.63 1063.78 1323.69L1063.35 1321.74C1058.49 1322.8 1053.61 1323.84 1048.7 1324.86L1049.11 1326.82C1044.31 1327.82 1039.48 1328.8 1034.63 1329.76L1034.24 1327.8C1029.42 1328.76 1024.59 1329.7 1019.72 1330.62L1020.1 1332.59C1015.23 1333.51 1010.33 1334.42 1005.41 1335.31L1005.05 1333.34C1000.18 1334.22 995.281 1335.09 990.358 1335.93L990.697 1337.9C985.877 1338.73 981.033 1339.55 976.165 1340.35L975.841 1338.37C970.978 1339.17 966.091 1339.95 961.18 1340.71L961.487 1342.69C956.571 1343.45 951.63 1344.2 946.665 1344.94L946.373 1342.96C941.515 1343.67 936.634 1344.38 931.729 1345.06L932.006 1347.04C927.147 1347.72 922.265 1348.39 917.36 1349.03L917.098 1347.05C912.198 1347.7 907.275 1348.33 902.329 1348.95L902.577 1350.93C897.626 1351.55 892.653 1352.16 887.656 1352.74L887.423 1350.76C882.576 1351.33 877.707 1351.88 872.817 1352.42L873.037 1354.41C868.15 1354.95 863.242 1355.48 858.311 1355.99L858.105 1354C853.18 1354.51 848.232 1355 843.263 1355.49L843.456 1357.48C838.499 1357.96 833.52 1358.42 828.52 1358.87L828.34 1356.88C823.481 1357.32 818.601 1357.75 813.701 1358.16L813.868 1360.15C808.963 1360.56 804.039 1360.96 799.093 1361.34L798.938 1359.35C793.997 1359.73 789.035 1360.1 784.053 1360.46L784.195 1362.46C779.231 1362.81 774.246 1363.15 769.241 1363.48L769.11 1361.48C764.24 1361.8 759.35 1362.11 754.44 1362.4L754.559 1364.4C749.646 1364.69 744.713 1364.97 739.761 1365.24L739.654 1363.24C734.705 1363.51 729.738 1363.76 724.751 1364L724.847 1366C719.865 1366.24 714.864 1366.47 709.843 1366.68L709.757 1364.68C704.883 1364.89 699.991 1365.09 695.08 1365.27L695.154 1367.27C690.24 1367.45 685.307 1367.62 680.356 1367.78L680.292 1365.78C675.344 1365.94 670.378 1366.09 665.394 1366.22L665.448 1368.22C660.46 1368.35 655.454 1368.48 650.429 1368.58L650.385 1366.58C645.491 1366.69 640.579 1366.79 635.65 1366.87L635.683 1368.87C630.774 1368.95 625.848 1369.02 620.904 1369.08L620.88 1367.08C615.94 1367.14 610.982 1367.19 606.007 1367.22L606.021 1369.22C601.042 1369.26 596.047 1369.28 591.033 1369.29L591.028 1367.29C588.523 1367.3 586.014 1367.3 583.5 1367.3C582.681 1367.3 581.862 1367.3 581.044 1367.3C579.305 1367.3 577.567 1367.3 575.833 1367.29L575.828 1369.29C570.724 1369.28 565.64 1369.26 560.578 1369.22L560.592 1367.22C555.533 1367.19 550.495 1367.14 545.478 1367.08L545.455 1369.08C540.435 1369.02 535.436 1368.96 530.458 1368.87L530.491 1366.87C525.451 1366.79 520.432 1366.7 515.435 1366.59L515.393 1368.59C510.284 1368.48 505.198 1368.36 500.134 1368.23L500.187 1366.23C495.126 1366.1 490.088 1365.95 485.072 1365.8L485.009 1367.8C479.99 1367.64 474.993 1367.47 470.018 1367.29L470.091 1365.29C465.051 1365.1 460.033 1364.91 455.039 1364.7L454.955 1366.7C449.85 1366.48 444.77 1366.25 439.712 1366.01L439.807 1364.02C434.754 1363.78 429.724 1363.52 424.717 1363.26L424.611 1365.25C419.601 1364.99 414.614 1364.71 409.65 1364.42L409.768 1362.42C404.713 1362.12 399.682 1361.81 394.676 1361.48L394.546 1363.48C389.456 1363.15 384.39 1362.81 379.349 1362.45L379.491 1360.45C374.454 1360.09 369.442 1359.72 364.455 1359.34L364.301 1361.33C359.309 1360.94 354.342 1360.54 349.4 1360.13L349.567 1358.14C344.484 1357.71 339.428 1357.27 334.397 1356.82L334.217 1358.81C329.151 1358.35 324.111 1357.88 319.098 1357.39L319.292 1355.4C314.283 1354.91 309.3 1354.41 304.343 1353.89L304.136 1355.88C299.133 1355.36 294.157 1354.82 289.207 1354.27L289.428 1352.28C284.349 1351.72 279.298 1351.14 274.274 1350.54L274.038 1352.53C269.01 1351.93 264.009 1351.31 259.035 1350.68L259.286 1348.7C254.318 1348.07 249.377 1347.43 244.464 1346.77L244.197 1348.75C239.144 1348.07 234.12 1347.37 229.125 1346.66L229.407 1344.68C224.377 1343.96 219.377 1343.23 214.405 1342.48L214.106 1344.46C209.129 1343.71 204.181 1342.94 199.262 1342.15L199.577 1340.18C194.59 1339.38 189.633 1338.57 184.705 1337.74L184.373 1339.71C179.34 1338.86 174.339 1338 169.367 1337.12L169.717 1335.15C164.752 1334.26 159.817 1333.36 154.913 1332.45L154.545 1334.41C149.603 1333.49 144.691 1332.54 139.81 1331.58L140.196 1329.62C135.184 1328.63 130.204 1327.63 125.256 1326.6L124.851 1328.56C119.897 1327.54 114.975 1326.49 110.085 1325.43L110.51 1323.47C105.616 1322.41 100.754 1321.33 95.9244 1320.22L95.4794 1322.17C90.4871 1321.03 85.5289 1319.88 80.6046 1318.7L81.0706 1316.75C76.1533 1315.57 71.27 1314.37 66.4205 1313.16L65.9333 1315.1C61.0692 1313.87 56.2388 1312.63 51.4421 1311.37L51.9509 1309.44C47.0068 1308.14 42.0985 1306.81 37.226 1305.47L36.6945 1307.4C31.8143 1306.05 26.9696 1304.69 22.1603 1303.3L22.7148 1301.38C17.8934 1299.99 13.1078 1298.57 8.35754 1297.14L7.7796 1299.06C2.88458 1297.58 -1.9729 1296.08 -6.79315 1294.56L-6.19073 1292.65C-11.0028 1291.13 -15.7776 1289.59 -20.5153 1288.02L-21.1425 1289.92C-25.9338 1288.34 -30.6876 1286.73 -35.4037 1285.1L-34.751 1283.21C-39.5634 1281.55 -44.3366 1279.87 -49.0709 1278.16L-49.7499 1280.04C-54.493 1278.33 -59.1972 1276.59 -63.8629 1274.83L-63.1572 1272.96C-67.8939 1271.18 -72.5905 1269.36 -77.2476 1267.53L-77.9807 1269.39C-82.7091 1267.53 -87.3969 1265.64 -92.0442 1263.73L-91.2828 1261.88C-95.9207 1259.97 -100.518 1258.03 -105.076 1256.08L-105.865 1257.91C-110.552 1255.9 -115.197 1253.86 -119.8 1251.79L-118.981 1249.97C-123.587 1247.9 -128.151 1245.8 -132.673 1243.68L-133.522 1245.49C-138.094 1243.35 -142.623 1241.18 -147.11 1238.98L-146.23 1237.18C-150.79 1234.95 -155.306 1232.69 -159.778 1230.4L-160.689 1232.18C-165.172 1229.89 -169.611 1227.57 -174.008 1225.22L-173.066 1223.46C-177.542 1221.07 -181.973 1218.65 -186.359 1216.2L-187.333 1217.95C-191.752 1215.49 -196.126 1212.99 -200.455 1210.47L-199.448 1208.74C-203.802 1206.21 -208.111 1203.64 -212.375 1201.05L-213.414 1202.76C-217.753 1200.12 -222.045 1197.45 -226.291 1194.75L-225.218 1193.06C-229.453 1190.37 -233.643 1187.65 -237.787 1184.9L-238.893 1186.56C-243.131 1183.75 -247.321 1180.91 -251.465 1178.03L-250.325 1176.39C-254.462 1173.52 -258.551 1170.62 -262.594 1167.69L-263.767 1169.31C-267.867 1166.34 -271.918 1163.34 -275.923 1160.3L-274.715 1158.71C-278.737 1155.66 -282.71 1152.59 -286.636 1149.48L-287.878 1151.05C-291.834 1147.91 -295.743 1144.75 -299.604 1141.56L-298.329 1140.01C-302.22 1136.79 -306.063 1133.54 -309.858 1130.26L-311.167 1131.77C-314.975 1128.48 -318.735 1125.15 -322.448 1121.79L-321.106 1120.31C-324.853 1116.92 -328.551 1113.5 -332.201 1110.04L-333.576 1111.49C-337.237 1108.03 -340.85 1104.53 -344.416 1101L-343.009 1099.58C-346.591 1096.04 -350.124 1092.46 -353.611 1088.85L-355.05 1090.23C-358.553 1086.61 -362.009 1082.94 -365.418 1079.25L-363.948 1077.89C-367.358 1074.2 -370.722 1070.46 -374.038 1066.7L-375.539 1068.02C-378.874 1064.24 -382.162 1060.42 -385.404 1056.57L-383.874 1055.28C-387.109 1051.44 -390.298 1047.56 -393.441 1043.65L-395 1044.9C-398.159 1040.97 -401.272 1037.01 -404.338 1033.01L-402.751 1031.79C-405.809 1027.81 -408.821 1023.79 -411.787 1019.74L-413.4 1020.92C-416.377 1016.86 -419.308 1012.76 -422.194 1008.63L-420.555 1007.48C-423.432 1003.36 -426.265 999.214 -429.053 995.03L-430.717 996.14C-433.508 991.952 -436.254 987.733 -438.957 983.481L-437.269 982.408C-439.963 978.169 -442.614 973.897 -445.222 969.594L-446.933 970.63C-449.539 966.33 -452.102 961.997 -454.622 957.633L-452.89 956.633C-455.401 952.286 -457.87 947.906 -460.297 943.496L-462.049 944.46C-464.473 940.055 -466.856 935.618 -469.197 931.15L-467.426 930.221C-469.754 925.779 -472.042 921.306 -474.289 916.802L-476.079 917.694C-478.326 913.192 -480.532 908.659 -482.699 904.095L-480.893 903.237C-483.041 898.713 -485.151 894.158 -487.222 889.574L-489.045 890.397C-491.12 885.805 -493.156 881.183 -495.154 876.531L-493.316 875.742C-495.29 871.148 -497.226 866.525 -499.126 861.873L-500.977 862.629C-502.882 857.966 -504.749 853.273 -506.58 848.552L-504.716 847.829C-506.524 843.166 -508.298 838.474 -510.036 833.754L-511.913 834.445C-513.651 829.727 -515.354 824.98 -517.023 820.205L-515.135 819.545C-515.967 817.163 -516.791 814.774 -517.607 812.378C-518.694 809.181 -520.87 807.104 -523.928 806.24L-524.471 808.165C-527.826 807.217 -532.569 808.036 -538.444 810.295L-539.162 808.428C-543.18 809.974 -547.67 812.157 -552.546 814.863L-551.576 816.612C-555.413 818.741 -559.519 821.212 -563.854 823.977L-564.93 822.291C-568.791 824.753 -572.829 827.445 -577.016 830.33L-575.881 831.977C-579.694 834.605 -583.635 837.397 -587.685 840.328L-588.858 838.708C-592.657 841.458 -596.549 844.328 -600.519 847.299L-599.321 848.901C-603.093 851.724 -606.936 854.638 -610.836 857.626L-612.052 856.039C-615.819 858.925 -619.638 861.879 -623.496 864.885L-622.267 866.463C-626.024 869.389 -629.819 872.366 -633.641 875.378L-634.879 873.807C-638.638 876.769 -642.422 879.765 -646.22 882.78L-644.976 884.347C-648.735 887.331 -652.508 890.334 -656.285 893.344L-657.531 891.779C-659.795 893.583 -662.061 895.39 -664.325 897.195C-665.826 898.391 -667.326 899.587 -668.825 900.782L-667.578 902.346C-671.352 905.354 -675.118 908.354 -678.867 911.332L-680.111 909.766C-683.907 912.783 -687.684 915.777 -691.431 918.735L-690.192 920.305C-694.017 923.324 -697.81 926.304 -701.561 929.232L-702.791 927.656C-706.647 930.666 -710.456 933.62 -714.206 936.5L-712.988 938.086C-716.892 941.085 -720.733 944.005 -724.495 946.829L-725.696 945.229C-729.653 948.199 -733.523 951.06 -737.287 953.791L-736.113 955.41C-740.16 958.346 -744.088 961.133 -747.875 963.745L-749.01 962.099C-753.176 964.971 -757.165 967.627 -760.95 970.031L-759.878 971.719C-764.346 974.557 -768.538 977.05 -772.41 979.142L-773.361 977.383C-778.236 980.017 -782.531 981.969 -786.17 983.159L-785.549 985.06C-791.942 987.149 -796.587 987.048 -799.033 984.185L-797.512 982.886C-798.37 981.881 -799 980.15 -799 977.269C-799 974.752 -798.986 972.237 -798.959 969.724L-800.959 969.703C-800.905 964.661 -800.797 959.629 -800.635 954.606L-798.636 954.671C-798.475 949.662 -798.26 944.663 -797.992 939.674L-799.989 939.566C-799.72 934.556 -799.397 929.555 -799.022 924.565L-797.027 924.715C-796.65 919.704 -796.22 914.704 -795.736 909.714L-797.726 909.521C-797.241 904.516 -796.702 899.522 -796.111 894.539L-794.125 894.775C-793.535 889.806 -792.892 884.847 -792.197 879.9L-794.178 879.621C-793.478 874.641 -792.725 869.671 -791.92 864.713L-789.946 865.033C-789.142 860.086 -788.286 855.149 -787.378 850.224L-789.345 849.862C-788.434 844.923 -787.472 839.996 -786.457 835.08L-784.498 835.484C-783.486 830.58 -782.422 825.687 -781.306 820.807L-783.256 820.361C-782.137 815.465 -780.966 810.58 -779.744 805.708L-777.804 806.195C-776.586 801.336 -775.316 796.49 -773.996 791.657L-775.926 791.13C-774.603 786.286 -773.229 781.454 -771.805 776.636L-769.887 777.203C-768.469 772.405 -767.002 767.62 -765.484 762.848L-767.39 762.242C-765.869 757.457 -764.298 752.685 -762.677 747.927L-760.784 748.572C-759.168 743.827 -757.502 739.095 -755.788 734.377L-757.668 733.694C-755.957 728.985 -754.198 724.29 -752.391 719.609L-750.525 720.329C-748.723 715.662 -746.873 711.008 -744.976 706.368L-746.827 705.611C-744.924 700.96 -742.974 696.322 -740.977 691.699L-739.141 692.492C-737.158 687.903 -735.128 683.328 -733.052 678.767L-734.873 677.938C-732.797 673.378 -730.675 668.833 -728.508 664.302L-726.703 665.165C-724.541 660.646 -722.333 656.141 -720.08 651.652L-721.868 650.755C-719.615 646.266 -717.318 641.793 -714.975 637.335L-713.205 638.266C-710.884 633.848 -708.519 629.446 -706.11 625.059L-707.863 624.097C-705.448 619.699 -702.99 615.317 -700.488 610.95L-698.752 611.945C-696.256 607.588 -693.717 603.248 -691.135 598.923L-692.852 597.898C-690.29 593.607 -687.686 589.333 -685.041 585.074L-683.342 586.129C-680.705 581.884 -678.026 577.654 -675.306 573.441L-676.986 572.356C-674.26 568.133 -671.492 563.925 -668.683 559.735L-667.022 560.848C-664.238 556.694 -661.413 552.555 -658.548 548.433L-660.19 547.292C-657.337 543.186 -654.444 539.096 -651.512 535.023L-649.888 536.192C-646.963 532.128 -643.998 528.08 -640.994 524.048L-642.597 522.853C-639.589 518.817 -636.542 514.796 -633.457 510.793L-631.873 512.014C-628.834 508.071 -625.757 504.144 -622.644 500.234L-624.208 498.988C-621.088 495.07 -617.931 491.168 -614.737 487.283L-613.192 488.554C-610.004 484.677 -606.78 480.817 -603.519 476.975L-605.044 475.681C-601.803 471.861 -598.526 468.058 -595.213 464.273L-593.708 465.59C-590.424 461.837 -587.104 458.101 -583.75 454.381L-585.235 453.042C-581.874 449.315 -578.479 445.606 -575.049 441.914L-573.583 443.275C-570.16 439.59 -566.702 435.923 -563.21 432.273L-564.655 430.89C-561.21 427.289 -557.731 423.704 -554.219 420.136L-552.794 421.54C-549.289 417.979 -545.751 414.436 -542.18 410.91L-543.586 409.487C-540.009 405.954 -536.399 402.439 -532.758 398.942L-531.372 400.385C-527.76 396.915 -524.115 393.463 -520.439 390.029L-521.804 388.567C-518.156 385.159 -514.478 381.769 -510.769 378.396L-509.423 379.876C-505.72 376.509 -501.987 373.16 -498.224 369.828L-499.55 368.331C-495.779 364.993 -491.979 361.674 -488.149 358.372L-486.843 359.887C-483.063 356.629 -479.253 353.388 -475.415 350.165L-476.701 348.633C-472.873 345.419 -469.016 342.223 -465.13 339.044L-463.864 340.592C-459.985 337.419 -456.078 334.263 -452.142 331.126L-453.389 329.562C-449.447 326.419 -445.476 323.294 -441.478 320.188L-440.251 321.767C-436.323 318.715 -432.367 315.681 -428.385 312.664L-429.592 311.07C-425.603 308.048 -421.588 305.044 -417.546 302.059L-416.357 303.667C-412.322 300.686 -408.26 297.724 -404.171 294.779L-405.34 293.156C-401.259 290.217 -397.152 287.295 -393.019 284.392L-391.869 286.029C-387.794 283.167 -383.694 280.322 -379.569 277.496L-380.699 275.846C-376.568 273.015 -372.412 270.203 -368.23 267.408L-367.119 269.071C-362.944 266.281 -358.745 263.509 -354.521 260.755L-355.613 259.079C-351.408 256.337 -347.178 253.614 -342.924 250.908L-341.851 252.596C-337.646 249.921 -333.417 247.265 -329.166 244.627L-330.22 242.927C-325.962 240.285 -321.681 237.661 -317.377 235.055L-316.341 236.766C-312.044 234.164 -307.723 231.58 -303.38 229.015L-304.397 227.293C-300.078 224.743 -295.737 222.21 -291.374 219.697L-290.376 221.43C-286.056 218.94 -281.714 216.469 -277.35 214.016L-278.33 212.273C-273.961 209.817 -269.569 207.379 -265.157 204.959L-264.195 206.713C-259.789 204.296 -255.362 201.898 -250.913 199.519L-251.856 197.756C-247.435 195.391 -242.993 193.045 -238.53 190.717L-237.605 192.49C-233.184 190.183 -228.742 187.895 -224.28 185.625L-225.186 183.842C-220.718 181.569 -216.23 179.314 -211.723 177.078L-210.834 178.869C-206.332 176.636 -201.811 174.421 -197.27 172.225L-198.14 170.424C-193.625 168.241 -189.09 166.075 -184.536 163.928L-183.683 165.737C-179.172 163.61 -174.642 161.502 -170.094 159.411L-170.929 157.594C-166.375 155.501 -161.802 153.426 -157.21 151.37L-156.393 153.196C-151.808 151.142 -147.204 149.108 -142.582 147.091L-143.382 145.258C-138.779 143.251 -134.159 141.261 -129.521 139.291L-128.739 141.132C-124.149 139.182 -119.543 137.25 -114.919 135.337L-115.683 133.489C-111.053 131.573 -106.406 129.676 -101.742 127.797L-100.995 129.652C-96.3368 127.776 -91.6616 125.919 -86.9696 124.08L-87.6994 122.217C-83.0165 120.382 -78.317 118.565 -73.6009 116.767L-72.8884 118.636C-68.2307 116.86 -63.5568 115.103 -58.867 113.364L-59.5624 111.488C-54.8669 109.747 -50.1555 108.025 -45.4283 106.321L-44.7501 108.202C-40.0287 106.5 -35.2916 104.817 -30.539 103.152L-31.2001 101.264C-26.4424 99.598 -21.6693 97.9503 -16.8808 96.3215L-16.2368 98.215C-11.5199 96.6106 -6.78815 95.0245 -2.04169 93.4569L-2.66888 91.5578C2.08319 89.9884 6.84998 88.4375 11.6313 86.9052L12.2417 88.8098C17.0174 87.2793 21.8076 85.7674 26.6122 84.2742L26.0186 82.3643C30.8288 80.8694 35.6533 79.3933 40.492 77.9361L41.0687 79.8512C45.8533 78.4102 50.6517 76.9878 55.4638 75.584L54.9037 73.6641C59.7042 72.2637 64.5182 70.8818 69.3456 69.5186L69.8891 71.4433C74.711 70.0817 79.5463 68.7386 84.3948 67.4143L83.8679 65.485C88.7219 64.1592 93.5892 62.8522 98.4696 61.564L98.98 63.4978C103.828 62.2181 108.69 60.957 113.564 59.7148L113.07 57.7768C117.911 56.5429 122.765 55.3276 127.631 54.1309L128.108 56.073C132.969 54.8777 137.842 53.7009 142.727 52.5429L142.266 50.5968C147.156 49.4376 152.059 48.297 156.974 47.1754L157.419 49.1253C162.327 48.0052 167.247 46.9039 172.179 45.8216L171.75 43.8681C176.625 42.7984 181.511 41.7472 186.409 40.7146L186.822 42.6716C191.714 41.6401 196.618 40.6273 201.533 39.6332L201.136 37.6729C206.056 36.6777 210.988 35.7012 215.93 34.7436L216.311 36.7071C221.248 35.7506 226.196 34.8129 231.155 33.8941L230.791 31.9276C235.719 31.0146 240.659 30.1202 245.608 29.2447L245.956 31.2141C250.874 30.3443 255.802 29.4931 260.74 28.6605L260.408 26.6884C265.351 25.8549 270.305 25.0403 275.269 24.2444L275.586 26.2192C280.545 25.4242 285.514 24.648 290.492 23.8907L290.192 21.9135C295.171 21.1561 300.161 20.4177 305.16 19.6982L305.445 21.6779C310.382 20.9675 315.328 20.2757 320.284 19.6025L320.014 17.6207C324.975 16.9469 329.946 16.2917 334.925 15.6554L335.179 17.6393C340.153 17.0036 345.136 16.3868 350.129 15.7888L349.891 13.803C354.889 13.2044 359.896 12.6247 364.912 12.0641L365.135 14.0517C370.114 13.4952 375.102 12.9574 380.099 12.4385L379.893 10.4492C384.865 9.9328 389.846 9.43512 394.835 8.95622L395.026 10.9471C400.011 10.4687 405.003 10.009 410.004 9.56821L409.829 7.57594C414.835 7.13469 419.849 6.71232 424.872 6.30893L425.032 8.30251C430.05 7.89954 435.075 7.51554 440.109 7.1506L439.964 5.15583C444.949 4.79446 449.941 4.45177 454.941 4.12785L455.07 6.12367C460.059 5.80048 465.055 5.49601 470.059 5.21035L469.945 3.2136C474.954 2.92765 479.971 2.66053 484.995 2.41235L485.094 4.40991C490.113 4.16198 495.139 3.93296 500.172 3.72296L500.089 1.7247C505.114 1.51505 510.146 1.32433 515.185 1.15264L515.254 3.15148C520.241 2.98155 525.236 2.83028 530.238 2.69776L530.185 0.698466C535.192 0.56582 540.205 0.451954 545.226 0.356965L545.263 2.35661C550.279 2.26171 555.3 2.18568 560.329 2.1286L560.306 0.128726C565.339 0.0715868 570.379 0.0334215 575.426 0.0143269L575.433 2.01431C577.954 2.00478 580.476 2 583 2C585.523 2 588.045 2.00477 590.564 2.0143L590.572 0.0143185C595.618 0.0334075 600.658 0.0715668 605.692 0.1287L605.669 2.12857C610.697 2.18565 615.719 2.26168 620.734 2.35657L620.772 0.356926C625.793 0.45191 630.806 0.565771 635.813 0.698411L635.76 2.69771C640.762 2.83022 645.756 2.98148 650.744 3.15142L650.812 1.15257C655.852 1.32426 660.884 1.51497 665.909 1.72462L665.826 3.72288C670.859 3.93287 675.886 4.16189 680.905 4.40982L681.003 2.41225C686.027 2.66043 691.044 2.92754 696.053 3.21349L695.939 5.21024C700.943 5.49589 705.939 5.80036 710.928 6.12355L711.057 4.12773C716.057 4.45164 721.049 4.79434 726.034 5.15571L725.889 7.15047C730.923 7.51541 735.949 7.89941 740.966 8.30238L741.126 6.3088C746.149 6.71218 751.163 7.13455 756.17 7.5758L755.994 9.56807C760.995 10.0089 765.988 10.4685 770.972 10.9469L771.163 8.95607C776.152 9.43497 781.133 9.93264 786.106 10.449L785.899 12.4383C790.896 12.9572 795.884 13.495 800.864 14.0515L801.086 12.0639C806.102 12.6246 811.109 13.2042 816.107 13.8028L815.869 15.7886C820.862 16.3866 825.846 17.0035 830.82 17.6391L831.073 15.6552C836.053 16.2916 841.023 16.9467 845.984 17.6205L845.715 19.6023C850.671 20.2755 855.617 20.9673 860.554 21.6777L860.838 19.6981C865.838 20.4175 870.827 21.1559 875.807 21.9133L875.506 23.8905C880.485 24.6478 885.454 25.424 890.413 26.219L890.729 24.2442C895.693 25.0401 900.647 25.8547 905.591 26.6882L905.259 28.6603C910.197 29.4929 915.125 30.3441 920.042 31.2139L920.391 29.2445C925.34 30.12 930.28 31.0144 935.208 31.9274L934.844 33.8939C939.803 34.8127 944.751 35.7504 949.688 36.7069L950.069 34.7435C955.011 35.701 959.943 36.6775 964.863 37.6727L964.467 39.633C969.381 40.6271 974.285 41.6399 979.177 42.6714L979.59 40.7144C984.488 41.747 989.374 42.7982 994.249 43.868L993.82 45.8215C998.752 46.9038 1003.67 48.005 1008.58 49.1251L1009.03 47.1752C1013.94 48.2969 1018.84 49.4374 1023.73 50.5967L1023.27 52.5428C1028.16 53.7008 1033.03 54.8775 1037.89 56.0729L1038.37 54.1307C1043.23 55.3274 1048.09 56.5428 1052.93 57.7766L1052.44 59.7147C1057.31 60.9569 1062.17 62.218 1067.02 63.4977L1067.53 61.5639C1072.41 62.852 1077.28 64.1591 1082.13 65.4849L1081.6 67.4142C1086.45 68.7385 1091.29 70.0815 1096.11 71.4432L1096.65 69.5185C1101.48 70.8817 1106.3 72.2636 1111.1 73.664L1110.54 75.5839C1115.35 76.9877 1120.15 78.4102 1124.93 79.8511L1125.51 77.9361C1130.35 79.3933 1135.17 80.8694 1139.98 82.3643L1139.39 84.2742C1144.19 85.7673 1148.98 87.2792 1153.76 88.8097L1154.37 86.9051C1159.15 88.4374 1163.92 89.9884 1168.67 91.5578L1168.04 93.4569C1172.79 95.0245 1177.52 96.6106 1182.24 98.215L1182.88 96.3216C1187.67 97.9503 1192.44 99.598 1197.2 101.264L1196.54 103.152C1201.29 104.817 1206.03 106.5 1210.75 108.202L1211.43 106.321C1216.16 108.025 1220.87 109.747 1225.56 111.488L1224.87 113.364C1229.56 115.103 1234.23 116.86 1238.89 118.636L1239.6 116.767C1244.32 118.565 1249.02 120.382 1253.7 122.218L1252.97 124.08C1257.66 125.919 1262.34 127.776 1267 129.653L1267.74 127.797C1272.41 129.676 1277.05 131.573 1281.68 133.489L1280.92 135.337C1285.54 137.25 1290.15 139.182 1294.74 141.132L1295.52 139.291C1300.16 141.262 1304.78 143.251 1309.38 145.259L1308.58 147.092C1313.2 149.108 1317.81 151.143 1322.39 153.196L1323.21 151.371C1327.8 153.427 1332.38 155.501 1336.93 157.594L1336.09 159.412C1340.64 161.502 1345.17 163.61 1349.68 165.737L1350.54 163.928C1355.09 166.075 1359.63 168.241 1364.14 170.425L1363.27 172.225C1367.81 174.422 1372.33 176.636 1376.83 178.87L1377.72 177.078C1382.23 179.314 1386.72 181.569 1391.19 183.843L1390.28 185.625C1394.74 187.895 1399.18 190.184 1403.61 192.49L1404.53 190.717C1408.99 193.045 1413.44 195.391 1417.86 197.756L1416.91 199.52C1421.36 201.899 1425.79 204.297 1430.2 206.713L1431.16 204.959C1435.57 207.379 1439.96 209.817 1444.33 212.273L1443.35 214.017C1447.71 216.47 1452.06 218.941 1456.38 221.43L1457.38 219.697C1461.74 222.211 1466.08 224.743 1470.4 227.294L1469.38 229.016C1473.72 231.581 1478.04 234.165 1482.34 236.766L1483.38 235.056C1487.68 237.661 1491.96 240.285 1496.22 242.928L1495.17 244.627C1499.42 247.265 1503.65 249.922 1507.85 252.596L1508.92 250.909C1513.18 253.614 1517.41 256.338 1521.61 259.08L1520.52 260.755C1524.75 263.509 1528.95 266.281 1533.12 269.071L1534.23 267.409C1538.41 270.203 1542.57 273.016 1546.7 275.847L1545.57 277.497C1549.69 280.323 1553.79 283.167 1557.87 286.03L1559.02 284.393C1563.15 287.296 1567.26 290.217 1571.34 293.156L1570.17 294.779C1574.26 297.724 1578.32 300.687 1582.36 303.668L1583.55 302.059C1587.59 305.045 1591.6 308.048 1595.59 311.07L1594.39 312.664C1598.37 315.681 1602.32 318.716 1606.25 321.768L1607.48 320.188C1611.48 323.295 1615.45 326.419 1619.39 329.562L1618.14 331.126C1622.08 334.264 1625.99 337.419 1629.86 340.592L1631.13 339.044C1635.02 342.223 1638.87 345.42 1642.7 348.634L1641.42 350.165C1645.25 353.388 1649.06 356.629 1652.84 359.887L1654.15 358.372C1657.98 361.674 1661.78 364.993 1665.55 368.331L1664.22 369.828C1667.99 373.16 1671.72 376.509 1675.42 379.876L1676.77 378.396C1680.48 381.769 1684.16 385.159 1687.8 388.567L1686.44 390.029C1690.11 393.463 1693.76 396.915 1697.37 400.385L1698.76 398.942C1702.4 402.44 1706.01 405.954 1709.59 409.487L1708.18 410.91C1711.75 414.436 1715.29 417.979 1718.79 421.54L1720.22 420.136C1723.73 423.704 1727.21 427.289 1730.66 430.89L1729.21 432.273C1732.7 435.923 1736.16 439.59 1739.58 443.275L1741.05 441.914C1744.48 445.606 1747.87 449.315 1751.24 453.042L1749.75 454.381C1753.1 458.1 1756.42 461.837 1759.71 465.59L1761.21 464.273C1764.53 468.058 1767.8 471.861 1771.04 475.68L1769.52 476.975C1772.78 480.817 1776 484.677 1779.19 488.553L1780.74 487.283C1783.93 491.168 1787.09 495.069 1790.21 498.988L1788.64 500.234C1791.76 504.144 1794.83 508.07 1797.87 512.013L1799.46 510.793C1802.54 514.796 1805.59 518.816 1808.6 522.853L1806.99 524.048C1810 528.079 1812.96 532.127 1815.89 536.191L1817.51 535.023C1820.44 539.096 1823.34 543.185 1826.19 547.291L1824.55 548.433C1827.41 552.555 1830.24 556.693 1833.02 560.848L1834.68 559.734C1837.49 563.925 1840.26 568.132 1842.99 572.355L1841.31 573.44C1844.03 577.654 1846.7 581.883 1849.34 586.128L1851.04 585.073C1853.69 589.332 1856.29 593.607 1858.85 597.897L1857.13 598.922C1859.72 603.247 1862.26 607.588 1864.75 611.944L1866.49 610.949C1868.99 615.316 1871.45 619.698 1873.86 624.096L1872.11 625.058C1874.52 629.445 1876.88 633.848 1879.2 638.265L1880.97 637.335C1883.32 641.792 1885.61 646.265 1887.87 650.754L1886.08 651.651C1888.33 656.14 1890.54 660.645 1892.7 665.164L1894.51 664.301C1896.67 668.831 1898.8 673.377 1900.87 677.937L1899.05 678.766C1901.13 683.326 1903.16 687.902 1905.14 692.491L1906.98 691.698C1908.97 696.321 1910.92 700.958 1912.83 705.61L1910.98 706.367C1912.87 711.007 1914.72 715.661 1916.52 720.328L1918.39 719.608C1920.2 724.289 1921.96 728.984 1923.67 733.693L1921.79 734.376C1923.5 739.094 1925.17 743.825 1926.78 748.571L1928.68 747.926C1930.3 752.684 1931.87 757.455 1933.39 762.24L1931.48 762.846C1933 767.618 1934.47 772.403 1935.89 777.201L1937.8 776.634C1939.23 781.453 1940.6 786.284 1941.93 791.128L1940 791.655C1941.32 796.489 1942.59 801.335 1943.8 806.193L1945.74 805.706C1946.97 810.578 1948.14 815.463 1949.26 820.359L1947.31 820.805C1948.42 825.686 1949.49 830.578 1950.5 835.483L1952.46 835.078C1953.47 839.994 1954.43 844.921 1955.34 849.86L1953.38 850.223C1954.29 855.147 1955.14 860.084 1955.95 865.031L1957.92 864.711C1958.72 869.669 1959.48 874.639 1960.18 879.619L1958.2 879.898C1958.89 884.845 1959.53 889.804 1960.12 894.773L1962.11 894.537C1962.7 899.521 1963.24 904.514 1963.73 909.519L1961.74 909.712C1962.22 914.702 1962.65 919.702 1963.03 924.713L1965.02 924.562C1965.4 929.553 1965.72 934.554 1965.99 939.564L1963.99 939.671C1964.26 944.661 1964.47 949.66 1964.64 954.669L1966.64 954.604C1966.8 959.627 1966.91 964.659 1966.96 969.7L1964.96 969.722C1964.97 971.1 1964.99 972.48 1964.99 973.86C1965 974.996 1965 976.132 1965 977.269C1965 979.075 1964.61 979.635 1964.49 979.746C1964.46 979.772 1964.41 979.818 1964.23 979.837C1964.02 979.859 1963.66 979.837 1963.09 979.667L1962.51 981.582Z" stroke="#F1EFE9" stroke-width="4" stroke-dasharray="15 15"/>
<path d="M-134.043 266.547C-137.232 260.027 -140.496 253.728 -143.837 247.65C-147.127 241.424 -150.515 235.124 -154 228.749C-152.618 228.319 -151.286 227.913 -150.004 227.531C-148.769 227.051 -147.559 226.52 -146.373 225.941C-145.187 225.361 -144.025 224.733 -142.888 224.054C-141.798 223.277 -140.659 222.476 -139.471 221.651C-136.579 228.315 -133.735 234.881 -130.939 241.348C-128.092 247.668 -125.075 254.087 -121.886 260.607C-115.798 273.053 -110.458 283.846 -105.866 292.984C-101.322 302.024 -97.2367 310.125 -93.6107 317.288C-86.5933 313.859 -79.8966 310.526 -73.5205 307.289C-67.1928 303.952 -60.5641 299.979 -53.6346 295.37C-53.2591 297.389 -52.7814 298.992 -52.2016 300.177C-51.6701 301.264 -50.7707 302.476 -49.5035 303.815C-54.1466 305.839 -58.7414 307.962 -63.2879 310.183C-67.8344 312.404 -72.3808 314.626 -76.9273 316.847C-81.6715 319.165 -86.2674 321.411 -90.715 323.584C-95.0638 325.708 -99.562 328.028 -104.209 330.544C-106.909 324.275 -109.705 317.931 -112.6 311.512C-115.396 305.045 -118.388 298.552 -121.577 292.032L-134.043 266.547Z" fill="#FBFAF7"/>
<path d="M-8.44308 241.637C-9.91514 242.965 -11.7342 244.319 -13.9001 245.698C-15.9646 247.035 -18.0586 248.444 -20.182 249.925C-22.348 251.304 -24.4504 252.836 -26.4894 254.52C-28.4268 256.161 -30.0552 257.972 -31.3747 259.952C-32.5927 261.889 -33.379 264.004 -33.7337 266.296C-33.9868 268.546 -33.5205 271.091 -32.3348 273.933C-30.3444 278.702 -27.4704 281.734 -23.7125 283.027C-19.9547 284.319 -16.4004 284.267 -13.0496 282.871C-9.19121 281.262 -6.13302 278.737 -3.87465 275.294C-1.51474 271.808 -0.064568 268.285 0.475845 264.724L-8.44308 241.637ZM-57.3693 230.222C-54.2399 224.867 -51.0001 220.777 -47.6498 217.951C-44.2995 215.124 -40.5937 212.865 -36.5322 211.172C-32.877 209.648 -29.2934 208.81 -25.7814 208.656C-22.3118 208.402 -19.0874 208.845 -16.1082 209.985C-13.1713 211.025 -10.5008 212.711 -8.09659 215.045C-5.73476 217.277 -3.85512 220.067 -2.45766 223.416C-0.0438602 229.201 2.2684 235.027 4.47913 240.897C6.6475 246.664 9.06562 252.745 11.7335 259.138C12.2417 260.356 12.7922 261.675 13.3851 263.096C14.0371 264.373 14.7991 265.485 15.6711 266.432C16.5007 267.277 17.4191 267.907 18.4263 268.321C19.535 268.693 20.8509 268.561 22.374 267.926C22.8817 267.715 23.3894 267.503 23.8971 267.292C24.464 266.936 24.9377 266.5 25.3183 265.984L26.7158 269.333C25.8106 270.306 24.5585 271.305 22.9594 272.329C21.4619 273.31 19.6977 274.224 17.6669 275.071C14.4177 276.425 11.5913 276.65 9.18759 275.746C6.74155 274.74 4.81572 272.982 3.41008 270.47C1.27923 275.647 -1.20315 279.839 -4.03706 283.045C-6.87077 286.252 -10.8769 288.934 -16.0553 291.093C-18.5938 292.151 -21.2297 292.833 -23.963 293.138C-26.6963 293.443 -29.3664 293.186 -31.9732 292.367C-34.4784 291.505 -36.806 290.212 -38.9561 288.487C-41.047 286.618 -42.7065 284.213 -43.9346 281.27C-46.4754 275.181 -46.5661 269.679 -44.2067 264.764C-41.7457 259.807 -37.3974 255.374 -31.1618 251.464C-26.0599 248.265 -22.1129 245.726 -19.3211 243.848C-16.4698 241.825 -14.4817 240.163 -13.3566 238.86C-12.13 237.515 -11.5549 236.322 -11.6314 235.282C-11.7503 234.14 -12.1273 232.808 -12.7625 231.286C-13.8212 228.749 -15.1421 226.44 -16.7254 224.36C-18.3086 222.28 -20.1201 220.652 -22.16 219.477C-24.1999 218.302 -26.4977 217.652 -29.0535 217.526C-31.6516 217.298 -34.4735 217.819 -37.5196 219.089C-41.5811 220.782 -45.0077 223.282 -47.7992 226.59C-50.4893 229.856 -52.0198 233.472 -52.3908 237.439L-54.0662 238.138L-57.3693 230.222Z" fill="#FBFAF7"/>
<path d="M85.6875 206.363C84.0366 201.582 81.959 197.588 79.4549 194.38C77.0189 191.033 74.3822 188.453 71.5449 186.64C68.8116 184.791 65.9297 183.692 62.8992 183.341C59.9367 182.851 57.1035 183.072 54.3996 184.005C51.1758 185.117 48.2713 186.816 45.6861 189.104C43.169 191.252 41.3031 194.105 40.0882 197.665C38.8375 201.121 38.3078 205.316 38.4991 210.252C38.7586 215.048 40.0009 220.668 42.2262 227.112C49.4402 248.003 60.6389 255.83 75.8222 250.593C79.046 249.481 81.7228 247.627 83.8524 245.032C85.9461 242.332 87.4246 239.031 88.2879 235.127C89.2552 231.188 89.5392 226.786 89.1399 221.922C88.7405 217.058 87.5897 211.872 85.6875 206.363ZM99.5764 202.096C101.658 208.124 102.624 213.956 102.475 219.59C102.43 225.189 101.424 230.364 99.4559 235.113C97.5563 239.723 94.7636 243.769 91.0777 247.251C87.4599 250.592 83.1552 253.124 78.1634 254.846C73.1716 256.567 68.2889 257.088 63.5153 256.409C58.8097 255.589 54.8966 254.031 51.7759 251.734C49.0729 256.04 46.6299 260.255 44.4469 264.382L41.639 265.35C40.9856 262.784 40.1008 259.716 38.9845 256.146C37.9722 252.54 36.8361 248.745 35.5762 244.759C34.2805 240.67 32.9148 236.547 31.4792 232.389C30.1476 228.196 28.8716 224.332 27.6513 220.798L17.907 192.579C16.6867 189.045 15.3067 185.217 13.7671 181.096C12.3315 176.938 10.8618 172.851 9.35808 168.833C7.85435 164.815 6.37039 161.023 4.90622 157.457C3.51016 153.751 2.25951 150.635 1.15425 148.108C4.24557 147.624 6.67521 147.076 8.44313 146.467C9.58708 146.072 10.7651 145.608 11.9771 145.073C13.1533 144.435 14.4334 143.761 15.8176 143.051C16.2234 145.237 17.112 148.653 18.4832 153.298C19.8185 157.839 21.4031 162.934 23.2372 168.582C25.0355 174.127 26.9055 179.879 28.8472 185.839C30.7531 191.696 32.4796 197.032 34.0265 201.849L34.3385 201.742C35.9363 194.91 38.4184 189.459 41.785 185.39C45.1515 181.321 49.6426 178.318 55.2584 176.381C60.6661 174.515 65.7048 173.94 70.3745 174.656C75.0082 175.268 79.1993 176.788 82.9477 179.218C86.696 181.647 89.9659 184.881 92.7571 188.92C95.6165 192.819 97.8896 197.211 99.5764 202.096Z" fill="#FBFAF7"/>
<path d="M128.886 195.819C130.121 200.269 131.683 204.458 133.571 208.384C135.566 212.281 137.973 215.608 140.793 218.364C143.583 221.013 146.833 222.851 150.542 223.877C154.252 224.903 158.439 224.769 163.104 223.476C167.768 222.183 171.426 220.143 174.077 217.354C176.729 214.565 178.567 211.317 179.594 207.61C180.591 203.796 180.887 199.72 180.482 195.382C180.184 191.015 179.417 186.606 178.183 182.156C176.948 177.706 175.333 173.533 173.338 169.635C171.45 165.709 169.11 162.421 166.32 159.771C163.5 157.015 160.236 155.125 156.526 154.099C152.817 153.073 148.63 153.207 143.965 154.5C139.3 155.792 135.643 157.833 132.991 160.622C130.34 163.41 128.516 166.712 127.519 170.525C126.493 174.233 126.129 178.27 126.427 182.637C126.832 186.975 127.652 191.369 128.886 195.819ZM114.892 199.698C112.893 192.493 112.316 186.092 113.161 180.495C114.082 174.763 115.971 169.846 118.829 165.745C121.658 161.538 125.16 158.114 129.336 155.473C133.589 152.697 137.995 150.677 142.554 149.414C147.218 148.121 152.036 147.584 157.006 147.804C161.947 147.918 166.713 149.05 171.306 151.201C175.869 153.245 179.969 156.502 183.607 160.97C187.321 165.304 190.177 171.073 192.176 178.278C194.175 185.483 194.714 191.951 193.793 197.684C192.949 203.281 191.112 208.183 188.284 212.39C185.426 216.491 181.894 219.809 177.688 222.344C173.482 224.878 169.047 226.792 164.383 228.085C159.824 229.349 155.036 229.991 150.019 230.012C145.107 230.004 140.37 228.978 135.807 226.934C131.215 224.784 127.061 221.542 123.347 217.208C119.71 212.74 116.892 206.903 114.892 199.698Z" fill="#FBFAF7"/>
<path d="M243.338 140.375C242.658 139.85 241.453 139.499 239.722 139.32C238.099 139.118 236.483 139.196 234.872 139.554C232.294 140.127 230.117 141.231 228.339 142.866C226.562 144.5 225.202 146.492 224.26 148.842C223.294 151.084 222.746 153.684 222.615 156.642C222.461 159.492 222.73 162.474 223.423 165.586L227.366 183.295C228.967 190.486 230.197 196.014 231.058 199.878C232.001 203.61 232.897 206.621 233.745 208.911C231.549 209.174 229.378 209.544 227.23 210.022C224.867 210.547 222.636 211.156 220.536 211.848C220.046 208.128 219.108 203.155 217.722 196.93C216.42 190.573 214.753 182.834 212.722 173.711L211.575 168.559C210.643 164.373 209.514 159.555 208.188 154.105C206.969 148.632 205.411 142.389 203.511 135.377C204.74 135.329 205.916 135.293 207.037 135.268C208.135 135.137 209.275 134.94 210.456 134.677C211.423 134.462 212.431 134.182 213.481 133.836C214.507 133.382 215.587 132.917 216.72 132.439C217.151 136.399 217.563 139.517 217.958 141.795C218.459 144.049 218.937 146.196 219.391 148.235L219.749 148.324C223.505 135.324 229.302 127.952 237.141 126.208C238.108 125.993 238.925 125.868 239.593 125.832C240.369 125.772 241.342 125.838 242.511 126.028C242.261 127.435 242.381 129.493 242.871 132.2C243.337 134.799 243.809 137.173 244.287 139.319L243.338 140.375Z" fill="#FBFAF7"/>
<path d="M291.899 120.947C287.893 121.667 284.648 123.199 282.163 125.545C279.787 127.871 277.932 130.606 276.597 133.75C275.351 136.767 274.543 140.04 274.172 143.57C273.889 146.973 273.903 150.154 274.212 153.115C277.588 152.62 281.072 152.106 284.665 151.572C288.366 151.019 291.949 150.431 295.414 149.809C298.987 149.167 302.604 148.461 306.266 147.691C309.928 146.922 313.482 146.171 316.928 145.441C316.402 142.519 315.577 139.483 314.451 136.334C313.434 133.165 311.915 130.31 309.893 127.769C307.979 125.208 305.558 123.241 302.628 121.868C299.699 120.495 296.122 120.188 291.899 120.947ZM261.125 165.185C258.731 151.874 259.993 140.867 264.91 132.163C269.936 123.44 278.513 117.989 290.64 115.811C296.379 114.78 301.471 114.815 305.917 115.915C310.451 116.888 314.398 118.637 317.759 121.161C321.099 123.577 323.779 126.671 325.799 130.441C327.927 134.192 329.399 138.341 330.217 142.886C330.411 143.968 330.552 145.06 330.638 146.162C330.813 147.136 330.944 148.173 331.031 149.275C325.164 150.217 319.352 151.15 313.593 152.072C307.835 152.995 302.032 153.982 296.185 155.032C292.612 155.674 289.049 156.37 285.495 157.12C282.049 157.851 278.55 158.592 274.996 159.342C274.985 159.902 275.077 160.724 275.272 161.806L275.651 163.916C276.41 168.137 277.716 171.98 279.569 175.445C281.53 178.891 283.945 181.753 286.814 184.03C289.663 186.2 292.966 187.785 296.723 188.786C300.46 189.678 304.603 189.716 309.151 188.899C311.316 188.51 313.487 187.84 315.664 186.891C317.821 185.833 319.895 184.623 321.885 183.26C323.856 181.788 325.635 180.184 327.223 178.446C328.919 176.689 330.325 174.873 331.441 172.997L332.34 173.338L332.796 181.467C330.015 184.648 326.354 187.596 321.812 190.311C317.379 193.007 312.563 194.821 307.366 195.755C301.519 196.805 296.003 196.902 290.819 196.046C285.724 195.063 281.088 193.214 276.912 190.501C272.824 187.661 269.387 184.089 266.601 179.786C263.923 175.463 262.098 170.596 261.125 165.185Z" fill="#FBFAF7"/>
<path d="M425.227 102.676C421.176 103.073 417.818 104.34 415.154 106.479C412.599 108.608 410.53 111.185 408.947 114.213C407.463 117.12 406.395 120.318 405.742 123.807C405.187 127.175 404.945 130.347 405.016 133.324C408.421 133.101 411.935 132.867 415.559 132.623C419.293 132.368 422.911 132.07 426.415 131.727C430.028 131.373 433.691 130.959 437.403 130.486C441.115 130.012 444.717 129.549 448.21 129.097C447.921 126.142 447.341 123.05 446.472 119.821C445.713 116.581 444.427 113.613 442.616 110.918C440.914 108.212 438.657 106.058 435.847 104.454C433.037 102.851 429.497 102.259 425.227 102.676ZM391.003 144.306C389.685 130.846 391.825 119.976 397.425 111.694C403.135 103.402 412.121 98.6559 424.384 97.4559C430.187 96.8881 435.26 97.3307 439.603 98.7839C444.045 100.117 447.839 102.176 450.986 104.962C454.122 107.638 456.545 110.936 458.256 114.856C460.076 118.766 461.211 123.019 461.661 127.615C461.769 128.709 461.821 129.809 461.819 130.914C461.915 131.899 461.962 132.944 461.96 134.049C456.037 134.518 450.168 134.982 444.355 135.44C438.541 135.898 432.678 136.417 426.765 136.995C423.152 137.349 419.544 137.757 415.942 138.22C412.449 138.673 408.901 139.13 405.299 139.593C405.243 140.151 405.268 140.977 405.376 142.071L405.585 144.205C406.003 148.473 406.996 152.408 408.565 156.011C410.243 159.603 412.421 162.649 415.098 165.149C417.764 167.54 420.929 169.385 424.594 170.683C428.247 171.872 432.374 172.242 436.972 171.792C439.162 171.578 441.38 171.084 443.625 170.312C445.86 169.431 448.025 168.39 450.118 167.191C452.201 165.883 454.103 164.426 455.825 162.821C457.656 161.206 459.203 159.508 460.466 157.727L461.335 158.139L461.138 166.279C458.11 169.226 454.224 171.871 449.479 174.214C444.844 176.546 439.899 177.969 434.643 178.483C428.731 179.061 423.225 178.716 418.126 177.448C413.127 176.059 408.654 173.845 404.708 170.806C400.862 167.647 397.722 163.811 395.291 159.299C392.968 154.775 391.539 149.778 391.003 144.306Z" fill="#FBFAF7"/>
<path d="M492.819 71.731C492.731 75.9213 492.694 80.0536 492.708 84.1278C492.827 88.0858 492.893 92.102 492.908 96.1762C494.116 96.1065 496.367 95.9768 499.662 95.7868C502.951 95.4871 506.511 95.1167 510.342 94.6756C510.252 95.0113 510.231 95.6182 510.282 96.4963L510.482 99.9541C510.526 100.723 510.613 101.268 510.742 101.591C509.307 101.564 507.821 101.594 506.284 101.683C504.74 101.662 503.089 101.702 501.332 101.803L493.259 102.268C493.175 102.714 493.111 104.48 493.069 107.566C493.137 110.646 493.239 114.33 493.376 118.617C493.507 122.795 493.651 127.192 493.807 131.808C494.073 136.419 494.31 140.535 494.519 144.158C494.697 147.231 494.926 150.247 495.207 153.204C495.597 156.155 496.302 158.813 497.32 161.177C498.331 163.432 499.757 165.222 501.597 166.548C503.436 167.874 506.004 168.442 509.299 168.252C510.177 168.201 511.324 168.025 512.739 167.723C514.264 167.415 515.566 167.064 516.646 166.672L516.874 170.623C515.026 171.06 512.961 171.565 510.68 172.137C508.515 172.812 506.389 173.21 504.302 173.331C497.383 173.729 492.177 172.322 488.686 169.109C485.195 165.896 483.259 160.997 482.879 154.41C482.708 151.447 482.579 148.26 482.493 144.851C482.4 141.332 482.291 137.538 482.167 133.471C482.146 129.287 482.047 124.722 481.872 119.776C481.691 114.72 481.423 109.118 481.068 102.971L475.796 103.275C474.917 103.326 473.987 103.434 473.005 103.601C472.016 103.658 470.976 103.773 469.884 103.946C469.956 103.281 469.976 102.674 469.944 102.125C470.016 101.461 470.033 100.799 469.995 100.14C469.963 99.5913 469.877 99.0456 469.735 98.5031C469.704 97.9542 469.617 97.4085 469.475 96.866C474.437 96.9104 478.071 96.8662 480.377 96.7332C480.141 94.5441 479.873 91.8062 479.573 88.5194C479.383 85.2262 479.077 81.8297 478.654 78.3297L491.996 71.7785L492.819 71.731Z" fill="#FBFAF7"/>
<path d="M664.627 163.766C663.621 164.628 662.009 165.59 659.79 166.651C657.682 167.603 655.081 168.492 651.986 169.318C649.002 170.035 645.635 170.691 641.883 171.285C638.132 171.879 634.221 172.14 630.151 172.069C621.461 171.916 613.453 170.566 606.125 168.018C598.8 165.36 592.487 161.455 587.186 156.304C581.995 151.154 577.923 144.924 574.971 137.614C572.13 130.196 570.792 121.815 570.956 112.47C571.121 103.126 572.751 94.8516 575.849 87.648C579.058 80.3363 583.402 74.1992 588.881 69.2367C594.47 64.2762 601.082 60.5433 608.718 58.0381C616.354 55.5328 624.738 54.3603 633.867 54.5206C641.127 54.648 647.713 55.5334 653.626 57.1768C659.651 58.7122 664.955 60.5648 669.538 62.7347C668.631 64.2584 667.879 66.3346 667.283 68.9634C666.687 71.5922 666.208 73.7833 665.847 75.5364L664.851 75.8489C663.775 74.5103 662.261 72.9992 660.31 71.3154C658.359 69.6316 656.077 67.9969 653.464 66.4115C650.851 64.826 647.903 63.5096 644.621 62.4623C641.34 61.305 637.72 60.6916 633.76 60.6221C627.27 60.5081 621.202 61.4463 615.555 63.4367C610.019 65.4289 605.122 68.5871 600.865 72.9112C596.719 77.1273 593.433 82.5681 591.005 89.2337C588.579 95.7893 587.286 103.629 587.126 112.754C586.965 121.879 587.981 129.815 590.174 136.561C592.368 143.198 595.461 148.751 599.453 153.22C603.558 157.581 608.342 160.854 613.805 163.039C619.378 165.226 625.41 166.377 631.9 166.491C635.86 166.56 639.498 166.129 642.815 165.198C646.243 164.268 649.343 163.168 652.116 161.897C655.001 160.518 657.557 159.078 659.784 157.578C662.123 155.969 664.073 154.574 665.634 153.392L666.283 154.063L664.627 163.766Z" fill="#FBFAF7"/>
<path d="M696.48 133.729C696.117 138.332 696.15 142.802 696.581 147.137C697.121 151.482 698.244 155.43 699.949 158.984C701.664 162.428 704.088 165.266 707.223 167.499C710.357 169.731 714.337 171.038 719.163 171.418C723.989 171.799 728.124 171.132 731.57 169.419C735.016 167.705 737.856 165.282 740.09 162.149C742.332 158.907 744.006 155.179 745.111 150.964C746.326 146.759 747.115 142.354 747.479 137.75C747.842 133.147 747.754 128.673 747.214 124.329C746.784 119.993 745.711 116.103 743.997 112.659C742.291 109.106 739.871 106.213 736.736 103.98C733.602 101.748 729.622 100.441 724.796 100.061C719.971 99.68 715.835 100.347 712.389 102.06C708.943 103.774 706.099 106.252 703.856 109.494C701.623 112.627 699.898 116.296 698.683 120.502C697.578 124.716 696.844 129.125 696.48 133.729ZM682.004 132.587C682.592 125.133 684.241 118.922 686.951 113.951C689.779 108.88 693.238 104.907 697.328 102.031C701.426 99.0448 705.889 97.0255 710.717 95.9724C715.664 94.8183 720.496 94.4272 725.212 94.7991C730.037 95.1797 734.747 96.3232 739.342 98.2296C743.946 100.026 748.037 102.72 751.616 106.312C755.204 109.793 757.941 114.255 759.829 119.698C761.835 125.04 762.544 131.438 761.956 138.892C761.367 146.346 759.659 152.608 756.831 157.679C754.121 162.649 750.717 166.627 746.619 169.613C742.529 172.489 738.074 174.399 733.255 175.342C728.435 176.286 723.612 176.567 718.786 176.187C714.071 175.815 709.352 174.781 704.63 173.085C700.018 171.398 695.918 168.813 692.33 165.332C688.751 161.741 685.959 157.274 683.953 151.932C682.065 146.489 681.415 140.041 682.004 132.587Z" fill="#FBFAF7"/>
<path d="M836.804 141.195C837.919 133.024 837.178 126.653 834.582 122.082C832 117.403 827.929 114.684 822.37 113.927C814.74 112.887 808.806 114.464 804.57 118.659C800.443 122.868 797.8 129.222 796.641 137.72L794.746 151.61C794.077 156.513 793.426 161.695 792.792 167.157C792.281 172.525 792.002 177.425 791.952 181.857C789.475 181.298 787.037 180.855 784.639 180.528C782.241 180.201 779.773 179.976 777.236 179.852C778.376 175.569 779.364 170.765 780.202 165.442C781.163 160.024 781.977 154.864 782.646 149.961L784.965 132.966C785.633 128.063 786.223 122.928 786.733 117.56C787.367 112.098 787.731 106.987 787.825 102.228C790.803 103.189 793.218 103.796 795.071 104.048C795.943 104.167 796.877 104.239 797.873 104.263C798.993 104.194 800.276 104.147 801.723 104.122C800.802 108.435 800.044 112.771 799.449 117.129L799.776 117.173C803.468 112.905 807.61 109.807 812.203 107.88C816.811 105.845 822.058 105.228 827.944 106.03C830.996 106.446 833.989 107.298 836.922 108.585C839.965 109.888 842.591 111.799 844.801 114.32C847.025 116.731 848.648 119.893 849.669 123.805C850.814 127.623 851 132.365 850.227 138.03C849.588 142.715 848.817 147.548 847.916 152.53C847.029 157.402 846.207 162.617 845.449 168.173L844 178.795C843.762 180.538 843.524 182.282 843.287 184.025C843.173 185.674 843.066 187.268 842.967 188.808C840.817 188.293 838.542 187.873 836.144 187.546C833.855 187.234 831.606 187.038 829.396 186.959C830.387 181.324 831.4 175.525 832.435 169.563C833.579 163.615 834.583 157.482 835.445 151.163L836.804 141.195Z" fill="#FBFAF7"/>
<path d="M870.039 177.95C870.377 179.132 870.966 180.472 871.806 181.971C872.753 183.49 873.872 184.985 875.164 186.457C876.585 187.84 878.198 189.092 880.003 190.212C881.916 191.352 884.009 192.134 886.28 192.558C888.334 192.941 890.342 192.98 892.301 192.674C894.369 192.389 896.217 191.783 897.845 190.857C899.581 189.95 901.053 188.659 902.262 186.983C903.47 185.307 904.296 183.28 904.74 180.902C905.366 177.551 904.868 174.83 903.244 172.737C901.749 170.557 899.696 168.664 897.086 167.058C894.497 165.345 891.606 163.743 888.415 162.252C885.224 160.762 882.364 158.998 879.835 156.96C877.326 154.814 875.341 152.263 873.879 149.305C872.525 146.368 872.272 142.63 873.12 138.09C873.786 134.523 874.986 131.392 876.721 128.696C878.476 125.891 880.691 123.62 883.366 121.882C886.041 120.144 889.165 118.993 892.74 118.43C896.335 117.758 900.295 117.826 904.621 118.633C908.622 119.38 911.874 120.546 914.376 122.131C916.986 123.737 919.453 125.204 921.779 126.533C920.611 127.993 919.427 129.841 918.225 132.078C917.024 134.314 916.194 136.061 915.736 137.318L913.789 136.954C913.409 134.199 912.166 131.562 910.063 129.044C907.959 126.527 905.069 124.925 901.392 124.239C899.769 123.936 898.097 123.904 896.374 124.141C894.651 124.379 893.039 124.917 891.539 125.756C890.04 126.595 888.696 127.798 887.508 129.366C886.319 130.934 885.503 132.907 885.059 135.285C884.413 138.743 884.827 141.617 886.302 143.906C887.906 146.106 890.013 148.009 892.622 149.615C895.232 151.221 898.133 152.768 901.324 154.259C904.535 155.641 907.405 157.351 909.934 159.389C912.484 161.318 914.435 163.752 915.789 166.689C917.251 169.646 917.558 173.395 916.71 177.934C916.125 181.069 914.846 184.018 912.875 186.782C911.012 189.566 908.551 191.959 905.491 193.961C902.559 195.875 899.178 197.201 895.346 197.941C891.535 198.572 887.359 198.463 882.817 197.616C877.842 196.688 873.769 195.424 870.598 193.826C867.428 192.228 864.828 190.568 862.799 188.847C863.71 187.563 864.713 185.793 865.806 183.536C867.027 181.191 867.789 179.208 868.092 177.587L870.039 177.95Z" fill="#FBFAF7"/>
<path d="M967.751 110.832C966.514 114.837 965.342 118.799 964.236 122.721C963.261 126.559 962.22 130.439 961.114 134.36C962.295 134.625 964.495 135.119 967.715 135.841C970.96 136.456 974.485 137.078 978.29 137.706C978.11 138.004 977.924 138.582 977.731 139.441L976.972 142.82C976.803 143.571 976.737 144.119 976.772 144.465C975.4 144.045 973.963 143.666 972.461 143.329C970.982 142.885 969.384 142.47 967.666 142.084L959.776 140.314C959.573 140.719 959.026 142.4 958.137 145.355C957.355 148.335 956.44 151.905 955.393 156.065C954.37 160.118 953.299 164.385 952.179 168.867C951.167 173.373 950.264 177.396 949.469 180.936C948.794 183.94 948.185 186.903 947.641 189.823C947.206 192.768 947.152 195.517 947.481 198.07C947.833 200.516 948.712 202.628 950.116 204.408C951.52 206.188 953.832 207.44 957.053 208.162C957.911 208.355 959.063 208.5 960.506 208.599C962.057 208.722 963.406 208.742 964.551 208.661L963.684 212.524C961.787 212.436 959.663 212.354 957.312 212.277C955.045 212.332 952.892 212.131 950.852 211.673C944.089 210.156 939.472 207.373 936.998 203.325C934.525 199.276 934.011 194.034 935.457 187.597C936.108 184.7 936.86 181.601 937.714 178.299C938.593 174.89 939.532 171.213 940.531 167.268C941.661 163.239 942.822 158.823 944.014 154.019C945.229 149.108 946.512 143.649 947.861 137.641L942.709 136.485C941.85 136.292 940.926 136.141 939.936 136.032C938.97 135.815 937.938 135.64 936.84 135.506C937.092 134.887 937.278 134.309 937.399 133.772C937.651 133.153 937.849 132.521 937.994 131.877C938.114 131.341 938.181 130.792 938.194 130.232C938.314 129.695 938.381 129.147 938.394 128.586C943.153 129.992 946.659 130.948 948.913 131.454C949.287 129.284 949.783 126.578 950.398 123.335C951.121 120.117 951.761 116.767 952.317 113.285L966.946 110.651L967.751 110.832Z" fill="#FBFAF7"/>
<path d="M1027.51 187.033C1025.54 187.186 1023.27 187.146 1020.71 186.915C1018.26 186.712 1015.74 186.548 1013.15 186.423C1010.6 186.192 1008 186.12 1005.35 186.207C1002.81 186.323 1000.42 186.761 998.164 187.522C996.015 188.311 994.1 189.505 992.417 191.103C990.841 192.729 989.653 195.029 988.854 198.002C987.513 202.993 987.934 207.148 990.118 210.466C992.302 213.785 995.147 215.915 998.653 216.856C1002.69 217.94 1006.66 217.809 1010.55 216.463C1014.55 215.146 1017.85 213.243 1020.46 210.755L1027.51 187.033ZM995.769 148.113C1001.52 145.786 1006.59 144.527 1010.97 144.337C1015.35 144.147 1019.66 144.622 1023.91 145.763C1027.74 146.79 1031.09 148.315 1033.96 150.339C1036.86 152.256 1039.14 154.577 1040.8 157.299C1042.49 159.916 1043.57 162.882 1044.05 166.198C1044.55 169.407 1044.34 172.764 1043.39 176.268C1041.77 182.321 1040.03 188.345 1038.19 194.341C1036.38 200.231 1034.58 206.52 1032.78 213.21C1032.44 214.484 1032.07 215.865 1031.67 217.352C1031.4 218.761 1031.33 220.106 1031.44 221.388C1031.58 222.564 1031.92 223.624 1032.46 224.567C1033.11 225.538 1034.24 226.238 1035.83 226.666C1036.36 226.808 1036.89 226.951 1037.42 227.094C1038.09 227.159 1038.73 227.103 1039.35 226.927L1038.41 230.431C1037.09 230.649 1035.49 230.674 1033.6 230.508C1031.81 230.37 1029.86 230.016 1027.73 229.445C1024.33 228.533 1021.96 226.984 1020.61 224.8C1019.29 222.51 1018.84 219.942 1019.26 217.095C1014.41 219.891 1009.88 221.693 1005.68 222.5C1001.48 223.307 996.665 222.983 991.246 221.528C988.59 220.815 986.086 219.744 983.736 218.316C981.386 216.889 979.43 215.054 977.868 212.813C976.412 210.601 975.36 208.155 974.713 205.477C974.201 202.721 974.359 199.803 975.186 196.723C976.899 190.352 980.191 185.942 985.064 183.493C990.044 181.073 996.196 180.22 1003.52 180.934C1009.52 181.519 1014.19 181.92 1017.55 182.139C1021.05 182.28 1023.64 182.178 1025.32 181.834C1027.12 181.519 1028.3 180.926 1028.88 180.056C1029.48 179.08 1030 177.795 1030.43 176.202C1031.14 173.547 1031.5 170.913 1031.52 168.3C1031.54 165.686 1031.1 163.292 1030.21 161.116C1029.31 158.94 1027.89 157.021 1025.95 155.36C1024.03 153.593 1021.48 152.282 1018.29 151.426C1014.04 150.285 1009.8 150.171 1005.56 151.084C1001.44 152.026 998.016 153.953 995.296 156.866L993.543 156.396L995.769 148.113Z" fill="#FBFAF7"/>
<path d="M1121.27 210.679C1123.87 202.854 1124.32 196.456 1122.61 191.485C1120.94 186.41 1117.44 182.987 1112.12 181.217C1104.81 178.788 1098.69 179.243 1093.75 182.584C1088.92 185.96 1085.15 191.717 1082.44 199.855L1078.01 213.157C1076.45 217.852 1074.85 222.825 1073.22 228.077C1071.73 233.258 1070.55 238.023 1069.68 242.37C1067.35 241.363 1065.03 240.477 1062.74 239.714C1060.44 238.95 1058.06 238.274 1055.59 237.684C1057.5 233.684 1059.35 229.146 1061.16 224.068C1063.11 218.921 1064.86 214 1066.42 209.305L1071.84 193.029C1073.4 188.334 1074.93 183.396 1076.42 178.214C1078.05 172.963 1079.36 168.007 1080.33 163.347C1083.08 164.841 1085.34 165.883 1087.11 166.473C1087.95 166.75 1088.85 166.993 1089.83 167.201C1090.94 167.339 1092.21 167.53 1093.64 167.772C1091.94 171.842 1090.39 175.963 1089 180.136L1089.31 180.24C1093.73 176.726 1098.37 174.445 1103.24 173.399C1108.15 172.249 1113.42 172.611 1119.06 174.485C1121.98 175.457 1124.76 176.846 1127.41 178.652C1130.16 180.493 1132.38 182.856 1134.09 185.741C1135.83 188.522 1136.84 191.929 1137.12 195.962C1137.54 199.925 1136.85 204.62 1135.05 210.045C1133.55 214.531 1131.9 219.139 1130.1 223.869C1128.33 228.495 1126.55 233.468 1124.78 238.789L1121.4 248.961C1120.84 250.631 1120.29 252.3 1119.73 253.969C1119.31 255.569 1118.91 257.117 1118.53 258.612C1116.51 257.709 1114.36 256.876 1112.06 256.112C1109.87 255.384 1107.69 254.776 1105.54 254.291C1107.55 248.935 1109.62 243.423 1111.74 237.754C1113.96 232.12 1116.08 226.277 1118.09 220.226L1121.27 210.679Z" fill="#FBFAF7"/>
<path d="M1192.68 179.524C1190.86 183.299 1189.11 187.043 1187.43 190.755C1185.89 194.405 1184.28 198.086 1182.6 201.799C1183.73 202.237 1185.83 203.053 1188.91 204.248C1192.03 205.34 1195.42 206.481 1199.09 207.669C1198.86 207.937 1198.59 208.481 1198.28 209.301L1197.02 212.529C1196.74 213.247 1196.59 213.779 1196.58 214.126C1195.28 213.506 1193.92 212.917 1192.48 212.36C1191.09 211.7 1189.57 211.051 1187.93 210.414L1180.39 207.487C1180.13 207.857 1179.34 209.437 1178.02 212.227C1176.8 215.057 1175.36 218.45 1173.7 222.407C1172.09 226.262 1170.39 230.322 1168.62 234.587C1166.94 238.891 1165.45 242.734 1164.13 246.116C1163.02 248.986 1161.97 251.824 1161 254.631C1160.13 257.478 1159.67 260.188 1159.61 262.762C1159.59 265.232 1160.15 267.453 1161.27 269.422C1162.39 271.392 1164.49 272.974 1167.57 274.169C1168.39 274.487 1169.5 274.803 1170.92 275.116C1172.43 275.468 1173.76 275.69 1174.91 275.781L1173.47 279.47C1171.61 279.101 1169.52 278.703 1167.21 278.276C1164.96 277.992 1162.86 277.472 1160.91 276.715C1154.45 274.206 1150.3 270.766 1148.46 266.394C1146.62 262.022 1146.89 256.762 1149.28 250.612C1150.36 247.845 1151.57 244.893 1152.9 241.756C1154.28 238.516 1155.76 235.02 1157.34 231.268C1159.06 227.453 1160.86 223.259 1162.76 218.687C1164.69 214.012 1166.78 208.805 1169.01 203.066L1164.09 201.155C1163.27 200.836 1162.37 200.549 1161.41 200.293C1160.49 199.934 1159.49 199.607 1158.43 199.312C1158.77 198.736 1159.04 198.193 1159.24 197.68C1159.58 197.105 1159.87 196.51 1160.11 195.895C1160.31 195.383 1160.46 194.85 1160.56 194.298C1160.75 193.786 1160.9 193.253 1161 192.701C1165.49 194.801 1168.82 196.269 1170.97 197.105C1171.67 195.015 1172.56 192.413 1173.65 189.299C1174.85 186.224 1175.98 183.007 1177.05 179.648L1191.91 179.225L1192.68 179.524Z" fill="#FBFAF7"/>
<path d="M1228.87 187.044C1229.78 184.92 1231.32 183.423 1233.48 182.553C1235.65 181.683 1237.79 181.701 1239.92 182.607C1242.04 183.512 1243.54 185.047 1244.41 187.211C1245.28 189.376 1245.26 191.52 1244.36 193.644C1243.45 195.767 1241.91 197.264 1239.75 198.135C1237.58 199.005 1235.44 198.987 1233.31 198.081C1231.19 197.175 1229.69 195.64 1228.82 193.476C1227.95 191.312 1227.97 189.168 1228.87 187.044ZM1207.63 242.717C1209.57 238.166 1211.5 233.369 1213.41 228.327C1215.47 223.227 1217.17 218.395 1218.52 213.83C1221.14 215.543 1223.31 216.767 1225.03 217.5C1226.75 218.233 1229.13 218.951 1232.18 219.653C1229.82 223.786 1227.46 228.338 1225.1 233.309C1222.88 238.222 1220.8 242.954 1218.86 247.505L1212.13 263.283C1210.19 267.834 1208.19 272.66 1206.13 277.76C1204.22 282.802 1202.65 287.454 1201.43 291.715C1199.19 290.521 1196.96 289.449 1194.73 288.5C1192.5 287.551 1190.18 286.682 1187.77 285.892C1190 282.062 1192.23 277.691 1194.44 272.778C1196.8 267.807 1198.95 263.046 1200.9 258.495L1207.63 242.717Z" fill="#FBFAF7"/>
<path d="M1283.49 284.516C1281.52 284.292 1279.3 283.826 1276.83 283.117C1274.46 282.456 1272.02 281.82 1269.51 281.21C1267.04 280.5 1264.5 279.94 1261.88 279.527C1259.37 279.163 1256.93 279.141 1254.58 279.464C1252.32 279.834 1250.21 280.645 1248.26 281.897C1246.4 283.197 1244.8 285.231 1243.46 288.001C1241.2 292.649 1240.83 296.809 1242.35 300.48C1243.86 304.15 1246.26 306.778 1249.52 308.363C1253.28 310.189 1257.2 310.808 1261.28 310.22C1265.45 309.68 1269.06 308.434 1272.08 306.481L1283.49 284.516ZM1259.66 240.31C1265.75 239.109 1270.96 238.828 1275.3 239.466C1279.64 240.105 1283.78 241.385 1287.74 243.307C1291.3 245.036 1294.31 247.165 1296.75 249.694C1299.23 252.124 1301.04 254.833 1302.15 257.82C1303.32 260.708 1303.82 263.825 1303.66 267.17C1303.55 270.417 1302.7 273.673 1301.12 276.936C1298.38 282.574 1295.54 288.164 1292.6 293.705C1289.71 299.148 1286.75 304.984 1283.73 311.215C1283.15 312.402 1282.52 313.688 1281.85 315.073C1281.33 316.407 1281 317.714 1280.86 318.994C1280.78 320.175 1280.91 321.28 1281.27 322.308C1281.73 323.385 1282.7 324.284 1284.18 325.004C1284.68 325.244 1285.17 325.484 1285.66 325.725C1286.31 325.914 1286.95 325.98 1287.59 325.924L1286 329.188C1284.67 329.154 1283.09 328.877 1281.27 328.357C1279.54 327.885 1277.69 327.169 1275.71 326.208C1272.54 324.671 1270.5 322.703 1269.59 320.304C1268.72 317.806 1268.77 315.199 1269.72 312.483C1264.43 314.314 1259.64 315.23 1255.36 315.23C1251.08 315.23 1246.41 314.005 1241.37 311.555C1238.89 310.354 1236.64 308.831 1234.6 306.986C1232.56 305.141 1230.98 302.971 1229.87 300.476C1228.86 298.028 1228.29 295.429 1228.16 292.676C1228.18 289.873 1228.88 287.037 1230.28 284.169C1233.16 278.235 1237.22 274.524 1242.47 273.038C1247.82 271.599 1254.02 271.921 1261.08 274.004C1266.86 275.708 1271.38 276.984 1274.63 277.831C1278.04 278.628 1280.6 279.017 1282.32 278.997C1284.14 279.025 1285.42 278.666 1286.15 277.92C1286.92 277.075 1287.67 275.911 1288.4 274.427C1289.6 271.955 1290.45 269.437 1290.96 266.874C1291.48 264.311 1291.5 261.876 1291.03 259.57C1290.56 257.265 1289.53 255.113 1287.93 253.115C1286.38 251.018 1284.12 249.249 1281.15 247.808C1277.19 245.887 1273.05 244.975 1268.72 245.074C1264.49 245.221 1260.77 246.469 1257.54 248.817L1255.91 248.025L1259.66 240.31Z" fill="#FBFAF7"/>
</svg>
