<svg width="1500" height="1370" viewBox="0 0 1500 1370" fill="none" xmlns="http://www.w3.org/2000/svg">
<path d="M750 13.8311C-9.94379 13.8311 -626 448.273 -626 984.184C-626 1073.06 -476.235 902.406 -444.5 984.184C-444.5 984.184 28 1346.82 750 1346.82C1472 1346.82 2069 908.977 2069 908.977C2100.74 827.199 2126 1073.06 2126 984.184C2126 448.273 1509.94 13.8311 750 13.8311Z" fill="#F1EFE9"/>
<path d="M2129.51 981.582C2126.59 980.698 2122.31 977.605 2116.97 972.753L2118.31 971.272C2115.05 968.31 2111.36 964.667 2107.31 960.442L2105.87 961.825C2102.59 958.407 2099.09 954.62 2095.4 950.52L2096.89 949.182C2093.62 945.55 2090.19 941.671 2086.64 937.581L2085.13 938.893C2081.86 935.134 2078.49 931.201 2075.03 927.123L2076.55 925.828C2073.31 922.003 2069.98 918.049 2066.59 913.991L2065.05 915.274C2061.81 911.394 2058.51 907.42 2055.16 903.373L2056.7 902.099C2053.47 898.182 2050.18 894.198 2046.87 890.165L2045.33 891.435C2042.08 887.486 2038.81 883.491 2035.52 879.468L2037.07 878.202C2033.82 874.229 2030.55 870.229 2027.27 866.22L2025.72 867.485C2025.31 866.974 2024.89 866.463 2024.47 865.953C2021.63 862.468 2018.78 858.979 2015.93 855.496L2017.48 854.23C2014.2 850.221 2010.92 846.22 2007.67 842.246L2006.12 843.515C2002.82 839.494 1999.54 835.501 1996.28 831.554L1997.82 830.281C1994.5 826.25 1991.2 822.266 1987.94 818.349L1986.4 819.629C1983.04 815.592 1979.72 811.627 1976.46 807.756L1977.99 806.467C1974.58 802.42 1971.23 798.475 1967.95 794.656L1966.43 795.958C1962.96 791.912 1959.57 788.008 1956.28 784.276L1957.78 782.954C1954.22 778.904 1950.77 775.054 1947.46 771.442L1945.98 772.793C1942.24 768.704 1938.67 764.924 1935.33 761.508L1936.76 760.109C1932.69 755.958 1928.93 752.325 1925.53 749.313L1924.2 750.81C1919 746.204 1914.7 743.106 1911.51 741.878L1912.23 740.012C1910.45 739.323 1908.54 738.983 1906.84 739.634C1905 740.338 1904 741.954 1903.55 743.84C1902.98 746.265 1902.4 748.684 1901.81 751.097L1903.76 751.572C1902.57 756.408 1901.35 761.219 1900.09 766.003L1898.15 765.493C1896.89 770.266 1895.59 775.013 1894.25 779.735L1896.17 780.282C1894.81 785.079 1893.41 789.85 1891.96 794.594L1890.05 794.011C1888.6 798.746 1887.12 803.455 1885.59 808.138L1887.49 808.758C1885.95 813.477 1884.37 818.169 1882.74 822.834L1880.86 822.177C1879.22 826.861 1877.55 831.518 1875.83 836.148L1877.71 836.844C1875.99 841.486 1874.22 846.101 1872.41 850.688L1870.55 849.955C1868.73 854.571 1866.87 859.16 1864.96 863.72L1866.8 864.493C1864.89 869.069 1862.93 873.616 1860.92 878.135L1859.09 877.325C1857.09 881.847 1855.04 886.34 1852.94 890.805L1854.75 891.655C1852.65 896.15 1850.49 900.615 1848.29 905.052L1846.5 904.164C1844.3 908.588 1842.06 912.984 1839.78 917.351L1841.55 918.278C1839.25 922.677 1836.9 927.046 1834.51 931.387L1832.76 930.42C1830.37 934.748 1827.94 939.045 1825.46 943.313L1827.19 944.318C1824.7 948.604 1822.16 952.859 1819.58 957.085L1817.87 956.042C1815.29 960.259 1812.67 964.445 1810 968.602L1811.68 969.683C1809 973.851 1806.28 977.99 1803.51 982.098L1801.85 980.98C1799.09 985.072 1796.28 989.134 1793.43 993.166L1795.06 994.322C1792.2 998.366 1789.29 1002.38 1786.33 1006.36L1784.72 1005.17C1781.78 1009.13 1778.8 1013.06 1775.77 1016.96L1777.34 1018.19C1774.3 1022.1 1771.22 1025.98 1768.09 1029.82L1766.53 1028.56C1763.42 1032.39 1760.25 1036.18 1757.04 1039.95L1758.56 1041.25C1755.36 1045.01 1752.11 1048.74 1748.81 1052.44L1747.32 1051.11C1744.03 1054.8 1740.69 1058.46 1737.31 1062.08L1738.77 1063.45C1735.41 1067.06 1732 1070.64 1728.54 1074.19L1727.11 1072.79C1723.67 1076.33 1720.18 1079.83 1716.65 1083.3L1718.05 1084.73C1714.53 1088.2 1710.95 1091.64 1707.33 1095.05L1705.96 1093.59C1702.38 1096.96 1698.76 1100.31 1695.09 1103.62L1696.43 1105.11C1692.75 1108.43 1689.03 1111.72 1685.26 1114.99L1683.95 1113.47C1680.24 1116.69 1676.48 1119.87 1672.68 1123.03L1673.96 1124.57C1670.15 1127.72 1666.31 1130.85 1662.42 1133.95L1661.17 1132.39C1657.31 1135.46 1653.41 1138.51 1649.46 1141.53L1650.68 1143.12C1646.77 1146.11 1642.82 1149.07 1638.82 1152L1637.64 1150.39C1633.65 1153.31 1629.63 1156.21 1625.56 1159.08L1626.71 1160.71C1622.69 1163.55 1618.62 1166.36 1614.51 1169.14L1613.39 1167.48C1609.32 1170.24 1605.2 1172.97 1601.05 1175.67L1602.14 1177.35C1597.98 1180.06 1593.77 1182.74 1589.53 1185.39L1588.47 1183.7C1584.32 1186.29 1580.13 1188.85 1575.91 1191.39L1576.94 1193.11C1572.7 1195.65 1568.43 1198.17 1564.11 1200.67L1563.11 1198.93C1558.84 1201.4 1554.52 1203.84 1550.17 1206.26L1551.14 1208.01C1546.85 1210.39 1542.52 1212.75 1538.15 1215.08L1537.21 1213.32C1532.85 1215.64 1528.45 1217.95 1524.01 1220.22L1524.93 1222C1520.54 1224.25 1516.12 1226.48 1511.66 1228.68L1510.77 1226.89C1506.37 1229.06 1501.94 1231.2 1497.47 1233.33L1498.32 1235.13C1493.84 1237.26 1489.32 1239.36 1484.77 1241.44L1483.94 1239.62C1479.48 1241.66 1474.98 1243.67 1470.44 1245.66L1471.25 1247.49C1466.74 1249.47 1462.2 1251.42 1457.63 1253.35L1456.85 1251.51C1452.28 1253.44 1447.68 1255.34 1443.04 1257.22L1443.79 1259.08C1439.25 1260.92 1434.66 1262.74 1430.05 1264.54L1429.32 1262.68C1424.75 1264.46 1420.14 1266.23 1415.49 1267.97L1416.2 1269.84C1411.54 1271.58 1406.86 1273.31 1402.14 1275L1401.46 1273.12C1396.85 1274.78 1392.21 1276.42 1387.54 1278.04L1388.19 1279.93C1383.55 1281.54 1378.87 1283.13 1374.15 1284.69L1373.52 1282.8C1368.82 1284.36 1364.08 1285.9 1359.32 1287.42L1359.92 1289.33C1355.24 1290.83 1350.53 1292.3 1345.78 1293.76L1345.2 1291.84C1340.51 1293.28 1335.79 1294.7 1331.04 1296.1L1331.6 1298.01C1326.85 1299.41 1322.06 1300.79 1317.24 1302.15L1316.7 1300.23C1311.96 1301.57 1307.18 1302.89 1302.38 1304.19L1302.9 1306.12C1298.17 1307.4 1293.41 1308.66 1288.62 1309.9L1288.12 1307.97C1283.34 1309.21 1278.53 1310.43 1273.69 1311.64L1274.17 1313.58C1269.35 1314.78 1264.5 1315.96 1259.63 1317.12L1259.16 1315.17C1254.42 1316.3 1249.64 1317.41 1244.84 1318.51L1245.28 1320.46C1240.47 1321.55 1235.64 1322.63 1230.78 1323.69L1230.35 1321.74C1225.49 1322.8 1220.61 1323.84 1215.7 1324.86L1216.11 1326.82C1211.31 1327.82 1206.48 1328.8 1201.63 1329.76L1201.24 1327.8C1196.42 1328.76 1191.59 1329.7 1186.72 1330.62L1187.1 1332.59C1182.23 1333.51 1177.33 1334.42 1172.41 1335.31L1172.05 1333.34C1167.18 1334.22 1162.28 1335.09 1157.36 1335.93L1157.7 1337.9C1152.88 1338.73 1148.03 1339.55 1143.16 1340.35L1142.84 1338.37C1137.98 1339.17 1133.09 1339.95 1128.18 1340.71L1128.49 1342.69C1123.57 1343.45 1118.63 1344.2 1113.66 1344.94L1113.37 1342.96C1108.51 1343.67 1103.63 1344.38 1098.73 1345.06L1099.01 1347.04C1094.15 1347.72 1089.27 1348.39 1084.36 1349.03L1084.1 1347.05C1079.2 1347.7 1074.28 1348.33 1069.33 1348.95L1069.58 1350.93C1064.63 1351.55 1059.65 1352.16 1054.66 1352.74L1054.42 1350.76C1049.58 1351.33 1044.71 1351.88 1039.82 1352.42L1040.04 1354.41C1035.15 1354.95 1030.24 1355.48 1025.31 1355.99L1025.11 1354C1020.18 1354.51 1015.23 1355 1010.26 1355.49L1010.46 1357.48C1005.5 1357.96 1000.52 1358.42 995.52 1358.87L995.34 1356.88C990.481 1357.32 985.601 1357.75 980.701 1358.16L980.868 1360.15C975.963 1360.56 971.039 1360.96 966.093 1361.34L965.938 1359.35C960.997 1359.73 956.035 1360.1 951.053 1360.46L951.195 1362.46C946.231 1362.81 941.246 1363.15 936.241 1363.48L936.11 1361.48C931.24 1361.8 926.35 1362.11 921.44 1362.4L921.559 1364.4C916.646 1364.69 911.713 1364.97 906.761 1365.24L906.654 1363.24C901.705 1363.51 896.738 1363.76 891.751 1364L891.847 1366C886.865 1366.24 881.864 1366.47 876.843 1366.68L876.757 1364.68C871.883 1364.89 866.991 1365.09 862.08 1365.27L862.154 1367.27C857.24 1367.45 852.307 1367.62 847.356 1367.78L847.292 1365.78C842.344 1365.94 837.378 1366.09 832.394 1366.22L832.448 1368.22C827.46 1368.35 822.454 1368.48 817.429 1368.58L817.385 1366.58C812.491 1366.69 807.579 1366.79 802.65 1366.87L802.683 1368.87C797.774 1368.95 792.848 1369.02 787.904 1369.08L787.88 1367.08C782.94 1367.14 777.982 1367.19 773.007 1367.22L773.021 1369.22C768.042 1369.26 763.047 1369.28 758.033 1369.29L758.028 1367.29C755.523 1367.3 753.014 1367.3 750.5 1367.3C749.681 1367.3 748.862 1367.3 748.044 1367.3C746.305 1367.3 744.567 1367.3 742.833 1367.29L742.828 1369.29C737.724 1369.28 732.64 1369.26 727.578 1369.22L727.592 1367.22C722.533 1367.19 717.495 1367.14 712.478 1367.08L712.455 1369.08C707.435 1369.02 702.436 1368.96 697.458 1368.87L697.491 1366.87C692.451 1366.79 687.432 1366.7 682.435 1366.59L682.393 1368.59C677.284 1368.48 672.198 1368.36 667.134 1368.23L667.187 1366.23C662.126 1366.1 657.088 1365.95 652.072 1365.8L652.009 1367.8C646.99 1367.64 641.993 1367.47 637.018 1367.29L637.091 1365.29C632.051 1365.1 627.033 1364.91 622.039 1364.7L621.955 1366.7C616.85 1366.48 611.77 1366.25 606.712 1366.01L606.807 1364.02C601.754 1363.78 596.724 1363.52 591.717 1363.26L591.611 1365.25C586.601 1364.99 581.614 1364.71 576.65 1364.42L576.768 1362.42C571.713 1362.12 566.682 1361.81 561.676 1361.48L561.546 1363.48C556.456 1363.15 551.39 1362.81 546.349 1362.45L546.491 1360.45C541.454 1360.09 536.442 1359.72 531.455 1359.34L531.301 1361.33C526.309 1360.94 521.342 1360.54 516.4 1360.13L516.567 1358.14C511.484 1357.71 506.428 1357.27 501.397 1356.82L501.217 1358.81C496.151 1358.35 491.111 1357.88 486.098 1357.39L486.292 1355.4C481.283 1354.91 476.3 1354.41 471.343 1353.89L471.136 1355.88C466.133 1355.36 461.157 1354.82 456.207 1354.27L456.428 1352.28C451.349 1351.72 446.298 1351.14 441.274 1350.54L441.038 1352.53C436.01 1351.93 431.009 1351.31 426.035 1350.68L426.286 1348.7C421.318 1348.07 416.377 1347.43 411.464 1346.77L411.197 1348.75C406.144 1348.07 401.12 1347.37 396.125 1346.66L396.407 1344.68C391.377 1343.96 386.377 1343.23 381.405 1342.48L381.106 1344.46C376.129 1343.71 371.181 1342.94 366.262 1342.15L366.577 1340.18C361.59 1339.38 356.633 1338.57 351.705 1337.74L351.373 1339.71C346.34 1338.86 341.339 1338 336.367 1337.12L336.717 1335.15C331.752 1334.26 326.817 1333.36 321.913 1332.45L321.545 1334.41C316.603 1333.49 311.691 1332.54 306.81 1331.58L307.196 1329.62C302.184 1328.63 297.204 1327.63 292.256 1326.6L291.851 1328.56C286.897 1327.54 281.975 1326.49 277.085 1325.43L277.51 1323.47C272.616 1322.41 267.754 1321.33 262.924 1320.22L262.479 1322.17C257.487 1321.03 252.529 1319.88 247.605 1318.7L248.071 1316.75C243.153 1315.57 238.27 1314.37 233.42 1313.16L232.933 1315.1C228.069 1313.87 223.239 1312.63 218.442 1311.37L218.951 1309.44C214.007 1308.14 209.099 1306.81 204.226 1305.47L203.695 1307.4C198.814 1306.05 193.97 1304.69 189.16 1303.3L189.715 1301.38C184.893 1299.99 180.108 1298.57 175.358 1297.14L174.78 1299.06C169.885 1297.58 165.027 1296.08 160.207 1294.56L160.809 1292.65C155.997 1291.13 151.222 1289.59 146.485 1288.02L145.857 1289.92C141.066 1288.34 136.312 1286.73 131.596 1285.1L132.249 1283.21C127.437 1281.55 122.663 1279.87 117.929 1278.16L117.25 1280.04C112.507 1278.33 107.803 1276.59 103.137 1274.83L103.843 1272.96C99.1061 1271.18 94.4095 1269.36 89.7524 1267.53L89.0193 1269.39C84.2909 1267.53 79.6031 1265.64 74.9558 1263.73L75.7172 1261.88C71.0793 1259.97 66.4818 1258.03 61.9244 1256.08L61.1346 1257.91C56.4476 1255.9 51.8028 1253.86 47.1998 1251.79L48.0191 1249.97C43.4131 1247.9 38.8492 1245.8 34.3273 1243.68L33.4781 1245.49C28.9064 1243.35 24.3773 1241.18 19.8904 1238.98L20.77 1237.18C16.2102 1234.95 11.6943 1232.69 7.22174 1230.4L6.31097 1232.18C1.82806 1229.89 -2.61145 1227.57 -7.00787 1225.22L-6.06573 1223.46C-10.5416 1221.07 -14.9727 1218.65 -19.3592 1216.2L-20.3335 1217.95C-24.7521 1215.49 -29.1258 1212.99 -33.455 1210.47L-32.4482 1208.74C-36.8022 1206.21 -41.1109 1203.64 -45.3747 1201.05L-46.4142 1202.76C-50.7525 1200.12 -55.0446 1197.45 -59.2909 1194.75L-58.2181 1193.06C-62.4532 1190.37 -66.6427 1187.65 -70.7867 1184.9L-71.8928 1186.56C-76.1307 1183.75 -80.3215 1180.91 -84.4654 1178.03L-83.3254 1176.39C-87.4615 1173.52 -91.5508 1170.62 -95.5938 1167.69L-96.7674 1169.31C-100.867 1166.34 -104.918 1163.34 -108.923 1160.3L-107.715 1158.71C-111.737 1155.66 -115.71 1152.59 -119.636 1149.48L-120.878 1151.05C-124.834 1147.91 -128.743 1144.75 -132.604 1141.56L-131.329 1140.01C-135.22 1136.79 -139.063 1133.54 -142.858 1130.26L-144.167 1131.77C-147.975 1128.48 -151.735 1125.15 -155.448 1121.79L-154.106 1120.31C-157.853 1116.92 -161.551 1113.5 -165.201 1110.04L-166.576 1111.49C-170.237 1108.03 -173.85 1104.53 -177.416 1101L-176.009 1099.58C-179.591 1096.04 -183.124 1092.46 -186.611 1088.85L-188.05 1090.23C-191.553 1086.61 -195.009 1082.94 -198.418 1079.25L-196.948 1077.89C-200.358 1074.2 -203.722 1070.46 -207.038 1066.7L-208.539 1068.02C-211.874 1064.24 -215.162 1060.42 -218.404 1056.57L-216.874 1055.28C-220.109 1051.44 -223.298 1047.56 -226.441 1043.65L-228 1044.9C-231.159 1040.97 -234.272 1037.01 -237.338 1033.01L-235.751 1031.79C-238.809 1027.81 -241.821 1023.79 -244.787 1019.74L-246.4 1020.92C-249.377 1016.86 -252.308 1012.76 -255.194 1008.63L-253.555 1007.48C-256.432 1003.36 -259.265 999.214 -262.053 995.03L-263.717 996.14C-266.508 991.952 -269.254 987.733 -271.957 983.481L-270.269 982.408C-272.963 978.169 -275.614 973.897 -278.222 969.594L-279.933 970.63C-282.539 966.33 -285.102 961.997 -287.622 957.633L-285.89 956.633C-288.401 952.286 -290.87 947.906 -293.297 943.496L-295.049 944.46C-297.473 940.055 -299.856 935.618 -302.197 931.15L-300.426 930.221C-302.754 925.779 -305.042 921.306 -307.289 916.802L-309.079 917.694C-311.326 913.192 -313.532 908.659 -315.699 904.095L-313.893 903.237C-316.041 898.713 -318.151 894.158 -320.222 889.574L-322.045 890.397C-324.12 885.805 -326.156 881.183 -328.154 876.531L-326.316 875.742C-328.29 871.148 -330.226 866.525 -332.126 861.873L-333.977 862.629C-335.882 857.966 -337.749 853.273 -339.58 848.552L-337.716 847.829C-339.524 843.166 -341.298 838.474 -343.036 833.754L-344.913 834.445C-346.651 829.727 -348.354 824.98 -350.023 820.205L-348.135 819.545C-348.967 817.163 -349.791 814.774 -350.607 812.378C-351.694 809.181 -353.87 807.104 -356.928 806.24L-357.471 808.165C-360.826 807.217 -365.569 808.036 -371.444 810.295L-372.162 808.428C-376.18 809.974 -380.67 812.157 -385.546 814.863L-384.576 816.612C-388.413 818.741 -392.519 821.212 -396.854 823.977L-397.93 822.291C-401.791 824.753 -405.829 827.445 -410.016 830.33L-408.881 831.977C-412.694 834.605 -416.635 837.397 -420.685 840.328L-421.858 838.708C-425.657 841.458 -429.549 844.328 -433.519 847.299L-432.321 848.901C-436.093 851.724 -439.936 854.638 -443.836 857.626L-445.052 856.039C-448.819 858.925 -452.638 861.879 -456.496 864.885L-455.267 866.463C-459.024 869.389 -462.819 872.366 -466.641 875.378L-467.879 873.807C-471.638 876.769 -475.422 879.765 -479.22 882.78L-477.976 884.347C-481.735 887.331 -485.508 890.334 -489.285 893.344L-490.531 891.779C-492.795 893.583 -495.061 895.39 -497.325 897.195C-498.826 898.391 -500.326 899.587 -501.825 900.782L-500.578 902.346C-504.352 905.354 -508.118 908.354 -511.867 911.332L-513.111 909.766C-516.907 912.783 -520.684 915.777 -524.431 918.735L-523.192 920.305C-527.017 923.324 -530.81 926.304 -534.561 929.232L-535.791 927.656C-539.647 930.666 -543.456 933.62 -547.206 936.5L-545.988 938.086C-549.892 941.085 -553.733 944.005 -557.495 946.829L-558.696 945.229C-562.653 948.199 -566.523 951.06 -570.287 953.791L-569.113 955.41C-573.16 958.346 -577.088 961.133 -580.875 963.745L-582.01 962.099C-586.176 964.971 -590.165 967.627 -593.95 970.031L-592.878 971.719C-597.346 974.557 -601.538 977.05 -605.41 979.142L-606.361 977.383C-611.236 980.017 -615.531 981.969 -619.17 983.159L-618.549 985.06C-624.942 987.149 -629.587 987.048 -632.033 984.185L-630.512 982.886C-631.37 981.881 -632 980.15 -632 977.269C-632 974.752 -631.986 972.237 -631.959 969.724L-633.959 969.703C-633.905 964.661 -633.797 959.629 -633.635 954.606L-631.636 954.671C-631.475 949.662 -631.26 944.663 -630.992 939.674L-632.989 939.566C-632.72 934.556 -632.397 929.555 -632.022 924.565L-630.027 924.715C-629.65 919.704 -629.22 914.704 -628.736 909.714L-630.726 909.521C-630.241 904.516 -629.702 899.522 -629.111 894.539L-627.125 894.775C-626.535 889.806 -625.892 884.847 -625.197 879.9L-627.178 879.621C-626.478 874.641 -625.725 869.671 -624.92 864.713L-622.946 865.033C-622.142 860.086 -621.286 855.149 -620.378 850.224L-622.345 849.862C-621.434 844.923 -620.472 839.996 -619.457 835.08L-617.498 835.484C-616.486 830.58 -615.422 825.687 -614.306 820.807L-616.256 820.361C-615.137 815.465 -613.966 810.58 -612.744 805.708L-610.804 806.195C-609.586 801.336 -608.316 796.49 -606.996 791.657L-608.926 791.13C-607.603 786.286 -606.229 781.454 -604.805 776.636L-602.887 777.203C-601.469 772.405 -600.002 767.62 -598.484 762.848L-600.39 762.242C-598.869 757.457 -597.298 752.685 -595.677 747.927L-593.784 748.572C-592.168 743.827 -590.502 739.095 -588.788 734.377L-590.668 733.694C-588.957 728.985 -587.198 724.29 -585.391 719.609L-583.525 720.329C-581.723 715.662 -579.873 711.008 -577.976 706.368L-579.827 705.611C-577.924 700.96 -575.974 696.322 -573.977 691.699L-572.141 692.492C-570.158 687.903 -568.128 683.328 -566.052 678.767L-567.873 677.938C-565.797 673.378 -563.675 668.833 -561.508 664.302L-559.703 665.165C-557.541 660.646 -555.333 656.141 -553.08 651.652L-554.868 650.755C-552.615 646.266 -550.318 641.793 -547.975 637.335L-546.205 638.266C-543.884 633.848 -541.519 629.446 -539.11 625.059L-540.863 624.097C-538.448 619.699 -535.99 615.317 -533.488 610.95L-531.752 611.945C-529.256 607.588 -526.717 603.248 -524.135 598.923L-525.852 597.898C-523.29 593.607 -520.686 589.333 -518.041 585.074L-516.342 586.129C-513.705 581.884 -511.026 577.654 -508.306 573.441L-509.986 572.356C-507.26 568.133 -504.492 563.925 -501.683 559.735L-500.022 560.848C-497.238 556.694 -494.413 552.555 -491.548 548.433L-493.19 547.292C-490.337 543.186 -487.444 539.096 -484.512 535.023L-482.888 536.192C-479.963 532.128 -476.998 528.08 -473.994 524.048L-475.597 522.853C-472.589 518.817 -469.542 514.796 -466.457 510.793L-464.873 512.014C-461.834 508.071 -458.757 504.144 -455.644 500.234L-457.208 498.988C-454.088 495.07 -450.931 491.168 -447.737 487.283L-446.192 488.554C-443.004 484.677 -439.78 480.817 -436.519 476.975L-438.044 475.681C-434.803 471.861 -431.526 468.058 -428.213 464.273L-426.708 465.59C-423.424 461.837 -420.104 458.101 -416.75 454.381L-418.235 453.042C-414.874 449.315 -411.479 445.606 -408.049 441.914L-406.583 443.275C-403.16 439.59 -399.702 435.923 -396.21 432.273L-397.655 430.89C-394.21 427.289 -390.731 423.704 -387.219 420.136L-385.794 421.54C-382.289 417.979 -378.751 414.436 -375.18 410.91L-376.586 409.487C-373.009 405.954 -369.399 402.439 -365.758 398.942L-364.372 400.385C-360.76 396.915 -357.115 393.463 -353.439 390.029L-354.804 388.567C-351.156 385.159 -347.478 381.769 -343.769 378.396L-342.423 379.876C-338.72 376.509 -334.987 373.16 -331.224 369.828L-332.55 368.331C-328.779 364.993 -324.979 361.674 -321.149 358.372L-319.843 359.887C-316.063 356.629 -312.253 353.388 -308.415 350.165L-309.701 348.633C-305.873 345.419 -302.016 342.223 -298.13 339.044L-296.864 340.592C-292.985 337.419 -289.078 334.263 -285.142 331.126L-286.389 329.562C-282.447 326.419 -278.476 323.294 -274.478 320.188L-273.251 321.767C-269.323 318.715 -265.367 315.681 -261.385 312.664L-262.592 311.07C-258.603 308.048 -254.588 305.044 -250.546 302.059L-249.357 303.667C-245.322 300.686 -241.26 297.724 -237.171 294.779L-238.34 293.156C-234.259 290.217 -230.152 287.295 -226.019 284.392L-224.869 286.029C-220.794 283.167 -216.694 280.322 -212.569 277.496L-213.699 275.846C-209.568 273.015 -205.412 270.203 -201.23 267.408L-200.119 269.071C-195.944 266.281 -191.745 263.509 -187.521 260.755L-188.613 259.079C-184.408 256.337 -180.178 253.614 -175.924 250.908L-174.851 252.596C-170.646 249.921 -166.417 247.265 -162.166 244.627L-163.22 242.927C-158.962 240.285 -154.681 237.661 -150.377 235.055L-149.341 236.766C-145.044 234.164 -140.723 231.58 -136.38 229.015L-137.397 227.293C-133.078 224.743 -128.737 222.21 -124.374 219.697L-123.376 221.43C-119.056 218.94 -114.714 216.469 -110.35 214.016L-111.33 212.273C-106.961 209.817 -102.569 207.379 -98.157 204.959L-97.1954 206.713C-92.7891 204.296 -88.3616 201.898 -83.9129 199.519L-84.8561 197.756C-80.4349 195.391 -75.9928 193.045 -71.5303 190.717L-70.6053 192.49C-66.1835 190.183 -61.7415 187.895 -57.2795 185.625L-58.1865 183.842C-53.7184 181.569 -49.2305 179.314 -44.7227 177.078L-43.8339 178.869C-39.3322 176.636 -34.8107 174.421 -30.2697 172.225L-31.1404 170.424C-26.6249 168.241 -22.0901 166.075 -17.5363 163.928L-16.6833 165.737C-12.1722 163.61 -7.64221 161.502 -3.09375 159.411L-3.92889 157.594C0.625488 155.501 5.19843 153.426 9.78967 151.37L10.6071 153.196C15.1924 151.142 19.796 149.108 24.4177 147.091L23.618 145.258C28.2205 143.251 32.8409 141.261 37.4789 139.291L38.261 141.132C42.8505 139.182 47.4574 137.25 52.0815 135.337L51.3168 133.489C55.9467 131.573 60.5938 129.676 65.2578 127.797L66.005 129.652C70.6632 127.776 75.3384 125.919 80.0304 124.08L79.3006 122.217C83.9835 120.382 88.683 118.565 93.3991 116.767L94.1116 118.636C98.7693 116.86 103.443 115.103 108.133 113.364L107.438 111.488C112.133 109.747 116.845 108.025 121.572 106.321L122.25 108.202C126.971 106.5 131.708 104.817 136.461 103.152L135.8 101.264C140.558 99.598 145.331 97.9503 150.119 96.3215L150.763 98.215C155.48 96.6106 160.212 95.0245 164.958 93.4569L164.331 91.5578C169.083 89.9884 173.85 88.4375 178.631 86.9052L179.242 88.8098C184.017 87.2793 188.808 85.7674 193.612 84.2742L193.019 82.3643C197.829 80.8694 202.653 79.3933 207.492 77.9361L208.069 79.8512C212.853 78.4102 217.652 76.9878 222.464 75.584L221.904 73.6641C226.704 72.2637 231.518 70.8818 236.346 69.5186L236.889 71.4433C241.711 70.0817 246.546 68.7386 251.395 67.4143L250.868 65.485C255.722 64.1592 260.589 62.8522 265.47 61.564L265.98 63.4978C270.828 62.2181 275.69 60.957 280.564 59.7148L280.07 57.7768C284.911 56.5429 289.765 55.3276 294.631 54.1309L295.108 56.073C299.969 54.8777 304.842 53.7009 309.727 52.5429L309.266 50.5968C314.156 49.4376 319.059 48.297 323.974 47.1754L324.419 49.1253C329.327 48.0052 334.247 46.9039 339.179 45.8216L338.75 43.8681C343.625 42.7984 348.511 41.7472 353.409 40.7146L353.822 42.6716C358.714 41.6401 363.618 40.6273 368.533 39.6332L368.136 37.6729C373.056 36.6777 377.988 35.7012 382.93 34.7436L383.311 36.7071C388.248 35.7506 393.196 34.8129 398.155 33.8941L397.791 31.9276C402.719 31.0146 407.659 30.1202 412.608 29.2447L412.956 31.2141C417.874 30.3443 422.802 29.4931 427.74 28.6605L427.408 26.6884C432.351 25.8549 437.305 25.0403 442.269 24.2444L442.586 26.2192C447.545 25.4242 452.514 24.648 457.492 23.8907L457.192 21.9135C462.171 21.1561 467.161 20.4177 472.16 19.6982L472.445 21.6779C477.382 20.9675 482.328 20.2757 487.284 19.6025L487.014 17.6207C491.975 16.9469 496.946 16.2917 501.925 15.6554L502.179 17.6393C507.153 17.0036 512.136 16.3868 517.129 15.7888L516.891 13.803C521.889 13.2044 526.896 12.6247 531.912 12.0641L532.135 14.0517C537.114 13.4952 542.102 12.9574 547.099 12.4385L546.893 10.4492C551.865 9.9328 556.846 9.43512 561.835 8.95622L562.026 10.9471C567.011 10.4687 572.003 10.009 577.004 9.56821L576.829 7.57594C581.835 7.13469 586.849 6.71232 591.872 6.30893L592.032 8.30251C597.05 7.89954 602.075 7.51554 607.109 7.1506L606.964 5.15583C611.949 4.79446 616.941 4.45177 621.941 4.12785L622.07 6.12367C627.059 5.80048 632.055 5.49601 637.059 5.21035L636.945 3.2136C641.954 2.92765 646.971 2.66053 651.995 2.41235L652.094 4.40991C657.113 4.16198 662.139 3.93296 667.172 3.72296L667.089 1.7247C672.114 1.51505 677.146 1.32433 682.185 1.15264L682.254 3.15148C687.241 2.98155 692.236 2.83028 697.238 2.69776L697.185 0.698466C702.192 0.56582 707.205 0.451954 712.226 0.356965L712.263 2.35661C717.279 2.26171 722.3 2.18568 727.329 2.1286L727.306 0.128726C732.339 0.0715868 737.379 0.0334215 742.426 0.0143269L742.433 2.01431C744.954 2.00478 747.476 2 750 2C752.523 2 755.045 2.00477 757.564 2.0143L757.572 0.0143185C762.618 0.0334075 767.658 0.0715668 772.692 0.1287L772.669 2.12857C777.697 2.18565 782.719 2.26168 787.734 2.35657L787.772 0.356926C792.793 0.45191 797.806 0.565771 802.813 0.698411L802.76 2.69771C807.762 2.83022 812.756 2.98148 817.744 3.15142L817.812 1.15257C822.852 1.32426 827.884 1.51497 832.909 1.72462L832.826 3.72288C837.859 3.93287 842.886 4.16189 847.905 4.40982L848.003 2.41225C853.027 2.66043 858.044 2.92754 863.053 3.21349L862.939 5.21024C867.943 5.49589 872.939 5.80036 877.928 6.12355L878.057 4.12773C883.057 4.45164 888.049 4.79434 893.034 5.15571L892.889 7.15047C897.923 7.51541 902.949 7.89941 907.966 8.30238L908.126 6.3088C913.149 6.71218 918.163 7.13455 923.17 7.5758L922.994 9.56807C927.995 10.0089 932.988 10.4685 937.972 10.9469L938.163 8.95607C943.152 9.43497 948.133 9.93264 953.106 10.449L952.899 12.4383C957.896 12.9572 962.884 13.495 967.864 14.0515L968.086 12.0639C973.102 12.6246 978.109 13.2042 983.107 13.8028L982.869 15.7886C987.862 16.3866 992.846 17.0035 997.82 17.6391L998.073 15.6552C1003.05 16.2916 1008.02 16.9467 1012.98 17.6205L1012.71 19.6023C1017.67 20.2755 1022.62 20.9673 1027.55 21.6777L1027.84 19.6981C1032.84 20.4175 1037.83 21.1559 1042.81 21.9133L1042.51 23.8905C1047.49 24.6478 1052.45 25.424 1057.41 26.219L1057.73 24.2442C1062.69 25.0401 1067.65 25.8547 1072.59 26.6882L1072.26 28.6603C1077.2 29.4929 1082.12 30.3441 1087.04 31.2139L1087.39 29.2445C1092.34 30.12 1097.28 31.0144 1102.21 31.9274L1101.84 33.8939C1106.8 34.8127 1111.75 35.7504 1116.69 36.7069L1117.07 34.7435C1122.01 35.701 1126.94 36.6775 1131.86 37.6727L1131.47 39.633C1136.38 40.6271 1141.29 41.6399 1146.18 42.6714L1146.59 40.7144C1151.49 41.747 1156.37 42.7982 1161.25 43.868L1160.82 45.8215C1165.75 46.9038 1170.67 48.005 1175.58 49.1251L1176.03 47.1752C1180.94 48.2969 1185.84 49.4374 1190.73 50.5967L1190.27 52.5428C1195.16 53.7008 1200.03 54.8775 1204.89 56.0729L1205.37 54.1307C1210.23 55.3274 1215.09 56.5428 1219.93 57.7766L1219.44 59.7147C1224.31 60.9569 1229.17 62.218 1234.02 63.4977L1234.53 61.5639C1239.41 62.852 1244.28 64.1591 1249.13 65.4849L1248.6 67.4142C1253.45 68.7385 1258.29 70.0815 1263.11 71.4432L1263.65 69.5185C1268.48 70.8817 1273.3 72.2636 1278.1 73.664L1277.54 75.5839C1282.35 76.9877 1287.15 78.4102 1291.93 79.8511L1292.51 77.9361C1297.35 79.3933 1302.17 80.8694 1306.98 82.3643L1306.39 84.2742C1311.19 85.7673 1315.98 87.2792 1320.76 88.8097L1321.37 86.9051C1326.15 88.4374 1330.92 89.9884 1335.67 91.5578L1335.04 93.4569C1339.79 95.0245 1344.52 96.6106 1349.24 98.215L1349.88 96.3216C1354.67 97.9503 1359.44 99.598 1364.2 101.264L1363.54 103.152C1368.29 104.817 1373.03 106.5 1377.75 108.202L1378.43 106.321C1383.16 108.025 1387.87 109.747 1392.56 111.488L1391.87 113.364C1396.56 115.103 1401.23 116.86 1405.89 118.636L1406.6 116.767C1411.32 118.565 1416.02 120.382 1420.7 122.218L1419.97 124.08C1424.66 125.919 1429.34 127.776 1434 129.653L1434.74 127.797C1439.41 129.676 1444.05 131.573 1448.68 133.489L1447.92 135.337C1452.54 137.25 1457.15 139.182 1461.74 141.132L1462.52 139.291C1467.16 141.262 1471.78 143.251 1476.38 145.259L1475.58 147.092C1480.2 149.108 1484.81 151.143 1489.39 153.196L1490.21 151.371C1494.8 153.427 1499.38 155.501 1503.93 157.594L1503.09 159.412C1507.64 161.502 1512.17 163.61 1516.68 165.737L1517.54 163.928C1522.09 166.075 1526.63 168.241 1531.14 170.425L1530.27 172.225C1534.81 174.422 1539.33 176.636 1543.83 178.87L1544.72 177.078C1549.23 179.314 1553.72 181.569 1558.19 183.843L1557.28 185.625C1561.74 187.895 1566.18 190.184 1570.61 192.49L1571.53 190.717C1575.99 193.045 1580.44 195.391 1584.86 197.756L1583.91 199.52C1588.36 201.899 1592.79 204.297 1597.2 206.713L1598.16 204.959C1602.57 207.379 1606.96 209.817 1611.33 212.273L1610.35 214.017C1614.71 216.47 1619.06 218.941 1623.38 221.43L1624.38 219.697C1628.74 222.211 1633.08 224.743 1637.4 227.294L1636.38 229.016C1640.72 231.581 1645.04 234.165 1649.34 236.766L1650.38 235.056C1654.68 237.661 1658.96 240.285 1663.22 242.928L1662.17 244.627C1666.42 247.265 1670.65 249.922 1674.85 252.596L1675.92 250.909C1680.18 253.614 1684.41 256.338 1688.61 259.08L1687.52 260.755C1691.75 263.509 1695.95 266.281 1700.12 269.071L1701.23 267.409C1705.41 270.203 1709.57 273.016 1713.7 275.847L1712.57 277.497C1716.69 280.323 1720.79 283.167 1724.87 286.03L1726.02 284.393C1730.15 287.296 1734.26 290.217 1738.34 293.156L1737.17 294.779C1741.26 297.724 1745.32 300.687 1749.36 303.668L1750.55 302.059C1754.59 305.045 1758.6 308.048 1762.59 311.07L1761.39 312.664C1765.37 315.681 1769.32 318.716 1773.25 321.768L1774.48 320.188C1778.48 323.295 1782.45 326.419 1786.39 329.562L1785.14 331.126C1789.08 334.264 1792.99 337.419 1796.86 340.592L1798.13 339.044C1802.02 342.223 1805.87 345.42 1809.7 348.634L1808.42 350.165C1812.25 353.388 1816.06 356.629 1819.84 359.887L1821.15 358.372C1824.98 361.674 1828.78 364.993 1832.55 368.331L1831.22 369.828C1834.99 373.16 1838.72 376.509 1842.42 379.876L1843.77 378.396C1847.48 381.769 1851.16 385.159 1854.8 388.567L1853.44 390.029C1857.11 393.463 1860.76 396.915 1864.37 400.385L1865.76 398.942C1869.4 402.44 1873.01 405.954 1876.59 409.487L1875.18 410.91C1878.75 414.436 1882.29 417.979 1885.79 421.54L1887.22 420.136C1890.73 423.704 1894.21 427.289 1897.66 430.89L1896.21 432.273C1899.7 435.923 1903.16 439.59 1906.58 443.275L1908.05 441.914C1911.48 445.606 1914.87 449.315 1918.24 453.042L1916.75 454.381C1920.1 458.1 1923.42 461.837 1926.71 465.59L1928.21 464.273C1931.53 468.058 1934.8 471.861 1938.04 475.68L1936.52 476.975C1939.78 480.817 1943 484.677 1946.19 488.553L1947.74 487.283C1950.93 491.168 1954.09 495.069 1957.21 498.988L1955.64 500.234C1958.76 504.144 1961.83 508.07 1964.87 512.013L1966.46 510.793C1969.54 514.796 1972.59 518.816 1975.6 522.853L1973.99 524.048C1977 528.079 1979.96 532.127 1982.89 536.191L1984.51 535.023C1987.44 539.096 1990.34 543.185 1993.19 547.291L1991.55 548.433C1994.41 552.555 1997.24 556.693 2000.02 560.848L2001.68 559.734C2004.49 563.925 2007.26 568.132 2009.99 572.355L2008.31 573.44C2011.03 577.654 2013.7 581.883 2016.34 586.128L2018.04 585.073C2020.69 589.332 2023.29 593.607 2025.85 597.897L2024.13 598.922C2026.72 603.247 2029.26 607.588 2031.75 611.944L2033.49 610.949C2035.99 615.316 2038.45 619.698 2040.86 624.096L2039.11 625.058C2041.52 629.445 2043.88 633.848 2046.2 638.265L2047.97 637.335C2050.32 641.792 2052.61 646.265 2054.87 650.754L2053.08 651.651C2055.33 656.14 2057.54 660.645 2059.7 665.164L2061.51 664.301C2063.67 668.831 2065.8 673.377 2067.87 677.937L2066.05 678.766C2068.13 683.326 2070.16 687.902 2072.14 692.491L2073.98 691.698C2075.97 696.321 2077.92 700.958 2079.83 705.61L2077.98 706.367C2079.87 711.007 2081.72 715.661 2083.52 720.328L2085.39 719.608C2087.2 724.289 2088.96 728.984 2090.67 733.693L2088.79 734.376C2090.5 739.094 2092.17 743.825 2093.78 748.571L2095.68 747.926C2097.3 752.684 2098.87 757.455 2100.39 762.24L2098.48 762.846C2100 767.618 2101.47 772.403 2102.89 777.201L2104.8 776.634C2106.23 781.453 2107.6 786.284 2108.93 791.128L2107 791.655C2108.32 796.489 2109.59 801.335 2110.8 806.193L2112.74 805.706C2113.97 810.578 2115.14 815.463 2116.26 820.359L2114.31 820.805C2115.42 825.686 2116.49 830.578 2117.5 835.483L2119.46 835.078C2120.47 839.994 2121.43 844.921 2122.34 849.86L2120.38 850.223C2121.29 855.147 2122.14 860.084 2122.95 865.031L2124.92 864.711C2125.72 869.669 2126.48 874.639 2127.18 879.619L2125.2 879.898C2125.89 884.845 2126.53 889.804 2127.12 894.773L2129.11 894.537C2129.7 899.521 2130.24 904.514 2130.73 909.519L2128.74 909.712C2129.22 914.702 2129.65 919.702 2130.03 924.713L2132.02 924.562C2132.4 929.553 2132.72 934.554 2132.99 939.564L2130.99 939.671C2131.26 944.661 2131.47 949.66 2131.64 954.669L2133.64 954.604C2133.8 959.627 2133.91 964.659 2133.96 969.7L2131.96 969.722C2131.97 971.1 2131.99 972.48 2131.99 973.86C2132 974.996 2132 976.132 2132 977.269C2132 979.075 2131.61 979.635 2131.49 979.746C2131.46 979.772 2131.41 979.818 2131.23 979.837C2131.02 979.859 2130.66 979.837 2130.09 979.667L2129.51 981.582Z" stroke="#F1EFE9" stroke-width="4" stroke-dasharray="15 15"/>
<path d="M32.9571 266.547C29.7682 260.027 26.5035 253.728 23.1631 247.65C19.8731 241.424 16.4854 235.124 13 228.749C14.3815 228.319 15.7136 227.913 16.9963 227.531C18.2306 227.051 19.4408 226.52 20.6269 225.941C21.8129 225.361 22.9748 224.733 24.1125 224.054C25.2019 223.277 26.3407 222.476 27.529 221.651C30.4214 228.315 33.2655 234.881 36.0612 241.348C38.9075 247.668 41.9251 254.087 45.114 260.607C51.2019 273.053 56.5421 283.846 61.1344 292.984C65.6784 302.024 69.7633 310.125 73.3893 317.288C80.4067 313.859 87.1034 310.526 93.4795 307.289C99.8072 303.952 106.436 299.979 113.365 295.37C113.741 297.389 114.219 298.992 114.798 300.177C115.33 301.264 116.229 302.476 117.497 303.815C112.853 305.839 108.259 307.962 103.712 310.183C99.1656 312.404 94.6192 314.626 90.0727 316.847C85.3285 319.165 80.7326 321.411 76.285 323.584C71.9362 325.708 67.438 328.028 62.7905 330.544C60.0914 324.275 57.2945 317.931 54.3999 311.512C51.6041 305.045 48.6118 298.552 45.4229 292.032L32.9571 266.547Z" fill="#FBFAF7"/>
<path d="M158.557 241.637C157.085 242.965 155.266 244.319 153.1 245.698C151.035 247.035 148.941 248.444 146.818 249.925C144.652 251.304 142.55 252.836 140.511 254.52C138.573 256.161 136.945 257.972 135.625 259.952C134.407 261.889 133.621 264.004 133.266 266.296C133.013 268.546 133.48 271.091 134.665 273.933C136.656 278.702 139.53 281.734 143.287 283.027C147.045 284.319 150.6 284.267 153.95 282.871C157.809 281.262 160.867 278.737 163.125 275.294C165.485 271.808 166.935 268.285 167.476 264.724L158.557 241.637ZM109.631 230.222C112.76 224.867 116 220.777 119.35 217.951C122.7 215.124 126.406 212.865 130.468 211.172C134.123 209.648 137.707 208.81 141.219 208.656C144.688 208.402 147.913 208.845 150.892 209.985C153.829 211.025 156.499 212.711 158.903 215.045C161.265 217.277 163.145 220.067 164.542 223.416C166.956 229.201 169.268 235.027 171.479 240.897C173.648 246.664 176.066 252.745 178.734 259.138C179.242 260.356 179.792 261.675 180.385 263.096C181.037 264.373 181.799 265.485 182.671 266.432C183.501 267.277 184.419 267.907 185.426 268.321C186.535 268.693 187.851 268.561 189.374 267.926C189.882 267.715 190.389 267.503 190.897 267.292C191.464 266.936 191.938 266.5 192.318 265.984L193.716 269.333C192.811 270.306 191.559 271.305 189.959 272.329C188.462 273.31 186.698 274.224 184.667 275.071C181.418 276.425 178.591 276.65 176.188 275.746C173.742 274.74 171.816 272.982 170.41 270.47C168.279 275.647 165.797 279.839 162.963 283.045C160.129 286.252 156.123 288.934 150.945 291.093C148.406 292.151 145.77 292.833 143.037 293.138C140.304 293.443 137.634 293.186 135.027 292.367C132.522 291.505 130.194 290.212 128.044 288.487C125.953 286.618 124.293 284.213 123.065 281.27C120.525 275.181 120.434 269.679 122.793 264.764C125.254 259.807 129.603 255.374 135.838 251.464C140.94 248.265 144.887 245.726 147.679 243.848C150.53 241.825 152.518 240.163 153.643 238.86C154.87 237.515 155.445 236.322 155.369 235.282C155.25 234.14 154.873 232.808 154.237 231.286C153.179 228.749 151.858 226.44 150.275 224.36C148.691 222.28 146.88 220.652 144.84 219.477C142.8 218.302 140.502 217.652 137.947 217.526C135.348 217.298 132.526 217.819 129.48 219.089C125.419 220.782 121.992 223.282 119.201 226.59C116.511 229.856 114.98 233.472 114.609 237.439L112.934 238.138L109.631 230.222Z" fill="#FBFAF7"/>
<path d="M252.688 206.363C251.037 201.582 248.959 197.588 246.455 194.38C244.019 191.033 241.382 188.453 238.545 186.64C235.812 184.791 232.93 183.692 229.899 183.341C226.937 182.851 224.104 183.072 221.4 184.005C218.176 185.117 215.271 186.816 212.686 189.104C210.169 191.252 208.303 194.105 207.088 197.665C205.837 201.121 205.308 205.316 205.499 210.252C205.759 215.048 207.001 220.668 209.226 227.112C216.44 248.003 227.639 255.83 242.822 250.593C246.046 249.481 248.723 247.627 250.852 245.032C252.946 242.332 254.425 239.031 255.288 235.127C256.255 231.188 256.539 226.786 256.14 221.922C255.741 217.058 254.59 211.872 252.688 206.363ZM266.576 202.096C268.658 208.124 269.624 213.956 269.475 219.59C269.43 225.189 268.424 230.364 266.456 235.113C264.556 239.723 261.764 243.769 258.078 247.251C254.46 250.592 250.155 253.124 245.163 254.846C240.172 256.567 235.289 257.088 230.515 256.409C225.81 255.589 221.897 254.031 218.776 251.734C216.073 256.04 213.63 260.255 211.447 264.382L208.639 265.35C207.986 262.784 207.101 259.716 205.984 256.146C204.972 252.54 203.836 248.745 202.576 244.759C201.28 240.67 199.915 236.547 198.479 232.389C197.148 228.196 195.872 224.332 194.651 220.798L184.907 192.579C183.687 189.045 182.307 185.217 180.767 181.096C179.331 176.938 177.862 172.851 176.358 168.833C174.854 164.815 173.37 161.023 171.906 157.457C170.51 153.751 169.26 150.635 168.154 148.108C171.246 147.624 173.675 147.076 175.443 146.467C176.587 146.072 177.765 145.608 178.977 145.073C180.153 144.435 181.433 143.761 182.818 143.051C183.223 145.237 184.112 148.653 185.483 153.298C186.818 157.839 188.403 162.934 190.237 168.582C192.035 174.127 193.905 179.879 195.847 185.839C197.753 191.696 199.48 197.032 201.027 201.849L201.339 201.742C202.936 194.91 205.418 189.459 208.785 185.39C212.151 181.321 216.643 178.318 222.258 176.381C227.666 174.515 232.705 173.94 237.374 174.656C242.008 175.268 246.199 176.788 249.948 179.218C253.696 181.647 256.966 184.881 259.757 188.92C262.616 192.819 264.89 197.211 266.576 202.096Z" fill="#FBFAF7"/>
<path d="M295.886 195.819C297.121 200.269 298.683 204.458 300.571 208.384C302.566 212.281 304.973 215.608 307.793 218.364C310.583 221.013 313.833 222.851 317.542 223.877C321.252 224.903 325.439 224.769 330.104 223.476C334.768 222.183 338.426 220.143 341.077 217.354C343.729 214.565 345.567 211.317 346.594 207.61C347.591 203.796 347.887 199.72 347.482 195.382C347.184 191.015 346.417 186.606 345.183 182.156C343.948 177.706 342.333 173.533 340.338 169.635C338.45 165.709 336.11 162.421 333.32 159.771C330.5 157.015 327.236 155.125 323.526 154.099C319.817 153.073 315.63 153.207 310.965 154.5C306.3 155.792 302.643 157.833 299.991 160.622C297.34 163.41 295.516 166.712 294.519 170.525C293.493 174.233 293.129 178.27 293.427 182.637C293.832 186.975 294.652 191.369 295.886 195.819ZM281.892 199.698C279.893 192.493 279.316 186.092 280.161 180.495C281.082 174.763 282.971 169.846 285.829 165.745C288.658 161.538 292.16 158.114 296.336 155.473C300.589 152.697 304.995 150.677 309.554 149.414C314.218 148.121 319.036 147.584 324.006 147.804C328.947 147.918 333.713 149.05 338.306 151.201C342.869 153.245 346.969 156.502 350.607 160.97C354.321 165.304 357.177 171.073 359.176 178.278C361.175 185.483 361.714 191.951 360.793 197.684C359.949 203.281 358.112 208.183 355.284 212.39C352.426 216.491 348.894 219.809 344.688 222.344C340.482 224.878 336.047 226.792 331.383 228.085C326.824 229.349 322.036 229.991 317.019 230.012C312.107 230.004 307.37 228.978 302.807 226.934C298.215 224.784 294.061 221.542 290.347 217.208C286.71 212.74 283.892 206.903 281.892 199.698Z" fill="#FBFAF7"/>
<path d="M410.338 140.375C409.658 139.85 408.453 139.499 406.722 139.32C405.099 139.118 403.483 139.196 401.872 139.554C399.294 140.127 397.117 141.231 395.339 142.866C393.562 144.5 392.202 146.492 391.26 148.842C390.294 151.084 389.746 153.684 389.615 156.642C389.461 159.492 389.73 162.474 390.423 165.586L394.366 183.295C395.967 190.486 397.197 196.014 398.058 199.878C399.001 203.61 399.897 206.621 400.745 208.911C398.549 209.174 396.378 209.544 394.23 210.022C391.867 210.547 389.636 211.156 387.536 211.848C387.046 208.128 386.108 203.155 384.722 196.93C383.42 190.573 381.753 182.834 379.722 173.711L378.575 168.559C377.643 164.373 376.514 159.555 375.188 154.105C373.969 148.632 372.411 142.389 370.511 135.377C371.74 135.329 372.916 135.293 374.037 135.268C375.135 135.137 376.275 134.94 377.456 134.677C378.423 134.462 379.431 134.182 380.481 133.836C381.507 133.382 382.587 132.917 383.72 132.439C384.151 136.399 384.563 139.517 384.958 141.795C385.459 144.049 385.937 146.196 386.391 148.235L386.749 148.324C390.505 135.324 396.302 127.952 404.141 126.208C405.108 125.993 405.925 125.868 406.593 125.832C407.369 125.772 408.342 125.838 409.511 126.028C409.261 127.435 409.381 129.493 409.871 132.2C410.337 134.799 410.809 137.173 411.287 139.319L410.338 140.375Z" fill="#FBFAF7"/>
<path d="M458.899 120.947C454.893 121.667 451.648 123.199 449.163 125.545C446.787 127.871 444.932 130.606 443.597 133.75C442.351 136.767 441.543 140.04 441.172 143.57C440.889 146.973 440.903 150.154 441.212 153.115C444.588 152.62 448.072 152.106 451.665 151.572C455.366 151.019 458.949 150.431 462.414 149.809C465.987 149.167 469.604 148.461 473.266 147.691C476.928 146.922 480.482 146.171 483.928 145.441C483.402 142.519 482.577 139.483 481.451 136.334C480.434 133.165 478.915 130.31 476.893 127.769C474.979 125.208 472.558 123.241 469.628 121.868C466.699 120.495 463.122 120.188 458.899 120.947ZM428.125 165.185C425.731 151.874 426.993 140.867 431.91 132.163C436.936 123.44 445.513 117.989 457.64 115.811C463.379 114.78 468.471 114.815 472.917 115.915C477.451 116.888 481.398 118.637 484.759 121.161C488.099 123.577 490.779 126.671 492.799 130.441C494.927 134.192 496.399 138.341 497.217 142.886C497.411 143.968 497.552 145.06 497.638 146.162C497.813 147.136 497.944 148.173 498.031 149.275C492.164 150.217 486.352 151.15 480.593 152.072C474.835 152.995 469.032 153.982 463.185 155.032C459.612 155.674 456.049 156.37 452.495 157.12C449.049 157.851 445.55 158.592 441.996 159.342C441.985 159.902 442.077 160.724 442.272 161.806L442.651 163.916C443.41 168.137 444.716 171.98 446.569 175.445C448.53 178.891 450.945 181.753 453.814 184.03C456.663 186.2 459.966 187.785 463.723 188.786C467.46 189.678 471.603 189.716 476.151 188.899C478.316 188.51 480.487 187.84 482.664 186.891C484.821 185.833 486.895 184.623 488.885 183.26C490.856 181.788 492.635 180.184 494.223 178.446C495.919 176.689 497.325 174.873 498.441 172.997L499.34 173.338L499.796 181.467C497.015 184.648 493.354 187.596 488.812 190.311C484.379 193.007 479.563 194.821 474.366 195.755C468.519 196.805 463.003 196.902 457.819 196.046C452.724 195.063 448.088 193.214 443.912 190.501C439.824 187.661 436.387 184.089 433.601 179.786C430.923 175.463 429.098 170.596 428.125 165.185Z" fill="#FBFAF7"/>
<path d="M592.227 102.676C588.176 103.073 584.818 104.34 582.154 106.479C579.599 108.608 577.53 111.185 575.947 114.213C574.463 117.12 573.395 120.318 572.742 123.807C572.187 127.175 571.945 130.347 572.016 133.324C575.421 133.101 578.935 132.867 582.559 132.623C586.293 132.368 589.911 132.07 593.415 131.727C597.028 131.373 600.691 130.959 604.403 130.486C608.115 130.012 611.717 129.549 615.21 129.097C614.921 126.142 614.341 123.05 613.472 119.821C612.713 116.581 611.427 113.613 609.616 110.918C607.914 108.212 605.657 106.058 602.847 104.454C600.037 102.851 596.497 102.259 592.227 102.676ZM558.003 144.306C556.685 130.846 558.825 119.976 564.425 111.694C570.135 103.402 579.121 98.6559 591.384 97.4559C597.187 96.8881 602.26 97.3307 606.603 98.7839C611.045 100.117 614.839 102.176 617.986 104.962C621.122 107.638 623.545 110.936 625.256 114.856C627.076 118.766 628.211 123.019 628.661 127.615C628.769 128.709 628.821 129.809 628.819 130.914C628.915 131.899 628.962 132.944 628.96 134.049C623.037 134.518 617.168 134.982 611.355 135.44C605.541 135.898 599.678 136.417 593.765 136.995C590.152 137.349 586.544 137.757 582.942 138.22C579.449 138.673 575.901 139.13 572.299 139.593C572.243 140.151 572.268 140.977 572.376 142.071L572.585 144.205C573.003 148.473 573.996 152.408 575.565 156.011C577.243 159.603 579.421 162.649 582.098 165.149C584.764 167.54 587.929 169.385 591.594 170.683C595.247 171.872 599.374 172.242 603.972 171.792C606.162 171.578 608.38 171.084 610.625 170.312C612.86 169.431 615.025 168.39 617.118 167.191C619.201 165.883 621.103 164.426 622.825 162.821C624.656 161.206 626.203 159.508 627.466 157.727L628.335 158.139L628.138 166.279C625.11 169.226 621.224 171.871 616.479 174.214C611.844 176.546 606.899 177.969 601.643 178.483C595.731 179.061 590.225 178.716 585.126 177.448C580.127 176.059 575.654 173.845 571.708 170.806C567.862 167.647 564.722 163.811 562.291 159.299C559.968 154.775 558.539 149.778 558.003 144.306Z" fill="#FBFAF7"/>
<path d="M659.819 71.731C659.731 75.9213 659.694 80.0536 659.708 84.1278C659.827 88.0858 659.893 92.102 659.908 96.1762C661.116 96.1065 663.367 95.9768 666.662 95.7868C669.951 95.4871 673.511 95.1167 677.342 94.6756C677.252 95.0113 677.231 95.6182 677.282 96.4963L677.482 99.9541C677.526 100.723 677.613 101.268 677.742 101.591C676.307 101.564 674.821 101.594 673.284 101.683C671.74 101.662 670.089 101.702 668.332 101.803L660.259 102.268C660.175 102.714 660.111 104.48 660.069 107.566C660.137 110.646 660.239 114.33 660.376 118.617C660.507 122.795 660.651 127.192 660.807 131.808C661.073 136.419 661.31 140.535 661.519 144.158C661.697 147.231 661.926 150.247 662.207 153.204C662.597 156.155 663.302 158.813 664.32 161.177C665.331 163.432 666.757 165.222 668.597 166.548C670.436 167.874 673.004 168.442 676.299 168.252C677.177 168.201 678.324 168.025 679.739 167.723C681.264 167.415 682.566 167.064 683.646 166.672L683.874 170.623C682.026 171.06 679.961 171.565 677.68 172.137C675.515 172.812 673.389 173.21 671.302 173.331C664.383 173.729 659.177 172.322 655.686 169.109C652.195 165.896 650.259 160.997 649.879 154.41C649.708 151.447 649.579 148.26 649.493 144.851C649.4 141.332 649.291 137.538 649.167 133.471C649.146 129.287 649.047 124.722 648.872 119.776C648.691 114.72 648.423 109.118 648.068 102.971L642.796 103.275C641.917 103.326 640.987 103.434 640.005 103.601C639.016 103.658 637.976 103.773 636.884 103.946C636.956 103.281 636.976 102.674 636.944 102.125C637.016 101.461 637.033 100.799 636.995 100.14C636.963 99.5913 636.877 99.0456 636.735 98.5031C636.704 97.9542 636.617 97.4085 636.475 96.866C641.437 96.9104 645.071 96.8662 647.377 96.7332C647.141 94.5441 646.873 91.8062 646.573 88.5194C646.383 85.2262 646.077 81.8297 645.654 78.3297L658.996 71.7785L659.819 71.731Z" fill="#FBFAF7"/>
<path d="M831.627 163.766C830.621 164.628 829.009 165.59 826.79 166.651C824.682 167.603 822.081 168.492 818.986 169.318C816.002 170.035 812.635 170.691 808.883 171.285C805.132 171.879 801.221 172.14 797.151 172.069C788.461 171.916 780.453 170.566 773.125 168.018C765.8 165.36 759.487 161.455 754.186 156.304C748.995 151.154 744.923 144.924 741.971 137.614C739.13 130.196 737.792 121.815 737.956 112.47C738.121 103.126 739.751 94.8516 742.849 87.648C746.058 80.3363 750.402 74.1992 755.881 69.2367C761.47 64.2762 768.082 60.5433 775.718 58.0381C783.354 55.5328 791.738 54.3603 800.867 54.5206C808.127 54.648 814.713 55.5334 820.626 57.1768C826.651 58.7122 831.955 60.5648 836.538 62.7347C835.631 64.2584 834.879 66.3346 834.283 68.9634C833.687 71.5922 833.208 73.7833 832.847 75.5364L831.851 75.8489C830.775 74.5103 829.261 72.9992 827.31 71.3154C825.359 69.6316 823.077 67.9969 820.464 66.4115C817.851 64.826 814.903 63.5096 811.621 62.4623C808.34 61.305 804.72 60.6916 800.76 60.6221C794.27 60.5081 788.202 61.4463 782.555 63.4367C777.019 65.4289 772.122 68.5871 767.865 72.9112C763.719 77.1273 760.433 82.5681 758.005 89.2337C755.579 95.7893 754.286 103.629 754.126 112.754C753.965 121.879 754.981 129.815 757.174 136.561C759.368 143.198 762.461 148.751 766.453 153.22C770.558 157.581 775.342 160.854 780.805 163.039C786.378 165.226 792.41 166.377 798.9 166.491C802.86 166.56 806.498 166.129 809.815 165.198C813.243 164.268 816.343 163.168 819.116 161.897C822.001 160.518 824.557 159.078 826.784 157.578C829.123 155.969 831.073 154.574 832.634 153.392L833.283 154.063L831.627 163.766Z" fill="#FBFAF7"/>
<path d="M863.48 133.729C863.117 138.332 863.15 142.802 863.581 147.137C864.121 151.482 865.244 155.43 866.949 158.984C868.664 162.428 871.088 165.266 874.223 167.499C877.357 169.731 881.337 171.038 886.163 171.418C890.989 171.799 895.124 171.132 898.57 169.419C902.016 167.705 904.856 165.282 907.09 162.149C909.332 158.907 911.006 155.179 912.111 150.964C913.326 146.759 914.115 142.354 914.479 137.75C914.842 133.147 914.754 128.673 914.214 124.329C913.784 119.993 912.711 116.103 910.997 112.659C909.291 109.106 906.871 106.213 903.736 103.98C900.602 101.748 896.622 100.441 891.796 100.061C886.971 99.68 882.835 100.347 879.389 102.06C875.943 103.774 873.099 106.252 870.856 109.494C868.623 112.627 866.898 116.296 865.683 120.502C864.578 124.716 863.844 129.125 863.48 133.729ZM849.004 132.587C849.592 125.133 851.241 118.922 853.951 113.951C856.779 108.88 860.238 104.907 864.328 102.031C868.426 99.0448 872.889 97.0255 877.717 95.9724C882.664 94.8183 887.496 94.4272 892.212 94.7991C897.037 95.1797 901.747 96.3232 906.342 98.2296C910.946 100.026 915.037 102.72 918.616 106.312C922.204 109.793 924.941 114.255 926.829 119.698C928.835 125.04 929.544 131.438 928.956 138.892C928.367 146.346 926.659 152.608 923.831 157.679C921.121 162.649 917.717 166.627 913.619 169.613C909.529 172.489 905.074 174.399 900.255 175.342C895.435 176.286 890.612 176.567 885.786 176.187C881.071 175.815 876.352 174.781 871.63 173.085C867.018 171.398 862.918 168.813 859.33 165.332C855.751 161.741 852.959 157.274 850.953 151.932C849.065 146.489 848.415 140.041 849.004 132.587Z" fill="#FBFAF7"/>
<path d="M1003.8 141.195C1004.92 133.024 1004.18 126.653 1001.58 122.082C999 117.403 994.929 114.684 989.37 113.927C981.74 112.887 975.806 114.464 971.57 118.659C967.443 122.868 964.8 129.222 963.641 137.72L961.746 151.61C961.077 156.513 960.426 161.695 959.792 167.157C959.281 172.525 959.002 177.425 958.952 181.857C956.475 181.298 954.037 180.855 951.639 180.528C949.241 180.201 946.773 179.976 944.236 179.852C945.376 175.569 946.364 170.765 947.202 165.442C948.163 160.024 948.977 154.864 949.646 149.961L951.965 132.966C952.633 128.063 953.223 122.928 953.733 117.56C954.367 112.098 954.731 106.987 954.825 102.228C957.803 103.189 960.218 103.796 962.071 104.048C962.943 104.167 963.877 104.239 964.873 104.263C965.993 104.194 967.276 104.147 968.723 104.122C967.802 108.435 967.044 112.771 966.449 117.129L966.776 117.173C970.468 112.905 974.61 109.807 979.203 107.88C983.811 105.845 989.058 105.228 994.944 106.03C997.996 106.446 1000.99 107.298 1003.92 108.585C1006.96 109.888 1009.59 111.799 1011.8 114.32C1014.03 116.731 1015.65 119.893 1016.67 123.805C1017.81 127.623 1018 132.365 1017.23 138.03C1016.59 142.715 1015.82 147.548 1014.92 152.53C1014.03 157.402 1013.21 162.617 1012.45 168.173L1011 178.795C1010.76 180.538 1010.52 182.282 1010.29 184.025C1010.17 185.674 1010.07 187.268 1009.97 188.808C1007.82 188.293 1005.54 187.873 1003.14 187.546C1000.86 187.234 998.606 187.038 996.396 186.959C997.387 181.324 998.4 175.525 999.435 169.563C1000.58 163.615 1001.58 157.482 1002.44 151.163L1003.8 141.195Z" fill="#FBFAF7"/>
<path d="M1037.04 177.95C1037.38 179.132 1037.97 180.472 1038.81 181.971C1039.75 183.49 1040.87 184.985 1042.16 186.457C1043.58 187.84 1045.2 189.092 1047 190.212C1048.92 191.352 1051.01 192.134 1053.28 192.558C1055.33 192.941 1057.34 192.98 1059.3 192.674C1061.37 192.389 1063.22 191.783 1064.84 190.857C1066.58 189.95 1068.05 188.659 1069.26 186.983C1070.47 185.307 1071.3 183.28 1071.74 180.902C1072.37 177.551 1071.87 174.83 1070.24 172.737C1068.75 170.557 1066.7 168.664 1064.09 167.058C1061.5 165.345 1058.61 163.743 1055.42 162.252C1052.22 160.762 1049.36 158.998 1046.83 156.96C1044.33 154.814 1042.34 152.263 1040.88 149.305C1039.52 146.368 1039.27 142.63 1040.12 138.09C1040.79 134.523 1041.99 131.392 1043.72 128.696C1045.48 125.891 1047.69 123.62 1050.37 121.882C1053.04 120.144 1056.17 118.993 1059.74 118.43C1063.33 117.758 1067.3 117.826 1071.62 118.633C1075.62 119.38 1078.87 120.546 1081.38 122.131C1083.99 123.737 1086.45 125.204 1088.78 126.533C1087.61 127.993 1086.43 129.841 1085.23 132.078C1084.02 134.314 1083.19 136.061 1082.74 137.318L1080.79 136.954C1080.41 134.199 1079.17 131.562 1077.06 129.044C1074.96 126.527 1072.07 124.925 1068.39 124.239C1066.77 123.936 1065.1 123.904 1063.37 124.141C1061.65 124.379 1060.04 124.917 1058.54 125.756C1057.04 126.595 1055.7 127.798 1054.51 129.366C1053.32 130.934 1052.5 132.907 1052.06 135.285C1051.41 138.743 1051.83 141.617 1053.3 143.906C1054.91 146.106 1057.01 148.009 1059.62 149.615C1062.23 151.221 1065.13 152.768 1068.32 154.259C1071.53 155.641 1074.41 157.351 1076.93 159.389C1079.48 161.318 1081.44 163.752 1082.79 166.689C1084.25 169.646 1084.56 173.395 1083.71 177.934C1083.12 181.069 1081.85 184.018 1079.88 186.782C1078.01 189.566 1075.55 191.959 1072.49 193.961C1069.56 195.875 1066.18 197.201 1062.35 197.941C1058.54 198.572 1054.36 198.463 1049.82 197.616C1044.84 196.688 1040.77 195.424 1037.6 193.826C1034.43 192.228 1031.83 190.568 1029.8 188.847C1030.71 187.563 1031.71 185.793 1032.81 183.536C1034.03 181.191 1034.79 179.208 1035.09 177.587L1037.04 177.95Z" fill="#FBFAF7"/>
<path d="M1134.75 110.832C1133.51 114.837 1132.34 118.799 1131.24 122.721C1130.26 126.559 1129.22 130.439 1128.11 134.36C1129.29 134.625 1131.5 135.119 1134.72 135.841C1137.96 136.456 1141.48 137.078 1145.29 137.706C1145.11 138.004 1144.92 138.582 1144.73 139.441L1143.97 142.82C1143.8 143.571 1143.74 144.119 1143.77 144.465C1142.4 144.045 1140.96 143.666 1139.46 143.329C1137.98 142.885 1136.38 142.47 1134.67 142.084L1126.78 140.314C1126.57 140.719 1126.03 142.4 1125.14 145.355C1124.35 148.335 1123.44 151.905 1122.39 156.065C1121.37 160.118 1120.3 164.385 1119.18 168.867C1118.17 173.373 1117.26 177.396 1116.47 180.936C1115.79 183.94 1115.18 186.903 1114.64 189.823C1114.21 192.768 1114.15 195.517 1114.48 198.07C1114.83 200.516 1115.71 202.628 1117.12 204.408C1118.52 206.188 1120.83 207.44 1124.05 208.162C1124.91 208.355 1126.06 208.5 1127.51 208.599C1129.06 208.722 1130.41 208.742 1131.55 208.661L1130.68 212.524C1128.79 212.436 1126.66 212.354 1124.31 212.277C1122.04 212.332 1119.89 212.131 1117.85 211.673C1111.09 210.156 1106.47 207.373 1104 203.325C1101.53 199.276 1101.01 194.034 1102.46 187.597C1103.11 184.7 1103.86 181.601 1104.71 178.299C1105.59 174.89 1106.53 171.213 1107.53 167.268C1108.66 163.239 1109.82 158.823 1111.01 154.019C1112.23 149.108 1113.51 143.649 1114.86 137.641L1109.71 136.485C1108.85 136.292 1107.93 136.141 1106.94 136.032C1105.97 135.815 1104.94 135.64 1103.84 135.506C1104.09 134.887 1104.28 134.309 1104.4 133.772C1104.65 133.153 1104.85 132.521 1104.99 131.877C1105.11 131.341 1105.18 130.792 1105.19 130.232C1105.31 129.695 1105.38 129.147 1105.39 128.586C1110.15 129.992 1113.66 130.948 1115.91 131.454C1116.29 129.284 1116.78 126.578 1117.4 123.335C1118.12 120.117 1118.76 116.767 1119.32 113.285L1133.95 110.651L1134.75 110.832Z" fill="#FBFAF7"/>
<path d="M1194.51 187.033C1192.54 187.186 1190.27 187.146 1187.71 186.915C1185.26 186.712 1182.74 186.548 1180.15 186.423C1177.6 186.192 1175 186.12 1172.35 186.207C1169.81 186.323 1167.42 186.761 1165.16 187.522C1163.02 188.311 1161.1 189.505 1159.42 191.103C1157.84 192.729 1156.65 195.029 1155.85 198.002C1154.51 202.993 1154.93 207.148 1157.12 210.466C1159.3 213.785 1162.15 215.915 1165.65 216.856C1169.69 217.94 1173.66 217.809 1177.55 216.463C1181.55 215.146 1184.85 213.243 1187.46 210.755L1194.51 187.033ZM1162.77 148.113C1168.52 145.786 1173.59 144.527 1177.97 144.337C1182.35 144.147 1186.66 144.622 1190.91 145.763C1194.74 146.79 1198.09 148.315 1200.96 150.339C1203.86 152.256 1206.14 154.577 1207.8 157.299C1209.49 159.916 1210.57 162.882 1211.05 166.198C1211.55 169.407 1211.34 172.764 1210.39 176.268C1208.77 182.321 1207.03 188.345 1205.19 194.341C1203.38 200.231 1201.58 206.52 1199.78 213.21C1199.44 214.484 1199.07 215.865 1198.67 217.352C1198.4 218.761 1198.33 220.106 1198.44 221.388C1198.58 222.564 1198.92 223.624 1199.46 224.567C1200.11 225.538 1201.24 226.238 1202.83 226.666C1203.36 226.808 1203.89 226.951 1204.42 227.094C1205.09 227.159 1205.73 227.103 1206.35 226.927L1205.41 230.431C1204.09 230.649 1202.49 230.674 1200.6 230.508C1198.81 230.37 1196.86 230.016 1194.73 229.445C1191.33 228.533 1188.96 226.984 1187.61 224.8C1186.29 222.51 1185.84 219.942 1186.26 217.095C1181.41 219.891 1176.88 221.693 1172.68 222.5C1168.48 223.307 1163.66 222.983 1158.25 221.528C1155.59 220.815 1153.09 219.744 1150.74 218.316C1148.39 216.889 1146.43 215.054 1144.87 212.813C1143.41 210.601 1142.36 208.155 1141.71 205.477C1141.2 202.721 1141.36 199.803 1142.19 196.723C1143.9 190.352 1147.19 185.942 1152.06 183.493C1157.04 181.073 1163.2 180.22 1170.52 180.934C1176.52 181.519 1181.19 181.92 1184.55 182.139C1188.05 182.28 1190.64 182.178 1192.32 181.834C1194.12 181.519 1195.3 180.926 1195.88 180.056C1196.48 179.08 1197 177.795 1197.43 176.202C1198.14 173.547 1198.5 170.913 1198.52 168.3C1198.54 165.686 1198.1 163.292 1197.21 161.116C1196.31 158.94 1194.89 157.021 1192.95 155.36C1191.03 153.593 1188.48 152.282 1185.29 151.426C1181.04 150.285 1176.8 150.171 1172.56 151.084C1168.44 152.026 1165.02 153.953 1162.3 156.866L1160.54 156.396L1162.77 148.113Z" fill="#FBFAF7"/>
<path d="M1288.27 210.679C1290.87 202.854 1291.32 196.456 1289.61 191.485C1287.94 186.41 1284.44 182.987 1279.12 181.217C1271.81 178.788 1265.69 179.243 1260.75 182.584C1255.92 185.96 1252.15 191.717 1249.44 199.855L1245.01 213.157C1243.45 217.852 1241.85 222.825 1240.22 228.077C1238.73 233.258 1237.55 238.023 1236.68 242.37C1234.35 241.363 1232.03 240.477 1229.74 239.714C1227.44 238.95 1225.06 238.274 1222.59 237.684C1224.5 233.684 1226.35 229.146 1228.16 224.068C1230.11 218.921 1231.86 214 1233.42 209.305L1238.84 193.029C1240.4 188.334 1241.93 183.396 1243.42 178.214C1245.05 172.963 1246.36 168.007 1247.33 163.347C1250.08 164.841 1252.34 165.883 1254.11 166.473C1254.95 166.75 1255.85 166.993 1256.83 167.201C1257.94 167.339 1259.21 167.53 1260.64 167.772C1258.94 171.842 1257.39 175.963 1256 180.136L1256.31 180.24C1260.73 176.726 1265.37 174.445 1270.24 173.399C1275.15 172.249 1280.42 172.611 1286.06 174.485C1288.98 175.457 1291.76 176.846 1294.41 178.652C1297.16 180.493 1299.38 182.856 1301.09 185.741C1302.83 188.522 1303.84 191.929 1304.12 195.962C1304.54 199.925 1303.85 204.62 1302.05 210.045C1300.55 214.531 1298.9 219.139 1297.1 223.869C1295.33 228.495 1293.55 233.468 1291.78 238.789L1288.4 248.961C1287.84 250.631 1287.29 252.3 1286.73 253.969C1286.31 255.569 1285.91 257.117 1285.53 258.612C1283.51 257.709 1281.36 256.876 1279.06 256.112C1276.87 255.384 1274.69 254.776 1272.54 254.291C1274.55 248.935 1276.62 243.423 1278.74 237.754C1280.96 232.12 1283.08 226.277 1285.09 220.226L1288.27 210.679Z" fill="#FBFAF7"/>
<path d="M1359.68 179.524C1357.86 183.299 1356.11 187.043 1354.43 190.755C1352.89 194.405 1351.28 198.086 1349.6 201.799C1350.73 202.237 1352.83 203.053 1355.91 204.248C1359.03 205.34 1362.42 206.481 1366.09 207.669C1365.86 207.937 1365.59 208.481 1365.28 209.301L1364.02 212.529C1363.74 213.247 1363.59 213.779 1363.58 214.126C1362.28 213.506 1360.92 212.917 1359.48 212.36C1358.09 211.7 1356.57 211.051 1354.93 210.414L1347.39 207.487C1347.13 207.857 1346.34 209.437 1345.02 212.227C1343.8 215.057 1342.36 218.45 1340.7 222.407C1339.09 226.262 1337.39 230.322 1335.62 234.587C1333.94 238.891 1332.45 242.734 1331.13 246.116C1330.02 248.986 1328.97 251.824 1328 254.631C1327.13 257.478 1326.67 260.188 1326.61 262.762C1326.59 265.232 1327.15 267.453 1328.27 269.422C1329.39 271.392 1331.49 272.974 1334.57 274.169C1335.39 274.487 1336.5 274.803 1337.92 275.116C1339.43 275.468 1340.76 275.69 1341.91 275.781L1340.47 279.47C1338.61 279.101 1336.52 278.703 1334.21 278.276C1331.96 277.992 1329.86 277.472 1327.91 276.715C1321.45 274.206 1317.3 270.766 1315.46 266.394C1313.62 262.022 1313.89 256.762 1316.28 250.612C1317.36 247.845 1318.57 244.893 1319.9 241.756C1321.28 238.516 1322.76 235.02 1324.34 231.268C1326.06 227.453 1327.86 223.259 1329.76 218.687C1331.69 214.012 1333.78 208.805 1336.01 203.066L1331.09 201.155C1330.27 200.836 1329.37 200.549 1328.41 200.293C1327.49 199.934 1326.49 199.607 1325.43 199.312C1325.77 198.736 1326.04 198.193 1326.24 197.68C1326.58 197.105 1326.87 196.51 1327.11 195.895C1327.31 195.383 1327.46 194.85 1327.56 194.298C1327.75 193.786 1327.9 193.253 1328 192.701C1332.49 194.801 1335.82 196.269 1337.97 197.105C1338.67 195.015 1339.56 192.413 1340.65 189.299C1341.85 186.224 1342.98 183.007 1344.05 179.648L1358.91 179.225L1359.68 179.524Z" fill="#FBFAF7"/>
<path d="M1395.87 187.044C1396.78 184.92 1398.32 183.423 1400.48 182.553C1402.65 181.683 1404.79 181.701 1406.92 182.607C1409.04 183.512 1410.54 185.047 1411.41 187.211C1412.28 189.376 1412.26 191.52 1411.36 193.644C1410.45 195.767 1408.91 197.264 1406.75 198.135C1404.58 199.005 1402.44 198.987 1400.31 198.081C1398.19 197.175 1396.69 195.64 1395.82 193.476C1394.95 191.312 1394.97 189.168 1395.87 187.044ZM1374.63 242.717C1376.57 238.166 1378.5 233.369 1380.41 228.327C1382.47 223.227 1384.17 218.395 1385.52 213.83C1388.14 215.543 1390.31 216.767 1392.03 217.5C1393.75 218.233 1396.13 218.951 1399.18 219.653C1396.82 223.786 1394.46 228.338 1392.1 233.309C1389.88 238.222 1387.8 242.954 1385.86 247.505L1379.13 263.283C1377.19 267.834 1375.19 272.66 1373.13 277.76C1371.22 282.802 1369.65 287.454 1368.43 291.715C1366.19 290.521 1363.96 289.449 1361.73 288.5C1359.5 287.551 1357.18 286.682 1354.77 285.892C1357 282.062 1359.23 277.691 1361.44 272.778C1363.8 267.807 1365.95 263.046 1367.9 258.495L1374.63 242.717Z" fill="#FBFAF7"/>
<path d="M1450.49 284.516C1448.52 284.292 1446.3 283.826 1443.83 283.117C1441.46 282.456 1439.02 281.82 1436.51 281.21C1434.04 280.5 1431.5 279.94 1428.88 279.527C1426.37 279.163 1423.93 279.141 1421.58 279.464C1419.32 279.834 1417.21 280.645 1415.26 281.897C1413.4 283.197 1411.8 285.231 1410.46 288.001C1408.2 292.649 1407.83 296.809 1409.35 300.48C1410.86 304.15 1413.26 306.778 1416.52 308.363C1420.28 310.189 1424.2 310.808 1428.28 310.22C1432.45 309.68 1436.06 308.434 1439.08 306.481L1450.49 284.516ZM1426.66 240.31C1432.75 239.109 1437.96 238.828 1442.3 239.466C1446.64 240.105 1450.78 241.385 1454.74 243.307C1458.3 245.036 1461.31 247.165 1463.75 249.694C1466.23 252.124 1468.04 254.833 1469.15 257.82C1470.32 260.708 1470.82 263.825 1470.66 267.17C1470.55 270.417 1469.7 273.673 1468.12 276.936C1465.38 282.574 1462.54 288.164 1459.6 293.705C1456.71 299.148 1453.75 304.984 1450.73 311.215C1450.15 312.402 1449.52 313.688 1448.85 315.073C1448.33 316.407 1448 317.714 1447.86 318.994C1447.78 320.175 1447.91 321.28 1448.27 322.308C1448.73 323.385 1449.7 324.284 1451.18 325.004C1451.68 325.244 1452.17 325.484 1452.66 325.725C1453.31 325.914 1453.95 325.98 1454.59 325.924L1453 329.188C1451.67 329.154 1450.09 328.877 1448.27 328.357C1446.54 327.885 1444.69 327.169 1442.71 326.208C1439.54 324.671 1437.5 322.703 1436.59 320.304C1435.72 317.806 1435.77 315.199 1436.72 312.483C1431.43 314.314 1426.64 315.23 1422.36 315.23C1418.08 315.23 1413.41 314.005 1408.37 311.555C1405.89 310.354 1403.64 308.831 1401.6 306.986C1399.56 305.141 1397.98 302.971 1396.87 300.476C1395.86 298.028 1395.29 295.429 1395.16 292.676C1395.18 289.873 1395.88 287.037 1397.28 284.169C1400.16 278.235 1404.22 274.524 1409.47 273.038C1414.82 271.599 1421.02 271.921 1428.08 274.004C1433.86 275.708 1438.38 276.984 1441.63 277.831C1445.04 278.628 1447.6 279.017 1449.32 278.997C1451.14 279.025 1452.42 278.666 1453.15 277.92C1453.92 277.075 1454.67 275.911 1455.4 274.427C1456.6 271.955 1457.45 269.437 1457.96 266.874C1458.48 264.311 1458.5 261.876 1458.03 259.57C1457.56 257.265 1456.53 255.113 1454.93 253.115C1453.38 251.018 1451.12 249.249 1448.15 247.808C1444.19 245.887 1440.05 244.975 1435.72 245.074C1431.49 245.221 1427.77 246.469 1424.54 248.817L1422.91 248.025L1426.66 240.31Z" fill="#FBFAF7"/>
</svg>
