<svg width="110" height="371" viewBox="0 0 110 371" fill="none" xmlns="http://www.w3.org/2000/svg">
<path d="M46.2849 179.278C47.4352 179.453 47.9269 179.972 47.6898 181.254C45.8108 191.316 43.9932 201.396 42.1405 211.468C39.919 223.523 37.6448 235.562 35.476 247.626C33.4301 258.98 31.551 270.368 29.4964 281.722C27.8544 290.774 26.0105 299.801 24.3334 308.854C23.868 311.374 23.7187 313.946 23.306 316.475C22.8758 319.074 22.2348 321.638 21.8045 324.237C21.4796 326.213 21.4972 328.241 21.0933 330.199C20.4523 333.29 19.4864 336.311 18.8367 339.393C18.0289 343.204 17.3967 347.058 16.6679 350.887C16.5889 351.299 16.343 351.677 16.1762 352.072C15.9918 352.054 15.8074 352.028 15.6142 352.011C15.6142 350.641 15.6142 349.271 15.6142 347.901C15.8249 346.672 16.0268 345.451 16.2376 344.222C16.3956 343.274 16.5537 342.326 16.7118 341.377C17.0015 339.832 18.3362 338.278 16.6679 336.75C17.2123 335.591 17.9762 334.484 18.2572 333.264C18.8455 330.7 19.1703 328.083 19.6094 325.484C20.1274 322.753 20.6455 320.023 21.1636 317.301C21.3392 316.308 21.5236 315.316 21.6992 314.324C21.8221 313.2 21.945 312.085 22.0767 310.961C22.6387 308.037 23.2006 305.122 23.7626 302.198C23.7626 301.917 23.7451 301.636 23.7363 301.355C24.0085 300.986 24.4475 300.653 24.5353 300.249C24.9919 298.176 25.3958 296.095 25.7207 294.006C25.8261 293.312 25.6241 292.574 25.5714 291.986C24.588 293.136 23.745 294.12 22.9021 295.112C23.0338 294.41 23.1743 293.707 23.306 293.005C22.8933 291.907 22.4806 290.81 22.0679 289.712C22.3489 288.878 22.6299 288.044 22.9109 287.192C23.5343 287.262 24.1753 287.332 24.9743 287.42C24.7899 286.489 24.6582 285.778 24.5968 285.48C23.4992 285.48 22.1645 285.813 21.8748 285.409C21.3479 284.663 21.4269 283.486 21.1899 282.134C22.4894 282.591 23.1217 282.81 23.7539 283.03C23.8768 283.214 24.0085 283.39 24.1314 283.574C26.2651 284.558 26.3353 284.523 26.6163 282.24C26.6514 281.967 26.7568 281.713 26.8358 281.441C27.4856 279.298 28.3285 277.182 28.7061 274.996C28.8993 273.872 28.3373 272.572 27.9159 271.422C27.7227 270.895 27.0729 270.535 26.6251 270.096C27.4241 267.98 27.0554 267.049 24.9568 265.96C25.0885 265.267 25.229 264.573 25.3695 263.844C26.9061 264.687 28.311 265.451 29.7071 266.224C29.5227 265.425 29.2329 264.617 28.6622 264.283C27.0729 263.352 25.3695 262.615 23.7099 261.807C23.7099 261.412 23.7099 261.017 23.7099 260.63C24.2894 260.815 24.8777 260.99 25.4572 261.175L25.6592 260.709C24.6143 260.13 23.306 259.77 22.5948 258.918C21.9275 258.128 21.8924 256.811 21.6026 255.792C21.1899 257.364 20.7596 258.971 20.3294 260.587C19.9255 261.245 19.5216 261.904 19.1264 262.562C18.8806 264.415 18.661 266.268 18.3801 268.112C18.3186 268.542 18.0289 269.297 17.8708 269.288C16.1762 269.209 17.783 270.228 17.423 270.553L16.984 272.678C15.702 275.619 15.4298 278.648 16.2376 281.818C15.7459 282.468 15.263 283.126 14.4025 284.268C15.2366 283.811 15.5088 283.662 15.781 283.513C16.3254 284.698 16.8698 285.892 17.4581 287.183C15.14 288.491 17.0191 289.475 17.8357 290.572C17.6249 290.924 17.4845 291.503 17.2035 291.573C16.4835 291.767 15.7108 291.74 14.9556 291.81C16.0005 289.694 15.904 289.185 13.9722 287.912C13.8668 289.009 13.779 289.975 13.6824 290.941C13.0327 292.926 13.5566 294.272 15.2542 294.98C15.0259 295.604 14.7888 296.236 14.5517 296.868C13.9195 296.587 13.2785 296.315 12.1897 295.841C12.699 296.754 12.98 297.254 13.2522 297.746C12.9888 297.992 12.7253 298.229 12.4619 298.475C12.3478 298.738 12.058 299.151 12.1282 299.239C13.217 300.416 12.5936 301.294 11.7156 302.189C11.3468 302.567 11.0922 303.058 10.7761 303.498C10.6707 303.62 10.5565 303.743 10.4512 303.875C11.1712 298.94 11.8648 293.997 12.62 289.062C13.9371 280.457 15.2366 271.843 16.6679 263.247C17.8445 256.187 19.223 249.163 20.505 242.121C22.2787 232.366 24.0436 222.61 25.8261 212.855C27.2573 205.023 28.7413 197.199 30.1725 189.358C31.6389 181.341 33.5267 173.368 34.3696 165.282C35.1511 157.783 37.4692 150.662 38.6019 143.277C39.7522 135.787 41.1483 128.341 42.439 120.869C43.282 115.996 44.0635 111.114 45.0381 106.267C45.161 105.67 44.9503 103.255 47.0401 104.844C46.7503 107.206 46.4606 109.568 46.1708 111.93C46.0127 112.466 45.8547 112.993 45.6967 113.528C44.8888 117.023 44.0459 120.5 43.2908 124.004C42.7991 126.278 42.3951 128.561 42.0615 130.861C41.8156 132.574 41.7366 134.303 41.5785 136.033C41.2712 137.807 40.9726 139.581 40.6653 141.354C40.1385 143.506 39.4975 145.639 39.0936 147.817C38.3385 151.944 37.715 156.088 37.0389 160.224C36.916 160.83 36.7931 161.444 36.6701 162.05C36.4682 163.095 36.2662 164.14 36.0643 165.185L35.3882 168.197C35.0984 170.541 34.8086 172.877 34.5189 175.221C34.3696 176.688 34.2203 178.154 34.0359 179.884C33.8428 180.209 33.2984 180.841 33.1052 181.578C33.0262 181.859 33.7462 182.351 34.1062 182.755C34.0886 182.887 34.0886 183.01 34.1062 183.141C33.7462 183.861 33.5267 184.713 32.9998 185.293C30.8661 187.619 32.4994 189.955 32.8506 192.291C32.8506 192.44 32.8506 192.589 32.8506 192.739C31.4545 192.695 30.5588 193.142 30.8486 194.767C30.8486 196.312 30.8486 197.858 30.8486 199.403C30.1725 201.115 28.8641 202.669 29.5227 204.715C29.2241 206.375 28.9256 208.034 28.6359 209.694C28.2408 210.704 27.8456 211.714 27.4417 212.723C27.5734 213.979 27.6963 215.235 27.828 216.49C27.6963 217.728 27.5646 218.966 27.4329 220.204C27.0641 220.819 26.5724 221.39 26.3529 222.048C26.0368 222.988 25.9226 223.998 25.7031 224.972C25.2114 227.167 24.5441 229.336 24.2543 231.549C24.0611 233.042 23.9909 234.798 24.588 236.106C25.8085 238.784 25.7909 240.786 23.7275 242.481C24.7812 242.648 25.7295 242.797 26.669 242.946C26.669 243.104 26.6514 243.254 26.6427 243.412C26.1861 243.499 25.7207 243.587 25.2377 243.684C26.3002 246.423 28.4252 243.236 29.6808 244.641C30.032 244.228 30.392 243.816 30.6291 243.543C29.6807 242.867 28.9783 242.376 28.2759 241.875C28.6885 240.347 29.1012 238.819 29.5227 237.292C29.1276 236.73 28.7325 236.168 28.3373 235.606C28.2934 235.035 28.2408 234.464 28.1969 233.902C29.6018 234.201 31.0154 234.508 32.4203 234.807C33.2282 234.095 34.036 233.384 34.9228 232.603C35.2916 233.428 35.5726 234.069 36.0994 235.263C36.3453 234.025 36.477 233.375 36.6087 232.717L37.0126 227.299C37.3989 226.421 37.7853 225.534 38.1716 224.656C38.6107 222.347 39.0585 220.046 39.4975 217.737C38.7775 215.884 38.8126 214.093 39.9629 212.398C40.2439 211.968 40.5248 211.529 40.7268 211.222C39.9717 210.818 39.3833 210.511 38.795 210.194C38.8828 210.054 38.9707 209.922 39.0585 209.782C39.717 209.308 40.8058 208.948 40.9639 208.342C41.5961 205.945 41.9385 203.477 42.3863 201.028C42.8078 198.42 43.2205 195.812 43.642 193.204C43.7034 192.3 43.7649 191.404 43.8176 190.5C43.9142 189.885 44.0195 189.27 44.1249 188.647C45.6703 186.908 45.2225 184.775 45.2752 182.746C45.5737 181.64 45.8723 180.525 46.1708 179.418L46.2323 179.348L46.2849 179.278ZM25.8173 252.535C26.4934 252.745 27.1256 252.939 27.4944 253.053C27.1256 251.63 26.7568 250.217 26.4758 249.101C25.5363 249.312 24.8514 249.4 24.2192 249.637C23.8329 249.778 23.3148 250.094 23.2358 250.427C23.1216 250.875 23.2621 251.481 23.4992 251.903C23.9119 252.631 24.4914 253.264 25.0534 254.01C25.2641 253.606 25.5363 253.088 25.8261 252.535H25.8173ZM32.3062 242.323C32.5784 243.06 32.8242 243.719 33.0437 244.298C35.1072 241.357 34.5979 238.547 32.7627 235.412C32.5257 236.607 32.3062 237.379 32.2447 238.161C32.2096 238.626 32.2623 239.355 32.552 239.548C34.2203 240.663 33.5355 241.515 32.315 242.323H32.3062ZM24.2368 244.913C23.7363 246.775 25.8261 248.197 28.671 247.582C27.2485 246.731 25.8261 245.87 24.2368 244.913ZM25.1061 255.573V259.199C27.1168 257.575 27.1256 257.311 25.1061 255.573Z" fill="#292929"/>
<path d="M41.6143 135.98C41.7635 134.259 41.8425 132.521 42.0972 130.809C42.4308 128.508 42.8348 126.216 43.3265 123.951C44.0816 120.447 44.9246 116.97 45.7324 113.476C46.2943 113.95 46.8563 114.433 47.9012 115.328V110.481C47.2866 110.991 46.7421 111.438 46.2065 111.886C46.4963 109.524 46.7861 107.162 47.0758 104.8C48.7266 105.731 49.7364 107.856 52.1774 107.619C52.4232 108.014 52.7569 108.558 53.231 109.331C53.6525 108.269 53.9686 107.47 54.2847 106.679C54.6096 107.066 54.9345 107.461 55.4262 108.058C55.7159 107.619 55.9881 107.215 56.2516 106.811C56.796 107.522 57.3404 108.234 57.876 108.936C57.6916 110.499 58.8594 110.956 59.957 111.474C58.4292 111.289 58.315 112.466 58.1482 113.458C57.4984 117.172 56.954 120.913 56.2691 124.618C55.9882 126.128 55.3472 127.568 55.075 129.07C54.5394 132.064 54.1442 135.076 53.6876 138.088C53.3013 137.675 52.9061 137.254 52.5198 136.841C52.5549 135.445 54.1969 134.013 52.3266 132.477C52.1862 133.469 52.0632 134.312 51.9403 135.164C50.7988 134.435 49.8417 134.496 49.1568 136.402C47.9978 134.172 47.067 132.371 46.1275 130.571C45.9431 130.642 45.7499 130.712 45.5655 130.782C45.7851 131.388 46.0309 131.994 46.2153 132.609C46.6456 134.022 47.0582 135.436 47.4709 136.85C46.9265 136.569 46.1714 136.437 45.8641 135.989C44.5997 134.154 43.9499 135.12 43.3089 136.437C42.747 136.279 42.1762 136.121 41.6143 135.963V135.98ZM50.3598 122.774C49.192 122.362 48.3227 122.063 47.4622 121.764C47.4973 121.896 47.5324 122.028 47.5676 122.16C46.7071 122.502 45.8377 122.845 44.6172 123.319C44.5645 123.846 44.4592 124.873 44.3099 126.313C45.2494 125.637 45.785 125.25 46.426 124.794C46.4875 125.672 46.5314 126.287 46.5929 127.217C47.4885 126.251 48.1207 125.567 48.8144 124.82C48.4895 124.645 48.1207 124.443 47.348 124.021C48.4807 123.556 49.2359 123.248 50.3686 122.783L50.3598 122.774ZM55.5228 123.591C55.3735 123.521 55.233 123.45 55.0838 123.371C54.2321 124.407 53.3364 125.417 52.5286 126.48C51.8086 127.428 52.2388 128.06 53.4066 128.209C54.1442 126.603 54.8291 125.092 55.5228 123.582V123.591ZM44.8807 133.364C45.0387 133.276 45.1968 133.188 45.3548 133.092C44.8982 131.467 44.4504 129.843 43.9938 128.227C43.7743 128.297 43.546 128.376 43.3265 128.447C43.1772 130.317 43.4846 132.029 44.8807 133.364ZM52.1247 114.345L51.4574 114.705C51.993 115.723 52.5022 116.76 53.0818 117.761C53.1345 117.848 53.6437 117.813 53.793 117.673C53.9423 117.532 54.0125 117.111 53.9071 116.944C53.354 116.057 52.7305 115.205 52.1334 114.345H52.1247Z" fill="#E4E4E4"/>
<path d="M14.9647 351.931C14.833 354.355 14.7364 356.813 14.5432 359.272C14.3325 361.95 14.034 364.619 13.753 367.297C13.4018 370.616 13.3139 370.678 9.56461 370.292C9.56461 368.966 9.4856 367.605 9.58219 366.261C9.89829 361.722 10.3549 357.182 10.5919 352.634C10.6797 350.939 11.2681 350.737 12.6554 351.325C13.3227 351.606 14.0691 351.703 14.9647 351.931Z" fill="#272727"/>
<path d="M5.80675 333.422C0.0729917 330.428 -0.901685 323.078 4.02425 318.96C5.70135 317.555 7.29064 316.186 8.29163 314.228C8.44968 314.904 8.57262 315.597 8.79213 316.247C8.97652 316.8 9.28383 317.318 9.54725 317.854C9.14334 318.653 8.51995 319.408 8.37068 320.251C7.8175 323.28 7.4136 326.345 6.89554 329.84C6.08772 328.777 5.55209 328.066 5.01647 327.363C4.93744 327.407 4.84961 327.451 4.77059 327.495C5.13937 328.496 5.50818 329.497 5.88574 330.489C5.01646 329.778 4.15596 329.076 3.19887 328.294C3.33936 330.612 4.53356 332.052 6.63213 332.605C6.75506 332.763 6.88676 332.93 7.00969 333.088C6.61456 333.194 6.21941 333.299 5.83306 333.413L5.80675 333.422Z" fill="#282828"/>
<path d="M53.688 138.097C54.1446 135.094 54.5397 132.073 55.0754 129.079C55.3476 127.569 55.9885 126.129 56.2695 124.627C56.9544 120.913 57.4988 117.181 58.1486 113.467C58.3242 112.484 58.4296 111.298 59.9574 111.483C59.9574 112.94 60.1769 114.433 59.9135 115.846C58.3242 124.478 56.6471 133.092 54.9348 141.697C54.8031 142.338 54.1358 142.865 53.7144 143.444C53.5475 143.154 53.3807 142.865 53.2139 142.575L53.688 138.105V138.097Z" fill="#282828"/>
<path d="M9.53888 317.854C9.28424 317.318 8.97688 316.809 8.78371 316.247C8.56419 315.589 8.45004 314.904 8.2832 314.228C8.83638 312.419 9.38958 310.601 9.94276 308.792C10.5135 309.179 11.0842 309.565 11.5233 309.873C10.9525 310.917 10.5399 311.681 10.1272 312.436C10.373 312.621 10.6189 312.805 10.8647 312.981C11.0579 312.48 11.2511 311.98 11.4443 311.479C11.6023 311.594 11.7516 311.708 11.9096 311.822L11.6286 313.437C11.7867 313.543 11.9448 313.648 12.094 313.762C12.4979 313.367 12.9019 312.972 13.5867 312.287C14.2804 313.771 14.9477 315.194 15.5097 316.397C14.8336 317.064 14.3858 317.503 14.0697 317.819C13.4023 317.556 12.6384 317.257 11.8833 316.967C11.8043 317.45 11.7252 317.924 11.6462 318.407C11.6462 318.671 11.6462 318.934 11.6462 319.206C11.216 319.505 10.7945 319.795 10.3643 320.093C10.0833 319.347 9.80229 318.6 9.53009 317.854H9.53888Z" fill="#5C5C5C"/>
<path d="M47.0495 162.691C47.4622 162.191 48.0768 161.76 48.2349 161.19C48.6476 159.785 48.8496 158.318 49.1393 156.87C49.3149 157.475 49.7276 158.125 49.6222 158.678C48.5334 164.395 47.3305 170.093 46.2592 175.818C46.0485 176.933 46.2593 178.119 46.2856 179.278L46.2241 179.348C45.829 178.918 45.4427 178.488 45.0476 178.057C44.5998 177.513 44.1431 176.969 43.6953 176.424C45.2758 175.757 45.9168 174.738 44.9685 173.105C45.4163 171.472 45.8554 169.83 46.3032 168.197C46.2154 166.774 46.1275 165.343 46.0397 163.92C46.3822 163.517 46.7159 163.104 47.0583 162.7L47.0495 162.691Z" fill="#2C2C2C"/>
<path d="M11.6458 318.416C11.7249 317.933 11.8039 317.459 11.8829 316.976C12.6381 317.274 13.402 317.564 14.0693 317.827C14.3854 317.511 14.8332 317.072 15.5093 316.405C14.9474 315.202 14.28 313.779 13.5864 312.296C12.9015 312.972 12.4976 313.367 12.0936 313.771C11.9356 313.665 11.7775 313.56 11.6282 313.446L11.9092 311.83C11.7512 311.716 11.6019 311.602 11.4439 311.488C11.2507 311.988 11.0575 312.489 10.8643 312.989C10.6185 312.805 10.3727 312.62 10.1268 312.445C10.5395 311.69 10.9521 310.926 11.5229 309.881C11.0839 309.582 10.5131 309.187 9.94238 308.801L9.99506 307.993C10.5746 307.782 11.1453 307.563 11.8478 307.299C11.9092 307.703 11.9795 308.133 12.0673 308.739C12.4273 308.239 12.6556 307.914 12.8927 307.589C13.2 307.949 13.5073 308.318 13.5161 308.327C13.2703 309.494 12.6907 310.82 12.9805 311.057C14.0254 311.9 15.3776 312.366 16.6069 312.972C16.8967 313.639 17.1864 314.315 17.485 314.982C17.2216 315.5 16.923 315.992 16.7035 316.528C16.4401 317.178 16.3171 317.898 16.001 318.521C15.5796 319.355 15.0176 320.128 14.5259 320.927C14.2713 320.927 14.0166 320.927 13.762 320.927C13.5425 320.365 13.2 319.821 13.121 319.241C12.9805 318.205 12.6819 317.713 11.637 318.407L11.6458 318.416Z" fill="#B3B3B3"/>
<path d="M16.2207 344.205C16.01 345.434 15.808 346.654 15.5973 347.884C14.8685 347.928 14.0343 348.138 14.1397 346.918C13.8938 346.962 13.648 347.014 13.4109 347.058C13.1299 346.11 12.8577 345.153 12.5065 343.959C11.9357 344.468 11.5757 344.784 11.2508 345.083C10.7591 344.626 10.3552 344.248 9.94252 343.862C9.84593 343.924 9.7406 343.994 9.64401 344.055C9.7845 344.547 9.92498 345.039 10.0743 345.522C9.39814 346.408 8.97667 346.207 8.75716 345.206C8.18642 342.668 7.60687 340.139 7.03613 337.602C7.44882 337.602 7.86154 337.602 8.27423 337.593L8.34444 337.54C8.6781 338.848 9.05568 340.148 9.34544 341.456C9.64399 342.8 10.4694 342.993 11.6109 342.615C12.0762 342.58 12.5416 342.589 12.9982 342.51C13.5426 342.413 14.0694 342.246 14.6138 342.106C14.5172 342.65 14.4382 343.204 14.3153 343.739C14.2451 344.038 14.1045 344.327 13.9904 344.617C14.1045 344.679 14.2187 344.74 14.3328 344.802C14.6928 344.363 15.0529 343.924 15.4392 343.449C15.7377 343.739 15.9748 343.967 16.2119 344.196L16.2207 344.205Z" fill="#4B4B4B"/>
<path d="M12.8927 307.589C12.6644 307.914 12.4273 308.23 12.0673 308.739C11.9795 308.142 11.9093 307.712 11.8478 307.299C11.1454 307.563 10.5746 307.773 9.99512 307.993C10.1532 306.606 10.3112 305.21 10.478 303.822C10.5834 303.699 10.6976 303.576 10.803 303.445C11.4088 303.251 12.0059 303.058 13.1122 302.707C12.2078 304.015 11.6196 304.867 10.6888 306.211C11.9357 305.561 12.5854 305.218 13.3669 304.806C13.165 305.991 13.0244 306.79 12.8927 307.589Z" fill="#484848"/>
<path d="M49.9736 150.68C49.9736 149.96 49.956 149.248 49.9473 148.528C50.1404 147.527 50.2809 146.518 50.5531 145.534C50.9395 144.12 51.0712 142.426 53.2137 142.566C53.3805 142.856 53.5474 143.146 53.7142 143.436C51.6244 144.7 51.9054 147.159 50.9395 148.985C50.6322 149.556 50.2985 150.118 49.9736 150.68Z" fill="#454545"/>
<path d="M10.066 345.53C9.92549 345.038 9.78501 344.547 9.63574 344.064C9.73233 344.002 9.83767 343.932 9.93425 343.871C10.3469 344.248 10.7509 344.635 11.2426 345.091C11.5763 344.801 11.9363 344.476 12.4982 343.967C12.8495 345.161 13.1216 346.11 13.4026 347.067C12.8319 347.102 12.1997 345.996 11.6641 347.313C11.4797 347.769 10.5313 347.918 9.82889 348.261C9.92548 347.119 9.99574 346.329 10.066 345.539V345.53Z" fill="#B9B9B9"/>
<path d="M8.26521 337.602C7.85252 337.602 7.4398 337.602 7.02711 337.61C6.6232 336.214 6.21055 334.818 5.80664 333.413C6.20177 333.308 6.59687 333.203 6.98322 333.088C7.40469 333.22 7.82617 333.361 8.42325 333.545C7.91398 334.081 7.57154 334.449 7.22031 334.818C7.4047 334.827 7.59789 334.845 7.78228 334.853C7.94034 335.766 8.09838 336.68 8.26521 337.593V337.602Z" fill="#787878"/>
<path d="M53.3629 106.706C51.6683 105.775 50.3775 105.064 48.9375 104.274C50.3073 103.501 52.5288 104.678 53.3629 106.706Z" fill="#343434"/>
<path d="M26.6345 270.087C27.0823 270.526 27.7321 270.886 27.9252 271.413C28.3379 272.563 28.8999 273.863 28.7155 274.987C28.3467 277.182 27.495 279.289 26.8452 281.432C26.7662 281.695 26.652 281.959 26.6257 282.231C26.3359 284.514 26.2744 284.558 24.1407 283.566C25.8003 282.354 25.4403 281.414 22.7095 280.282C22.9817 280.843 23.4647 281.265 23.7369 281.792C23.9037 282.117 23.7632 282.608 23.7632 283.021C23.131 282.802 22.4988 282.582 21.1992 282.125C21.4363 283.469 21.3485 284.654 21.8842 285.401C22.1739 285.805 23.4998 285.471 24.6061 285.471C24.6676 285.769 24.7993 286.481 24.9837 287.411C24.1847 287.324 23.5437 287.253 22.9203 287.183C22.6393 288.035 22.3583 288.869 22.0773 289.703C20.6812 289.975 19.2763 290.256 17.8802 290.529C17.0636 289.431 15.1845 288.448 17.5026 287.139C16.9143 285.848 16.3699 284.663 15.8255 283.469C16.7211 283.469 17.6255 283.469 18.5212 283.469C18.5738 283.32 18.6265 283.179 18.6792 283.03C17.8802 282.608 17.0811 282.196 16.2733 281.774C15.4655 278.604 15.7377 275.575 17.0197 272.634C17.1689 271.922 17.3182 271.22 17.4587 270.509C17.8889 270.93 18.328 271.343 18.7583 271.764C18.1612 273.398 17.1865 274.996 18.1611 276.98C18.5826 275.672 19.0392 274.636 19.2236 273.547C19.3202 273.002 18.9163 272.37 18.7407 271.773C19.0392 270.588 19.2675 269.385 19.6714 268.235C19.8383 267.752 20.3651 267.392 20.7339 266.979C20.9007 267.409 21.2256 267.848 21.208 268.27C21.1378 269.92 22.0949 269.947 23.3681 269.991C25.3437 270.043 24.8169 268.366 25.4315 266.847C25.9584 268.261 26.3008 269.174 26.6433 270.087H26.6345ZM22.6041 275.531C22.6568 275.285 22.7095 275.04 22.7622 274.785C22.0598 274.557 21.1817 273.959 20.69 274.197C20.0665 274.495 19.7592 275.452 19.3114 276.128C19.5836 276.462 19.8646 276.787 20.1368 277.121C20.1543 274.583 21.4802 275.294 22.6041 275.531Z" fill="#333333"/>
<path d="M28.312 241.805C29.0145 242.305 29.717 242.806 30.6653 243.473C30.4282 243.745 30.077 244.158 29.717 244.571C28.4701 243.166 26.3364 246.353 25.274 243.614C25.7569 243.517 26.2135 243.429 26.6788 243.342C26.6788 243.183 26.6964 243.034 26.7052 242.876C25.7657 242.727 24.8173 242.578 23.7637 242.411C25.8271 240.716 25.8447 238.714 24.6242 236.036C24.0271 234.728 24.0974 232.972 24.2905 231.479C24.5803 229.257 25.2388 227.089 25.7393 224.902C25.9588 223.928 26.073 222.918 26.3891 221.978C26.6086 221.32 27.1003 220.749 27.4691 220.134C27.6184 220.275 27.7677 220.424 27.9169 220.565C27.9169 220.933 27.9082 221.311 27.8994 221.68C28.1628 221.566 28.4262 221.451 28.6809 221.337C28.716 221.513 28.7423 221.688 28.7774 221.873C29.594 222.496 30.4019 222.988 31.157 221.785C31.5609 221.864 32.0438 221.82 32.3512 222.04C34.3356 223.436 35.2488 222.435 35.8195 220.565C36.522 220.96 37.2244 221.355 37.9181 221.75C37.602 222.347 37.2946 222.953 36.8732 223.752C37.0751 223.875 37.6459 224.217 38.2078 224.56C37.8215 225.438 37.4351 226.325 37.0488 227.203C36.5834 226.272 36.1093 225.341 35.6439 224.41C34.7395 224.542 33.6331 224.7 32.1316 224.911C32.7199 225.596 33.2204 226.079 33.598 226.641C33.9668 227.194 34.2127 227.826 34.5112 228.432C34.0371 228.783 33.44 229.055 33.1239 229.521C32.6321 230.25 32.3336 231.101 32.1755 231.426C32.2897 232.77 32.3775 233.735 32.4565 234.71C31.0516 234.412 29.6379 234.104 28.233 233.806C27.9257 232.295 27.873 232.287 24.8964 233.428C26.1696 234.192 27.2671 234.851 28.3735 235.509C28.7686 236.071 29.1638 236.633 29.5589 237.195C29.3218 237.722 29.076 238.249 28.8389 238.776C28.6457 239.197 28.5579 239.794 28.2243 240.014C26.8193 240.953 26.7842 240.909 28.312 241.77V241.805ZM31.9472 225.332C31.7541 225.332 31.5609 225.332 31.3765 225.332C30.8321 226.07 30.2877 226.799 29.5413 227.8C30.0067 227.923 30.9638 228.248 31.0077 228.16C31.4028 227.255 31.6575 226.281 31.956 225.332H31.9472Z" fill="#424242"/>
<path d="M17.8542 290.529C19.2503 290.256 20.6553 289.975 22.0514 289.703C22.4641 290.801 22.8767 291.898 23.2894 292.996C22.7011 292.566 22.1216 292.135 21.5772 291.723C20.146 292.46 19.9616 293.426 20.8221 294.638C18.1791 296.447 18.0299 296.763 19.1977 298.203C19.4172 297.658 19.5226 297.079 19.8474 296.701C20.1811 296.315 20.7079 296.034 21.1996 295.911C21.3577 295.867 21.9197 296.526 21.867 296.763C21.7704 297.211 21.4192 297.667 21.0592 297.983C20.5148 298.466 19.865 298.844 19.2504 299.283C19.707 299.775 20.0318 300.117 20.3567 300.468C20.2864 301.329 20.2074 302.189 20.1108 303.392H18.7323C18.2845 302.848 17.8454 302.303 17.3976 301.759C17.2922 301.856 17.1781 301.961 17.0727 302.057C17.301 302.505 17.5294 302.944 17.7664 303.401C17.1254 303.541 16.6337 303.656 16.1332 303.761C16.4756 304.191 16.7479 304.815 17.1957 304.99C17.6259 305.157 18.5918 306.334 18.7411 304.674C20.0494 304.63 21.6475 304.92 21.8319 303.032C21.9109 302.216 21.3665 301.346 21.1031 300.503C21.7967 301.136 22.4816 301.776 23.3245 302.54C23.2718 302.584 23.5178 302.382 23.7548 302.18C23.1929 305.104 22.6309 308.02 22.0689 310.943C20.4181 311.04 18.7586 311.128 17.1079 311.224C17.3186 310.478 17.5206 309.732 17.5996 309.451C16.9235 308.836 16.0893 308.45 16.0103 307.94C15.6854 305.939 15.6064 303.901 15.4044 301.566C14.9478 302.137 14.5176 302.655 13.9205 303.401C13.7712 302.338 13.7361 301.452 13.499 300.626C13.2795 299.854 12.8405 299.151 12.498 298.422C12.7615 298.176 13.0249 297.939 13.2883 297.694C13.7624 297.86 14.5878 297.948 14.6405 298.203C15.0444 300.099 16.3615 299.625 17.3976 299.643C16.8181 298.528 16.2737 297.474 15.7293 296.42C15.4132 296.534 15.0005 296.675 14.5878 296.824C14.8249 296.192 15.062 295.56 15.2903 294.936C13.5927 294.234 13.0687 292.888 13.7185 290.897C14.14 291.187 14.5702 291.477 14.9917 291.767C15.7469 291.705 16.5195 291.731 17.2396 291.53C17.5205 291.45 17.6611 290.871 17.8718 290.529H17.8542Z" fill="#515151"/>
<path d="M37.9265 221.758C37.224 221.363 36.5216 220.968 35.8279 220.573C34.8533 219.607 33.9313 218.571 32.8601 217.71C32.5176 217.429 31.78 217.64 31.2268 217.623C30.7 217.219 30.1644 216.815 29.6375 216.42C28.9175 215.164 28.2063 213.917 27.4863 212.662C27.8815 211.652 28.2766 210.642 28.6805 209.632C29.1283 210.089 29.5761 210.554 30.0239 211.011C29.4619 211.257 28.8912 211.511 28.3292 211.757C28.54 212.012 28.7419 212.275 28.9527 212.53C29.7517 212.662 30.5419 212.899 31.341 212.907C32.8425 212.934 33.6854 211.099 32.8864 209.685C32.6142 209.281 32.342 208.877 32.061 208.482C32.6054 208.482 33.1498 208.482 33.6942 208.491C34.502 210.642 35.4767 212.477 38.3567 211.748C38.8309 211.625 39.4631 212.108 40.0163 212.31C38.866 214.005 38.8309 215.796 39.5509 217.649C37.2592 219.01 36.706 220.424 37.9353 221.749L37.9265 221.758ZM37.1274 214.163C34.6806 213.853 33.3166 214.312 33.0356 215.542C36.223 212.512 35.143 217.763 36.9518 217.587C37.0133 216.411 37.0748 215.287 37.1274 214.163Z" fill="#5D5D5D"/>
<path d="M37.0752 160.163C37.7513 156.027 38.3747 151.874 39.1298 147.756C39.5337 145.578 40.166 143.444 40.7016 141.293L42.0977 144.375C42.0977 145.376 41.7904 146.579 43.3885 146.641C43.6343 146.649 43.8977 146.316 44.4773 145.929C43.6782 145.622 43.1075 145.402 42.5367 145.183C42.6948 144.955 42.8616 144.726 43.0196 144.489C43.6255 144.366 44.3543 143.98 44.8197 144.182C46.3651 144.867 45.8031 143.655 45.9436 143.076C46.4617 142.356 46.9797 141.644 47.489 140.933C47.568 140.951 47.6471 140.959 47.7261 140.959C47.5681 142.944 46.6724 145.007 48.5427 146.842C47.1466 147.703 47.0588 150.583 44.4597 148.941C44.407 148.906 43.9943 149.459 43.7485 149.74C42.7562 149.626 41.7728 149.521 40.6752 149.398C39.1298 151.013 39.7445 152.48 41.2108 153.867C41.0001 154.42 40.8596 155.008 40.5699 155.518C39.8499 156.826 39.1035 158.126 38.2781 159.364C38.0323 159.732 37.4791 159.89 37.0752 160.145V160.163Z" fill="#D2D2D2"/>
<path d="M32.8943 192.238C32.5431 189.903 30.9187 187.567 33.0436 185.24C33.5704 184.669 33.79 183.818 34.15 183.089C36.872 183.062 37.7061 184.38 36.8193 187.014C36.5997 187.681 36.9686 188.55 37.0651 189.323C36.6612 190.245 36.2573 191.167 35.6866 192.466C35.7129 192.51 36.0027 193.037 36.2837 193.564C35.9939 193.942 35.6953 194.31 35.3968 194.697C35.7305 194.943 36.0642 195.188 36.9247 195.829C35.309 195.908 34.2993 195.961 33.2983 196.005C33.5793 195.68 33.8602 195.364 34.1939 194.978C32.9997 194.881 31.946 194.802 30.8923 194.714C30.6026 193.09 31.4982 192.642 32.8943 192.686C33.2719 192.914 33.6495 193.151 34.027 193.38L34.3695 192.528C33.8778 192.431 33.3861 192.335 32.8943 192.238Z" fill="#9E9E9E"/>
<path d="M12.4798 298.422C12.8222 299.159 13.2612 299.862 13.4808 300.626C13.7178 301.451 13.7529 302.338 13.9022 303.4C14.4993 302.663 14.9208 302.136 15.3861 301.565C15.5881 303.901 15.6671 305.938 15.992 307.94C16.071 308.449 16.9052 308.836 17.5813 309.45C17.5023 309.731 17.3003 310.478 17.0896 311.224C17.0808 311.523 17.0633 311.821 17.0545 312.12C16.9052 312.401 16.7559 312.682 16.6155 312.963C15.3774 312.357 14.0339 311.891 12.9891 311.048C12.6905 310.811 13.27 309.477 13.5247 308.318C13.5159 308.3 13.2085 307.94 12.9012 307.58C13.0417 306.781 13.1734 305.982 13.3754 304.797C12.5851 305.209 11.9353 305.552 10.6973 306.202C11.628 304.858 12.2163 304.006 13.1207 302.698C12.0144 303.049 11.4085 303.242 10.8114 303.436C11.1187 302.997 11.3734 302.505 11.751 302.127C12.629 301.232 13.2525 300.354 12.1637 299.177C12.0846 299.098 12.3744 298.677 12.4973 298.413L12.4798 298.422Z" fill="#8A8A8A"/>
<path d="M42.4313 200.949C41.9834 203.39 41.641 205.866 41.0088 208.263C40.8508 208.869 39.762 209.229 39.1034 209.703C38.6907 209.106 38.3483 208.43 37.8478 207.912C36.9258 206.946 35.9073 206.076 34.9238 205.163C35.3629 204.197 36.039 203.609 37.0136 204.373C38.4273 205.479 39.0858 204.821 39.5863 203.486C39.9727 202.353 40.3678 201.221 40.7542 200.088C40.4995 199.658 40.2449 199.236 39.9991 198.806C40.9035 196.971 38.6995 196.751 38.3131 195.584C39.0068 195.443 39.7005 195.294 40.3941 195.153C41 195.584 41.5971 196.023 42.1152 196.391C42.1152 197.375 42.0801 198.27 42.1327 199.157C42.1679 199.754 42.3347 200.351 42.4401 200.949H42.4313Z" fill="#5B5B5B"/>
<path d="M19.5918 325.475C19.1528 328.074 18.8279 330.691 18.2396 333.255C17.9587 334.476 17.1947 335.582 16.6503 336.741C15.8952 335.933 15.1401 335.231 15.7811 333.878C16.4045 332.561 16.703 331.086 17.1421 329.681C16.9752 329.629 16.7996 329.576 16.6328 329.514C16.185 330.796 15.7372 332.078 15.1928 333.633C14.3323 333.071 13.621 332.605 12.9186 332.149C12.7781 331.876 12.6463 331.604 12.5059 331.332C12.5146 330.946 12.5322 330.568 12.541 330.182C13.0415 330.287 13.542 330.393 13.4981 330.384C14.4464 329.55 15.3157 329.093 15.6757 328.373C16.0445 327.644 15.904 326.661 15.9391 326.301C16.9752 325.783 17.6601 325.44 18.3538 325.098C19.0211 324.422 19.5567 324.158 19.6006 325.484L19.5918 325.475Z" fill="#404040"/>
<path d="M18.7408 271.773C18.3106 271.351 17.8803 270.939 17.4413 270.517C17.8013 270.192 16.1944 269.174 17.8891 269.253C18.0471 269.253 18.3369 268.506 18.3984 268.076C18.6793 266.232 18.8989 264.38 19.1448 262.527C19.575 262.825 20.014 263.133 20.4443 263.431C20.1721 265.89 21.8667 266.417 23.7282 266.777C24.0268 266.487 24.3253 266.206 24.6151 265.916C24.7292 265.916 24.8434 265.934 24.9575 265.943C27.0561 267.04 27.4249 267.962 26.6258 270.078C26.2834 269.165 25.9409 268.252 25.4141 266.838C24.7907 268.357 25.3263 270.043 23.3507 269.982C22.0687 269.946 21.1116 269.911 21.1906 268.261C21.2082 267.839 20.8833 267.4 20.7165 266.97C20.3477 267.383 19.8208 267.743 19.654 268.225C19.2501 269.376 19.0218 270.579 18.7232 271.764H18.7408V271.773Z" fill="#515151"/>
<path d="M39.5866 203.486C39.0861 204.821 38.4275 205.479 37.0139 204.373C36.0392 203.609 35.3543 204.197 34.9241 205.163C33.9319 205.321 32.9484 205.471 31.9562 205.629C31.5172 204.751 31.0782 203.872 30.5513 202.81C30.1738 203.53 29.8664 204.092 29.5679 204.663C28.9094 202.617 30.2176 201.063 30.8937 199.35C31.5698 198.955 32.2459 198.56 32.9221 198.165C32.9133 198.56 32.9045 198.964 32.8957 199.359C32.5182 200.053 31.6664 201.168 31.8421 201.361C32.6235 202.213 33.686 202.801 34.9943 203.732C34.8012 202.845 34.7133 202.441 34.4762 201.352C35.8548 202.274 36.7329 202.871 37.69 203.512V201.51C37.8217 201.44 37.9622 201.379 38.0939 201.309C38.5856 202.037 39.0861 202.757 39.5778 203.486H39.5866Z" fill="#A3A3A3"/>
<path d="M37.0658 189.314C36.9692 188.542 36.6004 187.672 36.8199 187.005C37.7068 184.371 36.8726 183.054 34.1506 183.08C34.1243 182.948 34.1243 182.825 34.1506 182.694C34.0013 180.384 35.9507 181.623 37.0746 181.148C36.618 180.463 36.2492 179.919 35.6784 179.059C36.3019 179.182 36.5389 179.225 36.7672 179.278C38.7692 179.77 39.2697 181.745 40.4727 183.027C39.8756 184.081 39.4717 185.346 38.6287 186.136C37.1711 187.488 37.9087 188.015 39.1556 188.665C39.2961 188.735 39.1556 189.341 39.1556 189.701C38.4619 189.569 37.7683 189.429 37.0746 189.297L37.0658 189.314Z" fill="#636363"/>
<path d="M12.9101 332.14C13.6213 332.605 14.3238 333.062 15.1843 333.624C15.7287 332.07 16.1765 330.788 16.6243 329.506C16.7911 329.559 16.9668 329.611 17.1336 329.673C16.6946 331.078 16.396 332.553 15.7726 333.87C15.1316 335.222 15.878 335.924 16.6419 336.732C18.319 338.26 16.9755 339.814 16.6858 341.36C16.2731 340.842 15.8604 340.332 15.0965 339.375C14.7452 341.377 13.9901 341.72 12.9101 340.464C13.9111 339.068 14.315 337.514 14.113 335.802C13.7004 335.266 13.2877 334.73 12.8662 334.186C12.875 333.501 12.8925 332.816 12.9013 332.131L12.9101 332.14Z" fill="#8D8D8D"/>
<path d="M14.5352 320.927C15.0357 320.128 15.5888 319.356 16.0103 318.521C16.3264 317.898 16.4493 317.178 16.7127 316.528C16.9323 315.993 17.2308 315.492 17.4942 314.983V317.38C17.6523 317.406 17.8103 317.424 17.9684 317.45C18.2318 316.809 18.4952 316.159 18.7586 315.518C19.1362 315.676 19.5137 315.834 19.6103 315.87C20.4094 315.273 21.0504 314.79 21.7001 314.307C21.5245 315.299 21.3401 316.291 21.1645 317.283C19.4874 318.24 19.4962 319.777 19.8299 321.437C18.4337 321.103 17.1342 320.796 15.8259 320.488C15.3956 320.637 14.9741 320.778 14.5439 320.927H14.5352Z" fill="#535353"/>
<path d="M40.4724 183.045C39.2695 181.763 38.769 179.787 36.767 179.295C36.5299 179.234 36.2928 179.199 35.6782 179.076C36.2577 179.936 36.6178 180.481 37.0743 181.166C35.9504 181.64 34.0011 180.393 34.1504 182.711C33.7904 182.316 33.0791 181.815 33.1494 181.534C33.3425 180.806 33.8869 180.165 34.0801 179.84C34.2557 178.101 34.4138 176.644 34.5631 175.177C35.1865 177.249 36.7934 178.075 38.7251 178.505C38.9797 178.953 39.2432 179.41 39.4978 179.857C39.9193 180.367 40.3407 180.876 40.8412 181.473C41.7807 180.937 42.7905 180.446 42.8344 182.202C42.3164 182.535 41.7983 182.869 41.289 183.203C41.0168 183.15 40.7446 183.097 40.4724 183.053V183.045Z" fill="#C5C5C5"/>
<path d="M38.7255 178.505C36.7937 178.075 35.1869 177.241 34.5635 175.177C34.8532 172.833 35.143 170.497 35.4328 168.153C36.1264 168.425 36.8201 168.697 37.5138 168.969C37.6542 169.4 37.7859 169.839 37.9264 170.278C37.663 171.331 37.4084 172.385 37.145 173.439C37.1186 173.887 37.1011 174.334 37.0747 174.782C37.9791 175.704 38.8835 176.626 39.9635 177.733C39.6562 177.926 39.1909 178.215 38.7255 178.505Z" fill="#9D9D9D"/>
<path d="M37.0748 160.162C37.4875 159.908 38.0407 159.75 38.2778 159.381C39.1031 158.143 39.8495 156.835 40.5695 155.535C40.8505 155.026 40.9997 154.437 41.2105 153.884C41.3422 153.928 41.4739 153.963 41.6056 154.007C41.7373 154.271 41.869 154.543 42.0008 154.806C41.7198 155.456 41.43 156.106 40.9822 157.124C41.3422 157.361 42.0008 157.8 42.7208 158.283C42.4837 159.012 42.1939 159.873 41.869 160.865C42.1061 160.997 42.51 161.216 42.9139 161.444L42.8788 161.4C42.3783 161.4 41.7198 161.594 41.4125 161.348C40.0339 160.259 39.3929 160.891 38.9363 162.226C38.6641 162.533 38.3919 162.832 37.9353 163.341C38.0231 162.384 38.0934 161.585 38.2163 160.294C37.5138 161.084 37.11 161.541 36.7061 161.998C36.829 161.392 36.9519 160.777 37.0748 160.171V160.162Z" fill="#2B2B2B"/>
<path d="M29.5763 204.663C29.8748 204.092 30.1822 203.53 30.5597 202.81C31.0866 203.873 31.5256 204.751 31.9646 205.629C31.9997 206.586 32.0348 207.534 32.0612 208.491C32.3334 208.895 32.6056 209.299 32.8866 209.694C31.7626 209.764 30.586 209.72 30.0329 211.02C29.5851 210.563 29.1373 210.098 28.6895 209.641C28.988 207.982 29.2865 206.322 29.5763 204.663Z" fill="#4A4A4A"/>
<path d="M20.3562 300.468C20.0313 300.117 19.7065 299.775 19.2499 299.283C19.8733 298.844 20.5143 298.475 21.0587 297.983C21.4187 297.658 21.7699 297.211 21.8665 296.763C21.9192 296.517 21.3572 295.867 21.1991 295.911C20.7074 296.034 20.1718 296.315 19.8469 296.701C19.5221 297.079 19.4255 297.658 19.1972 298.203C18.0294 296.754 18.1786 296.447 20.8216 294.638C21.2079 294.348 21.5855 294.067 21.8928 293.839C22.2879 294.348 22.5865 294.726 22.885 295.103C23.166 297.184 23.4382 299.265 23.7192 301.355C23.7192 301.636 23.7368 301.917 23.7455 302.198C23.5085 302.4 23.2626 302.602 23.3153 302.558C22.4724 301.785 21.7874 301.153 21.0938 300.521C20.8479 300.503 20.602 300.495 20.3562 300.477V300.468Z" fill="#828282"/>
<path d="M32.4558 234.728C32.3768 233.753 32.289 232.787 32.1748 231.444C32.3329 231.119 32.6314 230.259 33.1231 229.539C33.4392 229.073 34.0363 228.81 34.5105 228.45C35.652 229.495 36.7934 230.531 36.0734 232.34C36.0646 232.366 36.4422 232.541 36.6442 232.647C36.5125 233.305 36.3807 233.964 36.1349 235.193C35.608 233.999 35.3183 233.358 34.9583 232.533C34.0714 233.314 33.2636 234.025 32.4558 234.737V234.728Z" fill="#616161"/>
<path d="M32.0604 208.482C32.0253 207.525 31.9902 206.577 31.9639 205.62C32.9561 205.462 33.9395 205.312 34.9317 205.154C35.9064 206.067 36.9249 206.946 37.8557 207.903C38.3562 208.421 38.6986 209.088 39.1113 209.694C39.0235 209.834 38.9357 209.966 38.8479 210.107C37.8205 209.659 36.8196 209.149 35.7659 208.789C35.1161 208.57 34.3873 208.579 33.6936 208.491C33.1492 208.491 32.6048 208.491 32.0604 208.482Z" fill="#989898"/>
<path d="M15.8086 320.496C17.1081 320.804 18.4164 321.12 19.8126 321.445C19.4789 319.785 19.4701 318.249 21.1472 317.292C20.6292 320.022 20.1111 322.753 19.593 325.475C19.5491 324.149 19.0135 324.413 18.3462 325.089L17.8896 324.623C17.3276 324.07 16.7657 323.517 16.2037 322.964C16.072 322.138 15.9403 321.313 15.8086 320.488V320.496Z" fill="#ACACAC"/>
<path d="M36.6529 232.646C36.4509 232.541 36.0734 232.365 36.0821 232.339C36.8022 230.539 35.6606 229.494 34.5192 228.449C34.2206 227.852 33.9748 227.211 33.606 226.658C33.2284 226.096 32.728 225.613 32.1396 224.928C33.6411 224.718 34.7475 224.551 35.6519 224.428C36.1261 225.358 36.5914 226.289 37.0568 227.22L36.6529 232.638V232.646Z" fill="#969696"/>
<path d="M47.4974 140.942C46.9793 141.662 46.4613 142.373 45.952 143.093C44.1695 142.03 43.0895 143.058 42.1061 144.384L40.71 141.302C41.0173 139.528 41.3158 137.754 41.6231 135.98C42.1851 136.139 42.7558 136.297 43.3178 136.455C43.1773 136.718 43.0368 136.99 42.8963 137.254C42.6066 137.289 42.0797 137.28 42.0709 137.35C41.8778 138.597 41.7548 139.862 41.6055 141.161C42.4485 141.389 43.0983 141.644 43.7568 141.732C44.4505 141.82 45.1705 141.749 45.8642 141.749C45.7061 141.135 45.592 140.669 45.4691 140.213C46.1364 140.353 46.8125 140.485 47.4798 140.625C47.4798 140.731 47.4886 140.836 47.4974 140.942Z" fill="#DDDDDD"/>
<path d="M23.7189 301.346C23.438 299.265 23.1657 297.184 22.8848 295.095C23.7277 294.111 24.5707 293.119 25.5541 291.969C25.6068 292.548 25.8087 293.295 25.7034 293.988C25.3785 296.078 24.9746 298.168 24.518 300.231C24.4302 300.644 23.9911 300.969 23.7189 301.338V301.346Z" fill="#383838"/>
<path d="M12.9188 340.464C14.0076 341.72 14.754 341.377 15.1052 339.375C15.8691 340.333 16.2818 340.851 16.6945 341.36C16.5365 342.308 16.3784 343.257 16.2204 344.205C15.9833 343.977 15.7462 343.748 15.4477 343.458C15.0613 343.933 14.7013 344.372 14.3413 344.811C14.2272 344.749 14.113 344.688 13.9988 344.626C14.1042 344.337 14.2535 344.047 14.3237 343.748C14.4467 343.213 14.5257 342.659 14.6223 342.115C14.0867 342.256 13.551 342.422 13.0066 342.519C12.55 342.598 12.0847 342.589 11.6193 342.624C11.3822 341.773 11.154 340.912 10.8027 339.656C11.8213 340.043 12.3744 340.254 12.9188 340.464Z" fill="#C3C3C3"/>
<path d="M21.682 314.306C21.0411 314.789 20.3913 315.272 19.5923 315.869C19.4957 315.825 19.1181 315.676 18.7406 315.518C18.8635 314.043 18.7054 312.708 17.0459 312.129C17.0547 311.83 17.0722 311.532 17.081 311.233C18.7318 311.137 20.3913 311.04 22.0421 310.952C21.9192 312.076 21.7962 313.191 21.6645 314.315L21.682 314.306Z" fill="#939393"/>
<path d="M37.5136 168.961C36.82 168.689 36.1263 168.416 35.4326 168.144C35.6609 167.143 35.8804 166.133 36.1087 165.132C36.1877 165.686 36.2755 166.239 36.3546 166.792C36.7321 164.597 38.7253 164.948 40.0073 164.298C40.2532 164.342 40.5078 164.386 40.7537 164.421C40.4727 165.361 40.1917 166.3 39.9107 167.24C39.1117 167.811 38.3127 168.381 37.5136 168.952V168.961Z" fill="#5B5B5B"/>
<path d="M25.8184 252.534C25.5287 253.087 25.2652 253.597 25.0457 254.009C24.4838 253.263 23.9042 252.631 23.4915 251.902C23.2545 251.481 23.1228 250.884 23.2281 250.427C23.3072 250.093 23.8252 249.777 24.2116 249.637C24.8438 249.4 25.5287 249.312 26.4682 249.101C26.7579 250.216 27.118 251.63 27.4868 253.052C27.118 252.938 26.4857 252.745 25.8096 252.534H25.8184Z" fill="#595959"/>
<path d="M33.6855 208.491C34.3792 208.587 35.108 208.57 35.7578 208.789C36.8114 209.149 37.8124 209.659 38.8398 210.106C39.4281 210.422 40.0163 210.73 40.7715 211.134C40.5695 211.45 40.2885 211.88 40.0076 212.31C39.4544 212.108 38.8222 211.625 38.3481 211.748C35.468 212.477 34.4934 210.633 33.6855 208.491Z" fill="#B3B3B3"/>
<path d="M29.6366 216.429C30.1634 216.833 30.699 217.237 31.2259 217.632C31.2259 218.202 31.2259 218.764 31.2259 219.335C28.8726 218.72 29.3468 220.793 28.7937 221.89C28.7585 221.715 28.7322 221.539 28.697 221.355C28.4424 221.091 28.179 220.837 27.9244 220.573C27.7751 220.433 27.6258 220.283 27.4766 220.143C27.6083 218.905 27.7399 217.667 27.8716 216.429C28.46 216.429 29.0483 216.429 29.6366 216.42V216.429Z" fill="#434343"/>
<path d="M42.4308 200.948C42.3255 200.351 42.1586 199.763 42.1235 199.157C42.0708 198.27 42.1059 197.374 42.1059 196.391C41.5967 196.022 40.9908 195.592 40.3849 195.153C40.4113 194.626 38.5322 194.178 40.3147 193.572C41.5879 194.582 42.6064 193.66 43.6777 193.125C43.2562 195.732 42.8435 198.34 42.422 200.948H42.4308Z" fill="#B6B6B6"/>
<path d="M32.3064 242.322C33.5357 241.523 34.2205 240.663 32.5434 239.548C32.2537 239.355 32.201 238.626 32.2361 238.16C32.2976 237.379 32.5171 236.606 32.7542 235.412C34.5894 238.547 35.0986 241.348 33.0352 244.298C32.8156 243.719 32.5786 243.06 32.2976 242.322H32.3064Z" fill="#595959"/>
<path d="M39.9982 164.298C38.7162 164.948 36.723 164.596 36.3454 166.792C36.2664 166.238 36.1786 165.685 36.0996 165.132C36.3016 164.087 36.5035 163.042 36.7055 161.997C37.1094 161.541 37.5133 161.084 38.2157 160.294C38.0928 161.585 38.0225 162.393 37.9347 163.341C38.3913 162.832 38.6635 162.524 38.9357 162.226C39.287 162.919 39.647 163.613 39.9982 164.307V164.298Z" fill="#B8B8B8"/>
<path d="M20.3477 260.56C20.7779 258.953 21.1993 257.338 21.6208 255.766C21.9106 256.785 21.9545 258.102 22.613 258.892C23.333 259.744 24.6326 260.104 25.6775 260.683L25.4755 261.149C24.896 260.964 24.3077 260.789 23.7282 260.604C23.4472 260.683 22.9555 260.718 22.9204 260.859C22.815 261.28 22.894 261.754 22.9028 262.202C22.0511 261.649 21.1993 261.105 20.3564 260.552L20.3477 260.56Z" fill="#636363"/>
<path d="M24.9656 265.952C24.8514 265.943 24.7373 265.934 24.6232 265.925C24.3246 264.547 24.0261 263.168 23.7363 261.79C25.3959 262.597 27.0993 263.335 28.6886 264.266C29.2594 264.599 29.5403 265.407 29.7335 266.206C28.3286 265.442 26.9325 264.67 25.3959 263.827C25.2554 264.555 25.1149 265.249 24.9832 265.943L24.9656 265.952Z" fill="#636363"/>
<path d="M45.0384 178.048L46.2149 179.339C45.9164 180.445 45.6179 181.561 45.3193 182.667C45.0559 182.632 44.7837 182.597 44.5203 182.562C44.3973 182.316 44.2656 182.07 44.1427 181.833C43.853 180.744 43.5632 179.655 43.2646 178.54C43.7915 178.391 44.4149 178.224 45.0471 178.048H45.0384Z" fill="#5B5B5B"/>
<path d="M14.57 296.824C14.9827 296.675 15.3954 296.534 15.7115 296.42C16.2559 297.474 16.8003 298.528 17.3798 299.643C16.3437 299.625 15.0266 300.099 14.6227 298.203C14.57 297.948 13.7359 297.86 13.2705 297.693C12.9983 297.202 12.7173 296.701 12.208 295.788C13.3056 296.262 13.9378 296.543 14.57 296.815V296.824Z" fill="#A5A5A5"/>
<path d="M43.6865 193.125C42.6152 193.66 41.5967 194.582 40.3235 193.573C40.0689 192.721 39.8142 191.869 39.5684 191.018C39.8493 190.868 40.1216 190.728 40.4025 190.578L40.385 190.57C40.7625 191.395 41.1401 192.229 41.5265 193.055C41.7899 192.993 42.0533 192.923 42.3167 192.861C42.4748 192.256 42.6328 191.658 42.7909 191.053C43.1509 190.842 43.5109 190.64 43.8709 190.429C43.8094 191.334 43.748 192.229 43.6953 193.134L43.6865 193.125Z" fill="#545454"/>
<path d="M24.228 244.913C25.8173 245.87 27.2398 246.731 28.6622 247.582C25.8085 248.197 23.7188 246.775 24.228 244.913Z" fill="#5E5E5E"/>
<path d="M32.9297 198.156C32.2536 198.551 31.5775 198.947 30.9014 199.342C30.9014 197.796 30.9014 196.251 30.9014 194.706C31.955 194.793 32.9999 194.872 34.2029 194.969C33.8605 195.355 33.5795 195.68 33.3073 195.996L33.3248 195.979C32.7717 196.233 32.2272 196.488 31.4458 196.848C32.1394 197.454 32.5434 197.796 32.9385 198.148L32.9297 198.156Z" fill="#6B6B6B"/>
<path d="M44.5212 182.562C44.7847 182.597 45.0569 182.632 45.3203 182.667C45.2764 184.695 45.7154 186.829 44.1701 188.567C44.0208 188.524 43.8627 188.471 43.7134 188.427C43.5642 187.707 43.4061 186.987 43.2568 186.267C43.6783 185.029 44.0998 183.8 44.5212 182.562Z" fill="#ACACAC"/>
<path d="M37.9267 221.759C36.6887 220.433 37.2506 219.01 39.5424 217.658C39.1034 219.968 38.6555 222.268 38.2165 224.577C37.6545 224.235 37.0838 223.892 36.8818 223.77C37.3033 222.97 37.6106 222.365 37.9267 221.768V221.759Z" fill="#8F8F8F"/>
<path d="M46.1978 111.886C46.7422 111.439 47.2778 110.991 47.8925 110.481V115.328C46.8476 114.433 46.2856 113.959 45.7236 113.476C45.8817 112.94 46.0398 112.413 46.1978 111.878V111.886Z" fill="#C1C1C1"/>
<path d="M20.3475 260.56C21.1992 261.113 22.0509 261.658 22.8938 262.211L22.885 262.184C22.3055 262.606 21.7348 263.019 21.1553 263.44C20.9182 263.44 20.6811 263.44 20.444 263.44C20.0138 263.142 19.5748 262.834 19.1445 262.536C19.5484 261.877 19.9523 261.219 20.3475 260.56Z" fill="#2B2B2B"/>
<path d="M22.8937 295.103C22.5951 294.725 22.2966 294.339 21.9014 293.838C21.5941 294.067 21.2078 294.356 20.8302 294.637C19.9785 293.426 20.1629 292.46 21.5854 291.722C22.1298 292.126 22.7181 292.556 23.2976 292.995C23.1659 293.698 23.0254 294.4 22.8937 295.103Z" fill="#383838"/>
<path d="M28.3726 235.526C27.275 234.868 26.1687 234.209 24.8955 233.445C27.8634 232.295 27.9248 232.313 28.2321 233.823C28.276 234.394 28.3287 234.964 28.3726 235.526Z" fill="#767676"/>
<path d="M14.9821 291.767C14.5607 291.477 14.1305 291.187 13.709 290.897C13.8056 289.932 13.8933 288.966 13.9987 287.868C15.9304 289.141 16.0358 289.651 14.9821 291.767Z" fill="#333333"/>
<path d="M23.7279 261.789C24.0264 263.168 24.3162 264.547 24.6147 265.925C24.3162 266.215 24.0264 266.496 23.7279 266.786V266.803C23.4469 265.267 23.1659 263.73 22.8849 262.193L22.8937 262.22C22.8937 261.772 22.8147 261.298 22.9113 260.876C22.9464 260.736 23.4381 260.701 23.7191 260.622C23.7191 261.017 23.7191 261.412 23.7191 261.798L23.7279 261.789Z" fill="#313131"/>
<path d="M29.6375 216.429C29.0492 216.429 28.4609 216.429 27.8726 216.437C27.7409 215.182 27.618 213.926 27.4863 212.67C28.2063 213.926 28.9175 215.173 29.6375 216.429Z" fill="#989898"/>
<path d="M43.7127 188.427C43.8619 188.471 44.02 188.524 44.1693 188.568C44.0639 189.182 43.9673 189.806 43.8619 190.42C43.5019 190.631 43.1419 190.833 42.7907 191.044C41.9917 190.886 41.1838 190.719 40.3848 190.561L40.4023 190.57C40.6306 190.201 40.7799 189.665 41.1136 189.481C41.9302 189.042 42.8346 188.761 43.7127 188.418V188.427Z" fill="#4A4A4A"/>
<path d="M28.3121 241.805C26.7843 240.944 26.8107 240.988 28.2243 240.049C28.558 239.829 28.637 239.232 28.839 238.811C29.0848 238.284 29.3219 237.757 29.559 237.23C29.1463 238.758 28.7336 240.286 28.3121 241.813V241.805Z" fill="#5D5D5D"/>
<path d="M25.0977 255.582C27.1172 257.32 27.1084 257.584 25.0977 259.208V255.582Z" fill="#5E5E5E"/>
<path d="M23.7461 283.021C23.7461 282.608 23.8865 282.116 23.7197 281.792C23.4475 281.265 22.9734 280.843 22.6924 280.281C25.4232 281.414 25.7832 282.353 24.1236 283.565C24.0007 283.381 23.869 283.205 23.7461 283.021Z" fill="#676767"/>
<path d="M16.2561 281.783C17.0551 282.204 17.8541 282.617 18.662 283.038C18.6093 283.188 18.5566 283.328 18.5039 283.477C17.6083 283.477 16.7039 283.477 15.8083 283.477C15.5361 283.627 15.2551 283.776 14.4297 284.232C15.2814 283.091 15.7731 282.432 16.2649 281.783H16.2561Z" fill="#636363"/>
<path d="M32.8955 192.238C33.3872 192.334 33.8789 192.431 34.3706 192.528L34.0282 193.379C33.6506 193.151 33.2731 192.914 32.8955 192.686C32.8955 192.536 32.8955 192.387 32.8955 192.238Z" fill="#6D6D6D"/>
<path d="M53.2129 142.557C51.0704 142.425 50.9387 144.12 50.5523 145.525C50.2801 146.508 50.1484 147.518 49.9465 148.519C49.8148 148.519 49.683 148.519 49.5513 148.51C49.3055 147.132 48.9718 145.771 48.8489 144.383C48.7699 143.54 49.007 142.671 49.0948 141.811C49.2879 141.872 49.4899 141.934 49.6831 142.004C49.6918 140.485 50.3153 139.528 51.9573 139.422C51.9924 139.422 51.9748 138.544 51.9836 138.07C52.1592 137.666 52.3348 137.254 52.5017 136.85L53.6694 138.096L53.1953 142.566L53.2129 142.557Z" fill="#D2D2D2"/>
<path d="M50.3594 122.774C49.2267 123.24 48.4628 123.556 47.3389 124.012C48.1116 124.434 48.4804 124.636 48.8053 124.812C48.1116 125.558 47.4794 126.243 46.5838 127.209C46.5223 126.278 46.4784 125.663 46.4169 124.785C45.776 125.242 45.2491 125.628 44.3008 126.304C44.4501 124.864 44.5555 123.828 44.6081 123.31C45.8286 122.827 46.6891 122.485 47.5584 122.151C47.5233 122.019 47.4882 121.888 47.4531 121.756C48.3223 122.054 49.1828 122.362 50.3507 122.766L50.3594 122.774Z" fill="#C9C9C9"/>
<path d="M42.8877 137.254C43.0282 136.99 43.1687 136.718 43.3091 136.455C43.9501 135.137 44.5999 134.172 45.8643 136.007C46.1717 136.455 46.9268 136.586 47.4712 136.867C47.6995 137.684 47.9278 138.5 47.9892 138.746C47.7346 139.677 47.6117 140.16 47.48 140.634C46.8126 140.494 46.1365 140.362 45.4692 140.221C45.1092 139.545 44.837 138.799 44.3628 138.219C44.0116 137.789 43.3882 137.57 42.8877 137.262V137.254Z" fill="#CFCFCF"/>
<path d="M47.4708 136.859C47.0493 135.445 46.6454 134.031 46.2152 132.618C46.022 132.003 45.7849 131.397 45.5654 130.791C45.7498 130.721 45.943 130.651 46.1274 130.581C47.0582 132.381 47.9977 134.181 49.1567 136.411C49.8416 134.506 50.7987 134.435 51.9402 135.173C51.7733 135.787 51.589 136.393 51.4573 137.017C51.3431 137.535 51.2904 138.062 51.2114 138.589C50.2806 137.333 48.8669 137.122 47.4796 136.868L47.4708 136.859Z" fill="#CFCFCF"/>
<path d="M55.5229 123.591C54.8292 125.101 54.1443 126.612 53.4067 128.218C52.2477 128.06 51.8086 127.437 52.5286 126.489C53.3365 125.417 54.2321 124.416 55.0838 123.38C55.2331 123.451 55.3736 123.521 55.5229 123.6V123.591Z" fill="#B8B8B8"/>
<path d="M44.8804 133.364C43.4843 132.02 43.1769 130.308 43.3262 128.447C43.5457 128.376 43.774 128.297 43.9936 128.227C44.4501 129.851 44.8979 131.476 45.3545 133.092C45.1965 133.179 45.0385 133.267 44.8804 133.364Z" fill="#B3B3B3"/>
<path d="M51.2031 138.58C51.2822 138.053 51.3349 137.526 51.449 137.008C51.5807 136.384 51.7651 135.779 51.9319 135.164C52.0549 134.321 52.1778 133.469 52.3183 132.477C54.1886 134.014 52.5466 135.445 52.5115 136.841C52.3359 137.245 52.1602 137.658 51.9934 138.062C51.73 138.228 51.4665 138.404 51.2031 138.571V138.58Z" fill="#8E8E8E"/>
<path d="M52.1253 114.345C52.7224 115.205 53.3458 116.057 53.899 116.944C54.0044 117.111 53.9253 117.523 53.7848 117.673C53.6444 117.813 53.1263 117.848 53.0736 117.76C52.5029 116.759 51.9848 115.732 51.4492 114.705L52.1166 114.345H52.1253Z" fill="#BABABA"/>
<path d="M7.08937 331.771C8.56452 331.912 10.1362 331.332 11.5236 332.333C11.5763 332.368 12.1646 331.666 12.507 331.314C12.6475 331.587 12.7792 331.859 12.9197 332.131C12.9109 332.816 12.8934 333.501 12.8846 334.186C12.5685 334.704 12.2612 335.222 11.8046 335.986C11.6114 335.45 11.5236 335.152 11.3919 334.879C11.146 334.379 10.9529 333.808 10.5753 333.448C10.4436 333.325 9.50406 333.685 9.46894 333.914C9.38113 334.44 9.46896 335.125 9.75872 335.564C10.3119 336.407 11.0582 337.127 11.7256 337.9C11.5412 338.883 11.2251 339.235 10.2943 338.409C9.78505 337.961 9.01234 337.821 8.36257 337.54L8.29231 337.593C8.13426 336.679 7.97622 335.766 7.80939 334.853C7.62499 334.844 7.43181 334.827 7.24741 334.818C7.58986 334.449 7.94108 334.08 8.45036 333.545C7.85327 333.352 7.43184 333.22 7.01037 333.088C6.88744 332.93 6.75574 332.763 6.63281 332.605C6.79086 332.324 6.9489 332.052 7.11574 331.771H7.08937Z" fill="#BCBCBC"/>
<path d="M7.08898 331.771C6.93093 332.052 6.77289 332.324 6.60606 332.605C4.50748 332.052 3.31334 330.612 3.17285 328.294C4.12994 329.075 4.99922 329.787 5.85972 330.489C6.26363 330.919 6.67628 331.341 7.08019 331.771H7.08898Z" fill="#ECECEC"/>
<path d="M49.0954 141.819C48.9988 142.68 48.7705 143.549 48.8495 144.392C48.9812 145.78 49.3061 147.141 49.5519 148.519C48.1383 151.18 45.9607 153.12 43.5196 154.788C43.1684 155.026 42.5187 154.815 42.0006 154.815C41.8689 154.551 41.7372 154.279 41.6055 154.016C42.7294 152.593 45.4251 152.936 45.75 150.31C45.0299 150.117 44.3889 149.933 43.7392 149.757C43.985 149.476 44.4065 148.923 44.4504 148.958C47.0582 150.6 47.1461 147.729 48.5334 146.86C46.6719 145.024 47.5675 142.961 47.7256 140.977C48.1822 141.258 48.6388 141.539 49.0866 141.828L49.0954 141.819Z" fill="#ACACAC"/>
<path d="M47.0499 162.691C46.7075 163.095 46.3739 163.508 46.0314 163.912C44.7231 164.07 43.4235 164.237 42.1152 164.395C43.3006 163.639 45.1445 163.042 42.8791 161.4L42.9142 161.444C42.8089 160.162 43.0196 159.249 44.5826 158.872C46.128 158.494 46.0665 157.458 44.6177 156.352C46.488 156.914 47.5505 158.678 47.2958 160.241C47.1641 161.049 47.1202 161.875 47.0412 162.691H47.0499Z" fill="#292929"/>
<path d="M11.2072 324.589C10.9262 323.087 10.654 321.594 10.373 320.093C10.8033 319.794 11.2248 319.505 11.655 319.206C11.7955 320.567 11.936 321.937 12.0765 323.298C12.3575 324 12.6385 324.703 12.9195 325.405C12.3487 325.133 11.778 324.861 11.2072 324.589Z" fill="#BABABA"/>
<path d="M12.0758 323.298C11.9353 321.937 11.7948 320.576 11.6543 319.206C11.6543 318.942 11.6543 318.679 11.6543 318.407C12.6992 317.713 12.9977 318.205 13.1382 319.241C13.2173 319.82 13.5597 320.365 13.7792 320.927C12.2162 321.12 13.1119 322.261 12.9714 323.008C12.6816 323.104 12.3831 323.201 12.0933 323.289L12.0758 323.298Z" fill="#606060"/>
<path d="M44.96 173.096C45.9083 174.729 45.2673 175.756 43.6867 176.415C42.8614 176.968 42.0272 177.53 41.2019 178.083C41.0702 177.521 40.9384 176.968 40.8067 176.406V173.149C40.7014 173.131 40.5872 173.105 40.4818 173.087C40.1482 173.684 39.8233 174.281 39.2701 175.274C38.673 174.518 38.2603 173.974 37.8389 173.438C38.2516 172.481 38.6642 171.524 39.0681 170.567C39.2437 170.567 39.4194 170.585 39.595 170.593C39.6916 170.953 39.7969 171.305 39.9199 171.744C40.6487 170.471 41.2896 169.355 41.9306 168.24C41.4828 170.971 42.3784 172.56 44.96 173.087V173.096Z" fill="#9D9D9D"/>
<path d="M44.9597 173.096C42.387 172.561 41.4913 170.972 41.9304 168.25C41.2894 169.365 40.6484 170.48 39.9196 171.753C39.7967 171.314 39.6913 170.954 39.5947 170.603C39.9899 169.479 40.385 168.364 40.7713 167.24C41.4738 167.205 42.185 167.17 42.984 167.126C43.0631 166.73 43.1684 166.248 43.3792 165.229C44.1782 165.949 44.6875 166.362 45.1441 166.836C45.5568 167.257 45.908 167.731 46.2856 168.188C45.8378 169.821 45.3987 171.463 44.9509 173.096H44.9597Z" fill="#777777"/>
<path d="M41.2015 178.093C42.0269 177.539 42.861 176.977 43.6864 176.424C44.1342 176.969 44.5908 177.513 45.0386 178.058C44.4152 178.233 43.783 178.4 43.2561 178.549C43.5547 179.664 43.8444 180.753 44.1342 181.842C43.7039 181.965 43.2649 182.088 42.8347 182.211C42.7908 180.446 41.781 180.946 40.8415 181.482C40.341 180.885 39.9195 180.376 39.498 179.866C40.06 179.278 40.6307 178.69 41.1927 178.101L41.2015 178.093Z" fill="#949494"/>
<path d="M46.2859 168.188C45.9083 167.731 45.5571 167.257 45.1444 166.836C44.6878 166.37 44.1785 165.949 43.3795 165.229C43.1688 166.247 43.0634 166.73 42.9844 167.125C42.1765 167.169 41.4741 167.204 40.7716 167.239C40.4819 167.239 40.1921 167.239 39.9023 167.239C40.1833 166.3 40.4643 165.36 40.7453 164.421C41.2019 164.412 41.6585 164.403 42.1151 164.386C43.4234 164.228 44.7229 164.061 46.0313 163.903C46.1191 165.325 46.2069 166.757 46.2947 168.179L46.2859 168.188Z" fill="#B7B7B7"/>
<path d="M17.0543 312.129C18.7138 312.708 18.8719 314.043 18.7489 315.518C18.4855 316.159 18.2221 316.809 17.9586 317.45C17.8006 317.424 17.6426 317.406 17.4845 317.38V314.983C17.1947 314.315 16.905 313.639 16.6064 312.972C16.7557 312.691 16.905 312.41 17.0455 312.129H17.0543Z" fill="#D8D8D8"/>
<path d="M12.963 323.017C13.1035 322.271 12.2079 321.129 13.7708 320.936C14.0255 320.936 14.2802 320.936 14.5348 320.936C14.965 320.787 15.3865 320.646 15.8167 320.497C15.9484 321.322 16.0802 322.148 16.2119 322.973C15.7992 322.973 15.3777 322.973 14.965 322.982C14.2977 322.991 13.6304 323.008 12.963 323.017Z" fill="#E1E1E1"/>
<path d="M8.33496 337.549C8.98473 337.83 9.76622 337.97 10.2667 338.418C11.1975 339.243 11.5136 338.892 11.698 337.909C12.5058 337.206 13.3048 336.504 14.1126 335.801C14.3146 337.513 13.9107 339.068 12.9097 340.464C12.3653 340.253 11.8121 340.042 10.7936 339.656C11.136 340.92 11.3731 341.772 11.6102 342.624C10.4687 343.001 9.6433 342.817 9.34476 341.465C9.05499 340.148 8.67741 338.848 8.34375 337.549H8.33496Z" fill="#A2A2A2"/>
<path d="M22.6043 275.531C21.4716 275.294 20.1545 274.583 20.1369 277.121C19.8647 276.787 19.5837 276.462 19.3115 276.128C19.7593 275.452 20.0667 274.495 20.6901 274.197C21.1818 273.968 22.0599 274.557 22.7624 274.785C22.7097 275.031 22.6569 275.277 22.6043 275.531Z" fill="#4D4D4D"/>
<path d="M18.7228 271.782C18.8984 272.379 19.3023 273.011 19.2057 273.555C19.0213 274.644 18.5648 275.68 18.1433 276.989C17.1687 275.004 18.1433 273.397 18.7404 271.773L18.7228 271.782Z" fill="#515151"/>
<path d="M31.2265 219.335C31.2265 218.764 31.2265 218.202 31.2265 217.631C31.7797 217.649 32.5085 217.447 32.8597 217.719C33.931 218.571 34.853 219.616 35.8276 220.582C35.2569 222.452 34.3437 223.453 32.3592 222.057C32.0519 221.846 31.5689 221.881 31.165 221.802C31.1826 220.977 31.2002 220.16 31.2178 219.335H31.2265Z" fill="#585858"/>
<path d="M31.2261 219.335C31.2086 220.161 31.191 220.977 31.1735 221.803C30.4271 223.006 29.6105 222.514 28.7939 221.89C29.3471 220.793 28.8729 218.721 31.2261 219.335Z" fill="#989898"/>
<path d="M31.9469 225.332C31.6571 226.28 31.4025 227.255 30.9986 228.159C30.9635 228.238 29.9976 227.914 29.5322 227.799C30.2786 226.798 30.823 226.061 31.3674 225.332C31.5606 225.332 31.7537 225.332 31.9381 225.332H31.9469Z" fill="#878787"/>
<path d="M27.9248 220.582C28.1794 220.845 28.4428 221.1 28.6975 221.364C28.434 221.478 28.1707 221.592 27.916 221.706C27.916 221.337 27.9248 220.96 27.9335 220.591L27.9248 220.582Z" fill="#5D5D5D"/>
<path d="M20.3558 300.468C20.6017 300.485 20.8476 300.494 21.0934 300.512C21.3569 301.355 21.8925 302.233 21.8222 303.04C21.6379 304.928 20.0398 304.63 18.7314 304.682C18.7314 304.252 18.7314 303.822 18.7314 303.392H20.11C20.2154 302.189 20.2856 301.328 20.3558 300.468Z" fill="#A7A7A7"/>
<path d="M18.7231 303.392C18.7231 303.822 18.7231 304.253 18.7231 304.683C18.5738 306.351 17.6079 305.174 17.1777 304.999C16.7298 304.823 16.4665 304.2 16.1152 303.77C16.6069 303.655 17.0987 303.55 17.7484 303.41C17.5113 302.953 17.2831 302.505 17.0548 302.066C17.1601 301.97 17.2743 301.864 17.3796 301.768C17.8275 302.312 18.2665 302.856 18.7143 303.401L18.7231 303.392Z" fill="#858585"/>
<path d="M30.0325 211.02C30.5857 209.72 31.7623 209.764 32.8863 209.694C33.6853 211.116 32.8423 212.943 31.3409 212.916C30.5418 212.908 29.7516 212.67 28.9525 212.539C28.7418 212.284 28.5398 212.021 28.3291 211.766C28.8911 211.52 29.4618 211.266 30.0238 211.02H30.0325Z" fill="#999999"/>
<path d="M37.127 214.163C37.0655 215.287 37.0128 216.411 36.9513 217.588C35.1425 217.763 36.2225 212.512 33.0352 215.542C33.3161 214.312 34.6801 213.853 37.127 214.163Z" fill="#939393"/>
<path d="M43.7484 149.748C44.3894 149.924 45.0304 150.099 45.7592 150.301C45.4343 152.927 42.7474 152.584 41.6147 154.007C41.483 153.963 41.3513 153.919 41.2195 153.884C39.7532 152.497 39.1386 151.03 40.6839 149.415C41.7727 149.537 42.765 149.643 43.7572 149.757L43.7484 149.748Z" fill="#D8D8D8"/>
<path d="M49.0952 141.819C48.6386 141.538 48.1908 141.257 47.7342 140.968C47.6551 140.968 47.5761 140.95 47.4971 140.941C47.4971 140.836 47.4795 140.731 47.4795 140.625C47.6112 140.151 47.7341 139.668 47.9888 138.737C47.9185 138.492 47.699 137.675 47.4707 136.858C48.858 137.113 50.2717 137.324 51.2025 138.579C51.4659 138.413 51.7293 138.237 51.9928 138.07C51.9928 138.544 52.0015 139.422 51.9664 139.422C50.3244 139.528 49.701 140.485 49.6922 142.004C49.4991 141.942 49.2971 141.881 49.1039 141.811L49.0952 141.819Z" fill="#E4E4E4"/>
<path d="M42.0975 144.375C43.0809 143.049 44.1609 142.021 45.9434 143.084C45.8029 143.672 46.3649 144.875 44.8195 144.19C44.3541 143.988 43.6253 144.375 43.0194 144.498C42.8614 144.726 42.6945 144.954 42.5365 145.191C43.1072 145.411 43.6692 145.63 44.477 145.938C43.9063 146.324 43.6429 146.658 43.3882 146.649C41.7989 146.587 42.0975 145.384 42.0975 144.383V144.375Z" fill="#A4A4A4"/>
<path d="M39.5685 191.009C39.8232 191.86 40.0778 192.712 40.3237 193.564C38.5325 194.17 40.4115 194.617 40.3939 195.144C39.7002 195.285 39.0066 195.434 38.3129 195.575C37.6368 194.898 36.9607 194.222 36.2846 193.546C35.9948 193.019 35.7051 192.493 35.6875 192.449C36.2582 191.14 36.6622 190.227 37.0661 189.305C37.7597 189.437 38.4534 189.577 39.1471 189.709C39.2876 190.139 39.4368 190.57 39.5773 191L39.5685 191.009Z" fill="#848484"/>
<path d="M36.2842 193.555C36.9603 194.231 37.6364 194.907 38.3125 195.584C38.6989 196.751 40.9029 196.971 39.9985 198.806C39.2433 198.525 38.4794 198.27 37.7418 197.954C37.1184 197.691 36.2667 196.918 35.9769 197.103C34.4052 198.112 34.0539 196.655 33.3076 195.987L33.29 196.005C34.2998 195.952 35.3008 195.908 36.9164 195.829C36.0559 195.188 35.7223 194.943 35.3886 194.697C35.6872 194.31 35.9857 193.942 36.2754 193.564L36.2842 193.555Z" fill="#6B6B6B"/>
<path d="M39.5864 203.486C39.0947 202.757 38.5942 202.037 38.1025 201.308C37.9708 201.378 37.8303 201.44 37.6986 201.51V203.512C36.7415 202.862 35.8547 202.274 34.4849 201.352C34.722 202.441 34.8098 202.845 35.003 203.732C33.6947 202.81 32.6322 202.213 31.8507 201.361C31.6751 201.176 32.5268 200.053 32.9044 199.359C33.5366 199.131 34.1776 198.902 34.5113 198.788C36.0918 199.675 37.4879 200.465 38.8752 201.247C38.9016 200.992 38.9279 200.737 38.9543 200.474L40.7543 200.096C40.3679 201.229 39.9728 202.362 39.5864 203.495V203.486Z" fill="#717171"/>
<path d="M40.7537 200.088L38.9537 200.465C38.9274 200.72 38.901 200.975 38.8747 201.238C37.4786 200.457 36.0912 199.666 34.5107 198.78C34.1771 198.902 33.5361 199.131 32.9039 199.35C32.9126 198.955 32.9214 198.551 32.9302 198.156C32.5263 197.805 32.1312 197.462 31.4375 196.857C32.2102 196.497 32.7633 196.242 33.3165 195.987C34.0629 196.655 34.4141 198.112 35.9859 197.102C36.2668 196.918 37.1273 197.682 37.7507 197.954C38.4883 198.27 39.2522 198.525 40.0074 198.806C40.262 199.236 40.5167 199.658 40.7625 200.088H40.7537Z" fill="#ABABAB"/>
<path d="M12.5415 330.164C12.3571 329.98 12.1727 329.804 11.9971 329.62C12.4361 328.522 12.8751 327.416 13.3054 326.318C14.2712 325.598 15.2371 324.878 15.8693 324.413C16.7386 324.501 17.3093 324.562 17.8888 324.624L18.3455 325.089C17.6606 325.432 16.9669 325.774 15.9308 326.292C15.8957 326.652 16.0362 327.636 15.6674 328.364C15.3074 329.076 14.4381 329.532 13.4898 330.375C13.5425 330.384 13.042 330.279 12.5327 330.173L12.5415 330.164Z" fill="#D5D5D5"/>
<path d="M20.4449 263.44C20.682 263.44 20.919 263.44 21.1561 263.44C22.0166 264.564 22.8683 265.679 23.7288 266.795V266.777C21.8673 266.417 20.1727 265.89 20.4449 263.432V263.44Z" fill="#323232"/>
<path d="M39.5684 191.009C39.4279 190.579 39.2787 190.148 39.1382 189.718C39.147 189.358 39.2874 188.752 39.1382 188.682C37.8913 188.032 37.1538 187.505 38.6114 186.153C39.4543 185.363 39.8582 184.099 40.4553 183.045C40.7275 183.098 40.9997 183.15 41.2719 183.194C41.3684 183.695 41.3158 184.292 41.588 184.661C42.027 185.275 42.6768 185.741 43.2387 186.267C43.388 186.987 43.5461 187.707 43.6953 188.427C42.826 188.77 41.9217 189.051 41.0963 189.49C40.7626 189.674 40.6133 190.201 40.385 190.579C40.104 190.728 39.8319 190.868 39.5509 191.018L39.5684 191.009Z" fill="#9E9E9E"/>
<path d="M14.1218 335.801C13.314 336.504 12.5149 337.206 11.7071 337.909C11.0398 337.136 10.3022 336.416 9.74027 335.573C9.45051 335.134 9.36269 334.449 9.45049 333.922C9.48562 333.694 10.4339 333.334 10.5569 333.457C10.9432 333.817 11.1364 334.388 11.3735 334.888C11.5052 335.16 11.593 335.459 11.7862 335.995C12.2428 335.231 12.5589 334.713 12.8662 334.195C13.2789 334.73 13.6915 335.266 14.1042 335.81L14.1218 335.801Z" fill="#747474"/>
<path d="M43.2559 186.276C42.694 185.749 42.0442 185.284 41.6052 184.669C41.333 184.3 41.3856 183.695 41.2891 183.203C41.8071 182.869 42.3252 182.535 42.8345 182.202C43.2647 182.079 43.7037 181.956 44.134 181.833C44.2569 182.079 44.3886 182.325 44.5115 182.562C44.0901 183.8 43.6686 185.029 43.2471 186.267L43.2559 186.276Z" fill="#656565"/>
<path d="M41.2011 178.093C40.6392 178.681 40.0684 179.269 39.5064 179.857C39.2518 179.41 38.9884 178.953 38.7338 178.505C39.1991 178.215 39.6645 177.917 39.9718 177.733C38.8918 176.626 37.9874 175.704 37.083 174.782C38.3299 175.327 39.5767 175.88 40.8148 176.424C40.9465 176.986 41.0782 177.539 41.2099 178.101L41.2011 178.093Z" fill="#6C6C6C"/>
<path d="M40.807 176.415C39.5601 175.871 38.3133 175.318 37.0752 174.773C37.1015 174.325 37.1191 173.878 37.1455 173.43C37.3738 173.43 37.6108 173.439 37.8391 173.447C38.2606 173.983 38.6821 174.527 39.2704 175.283C39.8148 174.29 40.1484 173.693 40.4821 173.096C40.5875 173.114 40.7016 173.14 40.807 173.158V176.415Z" fill="#C9C9C9"/>
<path d="M39.9108 167.249C40.2005 167.249 40.4903 167.249 40.78 167.249C40.3849 168.372 39.9898 169.488 39.5947 170.612C39.4191 170.612 39.2434 170.594 39.0678 170.585C38.9273 170.076 38.7781 169.575 38.6025 168.952C38.3303 169.488 38.1195 169.874 37.9175 170.269C37.7771 169.83 37.6454 169.4 37.5049 168.961C38.3039 168.39 39.1029 167.819 39.902 167.249H39.9108Z" fill="#9F9F9F"/>
<path d="M37.926 170.26C38.128 169.865 38.3387 169.47 38.6109 168.943C38.7865 169.567 38.927 170.067 39.0763 170.577C38.6636 171.534 38.2509 172.491 37.847 173.448C37.6187 173.448 37.3816 173.439 37.1533 173.43C37.4167 172.377 37.6714 171.323 37.9348 170.269L37.926 170.26Z" fill="#4D4D4D"/>
<path d="M17.8887 324.623C17.3092 324.562 16.7385 324.5 15.8692 324.413C15.237 324.887 14.2711 325.598 13.3052 326.318C13.2526 326.204 13.2438 326.081 13.2789 325.958C13.8408 324.966 14.394 323.974 14.956 322.973C15.3687 322.973 15.7902 322.973 16.2028 322.964C16.7648 323.517 17.3268 324.07 17.8887 324.623Z" fill="#898989"/>
<path d="M42.8875 137.253C43.388 137.57 44.0026 137.78 44.3626 138.211C44.8368 138.79 45.109 139.536 45.469 140.212C45.5831 140.669 45.7061 141.134 45.8641 141.749C45.1704 141.749 44.4504 141.819 43.7567 141.732C43.0894 141.644 42.4484 141.398 41.6055 141.161C41.7547 139.861 41.8777 138.597 42.0709 137.35C42.0796 137.28 42.6065 137.28 42.8963 137.253H42.8875Z" fill="#A1A1A1"/>
<path d="M40.3848 190.561C41.1838 190.719 41.9917 190.885 42.7907 191.043C42.6327 191.649 42.4746 192.255 42.3165 192.852C42.0531 192.914 41.7897 192.984 41.5263 193.045C41.1487 192.22 40.7711 191.386 40.3848 190.561Z" fill="#9E9E9E"/>
<path d="M23.7368 266.794C22.8763 265.679 22.0246 264.555 21.1641 263.44C21.7436 263.019 22.3143 262.606 22.8938 262.185C23.1748 263.721 23.4558 265.258 23.7368 266.794Z" fill="#636363"/>
<path d="M13.2794 325.967C13.2443 326.09 13.2531 326.205 13.3058 326.327C12.8667 327.425 12.4277 328.531 11.9975 329.629C10.3116 330.788 9.06469 329.84 8.28321 328.531C7.37002 327.012 8.30079 325.827 9.67057 325.063C10.1272 324.808 10.6979 324.747 11.2072 324.598C11.7779 324.87 12.3487 325.142 12.9194 325.414C13.0423 325.599 13.1565 325.783 13.2794 325.967Z" fill="#2A2A2A"/>
<path d="M13.2791 325.967C13.1562 325.783 13.0421 325.599 12.9191 325.414C12.6382 324.712 12.3572 324.009 12.0762 323.307C12.3659 323.21 12.6645 323.114 12.9542 323.026C13.6216 323.017 14.2889 323 14.9562 322.991C14.3943 323.983 13.8411 324.975 13.2791 325.976V325.967Z" fill="#D5D5D5"/>
</svg>
