<svg width="116" height="377" viewBox="0 0 116 377" fill="none" xmlns="http://www.w3.org/2000/svg">
<path d="M9.02914 309.804C9.9072 307.17 45.0919 104.327 45.5 103C46.8487 98.6143 55.3029 95.8944 61.2738 100.386C67.2446 104.878 68.7373 117.552 68.7373 123.329C67.8592 122.889 65.7901 142.094 65.3511 142.972C64.9121 143.85 64.034 144.728 63.595 145.606C63.1559 146.484 57.0095 176.777 57.4485 177.656C57.8876 178.534 59.6437 178.973 60.0827 180.29C60.5218 181.607 29.7895 336.585 29.3505 337.463C28.9993 338.166 26.57 348 25.3992 352.829C24.3748 359.122 22.1504 374.543 21.4479 374.894C20.5699 375.333 10.7847 374.455 10.3457 373.577C9.90669 372.699 11.2238 351.073 11.2238 350.195C11.2238 349.317 10.7847 348.439 10.3457 348C9.90669 347.561 6.83346 335.707 6.39443 334.829C5.9554 333.951 5.51637 334.39 3.32173 333.073C0.248503 330.878 0.687535 321.219 2.00463 319.024C3.32173 316.829 8.15108 312.438 9.02914 309.804Z" stroke="#B10B3A" stroke-width="2"/>
<path d="M52.2849 179.278C53.4352 179.453 53.9269 179.972 53.6898 181.254C51.8108 191.316 49.9932 201.396 48.1405 211.468C45.919 223.523 43.6448 235.562 41.476 247.626C39.4301 258.98 37.551 270.368 35.4964 281.722C33.8544 290.774 32.0105 299.801 30.3334 308.854C29.868 311.374 29.7187 313.946 29.306 316.475C28.8758 319.074 28.2348 321.638 27.8045 324.237C27.4796 326.213 27.4972 328.241 27.0933 330.199C26.4523 333.29 25.4864 336.311 24.8367 339.393C24.0289 343.204 23.3967 347.058 22.6679 350.887C22.5889 351.299 22.343 351.677 22.1762 352.072C21.9918 352.054 21.8074 352.028 21.6142 352.011C21.6142 350.641 21.6142 349.271 21.6142 347.901C21.8249 346.672 22.0268 345.451 22.2376 344.222C22.3956 343.274 22.5537 342.326 22.7118 341.377C23.0015 339.832 24.3362 338.278 22.6679 336.75C23.2123 335.591 23.9762 334.484 24.2572 333.264C24.8455 330.7 25.1703 328.083 25.6094 325.484C26.1274 322.753 26.6455 320.023 27.1636 317.301C27.3392 316.308 27.5236 315.316 27.6992 314.324C27.8221 313.2 27.945 312.085 28.0767 310.961C28.6387 308.037 29.2006 305.122 29.7626 302.198C29.7626 301.917 29.7451 301.636 29.7363 301.355C30.0085 300.986 30.4475 300.653 30.5353 300.249C30.9919 298.176 31.3958 296.095 31.7207 294.006C31.8261 293.312 31.6241 292.574 31.5714 291.986C30.588 293.136 29.745 294.12 28.9021 295.112C29.0338 294.41 29.1743 293.707 29.306 293.005C28.8933 291.907 28.4806 290.81 28.0679 289.712C28.3489 288.878 28.6299 288.044 28.9109 287.192C29.5343 287.262 30.1753 287.332 30.9743 287.42C30.7899 286.489 30.6582 285.778 30.5968 285.48C29.4992 285.48 28.1645 285.813 27.8748 285.409C27.3479 284.663 27.4269 283.486 27.1899 282.134C28.4894 282.591 29.1217 282.81 29.7539 283.03C29.8768 283.214 30.0085 283.39 30.1314 283.574C32.2651 284.558 32.3353 284.523 32.6163 282.24C32.6514 281.967 32.7568 281.713 32.8358 281.441C33.4856 279.298 34.3285 277.182 34.7061 274.996C34.8993 273.872 34.3373 272.572 33.9159 271.422C33.7227 270.895 33.0729 270.535 32.6251 270.096C33.4241 267.98 33.0554 267.049 30.9568 265.96C31.0885 265.267 31.229 264.573 31.3695 263.844C32.9061 264.687 34.311 265.451 35.7071 266.224C35.5227 265.425 35.2329 264.617 34.6622 264.283C33.0729 263.352 31.3695 262.615 29.7099 261.807C29.7099 261.412 29.7099 261.017 29.7099 260.63C30.2894 260.815 30.8777 260.99 31.4572 261.175L31.6592 260.709C30.6143 260.13 29.306 259.77 28.5948 258.918C27.9275 258.128 27.8924 256.811 27.6026 255.792C27.1899 257.364 26.7596 258.971 26.3294 260.587C25.9255 261.245 25.5216 261.904 25.1264 262.562C24.8806 264.415 24.661 266.268 24.3801 268.112C24.3186 268.542 24.0289 269.297 23.8708 269.288C22.1762 269.209 23.783 270.228 23.423 270.553L22.984 272.678C21.702 275.619 21.4298 278.648 22.2376 281.818C21.7459 282.468 21.263 283.126 20.4025 284.268C21.2366 283.811 21.5088 283.662 21.781 283.513C22.3254 284.698 22.8698 285.892 23.4581 287.183C21.14 288.491 23.0191 289.475 23.8357 290.572C23.6249 290.924 23.4845 291.503 23.2035 291.573C22.4835 291.767 21.7108 291.74 20.9556 291.81C22.0005 289.694 21.904 289.185 19.9722 287.912C19.8668 289.009 19.779 289.975 19.6824 290.941C19.0327 292.926 19.5566 294.272 21.2542 294.98C21.0259 295.604 20.7888 296.236 20.5517 296.868C19.9195 296.587 19.2785 296.315 18.1897 295.841C18.699 296.754 18.98 297.254 19.2522 297.746C18.9888 297.992 18.7253 298.229 18.4619 298.475C18.3478 298.738 18.058 299.151 18.1282 299.239C19.217 300.416 18.5936 301.294 17.7156 302.189C17.3468 302.567 17.0922 303.058 16.7761 303.498C16.6707 303.62 16.5565 303.743 16.4512 303.875C17.1712 298.94 17.8648 293.997 18.62 289.062C19.9371 280.457 21.2366 271.843 22.6679 263.247C23.8445 256.187 25.223 249.163 26.505 242.121C28.2787 232.366 30.0436 222.61 31.8261 212.855C33.2573 205.023 34.7413 197.199 36.1725 189.358C37.6389 181.341 39.5267 173.368 40.3696 165.282C41.1511 157.783 43.4692 150.662 44.6019 143.277C45.7522 135.787 47.1483 128.341 48.439 120.869C49.282 115.996 50.0635 111.114 51.0381 106.267C51.161 105.67 50.9503 103.255 53.0401 104.844C52.7503 107.206 52.4606 109.568 52.1708 111.93C52.0127 112.466 51.8547 112.993 51.6967 113.528C50.8888 117.023 50.0459 120.5 49.2908 124.004C48.7991 126.278 48.3951 128.561 48.0615 130.861C47.8156 132.574 47.7366 134.303 47.5785 136.033C47.2712 137.807 46.9726 139.581 46.6653 141.354C46.1385 143.506 45.4975 145.639 45.0936 147.817C44.3385 151.944 43.715 156.088 43.0389 160.224C42.916 160.83 42.7931 161.444 42.6701 162.05C42.4682 163.095 42.2662 164.14 42.0643 165.185L41.3882 168.197C41.0984 170.541 40.8086 172.877 40.5189 175.221C40.3696 176.688 40.2203 178.154 40.0359 179.884C39.8428 180.209 39.2984 180.841 39.1052 181.578C39.0262 181.859 39.7462 182.351 40.1062 182.755C40.0886 182.887 40.0886 183.01 40.1062 183.141C39.7462 183.861 39.5267 184.713 38.9998 185.293C36.8661 187.619 38.4994 189.955 38.8506 192.291C38.8506 192.44 38.8506 192.589 38.8506 192.739C37.4545 192.695 36.5588 193.142 36.8486 194.767C36.8486 196.312 36.8486 197.858 36.8486 199.403C36.1725 201.115 34.8641 202.669 35.5227 204.715C35.2241 206.375 34.9256 208.034 34.6359 209.694C34.2408 210.704 33.8456 211.714 33.4417 212.723C33.5734 213.979 33.6963 215.235 33.828 216.49C33.6963 217.728 33.5646 218.966 33.4329 220.204C33.0641 220.819 32.5724 221.39 32.3529 222.048C32.0368 222.988 31.9226 223.998 31.7031 224.972C31.2114 227.167 30.5441 229.336 30.2543 231.549C30.0611 233.042 29.9909 234.798 30.588 236.106C31.8085 238.784 31.7909 240.786 29.7275 242.481C30.7812 242.648 31.7295 242.797 32.669 242.946C32.669 243.104 32.6514 243.254 32.6427 243.412C32.1861 243.499 31.7207 243.587 31.2377 243.684C32.3002 246.423 34.4252 243.236 35.6808 244.641C36.032 244.228 36.392 243.816 36.6291 243.543C35.6807 242.867 34.9783 242.376 34.2759 241.875C34.6885 240.347 35.1012 238.819 35.5227 237.292C35.1276 236.73 34.7325 236.168 34.3373 235.606C34.2934 235.035 34.2408 234.464 34.1969 233.902C35.6018 234.201 37.0154 234.508 38.4203 234.807C39.2282 234.095 40.036 233.384 40.9228 232.603C41.2916 233.428 41.5726 234.069 42.0994 235.263C42.3453 234.025 42.477 233.375 42.6087 232.717L43.0126 227.299C43.3989 226.421 43.7853 225.534 44.1716 224.656C44.6107 222.347 45.0585 220.046 45.4975 217.737C44.7775 215.884 44.8126 214.093 45.9629 212.398C46.2439 211.968 46.5248 211.529 46.7268 211.222C45.9717 210.818 45.3833 210.511 44.795 210.194C44.8828 210.054 44.9707 209.922 45.0585 209.782C45.717 209.308 46.8058 208.948 46.9639 208.342C47.5961 205.945 47.9385 203.477 48.3863 201.028C48.8078 198.42 49.2205 195.812 49.642 193.204C49.7034 192.3 49.7649 191.404 49.8176 190.5C49.9142 189.885 50.0195 189.27 50.1249 188.647C51.6703 186.908 51.2225 184.775 51.2752 182.746C51.5737 181.64 51.8723 180.525 52.1708 179.418L52.2323 179.348L52.2849 179.278ZM31.8173 252.535C32.4934 252.745 33.1256 252.939 33.4944 253.053C33.1256 251.63 32.7568 250.217 32.4758 249.101C31.5363 249.312 30.8514 249.4 30.2192 249.637C29.8329 249.778 29.3148 250.094 29.2358 250.427C29.1216 250.875 29.2621 251.481 29.4992 251.903C29.9119 252.631 30.4914 253.264 31.0534 254.01C31.2641 253.606 31.5363 253.088 31.8261 252.535H31.8173ZM38.3062 242.323C38.5784 243.06 38.8242 243.719 39.0437 244.298C41.1072 241.357 40.5979 238.547 38.7627 235.412C38.5257 236.607 38.3062 237.379 38.2447 238.161C38.2096 238.626 38.2623 239.355 38.552 239.548C40.2203 240.663 39.5355 241.515 38.315 242.323H38.3062ZM30.2368 244.913C29.7363 246.775 31.8261 248.197 34.671 247.582C33.2485 246.731 31.8261 245.87 30.2368 244.913ZM31.1061 255.573V259.199C33.1168 257.575 33.1256 257.311 31.1061 255.573Z" fill="#292929"/>
<path d="M47.6143 135.98C47.7635 134.259 47.8425 132.521 48.0972 130.809C48.4308 128.508 48.8348 126.216 49.3265 123.951C50.0816 120.447 50.9246 116.97 51.7324 113.476C52.2943 113.95 52.8563 114.433 53.9012 115.328V110.481C53.2866 110.991 52.7421 111.438 52.2065 111.886C52.4963 109.524 52.7861 107.162 53.0758 104.8C54.7266 105.731 55.7364 107.856 58.1774 107.619C58.4232 108.014 58.7569 108.558 59.231 109.331C59.6525 108.269 59.9686 107.47 60.2847 106.679C60.6096 107.066 60.9345 107.461 61.4262 108.058C61.7159 107.619 61.9881 107.215 62.2516 106.811C62.796 107.522 63.3404 108.234 63.876 108.936C63.6916 110.499 64.8594 110.956 65.957 111.474C64.4292 111.289 64.315 112.466 64.1482 113.458C63.4984 117.172 62.954 120.913 62.2691 124.618C61.9882 126.128 61.3472 127.568 61.075 129.07C60.5394 132.064 60.1442 135.076 59.6876 138.088C59.3013 137.675 58.9061 137.254 58.5198 136.841C58.5549 135.445 60.1969 134.013 58.3266 132.477C58.1862 133.469 58.0632 134.312 57.9403 135.164C56.7988 134.435 55.8417 134.496 55.1568 136.402C53.9978 134.172 53.067 132.371 52.1275 130.571C51.9431 130.642 51.7499 130.712 51.5655 130.782C51.7851 131.388 52.0309 131.994 52.2153 132.609C52.6456 134.022 53.0582 135.436 53.4709 136.85C52.9265 136.569 52.1714 136.437 51.8641 135.989C50.5997 134.154 49.9499 135.12 49.3089 136.437C48.747 136.279 48.1762 136.121 47.6143 135.963V135.98ZM56.3598 122.774C55.192 122.362 54.3227 122.063 53.4622 121.764C53.4973 121.896 53.5324 122.028 53.5676 122.16C52.7071 122.502 51.8377 122.845 50.6172 123.319C50.5645 123.846 50.4592 124.873 50.3099 126.313C51.2494 125.637 51.785 125.25 52.426 124.794C52.4875 125.672 52.5314 126.287 52.5929 127.217C53.4885 126.251 54.1207 125.567 54.8144 124.82C54.4895 124.645 54.1207 124.443 53.348 124.021C54.4807 123.556 55.2359 123.248 56.3686 122.783L56.3598 122.774ZM61.5228 123.591C61.3735 123.521 61.233 123.45 61.0838 123.371C60.2321 124.407 59.3364 125.417 58.5286 126.48C57.8086 127.428 58.2388 128.06 59.4066 128.209C60.1442 126.603 60.8291 125.092 61.5228 123.582V123.591ZM50.8807 133.364C51.0387 133.276 51.1968 133.188 51.3548 133.092C50.8982 131.467 50.4504 129.843 49.9938 128.227C49.7743 128.297 49.546 128.376 49.3265 128.447C49.1772 130.317 49.4846 132.029 50.8807 133.364ZM58.1247 114.345L57.4574 114.705C57.993 115.723 58.5022 116.76 59.0818 117.761C59.1345 117.848 59.6437 117.813 59.793 117.673C59.9423 117.532 60.0125 117.111 59.9071 116.944C59.354 116.057 58.7305 115.205 58.1334 114.345H58.1247Z" fill="#E4E4E4"/>
<path d="M20.9647 351.931C20.833 354.355 20.7364 356.813 20.5432 359.272C20.3325 361.95 20.034 364.619 19.753 367.297C19.4018 370.616 19.3139 370.678 15.5646 370.292C15.5646 368.966 15.4856 367.605 15.5822 366.261C15.8983 361.722 16.3549 357.182 16.5919 352.634C16.6797 350.939 17.2681 350.737 18.6554 351.325C19.3227 351.606 20.0691 351.703 20.9647 351.931Z" fill="#272727"/>
<path d="M11.8067 333.422C6.07299 330.428 5.09832 323.078 10.0243 318.96C11.7014 317.555 13.2906 316.186 14.2916 314.228C14.4497 314.904 14.5726 315.597 14.7921 316.247C14.9765 316.8 15.2838 317.318 15.5473 317.854C15.1433 318.653 14.5199 319.408 14.3707 320.251C13.8175 323.28 13.4136 326.345 12.8955 329.84C12.0877 328.777 11.5521 328.066 11.0165 327.363C10.9374 327.407 10.8496 327.451 10.7706 327.495C11.1394 328.496 11.5082 329.497 11.8857 330.489C11.0165 329.778 10.156 329.076 9.19887 328.294C9.33936 330.612 10.5336 332.052 12.6321 332.605C12.7551 332.763 12.8868 332.93 13.0097 333.088C12.6146 333.194 12.2194 333.299 11.8331 333.413L11.8067 333.422Z" fill="#282828"/>
<path d="M59.688 138.097C60.1446 135.094 60.5397 132.073 61.0754 129.079C61.3476 127.569 61.9885 126.129 62.2695 124.627C62.9544 120.913 63.4988 117.181 64.1486 113.467C64.3242 112.484 64.4296 111.298 65.9574 111.483C65.9574 112.94 66.1769 114.433 65.9135 115.846C64.3242 124.478 62.6471 133.092 60.9348 141.697C60.8031 142.338 60.1358 142.865 59.7144 143.444C59.5475 143.154 59.3807 142.865 59.2139 142.575L59.688 138.105V138.097Z" fill="#282828"/>
<path d="M15.5389 317.854C15.2842 317.318 14.9769 316.809 14.7837 316.247C14.5642 315.589 14.45 314.904 14.2832 314.228C14.8364 312.419 15.3896 310.601 15.9428 308.792C16.5135 309.179 17.0842 309.565 17.5233 309.873C16.9525 310.917 16.5399 311.681 16.1272 312.436C16.373 312.621 16.6189 312.805 16.8647 312.981C17.0579 312.48 17.2511 311.98 17.4443 311.479C17.6023 311.594 17.7516 311.708 17.9096 311.822L17.6286 313.437C17.7867 313.543 17.9448 313.648 18.094 313.762C18.4979 313.367 18.9019 312.972 19.5867 312.287C20.2804 313.771 20.9477 315.194 21.5097 316.397C20.8336 317.064 20.3858 317.503 20.0697 317.819C19.4023 317.556 18.6384 317.257 17.8833 316.967C17.8043 317.45 17.7252 317.924 17.6462 318.407C17.6462 318.671 17.6462 318.934 17.6462 319.206C17.216 319.505 16.7945 319.795 16.3643 320.093C16.0833 319.347 15.8023 318.6 15.5301 317.854H15.5389Z" fill="#5C5C5C"/>
<path d="M53.0495 162.691C53.4622 162.191 54.0768 161.76 54.2349 161.19C54.6476 159.785 54.8496 158.318 55.1393 156.87C55.3149 157.475 55.7276 158.125 55.6222 158.678C54.5334 164.395 53.3305 170.093 52.2592 175.818C52.0485 176.933 52.2593 178.119 52.2856 179.278L52.2241 179.348C51.829 178.918 51.4427 178.488 51.0476 178.057C50.5998 177.513 50.1431 176.969 49.6953 176.424C51.2758 175.757 51.9168 174.738 50.9685 173.105C51.4163 171.472 51.8554 169.83 52.3032 168.197C52.2154 166.774 52.1275 165.343 52.0397 163.92C52.3822 163.517 52.7159 163.104 53.0583 162.7L53.0495 162.691Z" fill="#2C2C2C"/>
<path d="M17.6458 318.416C17.7249 317.933 17.8039 317.459 17.8829 316.976C18.6381 317.274 19.402 317.564 20.0693 317.827C20.3854 317.511 20.8332 317.072 21.5093 316.405C20.9474 315.202 20.28 313.779 19.5864 312.296C18.9015 312.972 18.4976 313.367 18.0936 313.771C17.9356 313.665 17.7775 313.56 17.6282 313.446L17.9092 311.83C17.7512 311.716 17.6019 311.602 17.4439 311.488C17.2507 311.988 17.0575 312.489 16.8643 312.989C16.6185 312.805 16.3727 312.62 16.1268 312.445C16.5395 311.69 16.9521 310.926 17.5229 309.881C17.0839 309.582 16.5131 309.187 15.9424 308.801L15.9951 307.993C16.5746 307.782 17.1453 307.563 17.8478 307.299C17.9092 307.703 17.9795 308.133 18.0673 308.739C18.4273 308.239 18.6556 307.914 18.8927 307.589C19.2 307.949 19.5073 308.318 19.5161 308.327C19.2703 309.494 18.6907 310.82 18.9805 311.057C20.0254 311.9 21.3776 312.366 22.6069 312.972C22.8967 313.639 23.1864 314.315 23.485 314.982C23.2216 315.5 22.923 315.992 22.7035 316.528C22.4401 317.178 22.3171 317.898 22.001 318.521C21.5796 319.355 21.0176 320.128 20.5259 320.927C20.2713 320.927 20.0166 320.927 19.762 320.927C19.5425 320.365 19.2 319.821 19.121 319.241C18.9805 318.205 18.6819 317.713 17.637 318.407L17.6458 318.416Z" fill="#B3B3B3"/>
<path d="M22.2207 344.205C22.01 345.434 21.808 346.654 21.5973 347.884C20.8685 347.928 20.0343 348.138 20.1397 346.918C19.8938 346.962 19.648 347.014 19.4109 347.058C19.1299 346.11 18.8577 345.153 18.5065 343.959C17.9357 344.468 17.5757 344.784 17.2508 345.083C16.7591 344.626 16.3552 344.248 15.9425 343.862C15.8459 343.924 15.7406 343.994 15.644 344.055C15.7845 344.547 15.925 345.039 16.0743 345.522C15.3981 346.408 14.9767 346.207 14.7572 345.206C14.1864 342.668 13.6069 340.139 13.0361 337.602C13.4488 337.602 13.8615 337.602 14.2742 337.593L14.3444 337.54C14.6781 338.848 15.0557 340.148 15.3454 341.456C15.644 342.8 16.4694 342.993 17.6109 342.615C18.0762 342.58 18.5416 342.589 18.9982 342.51C19.5426 342.413 20.0694 342.246 20.6138 342.106C20.5172 342.65 20.4382 343.204 20.3153 343.739C20.2451 344.038 20.1045 344.327 19.9904 344.617C20.1045 344.679 20.2187 344.74 20.3328 344.802C20.6928 344.363 21.0529 343.924 21.4392 343.449C21.7377 343.739 21.9748 343.967 22.2119 344.196L22.2207 344.205Z" fill="#4B4B4B"/>
<path d="M18.8927 307.589C18.6644 307.914 18.4273 308.23 18.0673 308.739C17.9795 308.142 17.9093 307.712 17.8478 307.299C17.1454 307.563 16.5746 307.773 15.9951 307.993C16.1532 306.606 16.3112 305.21 16.478 303.822C16.5834 303.699 16.6976 303.576 16.803 303.445C17.4088 303.251 18.0059 303.058 19.1122 302.707C18.2078 304.015 17.6196 304.867 16.6888 306.211C17.9357 305.561 18.5854 305.218 19.3669 304.806C19.165 305.991 19.0244 306.79 18.8927 307.589Z" fill="#484848"/>
<path d="M55.9736 150.68C55.9736 149.96 55.956 149.248 55.9473 148.528C56.1404 147.527 56.2809 146.518 56.5531 145.534C56.9395 144.12 57.0712 142.426 59.2137 142.566C59.3805 142.856 59.5474 143.146 59.7142 143.436C57.6244 144.7 57.9054 147.159 56.9395 148.985C56.6322 149.556 56.2985 150.118 55.9736 150.68Z" fill="#454545"/>
<path d="M16.066 345.53C15.9255 345.038 15.785 344.547 15.6357 344.064C15.7323 344.002 15.8377 343.932 15.9343 343.871C16.3469 344.248 16.7509 344.635 17.2426 345.091C17.5763 344.801 17.9363 344.476 18.4982 343.967C18.8495 345.161 19.1216 346.11 19.4026 347.067C18.8319 347.102 18.1997 345.996 17.6641 347.313C17.4797 347.769 16.5313 347.918 15.8289 348.261C15.9255 347.119 15.9957 346.329 16.066 345.539V345.53Z" fill="#B9B9B9"/>
<path d="M14.2652 337.602C13.8525 337.602 13.4398 337.602 13.0271 337.61C12.6232 336.214 12.2105 334.818 11.8066 333.413C12.2018 333.308 12.5969 333.203 12.9832 333.088C13.4047 333.22 13.8262 333.361 14.4233 333.545C13.914 334.081 13.5715 334.449 13.2203 334.818C13.4047 334.827 13.5979 334.845 13.7823 334.853C13.9403 335.766 14.0984 336.68 14.2652 337.593V337.602Z" fill="#787878"/>
<path d="M59.3629 106.706C57.6683 105.775 56.3775 105.064 54.9375 104.274C56.3073 103.501 58.5288 104.678 59.3629 106.706Z" fill="#343434"/>
<path d="M32.6345 270.087C33.0823 270.526 33.7321 270.886 33.9252 271.413C34.3379 272.563 34.8999 273.863 34.7155 274.987C34.3467 277.182 33.495 279.289 32.8452 281.432C32.7662 281.695 32.652 281.959 32.6257 282.231C32.3359 284.514 32.2744 284.558 30.1407 283.566C31.8003 282.354 31.4403 281.414 28.7095 280.282C28.9817 280.843 29.4647 281.265 29.7369 281.792C29.9037 282.117 29.7632 282.608 29.7632 283.021C29.131 282.802 28.4988 282.582 27.1992 282.125C27.4363 283.469 27.3485 284.654 27.8842 285.401C28.1739 285.805 29.4998 285.471 30.6061 285.471C30.6676 285.769 30.7993 286.481 30.9837 287.411C30.1847 287.324 29.5437 287.253 28.9203 287.183C28.6393 288.035 28.3583 288.869 28.0773 289.703C26.6812 289.975 25.2763 290.256 23.8802 290.529C23.0636 289.431 21.1845 288.448 23.5026 287.139C22.9143 285.848 22.3699 284.663 21.8255 283.469C22.7211 283.469 23.6255 283.469 24.5212 283.469C24.5738 283.32 24.6265 283.179 24.6792 283.03C23.8802 282.608 23.0811 282.196 22.2733 281.774C21.4655 278.604 21.7377 275.575 23.0197 272.634C23.1689 271.922 23.3182 271.22 23.4587 270.509C23.8889 270.93 24.328 271.343 24.7583 271.764C24.1612 273.398 23.1865 274.996 24.1611 276.98C24.5826 275.672 25.0392 274.636 25.2236 273.547C25.3202 273.002 24.9163 272.37 24.7407 271.773C25.0392 270.588 25.2675 269.385 25.6714 268.235C25.8383 267.752 26.3651 267.392 26.7339 266.979C26.9007 267.409 27.2256 267.848 27.208 268.27C27.1378 269.92 28.0949 269.947 29.3681 269.991C31.3437 270.043 30.8169 268.366 31.4315 266.847C31.9584 268.261 32.3008 269.174 32.6433 270.087H32.6345ZM28.6041 275.531C28.6568 275.285 28.7095 275.04 28.7622 274.785C28.0598 274.557 27.1817 273.959 26.69 274.197C26.0665 274.495 25.7592 275.452 25.3114 276.128C25.5836 276.462 25.8646 276.787 26.1368 277.121C26.1543 274.583 27.4802 275.294 28.6041 275.531Z" fill="#333333"/>
<path d="M34.312 241.805C35.0145 242.305 35.717 242.806 36.6653 243.473C36.4282 243.745 36.077 244.158 35.717 244.571C34.4701 243.166 32.3364 246.353 31.274 243.614C31.7569 243.517 32.2135 243.429 32.6788 243.342C32.6788 243.183 32.6964 243.034 32.7052 242.876C31.7657 242.727 30.8173 242.578 29.7637 242.411C31.8271 240.716 31.8447 238.714 30.6242 236.036C30.0271 234.728 30.0974 232.972 30.2905 231.479C30.5803 229.257 31.2388 227.089 31.7393 224.902C31.9588 223.928 32.073 222.918 32.3891 221.978C32.6086 221.32 33.1003 220.749 33.4691 220.134C33.6184 220.275 33.7677 220.424 33.9169 220.565C33.9169 220.933 33.9082 221.311 33.8994 221.68C34.1628 221.566 34.4262 221.451 34.6809 221.337C34.716 221.513 34.7423 221.688 34.7774 221.873C35.594 222.496 36.4019 222.988 37.157 221.785C37.5609 221.864 38.0438 221.82 38.3512 222.04C40.3356 223.436 41.2488 222.435 41.8195 220.565C42.522 220.96 43.2244 221.355 43.9181 221.75C43.602 222.347 43.2946 222.953 42.8732 223.752C43.0751 223.875 43.6459 224.217 44.2078 224.56C43.8215 225.438 43.4351 226.325 43.0488 227.203C42.5834 226.272 42.1093 225.341 41.6439 224.41C40.7395 224.542 39.6331 224.7 38.1316 224.911C38.7199 225.596 39.2204 226.079 39.598 226.641C39.9668 227.194 40.2127 227.826 40.5112 228.432C40.0371 228.783 39.44 229.055 39.1239 229.521C38.6321 230.25 38.3336 231.101 38.1755 231.426C38.2897 232.77 38.3775 233.735 38.4565 234.71C37.0516 234.412 35.6379 234.104 34.233 233.806C33.9257 232.295 33.873 232.287 30.8964 233.428C32.1696 234.192 33.2671 234.851 34.3735 235.509C34.7686 236.071 35.1638 236.633 35.5589 237.195C35.3218 237.722 35.076 238.249 34.8389 238.776C34.6457 239.197 34.5579 239.794 34.2243 240.014C32.8193 240.953 32.7842 240.909 34.312 241.77V241.805ZM37.9472 225.332C37.7541 225.332 37.5609 225.332 37.3765 225.332C36.8321 226.07 36.2877 226.799 35.5413 227.8C36.0067 227.923 36.9638 228.248 37.0077 228.16C37.4028 227.255 37.6575 226.281 37.956 225.332H37.9472Z" fill="#424242"/>
<path d="M23.8542 290.529C25.2503 290.256 26.6553 289.975 28.0514 289.703C28.4641 290.801 28.8767 291.898 29.2894 292.996C28.7011 292.566 28.1216 292.135 27.5772 291.723C26.146 292.46 25.9616 293.426 26.8221 294.638C24.1791 296.447 24.0299 296.763 25.1977 298.203C25.4172 297.658 25.5226 297.079 25.8474 296.701C26.1811 296.315 26.7079 296.034 27.1996 295.911C27.3577 295.867 27.9197 296.526 27.867 296.763C27.7704 297.211 27.4192 297.667 27.0592 297.983C26.5148 298.466 25.865 298.844 25.2504 299.283C25.707 299.775 26.0318 300.117 26.3567 300.468C26.2864 301.329 26.2074 302.189 26.1108 303.392H24.7323C24.2845 302.848 23.8454 302.303 23.3976 301.759C23.2922 301.856 23.1781 301.961 23.0727 302.057C23.301 302.505 23.5294 302.944 23.7664 303.401C23.1254 303.541 22.6337 303.656 22.1332 303.761C22.4756 304.191 22.7479 304.815 23.1957 304.99C23.6259 305.157 24.5918 306.334 24.7411 304.674C26.0494 304.63 27.6475 304.92 27.8319 303.032C27.9109 302.216 27.3665 301.346 27.1031 300.503C27.7967 301.136 28.4816 301.776 29.3245 302.54C29.2718 302.584 29.5178 302.382 29.7548 302.18C29.1929 305.104 28.6309 308.02 28.0689 310.943C26.4181 311.04 24.7586 311.128 23.1079 311.224C23.3186 310.478 23.5206 309.732 23.5996 309.451C22.9235 308.836 22.0893 308.45 22.0103 307.94C21.6854 305.939 21.6064 303.901 21.4044 301.566C20.9478 302.137 20.5176 302.655 19.9205 303.401C19.7712 302.338 19.7361 301.452 19.499 300.626C19.2795 299.854 18.8405 299.151 18.498 298.422C18.7615 298.176 19.0249 297.939 19.2883 297.694C19.7624 297.86 20.5878 297.948 20.6405 298.203C21.0444 300.099 22.3615 299.625 23.3976 299.643C22.8181 298.528 22.2737 297.474 21.7293 296.42C21.4132 296.534 21.0005 296.675 20.5878 296.824C20.8249 296.192 21.062 295.56 21.2903 294.936C19.5927 294.234 19.0687 292.888 19.7185 290.897C20.14 291.187 20.5702 291.477 20.9917 291.767C21.7469 291.705 22.5195 291.731 23.2396 291.53C23.5205 291.45 23.6611 290.871 23.8718 290.529H23.8542Z" fill="#515151"/>
<path d="M43.9265 221.758C43.224 221.363 42.5216 220.968 41.8279 220.573C40.8533 219.607 39.9313 218.571 38.8601 217.71C38.5176 217.429 37.78 217.64 37.2268 217.623C36.7 217.219 36.1644 216.815 35.6375 216.42C34.9175 215.164 34.2063 213.917 33.4863 212.662C33.8815 211.652 34.2766 210.642 34.6805 209.632C35.1283 210.089 35.5761 210.554 36.0239 211.011C35.4619 211.257 34.8912 211.511 34.3292 211.757C34.54 212.012 34.7419 212.275 34.9527 212.53C35.7517 212.662 36.5419 212.899 37.341 212.907C38.8425 212.934 39.6854 211.099 38.8864 209.685C38.6142 209.281 38.342 208.877 38.061 208.482C38.6054 208.482 39.1498 208.482 39.6942 208.491C40.502 210.642 41.4767 212.477 44.3567 211.748C44.8309 211.625 45.4631 212.108 46.0163 212.31C44.866 214.005 44.8309 215.796 45.5509 217.649C43.2592 219.01 42.706 220.424 43.9353 221.749L43.9265 221.758ZM43.1274 214.163C40.6806 213.853 39.3166 214.312 39.0356 215.542C42.223 212.512 41.143 217.763 42.9518 217.587C43.0133 216.411 43.0748 215.287 43.1274 214.163Z" fill="#5D5D5D"/>
<path d="M43.0752 160.163C43.7513 156.027 44.3747 151.874 45.1298 147.756C45.5337 145.578 46.166 143.444 46.7016 141.293L48.0977 144.375C48.0977 145.376 47.7904 146.579 49.3885 146.641C49.6343 146.649 49.8977 146.316 50.4773 145.929C49.6782 145.622 49.1075 145.402 48.5367 145.183C48.6948 144.955 48.8616 144.726 49.0196 144.489C49.6255 144.366 50.3543 143.98 50.8197 144.182C52.3651 144.867 51.8031 143.655 51.9436 143.076C52.4617 142.356 52.9797 141.644 53.489 140.933C53.568 140.951 53.6471 140.959 53.7261 140.959C53.5681 142.944 52.6724 145.007 54.5427 146.842C53.1466 147.703 53.0588 150.583 50.4597 148.941C50.407 148.906 49.9943 149.459 49.7485 149.74C48.7562 149.626 47.7728 149.521 46.6752 149.398C45.1298 151.013 45.7445 152.48 47.2108 153.867C47.0001 154.42 46.8596 155.008 46.5699 155.518C45.8499 156.826 45.1035 158.126 44.2781 159.364C44.0323 159.732 43.4791 159.89 43.0752 160.145V160.163Z" fill="#D2D2D2"/>
<path d="M38.8943 192.238C38.5431 189.903 36.9187 187.567 39.0436 185.24C39.5704 184.669 39.79 183.818 40.15 183.089C42.872 183.062 43.7061 184.38 42.8193 187.014C42.5997 187.681 42.9686 188.55 43.0651 189.323C42.6612 190.245 42.2573 191.167 41.6866 192.466C41.7129 192.51 42.0027 193.037 42.2837 193.564C41.9939 193.942 41.6953 194.31 41.3968 194.697C41.7305 194.943 42.0642 195.188 42.9247 195.829C41.309 195.908 40.2993 195.961 39.2983 196.005C39.5793 195.68 39.8602 195.364 40.1939 194.978C38.9997 194.881 37.946 194.802 36.8923 194.714C36.6026 193.09 37.4982 192.642 38.8943 192.686C39.2719 192.914 39.6495 193.151 40.027 193.38L40.3695 192.528C39.8778 192.431 39.3861 192.335 38.8943 192.238Z" fill="#9E9E9E"/>
<path d="M18.4798 298.422C18.8222 299.159 19.2612 299.862 19.4808 300.626C19.7178 301.451 19.7529 302.338 19.9022 303.4C20.4993 302.663 20.9208 302.136 21.3861 301.565C21.5881 303.901 21.6671 305.938 21.992 307.94C22.071 308.449 22.9052 308.836 23.5813 309.45C23.5023 309.731 23.3003 310.478 23.0896 311.224C23.0808 311.523 23.0633 311.821 23.0545 312.12C22.9052 312.401 22.7559 312.682 22.6155 312.963C21.3774 312.357 20.0339 311.891 18.9891 311.048C18.6905 310.811 19.27 309.477 19.5247 308.318C19.5159 308.3 19.2085 307.94 18.9012 307.58C19.0417 306.781 19.1734 305.982 19.3754 304.797C18.5851 305.209 17.9353 305.552 16.6973 306.202C17.628 304.858 18.2163 304.006 19.1207 302.698C18.0144 303.049 17.4085 303.242 16.8114 303.436C17.1187 302.997 17.3734 302.505 17.751 302.127C18.629 301.232 19.2525 300.354 18.1637 299.177C18.0846 299.098 18.3744 298.677 18.4973 298.413L18.4798 298.422Z" fill="#8A8A8A"/>
<path d="M48.4313 200.949C47.9834 203.39 47.641 205.866 47.0088 208.263C46.8508 208.869 45.762 209.229 45.1034 209.703C44.6907 209.106 44.3483 208.43 43.8478 207.912C42.9258 206.946 41.9073 206.076 40.9238 205.163C41.3629 204.197 42.039 203.609 43.0136 204.373C44.4273 205.479 45.0858 204.821 45.5863 203.486C45.9727 202.353 46.3678 201.221 46.7542 200.088C46.4995 199.658 46.2449 199.236 45.9991 198.806C46.9035 196.971 44.6995 196.751 44.3131 195.584C45.0068 195.443 45.7005 195.294 46.3941 195.153C47 195.584 47.5971 196.023 48.1152 196.391C48.1152 197.375 48.0801 198.27 48.1327 199.157C48.1679 199.754 48.3347 200.351 48.4401 200.949H48.4313Z" fill="#5B5B5B"/>
<path d="M25.5918 325.475C25.1528 328.074 24.8279 330.691 24.2396 333.255C23.9587 334.476 23.1947 335.582 22.6503 336.741C21.8952 335.933 21.1401 335.231 21.7811 333.878C22.4045 332.561 22.703 331.086 23.1421 329.681C22.9752 329.629 22.7996 329.576 22.6328 329.514C22.185 330.796 21.7372 332.078 21.1928 333.633C20.3323 333.071 19.621 332.605 18.9186 332.149C18.7781 331.876 18.6463 331.604 18.5059 331.332C18.5146 330.946 18.5322 330.568 18.541 330.182C19.0415 330.287 19.542 330.393 19.4981 330.384C20.4464 329.55 21.3157 329.093 21.6757 328.373C22.0445 327.644 21.904 326.661 21.9391 326.301C22.9752 325.783 23.6601 325.44 24.3538 325.098C25.0211 324.422 25.5567 324.158 25.6006 325.484L25.5918 325.475Z" fill="#404040"/>
<path d="M24.7408 271.773C24.3106 271.351 23.8803 270.939 23.4413 270.517C23.8013 270.192 22.1944 269.174 23.8891 269.253C24.0471 269.253 24.3369 268.506 24.3984 268.076C24.6793 266.232 24.8989 264.38 25.1448 262.527C25.575 262.825 26.014 263.133 26.4443 263.431C26.1721 265.89 27.8667 266.417 29.7282 266.777C30.0268 266.487 30.3253 266.206 30.6151 265.916C30.7292 265.916 30.8434 265.934 30.9575 265.943C33.0561 267.04 33.4249 267.962 32.6258 270.078C32.2834 269.165 31.9409 268.252 31.4141 266.838C30.7907 268.357 31.3263 270.043 29.3507 269.982C28.0687 269.946 27.1116 269.911 27.1906 268.261C27.2082 267.839 26.8833 267.4 26.7165 266.97C26.3477 267.383 25.8208 267.743 25.654 268.225C25.2501 269.376 25.0218 270.579 24.7232 271.764H24.7408V271.773Z" fill="#515151"/>
<path d="M45.5866 203.486C45.0861 204.821 44.4275 205.479 43.0139 204.373C42.0392 203.609 41.3543 204.197 40.9241 205.163C39.9319 205.321 38.9484 205.471 37.9562 205.629C37.5172 204.751 37.0782 203.872 36.5513 202.81C36.1738 203.53 35.8664 204.092 35.5679 204.663C34.9094 202.617 36.2176 201.063 36.8937 199.35C37.5698 198.955 38.2459 198.56 38.9221 198.165C38.9133 198.56 38.9045 198.964 38.8957 199.359C38.5182 200.053 37.6664 201.168 37.8421 201.361C38.6235 202.213 39.686 202.801 40.9943 203.732C40.8012 202.845 40.7133 202.441 40.4762 201.352C41.8548 202.274 42.7329 202.871 43.69 203.512V201.51C43.8217 201.44 43.9622 201.379 44.0939 201.309C44.5856 202.037 45.0861 202.757 45.5778 203.486H45.5866Z" fill="#A3A3A3"/>
<path d="M43.0658 189.314C42.9692 188.542 42.6004 187.672 42.8199 187.005C43.7068 184.371 42.8726 183.054 40.1506 183.08C40.1243 182.948 40.1243 182.825 40.1506 182.694C40.0013 180.384 41.9507 181.623 43.0746 181.148C42.618 180.463 42.2492 179.919 41.6784 179.059C42.3019 179.182 42.5389 179.225 42.7672 179.278C44.7692 179.77 45.2697 181.745 46.4727 183.027C45.8756 184.081 45.4717 185.346 44.6287 186.136C43.1711 187.488 43.9087 188.015 45.1556 188.665C45.2961 188.735 45.1556 189.341 45.1556 189.701C44.4619 189.569 43.7683 189.429 43.0746 189.297L43.0658 189.314Z" fill="#636363"/>
<path d="M18.9101 332.14C19.6213 332.605 20.3238 333.062 21.1843 333.624C21.7287 332.07 22.1765 330.788 22.6243 329.506C22.7911 329.559 22.9668 329.611 23.1336 329.673C22.6946 331.078 22.396 332.553 21.7726 333.87C21.1316 335.222 21.878 335.924 22.6419 336.732C24.319 338.26 22.9755 339.814 22.6858 341.36C22.2731 340.842 21.8604 340.332 21.0965 339.375C20.7452 341.377 19.9901 341.72 18.9101 340.464C19.9111 339.068 20.315 337.514 20.113 335.802C19.7004 335.266 19.2877 334.73 18.8662 334.186C18.875 333.501 18.8925 332.816 18.9013 332.131L18.9101 332.14Z" fill="#8D8D8D"/>
<path d="M20.5352 320.927C21.0357 320.128 21.5888 319.356 22.0103 318.521C22.3264 317.898 22.4493 317.178 22.7127 316.528C22.9323 315.993 23.2308 315.492 23.4942 314.983V317.38C23.6523 317.406 23.8103 317.424 23.9684 317.45C24.2318 316.809 24.4952 316.159 24.7586 315.518C25.1362 315.676 25.5137 315.834 25.6103 315.87C26.4094 315.273 27.0504 314.79 27.7001 314.307C27.5245 315.299 27.3401 316.291 27.1645 317.283C25.4874 318.24 25.4962 319.777 25.8299 321.437C24.4337 321.103 23.1342 320.796 21.8259 320.488C21.3956 320.637 20.9741 320.778 20.5439 320.927H20.5352Z" fill="#535353"/>
<path d="M46.4724 183.045C45.2695 181.763 44.769 179.787 42.767 179.295C42.5299 179.234 42.2928 179.199 41.6782 179.076C42.2577 179.936 42.6178 180.481 43.0743 181.166C41.9504 181.64 40.0011 180.393 40.1504 182.711C39.7904 182.316 39.0791 181.815 39.1494 181.534C39.3425 180.806 39.8869 180.165 40.0801 179.84C40.2557 178.101 40.4138 176.644 40.5631 175.177C41.1865 177.249 42.7934 178.075 44.7251 178.505C44.9797 178.953 45.2432 179.41 45.4978 179.857C45.9193 180.367 46.3407 180.876 46.8412 181.473C47.7807 180.937 48.7905 180.446 48.8344 182.202C48.3164 182.535 47.7983 182.869 47.289 183.203C47.0168 183.15 46.7446 183.097 46.4724 183.053V183.045Z" fill="#C5C5C5"/>
<path d="M44.7255 178.505C42.7937 178.075 41.1869 177.241 40.5635 175.177C40.8532 172.833 41.143 170.497 41.4328 168.153C42.1264 168.425 42.8201 168.697 43.5138 168.969C43.6542 169.4 43.7859 169.839 43.9264 170.278C43.663 171.331 43.4084 172.385 43.145 173.439C43.1186 173.887 43.1011 174.334 43.0747 174.782C43.9791 175.704 44.8835 176.626 45.9635 177.733C45.6562 177.926 45.1909 178.215 44.7255 178.505Z" fill="#9D9D9D"/>
<path d="M43.0748 160.162C43.4875 159.908 44.0407 159.75 44.2778 159.381C45.1031 158.143 45.8495 156.835 46.5695 155.535C46.8505 155.026 46.9997 154.437 47.2105 153.884C47.3422 153.928 47.4739 153.963 47.6056 154.007C47.7373 154.271 47.869 154.543 48.0008 154.806C47.7198 155.456 47.43 156.106 46.9822 157.124C47.3422 157.361 48.0008 157.8 48.7208 158.283C48.4837 159.012 48.1939 159.873 47.869 160.865C48.1061 160.997 48.51 161.216 48.9139 161.444L48.8788 161.4C48.3783 161.4 47.7198 161.594 47.4125 161.348C46.0339 160.259 45.3929 160.891 44.9363 162.226C44.6641 162.533 44.3919 162.832 43.9353 163.341C44.0231 162.384 44.0934 161.585 44.2163 160.294C43.5138 161.084 43.11 161.541 42.7061 161.998C42.829 161.392 42.9519 160.777 43.0748 160.171V160.162Z" fill="#2B2B2B"/>
<path d="M35.5763 204.663C35.8748 204.092 36.1822 203.53 36.5597 202.81C37.0866 203.873 37.5256 204.751 37.9646 205.629C37.9997 206.586 38.0348 207.534 38.0612 208.491C38.3334 208.895 38.6056 209.299 38.8866 209.694C37.7626 209.764 36.586 209.72 36.0329 211.02C35.5851 210.563 35.1373 210.098 34.6895 209.641C34.988 207.982 35.2865 206.322 35.5763 204.663Z" fill="#4A4A4A"/>
<path d="M26.3562 300.468C26.0313 300.117 25.7065 299.775 25.2499 299.283C25.8733 298.844 26.5143 298.475 27.0587 297.983C27.4187 297.658 27.7699 297.211 27.8665 296.763C27.9192 296.517 27.3572 295.867 27.1991 295.911C26.7074 296.034 26.1718 296.315 25.8469 296.701C25.5221 297.079 25.4255 297.658 25.1972 298.203C24.0294 296.754 24.1786 296.447 26.8216 294.638C27.2079 294.348 27.5855 294.067 27.8928 293.839C28.2879 294.348 28.5865 294.726 28.885 295.103C29.166 297.184 29.4382 299.265 29.7192 301.355C29.7192 301.636 29.7368 301.917 29.7455 302.198C29.5085 302.4 29.2626 302.602 29.3153 302.558C28.4724 301.785 27.7874 301.153 27.0938 300.521C26.8479 300.503 26.602 300.495 26.3562 300.477V300.468Z" fill="#828282"/>
<path d="M38.4558 234.728C38.3768 233.753 38.289 232.787 38.1748 231.444C38.3329 231.119 38.6314 230.259 39.1231 229.539C39.4392 229.073 40.0363 228.81 40.5105 228.45C41.652 229.495 42.7934 230.531 42.0734 232.34C42.0646 232.366 42.4422 232.541 42.6442 232.647C42.5125 233.305 42.3807 233.964 42.1349 235.193C41.608 233.999 41.3183 233.358 40.9583 232.533C40.0714 233.314 39.2636 234.025 38.4558 234.737V234.728Z" fill="#616161"/>
<path d="M38.0604 208.482C38.0253 207.525 37.9902 206.577 37.9639 205.62C38.9561 205.462 39.9395 205.312 40.9317 205.154C41.9064 206.067 42.9249 206.946 43.8557 207.903C44.3562 208.421 44.6986 209.088 45.1113 209.694C45.0235 209.834 44.9357 209.966 44.8479 210.107C43.8205 209.659 42.8196 209.149 41.7659 208.789C41.1161 208.57 40.3873 208.579 39.6936 208.491C39.1492 208.491 38.6048 208.491 38.0604 208.482Z" fill="#989898"/>
<path d="M21.8086 320.496C23.1081 320.804 24.4164 321.12 25.8126 321.445C25.4789 319.785 25.4701 318.249 27.1472 317.292C26.6292 320.022 26.1111 322.753 25.593 325.475C25.5491 324.149 25.0135 324.413 24.3462 325.089L23.8896 324.623C23.3276 324.07 22.7657 323.517 22.2037 322.964C22.072 322.138 21.9403 321.313 21.8086 320.488V320.496Z" fill="#ACACAC"/>
<path d="M42.6529 232.646C42.4509 232.541 42.0734 232.365 42.0821 232.339C42.8022 230.539 41.6606 229.494 40.5192 228.449C40.2206 227.852 39.9748 227.211 39.606 226.658C39.2284 226.096 38.728 225.613 38.1396 224.928C39.6411 224.718 40.7475 224.551 41.6519 224.428C42.1261 225.358 42.5914 226.289 43.0568 227.22L42.6529 232.638V232.646Z" fill="#969696"/>
<path d="M53.4974 140.942C52.9793 141.662 52.4613 142.373 51.952 143.093C50.1695 142.03 49.0895 143.058 48.1061 144.384L46.71 141.302C47.0173 139.528 47.3158 137.754 47.6231 135.98C48.1851 136.139 48.7558 136.297 49.3178 136.455C49.1773 136.718 49.0368 136.99 48.8963 137.254C48.6066 137.289 48.0797 137.28 48.0709 137.35C47.8778 138.597 47.7548 139.862 47.6055 141.161C48.4485 141.389 49.0983 141.644 49.7568 141.732C50.4505 141.82 51.1705 141.749 51.8642 141.749C51.7061 141.135 51.592 140.669 51.4691 140.213C52.1364 140.353 52.8125 140.485 53.4798 140.625C53.4798 140.731 53.4886 140.836 53.4974 140.942Z" fill="#DDDDDD"/>
<path d="M29.7189 301.346C29.438 299.265 29.1657 297.184 28.8848 295.095C29.7277 294.111 30.5707 293.119 31.5541 291.969C31.6068 292.548 31.8087 293.295 31.7034 293.988C31.3785 296.078 30.9746 298.168 30.518 300.231C30.4302 300.644 29.9911 300.969 29.7189 301.338V301.346Z" fill="#383838"/>
<path d="M18.9188 340.464C20.0076 341.72 20.754 341.377 21.1052 339.375C21.8691 340.333 22.2818 340.851 22.6945 341.36C22.5365 342.308 22.3784 343.257 22.2204 344.205C21.9833 343.977 21.7462 343.748 21.4477 343.458C21.0613 343.933 20.7013 344.372 20.3413 344.811C20.2272 344.749 20.113 344.688 19.9988 344.626C20.1042 344.337 20.2535 344.047 20.3237 343.748C20.4467 343.213 20.5257 342.659 20.6223 342.115C20.0867 342.256 19.551 342.422 19.0066 342.519C18.55 342.598 18.0847 342.589 17.6193 342.624C17.3822 341.773 17.154 340.912 16.8027 339.656C17.8213 340.043 18.3744 340.254 18.9188 340.464Z" fill="#C3C3C3"/>
<path d="M27.682 314.306C27.0411 314.789 26.3913 315.272 25.5923 315.869C25.4957 315.825 25.1181 315.676 24.7406 315.518C24.8635 314.043 24.7054 312.708 23.0459 312.129C23.0547 311.83 23.0722 311.532 23.081 311.233C24.7318 311.137 26.3913 311.04 28.0421 310.952C27.9192 312.076 27.7962 313.191 27.6645 314.315L27.682 314.306Z" fill="#939393"/>
<path d="M43.5136 168.961C42.82 168.689 42.1263 168.416 41.4326 168.144C41.6609 167.143 41.8804 166.133 42.1087 165.132C42.1877 165.686 42.2755 166.239 42.3546 166.792C42.7321 164.597 44.7253 164.948 46.0073 164.298C46.2532 164.342 46.5078 164.386 46.7537 164.421C46.4727 165.361 46.1917 166.3 45.9107 167.24C45.1117 167.811 44.3127 168.381 43.5136 168.952V168.961Z" fill="#5B5B5B"/>
<path d="M31.8184 252.534C31.5287 253.087 31.2652 253.597 31.0457 254.009C30.4838 253.263 29.9042 252.631 29.4915 251.902C29.2545 251.481 29.1228 250.884 29.2281 250.427C29.3072 250.093 29.8252 249.777 30.2116 249.637C30.8438 249.4 31.5287 249.312 32.4682 249.101C32.7579 250.216 33.118 251.63 33.4868 253.052C33.118 252.938 32.4857 252.745 31.8096 252.534H31.8184Z" fill="#595959"/>
<path d="M39.6855 208.491C40.3792 208.587 41.108 208.57 41.7578 208.789C42.8114 209.149 43.8124 209.659 44.8398 210.106C45.4281 210.422 46.0163 210.73 46.7715 211.134C46.5695 211.45 46.2885 211.88 46.0076 212.31C45.4544 212.108 44.8222 211.625 44.3481 211.748C41.468 212.477 40.4934 210.633 39.6855 208.491Z" fill="#B3B3B3"/>
<path d="M35.6366 216.429C36.1634 216.833 36.699 217.237 37.2259 217.632C37.2259 218.202 37.2259 218.764 37.2259 219.335C34.8726 218.72 35.3468 220.793 34.7937 221.89C34.7585 221.715 34.7322 221.539 34.697 221.355C34.4424 221.091 34.179 220.837 33.9244 220.573C33.7751 220.433 33.6258 220.283 33.4766 220.143C33.6083 218.905 33.7399 217.667 33.8716 216.429C34.46 216.429 35.0483 216.429 35.6366 216.42V216.429Z" fill="#434343"/>
<path d="M48.4308 200.948C48.3255 200.351 48.1586 199.763 48.1235 199.157C48.0708 198.27 48.1059 197.374 48.1059 196.391C47.5967 196.022 46.9908 195.592 46.3849 195.153C46.4113 194.626 44.5322 194.178 46.3147 193.572C47.5879 194.582 48.6064 193.66 49.6777 193.125C49.2562 195.732 48.8435 198.34 48.422 200.948H48.4308Z" fill="#B6B6B6"/>
<path d="M38.3064 242.322C39.5357 241.523 40.2205 240.663 38.5434 239.548C38.2537 239.355 38.201 238.626 38.2361 238.16C38.2976 237.379 38.5171 236.606 38.7542 235.412C40.5894 238.547 41.0986 241.348 39.0352 244.298C38.8156 243.719 38.5786 243.06 38.2976 242.322H38.3064Z" fill="#595959"/>
<path d="M45.9982 164.298C44.7162 164.948 42.723 164.596 42.3454 166.792C42.2664 166.238 42.1786 165.685 42.0996 165.132C42.3016 164.087 42.5035 163.042 42.7055 161.997C43.1094 161.541 43.5133 161.084 44.2157 160.294C44.0928 161.585 44.0225 162.393 43.9347 163.341C44.3913 162.832 44.6635 162.524 44.9357 162.226C45.287 162.919 45.647 163.613 45.9982 164.307V164.298Z" fill="#B8B8B8"/>
<path d="M26.3477 260.56C26.7779 258.953 27.1993 257.338 27.6208 255.766C27.9106 256.785 27.9545 258.102 28.613 258.892C29.333 259.744 30.6326 260.104 31.6775 260.683L31.4755 261.149C30.896 260.964 30.3077 260.789 29.7282 260.604C29.4472 260.683 28.9555 260.718 28.9204 260.859C28.815 261.28 28.894 261.754 28.9028 262.202C28.0511 261.649 27.1993 261.105 26.3564 260.552L26.3477 260.56Z" fill="#636363"/>
<path d="M30.9656 265.952C30.8514 265.943 30.7373 265.934 30.6232 265.925C30.3246 264.547 30.0261 263.168 29.7363 261.79C31.3959 262.597 33.0993 263.335 34.6886 264.266C35.2594 264.599 35.5403 265.407 35.7335 266.206C34.3286 265.442 32.9325 264.67 31.3959 263.827C31.2554 264.555 31.1149 265.249 30.9832 265.943L30.9656 265.952Z" fill="#636363"/>
<path d="M51.0384 178.048L52.2149 179.339C51.9164 180.445 51.6179 181.561 51.3193 182.667C51.0559 182.632 50.7837 182.597 50.5203 182.562C50.3973 182.316 50.2656 182.07 50.1427 181.833C49.853 180.744 49.5632 179.655 49.2646 178.54C49.7915 178.391 50.4149 178.224 51.0471 178.048H51.0384Z" fill="#5B5B5B"/>
<path d="M20.57 296.824C20.9827 296.675 21.3954 296.534 21.7115 296.42C22.2559 297.474 22.8003 298.528 23.3798 299.643C22.3437 299.625 21.0266 300.099 20.6227 298.203C20.57 297.948 19.7359 297.86 19.2705 297.693C18.9983 297.202 18.7173 296.701 18.208 295.788C19.3056 296.262 19.9378 296.543 20.57 296.815V296.824Z" fill="#A5A5A5"/>
<path d="M49.6865 193.125C48.6152 193.66 47.5967 194.582 46.3235 193.573C46.0689 192.721 45.8142 191.869 45.5684 191.018C45.8493 190.868 46.1216 190.728 46.4025 190.578L46.385 190.57C46.7625 191.395 47.1401 192.229 47.5265 193.055C47.7899 192.993 48.0533 192.923 48.3167 192.861C48.4748 192.256 48.6328 191.658 48.7909 191.053C49.1509 190.842 49.5109 190.64 49.8709 190.429C49.8094 191.334 49.748 192.229 49.6953 193.134L49.6865 193.125Z" fill="#545454"/>
<path d="M30.228 244.913C31.8173 245.87 33.2398 246.731 34.6622 247.582C31.8085 248.197 29.7188 246.775 30.228 244.913Z" fill="#5E5E5E"/>
<path d="M38.9297 198.156C38.2536 198.551 37.5775 198.947 36.9014 199.342C36.9014 197.796 36.9014 196.251 36.9014 194.706C37.955 194.793 38.9999 194.872 40.2029 194.969C39.8605 195.355 39.5795 195.68 39.3073 195.996L39.3248 195.979C38.7717 196.233 38.2272 196.488 37.4458 196.848C38.1394 197.454 38.5434 197.796 38.9385 198.148L38.9297 198.156Z" fill="#6B6B6B"/>
<path d="M50.5212 182.562C50.7847 182.597 51.0569 182.632 51.3203 182.667C51.2764 184.695 51.7154 186.829 50.1701 188.567C50.0208 188.524 49.8627 188.471 49.7134 188.427C49.5642 187.707 49.4061 186.987 49.2568 186.267C49.6783 185.029 50.0998 183.8 50.5212 182.562Z" fill="#ACACAC"/>
<path d="M43.9267 221.759C42.6887 220.433 43.2506 219.01 45.5424 217.658C45.1034 219.968 44.6555 222.268 44.2165 224.577C43.6545 224.235 43.0838 223.892 42.8818 223.77C43.3033 222.97 43.6106 222.365 43.9267 221.768V221.759Z" fill="#8F8F8F"/>
<path d="M52.1978 111.886C52.7422 111.439 53.2778 110.991 53.8925 110.481V115.328C52.8476 114.433 52.2856 113.959 51.7236 113.476C51.8817 112.94 52.0398 112.413 52.1978 111.878V111.886Z" fill="#C1C1C1"/>
<path d="M26.3475 260.56C27.1992 261.113 28.0509 261.658 28.8938 262.211L28.885 262.184C28.3055 262.606 27.7348 263.019 27.1553 263.44C26.9182 263.44 26.6811 263.44 26.444 263.44C26.0138 263.142 25.5748 262.834 25.1445 262.536C25.5484 261.877 25.9523 261.219 26.3475 260.56Z" fill="#2B2B2B"/>
<path d="M28.8937 295.103C28.5951 294.725 28.2966 294.339 27.9014 293.838C27.5941 294.067 27.2078 294.356 26.8302 294.637C25.9785 293.426 26.1629 292.46 27.5854 291.722C28.1298 292.126 28.7181 292.556 29.2976 292.995C29.1659 293.698 29.0254 294.4 28.8937 295.103Z" fill="#383838"/>
<path d="M34.3726 235.526C33.275 234.868 32.1687 234.209 30.8955 233.445C33.8634 232.295 33.9248 232.313 34.2321 233.823C34.276 234.394 34.3287 234.964 34.3726 235.526Z" fill="#767676"/>
<path d="M20.9821 291.767C20.5607 291.477 20.1305 291.187 19.709 290.897C19.8056 289.932 19.8933 288.966 19.9987 287.868C21.9304 289.141 22.0358 289.651 20.9821 291.767Z" fill="#333333"/>
<path d="M29.7279 261.789C30.0264 263.168 30.3162 264.547 30.6147 265.925C30.3162 266.215 30.0264 266.496 29.7279 266.786V266.803C29.4469 265.267 29.1659 263.73 28.8849 262.193L28.8937 262.22C28.8937 261.772 28.8147 261.298 28.9113 260.876C28.9464 260.736 29.4381 260.701 29.7191 260.622C29.7191 261.017 29.7191 261.412 29.7191 261.798L29.7279 261.789Z" fill="#313131"/>
<path d="M35.6375 216.429C35.0492 216.429 34.4609 216.429 33.8726 216.437C33.7409 215.182 33.618 213.926 33.4863 212.67C34.2063 213.926 34.9175 215.173 35.6375 216.429Z" fill="#989898"/>
<path d="M49.7127 188.427C49.8619 188.471 50.02 188.524 50.1693 188.568C50.0639 189.182 49.9673 189.806 49.8619 190.42C49.5019 190.631 49.1419 190.833 48.7907 191.044C47.9917 190.886 47.1838 190.719 46.3848 190.561L46.4023 190.57C46.6306 190.201 46.7799 189.665 47.1136 189.481C47.9302 189.042 48.8346 188.761 49.7127 188.418V188.427Z" fill="#4A4A4A"/>
<path d="M34.3121 241.805C32.7843 240.944 32.8107 240.988 34.2243 240.049C34.558 239.829 34.637 239.232 34.839 238.811C35.0848 238.284 35.3219 237.757 35.559 237.23C35.1463 238.758 34.7336 240.286 34.3121 241.813V241.805Z" fill="#5D5D5D"/>
<path d="M31.0977 255.582C33.1172 257.32 33.1084 257.584 31.0977 259.208V255.582Z" fill="#5E5E5E"/>
<path d="M29.7461 283.021C29.7461 282.608 29.8865 282.116 29.7197 281.792C29.4475 281.265 28.9734 280.843 28.6924 280.281C31.4232 281.414 31.7832 282.353 30.1236 283.565C30.0007 283.381 29.869 283.205 29.7461 283.021Z" fill="#676767"/>
<path d="M22.2561 281.783C23.0551 282.204 23.8541 282.617 24.662 283.038C24.6093 283.188 24.5566 283.328 24.5039 283.477C23.6083 283.477 22.7039 283.477 21.8083 283.477C21.5361 283.627 21.2551 283.776 20.4297 284.232C21.2814 283.091 21.7731 282.432 22.2649 281.783H22.2561Z" fill="#636363"/>
<path d="M38.8955 192.238C39.3872 192.334 39.8789 192.431 40.3706 192.528L40.0282 193.379C39.6506 193.151 39.2731 192.914 38.8955 192.686C38.8955 192.536 38.8955 192.387 38.8955 192.238Z" fill="#6D6D6D"/>
<path d="M59.2129 142.557C57.0704 142.425 56.9387 144.12 56.5523 145.525C56.2801 146.508 56.1484 147.518 55.9465 148.519C55.8148 148.519 55.683 148.519 55.5513 148.51C55.3055 147.132 54.9718 145.771 54.8489 144.383C54.7699 143.54 55.007 142.671 55.0948 141.811C55.2879 141.872 55.4899 141.934 55.6831 142.004C55.6918 140.485 56.3153 139.528 57.9573 139.422C57.9924 139.422 57.9748 138.544 57.9836 138.07C58.1592 137.666 58.3348 137.254 58.5017 136.85L59.6694 138.096L59.1953 142.566L59.2129 142.557Z" fill="#D2D2D2"/>
<path d="M56.3594 122.774C55.2267 123.24 54.4628 123.556 53.3389 124.012C54.1116 124.434 54.4804 124.636 54.8053 124.812C54.1116 125.558 53.4794 126.243 52.5838 127.209C52.5223 126.278 52.4784 125.663 52.4169 124.785C51.776 125.242 51.2491 125.628 50.3008 126.304C50.4501 124.864 50.5555 123.828 50.6081 123.31C51.8286 122.827 52.6891 122.485 53.5584 122.151C53.5233 122.019 53.4882 121.888 53.4531 121.756C54.3223 122.054 55.1828 122.362 56.3507 122.766L56.3594 122.774Z" fill="#C9C9C9"/>
<path d="M48.8877 137.254C49.0282 136.99 49.1687 136.718 49.3091 136.455C49.9501 135.137 50.5999 134.172 51.8643 136.007C52.1717 136.455 52.9268 136.586 53.4712 136.867C53.6995 137.684 53.9278 138.5 53.9892 138.746C53.7346 139.677 53.6117 140.16 53.48 140.634C52.8126 140.494 52.1365 140.362 51.4692 140.221C51.1092 139.545 50.837 138.799 50.3628 138.219C50.0116 137.789 49.3882 137.57 48.8877 137.262V137.254Z" fill="#CFCFCF"/>
<path d="M53.4708 136.859C53.0493 135.445 52.6454 134.031 52.2152 132.618C52.022 132.003 51.7849 131.397 51.5654 130.791C51.7498 130.721 51.943 130.651 52.1274 130.581C53.0582 132.381 53.9977 134.181 55.1567 136.411C55.8416 134.506 56.7987 134.435 57.9402 135.173C57.7733 135.787 57.589 136.393 57.4573 137.017C57.3431 137.535 57.2904 138.062 57.2114 138.589C56.2806 137.333 54.8669 137.122 53.4796 136.868L53.4708 136.859Z" fill="#CFCFCF"/>
<path d="M61.5229 123.591C60.8292 125.101 60.1443 126.612 59.4067 128.218C58.2477 128.06 57.8086 127.437 58.5286 126.489C59.3365 125.417 60.2321 124.416 61.0838 123.38C61.2331 123.451 61.3736 123.521 61.5229 123.6V123.591Z" fill="#B8B8B8"/>
<path d="M50.8804 133.364C49.4843 132.02 49.1769 130.308 49.3262 128.447C49.5457 128.376 49.774 128.297 49.9936 128.227C50.4501 129.851 50.8979 131.476 51.3545 133.092C51.1965 133.179 51.0385 133.267 50.8804 133.364Z" fill="#B3B3B3"/>
<path d="M57.2031 138.58C57.2822 138.053 57.3349 137.526 57.449 137.008C57.5807 136.384 57.7651 135.779 57.9319 135.164C58.0549 134.321 58.1778 133.469 58.3183 132.477C60.1886 134.014 58.5466 135.445 58.5115 136.841C58.3359 137.245 58.1602 137.658 57.9934 138.062C57.73 138.228 57.4665 138.404 57.2031 138.571V138.58Z" fill="#8E8E8E"/>
<path d="M58.1253 114.345C58.7224 115.205 59.3458 116.057 59.899 116.944C60.0044 117.111 59.9253 117.523 59.7848 117.673C59.6444 117.813 59.1263 117.848 59.0736 117.76C58.5029 116.759 57.9848 115.732 57.4492 114.705L58.1166 114.345H58.1253Z" fill="#BABABA"/>
<path d="M13.0894 331.771C14.5645 331.912 16.1362 331.332 17.5236 332.333C17.5763 332.368 18.1646 331.666 18.507 331.314C18.6475 331.587 18.7792 331.859 18.9197 332.131C18.9109 332.816 18.8934 333.501 18.8846 334.186C18.5685 334.704 18.2612 335.222 17.8046 335.986C17.6114 335.45 17.5236 335.152 17.3919 334.879C17.146 334.379 16.9529 333.808 16.5753 333.448C16.4436 333.325 15.5041 333.685 15.4689 333.914C15.3811 334.44 15.469 335.125 15.7587 335.564C16.3119 336.407 17.0582 337.127 17.7256 337.9C17.5412 338.883 17.2251 339.235 16.2943 338.409C15.785 337.961 15.0123 337.821 14.3626 337.54L14.2923 337.593C14.1343 336.679 13.9762 335.766 13.8094 334.853C13.625 334.844 13.4318 334.827 13.2474 334.818C13.5899 334.449 13.9411 334.08 14.4504 333.545C13.8533 333.352 13.4318 333.22 13.0104 333.088C12.8874 332.93 12.7557 332.763 12.6328 332.605C12.7909 332.324 12.9489 332.052 13.1157 331.771H13.0894Z" fill="#BCBCBC"/>
<path d="M13.089 331.771C12.9309 332.052 12.7729 332.324 12.6061 332.605C10.5075 332.052 9.31334 330.612 9.17285 328.294C10.1299 329.075 10.9992 329.787 11.8597 330.489C12.2636 330.919 12.6763 331.341 13.0802 331.771H13.089Z" fill="#ECECEC"/>
<path d="M55.0954 141.819C54.9988 142.68 54.7705 143.549 54.8495 144.392C54.9812 145.78 55.3061 147.141 55.5519 148.519C54.1383 151.18 51.9607 153.12 49.5196 154.788C49.1684 155.026 48.5187 154.815 48.0006 154.815C47.8689 154.551 47.7372 154.279 47.6055 154.016C48.7294 152.593 51.4251 152.936 51.75 150.31C51.0299 150.117 50.3889 149.933 49.7392 149.757C49.985 149.476 50.4065 148.923 50.4504 148.958C53.0582 150.6 53.1461 147.729 54.5334 146.86C52.6719 145.024 53.5675 142.961 53.7256 140.977C54.1822 141.258 54.6388 141.539 55.0866 141.828L55.0954 141.819Z" fill="#ACACAC"/>
<path d="M53.0499 162.691C52.7075 163.095 52.3739 163.508 52.0314 163.912C50.7231 164.07 49.4235 164.237 48.1152 164.395C49.3006 163.639 51.1445 163.042 48.8791 161.4L48.9142 161.444C48.8089 160.162 49.0196 159.249 50.5826 158.872C52.128 158.494 52.0665 157.458 50.6177 156.352C52.488 156.914 53.5505 158.678 53.2958 160.241C53.1641 161.049 53.1202 161.875 53.0412 162.691H53.0499Z" fill="#292929"/>
<path d="M17.2072 324.589C16.9262 323.087 16.654 321.594 16.373 320.093C16.8033 319.794 17.2248 319.505 17.655 319.206C17.7955 320.567 17.936 321.937 18.0765 323.298C18.3575 324 18.6385 324.703 18.9195 325.405C18.3487 325.133 17.778 324.861 17.2072 324.589Z" fill="#BABABA"/>
<path d="M18.0758 323.298C17.9353 321.937 17.7948 320.576 17.6543 319.206C17.6543 318.942 17.6543 318.679 17.6543 318.407C18.6992 317.713 18.9977 318.205 19.1382 319.241C19.2173 319.82 19.5597 320.365 19.7792 320.927C18.2162 321.12 19.1119 322.261 18.9714 323.008C18.6816 323.104 18.3831 323.201 18.0933 323.289L18.0758 323.298Z" fill="#606060"/>
<path d="M50.96 173.096C51.9083 174.729 51.2673 175.756 49.6867 176.415C48.8614 176.968 48.0272 177.53 47.2019 178.083C47.0702 177.521 46.9384 176.968 46.8067 176.406V173.149C46.7014 173.131 46.5872 173.105 46.4818 173.087C46.1482 173.684 45.8233 174.281 45.2701 175.274C44.673 174.518 44.2603 173.974 43.8389 173.438C44.2516 172.481 44.6642 171.524 45.0681 170.567C45.2437 170.567 45.4194 170.585 45.595 170.593C45.6916 170.953 45.7969 171.305 45.9199 171.744C46.6487 170.471 47.2896 169.355 47.9306 168.24C47.4828 170.971 48.3784 172.56 50.96 173.087V173.096Z" fill="#9D9D9D"/>
<path d="M50.9597 173.096C48.387 172.561 47.4913 170.972 47.9304 168.25C47.2894 169.365 46.6484 170.48 45.9196 171.753C45.7967 171.314 45.6913 170.954 45.5947 170.603C45.9899 169.479 46.385 168.364 46.7713 167.24C47.4738 167.205 48.185 167.17 48.984 167.126C49.0631 166.73 49.1684 166.248 49.3792 165.229C50.1782 165.949 50.6875 166.362 51.1441 166.836C51.5568 167.257 51.908 167.731 52.2856 168.188C51.8378 169.821 51.3987 171.463 50.9509 173.096H50.9597Z" fill="#777777"/>
<path d="M47.2015 178.093C48.0269 177.539 48.861 176.977 49.6864 176.424C50.1342 176.969 50.5908 177.513 51.0386 178.058C50.4152 178.233 49.783 178.4 49.2561 178.549C49.5547 179.664 49.8444 180.753 50.1342 181.842C49.7039 181.965 49.2649 182.088 48.8347 182.211C48.7908 180.446 47.781 180.946 46.8415 181.482C46.341 180.885 45.9195 180.376 45.498 179.866C46.06 179.278 46.6307 178.69 47.1927 178.101L47.2015 178.093Z" fill="#949494"/>
<path d="M52.2859 168.188C51.9083 167.731 51.5571 167.257 51.1444 166.836C50.6878 166.37 50.1785 165.949 49.3795 165.229C49.1688 166.247 49.0634 166.73 48.9844 167.125C48.1765 167.169 47.4741 167.204 46.7716 167.239C46.4819 167.239 46.1921 167.239 45.9023 167.239C46.1833 166.3 46.4643 165.36 46.7453 164.421C47.2019 164.412 47.6585 164.403 48.1151 164.386C49.4234 164.228 50.7229 164.061 52.0313 163.903C52.1191 165.325 52.2069 166.757 52.2947 168.179L52.2859 168.188Z" fill="#B7B7B7"/>
<path d="M23.0543 312.129C24.7138 312.708 24.8719 314.043 24.7489 315.518C24.4855 316.159 24.2221 316.809 23.9586 317.45C23.8006 317.424 23.6426 317.406 23.4845 317.38V314.983C23.1947 314.315 22.905 313.639 22.6064 312.972C22.7557 312.691 22.905 312.41 23.0455 312.129H23.0543Z" fill="#D8D8D8"/>
<path d="M18.963 323.017C19.1035 322.271 18.2079 321.129 19.7708 320.936C20.0255 320.936 20.2802 320.936 20.5348 320.936C20.965 320.787 21.3865 320.646 21.8167 320.497C21.9484 321.322 22.0802 322.148 22.2119 322.973C21.7992 322.973 21.3777 322.973 20.965 322.982C20.2977 322.991 19.6304 323.008 18.963 323.017Z" fill="#E1E1E1"/>
<path d="M14.335 337.549C14.9847 337.83 15.7662 337.97 16.2667 338.418C17.1975 339.243 17.5136 338.892 17.698 337.909C18.5058 337.206 19.3048 336.504 20.1126 335.801C20.3146 337.513 19.9107 339.068 18.9097 340.464C18.3653 340.253 17.8121 340.042 16.7936 339.656C17.136 340.92 17.3731 341.772 17.6102 342.624C16.4687 343.001 15.6433 342.817 15.3448 341.465C15.055 340.148 14.6774 338.848 14.3438 337.549H14.335Z" fill="#A2A2A2"/>
<path d="M28.6043 275.531C27.4716 275.294 26.1545 274.583 26.1369 277.121C25.8647 276.787 25.5837 276.462 25.3115 276.128C25.7593 275.452 26.0667 274.495 26.6901 274.197C27.1818 273.968 28.0599 274.557 28.7624 274.785C28.7097 275.031 28.6569 275.277 28.6043 275.531Z" fill="#4D4D4D"/>
<path d="M24.7228 271.782C24.8984 272.379 25.3023 273.011 25.2057 273.555C25.0213 274.644 24.5648 275.68 24.1433 276.989C23.1687 275.004 24.1433 273.397 24.7404 271.773L24.7228 271.782Z" fill="#515151"/>
<path d="M37.2265 219.335C37.2265 218.764 37.2265 218.202 37.2265 217.631C37.7797 217.649 38.5085 217.447 38.8597 217.719C39.931 218.571 40.853 219.616 41.8276 220.582C41.2569 222.452 40.3437 223.453 38.3592 222.057C38.0519 221.846 37.5689 221.881 37.165 221.802C37.1826 220.977 37.2002 220.16 37.2178 219.335H37.2265Z" fill="#585858"/>
<path d="M37.2261 219.335C37.2086 220.161 37.191 220.977 37.1735 221.803C36.4271 223.006 35.6105 222.514 34.7939 221.89C35.3471 220.793 34.8729 218.721 37.2261 219.335Z" fill="#989898"/>
<path d="M37.9469 225.332C37.6571 226.28 37.4025 227.255 36.9986 228.159C36.9635 228.238 35.9976 227.914 35.5322 227.799C36.2786 226.798 36.823 226.061 37.3674 225.332C37.5606 225.332 37.7537 225.332 37.9381 225.332H37.9469Z" fill="#878787"/>
<path d="M33.9248 220.582C34.1794 220.845 34.4428 221.1 34.6975 221.364C34.434 221.478 34.1707 221.592 33.916 221.706C33.916 221.337 33.9248 220.96 33.9335 220.591L33.9248 220.582Z" fill="#5D5D5D"/>
<path d="M26.3558 300.468C26.6017 300.485 26.8476 300.494 27.0934 300.512C27.3569 301.355 27.8925 302.233 27.8222 303.04C27.6379 304.928 26.0398 304.63 24.7314 304.682C24.7314 304.252 24.7314 303.822 24.7314 303.392H26.11C26.2154 302.189 26.2856 301.328 26.3558 300.468Z" fill="#A7A7A7"/>
<path d="M24.7231 303.392C24.7231 303.822 24.7231 304.253 24.7231 304.683C24.5738 306.351 23.6079 305.174 23.1777 304.999C22.7298 304.823 22.4665 304.2 22.1152 303.77C22.6069 303.655 23.0987 303.55 23.7484 303.41C23.5113 302.953 23.2831 302.505 23.0548 302.066C23.1601 301.97 23.2743 301.864 23.3796 301.768C23.8275 302.312 24.2665 302.856 24.7143 303.401L24.7231 303.392Z" fill="#858585"/>
<path d="M36.0325 211.02C36.5857 209.72 37.7623 209.764 38.8863 209.694C39.6853 211.116 38.8423 212.943 37.3409 212.916C36.5418 212.908 35.7516 212.67 34.9525 212.539C34.7418 212.284 34.5398 212.021 34.3291 211.766C34.8911 211.52 35.4618 211.266 36.0238 211.02H36.0325Z" fill="#999999"/>
<path d="M43.127 214.163C43.0655 215.287 43.0128 216.411 42.9513 217.588C41.1425 217.763 42.2225 212.512 39.0352 215.542C39.3161 214.312 40.6801 213.853 43.127 214.163Z" fill="#939393"/>
<path d="M49.7484 149.748C50.3894 149.924 51.0304 150.099 51.7592 150.301C51.4343 152.927 48.7474 152.584 47.6147 154.007C47.483 153.963 47.3513 153.919 47.2195 153.884C45.7532 152.497 45.1386 151.03 46.6839 149.415C47.7727 149.537 48.765 149.643 49.7572 149.757L49.7484 149.748Z" fill="#D8D8D8"/>
<path d="M55.0952 141.819C54.6386 141.538 54.1908 141.257 53.7342 140.968C53.6551 140.968 53.5761 140.95 53.4971 140.941C53.4971 140.836 53.4795 140.731 53.4795 140.625C53.6112 140.151 53.7341 139.668 53.9888 138.737C53.9185 138.492 53.699 137.675 53.4707 136.858C54.858 137.113 56.2717 137.324 57.2025 138.579C57.4659 138.413 57.7293 138.237 57.9928 138.07C57.9928 138.544 58.0015 139.422 57.9664 139.422C56.3244 139.528 55.701 140.485 55.6922 142.004C55.4991 141.942 55.2971 141.881 55.1039 141.811L55.0952 141.819Z" fill="#E4E4E4"/>
<path d="M48.0975 144.375C49.0809 143.049 50.1609 142.021 51.9434 143.084C51.8029 143.672 52.3649 144.875 50.8195 144.19C50.3541 143.988 49.6253 144.375 49.0194 144.498C48.8614 144.726 48.6945 144.954 48.5365 145.191C49.1072 145.411 49.6692 145.63 50.477 145.938C49.9063 146.324 49.6429 146.658 49.3882 146.649C47.7989 146.587 48.0975 145.384 48.0975 144.383V144.375Z" fill="#A4A4A4"/>
<path d="M45.5685 191.009C45.8232 191.86 46.0778 192.712 46.3237 193.564C44.5325 194.17 46.4115 194.617 46.3939 195.144C45.7002 195.285 45.0066 195.434 44.3129 195.575C43.6368 194.898 42.9607 194.222 42.2846 193.546C41.9948 193.019 41.7051 192.493 41.6875 192.449C42.2582 191.14 42.6622 190.227 43.0661 189.305C43.7597 189.437 44.4534 189.577 45.1471 189.709C45.2876 190.139 45.4368 190.57 45.5773 191L45.5685 191.009Z" fill="#848484"/>
<path d="M42.2842 193.555C42.9603 194.231 43.6364 194.907 44.3125 195.584C44.6989 196.751 46.9029 196.971 45.9985 198.806C45.2433 198.525 44.4794 198.27 43.7418 197.954C43.1184 197.691 42.2667 196.918 41.9769 197.103C40.4052 198.112 40.0539 196.655 39.3076 195.987L39.29 196.005C40.2998 195.952 41.3008 195.908 42.9164 195.829C42.0559 195.188 41.7223 194.943 41.3886 194.697C41.6872 194.31 41.9857 193.942 42.2754 193.564L42.2842 193.555Z" fill="#6B6B6B"/>
<path d="M45.5864 203.486C45.0947 202.757 44.5942 202.037 44.1025 201.308C43.9708 201.378 43.8303 201.44 43.6986 201.51V203.512C42.7415 202.862 41.8547 202.274 40.4849 201.352C40.722 202.441 40.8098 202.845 41.003 203.732C39.6947 202.81 38.6322 202.213 37.8507 201.361C37.6751 201.176 38.5268 200.053 38.9044 199.359C39.5366 199.131 40.1776 198.902 40.5113 198.788C42.0918 199.675 43.4879 200.465 44.8752 201.247C44.9016 200.992 44.9279 200.737 44.9543 200.474L46.7543 200.096C46.3679 201.229 45.9728 202.362 45.5864 203.495V203.486Z" fill="#717171"/>
<path d="M46.7537 200.088L44.9537 200.465C44.9274 200.72 44.901 200.975 44.8747 201.238C43.4786 200.457 42.0912 199.666 40.5107 198.78C40.1771 198.902 39.5361 199.131 38.9039 199.35C38.9126 198.955 38.9214 198.551 38.9302 198.156C38.5263 197.805 38.1312 197.462 37.4375 196.857C38.2102 196.497 38.7633 196.242 39.3165 195.987C40.0629 196.655 40.4141 198.112 41.9859 197.102C42.2668 196.918 43.1273 197.682 43.7507 197.954C44.4883 198.27 45.2522 198.525 46.0074 198.806C46.262 199.236 46.5167 199.658 46.7625 200.088H46.7537Z" fill="#ABABAB"/>
<path d="M18.5415 330.164C18.3571 329.98 18.1727 329.804 17.9971 329.62C18.4361 328.522 18.8751 327.416 19.3054 326.318C20.2712 325.598 21.2371 324.878 21.8693 324.413C22.7386 324.501 23.3093 324.562 23.8888 324.624L24.3455 325.089C23.6606 325.432 22.9669 325.774 21.9308 326.292C21.8957 326.652 22.0362 327.636 21.6674 328.364C21.3074 329.076 20.4381 329.532 19.4898 330.375C19.5425 330.384 19.042 330.279 18.5327 330.173L18.5415 330.164Z" fill="#D5D5D5"/>
<path d="M26.4449 263.44C26.682 263.44 26.919 263.44 27.1561 263.44C28.0166 264.564 28.8683 265.679 29.7288 266.795V266.777C27.8673 266.417 26.1727 265.89 26.4449 263.432V263.44Z" fill="#323232"/>
<path d="M45.5684 191.009C45.4279 190.579 45.2787 190.148 45.1382 189.718C45.147 189.358 45.2874 188.752 45.1382 188.682C43.8913 188.032 43.1538 187.505 44.6114 186.153C45.4543 185.363 45.8582 184.099 46.4553 183.045C46.7275 183.098 46.9997 183.15 47.2719 183.194C47.3684 183.695 47.3158 184.292 47.588 184.661C48.027 185.275 48.6768 185.741 49.2387 186.267C49.388 186.987 49.5461 187.707 49.6953 188.427C48.826 188.77 47.9217 189.051 47.0963 189.49C46.7626 189.674 46.6133 190.201 46.385 190.579C46.104 190.728 45.8319 190.868 45.5509 191.018L45.5684 191.009Z" fill="#9E9E9E"/>
<path d="M20.1218 335.801C19.314 336.504 18.5149 337.206 17.7071 337.909C17.0398 337.136 16.3022 336.416 15.7403 335.573C15.4505 335.134 15.3627 334.449 15.4505 333.922C15.4856 333.694 16.4339 333.334 16.5569 333.457C16.9432 333.817 17.1364 334.388 17.3735 334.888C17.5052 335.16 17.593 335.459 17.7862 335.995C18.2428 335.231 18.5589 334.713 18.8662 334.195C19.2789 334.73 19.6915 335.266 20.1042 335.81L20.1218 335.801Z" fill="#747474"/>
<path d="M49.2559 186.276C48.694 185.749 48.0442 185.284 47.6052 184.669C47.333 184.3 47.3856 183.695 47.2891 183.203C47.8071 182.869 48.3252 182.535 48.8345 182.202C49.2647 182.079 49.7037 181.956 50.134 181.833C50.2569 182.079 50.3886 182.325 50.5115 182.562C50.0901 183.8 49.6686 185.029 49.2471 186.267L49.2559 186.276Z" fill="#656565"/>
<path d="M47.2011 178.093C46.6392 178.681 46.0684 179.269 45.5064 179.857C45.2518 179.41 44.9884 178.953 44.7338 178.505C45.1991 178.215 45.6645 177.917 45.9718 177.733C44.8918 176.626 43.9874 175.704 43.083 174.782C44.3299 175.327 45.5767 175.88 46.8148 176.424C46.9465 176.986 47.0782 177.539 47.2099 178.101L47.2011 178.093Z" fill="#6C6C6C"/>
<path d="M46.807 176.415C45.5601 175.871 44.3133 175.318 43.0752 174.773C43.1015 174.325 43.1191 173.878 43.1455 173.43C43.3738 173.43 43.6108 173.439 43.8391 173.447C44.2606 173.983 44.6821 174.527 45.2704 175.283C45.8148 174.29 46.1484 173.693 46.4821 173.096C46.5875 173.114 46.7016 173.14 46.807 173.158V176.415Z" fill="#C9C9C9"/>
<path d="M45.9108 167.249C46.2005 167.249 46.4903 167.249 46.78 167.249C46.3849 168.372 45.9898 169.488 45.5947 170.612C45.4191 170.612 45.2434 170.594 45.0678 170.585C44.9273 170.076 44.7781 169.575 44.6025 168.952C44.3303 169.488 44.1195 169.874 43.9175 170.269C43.7771 169.83 43.6454 169.4 43.5049 168.961C44.3039 168.39 45.1029 167.819 45.902 167.249H45.9108Z" fill="#9F9F9F"/>
<path d="M43.926 170.26C44.128 169.865 44.3387 169.47 44.6109 168.943C44.7865 169.567 44.927 170.067 45.0763 170.577C44.6636 171.534 44.2509 172.491 43.847 173.448C43.6187 173.448 43.3816 173.439 43.1533 173.43C43.4167 172.377 43.6714 171.323 43.9348 170.269L43.926 170.26Z" fill="#4D4D4D"/>
<path d="M23.8887 324.623C23.3092 324.562 22.7385 324.5 21.8692 324.413C21.237 324.887 20.2711 325.598 19.3052 326.318C19.2526 326.204 19.2438 326.081 19.2789 325.958C19.8408 324.966 20.394 323.974 20.956 322.973C21.3687 322.973 21.7902 322.973 22.2028 322.964C22.7648 323.517 23.3268 324.07 23.8887 324.623Z" fill="#898989"/>
<path d="M48.8875 137.253C49.388 137.57 50.0026 137.78 50.3626 138.211C50.8368 138.79 51.109 139.536 51.469 140.212C51.5831 140.669 51.7061 141.134 51.8641 141.749C51.1704 141.749 50.4504 141.819 49.7567 141.732C49.0894 141.644 48.4484 141.398 47.6055 141.161C47.7547 139.861 47.8777 138.597 48.0709 137.35C48.0796 137.28 48.6065 137.28 48.8963 137.253H48.8875Z" fill="#A1A1A1"/>
<path d="M46.3848 190.561C47.1838 190.719 47.9917 190.885 48.7907 191.043C48.6327 191.649 48.4746 192.255 48.3165 192.852C48.0531 192.914 47.7897 192.984 47.5263 193.045C47.1487 192.22 46.7711 191.386 46.3848 190.561Z" fill="#9E9E9E"/>
<path d="M29.7368 266.794C28.8763 265.679 28.0246 264.555 27.1641 263.44C27.7436 263.019 28.3143 262.606 28.8938 262.185C29.1748 263.721 29.4558 265.258 29.7368 266.794Z" fill="#636363"/>
<path d="M19.2794 325.967C19.2443 326.09 19.2531 326.205 19.3058 326.327C18.8667 327.425 18.4277 328.531 17.9975 329.629C16.3116 330.788 15.0647 329.84 14.2832 328.531C13.37 327.012 14.3008 325.827 15.6706 325.063C16.1272 324.808 16.6979 324.747 17.2072 324.598C17.7779 324.87 18.3487 325.142 18.9194 325.414C19.0423 325.599 19.1565 325.783 19.2794 325.967Z" fill="#2A2A2A"/>
<path d="M19.2791 325.967C19.1562 325.783 19.0421 325.599 18.9191 325.414C18.6382 324.712 18.3572 324.009 18.0762 323.307C18.3659 323.21 18.6645 323.114 18.9542 323.026C19.6216 323.017 20.2889 323 20.9562 322.991C20.3943 323.983 19.8411 324.975 19.2791 325.976V325.967Z" fill="#D5D5D5"/>
</svg>
