<svg width="122" height="381" viewBox="0 0 122 381" fill="none" xmlns="http://www.w3.org/2000/svg">
<path d="M56.0054 39.0828C55.6542 38.7316 60.8345 14.0581 61.2738 5.71642C61.3838 3.62652 64.589 1.72662 65.7904 1.3261C67.1075 0.886996 70.6623 0.895624 72.8149 1.3261C75.01 1.76511 78.5223 2.20417 80.2784 3.52126C82.0345 4.83836 84.5425 8.35053 82.7863 24.5947C81.0302 40.8389 83.2254 41.2779 82.7863 41.7169C82.3473 42.156 80.5912 44.7902 80.1521 48.3024C79.7131 51.8147 78.396 57.5222 78.396 60.5954C95.5182 63.2296 101.791 79.0347 101.791 87.3763C101.791 95.7179 93.7621 106.255 93.3231 107.572C92.8841 108.889 113.519 322.91 116.592 325.219C119.665 327.527 120.982 333.56 120.982 336.633C120.982 339.707 115.714 345.414 114.836 345.853C114.133 346.204 113.08 355.512 111.323 359.902C111.323 359.902 109.129 373.299 108.689 375.82C108.44 377.25 98.1529 375.933 98.1529 375.933C97.1268 374.729 97.6863 357.004 96.9839 355.951C96.1058 354.634 94.7887 350.243 94.7887 348.487C94.7887 346.731 94.3497 342.341 94.7887 341.463C95.2277 340.585 93.4716 339.707 92.5936 337.072C91.7155 334.438 92.1545 327.414 92.5936 326.536C93.0326 325.658 89.9594 325.658 90.3984 325.219C90.8374 324.78 73.6927 186.924 73.6927 185.606C73.6927 184.289 75.0098 182.533 75.4488 181.655C75.8879 180.777 73.6702 151.362 73.2312 150.484C72.7922 149.606 71.9141 149.167 71.4751 148.289C71.036 147.411 69.6154 127.767 68.7373 127.328C67.8592 126.889 65.7901 146.094 65.3511 146.972C64.9121 147.85 64.034 148.728 63.595 149.606C63.1559 150.484 57.0095 180.777 57.4485 181.655C57.8876 182.533 59.6437 182.972 60.0827 184.289C60.5218 185.606 29.7895 340.585 29.3505 341.463C28.9993 342.165 26.57 351.999 25.3992 356.829C24.3748 363.122 22.1504 378.542 21.4479 378.893C20.5699 379.332 10.7847 378.454 10.3457 377.576C9.90669 376.698 11.2238 355.073 11.2238 354.195C11.2238 353.317 10.7847 352.439 10.3457 351.999C9.90669 351.56 6.83346 339.707 6.39443 338.828C5.9554 337.95 5.51637 338.389 3.32173 337.072C0.248503 334.877 0.687535 325.219 2.00463 323.023C3.32173 320.828 8.15108 316.438 9.02914 313.804C9.9072 311.169 44.5903 105.703 44.1513 104.386C43.7123 103.068 35.3707 94.2878 38.8829 78.9217C42.3952 63.5556 57.8314 61.5382 58.6396 60.5954C61.2738 57.5222 57.7617 43.0341 57.7617 42.1561C57.7617 41.278 56.4444 39.5219 56.0054 39.0828Z" stroke="#B10B3A" stroke-width="2"/>
</svg>
