<svg width="120" height="379" viewBox="0 0 120 379" fill="none" xmlns="http://www.w3.org/2000/svg">
<path d="M48.7215 98.2124C48.7918 98.6514 48.862 99.0904 48.9235 99.5294C48.8093 99.5909 48.6864 99.6524 48.5722 99.7138C47.58 97.9577 46.6054 96.1928 45.5868 94.4542C41.3546 87.1575 44.1819 77.4988 48.3966 71.9495C52.9011 66.0225 58.9422 63.4674 65.9579 62.3698C66.5199 62.282 67.3628 61.4478 67.3892 60.921C67.5384 58.2253 67.4594 55.5209 67.4594 52.6496C64.8779 52.5794 64.9218 50.8935 64.8779 48.9618C64.8252 46.4681 64.4125 43.9744 64.0613 41.4982C63.991 41.0065 63.4554 40.6026 63.192 40.1284C62.9198 39.6192 62.4895 39.066 62.5159 38.5479C62.7705 32.902 63.0954 27.256 63.4027 21.6189C63.6486 17.2198 63.9647 12.8294 64.1315 8.43035C64.2896 4.12784 65.1764 3.22343 69.3999 3.46051C71.0331 3.54831 72.6575 3.63612 74.2907 3.69759C77.0566 3.81173 78.3649 5.31322 78.2771 8.07034C77.9786 17.4217 77.724 26.7819 77.4869 36.1333C77.4606 37.0113 77.6801 37.8894 77.7591 38.7762C77.7854 39.1099 77.882 39.5665 77.7064 39.7684C74.9844 42.9207 75.1336 46.8193 74.9756 50.5862C74.8966 52.5179 73.9658 52.8867 72.5521 52.6409C72.2887 55.2399 72.0692 57.8302 71.7619 60.4029C71.5687 62.0186 72.078 62.4576 73.8078 62.8088C84.4148 64.9425 92.5896 71.1592 94.5389 83.5663C96.0316 93.0581 90.9476 101.839 83.7474 106.694C86.5748 107.072 86.9436 109.171 87.1807 111.12C87.4266 113.131 87.2334 115.185 87.2334 117.565C87.3827 116.906 87.4705 116.546 87.5846 116.055C87.7076 116.292 87.7866 116.388 87.7954 116.485C88.1817 121.112 88.5417 125.74 88.9368 130.358C89.2002 133.467 89.411 136.584 89.8325 139.675C90.491 144.469 91.3778 149.228 92.0364 154.022C92.4403 156.937 92.5983 159.888 92.8705 162.82C92.9847 164.041 93.1428 165.261 93.2218 166.482C93.5379 171.057 93.7574 175.64 94.1437 180.215C94.5389 184.886 95.0745 189.549 95.5838 194.211C96.1896 199.831 96.8219 205.45 97.4628 211.061C98.1653 217.234 98.9292 223.389 99.6053 229.562C100.194 234.98 100.659 240.415 101.239 245.832C101.888 251.926 102.582 258.02 103.302 264.105C103.987 269.891 104.76 275.669 105.418 281.464C105.892 285.661 106.156 289.876 106.674 294.073C107.069 297.269 107.745 300.43 108.202 303.627C108.324 304.478 108.061 305.383 107.973 306.261C108.07 307.472 108.044 308.719 108.316 309.887C108.57 310.985 109.159 312.003 109.598 313.057C109.694 313.751 109.791 314.453 109.887 315.147C109.624 315.709 109.132 316.271 109.15 316.824C109.211 318.966 109.422 321.1 109.615 323.234C109.668 323.769 109.879 324.287 110.01 324.805C110.546 325.561 110.985 326.404 111.626 327.053C115.235 330.715 116.069 334.517 113.61 338.977C112.715 340.611 110.845 341.708 109.422 343.06C108.36 342.92 107.288 342.788 106.226 342.648C104.013 342.595 101.985 342.63 100.273 340.514C98.2531 338.012 96.4706 335.614 96.6199 332.251C97.5945 330.021 98.5692 327.8 99.5438 325.569C100.475 325.051 101.405 324.542 102.345 324.024C101.467 322.47 102.046 321.706 103.644 321.442C104.101 321.363 104.54 321.161 104.988 321.021C105.875 320.951 106.77 320.872 108.122 320.766C107.894 319.177 107.64 317.403 107.385 315.63C107.148 314.497 106.902 313.356 106.665 312.223C106.516 310.432 106.366 308.632 106.217 306.84C106.156 306.094 106.156 305.339 106.033 304.61C105.883 303.749 106.112 302.538 104.593 302.661C104.593 302.371 104.593 302.081 104.593 301.791C105.892 300.948 106.041 299.833 105.383 298.516C105.251 297.41 105.111 296.304 104.979 295.197C104.9 293.766 105.067 292.264 104.681 290.912C103.96 288.392 102.916 285.96 102.002 283.484C102.477 282.254 102.96 281.025 103.434 279.796C103.917 277.337 102.529 275.968 100.817 275.046V267.284C100.835 267.029 100.843 266.765 100.861 266.511C100.729 265.65 100.606 264.79 100.475 263.938C101.888 262.77 100.668 261.708 100.343 260.601L100.369 258.556C100.633 258.204 101.133 257.836 101.107 257.511C100.993 256.167 100.782 254.833 100.475 253.515C100.378 253.094 99.8951 252.76 99.579 252.392C99.8424 251.645 100.097 250.908 100.36 250.161C100.229 249.037 100.167 247.905 99.9477 246.789C99.8072 246.061 99.4472 245.376 99.175 244.673C99.1487 243.163 99.1224 241.662 99.096 240.151C98.9907 239.071 98.894 237.991 98.7887 236.911C98.4726 235.647 98.1652 234.382 97.8491 233.127C99.658 232.53 97.7175 231.371 98.2268 230.58C98.1477 228.982 98.5253 227.217 96.655 226.269C98.2794 225.575 97.2433 224.232 97.4014 223.178C97.2784 222.748 97.1555 222.309 97.0325 221.879C96.9184 220.281 96.8833 218.674 96.655 217.093C96.3038 214.661 95.8296 212.255 95.3994 209.832C95.2764 207.865 95.1447 205.907 95.0218 203.94C95.0042 203.677 94.9867 203.422 94.9691 203.158C94.5389 198.715 94.1174 194.281 93.6871 189.838C93.5993 189.364 93.5115 188.881 93.4237 188.407C93.213 186.502 93.011 184.596 92.8003 182.691C92.5193 179.969 92.2471 177.238 91.9662 174.516C91.9837 174.2 92.0013 173.884 92.0188 173.559C91.8783 172.321 91.7378 171.074 91.5973 169.836C91.492 167.957 91.4657 166.069 91.2461 164.199C91.0442 162.478 90.6227 160.783 90.2978 159.08L89.4988 155.673C90.9564 154.154 88.9632 153.46 88.7085 152.345C88.9983 152.169 89.5251 152.011 89.5427 151.818C89.6042 151.01 89.5075 150.194 89.4636 149.377C89.0334 146.076 88.6032 142.774 88.1729 139.473C87.8305 136.97 87.4793 134.468 87.1368 131.965C87.2334 131.781 87.4266 131.596 87.409 131.429C86.8734 126.065 86.3466 120.7 85.767 115.335C85.53 113.113 85.17 110.909 84.7836 108.02C82.1758 108.89 79.9542 109.636 77.5835 110.435C77.1971 109.785 76.723 108.995 76.2576 108.213C77.0215 108.424 77.7766 108.635 78.5405 108.837C78.6196 108.696 78.6986 108.556 78.7776 108.424C78.0752 107.836 77.3815 107.239 76.5649 106.554C77.7678 105.948 78.8128 105.492 79.7786 104.903C80.5689 104.42 81.2537 103.762 81.9913 103.191C84.3357 102.164 84.2568 100.241 83.8441 98.1948C83.7914 96.4211 83.7299 94.6562 83.6772 92.8825C84.0899 93.102 84.6782 93.2162 84.8802 93.5586C85.1787 94.0503 85.1962 94.7089 85.3367 95.2884C85.1523 97.5362 84.968 99.7841 84.7748 102.111C92.0188 95.104 94.8725 87.1663 89.8237 77.4462C90.3856 78.3506 90.9564 79.2637 91.5183 80.1681C91.413 79.1847 91.1407 78.2891 90.772 77.4286C89.8412 75.2598 89.2266 72.8275 87.8217 71.0099C85.047 67.4011 80.7884 65.5923 76.679 64.2752C72.5082 62.9405 68.0126 62.5981 63.5169 63.7571C62.0154 64.1435 60.4612 65.5835 59.7675 65.4255C56.7646 64.7318 55.4036 67.0587 53.3928 68.1387C52.9977 68.3494 52.7079 68.7797 52.3742 69.1045C52.4445 69.166 52.5235 69.2275 52.5938 69.2889C53.8582 68.5865 55.1138 67.884 56.3782 67.1904C55.6406 68.4021 54.6836 69.2802 53.6913 70.1055C49.5996 73.5124 47.2902 77.9291 46.2102 83.0745C45.218 87.8161 46.5088 92.1801 48.344 96.465L48.7215 98.2124ZM104.83 342.288C105.664 341.735 107.016 341.155 106.963 340.83C106.665 339.179 106.121 337.546 105.383 336.045C105.207 335.676 103.952 335.676 103.24 335.808C102.916 335.869 102.714 336.633 102.415 337.142C103.293 337.599 104.435 338.187 105.927 338.96C104.97 339.557 104.54 339.829 104.083 340.119C104.303 340.769 104.496 341.331 104.83 342.288ZM70.1111 52.7287C69.9794 52.7287 69.8565 52.7462 69.7248 52.755V61.4478C69.8565 61.4478 69.9794 61.4478 70.1111 61.4478V52.7287ZM107.262 328.713L107.789 328.125C107.446 327.65 107.104 327.185 106.726 326.667C107.49 326.72 108.061 326.755 108.632 326.799C108.641 326.535 108.658 326.263 108.667 326H104.856C105.875 327.15 106.577 327.931 107.271 328.713H107.262Z" fill="#272727"/>
<path d="M68.7939 108.661C70.7081 108.081 72.6223 107.502 74.5365 106.914C76.3277 110.847 75.5902 112.981 71.5599 115.325C71.9901 115.984 72.7013 116.607 72.7891 117.301C73.3072 121.498 73.6847 125.713 74.1062 129.919C74.2379 131.71 74.3696 133.501 74.5014 135.293C74.7823 136.136 75.0633 136.97 75.3355 137.813V146.312C77.4868 146.962 78.2331 148.376 78.3297 150.246C78.2331 150.843 78.1365 151.431 78.0136 152.16C78.5317 152.371 79.0848 152.59 79.6468 152.819C78.7951 154.03 78.7775 156.911 79.559 159.843C79.6995 162.741 79.8488 165.638 79.9893 168.527L79.6117 170.635C78.9005 166.13 78.2331 161.617 77.4604 157.13C76.9951 154.434 76.477 151.73 75.7043 149.113C75.4497 148.253 74.3433 147.638 73.676 146.962C73.3687 143.257 73.1228 139.463 72.7189 135.679C72.1393 130.191 71.5159 124.712 70.7696 119.242C70.5062 117.292 69.7598 115.413 69.3822 113.473C69.0749 111.883 68.9871 110.259 68.8027 108.643L68.7939 108.661Z" fill="#292929"/>
<path d="M100.791 267.283V275.045C102.494 275.967 103.89 277.337 103.407 279.795C102.503 279.347 101.502 278.425 100.712 278.575C99.9303 278.733 99.3596 279.962 98.385 281.077C98.0689 279.593 97.8318 278.46 97.5596 277.178C96.7254 277.679 96.0581 278.074 95.3469 278.504C95.7771 279.049 96.1108 279.453 96.5059 279.953C95.4873 280.34 94.6093 280.682 93.7225 281.024C93.2044 280.252 92.6951 279.479 92.1771 278.706C91.9927 278.803 91.8083 278.891 91.6239 278.987C91.738 280.664 91.861 282.35 91.9575 284.027C92.0014 284.835 92.0102 285.643 92.0365 286.442C92.1595 287.689 92.2824 288.936 92.4054 290.174C92.5634 290.437 92.7214 290.692 92.8795 290.955C92.5897 291.421 92.3 291.886 92.0102 292.351C91.6327 290.595 91.2551 288.839 90.8161 286.837C90.7107 287.303 90.6492 287.592 90.5878 287.891C89.2355 285.687 89.297 282.658 90.658 282.412C90.5439 281.56 90.4297 280.708 90.3156 279.857C90.017 278.425 89.7185 276.994 89.4287 275.563C89.5868 274.615 89.7448 273.666 89.9116 272.718C90.0433 272.727 90.1663 272.735 90.298 272.735C90.456 272.894 90.6141 273.052 90.7634 273.21C90.8775 274.579 90.9916 275.949 91.1146 277.398C94.1176 278.46 95.1098 277.67 94.8025 274.316C94.7498 273.78 94.8727 273.227 94.9166 272.683C95.6893 272.27 96.4708 271.857 97.4981 271.322C96.7518 271.023 96.2776 270.83 95.8035 270.637C95.0834 269.583 95.9176 269.302 96.6376 268.977C98.025 268.424 99.4123 267.862 100.808 267.309L100.791 267.283Z" fill="#4E4E4E"/>
<path d="M93.7051 304.759C93.8456 303.969 93.9773 303.17 94.1177 302.38C94.1002 300.931 94.0826 299.482 94.0651 298.033C95.2768 298.727 96.4885 299.42 97.709 300.114C97.349 300.334 96.8046 300.667 96.0407 301.124C98.5695 301.089 99.0788 300.378 98.2095 298.551C97.9461 297.998 97.7091 297.427 97.4632 296.865C97.6037 296.716 97.753 296.567 97.8935 296.409C98.3676 296.496 98.9735 296.426 99.272 296.698C99.8515 297.225 100.247 297.937 100.721 298.578C100.44 299.183 100.255 299.868 99.8427 300.369C98.833 301.598 99.0525 302.239 100.738 302.625C100.308 303.424 98.3149 303.082 99.1491 304.803C99.3335 305.497 99.5091 306.19 99.7023 306.919C100.633 306.55 101.318 306.269 102.012 305.997L102.02 306.006C102.038 306.805 102.055 307.604 102.082 308.412C101.265 308.974 100.492 309.641 99.6144 310.071C99.1227 310.308 98.4379 310.142 97.832 310.15C98.192 309.843 98.552 309.545 99.1666 309.026C97.8232 308.719 96.7695 308.482 95.3997 308.166C97.4632 307.27 97.8056 305.962 97.1208 304.267C95.8651 304.452 94.7763 304.61 93.6963 304.768L93.7051 304.759Z" fill="#8F8F8F"/>
<path d="M82.1404 216.909C81.0165 207.03 79.8925 197.161 78.7686 187.283C78.5403 185.255 78.3384 183.253 80.7882 182.313C82.1316 182.691 81.1306 183.209 80.8935 183.727C80.5599 184.473 80.3052 185.255 80.0155 186.018C80.2613 187.985 80.5072 189.943 80.7531 191.91C81.034 194.272 81.315 196.634 81.596 198.996L81.6575 200.252L81.6135 201.068C81.7628 203.149 81.9209 205.23 82.0702 207.32C82.2019 208.918 83.7736 210.139 83.2643 211.904C83.1677 212.606 83.0799 213.309 82.9833 214.02L82.7814 217.313C82.5619 217.181 82.3511 217.04 82.1316 216.909H82.1404Z" fill="#2C2C2C"/>
<path d="M97.9023 344.342C98.0165 344.175 98.1394 344 98.2535 343.833C98.7628 344.017 99.3687 344.088 99.7638 344.413C101.318 345.668 101.81 344.843 102.02 343.35C103.803 343.517 105.577 343.684 107.359 343.859C106.929 345.176 106.499 346.485 106.2 347.38C104.953 347.126 104.224 346.977 103.496 346.818C103.346 347.582 103.065 348.355 103.092 349.119C103.118 349.865 103.469 350.603 103.698 351.446C104.382 351.7 106.103 351.27 104.971 353.097C104.224 352.816 103.487 352.491 102.723 352.262C101.643 351.946 100.536 351.709 99.4477 351.437C99.474 350.814 99.5004 350.181 99.5355 349.558C98.9911 347.819 98.4467 346.081 97.9023 344.351V344.342Z" fill="#B0B0B0"/>
<path d="M99.0256 322.715C97.9192 322.54 96.8129 322.364 95.5133 322.153C95.2938 321.451 94.9865 320.511 94.6879 319.563C94.565 319.58 94.4421 319.598 94.328 319.616V322.241C94.1523 322.232 93.9767 322.215 93.8099 322.206C93.9591 320.862 92.9143 319.677 94.3631 318.088C95.0743 317.306 94.407 315.278 94.3631 313.812C94.3104 312.477 94.2489 311.142 94.1874 309.808C94.7318 310.08 95.2763 310.361 95.8119 310.633C96.0665 311.028 96.3212 311.423 96.5758 311.818C96.0841 312.003 95.6011 312.187 95.3026 312.301C96.2158 313.355 97.1553 314.444 98.1212 315.559C97.4187 316.209 96.9533 316.648 96.3123 317.254C97.0762 317.737 97.6909 318.123 98.3056 318.518C98.7182 318.658 99.131 318.799 99.5437 318.939C100.22 319.624 100.905 320.3 101.581 320.985C100.264 320.88 99.6051 321.749 99.0344 322.724L99.0256 322.715Z" fill="#B4B4B4"/>
<path d="M80.0244 186.027C80.3142 185.263 80.56 184.473 80.9025 183.735C81.1396 183.208 82.1406 182.699 80.7971 182.321C80.9376 182.049 81.0781 181.777 81.2186 181.513C81.4996 181.162 82.0527 180.776 82.0088 180.469C81.7103 178.3 81.2976 176.149 80.9201 173.988C81.4206 173.716 81.9211 173.435 82.4216 173.163C82.9221 173.479 83.4313 173.787 84.1162 174.217C83.5367 174.533 83.1591 174.735 82.7903 174.937C83.405 175.701 83.8704 176.473 84.5114 177.053C85.6265 178.054 85.8548 179.064 85.0118 180.337C84.2391 181.505 83.5367 182.725 83.0537 183.515C83.7386 184.262 84.5201 184.727 84.5465 185.228C84.5816 185.869 85.047 187.326 83.3435 186.922C82.8606 186.255 82.3689 185.588 81.8684 184.894C81.0781 185.395 80.5513 185.719 80.0332 186.044L80.0244 186.027Z" fill="#D4D4D4"/>
<path d="M62.8842 111.936C62.3398 111.225 61.7954 110.514 61.2598 109.811C61.3915 107.669 61.1456 105.359 63.7271 104.306L68.3106 108.626C67.0023 109.811 65.7379 111.058 64.3594 112.156C64.0959 112.366 63.3847 112.024 62.8842 111.945V111.936Z" fill="#2E2E2E"/>
<path d="M85.3541 242.724C85.0117 240.494 84.6078 238.281 84.3444 236.042C83.8351 231.739 83.4136 227.428 82.9482 223.126C83.2029 222.291 83.4575 221.457 83.7122 220.623C83.958 221.317 84.3444 221.984 84.4322 222.695C84.7658 225.233 84.9941 227.779 85.2663 230.326C85.9951 231.133 86.7327 231.941 87.4615 232.749C86.6888 232.749 85.9161 232.749 84.7395 232.749C85.4244 233.706 85.8195 234.251 86.2146 234.795C85.7492 235.638 85.0556 236.437 85.9951 237.429C86.1356 237.578 86.1093 238.088 85.9688 238.29C85.161 239.484 85.1434 239.466 86.5834 239.826C86.5834 240.643 86.5834 241.468 86.5922 242.285C86.3727 241.899 86.1444 241.503 85.7142 240.739V242.689C85.5912 242.689 85.4683 242.706 85.3453 242.715L85.3541 242.724Z" fill="#3C3C3C"/>
<path d="M48.335 96.4645C49.8364 98.2558 51.3467 100.056 53.217 102.286C53.217 101.364 53.3223 101.022 53.1994 100.864C50.934 97.966 52.6111 94.9367 52.9711 91.9688C52.9975 91.7669 54.0599 91.6791 54.6395 91.5474C54.4638 93.3211 54.2795 95.0947 54.1038 96.8684C54.1302 98.2645 53.9458 99.7046 54.2092 101.057C54.8063 104.104 57.5898 104.508 59.9166 105.403C59.8113 105.974 59.6971 106.536 59.6532 106.782C55.5263 104.472 51.5223 102.058 48.7125 98.2031L48.335 96.4557V96.4645Z" fill="#2A2A2A"/>
<path d="M104.979 353.087C106.112 351.261 104.382 351.691 103.706 351.436C103.478 350.602 103.127 349.865 103.1 349.11C103.074 348.346 103.355 347.573 103.504 346.809C104.233 346.958 104.962 347.108 106.209 347.371C106.498 346.475 106.929 345.158 107.368 343.85C106.981 343.446 106.604 343.051 106.217 342.647C107.28 342.787 108.351 342.919 109.414 343.06C108.931 344.14 108.334 345.193 107.982 346.317C107.315 348.469 106.832 350.69 106.174 352.85C105.831 353.956 105.269 354.993 104.813 356.064C104.637 356.002 104.453 355.932 104.277 355.871C104.391 355.238 104.496 354.615 104.611 353.983C104.734 353.684 104.865 353.394 104.988 353.096L104.979 353.087Z" fill="#323232"/>
<path d="M100.791 372.308V356.74C101.177 356.644 101.941 356.442 102.933 356.178C102.494 361.692 102.064 367.005 101.643 372.317C101.362 372.317 101.072 372.317 100.791 372.308Z" fill="#2A2A2A"/>
<path d="M87.9182 267.266C87.6987 265.035 87.4968 262.805 87.251 260.584C86.9085 257.405 86.5397 254.226 86.1797 251.048C86.4958 251.338 86.8031 251.627 87.1192 251.917C87.1192 253.12 87.1192 254.332 87.1192 255.614C87.5934 255.438 87.9095 255.324 88.2256 255.21C88.41 256.264 88.5856 257.326 88.7876 258.38C88.9017 258.977 89.0773 259.565 89.2266 260.153C89.1651 260.733 89.1036 261.304 89.0422 261.883C89.209 263.051 89.3846 264.228 89.5515 265.395C89.5339 266.432 89.5076 267.468 89.49 268.504C88.9632 268.091 88.4451 267.67 87.9182 267.257V267.266Z" fill="#393939"/>
<path d="M97.4713 296.874C97.7172 297.436 97.9543 297.998 98.2177 298.56C99.087 300.395 98.5777 301.097 96.0488 301.132C96.8128 300.667 97.3484 300.342 97.7172 300.123C96.4967 299.429 95.2849 298.735 94.0732 298.042C93.8449 297.497 93.6693 296.918 93.3532 296.435C93.2741 296.312 92.7473 296.479 92.4224 296.514C92.2907 295.126 92.1591 293.73 92.0273 292.343C92.3171 291.878 92.6069 291.412 92.8966 290.947C92.9844 291.64 93.0722 292.325 93.1863 293.3C93.52 293.247 94.2225 293.133 94.9162 293.019C94.9337 293.186 94.9513 293.344 94.9688 293.511C93.7132 295.82 95.9786 296.944 96.6372 298.735C96.9533 298.033 97.2167 297.453 97.4801 296.874H97.4713Z" fill="#656565"/>
<path d="M95.8027 310.624C95.2583 310.343 94.7139 310.071 94.1782 309.79C94.0202 308.113 93.8622 306.436 93.7129 304.759C94.7929 304.601 95.8729 304.443 97.1373 304.258C97.8222 305.962 97.4798 307.261 95.4163 308.157C96.7949 308.473 97.8486 308.71 99.1832 309.017C98.5686 309.535 98.2085 309.843 97.8485 310.141C96.8914 309.14 96.2066 309.272 95.8027 310.615V310.624Z" fill="#C7C7C7"/>
<path d="M60.3914 95.9374C61.0851 97.114 61.7788 98.2907 62.4725 99.4673C61.7085 99.0546 60.9446 98.6331 60.0578 98.1502C58.9953 99.6429 57.6343 99.1863 56.2645 98.2906C54.9035 97.395 54.9474 96.2009 55.483 94.8486C56.7914 95.595 58.0031 96.2799 59.3817 97.0614C59.5836 96.8331 59.9875 96.3852 60.3914 95.9374Z" fill="#D3D3D3"/>
<path d="M59.9175 105.412C57.5906 104.508 54.7984 104.113 54.2101 101.066C53.9466 99.7136 54.1223 98.2736 54.1047 96.8774C54.0257 98.3701 54.4295 99.5204 56.0452 100.012C56.5808 100.179 57.0023 100.706 57.4852 101.066C56.9057 101.11 56.335 101.145 55.7555 101.189C55.6325 101.399 55.5008 101.61 55.3778 101.821C55.9837 102.234 56.6774 102.559 57.1866 103.068C58.7672 104.666 59.1623 104.666 60.418 102.796C60.7955 103.033 61.1731 103.27 61.6648 103.586C61.0502 104.227 60.497 104.824 59.935 105.412H59.9175Z" fill="#F5F5F5"/>
<path d="M87.1194 251.917C86.8033 251.627 86.496 251.337 86.1799 251.048C85.9077 248.273 85.6267 245.498 85.3545 242.732C85.4774 242.732 85.6003 242.715 85.7233 242.706C86.1096 242.926 86.5048 243.154 87.1458 243.523C85.4775 244.629 86.5663 245.577 87.3653 246.561C87.6638 248.493 87.9623 250.415 88.2609 252.347L87.1194 251.926V251.917Z" fill="#545454"/>
<path d="M99.0257 322.715C99.6052 321.732 100.255 320.863 101.572 320.977C101.862 320.854 102.152 320.722 102.441 320.59C103.284 320.731 104.127 320.871 104.97 321.012C104.522 321.161 104.083 321.363 103.627 321.433C102.029 321.697 101.449 322.452 102.327 324.015C101.388 324.533 100.457 325.051 99.5262 325.56C99.6579 325.262 99.7896 324.963 99.8599 324.796C99.2891 324.471 98.7886 324.19 98.2881 323.909C98.5339 323.506 98.7798 323.11 99.0169 322.706L99.0257 322.715Z" fill="#6E6E6E"/>
<path d="M98.2877 323.918C98.7882 324.199 99.2887 324.48 99.8595 324.805C99.7805 324.972 99.6575 325.27 99.5258 325.569C98.5512 327.799 97.5765 330.021 96.6018 332.251C96.4701 330.565 96.0311 328.835 96.2945 327.219C96.4877 326.043 97.594 325.016 98.2877 323.918Z" fill="#BBBBBB"/>
<path d="M80.9118 173.98C81.2894 176.14 81.7021 178.291 82.0006 180.46C82.0445 180.768 81.4914 181.154 81.2104 181.505C80.8767 179.828 80.464 178.16 80.2182 176.474C79.9372 174.551 79.8055 172.602 79.6123 170.661C79.7352 169.959 79.8669 169.256 79.9899 168.554C80.2972 170.363 80.6045 172.18 80.9118 173.989V173.98Z" fill="#414141"/>
<path d="M104.979 353.087C104.856 353.386 104.724 353.676 104.601 353.974H100.483C100.334 354.202 100.185 354.439 100.036 354.668C99.8424 353.588 99.6492 352.508 99.4561 351.428C100.545 351.7 101.651 351.937 102.731 352.253C103.495 352.473 104.233 352.806 104.979 353.087Z" fill="#DADADA"/>
<path d="M102.02 343.35C101.81 344.842 101.318 345.668 99.7639 344.412C99.3688 344.087 98.7629 344.017 98.2536 343.833C98.1658 343.007 98.078 342.191 97.9463 340.979C99.5795 341.927 100.8 342.639 102.02 343.35Z" fill="#E7E7E7"/>
<path d="M110.002 324.814C109.861 324.287 109.65 323.769 109.606 323.242C109.413 321.109 109.203 318.966 109.141 316.832C109.124 316.279 109.615 315.717 109.879 315.155C110.063 316.929 110.256 318.703 110.441 320.476C110.528 321.337 110.704 322.215 110.643 323.067C110.599 323.664 110.23 324.234 110.002 324.814Z" fill="#545454"/>
<path d="M92.4053 296.514C92.7302 296.479 93.257 296.312 93.336 296.435C93.6521 296.918 93.8277 297.497 94.056 298.042C94.0736 299.49 94.0912 300.939 94.1087 302.388C93.6521 302.142 92.8443 301.94 92.8091 301.633C92.5721 299.938 92.5194 298.226 92.4053 296.514Z" fill="#494949"/>
<path d="M60.4082 102.795C59.1614 104.665 58.7575 104.665 57.177 103.067C56.6765 102.558 55.9828 102.233 55.3682 101.821C55.4911 101.61 55.6228 101.399 55.7457 101.188C56.3252 101.144 56.896 101.109 57.4755 101.065C58.4501 101.645 59.4248 102.216 60.3995 102.795H60.4082Z" fill="#757575"/>
<path d="M87.9188 267.266C88.4456 267.678 88.9637 268.1 89.4906 268.512C89.754 269.917 90.0174 271.322 90.2896 272.727C90.1579 272.727 90.035 272.727 89.9032 272.71C88.1822 271.278 87.7695 269.382 87.9188 267.266Z" fill="#656565"/>
<path d="M83.7211 220.623L82.9572 223.125C82.685 221.053 82.4128 218.981 82.1494 216.917C82.3689 217.049 82.5797 217.19 82.7992 217.321C82.9836 217.901 84.7485 217.673 83.607 218.919C83.6421 219.49 83.686 220.061 83.7211 220.632V220.623Z" fill="#2D2D2D"/>
<path d="M109.589 313.056C109.15 312.003 108.562 310.984 108.307 309.887C108.035 308.719 108.07 307.472 107.965 306.26C109.888 308.192 108.887 310.826 109.589 313.056Z" fill="#525252"/>
<path d="M92.7834 310.106C93.1961 312.591 93.6176 315.085 94.0303 317.57C93.8547 317.596 93.6791 317.623 93.5035 317.64C93.003 315.111 92.5025 312.591 92.0107 310.062C92.2654 310.08 92.5288 310.089 92.7834 310.106Z" fill="#6F6F6F"/>
<path d="M97.9023 344.342C98.4467 346.08 98.9911 347.819 99.5355 349.549C97.7092 348.214 97.9814 346.221 97.9023 344.342Z" fill="#6F6F6F"/>
<path d="M89.4202 275.554C89.7187 276.986 90.0173 278.417 90.3071 279.848C88.9461 279.444 88.1294 276.239 89.1392 275.247C89.227 275.344 89.3236 275.449 89.4114 275.546L89.4202 275.554Z" fill="#8F8F8F"/>
<path d="M74.1069 129.928C73.6854 125.722 73.3079 121.507 72.7898 117.31C72.702 116.616 71.9908 115.993 71.5605 115.334C75.5909 112.99 76.3284 110.856 74.5371 106.922C74.8971 106.984 75.345 106.94 75.582 107.142C75.8894 107.405 76.0386 107.862 76.2494 108.231C76.7148 109.012 77.1801 109.794 77.5753 110.452C79.946 109.662 82.1675 108.916 84.7754 108.038C85.1705 110.918 85.5217 113.13 85.7588 115.352C86.3383 120.708 86.874 126.082 87.4008 131.447C87.4184 131.614 87.2252 131.807 87.1286 131.982C86.672 132.255 86.2154 132.535 85.7588 132.808C85.39 131.008 85.0125 129.208 84.6173 127.276C84.3539 127.241 83.8534 127.188 82.9841 127.083C83.5373 126.617 83.8095 126.38 84.0905 126.152C84.5559 125.002 85.4251 123.843 85.3988 122.701C85.3549 121.086 84.6525 119.487 84.3276 118.267C83.6602 118.372 83.0807 118.469 82.4924 118.565C82.4397 118.021 82.5802 117.345 82.2992 116.959C81.7812 116.239 81.1051 115.343 80.3499 115.185C79.5421 115.009 78.5762 115.606 77.6104 115.887C78.0494 116.52 78.3831 117.003 78.7694 117.556C78.1109 117.977 77.5577 118.328 76.943 118.715C77.7772 119.154 78.4621 119.514 79.147 119.874C78.9977 120.286 78.8397 120.69 78.6904 121.103C78.4007 121.121 78.1021 121.147 77.8124 121.165C77.1889 120.866 76.5655 120.559 76.0562 120.313C75.8894 121.481 75.6435 122.464 75.6172 123.456C75.5733 124.967 75.0903 126.617 76.6181 127.785C76.6445 128.101 76.6621 128.426 76.6884 128.742C76.1704 129.12 75.6523 129.497 75.3625 129.708C75.7489 130.463 76.0123 130.99 76.2845 131.517C76.3811 132.061 76.4777 132.597 76.5743 133.141C74.4054 133.106 75.0903 130.867 74.0893 129.928H74.1069Z" fill="#ECECEC"/>
<path d="M100.334 250.152C100.071 250.898 99.8162 251.636 99.5528 252.382C99.465 253.234 99.2103 254.112 99.3421 254.929C99.5352 256.158 99.9918 257.343 100.343 258.546C100.334 259.231 100.326 259.907 100.317 260.592C99.7987 260.461 99.2718 260.338 98.745 260.206C97.7352 259.565 96.7254 258.915 95.8825 258.38C96.6025 257.168 97.2698 256.07 98.0337 254.788C97.1732 254.683 96.5586 254.613 95.9176 254.542C96.1372 253.682 96.3215 252.988 96.5147 252.242C94.3283 252.444 93.9595 254.068 95.3557 256.553C94.6357 257.484 94.7644 258.625 95.742 259.978C95.1537 260.065 94.6269 260.144 94.1088 260.215C93.0727 259.389 92.0278 258.555 90.9917 257.73C91.8873 257.212 92.7829 256.694 93.6785 256.176C93.5205 255.034 93.3361 253.612 93.1429 252.198L92.7215 252.54C91.9663 251.513 91.2112 250.495 90.4473 249.467C91.378 249.142 92.3175 248.817 93.2483 248.484C94.1966 248.896 95.1449 249.309 95.8474 249.616C96.3128 248.247 96.8133 246.763 97.2962 245.367C95.5752 246.201 94.021 246.947 92.4669 247.693C90.7546 247.579 91.8873 246.306 91.6239 245.604C91.7819 245.49 91.9312 245.375 92.0892 245.252C94.021 245.926 95.2152 245.267 95.6718 243.277C95.7157 243.075 95.7596 242.882 95.7947 242.68C96.2249 241.723 96.6464 240.766 97.0767 239.808L97.0591 239.686C97.7352 239.835 98.4113 239.984 99.0874 240.133C99.1138 241.644 99.1401 243.145 99.1664 244.655C98.7011 245.059 98.0074 245.375 97.823 245.876C97.4981 246.745 97.4806 247.729 97.3313 248.659C97.463 248.73 97.5859 248.809 97.7177 248.879C98.0513 248.045 98.3762 247.219 98.7099 246.385C99.2806 246.973 99.3596 247.632 99.5616 248.255C99.7635 248.896 100.088 249.502 100.352 250.126L100.334 250.152Z" fill="#4D4D4D"/>
<path d="M89.5079 155.681L90.3069 159.088C88.4015 159.922 87.1722 158.807 86.0747 157.534C85.4249 156.779 84.8805 156.349 84.1254 157.341C83.941 156.858 83.7654 156.375 83.5458 155.787C82.8522 156.199 82.2375 156.568 81.6317 156.928C81.5702 155.866 81.5 154.803 81.4385 153.75C81.2805 153.741 81.1136 153.732 80.9555 153.715C81.4297 152.986 81.9039 152.266 82.2375 151.748C81.5175 150.914 80.8765 150.176 80.218 149.412C80.016 149.491 79.577 149.667 79.1379 149.842C79.0238 149.166 79.1204 148.341 78.7604 147.84C77.733 146.409 77.1008 145.083 78.6023 143.503C78.0404 143.687 77.4784 143.88 76.9165 144.065C76.7409 143.889 76.5653 143.713 76.3896 143.538C76.8814 142.958 77.2765 142.212 77.8999 141.843C78.778 141.316 79.8228 141.062 80.7975 140.684C81.0785 140.825 81.3595 140.956 81.6405 141.097C81.8424 141.887 82.2024 142.677 82.22 143.476C82.2463 144.653 82.0443 145.838 81.939 147.024C82.0443 147.006 82.141 146.98 82.2463 146.962C83.1507 145.276 84.0551 143.59 85.0737 141.668C85.3898 142.431 85.5478 142.818 85.7059 143.195C85.7322 143.468 85.7498 143.731 85.7761 144.003C85.1527 144.196 84.5293 144.398 83.7215 144.653C84.1429 145.698 84.4941 146.567 84.8454 147.428C83.8005 147.946 82.7995 148.437 81.4736 149.087C84.1254 149.702 86.2064 150.194 88.2962 150.676C87.7518 151.115 87.2161 151.554 86.8825 151.827C87.3303 152.318 87.7254 152.635 87.98 153.038C88.5244 153.89 88.9986 154.786 89.4991 155.664L89.5079 155.681ZM86.8825 153.864C86.3644 152.88 86.0044 152.108 85.5478 151.396C85.4161 151.186 84.9946 151.168 84.7049 151.063C84.5907 151.871 84.4678 152.67 84.3449 153.565C85.2405 153.671 86.0395 153.767 86.8913 153.864H86.8825Z" fill="#858585"/>
<path d="M95.3987 209.84C95.8202 212.255 96.3031 214.669 96.6544 217.102C96.8826 218.682 96.909 220.289 97.0319 221.887C95.7236 220.939 93.546 221.448 92.8699 219.428C92.6855 219.235 92.4484 218.858 92.3343 218.893C90.9821 219.305 89.6474 219.78 88.3127 220.236C88.2776 219.385 88.023 218.471 88.2513 217.699C88.6991 216.127 89.4015 214.634 90.0074 213.115C90.5606 213.142 91.105 213.168 91.588 213.185C91.2894 211.763 91.0523 210.604 90.8065 209.436C91.4211 207.847 91.2631 206.556 89.5508 205.696C89.0416 205.441 88.7166 204.835 88.304 204.387C89.0064 204.536 89.7001 204.686 90.4025 204.826C91.4913 205.775 92.5802 206.723 93.669 207.671C93.0368 209.375 94.3802 209.489 95.4251 209.849L95.3987 209.84ZM92.9051 213.853C92.5977 213.8 92.2904 213.747 91.983 213.703C91.7987 214.652 91.6143 215.6 91.4211 216.548C91.7548 216.61 92.0885 216.663 92.4133 216.724C92.5802 215.767 92.7382 214.81 92.9051 213.853Z" fill="#808080"/>
<path d="M100.729 298.586C100.255 297.954 99.8597 297.234 99.2802 296.707C98.9817 296.435 98.3671 296.505 97.9017 296.417C97.7788 296.128 97.6646 295.829 97.5417 295.539C97.7699 295.091 97.9895 294.635 98.2178 294.187C98.7446 293.757 99.2802 293.335 99.93 292.808C100.299 293.634 100.527 294.134 100.808 294.758C100.975 294.126 101.089 293.704 101.221 293.23C101.572 293.564 101.809 293.792 102.046 294.011C102.213 293.915 102.389 293.827 102.555 293.73C102.16 292.624 101.756 291.518 101.405 290.543C99.649 291.386 98.3934 292.001 97.1377 292.606C97.1026 292.08 97.0763 291.553 97.0411 291.017C96.7953 290.525 96.5582 290.034 96.1543 289.2C97.085 289.366 97.7963 289.498 98.771 289.674C98.6305 288.682 98.4987 287.768 98.367 286.864C99.6929 286.486 101.019 286.144 100.984 284.309C100.984 284.037 101.633 283.756 101.985 283.483C102.898 285.951 103.934 288.383 104.663 290.912C105.049 292.255 104.882 293.757 104.961 295.197C104.584 295.75 104.206 296.303 103.829 296.856C102.88 296.927 101.572 296.321 101.528 298.077C101.265 298.244 101.001 298.419 100.738 298.586H100.729Z" fill="#4E4E4E"/>
<path d="M98.2969 318.509C97.6823 318.123 97.0677 317.728 96.3037 317.245C96.9447 316.648 97.4189 316.209 98.1125 315.55C97.1467 314.435 96.2071 313.346 95.2939 312.293C95.5925 312.179 96.0754 311.994 96.5671 311.81C99.3418 311.959 102.125 312.117 105.102 312.275C104.689 310.484 104.356 309.026 104.118 308.017C103.205 308.192 102.652 308.298 102.09 308.403C102.073 307.604 102.055 306.805 102.029 305.997C103.416 306.269 104.795 306.541 106.182 306.814L106.63 312.196C105.752 313.496 104.452 314.751 106.129 316.367C105.453 316.507 104.768 316.657 104.092 316.797C103.829 316.964 103.557 317.14 103.012 317.482C103.346 316.349 103.592 315.507 103.943 314.312H102.002C101.59 314.892 101.177 315.463 100.764 316.042C98.3057 315.217 98.9203 317.491 98.2881 318.501L98.2969 318.509Z" fill="#6A6A6A"/>
<path d="M81.6757 200.252C81.6582 199.83 81.6318 199.418 81.6143 198.996C83.2826 198.952 83.5987 198.022 83.3265 196.546C83.0104 194.852 83.2387 193.377 85.4163 193.166C85.6095 192.525 85.8027 191.884 86.0924 190.953C86.5841 190.9 87.6466 190.786 88.709 190.672C89.552 190.532 90.3861 190.382 91.2291 190.242C91.9666 189.627 92.7042 189.021 93.4418 188.407C93.5296 188.881 93.6174 189.364 93.7052 189.838C93.152 190.382 92.5813 190.9 92.0632 191.471C91.3959 192.2 90.7725 192.964 90.4037 193.394C89.2359 192.683 88.5773 192.279 87.91 191.884C89.7803 195.607 90.5003 195.677 93.1784 193.043C92.8623 193.851 92.555 194.667 92.2476 195.458C92.7042 196.028 93.152 196.582 93.4681 196.985C91.7647 197.574 90.2369 198.101 88.709 198.627C86.3646 197.776 87.5412 196.704 88.5861 195.73C87.9978 194.966 87.4797 194.299 86.9002 193.543C86.1363 194.132 85.4251 194.685 84.7138 195.229C84.7841 195.326 84.8543 195.431 84.9246 195.528C85.4602 195.343 85.987 195.15 86.5227 194.966C86.6895 195.124 86.8563 195.282 87.0232 195.44C86.1978 196.476 85.3636 197.521 84.5382 198.557L84.5558 198.548C83.5987 199.119 82.6504 199.681 81.6933 200.252H81.6757Z" fill="#9E9E9E"/>
<path d="M101.976 283.474C101.625 283.747 100.966 284.028 100.975 284.3C101.002 286.135 99.6844 286.477 98.3585 286.855C98.2005 286.855 98.0425 286.855 97.8844 286.855C97.9634 285.617 98.0161 284.379 98.1302 283.141C98.3146 281.174 96.1107 282.324 95.7682 281.499C95.1185 282.008 94.4248 282.561 93.7224 283.106C93.6346 282.605 93.538 282.113 93.4502 281.613C93.538 281.411 93.6258 281.209 93.7136 281.007C94.6004 280.665 95.4785 280.331 96.4971 279.936C96.1019 279.435 95.7683 279.031 95.338 278.487C96.0492 278.066 96.7166 277.662 97.5507 277.161C97.8229 278.452 98.06 279.576 98.3761 281.06C99.3508 279.945 99.9215 278.707 100.703 278.557C101.493 278.399 102.494 279.321 103.399 279.778C102.924 281.007 102.442 282.236 101.967 283.466L101.976 283.474Z" fill="#707070"/>
<path d="M88.6994 198.627C90.2272 198.1 91.7551 197.574 93.4585 196.985C93.1424 196.59 92.6946 196.037 92.238 195.457C92.5453 194.658 92.8527 193.851 93.1688 193.043C90.4907 195.686 89.7707 195.607 87.9004 191.884C88.5589 192.288 89.2262 192.692 90.3941 193.394C90.7628 192.964 91.3863 192.2 92.0536 191.471C92.5717 190.9 93.1512 190.382 93.6956 189.838C94.1258 194.281 94.5473 198.715 94.9776 203.158C94.2663 202.421 93.5463 201.674 93.1688 201.279C93.0371 201.349 92.5366 201.63 92.0273 201.911C91.0351 201.226 90.0517 200.541 89.0594 199.857C89.0858 199.707 89.1209 199.558 89.1472 199.409C88.998 199.145 88.8487 198.891 88.6994 198.627Z" fill="#C1C1C1"/>
<path d="M81.6398 141.106C81.3589 140.965 81.0779 140.833 80.7969 140.693V140.71C81.3676 139.191 81.9384 137.663 82.5003 136.144C82.9042 136.724 83.3082 137.303 84.1248 138.489V135.758C83.9228 134.362 83.2906 132.729 85.758 132.808C86.2145 132.536 86.6711 132.255 87.1277 131.982L88.1638 139.49L87.5141 139.911C86.8731 139.332 86.2321 138.752 85.3628 137.953C85.4155 137.874 85.2574 138.296 84.9589 138.533C83.8701 139.42 82.7374 140.254 81.631 141.106H81.6398Z" fill="#C5C5C5"/>
<path d="M100.79 267.283C99.4031 267.837 98.0158 268.399 96.6197 268.952C96.6109 266.423 94.1962 268.741 93.7221 267.679C94.1786 266.95 94.5738 266.318 94.9689 265.694C94.1962 265.756 93.4235 265.826 92.3523 265.914C92.282 265.317 92.1767 264.447 92.0713 263.578C92.0713 261.304 94.0294 261.857 95.2675 261.365C95.8558 262.226 94.8899 264.114 96.9884 263.964C97.5328 264.974 98.0772 265.984 98.4811 266.73C99.3416 266.651 100.088 266.581 100.826 266.511C100.808 266.765 100.799 267.029 100.782 267.283H100.79Z" fill="#646464"/>
<path d="M88.2962 150.694C86.2152 150.211 84.1254 149.719 81.4736 149.105C82.7995 148.455 83.8005 147.954 84.8454 147.445C84.4941 146.584 84.1429 145.715 83.7215 144.67C84.5293 144.416 85.1527 144.222 85.7761 144.021C86.1712 145.417 86.5664 146.804 86.9615 148.2C87.1284 148.147 87.2952 148.095 87.4532 148.051C87.4093 147.331 87.3654 146.611 87.3215 145.891C87.4181 145.891 87.5147 145.873 87.6025 145.864C88.2171 147.041 88.8406 148.218 89.464 149.394C89.5079 150.211 89.6045 151.027 89.543 151.835C89.5255 152.028 88.9986 152.186 88.7089 152.362C88.5684 151.809 88.4279 151.256 88.2874 150.703L88.2962 150.694Z" fill="#A3A3A3"/>
<path d="M98.2182 230.58C97.7001 231.37 99.6494 232.529 97.8406 233.126C96.9274 233.17 96.0142 233.223 95.3645 233.258C95.8562 234.637 96.2601 235.778 96.664 236.911C96.7957 237.842 96.9274 238.772 97.0591 239.712L97.0767 239.835C96.787 239.545 96.5059 239.255 96.2162 238.966C95.7069 236.911 94.8903 236.454 92.4581 236.876C92.1683 235.813 91.8698 234.76 91.501 233.399C91.9927 232.336 92.9235 231.774 94.4776 232.521C94.9957 232.766 95.7157 232.731 96.304 232.635C96.4708 232.608 96.5235 231.888 96.6289 231.484C96.9099 231.019 97.1821 230.554 97.4631 230.088C97.7177 230.255 97.9723 230.413 98.227 230.58H98.2182Z" fill="#848484"/>
<path d="M83.6601 92.8913C82.185 91.0123 80.7801 92.7948 80.1127 93.4445C78.4883 95.0338 77.3205 97.0885 76.0034 98.9763C75.0112 100.408 74.0629 101.874 73.097 103.323C72.8775 103.209 72.658 103.094 72.4385 102.98C72.9302 101.804 73.2726 100.522 73.9575 99.468C75.3712 97.308 76.82 95.1304 78.541 93.225C79.9722 91.6445 82.0708 91.1352 84.2045 91.3196C84.5996 91.3547 85.1879 92.0045 85.267 92.4435C85.4338 93.3655 85.3109 94.3401 85.3109 95.2972C85.1704 94.7089 85.1528 94.0504 84.8543 93.5675C84.6435 93.225 84.064 93.1109 83.6513 92.8913H83.6601Z" fill="#303030"/>
<path d="M89.4729 149.394C88.8495 148.217 88.2349 147.041 87.6114 145.864C87.5149 145.864 87.4183 145.882 87.3305 145.89C87.3744 146.61 87.4183 147.33 87.4622 148.05C87.2953 148.103 87.1285 148.156 86.9705 148.2C86.5753 146.804 86.1802 145.416 85.7851 144.02C85.7587 143.748 85.7412 143.484 85.7148 143.212C86.3207 142.115 86.9265 141.008 87.5324 139.911C87.7519 139.77 87.9715 139.63 88.1822 139.489C88.6125 142.791 89.0427 146.092 89.4729 149.394Z" fill="#DFDFDF"/>
<path d="M100.729 298.586C100.993 298.419 101.256 298.243 101.519 298.077C101.634 298.902 101.757 299.719 101.871 300.544C102.02 300.544 102.169 300.544 102.31 300.553L102.872 299.341C103.17 299.06 103.469 298.788 103.767 298.507C103.89 298.507 104.022 298.489 104.145 298.481L105.348 298.516C106.006 299.833 105.857 300.948 104.558 301.791L100.738 302.643C99.0433 302.247 98.8238 301.615 99.8424 300.386C100.255 299.885 100.431 299.201 100.72 298.595L100.729 298.586Z" fill="#5F5F5F"/>
<path d="M81.9826 103.2C81.684 103.042 81.166 102.927 81.1308 102.725C80.7357 100.662 80.4108 98.581 80.0684 96.4824C80.9464 96.9478 81.8421 97.4132 82.7377 97.8786C82.527 98.1332 82.3163 98.3966 82.0967 98.6512C82.6763 98.502 83.2558 98.3527 83.8353 98.2034C84.248 100.249 84.327 102.172 81.9826 103.2Z" fill="#DCDCDC"/>
<path d="M104.83 342.287C104.496 341.322 104.303 340.768 104.083 340.119C104.54 339.838 104.97 339.557 105.927 338.96C104.435 338.187 103.293 337.599 102.415 337.142C102.714 336.633 102.907 335.86 103.24 335.807C103.952 335.684 105.199 335.684 105.383 336.044C106.12 337.546 106.665 339.188 106.963 340.83C107.025 341.155 105.673 341.734 104.83 342.287Z" fill="#C9C9C9"/>
<path d="M100.834 266.51C100.097 266.58 99.3503 266.651 98.4898 266.73C98.0859 265.983 97.5415 264.974 96.9971 263.964C97.1551 263.419 97.3044 262.866 97.4625 262.322C98.4547 262.857 99.4556 263.402 100.448 263.937C100.58 264.798 100.702 265.658 100.834 266.51Z" fill="#8A8A8A"/>
<path d="M92.8618 219.42C93.5467 221.439 95.7156 220.93 97.0239 221.878C97.1468 222.309 97.2697 222.748 97.3927 223.178C97.0151 223.433 96.6375 223.687 96.2599 223.933C95.777 222.686 95.0834 221.562 93.5468 221.764C92.7565 221.87 92.0277 222.432 91.2725 222.783C91.0003 222.625 90.7194 222.476 90.4472 222.318C90.4208 221.896 90.3857 221.475 90.3594 221.053C91.1935 220.509 92.0189 219.964 92.8531 219.411L92.8618 219.42Z" fill="#606060"/>
<path d="M95.3995 209.84C94.3634 209.48 93.0199 209.366 93.6434 207.662C93.9507 206.942 94.258 206.222 94.5565 205.511C93.8365 205.002 93.1341 204.501 92.4316 204.01C93.2921 203.992 94.1527 203.966 95.0219 203.948C95.1449 205.915 95.2766 207.873 95.3995 209.84Z" fill="#AAAAAA"/>
<path d="M96.655 236.911C96.2511 235.778 95.8472 234.637 95.3555 233.258C96.0052 233.223 96.9184 233.179 97.8316 233.126C98.1389 234.391 98.455 235.655 98.7711 236.911C98.0687 236.911 97.3574 236.911 96.655 236.911Z" fill="#666666"/>
<path d="M91.9662 174.524C92.2472 177.246 92.5194 179.977 92.8004 182.699C92.5457 183.41 92.2911 184.122 92.0365 184.833C91.4833 184.28 90.9301 183.727 90.377 183.173C91.738 181.444 92.6774 179.617 91.7116 177.352C91.7906 176.412 91.8784 175.473 91.9575 174.533L91.9662 174.524Z" fill="#D3D3D3"/>
<path d="M100.756 302.634L104.576 301.782C104.576 302.072 104.576 302.362 104.576 302.652C104.427 303.108 104.277 303.565 104.119 304.021C102.846 303.407 101.652 303.301 100.511 304.39C100.203 304.68 99.6236 304.68 99.167 304.812C98.3329 303.091 100.335 303.433 100.756 302.634Z" fill="#BABABA"/>
<path d="M104.11 304.022C104.26 303.565 104.409 303.108 104.567 302.652C106.086 302.529 105.858 303.741 106.007 304.601C106.139 305.33 106.139 306.085 106.191 306.831C104.804 306.559 103.417 306.287 102.038 306.015L102.029 306.006C102.723 305.347 103.417 304.689 104.11 304.022Z" fill="#939393"/>
<path d="M100.448 263.937C99.4561 263.402 98.4551 262.857 97.4629 262.322C97.8931 261.619 98.3234 260.917 98.7536 260.223C99.2805 260.355 99.7985 260.478 100.325 260.609C100.65 261.707 101.871 262.77 100.457 263.946L100.448 263.937Z" fill="#434343"/>
<path d="M92.0363 184.824C92.291 184.113 92.5456 183.402 92.8002 182.69C93.011 184.596 93.2129 186.501 93.4237 188.407C92.6861 189.021 91.9485 189.627 91.2197 190.242C91.369 188.986 91.5095 187.722 91.6588 186.466C91.7905 185.922 91.9134 185.369 92.0451 184.824H92.0363Z" fill="#7E7E7E"/>
<path d="M100.334 250.152C100.062 249.529 99.7457 248.923 99.5438 248.282C99.3506 247.658 99.2716 247 98.692 246.411C98.3584 247.246 98.0335 248.071 97.6998 248.905C97.5681 248.835 97.4452 248.756 97.3135 248.686C97.4627 247.755 97.4715 246.771 97.8052 245.902C97.9984 245.393 98.6833 245.077 99.1487 244.682C99.4121 245.384 99.7721 246.069 99.9214 246.798C100.141 247.904 100.202 249.046 100.334 250.17V250.152Z" fill="#B2B2B2"/>
<path d="M96.2692 223.942C96.6467 223.687 97.0243 223.433 97.3931 223.187C97.2439 224.241 98.2799 225.575 96.6467 226.278C96.2165 226.541 95.7951 226.805 95.3648 227.068C94.8292 225.795 94.8467 224.671 96.2604 223.951L96.2692 223.942Z" fill="#808080"/>
<path d="M91.2022 170.292C91.3339 170.143 91.4655 169.994 91.606 169.844C91.7465 171.082 91.887 172.329 92.0275 173.567C90.4207 174.217 90.7807 175.771 90.4382 177C89.9992 176.983 89.5689 176.965 89.1299 176.948C89.1387 176.825 89.1563 176.693 89.165 176.57C89.6655 174.419 91.4655 172.689 91.2109 170.292H91.2022Z" fill="#E2E2E2"/>
<path d="M95.373 227.059C95.8032 226.795 96.2247 226.532 96.6549 226.277C98.5252 227.226 98.1477 228.991 98.2267 230.589C97.9721 230.422 97.7174 230.264 97.4628 230.097C97.1906 229.886 96.892 229.719 96.6637 229.465C96.1808 228.938 95.7505 228.376 95.2939 227.823C95.3203 227.568 95.3554 227.313 95.3817 227.059H95.373Z" fill="#BDBDBD"/>
<path d="M107.367 315.62C106.963 315.875 106.551 316.13 106.147 316.375C104.47 314.769 105.769 313.513 106.647 312.205C106.884 313.337 107.13 314.479 107.367 315.611V315.62Z" fill="#ACACAC"/>
<path d="M95.0129 203.948C94.1524 203.966 93.2919 203.992 92.4226 204.01C90.9563 203.816 91.4305 202.815 91.5622 201.964C91.7114 201.955 91.8607 201.937 92.01 201.929C92.5105 201.648 93.0197 201.367 93.1515 201.296C93.529 201.692 94.2403 202.429 94.9603 203.175C94.9778 203.439 94.9954 203.693 95.0129 203.957V203.948Z" fill="#7E7E7E"/>
<path d="M88.2965 150.694C88.437 151.247 88.5775 151.8 88.718 152.353C88.9726 153.46 90.9658 154.162 89.5082 155.681C89.0077 154.803 88.5336 153.908 87.9892 153.056C87.7345 152.652 87.3394 152.336 86.8916 151.844C87.2253 151.572 87.7609 151.133 88.3053 150.694H88.2965Z" fill="#CBCBCB"/>
<path d="M100.343 258.555C100 257.352 99.535 256.167 99.3418 254.937C99.2101 254.121 99.4647 253.243 99.5525 252.391C99.8598 252.76 100.352 253.094 100.448 253.515C100.755 254.823 100.966 256.167 101.08 257.51C101.107 257.835 100.606 258.204 100.343 258.555Z" fill="#ACACAC"/>
<path d="M96.6553 236.911C97.3577 236.911 98.069 236.911 98.7714 236.911C98.8768 237.991 98.9734 239.071 99.0787 240.151C98.4026 240.002 97.7265 239.853 97.0504 239.703C96.9187 238.773 96.787 237.842 96.6553 236.902V236.911Z" fill="#BCBCBC"/>
<path d="M107.253 328.712C106.559 327.931 105.865 327.149 104.838 325.999H108.649C108.64 326.262 108.622 326.535 108.614 326.798C108.043 326.763 107.472 326.719 106.708 326.666C107.086 327.184 107.428 327.65 107.771 328.124L107.244 328.712H107.253Z" fill="#DDDDDD"/>
<path d="M90.4379 177.001C90.7716 175.771 90.4116 174.208 92.0272 173.567C92.0096 173.883 91.9921 174.2 91.9745 174.524C91.8955 175.464 91.8077 176.404 91.7286 177.343C91.1228 177.58 90.5169 177.817 89.911 178.054C89.8847 177.887 89.8584 177.721 89.832 177.554C90.034 177.369 90.2447 177.194 90.4466 177.009L90.4379 177.001Z" fill="#727272"/>
<path d="M105.366 298.499C104.962 298.49 104.567 298.481 104.163 298.464C104.154 298.341 104.136 298.218 104.128 298.086L104.461 297.603L104.751 296.743C104.523 296.769 104.294 296.787 104.066 296.813C103.987 296.813 103.908 296.813 103.829 296.839C104.207 296.286 104.584 295.733 104.962 295.18C105.093 296.286 105.234 297.392 105.366 298.499Z" fill="#B0B0B0"/>
<path d="M71.1034 102.128H65.9492C66.2741 89.8795 66.599 77.49 66.9239 65.1005L67.3893 65.0303V70.7289C67.6263 70.7465 67.8546 70.7728 68.0917 70.7904C68.2761 69.5348 68.3814 68.2616 68.68 67.0411C68.9258 66.0576 68.9434 64.5825 70.5766 64.9688C71.1385 65.1005 71.9727 65.8908 71.9639 66.3825C71.9288 70.9221 71.6917 75.4617 71.5952 80.0013C71.4547 87.1048 71.3756 94.2171 71.2703 101.321C71.2703 101.584 71.1649 101.848 71.1034 102.128ZM69.4703 79.9047V72.125C69.3912 72.125 69.3122 72.125 69.2332 72.125V89.4053C69.3122 89.4053 69.3912 89.4141 69.4703 89.4229V79.9047Z" fill="#282828"/>
<path d="M85.7673 132.808C83.3 132.72 83.9321 134.362 84.1341 135.758C83.3877 135.583 82.2639 133.221 82.0356 136.109C80.4726 136.294 78.9184 136.478 77.4608 136.654C77.5135 139.314 79.3399 139.841 80.7975 140.71V140.693C79.8228 141.062 78.7779 141.316 77.8911 141.852C77.2764 142.221 76.8813 142.967 76.3808 143.547C76.5564 143.722 76.732 143.898 76.9077 144.073C77.4696 143.889 78.0316 143.696 78.5935 143.511C77.092 145.092 77.7242 146.418 78.7516 147.849C79.1116 148.35 79.015 149.175 79.1292 149.851C78.857 149.992 78.5935 150.123 78.3213 150.264C78.2335 148.393 77.4784 146.98 75.3271 146.33V137.83C76.6179 136.575 77.9175 135.31 79.296 133.976C79.0589 133.317 76.4686 135.381 77.4608 132.746C78.6813 131.131 77.7506 129.928 76.6793 128.76C76.653 128.444 76.6355 128.119 76.6091 127.803C77.215 125.046 77.6716 124.782 80.4199 125.09C81.3507 125.195 82.3165 124.958 83.2736 124.879C83.537 125.309 83.8093 125.739 84.0727 126.17C83.7917 126.407 83.5195 126.635 82.9663 127.1C83.8356 127.206 84.3361 127.258 84.5995 127.294C84.9946 129.225 85.3722 131.025 85.741 132.825L85.7673 132.808Z" fill="#D4D4D4"/>
<path d="M78.3298 150.264C78.602 150.123 78.8654 149.992 79.1376 149.851C79.5766 149.676 80.0157 149.5 80.2176 149.421C80.8762 150.176 81.5171 150.922 82.2372 151.757C81.9035 152.275 81.4293 152.995 80.9552 153.723C81.1132 153.732 81.2801 153.741 81.4381 153.759C81.4996 154.821 81.5698 155.883 81.6313 156.937C81.6225 158.035 81.6137 159.132 81.5962 160.23C80.5249 162.232 80.2703 159.791 79.5503 159.852C78.7688 156.92 78.7863 154.031 79.6381 152.828C79.0761 152.599 78.5229 152.38 78.0049 152.169C78.1278 151.44 78.2244 150.852 78.321 150.255L78.3298 150.264Z" fill="#C3C3C3"/>
<path d="M77.4776 132.738C76.4854 135.372 79.0757 133.308 79.3127 133.967C77.9342 135.31 76.6347 136.566 75.3439 137.822C75.063 136.979 74.782 136.144 74.5098 135.302C75.2034 134.582 75.8971 133.862 76.5996 133.141C76.503 132.597 76.4064 132.061 76.3098 131.517C76.7049 131.921 77.1 132.325 77.4951 132.729L77.4776 132.738Z" fill="#A7A7A7"/>
<path d="M76.5914 133.141C75.8977 133.861 75.204 134.581 74.5016 135.301C74.3699 133.51 74.2382 131.719 74.1064 129.928C75.1074 130.867 74.4226 133.106 76.5914 133.141Z" fill="#C7C7C7"/>
<path d="M92.0713 263.569C92.1767 264.438 92.2821 265.307 92.3523 265.904C93.4235 265.817 94.1962 265.755 94.9689 265.685C94.5738 266.317 94.1787 266.94 93.7221 267.669C94.205 268.732 96.6109 266.422 96.6197 268.942C95.8997 269.276 95.0655 269.548 95.7855 270.602C94.5826 270.892 93.643 271.296 94.8987 272.648C94.8548 273.192 94.7406 273.745 94.7845 274.281C95.0918 277.644 94.0997 278.426 91.0967 277.363C90.9738 275.905 90.8596 274.544 90.7454 273.175C90.9298 272.2 91.123 271.225 91.3249 270.154C91.7727 270.391 92.2821 270.655 92.7913 270.918L93.2128 270.716C92.6069 269.338 92.0011 267.968 91.4128 266.633C91.3425 266.677 90.8596 266.958 90.3064 267.283C89.9991 266.51 89.7708 265.948 89.5425 265.377C89.3757 264.21 89.2 263.033 89.0332 261.865C90.043 262.427 91.0528 262.989 92.0625 263.551L92.0713 263.569Z" fill="#818181"/>
<path d="M97.8841 286.864C98.0421 286.864 98.2002 286.864 98.3582 286.864C98.4899 287.777 98.6216 288.682 98.7621 289.674C97.7875 289.498 97.0763 289.366 96.1455 289.2C96.5494 290.034 96.7952 290.525 97.0323 291.017C96.6021 291.245 96.1631 291.465 95.7328 291.693C94.7728 290.066 93.6635 289.557 92.405 290.165C92.282 288.919 92.1591 287.672 92.0361 286.434C92.3171 286.293 92.5893 286.153 92.8703 286.012C93.7835 285.415 94.6879 284.818 95.6011 284.221C95.364 284.107 95.1269 283.993 94.8898 283.87C95.8206 283.167 96.4616 283.115 96.6635 284.519C96.804 285.538 97.0587 286.539 97.3485 287.944C97.6558 287.321 97.7699 287.092 97.8841 286.864Z" fill="#8C8C8C"/>
<path d="M89.5517 265.395C89.78 265.966 90.0083 266.537 90.3156 267.3C90.8688 266.976 91.3517 266.695 91.422 266.651C92.0103 267.977 92.6161 269.355 93.222 270.734L92.8005 270.936C92.2912 270.672 91.782 270.409 91.3341 270.172C91.1234 271.243 90.939 272.218 90.7546 273.192C90.5966 273.034 90.4385 272.876 90.2892 272.718C90.0258 271.313 89.7624 269.908 89.4902 268.503C89.5078 267.467 89.5341 266.431 89.5517 265.395Z" fill="#B9B9B9"/>
<path d="M92.4053 290.165C93.6638 289.551 94.7731 290.06 95.7331 291.693C96.1634 291.465 96.6024 291.245 97.0326 291.017C97.0678 291.544 97.0941 292.071 97.1293 292.606C96.8132 292.782 96.4882 292.957 96.1721 293.133C95.7507 293.098 95.3292 293.063 94.9077 293.019C94.2053 293.133 93.5116 293.247 93.178 293.3C93.055 292.325 92.9672 291.632 92.8882 290.947C92.7301 290.683 92.5721 290.429 92.4141 290.165H92.4053Z" fill="#A9A9A9"/>
<path d="M92.8787 286.012C92.5977 286.153 92.3255 286.293 92.0445 286.433C92.0182 285.626 92.0094 284.818 91.9655 284.019C91.8689 282.342 91.746 280.656 91.6318 278.979C91.8162 278.882 92.0006 278.794 92.185 278.698C92.7031 279.47 93.2124 280.243 93.7304 281.016C93.6426 281.218 93.5548 281.42 93.467 281.622C93.2738 283.079 93.0806 284.546 92.8787 286.012Z" fill="#C3C3C3"/>
<path d="M94.907 272.657C93.6514 271.305 94.5909 270.901 95.7939 270.611C96.268 270.804 96.7422 270.988 97.4885 271.296C96.4612 271.84 95.6885 272.253 94.907 272.657Z" fill="#A1A1A1"/>
<path d="M102.099 308.412C102.661 308.306 103.215 308.201 104.128 308.025C104.356 309.035 104.698 310.493 105.111 312.284C102.135 312.117 99.3511 311.968 96.5764 311.819C96.3218 311.423 96.0671 311.028 95.8125 310.633C96.2164 309.29 96.91 309.158 97.8583 310.159C98.4554 310.142 99.1403 310.317 99.6408 310.08C100.528 309.659 101.292 308.991 102.108 308.421L102.099 308.412Z" fill="#B2B2B2"/>
<path d="M104.11 304.021C103.416 304.68 102.722 305.338 102.029 306.006C101.335 306.278 100.641 306.559 99.7192 306.928C99.526 306.199 99.3504 305.505 99.166 304.812C99.6226 304.68 100.202 304.68 100.509 304.39C101.651 303.301 102.845 303.407 104.118 304.021H104.11Z" fill="#636363"/>
<path d="M97.5421 295.539C97.665 295.829 97.7792 296.127 97.9021 296.417C97.7616 296.566 97.6123 296.716 97.4718 296.874C97.2084 297.453 96.945 298.033 96.6289 298.735C95.9704 296.944 93.705 295.811 94.9606 293.511C95.8211 294.187 96.6816 294.863 97.5421 295.539Z" fill="#A9A9A9"/>
<path d="M89.1475 199.409C89.1212 199.558 89.0861 199.707 89.0597 199.857C88.3046 200.7 87.5582 201.551 86.8294 202.359C86.8031 201.815 86.7679 201.2 86.724 200.463C84.6079 201.903 84.766 203.044 87.0489 204.405L87.0314 204.387C86.7241 205.45 86.4168 206.512 86.1006 207.592C88.6119 207.698 89.1387 208.339 88.6909 210.639C88.3924 210.49 88.0851 210.341 87.7865 210.191C86.8558 208.154 85.8987 209.63 84.5816 209.998C85.3279 210.323 85.7055 210.49 86.0831 210.657C85.8284 210.947 85.4948 211.201 85.3279 211.535C85.1436 211.921 85.0996 212.378 84.9943 212.799C84.4148 212.501 83.8352 212.202 83.2557 211.895C83.7737 210.13 82.202 208.91 82.0615 207.311L83.2733 205.23C83.6069 204.906 84.1952 204.598 84.2304 204.247C84.406 202.35 84.4323 200.445 84.5114 198.548C84.5114 198.548 84.4938 198.557 84.5026 198.557C86.048 198.838 87.5845 199.119 89.1299 199.409H89.1475Z" fill="#C1C1C1"/>
<path d="M87.8048 210.191C88.1033 210.341 88.4106 210.49 88.7092 210.639C88.8145 210.911 88.9287 211.184 89.034 211.465C89.3326 211.052 89.6399 210.63 89.9385 210.218C89.956 211.175 89.9736 212.141 89.9824 213.098C89.3853 214.626 88.674 216.118 88.2262 217.69C88.0067 218.463 88.2526 219.376 88.2877 220.228C87.1813 220.087 86.0662 219.947 84.9598 219.806C84.5032 219.508 84.0466 219.209 83.5988 218.911C84.7403 217.664 82.9754 217.892 82.791 217.313C82.8613 216.215 82.9227 215.117 82.993 214.02C83.4495 214.432 83.9061 214.845 84.3627 215.258C84.2574 215.451 84.1608 215.644 84.0554 215.829C84.6086 215.714 85.1618 215.591 85.7764 215.46C85.6096 214.863 85.4867 214.415 85.3549 213.967C85.7062 213.677 86.0574 213.379 86.4613 213.045C86.9003 213.721 87.2691 214.274 87.6292 214.836C87.796 214.766 87.9716 214.696 88.1384 214.626C87.9979 214.099 87.7521 213.572 87.7257 213.036C87.6818 212.088 87.7609 211.14 87.7872 210.191H87.8048Z" fill="#A7A7A7"/>
<path d="M85.4067 193.166C83.2291 193.376 83.0008 194.852 83.3169 196.546C83.5891 198.021 83.2729 198.943 81.6046 198.996C81.3236 196.634 81.0427 194.272 80.7617 191.91C81.4642 190.505 82.1579 189.1 82.8603 187.695C83.0447 188.45 83.2203 189.197 83.4047 189.952C83.4398 189.943 83.7471 189.855 83.9052 189.811C84.432 190.997 84.9237 192.077 85.4067 193.157V193.166Z" fill="#D5D5D5"/>
<path d="M82.8606 187.704C82.1581 189.109 81.4645 190.514 80.762 191.919C80.5162 189.952 80.2703 187.994 80.0244 186.027C80.5425 185.702 81.0693 185.377 81.8596 184.877C82.3601 185.562 82.843 186.238 83.3347 186.905C83.1767 187.169 83.0186 187.441 82.8606 187.704Z" fill="#8F8F8F"/>
<path d="M84.5382 198.548C84.4592 200.445 84.4241 202.35 84.2572 204.247C84.2221 204.598 83.6338 204.906 83.3002 205.23C82.6153 203.896 83.6865 201.85 81.6318 201.068C81.6494 200.796 81.6582 200.524 81.6757 200.252C82.6328 199.681 83.5811 199.119 84.5382 198.548Z" fill="#D6D6D6"/>
<path d="M85.363 213.976C85.4859 214.424 85.6176 214.872 85.7844 215.469C85.1698 215.6 84.6166 215.715 84.0635 215.838C84.1688 215.644 84.2654 215.451 84.3708 215.267C83.9142 214.854 83.4576 214.441 83.001 214.029C83.0976 213.326 83.1854 212.624 83.282 211.913C83.8615 212.211 84.441 212.51 85.0205 212.817C85.1347 213.203 85.2488 213.598 85.363 213.985V213.976Z" fill="#616161"/>
<path d="M81.623 201.077C83.6777 201.859 82.6065 203.905 83.2914 205.239L82.0797 207.32C81.9304 205.239 81.7723 203.158 81.623 201.068V201.077Z" fill="#959595"/>
<path d="M104.101 318.94C103.548 319.493 102.995 320.046 102.433 320.591C102.143 320.722 101.853 320.845 101.563 320.977C100.887 320.292 100.202 319.616 99.5264 318.931C99.9391 317.974 100.352 317.008 100.764 316.051C101.177 315.472 101.59 314.901 102.003 314.321C103.337 315.858 102.248 317.254 101.599 318.668C102.538 318.773 103.32 318.852 104.092 318.94H104.101Z" fill="#878787"/>
<path d="M100.774 316.051C100.361 317.008 99.9486 317.974 99.536 318.931C99.1233 318.791 98.7105 318.65 98.2979 318.51C98.9301 317.5 98.3154 315.226 100.774 316.051Z" fill="#B7B7B7"/>
<path d="M82.8599 187.704C83.018 187.441 83.176 187.169 83.3341 186.905C85.0463 187.309 84.5721 185.851 84.537 185.21C84.5107 184.71 83.7292 184.245 83.0443 183.498C83.5272 182.708 84.2297 181.496 85.0024 180.32C85.8453 179.046 85.617 178.037 84.5019 177.036C83.8609 176.456 83.3955 175.683 82.7809 174.92C83.1497 174.718 83.5272 174.516 84.1068 174.2C83.4219 173.778 82.9126 173.462 82.4121 173.146C83.536 172.593 84.6599 172.04 85.7926 171.495C85.8453 172.013 86.0824 172.619 85.9068 173.041C84.7829 175.771 84.7565 175.754 87.3205 177.44C87.6629 177.668 87.9878 177.94 88.3127 178.195C87.5575 179.881 89.3312 179.626 89.9195 180.276C87.6629 181.057 86.9078 183.542 88.2776 185.649C88.5673 185.922 88.8571 186.194 89.1468 186.466C88.2424 186.861 87.338 187.256 86.4336 187.651L86.6619 188.275C87.777 188.213 88.901 188.161 90.0161 188.099C89.7615 188.451 89.463 188.784 89.2698 189.162C89.0327 189.636 88.8834 190.154 88.6902 190.654C87.6278 190.769 86.5653 190.883 86.0736 190.935C85.7926 191.866 85.5907 192.507 85.3975 193.148C84.9146 192.068 84.4229 190.979 83.896 189.803C83.738 189.847 83.4307 189.926 83.3955 189.943C83.2111 189.188 83.0355 188.442 82.8511 187.687L82.8599 187.704Z" fill="#B2B2B2"/>
<path d="M92.0799 245.279C91.9218 245.393 91.7725 245.507 91.6145 245.63C90.8154 245.779 90.0076 245.911 89.2086 246.078C88.5852 246.209 87.9793 246.385 87.3647 246.543C86.5744 245.56 85.4768 244.62 87.1452 243.505C86.5042 243.136 86.1178 242.917 85.7226 242.688C85.7226 242.17 85.7226 241.652 85.7226 240.739C86.1529 241.503 86.3812 241.889 86.6007 242.285C87.5578 241.398 88.6027 240.59 89.3842 239.571C89.5247 239.387 88.5851 238.36 88.1461 237.727C87.628 238.43 87.11 239.124 86.592 239.826C85.1432 239.466 85.1695 239.475 85.9773 238.289C86.1178 238.079 86.1529 237.578 86.0036 237.429C85.0641 236.437 85.7578 235.638 86.2231 234.795C87.5841 235.427 87.8388 234.584 87.9266 233.521C88.471 234.048 89.0242 234.584 89.5686 235.111C90.2447 236.121 90.9208 237.122 91.6057 238.131C91.7989 239.203 91.1227 240.66 92.8701 241.064V241.046C92.6155 241.96 92.3784 242.882 92.1413 243.795C92.1237 244.287 92.1062 244.787 92.0886 245.279H92.0799ZM90.5433 240.757C90.4115 240.818 90.2886 240.88 90.1569 240.941C89.8496 242.03 89.5422 243.127 89.2349 244.216C90.0427 243.865 90.71 243.233 90.9998 242.451C91.1666 242.004 90.7101 241.327 90.5433 240.757Z" fill="#9A9A9A"/>
<path d="M91.6062 238.131C90.9301 237.122 90.254 236.121 89.5691 235.12C89.7974 234.83 90.2716 234.426 90.2013 234.277C89.894 233.618 89.4286 233.021 88.972 232.336C88.5769 232.442 88.0061 232.582 87.4354 232.731L87.4618 232.749C86.733 231.941 85.9954 231.133 85.2666 230.325C86.5661 229.316 87.4969 230.51 88.5857 230.835C89.0422 230.975 89.5603 230.896 90.0433 230.914C89.8764 230.404 89.7008 229.886 89.534 229.377C89.973 229.096 90.4033 228.815 90.8423 228.534C91.9838 228.657 93.1341 228.78 94.2755 228.903C94.2755 229.096 94.2755 229.298 94.2755 229.491C93.6609 229.597 93.055 229.693 92.4404 229.799C92.4052 229.992 92.3701 230.176 92.3262 230.369C93.7575 230.738 95.1799 231.107 96.6112 231.476C96.5058 231.88 96.4619 232.6 96.2863 232.626C95.6892 232.731 94.978 232.766 94.4599 232.512C92.9057 231.765 91.975 232.327 91.4833 233.39C91.8608 234.751 92.1506 235.805 92.4404 236.867C92.1594 237.288 91.8784 237.701 91.5887 238.123L91.6062 238.131Z" fill="#9B9B9B"/>
<path d="M89.5431 229.377L90.0524 230.914C89.5607 230.896 89.0426 230.975 88.5948 230.835C87.506 230.51 86.5753 229.316 85.2758 230.325C85.0036 227.779 84.7753 225.233 84.4416 222.695C84.345 221.984 83.9674 221.308 83.7216 220.623C83.6865 220.052 83.6425 219.481 83.6074 218.911C84.064 219.209 84.5206 219.508 84.9684 219.806C85.1967 220.561 85.425 221.317 85.6357 221.984C86.0484 222.037 86.7685 221.949 86.9089 222.186C87.9538 224.012 89.2446 225.777 88.1909 228.148C87.8748 228.85 88.226 229.913 89.5431 229.368V229.377Z" fill="#C9C9C9"/>
<path d="M86.5928 239.835C87.1108 239.132 87.6289 238.439 88.1469 237.736C88.5859 238.377 89.5343 239.396 89.385 239.58C88.6035 240.599 87.5586 241.407 86.6015 242.293C86.6015 241.477 86.6016 240.652 86.5928 239.835Z" fill="#D2D2D2"/>
<path d="M87.9266 233.522C87.8388 234.593 87.5754 235.427 86.2232 234.795C85.8281 234.251 85.4329 233.706 84.748 232.749C85.9247 232.749 86.6974 232.749 87.4701 232.749L87.4437 232.731C87.6105 232.995 87.7686 233.258 87.9354 233.53L87.9266 233.522Z" fill="#CCCCCC"/>
<path d="M90.4382 249.476C91.1934 250.503 91.9485 251.522 92.7124 252.549L93.1339 252.207C93.327 253.629 93.5202 255.043 93.6695 256.184C92.7739 256.703 91.8783 257.221 90.9826 257.739C90.8246 257.712 90.6665 257.695 90.5085 257.668C89.7445 256.843 88.9894 256.026 88.2255 255.201C87.9094 255.315 87.5933 255.429 87.1191 255.605C87.1191 254.314 87.1191 253.111 87.1191 251.908C87.4967 252.049 87.883 252.189 88.2606 252.33C88.8138 252.084 89.3582 251.838 90.0343 251.54C89.4109 250.855 89.0246 250.433 88.3485 249.687C89.2968 249.59 89.8675 249.538 90.4382 249.485V249.476Z" fill="#858585"/>
<path d="M90.5093 257.677C90.6674 257.703 90.8255 257.721 90.9835 257.747C92.0284 258.572 93.0645 259.407 94.1006 260.232C94.487 260.609 94.8821 260.987 95.2685 261.365C94.0304 261.848 92.0723 261.303 92.0723 263.577C91.0625 263.015 90.0527 262.453 89.043 261.891C89.1044 261.312 89.1659 260.741 89.2274 260.162C89.6489 259.336 90.0791 258.511 90.5005 257.677H90.5093Z" fill="#969696"/>
<path d="M90.5085 257.677C90.0871 258.503 89.6568 259.328 89.2353 260.162C89.0861 259.574 88.9104 258.986 88.7963 258.389C88.5856 257.335 88.4188 256.272 88.2344 255.219C88.9983 256.044 89.7534 256.861 90.5173 257.686L90.5085 257.677Z" fill="#BEBEBE"/>
<path d="M97.5424 295.539C96.6819 294.863 95.8214 294.187 94.9609 293.511C94.9433 293.344 94.9258 293.186 94.9082 293.019C95.3297 293.054 95.7511 293.089 96.1726 293.124C96.8575 293.476 97.5336 293.836 98.2185 294.187C97.9902 294.635 97.7707 295.091 97.5424 295.539Z" fill="#4F4F4F"/>
<path d="M90.4385 249.476C89.8677 249.528 89.297 249.59 88.3487 249.678C89.0248 250.424 89.4111 250.846 90.0345 251.53C89.3584 251.829 88.8052 252.075 88.2608 252.321C87.9623 250.389 87.6638 248.466 87.3652 246.534C87.9799 246.376 88.5857 246.201 89.2091 246.069C90.0082 245.902 90.816 245.77 91.615 245.621C91.8872 246.324 90.7458 247.597 92.458 247.711C92.7214 247.974 92.976 248.238 93.2394 248.492C92.3087 248.817 91.3692 249.142 90.4385 249.476Z" fill="#C0C0C0"/>
<path d="M84.0905 126.152C83.8271 125.722 83.5549 125.292 83.2915 124.861C82.993 124.414 82.7822 123.702 82.3783 123.571C81.7812 123.377 81.0525 123.579 80.3851 123.623C80.3588 123.351 80.4203 123.009 80.2798 122.833C79.7968 122.227 79.2348 121.683 78.6992 121.112C78.8485 120.699 79.0066 120.295 79.1558 119.883C79.8407 120.058 80.5256 120.234 81.3949 120.453C81.2983 119.672 81.2193 119.005 81.1227 118.241C81.711 118.381 82.1061 118.478 82.5012 118.574C83.0896 118.478 83.6691 118.381 84.3364 118.276C84.6525 119.496 85.3637 121.094 85.4076 122.71C85.434 123.852 84.5647 125.011 84.0993 126.161L84.0905 126.152Z" fill="#BDBDBD"/>
<path d="M80.3843 123.623C81.0604 123.588 81.7892 123.377 82.3775 123.57C82.7814 123.702 82.9922 124.413 83.2907 124.861C82.3424 124.94 81.3678 125.177 80.437 125.072C77.6887 124.764 77.2408 125.036 76.6262 127.785C75.0984 126.626 75.5813 124.966 75.6252 123.456C75.6515 122.464 75.8886 121.48 76.0642 120.312C76.5647 120.558 77.1881 120.857 77.8204 121.164C77.434 122.007 77.0565 122.85 76.7053 123.614H80.3843V123.623Z" fill="#AAAAAA"/>
<path d="M82.5005 118.566C82.1054 118.469 81.7103 118.372 81.122 118.232C81.2186 118.996 81.2976 119.663 81.3942 120.445C80.5337 120.225 79.84 120.05 79.1551 119.874C78.4702 119.514 77.7853 119.154 76.9512 118.715C77.5658 118.32 78.119 117.977 78.7776 117.556C78.3912 116.994 78.0488 116.511 77.6185 115.888C78.5844 115.607 79.5502 115.009 80.3581 115.185C81.1132 115.343 81.7893 116.248 82.3074 116.959C82.5796 117.336 82.4479 118.021 82.5005 118.566Z" fill="#D5D5D5"/>
<path d="M77.4785 132.737C77.0833 132.333 76.6882 131.93 76.293 131.526C76.0296 130.999 75.7574 130.472 75.3711 129.717C75.6609 129.506 76.1789 129.129 76.697 128.751C77.7682 129.928 78.699 131.122 77.4785 132.737Z" fill="#868686"/>
<path d="M80.3842 123.623H76.7051C77.0475 122.859 77.4338 122.016 77.8202 121.173C78.1099 121.156 78.4085 121.129 78.6982 121.112C79.2339 121.683 79.7959 122.227 80.2788 122.833C80.4193 123.008 80.3578 123.36 80.3842 123.623Z" fill="#D5D5D5"/>
<path d="M95.2762 261.357C94.8898 260.979 94.4947 260.601 94.1084 260.224C94.6352 260.145 95.1533 260.075 95.7416 259.987C94.7699 258.629 94.6411 257.487 95.3552 256.562C93.9591 254.077 94.3279 252.453 96.5143 252.251C96.3211 252.997 96.1367 253.691 95.9172 254.552C96.5582 254.631 97.1728 254.701 98.0333 254.797C97.2694 256.071 96.6108 257.177 95.8821 258.389C96.7338 258.933 97.7436 259.574 98.7445 260.215C98.3143 260.917 97.8841 261.62 97.4538 262.314C97.2958 262.858 97.1465 263.411 96.9884 263.956C94.8898 264.096 95.8558 262.208 95.2674 261.357H95.2762Z" fill="#6B6B6B"/>
<path d="M92.0801 245.279C92.0976 244.787 92.1152 244.287 92.1328 243.795C92.7123 243.25 93.2918 242.697 93.8889 242.126C94.5035 242.32 95.1533 242.522 95.7943 242.724L95.7767 242.706C95.7328 242.908 95.6977 243.101 95.6538 243.303C95.1972 245.299 94.003 245.958 92.0713 245.279H92.0801Z" fill="#7E7E7E"/>
<path d="M96.2077 238.965C96.4974 239.255 96.7784 239.545 97.0682 239.835C96.638 240.792 96.2165 241.749 95.7862 242.706L95.8038 242.723C94.8204 242.161 93.8369 241.608 92.8535 241.046L92.8623 241.064C93.3188 239.317 94.7414 239.106 96.1989 238.965H96.2077Z" fill="#858585"/>
<path d="M93.2394 248.501C92.976 248.238 92.7214 247.975 92.458 247.72C94.0122 246.974 95.5664 246.218 97.2874 245.393C96.8132 246.798 96.3127 248.273 95.8385 249.643C95.1361 249.336 94.1878 248.923 93.2394 248.51V248.501Z" fill="#898989"/>
<path d="M87.5227 139.911C86.9168 141.009 86.311 142.115 85.7051 143.213C85.547 142.835 85.389 142.449 85.0729 141.685C84.0455 143.599 83.1411 145.294 82.2455 146.98C82.1401 146.997 82.0435 147.024 81.9382 147.041C82.0435 145.856 82.2543 144.67 82.2191 143.494C82.2016 142.695 81.8416 141.905 81.6396 141.114C82.7548 140.263 83.8875 139.428 84.9675 138.542C85.266 138.296 85.4153 137.883 85.3714 137.962C86.2407 138.752 86.8817 139.341 87.5227 139.92V139.911Z" fill="#B0B0B0"/>
<path d="M81.5967 160.23C81.6055 159.132 81.6142 158.034 81.6318 156.937C82.2376 156.577 82.8435 156.208 83.546 155.795C83.7655 156.375 83.9411 156.858 84.1255 157.35C83.8884 158.324 83.6426 159.299 83.4055 160.265C83.0982 160.133 82.7821 159.993 82.4747 159.861C82.185 159.984 81.8952 160.115 81.6054 160.238L81.5967 160.23Z" fill="#D4D4D4"/>
<path d="M86.8823 153.864C86.0306 153.767 85.2403 153.67 84.3359 153.565C84.4676 152.669 84.5818 151.87 84.6959 151.062C84.9857 151.168 85.4072 151.194 85.5389 151.396C85.9955 152.099 86.3554 152.871 86.8735 153.864H86.8823Z" fill="#5F5F5F"/>
<path d="M82.4738 159.852L83.4046 160.256C83.668 161.055 83.87 161.889 84.2124 162.653C84.4758 163.25 84.9149 163.768 85.2749 164.322C84.7744 164.357 84.2387 164.524 83.7822 164.409C82.746 164.155 81.7099 164.409 81.9997 165.472C82.228 166.315 83.3343 167.061 84.2124 167.535C84.7392 167.816 85.591 167.474 86.2934 167.412C86.0563 166.64 85.8193 165.876 85.5822 165.103C85.5207 164.91 85.4944 164.708 85.4417 164.506C85.951 163.926 86.4515 163.356 87.0837 162.636C86.9256 162.258 86.7149 161.679 86.4339 161.134C86.1705 160.607 85.8456 160.116 85.5031 159.527C88.2251 160.212 89.6915 161.617 89.7881 163.54C89.8934 165.621 88.7783 167.395 86.8554 168.194C84.9763 168.975 83.15 168.501 81.9207 166.912C80.5948 165.2 80.507 162.724 81.6748 161.222C81.9909 160.809 82.1928 160.309 82.4387 159.843L82.4738 159.852Z" fill="#2B2B2B"/>
<path d="M88.313 178.195C87.9794 177.94 87.6633 177.668 87.3208 177.44C84.7569 175.754 84.792 175.763 85.9071 173.041C86.0828 172.61 85.8369 172.013 85.793 171.495C86.4867 171.355 87.1715 171.214 87.8652 171.074C87.8652 172.979 87.8652 174.876 87.8652 176.939C88.3042 176.816 88.7345 176.693 89.1648 176.579C89.1648 176.702 89.1472 176.834 89.1296 176.957C88.9891 177.369 88.8487 177.773 88.717 178.186C88.5852 178.186 88.4535 178.204 88.313 178.204V178.195Z" fill="#D0D0D0"/>
<path d="M89.1569 176.579C88.7267 176.702 88.2965 176.816 87.8574 176.939C87.8574 174.876 87.8574 172.979 87.8574 171.074L87.8486 171.056C88.5335 171.451 89.2272 171.855 89.9121 172.25L90.316 171.723C90.0701 171.109 89.8243 170.494 89.5784 169.879C90.1228 170.011 90.6584 170.152 91.2028 170.283C91.4663 172.68 89.6574 174.41 89.1569 176.561V176.579Z" fill="#B2B2B2"/>
<path d="M89.5784 169.888C89.8243 170.503 90.0701 171.117 90.316 171.732L89.9121 172.259C89.2272 171.864 88.5423 171.46 87.8486 171.065C88.0769 170.239 88.2964 169.414 88.6213 168.246C89.113 169.089 89.3501 169.493 89.5784 169.897V169.888Z" fill="#D7D7D7"/>
<path d="M89.9378 210.218C89.6392 210.63 89.3319 211.052 89.0333 211.464C88.928 211.192 88.8138 210.92 88.7085 210.639C89.1563 208.347 88.6294 207.698 86.1182 207.592C86.4343 206.512 86.7416 205.45 87.0489 204.387C87.4616 204.387 87.8743 204.378 88.287 204.37C88.6997 204.817 89.0246 205.423 89.5338 205.678C91.2373 206.538 91.4041 207.829 90.7895 209.418C90.5085 209.682 90.2275 209.945 89.9465 210.209L89.9378 210.218Z" fill="#959595"/>
<path d="M91.5707 201.955C91.4302 202.816 90.9648 203.817 92.4312 204.001C93.1336 204.501 93.8361 204.993 94.5561 205.502C94.2575 206.214 93.9502 206.934 93.6429 207.654C92.5541 206.705 91.4653 205.757 90.3765 204.809C90.2185 204.106 90.0692 203.395 89.9111 202.693C90.4643 202.447 91.0175 202.192 91.5707 201.946V201.955Z" fill="#5B5B5B"/>
<path d="M92.8618 219.42C92.0277 219.965 91.2023 220.509 90.3682 221.062C89.1652 222.063 88.7788 221.027 88.3047 220.228C89.6393 219.771 90.974 219.297 92.3262 218.885C92.4404 218.849 92.6862 219.236 92.8618 219.42Z" fill="#AEAEAE"/>
<path d="M89.9113 202.702C90.0694 203.404 90.2187 204.115 90.3767 204.818C89.6743 204.668 88.9806 204.519 88.2781 204.379C87.8654 204.379 87.4527 204.387 87.04 204.396L87.0576 204.414C88.3484 202.544 88.8138 202.263 89.9201 202.71L89.9113 202.702Z" fill="#CBCBCB"/>
<path d="M89.9375 210.218C90.2185 209.955 90.4994 209.691 90.7804 209.428C91.0263 210.587 91.2634 211.755 91.5619 213.177C91.0877 213.159 90.5346 213.133 89.9814 213.107C89.9638 212.141 89.9463 211.184 89.9375 210.218Z" fill="#BBBBBB"/>
<path d="M92.897 213.844C92.7302 214.801 92.5721 215.758 92.4053 216.715C92.0716 216.654 91.738 216.601 91.4131 216.54C91.5975 215.591 91.7819 214.643 91.9751 213.695C92.2824 213.748 92.5897 213.8 92.897 213.844Z" fill="#606060"/>
<path d="M98.2178 294.187C97.5329 293.836 96.8568 293.476 96.1719 293.125C96.488 292.949 96.8129 292.774 97.129 292.598C98.3846 291.992 99.649 291.386 101.396 290.535C101.748 291.509 102.143 292.616 102.547 293.722C102.38 293.819 102.204 293.906 102.037 294.003C101.8 293.775 101.563 293.546 101.212 293.222C101.08 293.696 100.975 294.117 100.799 294.749C100.518 294.126 100.299 293.625 99.9212 292.8C99.2715 293.327 98.7446 293.748 98.209 294.179L98.2178 294.187Z" fill="#8F8F8F"/>
<path d="M103.829 296.847C103.908 296.83 103.987 296.821 104.066 296.821C103.126 297.401 102.152 297.963 102.889 299.332L102.327 300.544C102.178 300.544 102.029 300.544 101.888 300.535C101.774 299.71 101.651 298.893 101.537 298.068C101.581 296.312 102.889 296.918 103.838 296.847H103.829Z" fill="#949494"/>
<path d="M104.101 318.94C103.328 318.852 102.547 318.773 101.607 318.668C102.248 317.254 103.346 315.858 102.011 314.321C102.617 314.321 103.232 314.321 103.952 314.321C103.601 315.524 103.355 316.358 103.021 317.491C103.565 317.149 103.838 316.973 104.101 316.806C104.101 317.517 104.101 318.22 104.101 318.931V318.94Z" fill="#BFBFBF"/>
<path d="M89.1479 199.409C87.6025 199.128 86.0659 198.847 84.5205 198.557C85.3459 197.521 86.1801 196.476 87.0054 195.44C86.8386 195.282 86.6718 195.124 86.5049 194.966C85.9693 195.15 85.4425 195.343 84.9069 195.528C84.8366 195.431 84.7664 195.326 84.6961 195.229C85.4074 194.676 86.1186 194.132 86.8825 193.543C87.4708 194.299 87.9801 194.975 88.5684 195.73C87.5235 196.704 86.3469 197.776 88.6913 198.627C88.8406 198.891 88.9899 199.145 89.1391 199.409H89.1479Z" fill="#D6D6D6"/>
<path d="M88.6992 190.672C88.8836 190.172 89.0417 189.654 89.2788 189.18C89.4719 188.793 89.7705 188.468 90.0163 188.117C90.1305 187.845 90.2534 187.573 90.3764 187.3L90.7539 186.879C91.0525 186.747 91.3597 186.607 91.6583 186.475C91.509 187.731 91.3685 188.995 91.2193 190.251C90.3763 190.391 89.5422 190.541 88.6992 190.681V190.672Z" fill="#CECECE"/>
<path d="M97.8847 286.864C97.7705 287.092 97.6564 287.32 97.3491 287.944C97.0593 286.539 96.8046 285.538 96.6641 284.519C96.471 283.114 95.8212 283.167 94.8904 283.869C94.5041 283.623 94.1178 283.369 93.7314 283.123C94.4251 282.579 95.1275 282.025 95.7773 281.516C96.1197 282.341 98.3149 281.191 98.1393 283.158C98.0251 284.396 97.9725 285.634 97.8935 286.872L97.8847 286.864Z" fill="#4E4E4E"/>
<path d="M93.7307 283.123C94.117 283.369 94.5033 283.624 94.8897 283.869C95.1267 283.984 95.3638 284.098 95.6009 284.221C94.6877 284.818 93.7833 285.415 92.8701 286.012C93.0633 284.546 93.2652 283.088 93.4584 281.622C93.5462 282.122 93.6341 282.623 93.7307 283.114V283.123Z" fill="#B7B7B7"/>
<path d="M89.912 202.701C88.8144 202.254 88.3402 202.535 87.0495 204.405C84.7665 203.053 84.6085 201.902 86.7246 200.462C86.7597 201.2 86.7949 201.815 86.83 202.359C87.55 201.542 88.3052 200.699 89.0603 199.856C90.0437 200.541 91.0359 201.226 92.0282 201.911C91.8789 201.92 91.7296 201.937 91.5803 201.946C91.0271 202.192 90.474 202.447 89.9208 202.693L89.912 202.701Z" fill="#939393"/>
<path d="M80.7976 140.71C79.3312 139.85 77.5136 139.314 77.4609 136.654C78.9097 136.478 80.4727 136.294 82.0357 136.109C82.1937 136.118 82.3518 136.136 82.5098 136.144C81.9391 137.664 81.3771 139.191 80.8064 140.71H80.7976Z" fill="#9E9E9E"/>
<path d="M82.5005 136.144C82.3425 136.135 82.1844 136.118 82.0264 136.109C82.2547 133.22 83.3786 135.573 84.125 135.758C84.125 136.504 84.125 137.242 84.125 138.488C83.2996 137.303 82.8956 136.724 82.5005 136.144Z" fill="#8F8F8F"/>
<path d="M96.6195 231.484C95.1882 231.115 93.7658 230.747 92.3345 230.378C92.3696 230.185 92.4048 230 92.4487 229.807C93.0633 229.702 93.6691 229.605 94.2838 229.5C94.2838 229.307 94.2838 229.105 94.2838 228.912C93.1423 228.789 91.9921 228.666 90.8506 228.543C91.3423 228.2 91.8165 227.612 92.3345 227.568C93.3004 227.489 94.3014 227.717 95.2848 227.823C95.7414 228.376 96.1804 228.938 96.6546 229.465C96.8829 229.711 97.1814 229.886 97.4536 230.097C97.1727 230.562 96.9005 231.028 96.6195 231.484Z" fill="#5B5B5B"/>
<path d="M96.2075 238.966C94.7411 239.106 93.3275 239.317 92.8709 241.064C91.1235 240.66 91.7996 239.212 91.6064 238.132C91.8874 237.71 92.1684 237.297 92.4582 236.876C94.8904 236.454 95.707 236.911 96.2163 238.966H96.2075Z" fill="#636363"/>
<path d="M102.889 299.332C102.152 297.963 103.126 297.401 104.066 296.821C104.294 296.795 104.523 296.777 104.751 296.751C104.654 297.041 104.558 297.322 104.461 297.611C104.347 297.77 104.242 297.936 104.127 298.094C104.013 298.226 103.899 298.358 103.794 298.498C103.495 298.779 103.197 299.052 102.898 299.332H102.889Z" fill="#4E4E4E"/>
<path d="M103.785 298.498L104.119 298.094C104.128 298.217 104.145 298.34 104.154 298.472C104.031 298.481 103.899 298.489 103.776 298.498H103.785Z" fill="#868686"/>
<path d="M95.285 227.823C94.3016 227.718 93.3094 227.489 92.3347 227.568C91.8167 227.612 91.3425 228.2 90.8508 228.543C90.4118 228.824 89.9815 229.105 89.5425 229.377C88.2254 229.913 87.8829 228.859 88.1903 228.157C89.2439 225.786 87.9532 224.021 86.9083 222.195C86.7678 221.949 86.0478 222.045 85.6351 221.993C85.4332 221.325 85.2049 220.57 84.9678 219.815C86.0741 219.955 87.1893 220.096 88.2957 220.236C88.7786 221.027 89.1561 222.072 90.3591 221.071C90.3854 221.492 90.4205 221.914 90.4469 222.335C89.8322 222.563 89.2176 222.792 88.603 223.029C88.603 223.266 88.6118 223.503 88.6205 223.74C89.4459 223.801 90.2713 223.889 91.0967 223.872C91.1582 223.872 91.2196 223.169 91.2723 222.8C92.0274 222.449 92.7562 221.878 93.5465 221.782C95.0743 221.58 95.7679 222.704 96.2597 223.951C94.8548 224.671 94.8372 225.795 95.3641 227.068C95.3377 227.322 95.3026 227.577 95.2762 227.832L95.285 227.823Z" fill="#959595"/>
<path d="M91.2816 222.792C91.2201 223.169 91.1674 223.863 91.106 223.863C90.2806 223.88 89.4552 223.793 88.6298 223.731C88.6298 223.494 88.6211 223.257 88.6123 223.02C89.2269 222.792 89.8416 222.554 90.4562 222.326C90.7284 222.484 91.0094 222.633 91.2816 222.792Z" fill="#636363"/>
<path d="M88.7178 178.177C88.8583 177.764 88.9987 177.36 89.1304 176.948C89.5695 176.965 89.9998 176.983 90.4388 177C90.2368 177.185 90.0261 177.36 89.8241 177.545C89.8505 177.712 89.8768 177.879 89.9031 178.045C90.509 177.808 91.1149 177.571 91.7207 177.334C92.6866 179.6 91.7471 181.426 90.3861 183.156C90.2544 182.594 90.1227 182.023 89.991 181.461C91.7647 179.52 89.7451 179.038 88.7266 178.168L88.7178 178.177Z" fill="#B2B2B2"/>
<path d="M91.6497 186.466C91.3511 186.598 91.0438 186.738 90.7453 186.879C90.4643 185.799 90.1833 184.719 89.9023 183.639C90.0604 183.481 90.2185 183.323 90.3765 183.173C90.9297 183.727 91.4829 184.28 92.036 184.833C91.9043 185.377 91.7814 185.93 91.6497 186.475V186.466Z" fill="#B2B2B2"/>
<path d="M85.3625 213.976C85.2484 213.589 85.1342 213.194 85.0201 212.808C85.1255 212.387 85.1606 211.93 85.3538 211.544C85.5206 211.21 85.8455 210.955 86.1089 210.666C85.7313 210.499 85.3538 210.332 84.6074 210.007C85.9245 209.629 86.8816 208.154 87.8123 210.2C87.786 211.148 87.6982 212.097 87.7509 213.045C87.7772 213.581 88.0143 214.108 88.1636 214.634C87.9967 214.705 87.8211 214.775 87.6543 214.845C87.2943 214.283 86.9255 213.73 86.4865 213.054C86.0738 213.396 85.7226 213.686 85.3801 213.976H85.3625Z" fill="#8A8A8A"/>
<path d="M90.3761 183.165C90.218 183.323 90.0599 183.481 89.9019 183.63C87.9789 183.191 88.5058 184.728 88.2775 185.65C86.9077 183.542 87.6716 181.057 89.9195 180.276C89.937 180.671 89.9634 181.066 89.9809 181.461C90.1126 182.023 90.2444 182.594 90.3761 183.156V183.165Z" fill="#CECECE"/>
<path d="M90.3683 187.3C90.2453 187.573 90.1312 187.845 90.0082 188.117C88.8931 188.17 87.7692 188.231 86.654 188.293L86.4258 187.669C87.3302 187.274 88.2346 186.879 89.139 186.484C89.5517 186.756 89.9556 187.037 90.3683 187.309V187.3Z" fill="#CECECE"/>
<path d="M90.3681 187.3C89.9554 187.028 89.5515 186.756 89.1388 186.475C88.849 186.203 88.5593 185.93 88.2695 185.658C88.4978 184.736 87.9797 183.2 89.8939 183.639C90.1749 184.719 90.4559 185.799 90.7369 186.879C90.614 187.019 90.4823 187.16 90.3593 187.3H90.3681Z" fill="#8A8A8A"/>
<path d="M89.9823 181.47C89.9648 181.075 89.9384 180.68 89.9209 180.285C89.3326 179.635 87.5589 179.889 88.314 178.204C88.4457 178.204 88.5774 178.195 88.7179 178.186C89.7365 179.055 91.756 179.538 89.9823 181.479V181.47Z" fill="#8C8C8C"/>
<path d="M92.8529 241.046C93.8363 241.608 94.8197 242.162 95.8032 242.723C95.1534 242.522 94.5036 242.32 93.8977 242.126C93.3006 242.697 92.7211 243.242 92.1416 243.795C92.3787 242.882 92.6245 241.96 92.8616 241.046H92.8529Z" fill="#4D4D4D"/>
<path d="M90.5524 240.766C90.7281 241.336 91.1759 242.012 91.0091 242.46C90.7193 243.242 90.052 243.874 89.2441 244.225C89.5515 243.136 89.8588 242.039 90.1661 240.95C90.2978 240.889 90.4207 240.827 90.5524 240.766Z" fill="#606060"/>
<path d="M87.9273 233.522C87.7604 233.258 87.6024 232.995 87.4355 232.723C88.0063 232.574 88.577 232.424 88.9722 232.328C89.4288 233.013 89.8941 233.601 90.2015 234.268C90.2717 234.417 89.7975 234.821 89.5692 235.111C89.0248 234.575 88.4717 234.049 87.9273 233.522Z" fill="#656565"/>
</svg>
