<svg width="333" height="329" viewBox="0 0 333 329" fill="none" xmlns="http://www.w3.org/2000/svg">
<path d="M144.29 24C99.8088 24 74.4315 58.2295 67.303 75.3443L97.2433 101.016L101.52 96.7377C101.52 79.6229 112.838 50 138.5 50C171.25 50 175.565 83.9016 174.228 105.295C169.949 173.754 110.073 233.656 67.303 267.885C67.3027 272.164 66.6214 278.351 67.303 285C84.4111 280.721 234.109 285 234.109 285C234.108 267.885 234.108 255.049 234.109 237.934C223.844 241.357 158.547 239.361 127.182 237.934C169.953 195.148 251.217 143.803 234.109 75.3443C227.799 50.0951 199.892 24 144.29 24Z" stroke="#B10B3A" stroke-width="2" stroke-linecap="round"/>
<circle cx="152.5" cy="115.5" r="91.25" stroke="#333332" stroke-width="0.5"/>
<line y1="284.85" x2="305" y2="284.85" stroke="#333332" stroke-width="0.3"/>
<line x1="11" y1="238.85" x2="333" y2="238.85" stroke="#333332" stroke-width="0.3"/>
<circle cx="138.5" cy="81.5" r="38.3" stroke="#333332" stroke-width="0.4" stroke-dasharray="6 6"/>
<line x1="244.083" y1="0.0553528" x2="26.0833" y2="328.055" stroke="#333332" stroke-width="0.2" stroke-dasharray="5 5"/>
<path d="M103 284.845C96.7964 297.381 83.8848 306 68.9622 306C47.9963 306 31 288.987 31 268C31 247.013 47.9963 230 68.9622 230C79.5272 230 89.0842 234.32 95.9663 241.292" stroke="#333332" stroke-width="0.3"/>
<line x1="7.10443" y1="16.8923" x2="305.104" y2="305.892" stroke="#333332" stroke-width="0.3" stroke-dasharray="3 3"/>
<path d="M62.2294 50.7665L61.5917 53.3403L60.7605 53.0028L61.4447 50.2678L62.0342 49.628L69.4805 56.4886L68.7995 57.2277L61.7834 50.7635L62.2294 50.7665ZM67.651 58.4743L67.0774 57.9458L69.9029 54.879L70.4766 55.4075L67.651 58.4743ZM72.861 53.0186C72.6103 53.2908 72.3124 53.533 71.9672 53.7453C71.6289 53.9502 71.2531 54.1071 70.84 54.216L70.6128 53.3336C70.9491 53.2491 71.2485 53.1307 71.5112 52.9784C71.7807 52.8187 72.0035 52.6433 72.1797 52.4521C72.5117 52.0917 72.7049 51.7123 72.7594 51.3137C72.8133 50.901 72.7614 50.4998 72.6039 50.1099C72.4464 49.7201 72.2059 49.3761 71.8823 49.0779C71.5808 48.8001 71.2332 48.6091 70.8397 48.5049C70.4457 48.3866 70.0353 48.3892 69.6087 48.5128C69.1815 48.6223 68.768 48.894 68.3682 49.3279C68.2259 49.4824 68.0915 49.6577 67.9651 49.854C67.8313 50.0435 67.7159 50.2499 67.6189 50.4733L64.1771 47.3021L67.1246 44.103L67.7534 44.6823L65.4868 47.1424L67.5939 49.0836C67.6599 48.9677 67.7333 48.8586 67.814 48.7562C67.8947 48.6538 67.9758 48.5585 68.0571 48.4702C68.5449 47.9407 69.0621 47.6081 69.6085 47.4725C70.1618 47.3296 70.6965 47.3395 71.2127 47.5024C71.7283 47.6511 72.1884 47.9118 72.5929 48.2845C72.9974 48.6572 73.3132 49.1113 73.5404 49.647C73.7602 50.1758 73.8291 50.7356 73.7471 51.3264C73.6578 51.9103 73.3624 52.4744 72.861 53.0186ZM77.5955 47.8799C77.3448 48.152 77.0469 48.3942 76.7017 48.6065C76.3634 48.8114 75.9876 48.9684 75.5746 49.0773L75.3473 48.1949C75.6836 48.1103 75.983 47.9919 76.2457 47.8396C76.5152 47.68 76.738 47.5045 76.9142 47.3133C77.2462 46.953 77.4394 46.5735 77.4939 46.175C77.5478 45.7623 77.496 45.361 77.3385 44.9712C77.181 44.5813 76.9404 44.2373 76.6168 43.9392C76.3153 43.6613 75.9678 43.4703 75.5743 43.3661C75.1802 43.2478 74.7698 43.2505 74.3432 43.3741C73.916 43.4836 73.5025 43.7553 73.1027 44.1892C72.9604 44.3436 72.8261 44.519 72.6996 44.7152C72.5658 44.9047 72.4504 45.1111 72.3534 45.3345L68.9116 42.1634L71.8591 38.9642L72.4879 39.5435L70.2213 42.0036L72.3284 43.9449C72.3944 43.829 72.4678 43.7198 72.5485 43.6174C72.6293 43.515 72.7103 43.4197 72.7916 43.3315C73.2794 42.8019 73.7966 42.4694 74.3431 42.3338C74.8963 42.1908 75.431 42.2008 75.9472 42.3636C76.4629 42.5124 76.9229 42.7731 77.3274 43.1457C77.7319 43.5184 78.0477 43.9726 78.2749 44.5082C78.4947 45.0371 78.5636 45.5969 78.4817 46.1876C78.3923 46.7716 78.097 47.3357 77.5955 47.8799ZM83.0822 41.9248C82.6011 42.447 82.0576 42.7417 81.4518 42.8089C80.8459 42.8762 80.2039 42.7539 79.5259 42.4419C78.8479 42.13 78.1669 41.659 77.483 41.0288C76.9608 40.5477 76.4974 40.0324 76.0927 39.4828C75.6875 38.9191 75.3846 38.3476 75.1839 37.7684C74.9833 37.1893 74.9178 36.6258 74.9873 36.078C75.0637 35.5229 75.3187 35.01 75.7523 34.5393C76.0776 34.1863 76.449 33.9234 76.8665 33.7506C77.2841 33.5778 77.7238 33.5138 78.1856 33.5586L78.1254 34.4209C77.7777 34.3997 77.4545 34.4554 77.1556 34.588C76.8561 34.7064 76.598 34.8833 76.3811 35.1186C76.0356 35.4937 75.8542 35.9045 75.8371 36.3511C75.82 36.7976 75.9199 37.25 76.1369 37.7082C76.3538 38.1664 76.6447 38.618 77.0097 39.0631C77.3741 39.494 77.7657 39.8955 78.1843 40.2676L78.0115 40.4552C77.6949 39.81 77.5887 39.2022 77.6927 38.6317C77.7967 38.0613 78.0215 37.5886 78.3671 37.2135C78.6991 36.8531 79.1101 36.6063 79.6 36.473C80.0826 36.3329 80.5919 36.3262 81.1278 36.4529C81.6632 36.5655 82.1736 36.8453 82.659 37.2925C83.1003 37.6991 83.4311 38.1739 83.6515 38.7168C83.8713 39.2457 83.9467 39.7911 83.8777 40.353C83.8013 40.9081 83.5362 41.4321 83.0822 41.9248ZM82.494 41.3013C82.7176 41.0586 82.8683 40.7623 82.946 40.4124C83.0163 40.0556 82.9831 39.6784 82.8465 39.2806C82.7099 38.8828 82.4357 38.4942 82.0239 38.1147C81.6414 37.7624 81.2532 37.527 80.8591 37.4087C80.465 37.2904 80.0931 37.2808 79.7433 37.3801C79.4003 37.472 79.1068 37.6503 78.8629 37.915C78.6325 38.1651 78.4751 38.4688 78.3907 38.8261C78.2989 39.1766 78.3142 39.5511 78.4366 39.9494C78.5659 40.3405 78.8364 40.7257 79.2483 41.1051C79.6381 41.4643 80.0404 41.699 80.4554 41.8094C80.8704 41.9198 81.2565 41.9288 81.6136 41.8363C81.9634 41.7371 82.2569 41.5587 82.494 41.3013Z" fill="#333332"/>
<path d="M88.8792 30.1145L89.3378 30.8889L85.866 32.945L85.4074 32.1706L88.8792 30.1145ZM92.9899 22.8163L91.6391 25.0981L90.9401 24.5358L92.3817 22.1131L93.1303 21.6698L98.2896 30.3817L97.4249 30.8938L92.5637 22.6852L92.9899 22.8163ZM95.9664 31.7575L95.569 31.0864L99.157 28.9615L99.5544 29.6326L95.9664 31.7575ZM102.525 28.0303C102.207 28.2188 101.852 28.3651 101.46 28.4692C101.077 28.5682 100.672 28.6105 100.245 28.596L100.281 27.6855C100.628 27.7012 100.948 27.6739 101.244 27.6036C101.548 27.5282 101.812 27.4242 102.035 27.2917C102.457 27.042 102.751 26.7342 102.918 26.3681C103.088 25.9884 103.154 25.5891 103.115 25.1705C103.076 24.7518 102.945 24.3531 102.721 23.9745C102.512 23.6218 102.234 23.3389 101.887 23.126C101.544 22.8993 101.15 22.7839 100.706 22.7796C100.265 22.7616 99.7908 22.903 99.2831 23.2036C99.1024 23.3106 98.9233 23.4399 98.7458 23.5915C98.5632 23.7346 98.3933 23.8991 98.2362 24.0851L95.8515 20.0583L99.5944 17.8417L100.03 18.5774L97.1519 20.2818L98.6118 22.747C98.7083 22.6549 98.81 22.5715 98.9168 22.4966C99.0235 22.4218 99.1285 22.3538 99.2318 22.2926C99.8513 21.9258 100.442 21.7559 101.005 21.7832C101.576 21.8053 102.085 21.9686 102.532 22.273C102.984 22.5637 103.349 22.9457 103.629 23.4189C103.91 23.8922 104.082 24.418 104.145 24.9963C104.204 25.566 104.109 26.122 103.86 26.6642C103.607 27.1979 103.162 27.6532 102.525 28.0303Z" fill="#333332"/>
<path d="M108.782 24.9456C108.437 25.0788 108.062 25.1643 107.659 25.202C107.265 25.2362 106.858 25.2108 106.44 25.1258L106.626 24.2339C106.965 24.3068 107.286 24.333 107.589 24.3126C107.901 24.2885 108.179 24.2297 108.421 24.1361C108.878 23.9598 109.219 23.7049 109.445 23.3715C109.675 23.0252 109.806 22.6424 109.838 22.2231C109.869 21.8038 109.805 21.3889 109.647 20.9783C109.499 20.5958 109.272 20.2708 108.965 20.0034C108.664 19.723 108.295 19.5439 107.857 19.4661C107.426 19.3753 106.935 19.4362 106.384 19.6485C106.188 19.7241 105.99 19.822 105.79 19.9421C105.586 20.0529 105.392 20.187 105.206 20.3444L103.521 15.9781L107.58 14.4123L107.887 15.21L104.767 16.414L105.798 19.087C105.908 19.0122 106.022 18.9468 106.14 18.8906C106.258 18.8345 106.373 18.7848 106.485 18.7416C107.156 18.4825 107.767 18.4129 108.317 18.5329C108.877 18.6494 109.352 18.8948 109.743 19.2691C110.14 19.6306 110.437 20.0679 110.635 20.581C110.833 21.0941 110.915 21.6411 110.882 22.222C110.845 22.7935 110.66 23.3261 110.325 23.8197C109.987 24.3039 109.472 24.6792 108.782 24.9456ZM115.022 22.4577L113.985 22.7291C113.82 21.0779 113.73 19.4296 113.717 17.7841C113.713 16.1349 113.75 14.4538 113.829 12.7406L113.96 12.9957L109.607 14.675L109.256 13.7653L114.518 11.7351L114.777 12.4069C114.69 14.2629 114.665 16.0194 114.704 17.6764C114.753 19.3298 114.859 20.9236 115.022 22.4577Z" fill="#333332"/>
</svg>
