<svg width="103" height="167" viewBox="0 0 103 167" fill="none" xmlns="http://www.w3.org/2000/svg">
<circle cx="30.0957" cy="48.274" r="36.2522" stroke="#333332" stroke-width="0.4"/>
<circle cx="18.4196" cy="119.185" r="46.2696" stroke="#333332" stroke-width="0.3"/>
<circle cx="-0.0918732" cy="80.7392" r="21.3935" stroke="#333332" stroke-width="0.5" stroke-dasharray="6 6"/>
<line x1="-6.21642" y1="0.946225" x2="51.3097" y2="150.742" stroke="#333332" stroke-width="0.3" stroke-dasharray="7 7"/>
<line x1="44.4348" y1="32.8897" x2="51.2696" y2="150.79" stroke="#333332" stroke-width="0.2" stroke-dasharray="4 4"/>
<line x1="-28" y1="165.454" x2="96.7348" y2="165.472" stroke="#333332" stroke-width="0.3"/>
<line x1="-21.7353" y1="141.483" x2="102.999" y2="141.5" stroke="#333332" stroke-width="0.4"/>
<path d="M4.71974 32.6282C4.71974 32.6282 2.39871 24.4909 0.0784578 19.8414C12.8416 8.21709 24.2348 1.93793 40.0633 3.56293C61.9916 5.81415 74.9676 17.7768 77.8199 37.2779C80.7762 57.4902 62.7354 74.4758 46.4913 79.1255C46.4913 79.1255 46.4763 79.8343 46.4913 80.288C53.4528 80.288 68.2514 82.4804 76.6596 91.9123C85.0786 101.356 87.9068 111.211 85.0589 124.46C79.9888 148.049 62.9845 160.1 39.7785 164.75C21.2701 168.458 0.208162 160.545 -9.11804 157.041L-9.2041 157.009C-6.88346 152.359 -6.88346 148.872 -5.72314 144.222C-5.29584 143.743 -4.56282 143.059 -4.56282 143.059C-4.56282 143.059 10.5188 155.846 22.122 157.009C33.7252 158.171 60.4151 157.009 63.8961 124.46C68.1587 84.6037 36.4352 82.2254 20.9642 86.1002C20.9642 83.7753 22.1245 80.288 20.9642 75.6382C23.6716 76.4132 33.8276 78.8699 44.9046 73.3214C56.5078 67.5092 61.5754 43.0901 55.7738 29.1409C49.9722 15.1917 37.6087 13.3168 28.3872 14.0866C19.1657 14.8565 9.36102 25.2661 7.04038 31.4657L4.71974 32.6282Z" stroke="#333332" stroke-width="2"/>
</svg>
