<svg width="272" height="383" viewBox="0 0 272 383" fill="none" xmlns="http://www.w3.org/2000/svg">
<line x1="194.2" y1="8.74228e-09" x2="194.2" y2="347" stroke="#333332" stroke-width="0.4"/>
<line x1="149.2" y1="12" x2="149.2" y2="383" stroke="#333332" stroke-width="0.4"/>
<path d="M213.452 150.863C213.694 152.535 213.858 154.23 213.939 155.946L213.789 155.953C213.83 156.797 213.85 157.646 213.85 158.5C213.85 159.354 213.83 160.203 213.789 161.047L213.939 161.054C213.858 162.77 213.694 164.465 213.452 166.137L213.303 166.116C213.059 167.807 212.734 169.473 212.332 171.113L212.478 171.148C212.072 172.809 211.587 174.441 211.027 176.042L210.886 175.993C210.324 177.599 209.688 179.174 208.98 180.713L209.116 180.776C208.404 182.324 207.621 183.836 206.769 185.309L206.639 185.234C205.789 186.703 204.872 188.133 203.89 189.52L204.013 189.607C203.031 190.995 201.985 192.339 200.88 193.638L200.766 193.541C199.668 194.83 198.51 196.074 197.297 197.268L197.402 197.375C196.193 198.566 194.928 199.708 193.613 200.797L193.517 200.681C192.213 201.76 190.859 202.788 189.459 203.759L189.544 203.883C188.151 204.849 186.712 205.761 185.231 206.615L185.156 206.485C183.692 207.328 182.187 208.116 180.643 208.843L180.707 208.978C179.175 209.7 177.606 210.362 176.003 210.963L175.95 210.822C174.369 211.414 172.754 211.946 171.11 212.413L171.151 212.558C169.525 213.02 167.87 213.42 166.188 213.755L166.159 213.608C164.507 213.938 162.829 214.204 161.13 214.404L161.147 214.553C159.47 214.75 157.772 214.884 156.056 214.951L156.05 214.801C155.204 214.833 154.354 214.85 153.5 214.85C152.646 214.85 151.796 214.833 150.95 214.801L150.944 214.951C149.228 214.884 147.53 214.75 145.853 214.553L145.87 214.404C144.171 214.204 142.493 213.938 140.841 213.608L140.812 213.755C139.13 213.42 137.475 213.02 135.849 212.557L135.89 212.413C134.246 211.946 132.631 211.414 131.05 210.822L130.997 210.963C129.394 210.362 127.825 209.7 126.293 208.978L126.357 208.843C124.813 208.116 123.308 207.328 121.844 206.485L121.769 206.615C120.288 205.761 118.849 204.849 117.456 203.883L117.541 203.759C116.141 202.788 114.787 201.76 113.483 200.681L113.387 200.797C112.072 199.708 110.807 198.566 109.598 197.375L109.703 197.268C108.49 196.074 107.332 194.83 106.234 193.541L106.12 193.638C105.015 192.339 103.969 190.995 102.987 189.607L103.11 189.52C102.128 188.133 101.211 186.703 100.361 185.234L100.231 185.309C99.3795 183.836 98.5957 182.324 97.8838 180.776L98.02 180.713C97.3122 179.174 96.6757 177.599 96.1144 175.993L95.9728 176.042C95.4133 174.441 94.9284 172.809 94.5218 171.148L94.6675 171.113C94.266 169.473 93.9411 167.807 93.6965 166.116L93.548 166.137C93.3061 164.465 93.1425 162.77 93.0607 161.054L93.2106 161.047C93.1703 160.203 93.15 159.354 93.15 158.5C93.15 157.646 93.1703 156.797 93.2106 155.953L93.0607 155.946C93.1425 154.23 93.3061 152.535 93.5481 150.863L93.6965 150.884C93.9411 149.193 94.266 147.527 94.6675 145.887L94.5218 145.852C94.9284 144.191 95.4134 142.559 95.9728 140.958L96.1144 141.007C96.6757 139.401 97.3122 137.826 98.02 136.287L97.8838 136.224C98.5957 134.676 99.3795 133.164 100.231 131.691L100.361 131.766C101.211 130.297 102.128 128.867 103.11 127.48L102.987 127.393C103.969 126.005 105.015 124.661 106.12 123.362L106.234 123.459C107.332 122.17 108.49 120.926 109.703 119.732L109.598 119.625C110.807 118.434 112.072 117.292 113.387 116.203L113.483 116.319C114.787 115.24 116.141 114.212 117.541 113.241L117.456 113.117C118.849 112.151 120.288 111.239 121.769 110.385L121.844 110.515C123.308 109.672 124.813 108.884 126.357 108.157L126.293 108.022C127.825 107.3 129.394 106.638 130.997 106.037L131.05 106.178C132.631 105.586 134.246 105.054 135.89 104.587L135.849 104.443C137.475 103.98 139.13 103.58 140.812 103.245L140.841 103.392C142.493 103.062 144.171 102.796 145.87 102.596L145.853 102.447C147.53 102.25 149.228 102.116 150.944 102.049L150.95 102.199C151.796 102.167 152.646 102.15 153.5 102.15C154.354 102.15 155.204 102.167 156.05 102.199L156.056 102.049C157.772 102.116 159.47 102.25 161.147 102.447L161.13 102.596C162.829 102.796 164.507 103.062 166.159 103.392L166.188 103.245C167.87 103.58 169.525 103.98 171.151 104.443L171.11 104.587C172.754 105.054 174.369 105.586 175.95 106.178L176.003 106.037C177.606 106.638 179.175 107.3 180.707 108.022L180.643 108.157C182.187 108.884 183.692 109.672 185.156 110.515L185.231 110.385C186.712 111.239 188.151 112.151 189.544 113.117L189.459 113.241C190.859 114.212 192.213 115.24 193.517 116.319L193.613 116.203C194.928 117.292 196.193 118.434 197.402 119.625L197.297 119.732C198.51 120.926 199.668 122.17 200.766 123.459L200.88 123.362C201.985 124.661 203.031 126.005 204.013 127.393L203.89 127.48C204.872 128.867 205.789 130.297 206.639 131.766L206.769 131.691C207.621 133.164 208.404 134.676 209.116 136.224L208.98 136.287C209.688 137.826 210.324 139.401 210.886 141.007L211.027 140.958C211.587 142.559 212.072 144.191 212.478 145.852L212.332 145.887C212.734 147.527 213.059 149.193 213.303 150.884L213.452 150.863Z" stroke="#333332" stroke-width="0.3" stroke-dasharray="5 5"/>
<line x1="0.152773" y1="6.87092" x2="256.153" y2="309.871" stroke="#333332" stroke-width="0.4" stroke-dasharray="3 3"/>
<path d="M209 317C209 296.013 190.868 279 168.5 279C146.132 279 128 296.013 128 317" stroke="#333332" stroke-width="0.2"/>
<circle cx="116" cy="142" r="77.75" stroke="#333332" stroke-width="0.5"/>
<line x1="64" y1="316.9" x2="272" y2="316.9" stroke="#333332" stroke-width="0.2" stroke-dasharray="15 15"/>
<path d="M83.0001 98.5L83 98.5C83 98.5 96.4444 112 100.926 121C109.5 115 128.5 103 145.74 98.5C145.74 202 141.259 269.5 141.259 310C168.148 305.5 199.518 310 199.518 310C199.518 206.5 195.036 121 203.999 53.5C204.101 52.7312 195.036 49 195.036 49C150.222 71.5 127.815 80.5 83.0001 98.5Z" fill="#B10B3A"/>
</svg>
