<svg width="130" height="46" viewBox="0 0 130 46" fill="none" xmlns="http://www.w3.org/2000/svg">
<path d="M20 3V3C10.6112 3 3 10.6112 3 20V23C3 34.0457 11.9543 43 23 43H93.5M51 3H107C118.046 3 127 11.9543 127 23V27.5C127 36.0604 120.06 43 111.5 43V43M45 3H35.5M24 3H27H30" stroke="#333332" stroke-width="1.5" stroke-linecap="round" stroke-linejoin="round"/>
<path d="M18.5484 1V1C8.85668 1 1 8.85668 1 18.5484V23C1 35.1503 10.8497 45 23 45H94.4194M50.5484 1H107C119.15 1 129 10.8497 129 23V29C129 37.8366 121.837 45 113 45V45M44.3548 1H34.5484M22.6774 1H25.7742H28.871" stroke="#333332" stroke-width="0.3" stroke-linecap="round" stroke-linejoin="round"/>
</svg>
