<svg width="132" height="287" viewBox="0 0 132 287" fill="none" xmlns="http://www.w3.org/2000/svg">
<line x1="23.7459" y1="8.74228e-09" x2="23.7459" y2="261.408" stroke="#333332" stroke-width="0.4"/>
<line x1="51.7252" y1="17.0615" x2="51.7252" y2="287" stroke="#333332" stroke-width="0.3" stroke-dasharray="6 6"/>
<circle cx="64.371" cy="157.21" r="38.2385" stroke="#333332" stroke-width="0.3"/>
<circle cx="89.9635" cy="200.473" r="25.4424" stroke="#333332" stroke-width="0.3" stroke-dasharray="2 2"/>
<line x1="9.09276" y1="21.2249" x2="130.961" y2="225.964" stroke="#333332" stroke-width="0.4"/>
<line x1="0.938218" y1="227.815" x2="120.369" y2="133.977" stroke="#333332" stroke-width="0.2" stroke-dasharray="5 5"/>
<path d="M25.9824 205.958C28.8326 163.355 28.8326 86.6713 25.9824 38.3887C37.3808 41.2281 40.231 41.2293 48.7836 38.3887C48.7836 115.073 45.9313 171.876 48.7836 194.597C60.1842 197.437 97.2361 194.597 114.337 191.757C111.487 197.437 114.337 203.118 114.337 205.958C77.2851 205.958 54.4839 203.118 25.9824 205.958Z" fill="#B10B3A"/>
</svg>
